<?xml version="1.0" encoding="UTF-8"?>
<!DOCTYPE svg PUBLIC "-//W3C//DTD SVG 1.1//EN" "http://www.w3.org/Graphics/SVG/1.1/DTD/svg11.dtd">
<svg xmlns="http://www.w3.org/2000/svg" version="1.1" width="611px" height="611px" style="shape-rendering:geometricPrecision; text-rendering:geometricPrecision; image-rendering:optimizeQuality; fill-rule:evenodd; clip-rule:evenodd" xmlns:xlink="http://www.w3.org/1999/xlink">
<g><path style="opacity:0.733" fill="#000000" d="M 216.5,206.5 C 234.654,206.898 252.654,206.898 270.5,206.5C 298.406,210.314 325.739,215.814 352.5,223C 378.568,233.906 404.235,245.573 429.5,258C 437.634,263.721 445.968,268.888 454.5,273.5C 454.281,274.675 454.614,275.675 455.5,276.5C 459.644,279.476 463.644,282.643 467.5,286C 472.05,291.38 477.384,295.88 483.5,299.5C 493.964,288.873 504.964,278.707 516.5,269C 539.742,253.89 562.742,238.556 585.5,223C 590.167,222.333 594.833,222.333 599.5,223C 600.333,223.833 601.167,224.667 602,225.5C 601.521,229.108 600.854,232.775 600,236.5C 591.969,248.38 583.636,260.046 575,271.5C 567.574,288.355 559.574,305.022 551,321.5C 548.267,327.915 546.767,334.415 546.5,341C 548.155,343.247 548.488,345.58 547.5,348C 548.827,353.171 550.327,358.338 552,363.5C 564.144,390.049 575.81,416.382 587,442.5C 587.414,449.743 584.248,451.909 577.5,449C 545.802,431.153 515.802,410.819 487.5,388C 481.281,382.283 475.614,376.117 470.5,369.5C 442.702,383.488 413.035,393.321 381.5,399C 374.082,399.779 366.748,400.946 359.5,402.5C 345.531,402.896 331.698,402.896 318,402.5C 311.24,403.363 304.407,404.03 297.5,404.5C 288.502,403.208 279.502,403.208 270.5,404.5C 264.249,404.133 258.082,403.466 252,402.5C 248.143,403.276 244.31,403.609 240.5,403.5C 237.178,402.093 233.845,401.76 230.5,402.5C 219.599,400.307 208.599,398.807 197.5,398C 194.666,397.955 192.166,397.121 190,395.5C 187.381,396.729 184.881,396.396 182.5,394.5C 169.472,393.52 156.472,391.353 143.5,388C 124.028,381.388 105.028,373.721 86.5,365C 70.1843,354.662 54.1843,343.995 38.5,333C 32.5601,326.971 26.7268,320.804 21,314.5C 19.9319,311.129 18.7653,307.796 17.5,304.5C 18.0953,301.025 19.4287,298.025 21.5,295.5C 22.5,295.5 23.5,295.5 24.5,295.5C 24.6079,293.217 25.4412,291.217 27,289.5C 60.7956,251.049 102.296,226.216 151.5,215C 173.25,211.679 194.916,208.845 216.5,206.5 Z M 239.5,214.5 C 252.555,214.995 265.555,215.995 278.5,217.5C 305.927,220.114 332.594,226.28 358.5,236C 375.09,243.196 391.757,250.196 408.5,257C 420.819,263.825 432.819,271.159 444.5,279C 454.704,288.373 464.704,297.873 474.5,307.5C 478.967,311.253 483.634,311.42 488.5,308C 515.431,282.383 545.431,261.383 578.5,245C 571.484,254.031 565.484,263.697 560.5,274C 553.251,291.333 545.585,308.499 537.5,325.5C 534.995,334.064 534.995,342.397 537.5,350.5C 537.069,351.293 536.735,352.127 536.5,353C 538.044,357.047 539.21,361.213 540,365.5C 549.115,385.732 558.782,405.732 569,425.5C 569.614,427.879 569.947,430.212 570,432.5C 552.893,423.033 536.727,412.199 521.5,400C 508.049,391.846 495.549,382.346 484,371.5C 480.833,367.333 477.667,363.167 474.5,359C 473.127,358.125 471.627,357.625 470,357.5C 451.505,367.995 432.005,376.162 411.5,382C 381.706,390.536 351.706,394.369 321.5,393.5C 305.111,394.941 288.944,395.941 273,396.5C 244.433,394.738 215.933,391.904 187.5,388C 180.571,386.174 173.571,384.674 166.5,383.5C 165.707,383.931 164.873,384.265 164,384.5C 149.393,381.379 135.226,376.879 121.5,371C 130.302,365.6 139.635,361.267 149.5,358C 153.833,357.333 158.167,357.333 162.5,358C 169.178,360.331 175.845,362.331 182.5,364C 184.576,362.116 184.91,359.949 183.5,357.5C 176.258,354.13 168.758,351.463 161,349.5C 154.174,349.566 147.341,350.733 140.5,353C 135.202,355.66 129.869,358.327 124.5,361C 121,363.167 118.167,366 116,369.5C 103.205,363.851 90.7051,357.684 78.5,351C 76.446,348.456 74.1127,346.123 71.5,344C 53.2996,334.636 37.9662,321.803 25.5,305.5C 39.4608,290.54 54.1275,276.207 69.5,262.5C 85.4747,250.99 102.808,241.824 121.5,235C 122.5,234 123.5,233 124.5,232C 142.963,225.708 161.796,221.874 181,220.5C 200.586,218.046 220.086,216.046 239.5,214.5 Z"/></g>
<g><path style="opacity:0.677" fill="#000000" d="M 145.5,243.5 C 147.655,243.372 149.655,243.872 151.5,245C 161.851,254.063 173.851,259.563 187.5,261.5C 190.58,266.116 189.247,268.45 183.5,268.5C 169.298,266.649 157.132,260.649 147,250.5C 144.697,248.453 144.197,246.119 145.5,243.5 Z"/></g>
<g><path style="opacity:0.659" fill="#000000" d="M 153.5,270.5 C 155.604,270.201 157.604,270.534 159.5,271.5C 160.524,277.573 163.524,282.239 168.5,285.5C 170.413,284.627 172.247,283.627 174,282.5C 174.333,282.833 174.667,283.167 175,283.5C 176.789,281.771 178.956,281.104 181.5,281.5C 182.119,290.553 177.786,295.22 168.5,295.5C 166.423,295.308 164.423,294.808 162.5,294C 159.612,290.778 157.112,287.278 155,283.5C 153.805,279.249 153.305,274.915 153.5,270.5 Z"/></g>
</svg>
