<?xml version="1.0" encoding="UTF-8"?>
<!DOCTYPE svg PUBLIC "-//W3C//DTD SVG 1.1//EN" "http://www.w3.org/Graphics/SVG/1.1/DTD/svg11.dtd">
<svg xmlns="http://www.w3.org/2000/svg" version="1.1" width="611px" height="611px" style="shape-rendering:geometricPrecision; text-rendering:geometricPrecision; image-rendering:optimizeQuality; fill-rule:evenodd; clip-rule:evenodd" xmlns:xlink="http://www.w3.org/1999/xlink">
<g><path style="opacity:0.73" fill="#000000" d="M 243.5,169.5 C 252.307,171.175 260.974,172.342 269.5,173C 271.706,174.807 274.039,175.307 276.5,174.5C 280.941,174.817 285.108,175.817 289,177.5C 293.783,176.74 298.45,177.406 303,179.5C 303.725,178.941 304.558,178.608 305.5,178.5C 351.99,189.769 395.99,207.103 437.5,230.5C 444.143,235.469 450.81,240.469 457.5,245.5C 458.326,247.959 458.993,250.459 459.5,253C 457.786,253.128 456.119,253.962 454.5,255.5C 448.399,264.111 442.066,272.611 435.5,281C 445.97,287.794 455.637,295.794 464.5,305C 469.453,308.484 474.453,311.984 479.5,315.5C 490.604,305.476 501.604,295.309 512.5,285C 534.106,271.058 555.439,256.725 576.5,242C 582.612,239.586 588.946,238.919 595.5,240C 596.687,241.019 597.687,242.186 598.5,243.5C 597.512,246.45 596.679,249.45 596,252.5C 587.956,264.401 579.623,276.067 571,287.5C 563.577,304.35 555.577,321.016 547,337.5C 542.489,348.355 541.822,359.355 545,370.5C 556.771,399.504 569.105,428.171 582,456.5C 584.583,461.171 583.583,464.837 579,467.5C 568.91,462.076 558.744,456.576 548.5,451C 528.794,438.152 509.461,424.819 490.5,411C 488.963,409.89 488.297,408.39 488.5,406.5C 486.567,406.271 484.9,405.438 483.5,404C 477.26,398.097 471.427,391.931 466,385.5C 455.596,391.466 445.096,396.299 434.5,400C 408.934,409.464 382.601,415.964 355.5,419.5C 352.455,418.802 349.455,418.468 346.5,418.5C 341.167,419.167 335.833,419.833 330.5,420.5C 325.189,420.114 319.689,419.781 314,419.5C 300.579,421.401 287.079,422.068 273.5,421.5C 275.685,425.856 278.018,430.189 280.5,434.5C 279.167,435.5 279.167,436.5 280.5,437.5C 280.023,438.478 279.357,439.311 278.5,440C 269.904,442.253 261.571,445.253 253.5,449C 246.287,453.518 238.953,457.851 231.5,462C 228.953,463.316 228.287,465.149 229.5,467.5C 226.216,468.657 222.882,468.824 219.5,468C 210.662,461.943 202.495,455.11 195,447.5C 187.167,437.089 179.167,426.755 171,416.5C 170.167,414.5 169.333,412.5 168.5,410.5C 135.141,403.479 103.474,391.979 73.5,376C 61.7238,368.401 50.0572,360.568 38.5,352.5C 30.8442,345.677 23.6775,338.344 17,330.5C 15.9319,327.129 14.7653,323.796 13.5,320.5C 14.0953,317.025 15.4287,314.025 17.5,311.5C 18.5,311.5 19.5,311.5 20.5,311.5C 20.3505,310.448 20.5172,309.448 21,308.5C 31.8084,298.024 42.3084,287.191 52.5,276C 64.984,266.847 77.984,258.514 91.5,251C 112.485,242.317 133.818,235.151 155.5,229.5C 158.183,224.795 160.85,220.129 163.5,215.5C 166.86,213.659 169.86,211.159 172.5,208C 185.172,199.659 197.839,191.325 210.5,183C 216.051,180.264 221.717,177.931 227.5,176C 229.03,173.803 230.864,172.97 233,173.5C 236.415,171.644 239.915,170.311 243.5,169.5 Z M 166.5,227.5 C 168.303,225.519 169.97,223.352 171.5,221C 177.092,217.416 182.426,213.416 187.5,209C 197.796,202.671 208.13,196.338 218.5,190C 223.167,188 227.833,186 232.5,184C 238.313,183.006 243.979,181.506 249.5,179.5C 262.525,182.858 275.525,185.024 288.5,186C 282.774,190.389 276.774,194.389 270.5,198C 265.695,203.14 260.861,208.307 256,213.5C 253.429,215.976 251.929,218.976 251.5,222.5C 239.322,223.589 227.322,223.589 215.5,222.5C 199.213,224.663 182.879,226.329 166.5,227.5 Z M 305.5,188.5 C 319.306,191.234 332.639,195.234 345.5,200.5C 336.024,207.475 326.691,214.642 317.5,222C 314.941,224.4 312.941,227.233 311.5,230.5C 295.582,226.764 279.748,224.097 264,222.5C 268.161,214.612 273.994,207.945 281.5,202.5C 282.386,201.675 282.719,200.675 282.5,199.5C 290.564,196.634 298.231,192.968 305.5,188.5 Z M 359.5,205.5 C 374.743,211.788 389.743,218.621 404.5,226C 391.176,230.315 380.343,238.148 372,249.5C 356.046,242.404 339.546,236.904 322.5,233C 324.037,231.89 324.703,230.39 324.5,228.5C 327.815,228.028 330.149,226.195 331.5,223C 336.136,219.372 340.803,215.705 345.5,212C 350.35,209.92 355.017,207.753 359.5,205.5 Z M 235.5,230.5 C 248.929,230.675 262.096,232.008 275,234.5C 302.018,237.463 328.518,243.297 354.5,252C 372.49,259.661 390.49,267.328 408.5,275C 419.46,281.485 430.127,288.485 440.5,296C 450.409,305.415 460.409,314.581 470.5,323.5C 474.967,327.253 479.634,327.42 484.5,324C 511.472,298.357 541.472,277.357 574.5,261C 569.031,268.108 564.198,275.608 560,283.5C 550.743,303.763 541.576,324.097 532.5,344.5C 531.092,352.167 531.426,359.501 533.5,366.5C 533.069,367.293 532.735,368.127 532.5,369C 534.044,373.047 535.21,377.213 536,381.5C 544.56,401.955 554.227,421.955 565,441.5C 565.614,443.879 565.947,446.212 566,448.5C 549.271,438.884 533.105,428.384 517.5,417C 512.994,415.059 508.994,412.392 505.5,409C 504.207,408.51 502.873,408.343 501.5,408.5C 501.271,406.567 500.438,404.9 499,403.5C 487.861,395.694 478.361,386.194 470.5,375C 468.966,374.077 467.299,373.577 465.5,373.5C 455.636,378.932 445.636,384.098 435.5,389C 413.867,396.101 391.867,402.268 369.5,407.5C 357.084,409.396 344.751,410.73 332.5,411.5C 327.441,410.641 322.441,410.308 317.5,410.5C 302.326,411.876 287.16,412.876 272,413.5C 253.439,412.064 234.605,410.564 215.5,409C 192.749,405.061 170.082,401.395 147.5,398C 124.356,390.629 102.023,381.296 80.5,370C 80.0426,369.586 79.7093,369.086 79.5,368.5C 90.4241,363.36 101.924,360.36 114,359.5C 122.619,361.143 129.953,365.143 136,371.5C 141.116,369.579 141.783,366.579 138,362.5C 132.275,357.055 125.441,353.889 117.5,353C 118.5,352.667 119.5,352.333 120.5,352C 120.167,351.667 119.833,351.333 119.5,351C 102.829,352.583 86.996,357.083 72,364.5C 70.1739,363.99 70.0072,363.156 71.5,362C 70.5509,361.383 69.7175,361.549 69,362.5C 67.4251,358.515 64.7584,356.848 61,357.5C 57.758,354.795 54.258,352.461 50.5,350.5C 49.6143,349.675 49.281,348.675 49.5,347.5C 48.448,347.649 47.448,347.483 46.5,347C 41.3251,342.657 36.3251,338.157 31.5,333.5C 32.7287,332.719 34.062,332.219 35.5,332C 36.4506,331.282 36.6172,330.449 36,329.5C 33.031,324.527 28.8643,321.027 23.5,319C 37.3757,305.463 51.3757,291.963 65.5,278.5C 86.455,263.945 108.788,252.779 132.5,245C 146.462,241.935 160.462,239.101 174.5,236.5C 175.167,236.833 175.833,237.167 176.5,237.5C 196.644,235.392 216.31,233.058 235.5,230.5 Z M 416.5,232.5 C 427.453,237.471 437.453,243.804 446.5,251.5C 439.296,258.895 432.796,266.895 427,275.5C 424.92,273.877 422.754,272.377 420.5,271C 407.639,265.381 394.972,259.381 382.5,253C 386.755,248.209 391.422,243.875 396.5,240C 400.519,238.538 404.352,236.705 408,234.5C 408.414,234.957 408.914,235.291 409.5,235.5C 411.764,234.131 414.097,233.131 416.5,232.5 Z M 115.5,311.5 C 120.653,313.637 120.82,316.304 116,319.5C 113.175,317.936 112.175,315.602 113,312.5C 114.461,313.883 115.294,313.549 115.5,311.5 Z M 234.5,352.5 C 235.167,352.5 235.833,352.5 236.5,352.5C 236.027,353.906 235.027,354.573 233.5,354.5C 233.5,354.167 233.5,353.833 233.5,353.5C 234.167,353.5 234.5,353.167 234.5,352.5 Z M 179.5,413.5 C 181.532,413.478 183.698,413.145 186,412.5C 186.5,413 187,413.5 187.5,414C 194.833,415 202.167,416 209.5,417C 208.724,418.77 208.89,420.603 210,422.5C 215.593,433.922 223.76,442.922 234.5,449.5C 230.545,451.619 226.712,453.952 223,456.5C 214.82,452.158 207.653,446.491 201.5,439.5C 194.114,430.789 186.781,422.122 179.5,413.5 Z M 218.5,418.5 C 222.102,419.034 225.602,419.034 229,418.5C 229.75,419.126 230.584,419.626 231.5,420C 237.203,427.71 244.203,434.043 252.5,439C 249.389,440.451 246.556,442.285 244,444.5C 240.579,440.596 236.412,437.596 231.5,435.5C 229.213,432.559 226.713,429.892 224,427.5C 222.148,424.454 220.315,421.454 218.5,418.5 Z M 247.5,419.5 C 251.75,420.272 256.083,420.772 260.5,421C 262.276,424.441 264.443,427.608 267,430.5C 267.749,431.635 267.583,432.635 266.5,433.5C 258.432,431.092 251.432,426.926 245.5,421C 246.416,420.722 247.082,420.222 247.5,419.5 Z"/></g>
<g><path style="opacity:0.665" fill="#000000" d="M 248.5,303.5 C 249.833,304.5 251.167,305.5 252.5,306.5C 254.404,306.738 255.738,307.738 256.5,309.5C 255.167,309.833 255.167,310.167 256.5,310.5C 257.23,311.712 258.23,312.712 259.5,313.5C 258.197,315.589 258.697,317.256 261,318.5C 262.67,324.678 262.836,330.845 261.5,337C 262.167,337.333 262.833,337.667 263.5,338C 261.893,339.405 260.56,341.072 259.5,343C 258.427,344.416 258.427,345.75 259.5,347C 258.333,347.5 257.5,348.333 257,349.5C 256.667,349.167 256.333,348.833 256,348.5C 254.632,349.993 254.465,351.493 255.5,353C 253.411,354.171 251.411,355.504 249.5,357C 250.471,358.041 251.471,358.874 252.5,359.5C 254.292,358.527 255.625,359.194 256.5,361.5C 255.167,361.833 255.167,362.167 256.5,362.5C 256.953,364.565 257.953,366.232 259.5,367.5C 262.311,375.128 261.978,382.628 258.5,390C 258.957,390.414 259.291,390.914 259.5,391.5C 257.649,393.184 255.982,395.017 254.5,397C 255.167,397.333 255.833,397.667 256.5,398C 255,398.833 253.833,400 253,401.5C 252.667,401.167 252.333,400.833 252,400.5C 251.173,401.662 250.34,402.829 249.5,404C 249.645,404.772 249.978,405.439 250.5,406C 248.981,405.669 247.648,405.836 246.5,406.5C 245.833,406.5 245.5,406.833 245.5,407.5C 241.5,410.167 237.5,410.167 233.5,407.5C 233.027,406.094 232.027,405.427 230.5,405.5C 230.196,404.85 229.863,404.183 229.5,403.5C 231.36,402.675 233.026,401.675 234.5,400.5C 235.71,400.068 236.71,399.401 237.5,398.5C 239.485,398.141 240.151,397.308 239.5,396C 241.119,395.764 242.119,394.931 242.5,393.5C 243.833,393.5 244.5,392.833 244.5,391.5C 245.338,391.158 245.672,390.492 245.5,389.5C 246.64,387.955 247.64,386.288 248.5,384.5C 250.076,381.772 250.576,378.772 250,375.5C 249.346,376.696 248.846,376.696 248.5,375.5C 249.789,372.849 249.289,370.516 247,368.5C 246.309,370.891 245.309,370.891 244,368.5C 243.308,367.563 243.475,366.897 244.5,366.5C 244.158,365.662 243.492,365.328 242.5,365.5C 240.951,363.595 239.118,363.261 237,364.5C 236.28,362.944 235.113,361.944 233.5,361.5C 233.5,359.167 233.5,356.833 233.5,354.5C 235.027,354.573 236.027,353.906 236.5,352.5C 238.38,352.771 239.713,352.104 240.5,350.5C 242.048,350.179 242.715,349.179 242.5,347.5C 244.942,347.646 245.609,346.813 244.5,345C 246.081,344.293 247.581,343.46 249,342.5C 249.617,341.551 249.451,340.718 248.5,340C 250.592,339.047 250.925,337.714 249.5,336C 250.448,335.517 251.448,335.351 252.5,335.5C 252.5,334.5 252.5,333.5 252.5,332.5C 253.043,332.44 253.376,332.107 253.5,331.5C 252.906,328.17 252.24,324.836 251.5,321.5C 249.844,320.008 248.344,318.342 247,316.5C 245.893,317.712 245.393,317.379 245.5,315.5C 246.833,314.833 246.833,314.167 245.5,313.5C 244.152,312.814 242.985,311.814 242,310.5C 241.667,310.833 241.333,311.167 241,311.5C 240.16,308.536 239.16,308.203 238,310.5C 237.517,309.552 237.351,308.552 237.5,307.5C 236.041,307.567 234.708,307.234 233.5,306.5C 232.713,304.896 231.38,304.229 229.5,304.5C 229.325,302.379 229.659,300.379 230.5,298.5C 236.137,296.372 240.804,292.872 244.5,288C 243.366,286.984 243.699,286.317 245.5,286C 245.5,285 245.5,284 245.5,283C 246.448,282.517 247.448,282.351 248.5,282.5C 248.22,278.713 248.22,275.047 248.5,271.5C 248.043,270.702 247.376,270.369 246.5,270.5C 246.559,267.951 245.559,265.951 243.5,264.5C 243.709,263.914 244.043,263.414 244.5,263C 242.652,261.482 241.152,259.649 240,257.5C 237.853,256.887 235.686,256.221 233.5,255.5C 233.833,254.833 234.167,254.167 234.5,253.5C 233.36,251.922 232.86,250.256 233,248.5C 235.893,248.953 238.893,248.953 242,248.5C 242.26,250.618 243.26,252.284 245,253.5C 245.333,253.167 245.667,252.833 246,252.5C 252.646,258.958 256.479,266.791 257.5,276C 256.71,280.179 255.877,284.346 255,288.5C 254.5,289 254,289.5 253.5,290C 253.833,291 254.167,292 254.5,293C 253.552,293.483 252.552,293.649 251.5,293.5C 251.5,294.5 251.5,295.5 251.5,296.5C 250.167,296.5 248.833,296.5 247.5,296.5C 247.822,298.722 247.155,300.556 245.5,302C 246.244,303.039 247.244,303.539 248.5,303.5 Z"/></g>
<g><path style="opacity:0.662" fill="#000000" d="M 319.5,314.5 C 321.758,314.775 322.092,315.775 320.5,317.5C 322.168,319.342 323.168,321.508 323.5,324C 323.972,328.743 324.639,333.41 325.5,338C 323.116,339.41 321.45,341.41 320.5,344C 323.167,344.667 323.167,345.333 320.5,346C 321.604,347.131 321.271,347.965 319.5,348.5C 318.893,348.376 318.56,348.043 318.5,347.5C 316.418,348.585 316.084,350.085 317.5,352C 316.956,352.717 316.289,353.217 315.5,353.5C 316.263,354.268 317.263,354.768 318.5,355C 316.699,355.317 316.366,355.984 317.5,357C 319.087,357.862 320.754,358.529 322.5,359C 320.314,359.604 320.148,360.77 322,362.5C 322.333,362.167 322.667,361.833 323,361.5C 326.263,371.167 325.43,380.501 320.5,389.5C 322.252,392.191 321.752,392.858 319,391.5C 317.513,392.253 317.346,393.086 318.5,394C 317.058,394.377 316.058,395.21 315.5,396.5C 314.522,396.811 313.855,397.478 313.5,398.5C 314.435,401.06 313.601,401.726 311,400.5C 309.706,401.854 309.54,403.188 310.5,404.5C 309.284,405.096 307.951,405.263 306.5,405C 307.604,406.131 307.271,406.965 305.5,407.5C 302.148,406.774 298.815,405.941 295.5,405C 296.38,403.644 296.714,402.144 296.5,400.5C 297.774,399.811 297.774,398.977 296.5,398C 298.811,395.603 301.145,393.77 303.5,392.5C 304.833,392.167 304.833,391.833 303.5,391.5C 303.461,390.244 303.961,389.244 305,388.5C 305.893,389.711 306.726,389.711 307.5,388.5C 308.18,387.14 308.847,385.807 309.5,384.5C 309.959,381.891 311.125,379.891 313,378.5C 313.079,373.945 312.746,369.612 312,365.5C 310.134,363.659 308.134,361.992 306,360.5C 304.984,361.634 304.317,361.301 304,359.5C 303.667,359.833 303.333,360.167 303,360.5C 301.933,359.809 300.766,359.309 299.5,359C 300.646,356.443 299.646,355.11 296.5,355C 297.252,354.329 297.586,353.496 297.5,352.5C 298.833,352.5 299.5,351.833 299.5,350.5C 300.338,350.158 300.672,349.492 300.5,348.5C 301.791,348.737 302.791,348.404 303.5,347.5C 303.639,346.081 304.139,344.748 305,343.5C 307.432,343.529 309.598,342.362 311.5,340C 311.835,338.836 311.835,337.503 311.5,336C 312.833,334.333 314.167,332.667 315.5,331C 314.07,328.945 312.737,326.779 311.5,324.5C 312.705,323.005 312.705,321.672 311.5,320.5C 310.531,319.691 309.698,318.691 309,317.5C 308.333,318.833 307.667,318.833 307,317.5C 306.308,316.563 306.475,315.897 307.5,315.5C 307.158,314.662 306.492,314.328 305.5,314.5C 304.833,312.5 303.5,311.167 301.5,310.5C 301.167,309.167 300.833,309.167 300.5,310.5C 299.312,309.316 298.145,309.316 297,310.5C 296.536,309.906 296.369,309.239 296.5,308.5C 297.833,307.833 297.833,307.167 296.5,306.5C 297.354,304.965 297.354,303.632 296.5,302.5C 296.328,301.508 296.662,300.842 297.5,300.5C 298.688,299.636 299.855,298.636 301,297.5C 301.333,298.167 301.667,298.833 302,299.5C 303.376,298.295 304.542,296.962 305.5,295.5C 308.73,293.623 310.73,290.956 311.5,287.5C 313.934,278.814 312.101,271.481 306,265.5C 305.667,266.167 305.333,266.833 305,267.5C 304.389,265.25 303.056,263.583 301,262.5C 299.627,260.305 299.294,257.971 300,255.5C 306.962,258.072 312.795,260.905 317.5,264C 316.804,265.488 317.138,266.988 318.5,268.5C 321.601,269.253 322.268,270.919 320.5,273.5C 320.819,276.645 321.819,279.478 323.5,282C 321.774,285.008 320.774,288.341 320.5,292C 321.884,293.957 321.217,294.957 318.5,295C 317.359,297.308 315.692,299.141 313.5,300.5C 314.641,301.425 314.641,302.259 313.5,303C 309.341,303.39 308.841,304.556 312,306.5C 312.718,305.549 313.551,305.383 314.5,306C 313.549,306.718 313.383,307.551 314,308.5C 315.135,308.727 316.302,309.06 317.5,309.5C 316.693,311.578 317.359,313.245 319.5,314.5 Z"/></g>
<g><path style="opacity:0.669" fill="#000000" d="M 380.5,287.5 C 380.157,289.483 380.824,290.817 382.5,291.5C 383.415,298.815 383.582,306.148 383,313.5C 382.091,316.28 380.925,318.946 379.5,321.5C 380.859,323.306 380.525,324.806 378.5,326C 380.151,327.943 382.151,329.443 384.5,330.5C 384.291,331.086 383.957,331.586 383.5,332C 384.724,334.671 386.391,337.004 388.5,339C 387.978,339.561 387.645,340.228 387.5,341C 387.77,344.343 388.77,347.343 390.5,350C 389.833,350.667 389.167,351.333 388.5,352C 390.105,354.733 391.105,357.733 391.5,361C 390.552,361.483 389.552,361.649 388.5,361.5C 388.5,363.5 388.5,365.5 388.5,367.5C 388.074,371.251 386.407,374.417 383.5,377C 383.957,377.414 384.291,377.914 384.5,378.5C 383.167,379.5 381.833,380.5 380.5,381.5C 381.981,382.944 381.648,383.611 379.5,383.5C 378.833,382.167 378.167,382.167 377.5,383.5C 375.208,383.756 373.041,383.423 371,382.5C 370.667,383.167 370.333,383.833 370,384.5C 369.768,383.263 369.268,382.263 368.5,381.5C 367.266,379.602 367.599,377.935 369.5,376.5C 370.833,376.167 370.833,375.833 369.5,375.5C 372.995,372.919 375.828,369.585 378,365.5C 378.212,362.242 378.712,359.076 379.5,356C 378.833,355.667 378.167,355.333 377.5,355C 380.003,353.451 380.003,351.784 377.5,350C 378.728,346.826 378.561,343.659 377,340.5C 374.871,341.863 374.371,341.529 375.5,339.5C 373.009,338.459 373.009,337.626 375.5,337C 371.791,333.491 368.125,329.991 364.5,326.5C 365.311,325.784 365.978,324.95 366.5,324C 365.813,322.838 365.647,321.672 366,320.5C 367.676,320.705 369.176,319.872 370.5,318C 370.043,317.586 369.709,317.086 369.5,316.5C 370.981,315.52 372.315,314.353 373.5,313C 372.346,312.086 372.513,311.253 374,310.5C 375.365,303.869 374.198,297.869 370.5,292.5C 371.043,292.44 371.376,292.107 371.5,291.5C 371.006,289.974 370.339,288.641 369.5,287.5C 367.93,288.559 366.597,288.059 365.5,286C 366.423,283.959 366.756,281.792 366.5,279.5C 371.657,277.254 375.324,278.754 377.5,284C 378.5,284.333 379.5,284.667 380.5,285C 379.226,285.977 379.226,286.811 380.5,287.5 Z"/></g>
<g><path style="opacity:0.519" fill="#000000" d="M 128.5,293.5 C 125.038,295.385 121.871,297.719 119,300.5C 118.667,300.167 118.333,299.833 118,299.5C 107.614,303.275 98.4473,301.441 90.5,294C 91.4885,291.77 90.8218,289.936 88.5,288.5C 90.4864,285.397 93.1531,284.73 96.5,286.5C 96.3284,287.492 96.6618,288.158 97.5,288.5C 101.323,293.921 106.323,295.587 112.5,293.5C 115.226,293.736 117.559,292.903 119.5,291C 119.167,290.667 118.833,290.333 118.5,290C 119.756,289.583 120.423,288.75 120.5,287.5C 121.833,287.167 121.833,286.833 120.5,286.5C 120.842,285.662 121.508,285.328 122.5,285.5C 122.369,284.761 122.536,284.094 123,283.5C 125.969,283.519 129.135,283.686 132.5,284C 131.482,287.383 130.148,290.55 128.5,293.5 Z"/></g>
<g><path style="opacity:0.004" fill="#000000" d="M 305.5,295.5 C 302.999,295.489 302.832,294.822 305,293.5C 305.464,294.094 305.631,294.761 305.5,295.5 Z"/></g>
<g><path style="opacity:0.603" fill="#000000" d="M 126.5,309.5 C 128.821,314.629 128.321,319.629 125,324.5C 124.667,324.167 124.333,323.833 124,323.5C 123,324.5 122,325.5 121,326.5C 118.958,325.715 116.958,326.048 115,327.5C 114.612,326.572 113.945,325.905 113,325.5C 111.456,326.024 110.123,326.024 109,325.5C 102.87,319.735 102.37,313.735 107.5,307.5C 108.167,307.5 108.5,307.167 108.5,306.5C 113.814,305.512 118.981,305.179 124,305.5C 124.29,307.111 125.123,308.444 126.5,309.5 Z M 115.5,311.5 C 115.294,313.549 114.461,313.883 113,312.5C 112.175,315.602 113.175,317.936 116,319.5C 120.82,316.304 120.653,313.637 115.5,311.5 Z"/></g>
<g><path style="opacity:0.652" fill="#000000" d="M 427.5,358.5 C 433.044,352.273 434.877,344.94 433,336.5C 432.667,334.5 432.333,332.5 432,330.5C 429.562,331.866 429.062,331.366 430.5,329C 430.138,327.775 429.638,326.609 429,325.5C 428.259,324.359 427.425,324.359 426.5,325.5C 425.289,324.726 425.289,323.893 426.5,323C 425.552,322.517 424.552,322.351 423.5,322.5C 422.167,319.833 422.167,317.167 423.5,314.5C 425.92,314.708 428.253,314.374 430.5,313.5C 431.281,314.737 432.281,315.737 433.5,316.5C 435.838,314.989 436.504,315.323 435.5,317.5C 436.833,318.5 438.167,319.5 439.5,320.5C 440.711,321.72 440.711,322.887 439.5,324C 440.833,325.333 442.167,326.667 443.5,328C 443.132,331.378 443.132,334.878 443.5,338.5C 444.552,338.351 445.552,338.517 446.5,339C 443.944,343.811 443.278,348.811 444.5,354C 441.649,355.742 440.982,358.075 442.5,361C 441.5,361.333 440.5,361.667 439.5,362C 439.833,362.333 440.167,362.667 440.5,363C 438.873,365.02 437.039,366.853 435,368.5C 430.891,367.444 426.725,367.444 422.5,368.5C 422.277,365.886 423.444,364.219 426,363.5C 426.72,361.888 426.554,360.388 425.5,359C 426.094,358.536 426.761,358.369 427.5,358.5 Z"/></g>
<g><path style="opacity:0.006" fill="#000000" d="M 82.5,332.5 C 87.3369,335.131 92.3369,337.631 97.5,340C 96.2341,340.309 95.0674,340.809 94,341.5C 91.595,340.726 89.095,340.226 86.5,340C 84.8065,337.31 82.4732,335.31 79.5,334C 80.7375,333.768 81.7375,333.268 82.5,332.5 Z"/></g>
<g><path style="opacity:0.004" fill="#000000" d="M 81.5,355.5 C 84.72,353.021 88.3867,351.188 92.5,350C 93.5,349 94.5,348 95.5,347C 99.1991,346.666 102.699,346.499 106,346.5C 106.5,347 107,347.5 107.5,348C 98.9864,351.069 90.3197,353.569 81.5,355.5 Z"/></g>
<g><path style="opacity:0.004" fill="#000000" d="M 59.5,348.5 C 62.1517,347.738 64.8183,348.238 67.5,350C 64.6783,350.428 62.0116,349.928 59.5,348.5 Z"/></g>
<g><path style="opacity:0.005" fill="#000000" d="M 67.5,351.5 C 69.5695,351.449 71.4029,352.115 73,353.5C 74.4651,352.67 75.9651,352.504 77.5,353C 75.7513,354.292 73.918,355.458 72,356.5C 70.4207,354.959 68.5873,353.792 66.5,353C 67.056,352.617 67.3893,352.117 67.5,351.5 Z"/></g>
</svg>
