<?xml version="1.0" encoding="UTF-8"?>
<!DOCTYPE svg PUBLIC "-//W3C//DTD SVG 1.1//EN" "http://www.w3.org/Graphics/SVG/1.1/DTD/svg11.dtd">
<svg xmlns="http://www.w3.org/2000/svg" version="1.1" width="611px" height="611px" style="shape-rendering:geometricPrecision; text-rendering:geometricPrecision; image-rendering:optimizeQuality; fill-rule:evenodd; clip-rule:evenodd" xmlns:xlink="http://www.w3.org/1999/xlink">
<g><path style="opacity:0.735" fill="#000000" d="M 219.5,191.5 C 237.654,191.898 255.654,191.898 273.5,191.5C 321.391,196.652 367.057,209.818 410.5,231C 425.741,238.417 440.074,247.251 453.5,257.5C 454.736,258.246 456.07,258.579 457.5,258.5C 457.281,259.675 457.614,260.675 458.5,261.5C 467.571,269.245 476.904,276.579 486.5,283.5C 497.325,273.51 508.325,263.677 519.5,254C 539.379,241.454 558.712,228.121 577.5,214C 581.295,212.269 584.962,210.269 588.5,208C 593.167,207.333 597.833,207.333 602.5,208C 603.333,208.833 604.167,209.667 605,210.5C 604.677,213.809 604.011,217.143 603,220.5C 595.273,232.925 586.939,244.925 578,256.5C 570.029,273.112 562.029,289.778 554,306.5C 551.267,312.915 549.767,319.415 549.5,326C 550.829,333.585 552.662,341.085 555,348.5C 564.45,369.897 574.283,391.063 584.5,412C 584.167,412.333 583.833,412.667 583.5,413C 587.651,418.785 589.817,425.285 590,432.5C 588.981,433.687 587.814,434.687 586.5,435.5C 575.845,431.076 565.512,425.91 555.5,420C 533.609,404.563 511.942,388.896 490.5,373C 484.281,367.283 478.614,361.117 473.5,354.5C 445.687,368.493 416.021,378.326 384.5,384C 377.082,384.779 369.748,385.946 362.5,387.5C 348.531,387.896 334.698,387.896 321,387.5C 314.24,388.363 307.407,389.03 300.5,389.5C 291.502,388.208 282.502,388.208 273.5,389.5C 267.249,389.133 261.082,388.466 255,387.5C 251.143,388.276 247.31,388.609 243.5,388.5C 240.286,387.143 237.119,386.809 234,387.5C 222.925,385.343 211.758,383.843 200.5,383C 197.666,382.955 195.166,382.121 193,380.5C 190.381,381.729 187.881,381.396 185.5,379.5C 172.481,378.501 159.481,376.334 146.5,373C 131.367,367.476 116.367,361.809 101.5,356C 81.2266,343.858 61.2266,331.191 41.5,318C 35.5601,311.971 29.7268,305.804 24,299.5C 22.7305,295.859 21.5639,292.192 20.5,288.5C 21.0953,285.025 22.4287,282.025 24.5,279.5C 25.5,279.5 26.5,279.5 27.5,279.5C 27.3505,278.448 27.5172,277.448 28,276.5C 37.473,267.027 46.973,257.527 56.5,248C 61.8893,243.611 67.556,239.611 73.5,236C 75.8333,234.333 77.8333,232.333 79.5,230C 85.8534,226.301 92.1868,222.634 98.5,219C 114.085,212.918 129.752,207.251 145.5,202C 170.12,197.361 194.787,193.861 219.5,191.5 Z M 242.5,199.5 C 255.555,199.995 268.555,200.995 281.5,202.5C 308.727,205.419 335.394,211.252 361.5,220C 378.341,226.947 395.008,234.28 411.5,242C 426.164,249.997 440.164,258.997 453.5,269C 458.216,274.383 463.549,279.05 469.5,283C 472.709,285.709 475.375,288.875 477.5,292.5C 481.967,296.253 486.634,296.42 491.5,293C 495.833,287.333 500.833,282.333 506.5,278C 517.244,269.996 527.911,261.996 538.5,254C 552.624,246.405 566.29,238.071 579.5,229C 580.5,228.333 581.5,228.333 582.5,229C 574.948,238.221 568.615,248.221 563.5,259C 555.719,276.066 548.053,293.233 540.5,310.5C 537.937,318.746 537.937,326.746 540.5,334.5C 540.069,335.293 539.735,336.127 539.5,337C 541.171,341.353 542.338,345.853 543,350.5C 551.506,369.846 560.839,388.846 571,407.5C 572.196,410.813 572.863,414.146 573,417.5C 568.074,414.286 562.907,411.452 557.5,409C 547.181,400.51 536.515,392.51 525.5,385C 519.215,382.857 513.548,379.691 508.5,375.5C 501.28,369.294 494.113,362.961 487,356.5C 483.444,352.277 480.278,347.777 477.5,343C 476.127,342.125 474.627,341.625 473,341.5C 463.187,347.656 453.02,353.156 442.5,358C 414.36,367.98 385.36,374.814 355.5,378.5C 345.115,379.552 334.781,379.552 324.5,378.5C 308.111,379.941 291.944,380.941 276,381.5C 247.433,379.738 218.933,376.904 190.5,373C 183.587,371.094 176.587,369.594 169.5,368.5C 168.707,368.931 167.873,369.265 167,369.5C 158.357,367.848 149.857,365.681 141.5,363C 131.268,358.716 120.935,354.716 110.5,351C 101.488,346.505 92.8217,341.338 84.5,335.5C 93.9817,327.342 104.648,321.342 116.5,317.5C 119.833,318.333 123.167,319.167 126.5,320C 132.833,324.333 139.167,328.667 145.5,333C 150.371,333.45 152.037,331.284 150.5,326.5C 142.805,320.318 134.471,315.152 125.5,311C 118.615,309.902 111.949,310.569 105.5,313C 95.3427,317.913 86.0093,324.079 77.5,331.5C 69.8976,325.733 61.8976,320.567 53.5,316C 44.342,308.876 36.1753,300.71 29,291.5C 28.3333,290.5 28.3333,289.5 29,288.5C 49.5042,267.327 71.8376,248.327 96,231.5C 123.564,216.547 152.897,207.88 184,205.5C 203.586,203.046 223.086,201.046 242.5,199.5 Z M 122.5,286.5 C 123.547,285.922 123.38,285.256 122,284.5C 121.601,284.728 121.435,285.062 121.5,285.5C 120.079,281.896 121.413,280.396 125.5,281C 126.672,282.868 126.505,284.702 125,286.5C 124.023,287.774 123.189,287.774 122.5,286.5 Z"/></g>
<g><path style="opacity:0.537" fill="#000000" d="M 125.5,268.5 C 120.859,269.127 116.193,269.46 111.5,269.5C 110.432,268.566 109.099,268.232 107.5,268.5C 107.167,267.167 106.833,267.167 106.5,268.5C 105.596,267.791 105.263,266.791 105.5,265.5C 103.585,265.784 101.919,265.451 100.5,264.5C 99.02,262.142 97.3534,259.809 95.5,257.5C 95.8627,256.817 96.1961,256.15 96.5,255.5C 97.1667,255.5 97.5,255.167 97.5,254.5C 99.1992,254.34 100.866,254.506 102.5,255C 104.078,258.209 106.578,260.376 110,261.5C 111.087,259.068 111.587,259.402 111.5,262.5C 114.394,262.958 116.894,262.291 119,260.5C 119.333,261.167 119.667,261.833 120,262.5C 121.302,261.915 122.469,261.249 123.5,260.5C 126.139,259.054 128.472,257.221 130.5,255C 129.552,254.517 128.552,254.351 127.5,254.5C 128.751,252.78 130.251,252.447 132,253.5C 132.333,252.833 132.667,252.167 133,251.5C 135.133,252.418 137.3,252.584 139.5,252C 138.971,255.93 137.305,259.263 134.5,262C 135.34,263.666 134.84,263.833 133,262.5C 130.281,264.402 127.781,266.402 125.5,268.5 Z"/></g>
<g><path style="opacity:0.59" fill="#000000" d="M 116.5,292.5 C 116.167,291.5 115.5,290.833 114.5,290.5C 113.718,288.549 112.384,287.049 110.5,286C 110.799,284.68 110.966,283.18 111,281.5C 112.459,279.568 113.625,277.568 114.5,275.5C 114.833,276.833 115.167,276.833 115.5,275.5C 116.473,275.013 117.473,274.513 118.5,274C 122.867,273.636 127.034,273.47 131,273.5C 132.954,276.343 134.454,279.509 135.5,283C 134.576,284.15 134.576,285.15 135.5,286C 134.506,287.329 133.506,288.662 132.5,290C 133.938,292.366 133.438,292.866 131,291.5C 130.626,292.416 130.126,293.25 129.5,294C 124.755,296.22 120.421,295.72 116.5,292.5 Z M 122.5,286.5 C 123.547,285.922 123.38,285.256 122,284.5C 121.601,284.728 121.435,285.062 121.5,285.5C 120.079,281.896 121.413,280.396 125.5,281C 126.672,282.868 126.505,284.702 125,286.5C 124.023,287.774 123.189,287.774 122.5,286.5 Z"/></g>
</svg>
