<?xml version="1.0" encoding="UTF-8"?>
<!DOCTYPE svg PUBLIC "-//W3C//DTD SVG 1.1//EN" "http://www.w3.org/Graphics/SVG/1.1/DTD/svg11.dtd">
<svg xmlns="http://www.w3.org/2000/svg" version="1.1" width="611px" height="611px" style="shape-rendering:geometricPrecision; text-rendering:geometricPrecision; image-rendering:optimizeQuality; fill-rule:evenodd; clip-rule:evenodd" xmlns:xlink="http://www.w3.org/1999/xlink">
<g><path style="opacity:0.729" fill="#000000" d="M 219.5,191.5 C 237.654,191.898 255.654,191.898 273.5,191.5C 321.391,196.652 367.057,209.818 410.5,231C 425.741,238.417 440.074,247.251 453.5,257.5C 454.736,258.246 456.07,258.579 457.5,258.5C 457.281,259.675 457.614,260.675 458.5,261.5C 467.571,269.245 476.904,276.579 486.5,283.5C 497.325,273.51 508.325,263.677 519.5,254C 539.379,241.454 558.712,228.121 577.5,214C 581.295,212.269 584.962,210.269 588.5,208C 593.167,207.333 597.833,207.333 602.5,208C 603.333,208.833 604.167,209.667 605,210.5C 604.677,213.809 604.011,217.143 603,220.5C 595.273,232.925 586.939,244.925 578,256.5C 570.029,273.112 562.029,289.778 554,306.5C 551.267,312.915 549.767,319.415 549.5,326C 550.829,333.585 552.662,341.085 555,348.5C 564.45,369.897 574.283,391.063 584.5,412C 584.167,412.333 583.833,412.667 583.5,413C 587.651,418.785 589.817,425.285 590,432.5C 588.981,433.687 587.814,434.687 586.5,435.5C 575.845,431.076 565.512,425.91 555.5,420C 533.609,404.563 511.942,388.896 490.5,373C 484.281,367.283 478.614,361.117 473.5,354.5C 445.687,368.493 416.021,378.326 384.5,384C 377.082,384.779 369.748,385.946 362.5,387.5C 348.531,387.896 334.698,387.896 321,387.5C 314.24,388.363 307.407,389.03 300.5,389.5C 291.502,388.208 282.502,388.208 273.5,389.5C 267.249,389.133 261.082,388.466 255,387.5C 251.143,388.276 247.31,388.609 243.5,388.5C 240.286,387.143 237.119,386.809 234,387.5C 222.925,385.343 211.758,383.843 200.5,383C 197.666,382.955 195.166,382.121 193,380.5C 190.381,381.729 187.881,381.396 185.5,379.5C 172.481,378.501 159.481,376.334 146.5,373C 131.367,367.476 116.367,361.809 101.5,356C 81.2266,343.858 61.2266,331.191 41.5,318C 35.5601,311.971 29.7268,305.804 24,299.5C 22.7305,295.859 21.5639,292.192 20.5,288.5C 21.0953,285.025 22.4287,282.025 24.5,279.5C 25.5,279.5 26.5,279.5 27.5,279.5C 27.3505,278.448 27.5172,277.448 28,276.5C 37.473,267.027 46.973,257.527 56.5,248C 61.8893,243.611 67.556,239.611 73.5,236C 75.8333,234.333 77.8333,232.333 79.5,230C 85.8534,226.301 92.1868,222.634 98.5,219C 114.085,212.918 129.752,207.251 145.5,202C 170.12,197.361 194.787,193.861 219.5,191.5 Z M 87.5,329.5 C 89.995,329.405 92.6616,329.738 95.5,330.5C 99.5817,328.654 103.915,327.987 108.5,328.5C 110.895,327.186 113.395,327.186 116,328.5C 116.464,327.906 116.631,327.239 116.5,326.5C 119.23,326.527 121.73,325.86 124,324.5C 125.107,324.585 126.107,324.919 127,325.5C 128.054,323.246 129.554,322.913 131.5,324.5C 132.696,324.154 132.696,323.654 131.5,323C 133.235,322.349 134.902,322.515 136.5,323.5C 138.306,321.392 140.473,319.726 143,318.5C 143.585,316.871 144.419,315.371 145.5,314C 145.355,313.228 145.022,312.561 144.5,312C 133.997,313.04 123.664,315.206 113.5,318.5C 109.935,319.613 106.435,319.613 103,318.5C 98.5582,320.137 93.8915,321.137 89,321.5C 83.3223,321.307 77.6556,320.307 72,318.5C 71.2753,319.059 70.4419,319.392 69.5,319.5C 64.7261,317.742 59.8928,316.075 55,314.5C 54.6667,315.167 54.3333,315.833 54,316.5C 46.5251,310.374 39.6918,303.707 33.5,296.5C 35.9775,296.949 37.9775,296.283 39.5,294.5C 36.3608,292.061 33.0275,289.894 29.5,288C 49.8383,266.994 72.0049,248.16 96,231.5C 123.564,216.547 152.897,207.88 184,205.5C 204.101,202.957 224.268,200.957 244.5,199.5C 291.935,200.627 337.601,210.127 381.5,228C 392.859,234.174 404.526,239.674 416.5,244.5C 426.818,250.994 437.152,257.494 447.5,264C 454.563,270.736 461.897,277.07 469.5,283C 472.709,285.709 475.375,288.875 477.5,292.5C 481.967,296.253 486.634,296.42 491.5,293C 495.833,287.333 500.833,282.333 506.5,278C 517.244,269.996 527.911,261.996 538.5,254C 552.624,246.405 566.29,238.071 579.5,229C 580.5,228.333 581.5,228.333 582.5,229C 574.948,238.221 568.615,248.221 563.5,259C 555.719,276.066 548.053,293.233 540.5,310.5C 537.937,318.746 537.937,326.746 540.5,334.5C 540.069,335.293 539.735,336.127 539.5,337C 541.171,341.353 542.338,345.853 543,350.5C 551.506,369.846 560.839,388.846 571,407.5C 572.196,410.813 572.863,414.146 573,417.5C 568.074,414.286 562.907,411.452 557.5,409C 547.181,400.51 536.515,392.51 525.5,385C 519.215,382.857 513.548,379.691 508.5,375.5C 501.28,369.294 494.113,362.961 487,356.5C 483.444,352.277 480.278,347.777 477.5,343C 476.127,342.125 474.627,341.625 473,341.5C 463.187,347.656 453.02,353.156 442.5,358C 414.36,367.98 385.36,374.814 355.5,378.5C 345.115,379.552 334.781,379.552 324.5,378.5C 308.111,379.941 291.944,380.941 276,381.5C 252.166,379.794 228.333,377.628 204.5,375C 187.839,371.505 171.172,368.838 154.5,367C 139.652,362.052 124.985,356.718 110.5,351C 106.89,347.361 102.556,345.028 97.5,344C 92.4585,340.479 87.1251,337.479 81.5,335C 79.0769,333.174 76.7436,331.174 74.5,329C 78.8868,328.294 83.2201,328.46 87.5,329.5 Z"/></g>
<g><path style="opacity:0.666" fill="#000000" d="M 149.5,246.5 C 149.897,245.475 150.563,245.308 151.5,246C 152.833,246.667 152.833,247.333 151.5,248C 153.167,249 154.5,250.333 155.5,252C 156.449,252.617 157.282,252.451 158,251.5C 158.617,252.449 158.451,253.282 157.5,254C 160.994,255.984 161.994,258.817 160.5,262.5C 158.189,263.214 156.022,264.214 154,265.5C 152.97,263.224 151.47,262.557 149.5,263.5C 148.289,262.726 148.289,261.893 149.5,261C 148.552,260.517 147.552,260.351 146.5,260.5C 146.725,258.284 145.892,256.617 144,255.5C 143.667,255.833 143.333,256.167 143,256.5C 141.2,254.683 139.034,253.516 136.5,253C 132.494,252.213 128.494,251.38 124.5,250.5C 121.139,250.112 118.306,251.112 116,253.5C 114.434,252.939 113.101,253.606 112,255.5C 111.667,255.167 111.333,254.833 111,254.5C 110,255.833 109,257.167 108,258.5C 106.817,257.269 105.651,257.269 104.5,258.5C 103.82,259.86 103.153,261.193 102.5,262.5C 101.082,264.187 99.7491,266.02 98.5,268C 96.1093,268.287 93.7759,268.787 91.5,269.5C 90.2308,265.99 90.8975,262.49 93.5,259C 93.1667,258.667 92.8333,258.333 92.5,258C 94.3937,256.921 94.727,255.587 93.5,254C 94.4491,253.383 95.2825,253.549 96,254.5C 97.6579,252.677 99.4912,251.01 101.5,249.5C 101.376,248.893 101.043,248.56 100.5,248.5C 101.467,245.845 103.133,245.178 105.5,246.5C 108.367,245.787 110.867,244.454 113,242.5C 114.412,243.923 115.579,243.756 116.5,242C 123.081,241.813 129.581,241.313 136,240.5C 140.012,243.506 144.512,245.506 149.5,246.5 Z"/></g>
<g><path style="opacity:0.619" fill="#000000" d="M 146.5,268.5 C 147.559,270.726 147.392,273.059 146,275.5C 144.698,276.085 143.531,276.751 142.5,277.5C 140.348,276.719 138.348,276.386 136.5,276.5C 137.833,276.167 137.833,275.833 136.5,275.5C 134.924,274.717 133.591,273.55 132.5,272C 131.552,271.517 130.552,271.351 129.5,271.5C 127.5,270.167 125.5,270.167 123.5,271.5C 122.448,271.351 121.448,271.517 120.5,272C 118.286,275.107 115.286,276.607 111.5,276.5C 111.5,275.833 111.167,275.5 110.5,275.5C 108.898,272.466 109.231,269.799 111.5,267.5C 113.261,266.687 114.928,265.687 116.5,264.5C 118.46,264.149 120.293,262.816 122,260.5C 122.333,261.167 122.667,261.833 123,262.5C 129.778,260.902 135.945,262.236 141.5,266.5C 143.64,265.58 145.307,266.246 146.5,268.5 Z"/></g>
<g><path style="opacity:0.004" fill="#000000" d="M 92.5,289.5 C 94.9775,289.051 96.9775,289.717 98.5,291.5C 97.4826,294.028 96.3159,294.028 95,291.5C 93.3745,292.412 92.5412,291.745 92.5,289.5 Z"/></g>
<g><path style="opacity:0.004" fill="#000000" d="M 89.5,309.5 C 91.2327,310.008 91.566,310.841 90.5,312C 88.5594,312.743 86.7261,312.576 85,311.5C 83.3333,314.167 81.6667,314.167 80,311.5C 79.3109,312.357 78.4776,313.023 77.5,313.5C 75.2046,312.568 72.8713,311.735 70.5,311C 77.0133,310.828 83.3466,310.328 89.5,309.5 Z"/></g>
</svg>
