<?xml version="1.0" encoding="UTF-8"?>
<!DOCTYPE svg PUBLIC "-//W3C//DTD SVG 1.1//EN" "http://www.w3.org/Graphics/SVG/1.1/DTD/svg11.dtd">
<svg xmlns="http://www.w3.org/2000/svg" version="1.1" width="611px" height="611px" style="shape-rendering:geometricPrecision; text-rendering:geometricPrecision; image-rendering:optimizeQuality; fill-rule:evenodd; clip-rule:evenodd" xmlns:xlink="http://www.w3.org/1999/xlink">
<g><path style="opacity:0.737" fill="#000000" d="M 247.5,153.5 C 257.858,155.686 268.191,157.353 278.5,158.5C 281.385,157.981 284.385,157.981 287.5,158.5C 289.964,158.59 292.13,159.257 294,160.5C 298.431,159.848 302.765,160.515 307,162.5C 307.725,161.941 308.558,161.608 309.5,161.5C 361.248,175.018 410.248,195.851 456.5,224C 461.66,227.467 463.827,232.301 463,238.5C 461.32,237.397 459.82,237.73 458.5,239.5C 452.399,248.111 446.066,256.611 439.5,265C 443.551,267.018 447.217,269.518 450.5,272.5C 451.736,273.246 453.07,273.579 454.5,273.5C 454.281,274.675 454.614,275.675 455.5,276.5C 459.644,279.476 463.644,282.643 467.5,286C 472.05,291.38 477.384,295.88 483.5,299.5C 493.964,288.873 504.964,278.707 516.5,269C 539.742,253.89 562.742,238.556 585.5,223C 590.167,222.333 594.833,222.333 599.5,223C 600.333,223.833 601.167,224.667 602,225.5C 601.521,229.108 600.854,232.775 600,236.5C 591.969,248.38 583.636,260.046 575,271.5C 567.574,288.355 559.574,305.022 551,321.5C 548.267,327.915 546.767,334.415 546.5,341C 548.155,343.247 548.488,345.58 547.5,348C 548.827,353.171 550.327,358.338 552,363.5C 564.144,390.049 575.81,416.382 587,442.5C 587.414,449.743 584.248,451.909 577.5,449C 545.802,431.153 515.802,410.819 487.5,388C 481.281,382.283 475.614,376.117 470.5,369.5C 442.702,383.488 413.035,393.321 381.5,399C 374.082,399.779 366.748,400.946 359.5,402.5C 356.622,401.953 353.789,401.62 351,401.5C 345.532,402.188 340.032,402.855 334.5,403.5C 329.189,403.114 323.689,402.781 318,402.5C 304.583,404.457 291.083,405.124 277.5,404.5C 279.536,409.295 281.869,413.962 284.5,418.5C 283.855,419.732 283.689,421.065 284,422.5C 272.349,426.163 261.183,430.997 250.5,437C 245.848,439.978 241.181,442.978 236.5,446C 234.393,447.264 233.393,449.097 233.5,451.5C 230.15,451.665 226.817,451.498 223.5,451C 216.421,446.757 209.754,441.923 203.5,436.5C 191.831,423.165 181.497,408.831 172.5,393.5C 162.721,392.378 153.055,390.544 143.5,388C 120.749,380.287 98.7488,370.954 77.5,360C 65.0164,350.279 52.0164,341.279 38.5,333C 32.5601,326.971 26.7268,320.804 21,314.5C 19.9319,311.129 18.7653,307.796 17.5,304.5C 18.0953,301.025 19.4287,298.025 21.5,295.5C 22.5,295.5 23.5,295.5 24.5,295.5C 24.6079,293.217 25.4412,291.217 27,289.5C 36.4829,279.419 46.3162,269.586 56.5,260C 63.4824,255.837 70.1491,251.171 76.5,246C 101.716,230.29 129.382,219.456 159.5,213.5C 162.183,208.795 164.85,204.129 167.5,199.5C 182.853,188.072 198.519,176.906 214.5,166C 217.864,164.318 221.198,162.651 224.5,161C 232.079,158.027 239.746,155.527 247.5,153.5 Z M 170.5,211.5 C 177.012,204.89 184.012,198.723 191.5,193C 200.683,186.596 210.35,180.929 220.5,176C 221.167,175 221.833,174 222.5,173C 225.861,171.988 229.028,170.488 232,168.5C 234.048,169.423 235.881,168.923 237.5,167C 242.927,165.784 248.26,164.284 253.5,162.5C 266.833,166.019 280.167,168.185 293.5,169C 280.444,176.278 269.277,185.778 260,197.5C 257.429,199.976 255.929,202.976 255.5,206.5C 243.33,207.724 231.33,207.724 219.5,206.5C 203.213,208.663 186.879,210.329 170.5,211.5 Z M 309.5,171.5 C 323.336,175.306 337.003,179.639 350.5,184.5C 340.487,191.176 330.82,198.343 321.5,206C 318.941,208.4 316.941,211.233 315.5,214.5C 299.606,210.641 283.772,207.974 268,206.5C 272.161,198.612 277.994,191.945 285.5,186.5C 286.386,185.675 286.719,184.675 286.5,183.5C 294.644,180.522 302.31,176.522 309.5,171.5 Z M 363.5,189.5 C 378.952,196.059 394.285,202.893 409.5,210C 395.043,213.121 383.876,220.955 376,233.5C 368.386,229.612 360.553,226.112 352.5,223C 343.968,221.426 335.634,219.093 327.5,216C 328.337,214.989 328.67,213.822 328.5,212.5C 331.815,212.028 334.149,210.195 335.5,207C 339.803,203.706 344.136,200.372 348.5,197C 353.633,194.433 358.633,191.933 363.5,189.5 Z M 239.5,214.5 C 252.555,214.995 265.555,215.995 278.5,217.5C 305.927,220.114 332.594,226.28 358.5,236C 375.09,243.196 391.757,250.196 408.5,257C 420.819,263.825 432.819,271.159 444.5,279C 454.704,288.373 464.704,297.873 474.5,307.5C 478.967,311.253 483.634,311.42 488.5,308C 515.431,282.383 545.431,261.383 578.5,245C 571.484,254.031 565.484,263.697 560.5,274C 553.251,291.333 545.585,308.499 537.5,325.5C 534.995,334.064 534.995,342.397 537.5,350.5C 537.069,351.293 536.735,352.127 536.5,353C 538.044,357.047 539.21,361.213 540,365.5C 549.115,385.732 558.782,405.732 569,425.5C 569.614,427.879 569.947,430.212 570,432.5C 552.893,423.033 536.727,412.199 521.5,400C 508.049,391.846 495.549,382.346 484,371.5C 480.833,367.333 477.667,363.167 474.5,359C 473.127,358.125 471.627,357.625 470,357.5C 451.505,367.995 432.005,376.162 411.5,382C 381.706,390.536 351.706,394.369 321.5,393.5C 305.111,394.941 288.944,395.941 273,396.5C 244.433,394.738 215.933,391.904 187.5,388C 180.571,386.174 173.571,384.674 166.5,383.5C 165.707,383.931 164.873,384.265 164,384.5C 149.393,381.379 135.226,376.879 121.5,371C 130.302,365.6 139.635,361.267 149.5,358C 153.833,357.333 158.167,357.333 162.5,358C 169.178,360.331 175.845,362.331 182.5,364C 184.576,362.116 184.91,359.949 183.5,357.5C 176.258,354.13 168.758,351.463 161,349.5C 154.174,349.566 147.341,350.733 140.5,353C 135.202,355.66 129.869,358.327 124.5,361C 121,363.167 118.167,366 116,369.5C 103.205,363.851 90.7051,357.684 78.5,351C 76.446,348.456 74.1127,346.123 71.5,344C 53.2996,334.636 37.9662,321.803 25.5,305.5C 39.4608,290.54 54.1275,276.207 69.5,262.5C 85.4747,250.99 102.808,241.824 121.5,235C 122.5,234 123.5,233 124.5,232C 142.963,225.708 161.796,221.874 181,220.5C 200.586,218.046 220.086,216.046 239.5,214.5 Z M 416.5,216.5 C 421.997,216.243 426.997,217.743 431.5,221C 435.759,223.84 440.092,226.507 444.5,229C 446.656,230.99 448.656,233.157 450.5,235.5C 443.296,242.895 436.796,250.895 431,259.5C 428.92,257.877 426.754,256.377 424.5,255C 411.671,249.297 399.004,243.297 386.5,237C 393.489,226.694 403.156,220.361 415.5,218C 416.056,217.617 416.389,217.117 416.5,216.5 Z M 183.5,396.5 C 185.532,396.478 187.698,396.145 190,395.5C 190.5,396 191,396.5 191.5,397C 198.833,398 206.167,399 213.5,400C 212.724,401.77 212.89,403.603 214,405.5C 219.181,417.51 227.348,426.844 238.5,433.5C 234.835,436.11 231.002,438.444 227,440.5C 218.82,436.158 211.653,430.491 205.5,423.5C 197.707,414.724 190.374,405.724 183.5,396.5 Z M 222.5,401.5 C 226.956,402.055 231.29,402.388 235.5,402.5C 240.671,411.171 247.671,418.004 256.5,423C 253.389,424.451 250.556,426.285 248,428.5C 245.132,425.138 241.632,422.471 237.5,420.5C 234.62,417.153 231.453,414.153 228,411.5C 226.25,408.044 224.416,404.711 222.5,401.5 Z M 251.5,402.5 C 255.75,403.272 260.083,403.772 264.5,404C 265.843,408.01 268.009,411.51 271,414.5C 271.749,415.635 271.583,416.635 270.5,417.5C 261.941,415.278 254.941,410.778 249.5,404C 250.416,403.722 251.082,403.222 251.5,402.5 Z"/></g>
<g><path style="opacity:0.677" fill="#000000" d="M 145.5,243.5 C 147.655,243.372 149.655,243.872 151.5,245C 161.851,254.063 173.851,259.563 187.5,261.5C 190.58,266.116 189.247,268.45 183.5,268.5C 169.298,266.649 157.132,260.649 147,250.5C 144.697,248.453 144.197,246.119 145.5,243.5 Z"/></g>
<g><path style="opacity:0.286" fill="#000000" d="M 232.5,245.5 C 237.681,245.508 241.848,247.508 245,251.5C 247.064,250.409 249.231,250.242 251.5,251C 267.71,258.93 273.543,271.763 269,289.5C 266.145,298.689 260.645,305.856 252.5,311C 249.497,312.166 246.83,313.833 244.5,316C 241.518,316.498 238.518,316.665 235.5,316.5C 235.967,314.289 236.967,312.289 238.5,310.5C 248.317,306.507 256.15,300.173 262,291.5C 267.645,276.352 263.478,264.686 249.5,256.5C 249.167,256.833 248.833,257.167 248.5,257.5C 254.038,270.598 252.705,282.931 244.5,294.5C 239.636,300.189 233.969,301.356 227.5,298C 229.569,297.676 229.902,296.842 228.5,295.5C 228.877,291.732 230.877,289.398 234.5,288.5C 242.455,279.158 242.955,269.158 236,258.5C 234.174,256.926 232.007,256.093 229.5,256C 226.385,251.291 227.385,247.791 232.5,245.5 Z"/></g>
<g><path style="opacity:0.604" fill="#000000" d="M 391.5,266.5 C 396.688,268.516 400.854,271.85 404,276.5C 411.916,290.833 410.083,303.833 398.5,315.5C 395.475,316.429 392.642,317.762 390,319.5C 389.5,319 389,318.5 388.5,318C 392.132,312.371 396.132,307.037 400.5,302C 403.293,294.144 402.459,286.311 398,278.5C 394.891,275.579 392.057,272.579 389.5,269.5C 389.942,268.261 390.609,267.261 391.5,266.5 Z"/></g>
<g><path style="opacity:0.285" fill="#000000" d="M 298.5,269.5 C 301.118,269.099 303.784,269.599 306.5,271C 320.277,282.833 325.61,297.667 322.5,315.5C 329.219,317.039 334.053,321.039 337,327.5C 344.768,347.963 338.934,362.796 319.5,372C 315.187,372.735 310.853,373.235 306.5,373.5C 306.281,372.325 306.614,371.325 307.5,370.5C 315.927,367.209 323.427,362.543 330,356.5C 335.178,347.613 335.511,338.613 331,329.5C 327.791,324.726 323.458,321.393 318,319.5C 315.732,323.635 312.399,325.302 308,324.5C 307.399,322.863 306.899,321.197 306.5,319.5C 312.768,303.803 309.768,289.97 297.5,278C 296.134,274.964 296.468,272.131 298.5,269.5 Z"/></g>
<g><path style="opacity:0.659" fill="#000000" d="M 153.5,270.5 C 155.604,270.201 157.604,270.534 159.5,271.5C 160.524,277.573 163.524,282.239 168.5,285.5C 170.413,284.627 172.247,283.627 174,282.5C 174.333,282.833 174.667,283.167 175,283.5C 176.789,281.771 178.956,281.104 181.5,281.5C 182.119,290.553 177.786,295.22 168.5,295.5C 166.423,295.308 164.423,294.808 162.5,294C 159.612,290.778 157.112,287.278 155,283.5C 153.805,279.249 153.305,274.915 153.5,270.5 Z"/></g>
<g><path style="opacity:0.004" fill="#000000" d="M 382.5,289.5 C 387.217,288.786 390.884,290.286 393.5,294C 389.692,295.992 385.692,297.492 381.5,298.5C 381.489,296.453 381.156,294.453 380.5,292.5C 380.942,291.261 381.609,290.261 382.5,289.5 Z"/></g>
</svg>
