<?xml version="1.0" encoding="UTF-8"?>
<!DOCTYPE svg PUBLIC "-//W3C//DTD SVG 1.1//EN" "http://www.w3.org/Graphics/SVG/1.1/DTD/svg11.dtd">
<svg xmlns="http://www.w3.org/2000/svg" version="1.1" width="611px" height="611px" style="shape-rendering:geometricPrecision; text-rendering:geometricPrecision; image-rendering:optimizeQuality; fill-rule:evenodd; clip-rule:evenodd" xmlns:xlink="http://www.w3.org/1999/xlink">
<g><path style="opacity:0.74" fill="#000000" d="M 213.5,191.5 C 231.665,191.898 249.665,191.898 267.5,191.5C 315.391,196.652 361.057,209.818 404.5,231C 419.741,238.417 434.074,247.251 447.5,257.5C 448.736,258.246 450.07,258.579 451.5,258.5C 459.653,268.437 469.32,276.77 480.5,283.5C 491.325,273.51 502.325,263.677 513.5,254C 535.03,239.588 556.363,224.922 577.5,210C 583.612,207.586 589.946,206.919 596.5,208C 597.333,208.833 598.167,209.667 599,210.5C 598.677,213.809 598.011,217.143 597,220.5C 574.175,250.929 556.342,284.262 543.5,320.5C 544.421,329.806 546.254,339.139 549,348.5C 561.066,374.713 572.732,401.046 584,427.5C 585.31,431.7 583.81,434.367 579.5,435.5C 569.283,430.927 559.283,425.76 549.5,420C 534.944,408.957 519.944,398.457 504.5,388.5C 498.249,382.744 491.583,377.577 484.5,373C 477.954,367.122 472.121,360.622 467,353.5C 456.896,360.305 446.396,365.472 435.5,369C 409.699,377.534 383.365,383.701 356.5,387.5C 342.518,387.878 328.685,387.878 315,387.5C 308.076,388.385 301.076,389.052 294,389.5C 285.168,388.189 276.334,388.189 267.5,389.5C 261.249,389.133 255.082,388.466 249,387.5C 245.143,388.276 241.31,388.609 237.5,388.5C 223.416,386.398 209.082,384.565 194.5,383C 191.666,382.955 189.166,382.121 187,380.5C 184.381,381.729 181.881,381.396 179.5,379.5C 166.467,378.519 153.467,376.353 140.5,373C 125.402,367.48 110.402,361.814 95.5,356C 75.2266,343.858 55.2266,331.191 35.5,318C 29.5601,311.971 23.7268,305.804 18,299.5C 16.7305,295.859 15.5639,292.192 14.5,288.5C 15.0953,285.025 16.4287,282.025 18.5,279.5C 19.5,279.5 20.5,279.5 21.5,279.5C 21.3505,278.448 21.5172,277.448 22,276.5C 32.473,266.027 42.973,255.527 53.5,245C 60.9207,240.962 67.5874,235.962 73.5,230C 79.8534,226.301 86.1868,222.634 92.5,219C 108.021,212.872 123.688,207.205 139.5,202C 164.117,197.361 188.784,193.861 213.5,191.5 Z M 236.5,199.5 C 284.623,200.408 330.957,209.908 375.5,228C 385.732,233.964 396.399,238.964 407.5,243C 421.5,250.665 434.834,259.332 447.5,269C 453.789,275.468 460.456,281.468 467.5,287C 469.422,288.42 470.755,290.253 471.5,292.5C 475.544,296.105 479.877,296.438 484.5,293.5C 508.982,269.256 536.648,249.423 567.5,234C 569.648,231.271 572.314,229.605 575.5,229C 567.413,241.012 560.246,253.512 554,266.5C 547.232,281.038 540.732,295.704 534.5,310.5C 531.937,318.746 531.937,326.746 534.5,334.5C 534.069,335.293 533.735,336.127 533.5,337C 535.171,341.353 536.338,345.853 537,350.5C 545.226,369.155 554.226,387.488 564,405.5C 565.901,409.357 566.901,413.357 567,417.5C 562.074,414.286 556.907,411.452 551.5,409C 535.783,396.757 519.45,385.591 502.5,375.5C 495.28,369.294 488.113,362.961 481,356.5C 477.444,352.277 474.278,347.777 471.5,343C 469.863,342.399 468.197,341.899 466.5,341.5C 458.967,346.194 451.3,350.694 443.5,355C 413.077,366.461 381.577,374.294 349,378.5C 338.797,379.703 328.63,379.703 318.5,378.5C 302.111,379.941 285.944,380.941 270,381.5C 246.166,379.794 222.333,377.628 198.5,375C 181.823,371.598 165.156,368.931 148.5,367C 143.523,365.064 138.523,363.23 133.5,361.5C 136.887,351.967 141.72,343.3 148,335.5C 153.123,326.249 157.456,316.583 161,306.5C 162.043,303.243 162.543,299.91 162.5,296.5C 157.504,296.258 152.671,296.925 148,298.5C 147.586,298.043 147.086,297.709 146.5,297.5C 134.047,300.49 121.547,303.157 109,305.5C 88.1485,306.743 67.4819,309.076 47,312.5C 45.5,312.167 44,311.833 42.5,311.5C 34.6196,305.453 27.9529,298.287 22.5,290C 23.6512,288.177 24.8179,286.344 26,284.5C 40.015,271.563 54.1817,258.73 68.5,246C 77.2128,240.316 85.8795,234.65 94.5,229C 111.133,220.688 128.466,214.355 146.5,210C 176.22,204.675 206.22,201.175 236.5,199.5 Z M 146.5,304.5 C 147.873,304.343 149.207,304.51 150.5,305C 145.252,309.536 139.752,313.703 134,317.5C 130.584,315.538 127.417,313.205 124.5,310.5C 124.709,309.914 125.043,309.414 125.5,309C 132.666,307.62 139.666,306.12 146.5,304.5 Z M 103.5,311.5 C 105.199,311.34 106.866,311.506 108.5,312C 105.62,316.258 103.12,320.758 101,325.5C 95.6172,322.217 90.4505,318.551 85.5,314.5C 91.6611,313.626 97.6611,312.626 103.5,311.5 Z M 105.5,334.5 C 108.693,327.948 112.026,321.448 115.5,315C 119.653,317.102 123.653,319.769 127.5,323C 123.832,326.661 121.165,330.994 119.5,336C 114.831,335.838 110.165,335.338 105.5,334.5 Z M 71.5,315.5 C 72.4972,315.47 73.1639,315.97 73.5,317C 72.0768,321.192 70.5768,325.358 69,329.5C 63.5059,326.009 58.0059,322.509 52.5,319C 58.8595,317.701 65.1929,316.535 71.5,315.5 Z M 147.5,316.5 C 148.376,316.369 149.043,316.702 149.5,317.5C 148.194,321.446 146.361,325.112 144,328.5C 141.929,327.475 139.762,326.642 137.5,326C 140.729,322.601 144.062,319.435 147.5,316.5 Z M 105.5,334.5 C 102.877,338.354 101.21,342.688 100.5,347.5C 91.7179,343.275 83.0513,338.775 74.5,334C 76.7939,329.785 78.2939,325.285 79,320.5C 79.414,320.043 79.914,319.709 80.5,319.5C 86.38,325.788 93.38,330.621 101.5,334C 102.793,334.49 104.127,334.657 105.5,334.5 Z M 131.5,334.5 C 133.896,335.3 136.229,336.3 138.5,337.5C 134.393,344.115 130.06,350.615 125.5,357C 123.833,357.667 122.167,357.667 120.5,357C 116.179,355.229 111.846,353.395 107.5,351.5C 108.23,348.891 108.73,346.224 109,343.5C 113.639,345.757 118.472,347.257 123.5,348C 126.304,343.555 128.971,339.055 131.5,334.5 Z"/></g>
<g><path style="opacity:0.461" fill="#000000" d="M 155.5,240.5 C 154.508,240.328 153.842,240.662 153.5,241.5C 151.151,242.957 148.818,244.291 146.5,245.5C 146.62,248.205 145.62,248.872 143.5,247.5C 142.833,248.5 142.167,249.5 141.5,250.5C 140.402,249.385 139.235,249.385 138,250.5C 135.524,252.655 132.691,254.155 129.5,255C 128.874,255.75 128.374,256.584 128,257.5C 126.75,256.427 125.416,256.427 124,257.5C 121.109,259.172 118.609,261.172 116.5,263.5C 116.631,262.761 116.464,262.094 116,261.5C 114.956,262.623 114.29,263.956 114,265.5C 111.347,265.318 108.68,264.985 106,264.5C 105.333,263.5 105.333,262.5 106,261.5C 106.333,261.833 106.667,262.167 107,262.5C 107.333,261.5 107.667,260.5 108,259.5C 108.667,258.167 109.333,258.167 110,259.5C 111.095,258.307 111.928,256.973 112.5,255.5C 113.833,255.5 115.167,255.5 116.5,255.5C 116.413,252.402 116.913,252.068 118,254.5C 119.518,253.837 120.685,252.837 121.5,251.5C 124.607,249.758 127.941,248.425 131.5,247.5C 131.285,245.821 131.952,244.821 133.5,244.5C 134.649,241.959 134.649,239.459 133.5,237C 137.071,236.141 140.071,236.974 142.5,239.5C 145.805,237.882 149.139,236.216 152.5,234.5C 153.442,234.608 154.275,234.941 155,235.5C 155.494,237.134 155.66,238.801 155.5,240.5 Z"/></g>
<g><path style="opacity:0.699" fill="#000000" d="M 144.5,276.5 C 143.833,276.5 143.5,276.833 143.5,277.5C 141.436,277.687 139.436,278.187 137.5,279C 137.833,279.333 138.167,279.667 138.5,280C 135.558,280.144 133.224,281.311 131.5,283.5C 129.901,283.232 128.568,283.566 127.5,284.5C 122.849,285.186 120.183,283.186 119.5,278.5C 120.145,277.268 120.311,275.935 120,274.5C 121.016,273.366 121.683,273.699 122,275.5C 123.758,274.531 124.258,273.364 123.5,272C 124.901,271.59 126.234,271.09 127.5,270.5C 127.833,271.833 128.167,271.833 128.5,270.5C 129.167,270.5 129.5,270.167 129.5,269.5C 130.79,268.942 131.623,267.942 132,266.5C 132.333,267.167 132.667,267.833 133,268.5C 134.667,267.167 136.333,265.833 138,264.5C 138.333,264.833 138.667,265.167 139,265.5C 139.71,264.027 140.876,263.36 142.5,263.5C 142.413,260.402 142.913,260.068 144,262.5C 146.398,262.042 148.064,260.708 149,258.5C 151.667,259.833 154.333,259.833 157,258.5C 157.617,259.449 157.451,260.282 156.5,261C 160.092,263.971 160.425,267.304 157.5,271C 156.551,271.617 155.718,271.451 155,270.5C 154.25,271.126 153.416,271.626 152.5,272C 153.34,273.666 152.84,273.833 151,272.5C 148.987,274.248 146.82,275.582 144.5,276.5 Z"/></g>
<g><path style="opacity:0.008" fill="#000000" d="M 90.5,260.5 C 92.2132,261.635 92.8799,263.302 92.5,265.5C 94.1992,265.34 95.8659,265.506 97.5,266C 94.9906,267.421 92.6572,269.088 90.5,271C 85.0754,272.49 83.0754,270.657 84.5,265.5C 86.9408,264.291 88.9408,262.624 90.5,260.5 Z"/></g>
<g><path style="opacity:0.005" fill="#000000" d="M 129.5,269.5 C 128.833,269.5 128.5,269.833 128.5,270.5C 128.167,270.5 127.833,270.5 127.5,270.5C 128.032,267.54 128.699,267.207 129.5,269.5 Z"/></g>
<g><path style="opacity:0.004" fill="#000000" d="M 144.5,276.5 C 146.975,276.747 146.975,277.413 144.5,278.5C 143.893,278.376 143.56,278.043 143.5,277.5C 144.167,277.5 144.5,277.167 144.5,276.5 Z"/></g>
</svg>
