<?xml version="1.0" encoding="UTF-8"?>
<!DOCTYPE svg PUBLIC "-//W3C//DTD SVG 1.1//EN" "http://www.w3.org/Graphics/SVG/1.1/DTD/svg11.dtd">
<svg xmlns="http://www.w3.org/2000/svg" version="1.1" width="611px" height="611px" style="shape-rendering:geometricPrecision; text-rendering:geometricPrecision; image-rendering:optimizeQuality; fill-rule:evenodd; clip-rule:evenodd" xmlns:xlink="http://www.w3.org/1999/xlink">
<g><path style="opacity:0.726" fill="#000000" d="M 212.5,222.5 C 230.665,222.898 248.665,222.898 266.5,222.5C 330.542,230.227 389.875,251.394 444.5,286C 455.066,297.06 466.733,306.893 479.5,315.5C 490.604,305.476 501.604,295.309 512.5,285C 534.106,271.058 555.439,256.725 576.5,242C 582.612,239.586 588.946,238.919 595.5,240C 596.687,241.019 597.687,242.186 598.5,243.5C 597.512,246.45 596.679,249.45 596,252.5C 587.956,264.401 579.623,276.067 571,287.5C 563.577,304.35 555.577,321.016 547,337.5C 542.489,348.355 541.822,359.355 545,370.5C 556.771,399.504 569.105,428.171 582,456.5C 584.583,461.171 583.583,464.837 579,467.5C 568.91,462.076 558.744,456.576 548.5,451C 528.794,438.152 509.461,424.819 490.5,411C 488.963,409.89 488.297,408.39 488.5,406.5C 486.567,406.271 484.9,405.438 483.5,404C 477.26,398.097 471.427,391.931 466,385.5C 455.596,391.466 445.096,396.299 434.5,400C 408.934,409.464 382.601,415.964 355.5,419.5C 341.488,419.883 327.655,419.883 314,419.5C 307.076,420.385 300.076,421.052 293,421.5C 284.168,420.189 275.334,420.189 266.5,421.5C 260.249,421.133 254.082,420.466 248,419.5C 244.143,420.276 240.31,420.609 236.5,420.5C 222.416,418.398 208.082,416.565 193.5,415C 190.666,414.955 188.166,414.121 186,412.5C 182.62,412.786 179.286,412.786 176,412.5C 140.259,405.409 106.092,393.242 73.5,376C 60.5297,367.843 47.863,359.176 35.5,350C 28.9957,343.829 22.8291,337.329 17,330.5C 15.9319,327.129 14.7653,323.796 13.5,320.5C 14.0953,317.025 15.4287,314.025 17.5,311.5C 18.5,311.5 19.5,311.5 20.5,311.5C 20.3505,310.448 20.5172,309.448 21,308.5C 31.8084,298.024 42.3084,287.191 52.5,276C 64.984,266.847 77.984,258.514 91.5,251C 103.082,245.916 114.915,241.416 127,237.5C 132.897,235.151 139.064,233.651 145.5,233C 146.167,232.333 146.833,231.667 147.5,231C 169.25,227.679 190.916,224.845 212.5,222.5 Z M 60.5,356.5 C 61.1174,356.389 61.6174,356.056 62,355.5C 72.7082,357.992 83.7082,358.992 95,358.5C 102.41,358.492 109.743,358.159 117,357.5C 118.101,359.394 119.434,360.061 121,359.5C 122.53,358.364 123.863,357.364 125,356.5C 125.82,354.272 125.487,352.272 124,350.5C 99.0596,351.621 74.2263,351.621 49.5,350.5C 49.5,349.5 49.5,348.5 49.5,347.5C 48.448,347.649 47.448,347.483 46.5,347C 37.008,339.674 28.6747,331.174 21.5,321.5C 26.324,315.843 31.6573,310.677 37.5,306C 50.8327,291.007 65.8327,278.007 82.5,267C 111.282,250.134 142.615,240.301 176.5,237.5C 197.156,235.3 217.489,232.966 237.5,230.5C 270.347,232.406 303.013,237.572 335.5,246C 341.579,248.581 347.913,250.581 354.5,252C 372.823,259.828 391.157,267.661 409.5,275.5C 420.128,281.819 430.461,288.652 440.5,296C 450.409,305.415 460.409,314.581 470.5,323.5C 474.967,327.253 479.634,327.42 484.5,324C 511.472,298.357 541.472,277.357 574.5,261C 569.031,268.108 564.198,275.608 560,283.5C 550.743,303.763 541.576,324.097 532.5,344.5C 531.092,352.167 531.426,359.501 533.5,366.5C 533.069,367.293 532.735,368.127 532.5,369C 534.044,373.047 535.21,377.213 536,381.5C 544.56,401.955 554.227,421.955 565,441.5C 565.614,443.879 565.947,446.212 566,448.5C 549.271,438.884 533.105,428.384 517.5,417C 512.994,415.059 508.994,412.392 505.5,409C 504.207,408.51 502.873,408.343 501.5,408.5C 501.271,406.567 500.438,404.9 499,403.5C 487.861,395.694 478.361,386.194 470.5,375C 468.966,374.077 467.299,373.577 465.5,373.5C 455.636,378.932 445.636,384.098 435.5,389C 413.867,396.101 391.867,402.268 369.5,407.5C 357.084,409.396 344.751,410.73 332.5,411.5C 327.441,410.641 322.441,410.308 317.5,410.5C 302.326,411.876 287.16,412.876 272,413.5C 253.439,412.064 234.605,410.564 215.5,409C 197.725,406.403 180.058,403.237 162.5,399.5C 161.707,399.931 160.873,400.265 160,400.5C 123.654,392.462 90.4868,377.796 60.5,356.5 Z M 112.5,279.5 C 115.53,277.022 118.863,276.855 122.5,279C 119.574,279.218 116.74,279.718 114,280.5C 113.617,279.944 113.117,279.611 112.5,279.5 Z"/></g>
<g><path style="opacity:0.28" fill="#000000" d="M 126.5,287.5 C 124.883,286.028 122.883,285.361 120.5,285.5C 118.955,285.511 117.622,285.844 116.5,286.5C 112.373,286.635 109.706,288.635 108.5,292.5C 107.596,293.209 107.263,294.209 107.5,295.5C 104.927,296.555 102.261,296.722 99.5,296C 100.833,292.581 101.999,289.081 103,285.5C 105.5,284.333 108,283.167 110.5,282C 111.381,281.292 112.047,280.458 112.5,279.5C 111.178,279.67 110.011,279.337 109,278.5C 106.493,280.155 103.659,280.989 100.5,281C 95.9528,282.953 92.2862,285.953 89.5,290C 88.552,290.483 87.552,290.649 86.5,290.5C 86.178,292.722 86.8446,294.556 88.5,296C 87.0563,297.763 86.0563,299.763 85.5,302C 82.9063,302.449 80.9063,301.449 79.5,299C 80.0815,289.697 85.4148,283.697 95.5,281C 96.5433,279.024 97.8767,278.524 99.5,279.5C 109.747,275.118 120.08,274.618 130.5,278C 133.103,280.078 136.103,281.411 139.5,282C 139.833,282.333 140.167,282.667 140.5,283C 138.956,283.29 137.623,283.956 136.5,285C 137.435,287.381 137.768,289.881 137.5,292.5C 134.033,292.554 131.366,291.054 129.5,288C 128.552,287.517 127.552,287.351 126.5,287.5 Z M 112.5,279.5 C 113.117,279.611 113.617,279.944 114,280.5C 116.74,279.718 119.574,279.218 122.5,279C 118.863,276.855 115.53,277.022 112.5,279.5 Z"/></g>
<g><path style="opacity:0.004" fill="#000000" d="M 143.5,285.5 C 144.721,284.535 146.054,284.702 147.5,286C 148.833,287.333 150.167,288.667 151.5,290C 147.865,294.769 146.031,293.936 146,287.5C 145.292,286.619 144.458,285.953 143.5,285.5 Z"/></g>
<g><path style="opacity:0.564" fill="#000000" d="M 119.5,299.5 C 121.167,299.5 122.833,299.5 124.5,299.5C 125.568,300.434 126.901,300.768 128.5,300.5C 128.811,301.478 129.478,302.145 130.5,302.5C 132.838,300.989 133.504,301.323 132.5,303.5C 133,304.5 133.5,305.5 134,306.5C 134.718,305.549 135.551,305.383 136.5,306C 136.282,309.554 135.782,313.054 135,316.5C 130.195,320.923 124.862,323.257 119,323.5C 118.583,322.244 117.75,321.577 116.5,321.5C 116.167,318.833 115.833,318.833 115.5,321.5C 105.385,320.971 101.219,315.638 103,305.5C 105.382,304.446 107.882,303.779 110.5,303.5C 110.343,304.873 110.51,306.207 111,307.5C 112.967,305.697 114.634,303.03 116,299.5C 116.853,301.603 118.02,301.603 119.5,299.5 Z"/></g>
</svg>
