<?xml version="1.0" encoding="UTF-8"?>
<!DOCTYPE svg PUBLIC "-//W3C//DTD SVG 1.1//EN" "http://www.w3.org/Graphics/SVG/1.1/DTD/svg11.dtd">
<svg xmlns="http://www.w3.org/2000/svg" version="1.1" width="611px" height="611px" style="shape-rendering:geometricPrecision; text-rendering:geometricPrecision; image-rendering:optimizeQuality; fill-rule:evenodd; clip-rule:evenodd" xmlns:xlink="http://www.w3.org/1999/xlink">
<g><path style="opacity:0.733" fill="#000000" d="M 243.5,169.5 C 252.307,171.175 260.974,172.342 269.5,173C 271.706,174.807 274.039,175.307 276.5,174.5C 280.941,174.817 285.108,175.817 289,177.5C 293.783,176.74 298.45,177.406 303,179.5C 303.725,178.941 304.558,178.608 305.5,178.5C 351.99,189.769 395.99,207.103 437.5,230.5C 444.143,235.469 450.81,240.469 457.5,245.5C 458.326,247.959 458.993,250.459 459.5,253C 457.786,253.128 456.119,253.962 454.5,255.5C 448.399,264.111 442.066,272.611 435.5,281C 445.97,287.794 455.637,295.794 464.5,305C 469.453,308.484 474.453,311.984 479.5,315.5C 490.604,305.476 501.604,295.309 512.5,285C 534.106,271.058 555.439,256.725 576.5,242C 582.612,239.586 588.946,238.919 595.5,240C 596.687,241.019 597.687,242.186 598.5,243.5C 597.512,246.45 596.679,249.45 596,252.5C 587.956,264.401 579.623,276.067 571,287.5C 563.577,304.35 555.577,321.016 547,337.5C 542.489,348.355 541.822,359.355 545,370.5C 556.771,399.504 569.105,428.171 582,456.5C 584.583,461.171 583.583,464.837 579,467.5C 568.91,462.076 558.744,456.576 548.5,451C 528.794,438.152 509.461,424.819 490.5,411C 488.963,409.89 488.297,408.39 488.5,406.5C 486.567,406.271 484.9,405.438 483.5,404C 477.26,398.097 471.427,391.931 466,385.5C 455.596,391.466 445.096,396.299 434.5,400C 408.934,409.464 382.601,415.964 355.5,419.5C 352.455,418.802 349.455,418.468 346.5,418.5C 341.167,419.167 335.833,419.833 330.5,420.5C 325.189,420.114 319.689,419.781 314,419.5C 300.579,421.401 287.079,422.068 273.5,421.5C 275.685,425.856 278.018,430.189 280.5,434.5C 279.167,435.5 279.167,436.5 280.5,437.5C 280.023,438.478 279.357,439.311 278.5,440C 269.904,442.253 261.571,445.253 253.5,449C 246.287,453.518 238.953,457.851 231.5,462C 228.953,463.316 228.287,465.149 229.5,467.5C 226.216,468.657 222.882,468.824 219.5,468C 210.662,461.943 202.495,455.11 195,447.5C 187.167,437.089 179.167,426.755 171,416.5C 170.167,414.5 169.333,412.5 168.5,410.5C 135.141,403.479 103.474,391.979 73.5,376C 61.7238,368.401 50.0572,360.568 38.5,352.5C 30.8442,345.677 23.6775,338.344 17,330.5C 15.9319,327.129 14.7653,323.796 13.5,320.5C 14.0953,317.025 15.4287,314.025 17.5,311.5C 18.5,311.5 19.5,311.5 20.5,311.5C 20.3505,310.448 20.5172,309.448 21,308.5C 31.8084,298.024 42.3084,287.191 52.5,276C 64.984,266.847 77.984,258.514 91.5,251C 112.485,242.317 133.818,235.151 155.5,229.5C 158.183,224.795 160.85,220.129 163.5,215.5C 166.86,213.659 169.86,211.159 172.5,208C 185.172,199.659 197.839,191.325 210.5,183C 216.051,180.264 221.717,177.931 227.5,176C 229.03,173.803 230.864,172.97 233,173.5C 236.415,171.644 239.915,170.311 243.5,169.5 Z M 166.5,227.5 C 168.303,225.519 169.97,223.352 171.5,221C 177.092,217.416 182.426,213.416 187.5,209C 197.796,202.671 208.13,196.338 218.5,190C 223.167,188 227.833,186 232.5,184C 238.313,183.006 243.979,181.506 249.5,179.5C 262.525,182.858 275.525,185.024 288.5,186C 282.774,190.389 276.774,194.389 270.5,198C 265.695,203.14 260.861,208.307 256,213.5C 253.429,215.976 251.929,218.976 251.5,222.5C 239.322,223.589 227.322,223.589 215.5,222.5C 199.213,224.663 182.879,226.329 166.5,227.5 Z M 305.5,188.5 C 319.306,191.234 332.639,195.234 345.5,200.5C 336.024,207.475 326.691,214.642 317.5,222C 314.941,224.4 312.941,227.233 311.5,230.5C 295.582,226.764 279.748,224.097 264,222.5C 268.161,214.612 273.994,207.945 281.5,202.5C 282.386,201.675 282.719,200.675 282.5,199.5C 290.564,196.634 298.231,192.968 305.5,188.5 Z M 359.5,205.5 C 374.743,211.788 389.743,218.621 404.5,226C 391.176,230.315 380.343,238.148 372,249.5C 356.046,242.404 339.546,236.904 322.5,233C 324.037,231.89 324.703,230.39 324.5,228.5C 327.815,228.028 330.149,226.195 331.5,223C 336.136,219.372 340.803,215.705 345.5,212C 350.35,209.92 355.017,207.753 359.5,205.5 Z M 60.5,356.5 C 61.1174,356.389 61.6174,356.056 62,355.5C 72.7082,357.992 83.7082,358.992 95,358.5C 102.41,358.492 109.743,358.159 117,357.5C 118.101,359.394 119.434,360.061 121,359.5C 122.53,358.364 123.863,357.364 125,356.5C 125.82,354.272 125.487,352.272 124,350.5C 99.0596,351.621 74.2263,351.621 49.5,350.5C 49.5,349.5 49.5,348.5 49.5,347.5C 48.448,347.649 47.448,347.483 46.5,347C 37.008,339.674 28.6747,331.174 21.5,321.5C 26.324,315.843 31.6573,310.677 37.5,306C 50.8327,291.007 65.8327,278.007 82.5,267C 111.282,250.134 142.615,240.301 176.5,237.5C 197.156,235.3 217.489,232.966 237.5,230.5C 270.347,232.406 303.013,237.572 335.5,246C 341.579,248.581 347.913,250.581 354.5,252C 372.823,259.828 391.157,267.661 409.5,275.5C 420.128,281.819 430.461,288.652 440.5,296C 450.409,305.415 460.409,314.581 470.5,323.5C 474.967,327.253 479.634,327.42 484.5,324C 511.472,298.357 541.472,277.357 574.5,261C 569.031,268.108 564.198,275.608 560,283.5C 550.743,303.763 541.576,324.097 532.5,344.5C 531.092,352.167 531.426,359.501 533.5,366.5C 533.069,367.293 532.735,368.127 532.5,369C 534.044,373.047 535.21,377.213 536,381.5C 544.56,401.955 554.227,421.955 565,441.5C 565.614,443.879 565.947,446.212 566,448.5C 549.271,438.884 533.105,428.384 517.5,417C 512.994,415.059 508.994,412.392 505.5,409C 504.207,408.51 502.873,408.343 501.5,408.5C 501.271,406.567 500.438,404.9 499,403.5C 487.861,395.694 478.361,386.194 470.5,375C 468.966,374.077 467.299,373.577 465.5,373.5C 455.636,378.932 445.636,384.098 435.5,389C 413.867,396.101 391.867,402.268 369.5,407.5C 357.084,409.396 344.751,410.73 332.5,411.5C 327.441,410.641 322.441,410.308 317.5,410.5C 302.326,411.876 287.16,412.876 272,413.5C 253.439,412.064 234.605,410.564 215.5,409C 197.725,406.403 180.058,403.237 162.5,399.5C 161.707,399.931 160.873,400.265 160,400.5C 123.654,392.462 90.4868,377.796 60.5,356.5 Z M 416.5,232.5 C 427.453,237.471 437.453,243.804 446.5,251.5C 439.296,258.895 432.796,266.895 427,275.5C 424.92,273.877 422.754,272.377 420.5,271C 407.639,265.381 394.972,259.381 382.5,253C 386.755,248.209 391.422,243.875 396.5,240C 400.519,238.538 404.352,236.705 408,234.5C 408.414,234.957 408.914,235.291 409.5,235.5C 411.764,234.131 414.097,233.131 416.5,232.5 Z M 112.5,279.5 C 115.53,277.022 118.863,276.855 122.5,279C 119.574,279.218 116.74,279.718 114,280.5C 113.617,279.944 113.117,279.611 112.5,279.5 Z M 179.5,413.5 C 181.532,413.478 183.698,413.145 186,412.5C 186.5,413 187,413.5 187.5,414C 194.833,415 202.167,416 209.5,417C 208.724,418.77 208.89,420.603 210,422.5C 215.593,433.922 223.76,442.922 234.5,449.5C 230.545,451.619 226.712,453.952 223,456.5C 214.82,452.158 207.653,446.491 201.5,439.5C 194.114,430.789 186.781,422.122 179.5,413.5 Z M 218.5,418.5 C 222.102,419.034 225.602,419.034 229,418.5C 229.75,419.126 230.584,419.626 231.5,420C 237.203,427.71 244.203,434.043 252.5,439C 249.389,440.451 246.556,442.285 244,444.5C 240.579,440.596 236.412,437.596 231.5,435.5C 229.213,432.559 226.713,429.892 224,427.5C 222.148,424.454 220.315,421.454 218.5,418.5 Z M 247.5,419.5 C 251.75,420.272 256.083,420.772 260.5,421C 262.276,424.441 264.443,427.608 267,430.5C 267.749,431.635 267.583,432.635 266.5,433.5C 258.432,431.092 251.432,426.926 245.5,421C 246.416,420.722 247.082,420.222 247.5,419.5 Z"/></g>
<g><path style="opacity:0.286" fill="#000000" d="M 228.5,261.5 C 233.645,261.492 237.811,263.492 241,267.5C 243.064,266.409 245.231,266.242 247.5,267C 263.931,275.246 269.765,288.413 265,306.5C 261.714,315.119 256.214,321.953 248.5,327C 245.497,328.166 242.83,329.833 240.5,332C 237.518,332.498 234.518,332.665 231.5,332.5C 231.967,330.289 232.967,328.289 234.5,326.5C 244.317,322.507 252.15,316.173 258,307.5C 263.628,292.369 259.461,280.702 245.5,272.5C 245.167,272.833 244.833,273.167 244.5,273.5C 248.642,283.236 248.975,293.236 245.5,303.5C 242.887,308.442 239.22,312.276 234.5,315C 232.863,315.601 231.197,316.101 229.5,316.5C 227.618,315.469 225.618,314.635 223.5,314C 225.569,313.676 225.902,312.842 224.5,311.5C 224.877,307.732 226.877,305.398 230.5,304.5C 238.8,294.392 238.8,284.058 230.5,273.5C 224.309,273.243 222.309,270.243 224.5,264.5C 225.901,263.479 227.235,262.479 228.5,261.5 Z"/></g>
<g><path style="opacity:0.28" fill="#000000" d="M 126.5,287.5 C 124.883,286.028 122.883,285.361 120.5,285.5C 118.955,285.511 117.622,285.844 116.5,286.5C 112.373,286.635 109.706,288.635 108.5,292.5C 107.596,293.209 107.263,294.209 107.5,295.5C 104.927,296.555 102.261,296.722 99.5,296C 100.833,292.581 101.999,289.081 103,285.5C 105.5,284.333 108,283.167 110.5,282C 111.381,281.292 112.047,280.458 112.5,279.5C 111.178,279.67 110.011,279.337 109,278.5C 106.493,280.155 103.659,280.989 100.5,281C 95.9528,282.953 92.2862,285.953 89.5,290C 88.552,290.483 87.552,290.649 86.5,290.5C 86.178,292.722 86.8446,294.556 88.5,296C 87.0563,297.763 86.0563,299.763 85.5,302C 82.9063,302.449 80.9063,301.449 79.5,299C 80.0815,289.697 85.4148,283.697 95.5,281C 96.5433,279.024 97.8767,278.524 99.5,279.5C 109.747,275.118 120.08,274.618 130.5,278C 133.103,280.078 136.103,281.411 139.5,282C 139.833,282.333 140.167,282.667 140.5,283C 138.956,283.29 137.623,283.956 136.5,285C 137.435,287.381 137.768,289.881 137.5,292.5C 134.033,292.554 131.366,291.054 129.5,288C 128.552,287.517 127.552,287.351 126.5,287.5 Z M 112.5,279.5 C 113.117,279.611 113.617,279.944 114,280.5C 116.74,279.718 119.574,279.218 122.5,279C 118.863,276.855 115.53,277.022 112.5,279.5 Z"/></g>
<g><path style="opacity:0.623" fill="#000000" d="M 387.5,282.5 C 394.115,284.615 398.615,288.948 401,295.5C 406.489,308.948 404.322,320.948 394.5,331.5C 391.387,332.556 388.387,333.889 385.5,335.5C 385.167,335.167 384.833,334.833 384.5,334.5C 387.937,328.567 391.937,323.067 396.5,318C 399.842,305.558 396.342,295.392 386,287.5C 385.36,285.457 385.86,283.79 387.5,282.5 Z"/></g>
<g><path style="opacity:0.004" fill="#000000" d="M 143.5,285.5 C 144.721,284.535 146.054,284.702 147.5,286C 148.833,287.333 150.167,288.667 151.5,290C 147.865,294.769 146.031,293.936 146,287.5C 145.292,286.619 144.458,285.953 143.5,285.5 Z"/></g>
<g><path style="opacity:0.291" fill="#000000" d="M 294.5,285.5 C 296.794,285.123 299.127,285.623 301.5,287C 314.953,298.196 320.453,312.696 318,330.5C 323.932,332.476 328.598,336.143 332,341.5C 341.651,362.758 336.151,378.258 315.5,388C 311.187,388.735 306.853,389.235 302.5,389.5C 302.281,388.325 302.614,387.325 303.5,386.5C 310.123,383.522 316.457,380.022 322.5,376C 330.947,367.722 332.78,358.222 328,347.5C 325.134,341.4 320.467,337.4 314,335.5C 311.665,339.421 308.165,341.421 303.5,341.5C 303.277,339.658 302.943,337.825 302.5,336C 308.842,320.066 305.842,306.066 293.5,294C 292.134,290.964 292.468,288.131 294.5,285.5 Z"/></g>
<g><path style="opacity:0.564" fill="#000000" d="M 119.5,299.5 C 121.167,299.5 122.833,299.5 124.5,299.5C 125.568,300.434 126.901,300.768 128.5,300.5C 128.811,301.478 129.478,302.145 130.5,302.5C 132.838,300.989 133.504,301.323 132.5,303.5C 133,304.5 133.5,305.5 134,306.5C 134.718,305.549 135.551,305.383 136.5,306C 136.282,309.554 135.782,313.054 135,316.5C 130.195,320.923 124.862,323.257 119,323.5C 118.583,322.244 117.75,321.577 116.5,321.5C 116.167,318.833 115.833,318.833 115.5,321.5C 105.385,320.971 101.219,315.638 103,305.5C 105.382,304.446 107.882,303.779 110.5,303.5C 110.343,304.873 110.51,306.207 111,307.5C 112.967,305.697 114.634,303.03 116,299.5C 116.853,301.603 118.02,301.603 119.5,299.5 Z"/></g>
<g><path style="opacity:0.004" fill="#000000" d="M 378.5,305.5 C 381.271,305.421 383.937,305.921 386.5,307C 388.037,308.11 388.703,309.61 388.5,311.5C 384.781,312.47 381.114,313.304 377.5,314C 374.573,310.565 374.906,307.731 378.5,305.5 Z"/></g>
</svg>
