<?xml version="1.0" standalone="no"?>
<!DOCTYPE svg PUBLIC "-//W3C//DTD SVG 20010904//EN"
 "http://www.w3.org/TR/2001/REC-SVG-20010904/DTD/svg10.dtd">
<svg version="1.0" xmlns="http://www.w3.org/2000/svg"
 width="611.000000pt" height="611.000000pt" viewBox="0 0 611.000000 611.000000"
 preserveAspectRatio="xMidYMid meet">

<g transform="translate(0.000000,611.000000) scale(0.100000,-0.100000)"
fill="#000000" stroke="none">
<path d="M2240 4179 c-138 -9 -444 -41 -520 -55 -14 -3 -55 -9 -93 -14 -37 -5
-75 -14 -85 -18 -9 -5 -39 -13 -67 -17 -27 -4 -54 -10 -60 -15 -5 -4 -26 -11
-45 -15 -19 -4 -39 -11 -45 -15 -5 -4 -45 -20 -88 -35 -43 -15 -80 -32 -83
-36 -3 -5 -14 -9 -26 -9 -11 0 -32 -6 -46 -14 -15 -7 -61 -30 -102 -50 -83
-40 -90 -44 -174 -99 -132 -87 -218 -154 -257 -203 -15 -19 -40 -45 -56 -57
-38 -30 -146 -138 -216 -217 -53 -61 -57 -68 -51 -103 9 -59 27 -85 121 -183
84 -86 159 -145 336 -262 44 -30 85 -59 92 -65 7 -7 43 -27 81 -46 38 -19 76
-38 84 -43 8 -5 23 -11 33 -14 9 -4 17 -9 17 -13 0 -4 17 -13 38 -20 20 -7 62
-25 92 -38 215 -98 476 -177 605 -184 28 -1 58 -6 69 -12 17 -8 49 -14 116
-21 14 -1 35 -8 46 -14 12 -6 23 -9 26 -7 3 3 29 1 59 -4 30 -6 85 -13 124
-16 38 -4 72 -8 75 -10 3 -2 39 -6 80 -10 41 -4 107 -10 145 -15 73 -8 871 -5
1010 4 182 11 244 17 315 31 126 24 221 45 300 67 41 11 89 24 105 28 91 24
213 63 230 74 11 7 40 18 65 24 41 10 79 29 208 99 l40 22 38 -47 c47 -60 127
-137 187 -182 26 -19 84 -64 130 -100 69 -55 246 -179 305 -215 10 -5 21 -16
25 -22 4 -7 12 -13 17 -13 5 0 37 -20 72 -44 35 -24 83 -54 108 -66 25 -13 56
-31 69 -41 13 -11 30 -19 37 -19 7 0 32 -13 56 -29 58 -38 83 -43 103 -21 15
16 15 24 5 57 -7 21 -16 42 -21 47 -5 6 -9 18 -9 28 0 10 -3 18 -7 18 -5 0
-16 28 -27 63 -10 34 -53 134 -96 222 -42 88 -99 212 -125 275 -26 63 -51 120
-55 125 -11 15 -38 114 -46 165 -16 118 -6 186 46 298 16 34 29 65 29 69 -1 3
4 9 9 12 5 3 30 47 54 96 25 50 50 99 56 110 6 11 28 56 48 100 33 70 108 200
124 215 12 12 127 185 148 222 24 47 29 90 10 106 -7 5 -43 9 -80 8 -53 -1
-73 -6 -95 -24 -15 -12 -38 -27 -50 -32 -13 -5 -23 -14 -23 -20 0 -6 -4 -9 -8
-6 -4 3 -25 -11 -46 -30 -20 -19 -41 -34 -45 -34 -5 0 -37 -19 -72 -43 -35
-23 -95 -62 -133 -87 -38 -25 -79 -52 -91 -60 -12 -8 -39 -27 -61 -41 -21 -15
-50 -38 -63 -52 -13 -15 -27 -25 -30 -22 -4 2 -23 -11 -42 -28 -53 -48 -111
-98 -159 -137 -24 -19 -70 -61 -102 -93 l-58 -58 -45 31 c-25 17 -73 56 -107
88 -34 31 -74 68 -89 82 -15 14 -39 34 -54 45 -14 11 -34 27 -43 35 -10 9 -36
26 -57 39 -69 41 -150 96 -153 104 -2 4 -9 7 -17 7 -7 0 -18 6 -24 13 -6 8
-29 20 -51 27 -22 7 -40 17 -40 22 0 4 -5 8 -11 8 -6 0 -52 20 -102 44 -136
65 -264 120 -337 145 -36 12 -73 27 -83 32 -23 12 -111 43 -162 57 -22 6 -69
20 -105 31 -36 10 -87 22 -115 26 -27 3 -68 12 -90 20 -35 12 -187 41 -270 51
-16 2 -64 9 -105 15 -85 13 -412 17 -570 8z m493 -75 c31 -3 74 -6 95 -6 20 0
43 -5 50 -10 6 -6 12 -8 12 -6 0 3 19 1 43 -3 23 -5 107 -20 186 -34 79 -14
157 -32 174 -40 16 -8 39 -15 50 -15 12 0 46 -8 76 -19 31 -10 83 -26 116 -35
33 -10 78 -26 101 -37 23 -10 46 -19 53 -19 6 0 19 -4 29 -9 9 -5 37 -17 62
-26 25 -10 66 -28 91 -41 26 -13 54 -24 63 -24 9 0 16 -4 16 -10 0 -5 5 -10
11 -10 6 0 25 -6 42 -14 81 -37 126 -56 132 -56 3 0 29 -16 58 -35 28 -19 55
-35 59 -35 4 0 33 -17 64 -37 31 -21 77 -51 103 -67 67 -41 127 -93 326 -282
94 -90 118 -87 236 20 35 32 80 68 99 81 19 12 44 32 54 44 11 11 23 21 27 21
5 0 21 11 36 24 93 81 112 96 122 96 6 0 11 5 11 10 0 6 6 10 13 10 7 0 18 9
25 20 7 11 17 20 22 20 6 0 41 20 78 43 37 24 94 59 127 77 122 68 151 84 203
118 57 36 71 38 47 6 -36 -46 -104 -155 -141 -224 -21 -41 -42 -76 -46 -78 -5
-2 -8 -9 -8 -15 0 -14 -110 -251 -181 -389 -5 -10 -9 -23 -9 -30 0 -7 -14 -39
-30 -72 -34 -67 -41 -153 -21 -264 16 -84 57 -209 81 -243 11 -15 20 -30 20
-34 0 -8 81 -182 107 -230 76 -142 98 -186 123 -253 17 -42 30 -78 30 -80 0
-3 -29 12 -170 89 -68 38 -233 149 -238 161 -2 4 -10 8 -18 8 -8 0 -14 5 -14
10 0 6 -7 10 -15 10 -8 0 -15 5 -15 10 0 6 -5 10 -12 10 -6 0 -18 7 -27 15
-17 17 -96 70 -144 97 -17 10 -41 28 -53 40 -12 13 -42 39 -66 58 -51 42 -208
200 -208 211 0 4 -7 15 -16 23 -22 22 -67 20 -89 -4 -10 -11 -20 -18 -23 -15
-2 2 -24 -9 -47 -25 -23 -16 -72 -41 -109 -56 -36 -14 -69 -30 -72 -35 -3 -5
-14 -9 -25 -9 -10 0 -27 -4 -37 -9 -9 -5 -44 -17 -77 -26 -33 -10 -80 -24
-105 -32 -25 -8 -58 -17 -75 -20 -28 -5 -57 -10 -62 -12 -2 -1 -5 0 -6 2 -2 1
-10 -3 -18 -9 -21 -16 -202 -58 -294 -69 -27 -3 -68 -8 -90 -11 -74 -10 -139
-14 -330 -20 -104 -3 -193 -8 -196 -10 -10 -6 -453 -7 -489 -1 -19 3 -89 9
-155 12 -66 3 -154 10 -195 16 -41 5 -115 14 -165 19 -129 12 -228 28 -261 41
-16 6 -45 13 -64 15 -71 6 -186 23 -220 33 -19 6 -66 19 -105 30 -79 22 -182
60 -235 87 -61 30 -69 34 -82 34 -11 0 -132 60 -310 153 -21 10 -38 23 -38 28
0 5 -5 9 -11 9 -6 0 -25 11 -43 25 -18 14 -36 25 -40 25 -4 0 -15 7 -24 17
-15 15 -14 16 23 8 111 -22 426 -17 450 7 4 4 13 4 21 1 8 -3 20 -1 27 5 6 5
44 15 82 23 75 14 145 50 145 74 0 20 -50 19 -115 -1 -169 -53 -274 -69 -450
-68 -117 0 -191 11 -250 35 -17 7 -40 11 -52 10 -12 -1 -31 9 -45 23 -12 13
-39 37 -58 53 -65 51 -170 173 -170 197 0 27 0 26 196 212 233 221 258 244
266 244 5 0 41 24 81 53 39 29 95 63 122 76 28 13 57 29 65 35 8 7 33 18 55
25 22 8 77 31 121 52 45 22 85 39 89 39 4 0 21 6 38 14 42 18 217 64 290 76
31 6 83 15 115 20 31 6 81 13 111 16 30 2 57 7 61 9 4 2 58 7 121 11 63 3 117
8 120 10 3 2 66 6 140 10 74 4 135 8 137 9 5 5 251 -4 315 -11z"/>
<path d="M1165 3673 c-42 -9 -111 -50 -160 -95 -76 -69 -99 -158 -39 -146 11
2 25 16 32 31 21 44 75 92 137 122 51 26 63 27 144 23 101 -6 170 -34 225 -93
36 -37 75 -46 96 -20 10 11 6 22 -22 55 -43 52 -114 97 -186 115 -52 14 -181
18 -227 8z"/>
<path d="M1243 3470 c-74 -11 -154 -96 -109 -113 9 -4 29 5 48 21 45 38 118
38 176 0 46 -31 74 -35 92 -13 18 21 -8 52 -67 79 -63 30 -89 34 -140 26z"/>
</g>
</svg>
