<?xml version="1.0" standalone="no"?>
<!DOCTYPE svg PUBLIC "-//W3C//DTD SVG 20010904//EN"
 "http://www.w3.org/TR/2001/REC-SVG-20010904/DTD/svg10.dtd">
<svg version="1.0" xmlns="http://www.w3.org/2000/svg"
 width="611.000000pt" height="611.000000pt" viewBox="0 0 611.000000 611.000000"
 preserveAspectRatio="xMidYMid meet">

<g transform="translate(0.000000,611.000000) scale(0.100000,-0.100000)"
fill="#000000" stroke="none">
<path d="M5371 4308 c-22 -29 -46 -60 -53 -68 -29 -35 -68 -89 -68 -95 0 -4
-13 -27 -30 -52 -16 -24 -30 -46 -30 -48 0 -3 -18 -43 -40 -90 -22 -47 -40
-93 -40 -103 0 -10 -4 -22 -8 -28 -4 -5 -14 -27 -21 -49 -7 -22 -20 -47 -28
-56 -15 -18 -63 -162 -63 -191 0 -10 -2 -18 -4 -18 -4 0 -64 19 -86 27 -14 6
-99 30 -230 66 -50 14 -140 33 -315 67 -33 6 -73 15 -90 20 -40 11 -183 42
-215 46 -14 2 -59 11 -100 20 -41 9 -86 17 -100 19 -75 8 -150 18 -185 25 -22
5 -132 16 -245 26 -219 18 -706 15 -840 -5 -36 -5 -111 -12 -167 -15 -56 -3
-113 -10 -128 -16 -15 -6 -31 -8 -36 -4 -5 3 -24 0 -43 -6 -18 -6 -68 -15
-112 -20 -187 -22 -311 -40 -342 -49 -18 -5 -33 -9 -35 -9 -12 3 -291 -83
-302 -93 -5 -5 -16 -9 -25 -9 -9 0 -50 -17 -91 -39 -104 -53 -119 -62 -160
-93 -20 -16 -41 -28 -47 -28 -5 0 -55 -34 -110 -75 -55 -41 -105 -75 -111 -75
-6 0 -11 -4 -11 -10 0 -5 -5 -10 -11 -10 -10 0 -29 -13 -86 -60 -7 -6 -16 -10
-21 -10 -5 0 -17 -9 -27 -20 -10 -11 -22 -20 -27 -20 -20 0 -449 -321 -478
-357 -11 -14 -20 -33 -20 -42 0 -31 137 -139 316 -249 71 -43 171 -107 221
-141 51 -33 99 -61 107 -61 7 0 19 -6 25 -14 10 -12 172 -96 185 -96 3 0 30
-11 60 -25 30 -14 61 -25 68 -25 8 0 18 -4 23 -9 6 -6 22 -12 36 -14 32 -6
158 -46 181 -58 22 -11 153 -48 192 -54 16 -2 43 -9 60 -14 17 -6 60 -13 96
-17 116 -11 475 -18 491 -9 3 3 51 7 105 10 55 2 124 11 154 20 30 8 67 15 82
15 15 0 39 5 55 12 15 6 30 12 33 13 43 11 124 41 154 57 22 11 48 17 98 23
21 2 43 7 50 12 7 4 20 6 30 5 9 -2 19 2 23 8 3 5 16 10 28 10 12 0 83 18 157
41 74 22 142 41 150 43 59 11 87 20 104 35 10 9 19 14 20 12 2 -5 107 27 120
37 6 5 31 14 56 21 25 7 59 24 76 36 17 13 44 27 60 31 16 4 34 10 39 15 6 4
12 7 15 7 3 1 18 5 33 11 16 6 30 11 32 11 6 0 117 49 139 61 36 21 86 49 124
71 20 12 55 31 78 44 77 41 185 114 233 156 8 7 33 22 55 33 55 28 124 72 152
99 12 11 47 45 77 74 30 28 59 52 65 52 7 0 36 15 65 34 64 41 99 42 172 1 28
-15 66 -36 85 -46 44 -24 67 -38 107 -66 17 -13 35 -23 40 -23 4 0 39 -16 76
-35 71 -37 234 -92 277 -94 79 -4 176 1 184 9 14 14 12 83 -2 88 -7 2 -21 21
-32 42 -11 21 -43 55 -72 76 -29 22 -65 53 -81 71 -15 17 -63 54 -106 82 -103
66 -188 144 -196 180 -3 16 -1 64 4 108 11 84 36 329 52 508 5 61 11 130 14
155 7 57 -5 220 -16 220 -5 0 -26 -24 -48 -52z m-16 -267 c-2 -14 -9 -66 -15
-116 -6 -49 -15 -119 -20 -155 -34 -237 -44 -368 -31 -425 12 -53 55 -115 80
-115 4 0 17 -8 28 -17 12 -10 38 -31 59 -48 21 -16 45 -37 53 -45 9 -9 55 -51
104 -95 48 -43 87 -81 87 -84 0 -8 -64 -6 -100 3 -98 23 -222 73 -389 158
-107 54 -204 98 -216 98 -20 0 -58 -17 -145 -66 -19 -10 -39 -23 -46 -29 -6
-5 -29 -24 -50 -41 -22 -18 -55 -46 -74 -63 -19 -16 -60 -43 -90 -58 -75 -37
-179 -101 -215 -132 -34 -30 -48 -38 -165 -99 -47 -24 -87 -47 -90 -52 -3 -4
-25 -17 -50 -29 -25 -12 -65 -32 -90 -45 -25 -13 -70 -34 -100 -47 -30 -13
-62 -29 -71 -36 -8 -7 -21 -13 -28 -13 -7 0 -50 -18 -96 -40 -46 -22 -88 -40
-93 -40 -6 0 -12 -3 -14 -7 -4 -11 -358 -128 -400 -133 -11 -1 -89 -28 -113
-39 -34 -15 -119 -40 -163 -47 -23 -4 -45 -11 -48 -15 -3 -5 -14 -9 -25 -9
-11 0 -44 -11 -72 -24 -52 -24 -167 -63 -216 -74 -27 -5 -160 -9 -486 -12
-187 -2 -273 3 -349 20 -21 5 -44 6 -52 3 -12 -5 -108 19 -149 37 -11 4 -101
34 -200 65 -220 69 -254 83 -234 96 8 5 30 9 49 10 19 0 105 19 190 42 124 34
155 46 158 61 6 30 -16 35 -82 16 -375 -110 -392 -112 -494 -60 -42 22 -115
64 -162 95 -47 30 -95 59 -107 64 -11 6 -24 15 -28 20 -3 6 -15 11 -26 11 -10
0 -19 4 -19 9 0 6 -11 16 -25 23 -58 31 -164 101 -180 118 -10 11 -24 20 -30
20 -7 0 -24 15 -39 34 l-26 35 41 35 c23 19 60 47 83 63 43 29 113 81 131 98
7 6 28 21 48 35 20 14 37 28 37 33 0 4 5 7 12 7 6 0 26 11 44 25 18 14 36 25
40 25 4 0 22 11 40 25 18 14 37 25 41 25 5 0 24 13 43 30 19 16 38 29 42 30 4
0 40 22 80 48 40 27 89 57 108 68 19 10 37 22 38 27 2 4 8 7 13 7 5 0 30 15
56 33 27 19 64 41 83 51 19 9 42 21 50 26 14 9 90 43 165 75 32 13 144 49 160
51 6 0 17 4 25 7 26 10 144 39 160 39 8 0 31 4 50 9 19 4 62 11 95 14 33 3 85
8 115 11 30 2 84 9 120 15 78 13 109 16 220 24 47 3 126 10 175 15 181 18 233
21 370 22 176 1 533 -9 543 -15 4 -3 41 -8 82 -11 66 -6 280 -37 350 -51 58
-11 147 -26 168 -28 12 -1 22 -5 22 -8 0 -3 24 -9 53 -12 28 -3 63 -9 77 -12
85 -22 274 -64 315 -71 17 -3 37 -6 45 -8 8 -1 28 -8 43 -14 16 -7 35 -12 42
-12 16 0 99 -26 130 -40 11 -5 54 -14 95 -20 41 -5 87 -12 102 -16 24 -5 29
-1 49 37 12 24 30 55 40 69 10 14 32 68 50 120 63 189 111 301 167 389 35 55
55 56 47 2z"/>
<path d="M1104 3164 c-44 -10 -92 -88 -90 -148 1 -44 22 -43 30 1 15 97 78
135 156 94 50 -26 50 -26 50 -1 0 37 -82 68 -146 54z"/>
<path d="M1161 2944 c-48 -55 0 -204 66 -204 76 0 106 90 57 166 -28 42 -99
64 -123 38z"/>
</g>
</svg>
