<?xml version="1.0" encoding="UTF-8"?>
<svg xmlns="http://www.w3.org/2000/svg" xmlns:xlink="http://www.w3.org/1999/xlink" width="60px" height="60px" viewBox="0 0 60 60" version="1.1">
<g id="surface1">
<path style=" stroke:none;fill-rule:nonzero;fill:rgb(0%,0%,0%);fill-opacity:1;" d="M 28.324219 12.785156 C 26.777344 12.902344 24.5625 13.253906 22.886719 13.652344 C 21.257812 14.039062 17.976562 15.128906 16.992188 15.621094 C 16.253906 15.984375 16.230469 16.019531 16.195312 16.464844 C 16.160156 16.933594 16.171875 16.933594 18.398438 19.019531 C 19.617188 20.167969 20.625 21.140625 20.625 21.1875 C 20.625 21.234375 19.921875 21.65625 19.066406 22.125 C 18.210938 22.59375 16.945312 23.367188 16.230469 23.835938 L 14.941406 24.703125 L 14.238281 24.222656 C 13.851562 23.953125 12.855469 23.191406 12.035156 22.523438 C 9.761719 20.695312 8.730469 19.957031 7.804688 19.523438 C 6.246094 18.773438 4.582031 18.515625 4.171875 18.972656 C 3.609375 19.59375 3.210938 21.726562 3.339844 23.4375 C 3.515625 25.652344 4.113281 27.808594 4.980469 29.367188 L 5.402344 30.128906 L 4.816406 31.324219 C 3.550781 33.867188 3.199219 36.867188 3.878906 39.398438 C 4.054688 40.089844 4.242188 40.195312 5.191406 40.195312 C 6.867188 40.195312 8.964844 39.46875 10.511719 38.367188 C 11.4375 37.710938 12.773438 36.375 13.417969 35.472656 C 13.675781 35.109375 13.945312 34.828125 14.003906 34.851562 C 14.074219 34.875 14.648438 35.261719 15.292969 35.71875 C 16.792969 36.773438 18.679688 37.910156 20.425781 38.800781 L 21.808594 39.503906 L 19.980469 41.402344 C 18.433594 43.019531 18.164062 43.359375 18.164062 43.664062 C 18.164062 44.097656 18.351562 44.273438 19.277344 44.683594 C 20.683594 45.292969 21.75 45.515625 23.203125 45.515625 C 24.351562 45.515625 24.679688 45.46875 25.476562 45.1875 C 26.789062 44.742188 27.246094 44.449219 29.835938 42.410156 C 29.90625 42.351562 30.140625 42.363281 30.363281 42.421875 C 31.289062 42.679688 33.621094 43.007812 35.273438 43.125 C 38.496094 43.335938 41.988281 42.949219 44.636719 42.082031 C 49.476562 40.488281 53.636719 37.03125 55.957031 32.671875 C 57.128906 30.457031 56.929688 28.898438 55.160156 26.15625 C 52.96875 22.78125 49.59375 20.039062 45.75 18.503906 C 45.082031 18.246094 44.566406 17.917969 43.78125 17.261719 C 40.535156 14.53125 37.019531 13.148438 32.414062 12.773438 C 30.738281 12.644531 30.175781 12.644531 28.324219 12.785156 Z M 32.460938 14.414062 C 34.042969 14.554688 35.683594 14.882812 36.984375 15.292969 C 37.980469 15.621094 40.335938 16.722656 40.722656 17.050781 C 40.945312 17.238281 40.945312 17.238281 40.488281 17.167969 C 40.230469 17.132812 39.175781 17.074219 38.144531 17.027344 C 33.75 16.863281 28.933594 17.789062 24.105469 19.710938 C 23.144531 20.097656 22.324219 20.390625 22.277344 20.367188 C 22.230469 20.34375 21.339844 19.535156 20.308594 18.574219 C 18.140625 16.535156 18.117188 16.839844 20.507812 16.042969 C 24.597656 14.695312 28.921875 14.109375 32.460938 14.414062 Z M 41.25 18.972656 C 42.773438 19.242188 44.308594 19.664062 45.234375 20.0625 L 45.855469 20.332031 L 45.339844 20.671875 C 44.589844 21.175781 43.40625 22.335938 42.820312 23.167969 C 42.210938 24.011719 41.472656 25.546875 41.214844 26.542969 C 40.3125 29.882812 41.027344 33.867188 43.03125 36.832031 C 43.617188 37.6875 44.847656 39 45.480469 39.433594 C 45.902344 39.738281 45.9375 39.785156 45.761719 39.914062 C 45.65625 39.996094 45 40.242188 44.296875 40.476562 C 36.386719 43.054688 25.78125 40.804688 16.570312 34.605469 C 15.445312 33.84375 13.324219 32.191406 12.984375 31.804688 C 12.410156 31.160156 12.257812 29.847656 12.644531 29.003906 C 12.902344 28.417969 13.253906 28.078125 14.589844 27.035156 C 20.390625 22.535156 27.855469 19.453125 34.6875 18.75 C 36.316406 18.585938 39.714844 18.691406 41.25 18.972656 Z M 6.902344 20.929688 C 7.898438 21.386719 8.695312 21.9375 10.5 23.402344 C 11.203125 23.976562 12.117188 24.691406 12.539062 25.007812 C 12.960938 25.324219 13.347656 25.628906 13.40625 25.675781 C 13.464844 25.734375 13.371094 25.886719 13.171875 26.039062 C 12.304688 26.707031 11.542969 27.539062 11.203125 28.183594 C 10.863281 28.839844 10.839844 28.96875 10.839844 30.058594 C 10.839844 31.148438 10.863281 31.289062 11.226562 32.015625 C 11.460938 32.496094 11.8125 32.976562 12.140625 33.269531 L 12.679688 33.738281 L 12.117188 34.476562 C 10.851562 36.128906 9.363281 37.347656 7.863281 37.980469 C 6.914062 38.378906 5.554688 38.648438 5.378906 38.472656 C 5.320312 38.414062 5.226562 37.804688 5.191406 37.136719 C 5.085938 35.074219 5.554688 33.269531 6.761719 31.160156 C 7.03125 30.667969 7.265625 30.175781 7.265625 30.058594 C 7.265625 29.953125 7.007812 29.472656 6.691406 29.003906 C 6.058594 28.054688 5.507812 26.648438 5.191406 25.171875 C 4.957031 24.046875 4.910156 21.234375 5.132812 20.71875 C 5.25 20.4375 5.308594 20.402344 5.648438 20.460938 C 5.859375 20.496094 6.421875 20.707031 6.902344 20.929688 Z M 48.199219 21.527344 C 50.132812 22.769531 52.359375 24.9375 53.589844 26.789062 C 55.324219 29.402344 55.441406 30.292969 54.292969 32.285156 C 53.015625 34.511719 50.894531 36.820312 48.878906 38.191406 L 47.777344 38.941406 L 47.238281 38.660156 C 46.453125 38.25 44.671875 36.421875 44.074219 35.425781 C 42.972656 33.574219 42.503906 31.78125 42.515625 29.53125 C 42.527344 25.992188 43.945312 23.4375 46.898438 21.644531 C 47.296875 21.410156 47.636719 21.210938 47.660156 21.210938 C 47.683594 21.210938 47.917969 21.351562 48.199219 21.527344 Z M 24.210938 40.523438 C 24.65625 40.710938 25.699219 41.085938 26.53125 41.367188 L 28.042969 41.871094 L 27.761719 42.09375 C 26.929688 42.773438 25.710938 43.476562 24.949219 43.722656 C 23.753906 44.109375 22.183594 44.109375 21.070312 43.722656 C 20.625 43.582031 20.273438 43.429688 20.273438 43.394531 C 20.273438 43.300781 23.226562 40.195312 23.320312 40.195312 C 23.367188 40.195312 23.765625 40.347656 24.210938 40.523438 Z M 24.210938 40.523438 "/>
<path style=" stroke:none;fill-rule:nonzero;fill:rgb(0%,0%,0%);fill-opacity:1;" d="M 46.96875 26.847656 C 46.394531 27.011719 45.597656 27.714844 45.339844 28.289062 C 45.070312 28.875 45.058594 29.859375 45.304688 30.445312 C 46.054688 32.261719 48.539062 32.613281 49.792969 31.089844 C 50.859375 29.789062 50.449219 27.820312 48.960938 27.058594 C 48.410156 26.777344 47.554688 26.683594 46.96875 26.847656 Z M 48.410156 28.699219 C 48.644531 28.933594 48.75 29.15625 48.75 29.414062 C 48.75 29.847656 48.199219 30.46875 47.8125 30.46875 C 47.203125 30.46875 46.769531 30.023438 46.757812 29.390625 C 46.757812 29.0625 46.839844 28.898438 47.121094 28.664062 C 47.589844 28.265625 47.988281 28.277344 48.410156 28.699219 Z M 48.410156 28.699219 "/>
</g>
</svg>
