<?xml version="1.0" encoding="UTF-8"?>
<!DOCTYPE svg PUBLIC "-//W3C//DTD SVG 1.1//EN" "http://www.w3.org/Graphics/SVG/1.1/DTD/svg11.dtd">
<svg xmlns="http://www.w3.org/2000/svg" version="1.1" width="611px" height="611px" style="shape-rendering:geometricPrecision; text-rendering:geometricPrecision; image-rendering:optimizeQuality; fill-rule:evenodd; clip-rule:evenodd" xmlns:xlink="http://www.w3.org/1999/xlink">
<g><path style="opacity:0.737" fill="#000000" d="M 247.5,153.5 C 257.858,155.686 268.191,157.353 278.5,158.5C 281.385,157.981 284.385,157.981 287.5,158.5C 289.964,158.59 292.13,159.257 294,160.5C 298.431,159.848 302.765,160.515 307,162.5C 307.725,161.941 308.558,161.608 309.5,161.5C 361.248,175.018 410.248,195.851 456.5,224C 461.66,227.467 463.827,232.301 463,238.5C 461.32,237.397 459.82,237.73 458.5,239.5C 452.399,248.111 446.066,256.611 439.5,265C 443.551,267.018 447.217,269.518 450.5,272.5C 451.736,273.246 453.07,273.579 454.5,273.5C 454.281,274.675 454.614,275.675 455.5,276.5C 459.644,279.476 463.644,282.643 467.5,286C 472.05,291.38 477.384,295.88 483.5,299.5C 493.964,288.873 504.964,278.707 516.5,269C 539.742,253.89 562.742,238.556 585.5,223C 590.167,222.333 594.833,222.333 599.5,223C 600.333,223.833 601.167,224.667 602,225.5C 601.521,229.108 600.854,232.775 600,236.5C 591.969,248.38 583.636,260.046 575,271.5C 567.574,288.355 559.574,305.022 551,321.5C 548.267,327.915 546.767,334.415 546.5,341C 548.155,343.247 548.488,345.58 547.5,348C 548.827,353.171 550.327,358.338 552,363.5C 564.144,390.049 575.81,416.382 587,442.5C 587.414,449.743 584.248,451.909 577.5,449C 545.802,431.153 515.802,410.819 487.5,388C 481.281,382.283 475.614,376.117 470.5,369.5C 442.702,383.488 413.035,393.321 381.5,399C 374.082,399.779 366.748,400.946 359.5,402.5C 356.622,401.953 353.789,401.62 351,401.5C 345.532,402.188 340.032,402.855 334.5,403.5C 329.189,403.114 323.689,402.781 318,402.5C 304.583,404.457 291.083,405.124 277.5,404.5C 279.536,409.295 281.869,413.962 284.5,418.5C 283.855,419.732 283.689,421.065 284,422.5C 272.349,426.163 261.183,430.997 250.5,437C 245.848,439.978 241.181,442.978 236.5,446C 234.393,447.264 233.393,449.097 233.5,451.5C 230.15,451.665 226.817,451.498 223.5,451C 216.421,446.757 209.754,441.923 203.5,436.5C 191.831,423.165 181.497,408.831 172.5,393.5C 162.721,392.378 153.055,390.544 143.5,388C 120.749,380.287 98.7488,370.954 77.5,360C 65.0164,350.279 52.0164,341.279 38.5,333C 32.5601,326.971 26.7268,320.804 21,314.5C 19.9319,311.129 18.7653,307.796 17.5,304.5C 18.0953,301.025 19.4287,298.025 21.5,295.5C 22.5,295.5 23.5,295.5 24.5,295.5C 24.6079,293.217 25.4412,291.217 27,289.5C 36.4829,279.419 46.3162,269.586 56.5,260C 63.4824,255.837 70.1491,251.171 76.5,246C 101.716,230.29 129.382,219.456 159.5,213.5C 162.183,208.795 164.85,204.129 167.5,199.5C 182.853,188.072 198.519,176.906 214.5,166C 217.864,164.318 221.198,162.651 224.5,161C 232.079,158.027 239.746,155.527 247.5,153.5 Z M 170.5,211.5 C 177.012,204.89 184.012,198.723 191.5,193C 200.683,186.596 210.35,180.929 220.5,176C 221.167,175 221.833,174 222.5,173C 225.861,171.988 229.028,170.488 232,168.5C 234.048,169.423 235.881,168.923 237.5,167C 242.927,165.784 248.26,164.284 253.5,162.5C 266.833,166.019 280.167,168.185 293.5,169C 280.444,176.278 269.277,185.778 260,197.5C 257.429,199.976 255.929,202.976 255.5,206.5C 243.33,207.724 231.33,207.724 219.5,206.5C 203.213,208.663 186.879,210.329 170.5,211.5 Z M 309.5,171.5 C 323.336,175.306 337.003,179.639 350.5,184.5C 340.487,191.176 330.82,198.343 321.5,206C 318.941,208.4 316.941,211.233 315.5,214.5C 299.606,210.641 283.772,207.974 268,206.5C 272.161,198.612 277.994,191.945 285.5,186.5C 286.386,185.675 286.719,184.675 286.5,183.5C 294.644,180.522 302.31,176.522 309.5,171.5 Z M 363.5,189.5 C 378.952,196.059 394.285,202.893 409.5,210C 395.043,213.121 383.876,220.955 376,233.5C 368.386,229.612 360.553,226.112 352.5,223C 343.968,221.426 335.634,219.093 327.5,216C 328.337,214.989 328.67,213.822 328.5,212.5C 331.815,212.028 334.149,210.195 335.5,207C 339.803,203.706 344.136,200.372 348.5,197C 353.633,194.433 358.633,191.933 363.5,189.5 Z M 239.5,214.5 C 252.555,214.995 265.555,215.995 278.5,217.5C 305.927,220.114 332.594,226.28 358.5,236C 375.09,243.196 391.757,250.196 408.5,257C 420.819,263.825 432.819,271.159 444.5,279C 454.704,288.373 464.704,297.873 474.5,307.5C 478.967,311.253 483.634,311.42 488.5,308C 515.431,282.383 545.431,261.383 578.5,245C 571.484,254.031 565.484,263.697 560.5,274C 553.251,291.333 545.585,308.499 537.5,325.5C 534.995,334.064 534.995,342.397 537.5,350.5C 537.069,351.293 536.735,352.127 536.5,353C 538.044,357.047 539.21,361.213 540,365.5C 549.115,385.732 558.782,405.732 569,425.5C 569.614,427.879 569.947,430.212 570,432.5C 552.893,423.033 536.727,412.199 521.5,400C 508.049,391.846 495.549,382.346 484,371.5C 480.833,367.333 477.667,363.167 474.5,359C 473.127,358.125 471.627,357.625 470,357.5C 451.505,367.995 432.005,376.162 411.5,382C 381.706,390.536 351.706,394.369 321.5,393.5C 305.111,394.941 288.944,395.941 273,396.5C 244.433,394.738 215.933,391.904 187.5,388C 180.571,386.174 173.571,384.674 166.5,383.5C 165.707,383.931 164.873,384.265 164,384.5C 149.393,381.379 135.226,376.879 121.5,371C 130.302,365.6 139.635,361.267 149.5,358C 153.833,357.333 158.167,357.333 162.5,358C 169.178,360.331 175.845,362.331 182.5,364C 184.576,362.116 184.91,359.949 183.5,357.5C 176.258,354.13 168.758,351.463 161,349.5C 154.174,349.566 147.341,350.733 140.5,353C 135.202,355.66 129.869,358.327 124.5,361C 121,363.167 118.167,366 116,369.5C 103.205,363.851 90.7051,357.684 78.5,351C 76.446,348.456 74.1127,346.123 71.5,344C 53.2996,334.636 37.9662,321.803 25.5,305.5C 39.4608,290.54 54.1275,276.207 69.5,262.5C 85.4747,250.99 102.808,241.824 121.5,235C 122.5,234 123.5,233 124.5,232C 142.963,225.708 161.796,221.874 181,220.5C 200.586,218.046 220.086,216.046 239.5,214.5 Z M 416.5,216.5 C 421.997,216.243 426.997,217.743 431.5,221C 435.759,223.84 440.092,226.507 444.5,229C 446.656,230.99 448.656,233.157 450.5,235.5C 443.296,242.895 436.796,250.895 431,259.5C 428.92,257.877 426.754,256.377 424.5,255C 411.671,249.297 399.004,243.297 386.5,237C 393.489,226.694 403.156,220.361 415.5,218C 416.056,217.617 416.389,217.117 416.5,216.5 Z M 183.5,396.5 C 185.532,396.478 187.698,396.145 190,395.5C 190.5,396 191,396.5 191.5,397C 198.833,398 206.167,399 213.5,400C 212.724,401.77 212.89,403.603 214,405.5C 219.181,417.51 227.348,426.844 238.5,433.5C 234.835,436.11 231.002,438.444 227,440.5C 218.82,436.158 211.653,430.491 205.5,423.5C 197.707,414.724 190.374,405.724 183.5,396.5 Z M 222.5,401.5 C 226.956,402.055 231.29,402.388 235.5,402.5C 240.671,411.171 247.671,418.004 256.5,423C 253.389,424.451 250.556,426.285 248,428.5C 245.132,425.138 241.632,422.471 237.5,420.5C 234.62,417.153 231.453,414.153 228,411.5C 226.25,408.044 224.416,404.711 222.5,401.5 Z M 251.5,402.5 C 255.75,403.272 260.083,403.772 264.5,404C 265.843,408.01 268.009,411.51 271,414.5C 271.749,415.635 271.583,416.635 270.5,417.5C 261.941,415.278 254.941,410.778 249.5,404C 250.416,403.722 251.082,403.222 251.5,402.5 Z"/></g>
<g><path style="opacity:0.669" fill="#000000" d="M 253.5,240.5 C 258.204,246.135 260.871,252.635 261.5,260C 260.678,265.206 259.345,270.206 257.5,275C 258.938,277.366 258.438,277.866 256,276.5C 254.312,277.325 254.145,278.325 255.5,279.5C 254.726,280.711 253.893,280.711 253,279.5C 252.167,280.333 251.333,281.167 250.5,282C 251.711,283.113 251.711,284.28 250.5,285.5C 250.855,286.522 251.522,287.189 252.5,287.5C 254.076,288.143 255.41,289.143 256.5,290.5C 258.404,290.738 259.738,291.738 260.5,293.5C 259.167,293.833 259.167,294.167 260.5,294.5C 261.058,295.79 262.058,296.623 263.5,297C 262.978,297.561 262.645,298.228 262.5,299C 264.544,301.057 265.71,303.557 266,306.5C 266.499,311.155 266.666,315.821 266.5,320.5C 265.534,323.399 264.201,326.232 262.5,329C 262.957,329.414 263.291,329.914 263.5,330.5C 262.086,331.624 260.586,332.624 259,333.5C 258.316,334.784 258.483,335.951 259.5,337C 258.497,338.546 257.497,338.713 256.5,337.5C 255.833,338.5 255.167,339.5 254.5,340.5C 256.474,341.906 258.474,343.406 260.5,345C 260.167,345.333 259.833,345.667 259.5,346C 260.9,347.856 262.233,349.689 263.5,351.5C 266.311,359.128 265.978,366.628 262.5,374C 262.957,374.414 263.291,374.914 263.5,375.5C 261.649,377.184 259.982,379.017 258.5,381C 259.167,381.333 259.833,381.667 260.5,382C 257.576,383.298 255.242,385.298 253.5,388C 253.645,388.772 253.978,389.439 254.5,390C 252.981,389.669 251.648,389.836 250.5,390.5C 249.833,390.5 249.5,390.833 249.5,391.5C 245.219,392.427 241.053,392.76 237,392.5C 236.751,391.376 236.251,390.376 235.5,389.5C 234.893,389.624 234.56,389.957 234.5,390.5C 233.986,389.375 233.653,388.209 233.5,387C 235.491,386.626 237.158,385.793 238.5,384.5C 242.8,382.531 246.134,379.531 248.5,375.5C 251.95,371.758 253.95,367.258 254.5,362C 254.245,360.674 253.578,359.674 252.5,359C 253.925,357.286 253.592,355.953 251.5,355C 251.833,354.667 252.167,354.333 252.5,354C 250.382,353.74 248.716,352.74 247.5,351C 248.458,349.853 248.125,348.853 246.5,348C 244.975,346.991 243.308,346.491 241.5,346.5C 240.469,345.751 239.302,345.085 238,344.5C 237.764,342.236 237.264,340.069 236.5,338C 237.044,337.283 237.711,336.783 238.5,336.5C 239.848,335.814 241.015,334.814 242,333.5C 242.333,334.167 242.667,334.833 243,335.5C 243.9,334.23 245.066,333.23 246.5,332.5C 246.291,331.914 245.957,331.414 245.5,331C 246.833,330.667 248.167,330.333 249.5,330C 248.137,327.871 248.471,327.371 250.5,328.5C 251.934,327.412 252.934,326.078 253.5,324.5C 254.588,321.943 255.588,319.276 256.5,316.5C 257.833,315.833 257.833,315.167 256.5,314.5C 257.17,307.512 254.836,302.679 249.5,300C 249.5,299 249.5,298 249.5,297C 247.246,295.623 245.08,294.123 243,292.5C 242.667,292.833 242.333,293.167 242,293.5C 241.517,292.552 241.351,291.552 241.5,290.5C 238.962,289.957 236.628,288.957 234.5,287.5C 234.5,285.833 234.5,284.167 234.5,282.5C 236.23,281.974 237.564,280.974 238.5,279.5C 239.71,279.068 240.71,278.401 241.5,277.5C 244.167,276.833 245.833,275.167 246.5,272.5C 247.239,272.631 247.906,272.464 248.5,272C 247.226,271.023 247.226,270.189 248.5,269.5C 248.393,267.621 248.893,267.288 250,268.5C 252.079,265.517 252.913,262.183 252.5,258.5C 251.913,255.819 251.08,252.819 250,249.5C 248.421,250.172 247.254,249.505 246.5,247.5C 249.167,247.167 249.167,246.833 246.5,246.5C 246.672,245.508 246.338,244.842 245.5,244.5C 243.618,243.763 242.952,242.596 243.5,241C 241.618,240.802 239.952,240.302 238.5,239.5C 239.833,239.167 239.833,238.833 238.5,238.5C 237.962,236.883 237.629,235.216 237.5,233.5C 240.277,233.214 243.111,232.88 246,232.5C 246.556,236.095 248.389,237.595 251.5,237C 251.5,238 251.5,239 251.5,240C 252.094,240.464 252.761,240.631 253.5,240.5 Z"/></g>
<g><path style="opacity:0.658" fill="#000000" d="M 304.5,240.5 C 305.833,240.5 307.167,240.5 308.5,240.5C 311.33,241.51 313.83,243.177 316,245.5C 316.414,245.043 316.914,244.709 317.5,244.5C 318.176,245.602 318.842,246.602 319.5,247.5C 319.5,248.167 319.833,248.5 320.5,248.5C 321.047,250.485 322.047,252.151 323.5,253.5C 325.772,253.911 326.105,255.078 324.5,257C 324.818,260.107 325.818,262.941 327.5,265.5C 325.815,268.758 324.815,272.258 324.5,276C 325.938,278.366 325.438,278.866 323,277.5C 322.202,280.239 320.535,282.239 318,283.5C 317.383,284.449 317.549,285.282 318.5,286C 317.497,287.546 316.497,287.713 315.5,286.5C 314.624,286.369 313.957,286.702 313.5,287.5C 315.113,288.427 316.779,289.261 318.5,290C 317.2,291.579 317.534,292.745 319.5,293.5C 319.5,294.167 319.833,294.5 320.5,294.5C 320.856,296.19 321.856,297.19 323.5,297.5C 323.5,297.833 323.5,298.167 323.5,298.5C 325.765,298.441 326.098,299.274 324.5,301C 327.407,307.479 329.073,314.312 329.5,321.5C 327.251,323.245 325.584,325.412 324.5,328C 326.686,328.604 326.852,329.77 325,331.5C 324.023,332.774 323.189,332.774 322.5,331.5C 321.026,332.436 320.026,333.77 319.5,335.5C 318.957,335.56 318.624,335.893 318.5,336.5C 319.665,337.584 320.998,338.417 322.5,339C 322.167,339.333 321.833,339.667 321.5,340C 323.167,341 324.833,342 326.5,343C 325.117,344.461 325.451,345.294 327.5,345.5C 327.844,349.894 328.51,354.228 329.5,358.5C 328.966,363.6 327.299,368.433 324.5,373C 324.735,373.873 325.069,374.707 325.5,375.5C 324.726,376.711 323.893,376.711 323,375.5C 321.97,377.126 320.804,378.793 319.5,380.5C 318.711,380.783 318.044,381.283 317.5,382C 318.667,384.833 317.833,385.667 315,384.5C 313.706,385.854 313.54,387.188 314.5,388.5C 313.726,389.711 312.893,389.711 312,388.5C 311.632,389.91 310.799,390.91 309.5,391.5C 306.024,390.923 302.691,389.923 299.5,388.5C 300.246,387.264 300.579,385.93 300.5,384.5C 301.653,383.687 301.653,382.687 300.5,381.5C 303.417,380.155 306.084,378.321 308.5,376C 307.167,375 307.167,374 308.5,373C 309.437,372.308 310.103,372.475 310.5,373.5C 311.737,372.035 312.737,370.368 313.5,368.5C 314.167,368.5 314.5,368.167 314.5,367.5C 315.833,367.167 315.833,366.833 314.5,366.5C 315.082,365.069 315.915,363.736 317,362.5C 317.167,361 317.333,359.5 317.5,358C 316.559,354.19 315.559,350.356 314.5,346.5C 313.687,345.347 312.687,345.347 311.5,346.5C 310.733,343.575 308.4,342.241 304.5,342.5C 304.912,340.027 303.912,338.694 301.5,338.5C 301.586,337.504 301.252,336.671 300.5,336C 301.5,335.667 302.5,335.333 303.5,335C 303.5,334 303.5,333 303.5,332C 304.766,331.691 305.933,331.191 307,330.5C 307.333,330.833 307.667,331.167 308,331.5C 308.492,330.451 308.326,329.451 307.5,328.5C 308.391,327.41 309.391,327.41 310.5,328.5C 311.251,327.624 311.751,326.624 312,325.5C 312.333,325.833 312.667,326.167 313,326.5C 313.5,325.333 314.333,324.5 315.5,324C 315.36,322.403 315.36,320.903 315.5,319.5C 315.846,318.304 316.346,318.304 317,319.5C 317.199,317.598 318.033,316.098 319.5,315C 318.238,312.821 316.905,310.655 315.5,308.5C 316.03,306.756 316.03,305.256 315.5,304C 312.644,302.251 310.644,300.417 309.5,298.5C 309.5,297.833 309.167,297.5 308.5,297.5C 308.19,295.856 307.19,294.856 305.5,294.5C 305.167,293.167 304.833,293.167 304.5,294.5C 303.234,293.91 301.901,293.41 300.5,293C 301.536,291.224 301.536,289.391 300.5,287.5C 301.774,286.811 301.774,285.977 300.5,285C 301.981,284.02 303.315,282.853 304.5,281.5C 306.123,282.476 307.457,281.976 308.5,280C 307.346,279.086 307.513,278.253 309,277.5C 310.579,278.172 311.746,277.505 312.5,275.5C 315.901,273.168 317.235,269.835 316.5,265.5C 316.333,263.5 316.167,261.5 316,259.5C 314.538,257.563 313.372,255.563 312.5,253.5C 312.171,250.968 311.005,249.968 309,250.5C 307.845,249.662 306.678,248.662 305.5,247.5C 305.5,246.833 305.167,246.5 304.5,246.5C 303.962,244.883 303.629,243.216 303.5,241.5C 304.167,241.5 304.5,241.167 304.5,240.5 Z"/></g>
<g><path style="opacity:0.677" fill="#000000" d="M 145.5,243.5 C 147.655,243.372 149.655,243.872 151.5,245C 161.851,254.063 173.851,259.563 187.5,261.5C 190.58,266.116 189.247,268.45 183.5,268.5C 169.298,266.649 157.132,260.649 147,250.5C 144.697,248.453 144.197,246.119 145.5,243.5 Z"/></g>
<g><path style="opacity:0.004" fill="#000000" d="M 319.5,247.5 C 319.56,246.957 319.893,246.624 320.5,246.5C 321.773,247.257 321.773,247.923 320.5,248.5C 319.833,248.5 319.5,248.167 319.5,247.5 Z"/></g>
<g><path style="opacity:0.668" fill="#000000" d="M 378.5,263.5 C 378.5,264.167 378.833,264.5 379.5,264.5C 380.209,267.59 381.876,268.923 384.5,268.5C 384.167,269.167 383.833,269.833 383.5,270.5C 385.256,273.787 386.589,277.121 387.5,280.5C 387.5,286.167 387.5,291.833 387.5,297.5C 386.209,298.542 386.209,299.708 387.5,301C 386.552,301.483 385.552,301.649 384.5,301.5C 383.752,303.584 383.752,305.584 384.5,307.5C 384.145,308.522 383.478,309.189 382.5,309.5C 383.861,311.857 385.861,313.524 388.5,314.5C 388.291,315.086 387.957,315.586 387.5,316C 389.11,318.914 390.777,321.081 392.5,322.5C 391.541,326.409 392.208,330.075 394.5,333.5C 393.975,334.192 393.308,334.692 392.5,335C 394.344,337.804 395.011,340.97 394.5,344.5C 392.656,346.279 391.99,348.612 392.5,351.5C 391.388,353.599 390.721,355.933 390.5,358.5C 389.5,358.833 388.833,359.5 388.5,360.5C 387.167,360.833 387.167,361.167 388.5,361.5C 387.36,362.801 386.027,363.968 384.5,365C 384.833,365.333 385.167,365.667 385.5,366C 380.833,368 376.167,368 371.5,366C 371.049,364.011 371.715,362.177 373.5,360.5C 374.774,359.811 374.774,358.977 373.5,358C 377.302,356.912 379.635,354.412 380.5,350.5C 381.117,350.389 381.617,350.056 382,349.5C 382.212,346.242 382.712,343.076 383.5,340C 382.833,339.667 382.167,339.333 381.5,339C 382.428,338.612 383.095,337.945 383.5,337C 382.87,332.79 382.036,328.623 381,324.5C 380.282,325.451 379.449,325.617 378.5,325C 378.5,323.333 378.5,321.667 378.5,320C 376.911,317.905 374.911,316.405 372.5,315.5C 372.068,314.29 371.401,313.29 370.5,312.5C 369.909,311.849 369.243,311.182 368.5,310.5C 370.562,308.908 370.895,307.075 369.5,305C 371.5,303.667 373.5,302.333 375.5,301C 374.833,300.667 374.167,300.333 373.5,300C 375.959,299.276 376.959,297.943 376.5,296C 377,295.5 377.5,295 378,294.5C 378.877,288.685 378.377,283.018 376.5,277.5C 374.451,277.294 374.117,276.461 375.5,275C 374.915,273.698 374.249,272.531 373.5,271.5C 371.93,272.559 370.597,272.059 369.5,270C 369.047,262.947 372.047,260.78 378.5,263.5 Z"/></g>
<g><path style="opacity:0.659" fill="#000000" d="M 153.5,270.5 C 155.604,270.201 157.604,270.534 159.5,271.5C 160.524,277.573 163.524,282.239 168.5,285.5C 170.413,284.627 172.247,283.627 174,282.5C 174.333,282.833 174.667,283.167 175,283.5C 176.789,281.771 178.956,281.104 181.5,281.5C 182.119,290.553 177.786,295.22 168.5,295.5C 166.423,295.308 164.423,294.808 162.5,294C 159.612,290.778 157.112,287.278 155,283.5C 153.805,279.249 153.305,274.915 153.5,270.5 Z"/></g>
<g><path style="opacity:0.005" fill="#000000" d="M 319.5,293.5 C 320.497,292.287 321.497,292.454 322.5,294C 321.906,294.464 321.239,294.631 320.5,294.5C 319.833,294.5 319.5,294.167 319.5,293.5 Z"/></g>
<g><path style="opacity:0.661" fill="#000000" d="M 427.5,298.5 C 429.5,298.5 431.5,298.5 433.5,298.5C 435.613,300.234 437.946,300.734 440.5,300C 440.043,300.414 439.709,300.914 439.5,301.5C 440.665,302.584 441.998,303.417 443.5,304C 443.835,305.164 443.835,306.497 443.5,308C 444.75,309.975 446.083,311.141 447.5,311.5C 446.752,316.263 447.418,320.93 449.5,325.5C 447.539,329.612 447.206,333.779 448.5,338C 445.447,339.581 444.78,341.914 446.5,345C 445.551,345.617 444.718,345.451 444,344.5C 443.383,345.449 443.549,346.282 444.5,347C 443.244,347.417 442.577,348.25 442.5,349.5C 439.525,351.064 435.691,352.064 431,352.5C 429.39,352.87 427.89,352.203 426.5,350.5C 427.347,349.155 428.513,348.155 430,347.5C 430.72,345.888 430.554,344.388 429.5,343C 435.25,338.88 437.917,333.214 437.5,326C 437.11,322.165 436.777,318.332 436.5,314.5C 434.058,314.881 433.391,314.214 434.5,312.5C 433.917,310.998 433.084,309.665 432,308.5C 431.107,309.711 430.274,309.711 429.5,308.5C 429.709,307.914 430.043,307.414 430.5,307C 426.797,305.098 425.797,302.265 427.5,298.5 Z"/></g>
<g><path style="opacity:0.004" fill="#000000" d="M 314.5,366.5 C 314.5,366.833 314.5,367.167 314.5,367.5C 313.833,367.5 313.5,367.833 313.5,368.5C 312.243,367.377 312.576,366.711 314.5,366.5 Z"/></g>
</svg>
