<?xml version="1.0" encoding="UTF-8"?>
<!DOCTYPE svg PUBLIC "-//W3C//DTD SVG 1.1//EN" "http://www.w3.org/Graphics/SVG/1.1/DTD/svg11.dtd">
<svg xmlns="http://www.w3.org/2000/svg" version="1.1" width="611px" height="611px" style="shape-rendering:geometricPrecision; text-rendering:geometricPrecision; image-rendering:optimizeQuality; fill-rule:evenodd; clip-rule:evenodd" xmlns:xlink="http://www.w3.org/1999/xlink">
<g><path style="opacity:0.742" fill="#000000" d="M 244.5,138.5 C 254.858,140.686 265.191,142.353 275.5,143.5C 276.167,143.167 276.833,142.833 277.5,142.5C 282.027,142.866 286.36,143.866 290.5,145.5C 295.131,144.798 299.631,145.465 304,147.5C 304.725,146.941 305.558,146.608 306.5,146.5C 331.615,152.262 355.948,160.095 379.5,170C 399.466,180.209 419.466,190.209 439.5,200C 446.185,204.009 452.518,208.509 458.5,213.5C 459.326,215.959 459.993,218.459 460.5,221C 458.786,221.128 457.119,221.962 455.5,223.5C 449.789,232.722 443.455,241.555 436.5,250C 440.551,252.018 444.217,254.518 447.5,257.5C 448.736,258.246 450.07,258.579 451.5,258.5C 459.653,268.437 469.32,276.77 480.5,283.5C 491.325,273.51 502.325,263.677 513.5,254C 535.03,239.588 556.363,224.922 577.5,210C 583.612,207.586 589.946,206.919 596.5,208C 597.333,208.833 598.167,209.667 599,210.5C 598.677,213.809 598.011,217.143 597,220.5C 574.175,250.929 556.342,284.262 543.5,320.5C 544.421,329.806 546.254,339.139 549,348.5C 561.066,374.713 572.732,401.046 584,427.5C 585.31,431.7 583.81,434.367 579.5,435.5C 569.283,430.927 559.283,425.76 549.5,420C 534.944,408.957 519.944,398.457 504.5,388.5C 498.249,382.744 491.583,377.577 484.5,373C 477.954,367.122 472.121,360.622 467,353.5C 456.896,360.305 446.396,365.472 435.5,369C 401.45,380.701 366.783,387.201 331.5,388.5C 326.189,388.114 320.689,387.781 315,387.5C 301.579,389.401 288.079,390.068 274.5,389.5C 276.685,393.856 279.018,398.189 281.5,402.5C 281.985,404.777 281.319,406.944 279.5,409C 261.226,414.312 244.559,422.645 229.5,434C 229.957,434.414 230.291,434.914 230.5,435.5C 227.216,436.657 223.882,436.824 220.5,436C 211.323,430.718 203.156,424.218 196,416.5C 188.486,405.57 180.486,394.903 172,384.5C 171.167,382.5 170.333,380.5 169.5,378.5C 159.721,377.378 150.055,375.544 140.5,373C 125.402,367.48 110.402,361.814 95.5,356C 75.2266,343.858 55.2266,331.191 35.5,318C 29.5601,311.971 23.7268,305.804 18,299.5C 16.7305,295.859 15.5639,292.192 14.5,288.5C 15.0953,285.025 16.4287,282.025 18.5,279.5C 19.5,279.5 20.5,279.5 21.5,279.5C 21.3505,278.448 21.5172,277.448 22,276.5C 32.473,266.027 42.973,255.527 53.5,245C 61.7535,240.073 69.4202,234.406 76.5,228C 101.299,214.215 127.633,204.548 155.5,199C 158.877,194.416 161.877,189.582 164.5,184.5C 167.86,182.659 170.86,180.159 173.5,177C 177.384,175.126 180.717,172.459 183.5,169C 196.067,161.147 208.734,153.48 221.5,146C 229.09,143.024 236.757,140.524 244.5,138.5 Z M 167.5,196.5 C 169.303,194.519 170.97,192.352 172.5,190C 182.114,183.388 191.447,176.388 200.5,169C 206.965,165.6 213.298,161.933 219.5,158C 229.427,153.442 239.76,149.942 250.5,147.5C 263.525,150.858 276.525,153.024 289.5,154C 280.64,159.28 272.474,165.447 265,172.5C 261.753,177.423 258.087,182.09 254,186.5C 252.991,188.025 252.491,189.692 252.5,191.5C 240.322,192.589 228.322,192.589 216.5,191.5C 200.213,193.663 183.879,195.329 167.5,196.5 Z M 306.5,156.5 C 320.751,159.192 334.417,163.358 347.5,169C 337.654,176.091 327.987,183.424 318.5,191C 315.941,193.4 313.941,196.233 312.5,199.5C 296.586,195.765 280.752,193.098 265,191.5C 269.376,183.494 275.21,176.494 282.5,170.5C 283.386,169.675 283.719,168.675 283.5,167.5C 291.595,164.618 299.262,160.952 306.5,156.5 Z M 360.5,173.5 C 375.445,180.638 390.445,187.805 405.5,195C 391.957,198.536 381.124,206.036 373,217.5C 357.321,210.607 341.155,205.107 324.5,201C 325.337,199.989 325.67,198.822 325.5,197.5C 328.815,197.028 331.149,195.195 332.5,192C 340.421,185.427 348.921,179.594 358,174.5C 359.159,175.566 359.992,175.233 360.5,173.5 Z M 236.5,199.5 C 284.623,200.408 330.957,209.908 375.5,228C 385.732,233.964 396.399,238.964 407.5,243C 421.5,250.665 434.834,259.332 447.5,269C 453.789,275.468 460.456,281.468 467.5,287C 469.422,288.42 470.755,290.253 471.5,292.5C 475.544,296.105 479.877,296.438 484.5,293.5C 508.982,269.256 536.648,249.423 567.5,234C 569.648,231.271 572.314,229.605 575.5,229C 567.413,241.012 560.246,253.512 554,266.5C 547.232,281.038 540.732,295.704 534.5,310.5C 531.937,318.746 531.937,326.746 534.5,334.5C 534.069,335.293 533.735,336.127 533.5,337C 535.171,341.353 536.338,345.853 537,350.5C 545.226,369.155 554.226,387.488 564,405.5C 565.901,409.357 566.901,413.357 567,417.5C 562.074,414.286 556.907,411.452 551.5,409C 535.783,396.757 519.45,385.591 502.5,375.5C 495.28,369.294 488.113,362.961 481,356.5C 477.444,352.277 474.278,347.777 471.5,343C 469.863,342.399 468.197,341.899 466.5,341.5C 458.967,346.194 451.3,350.694 443.5,355C 413.077,366.461 381.577,374.294 349,378.5C 338.797,379.703 328.63,379.703 318.5,378.5C 302.111,379.941 285.944,380.941 270,381.5C 246.166,379.794 222.333,377.628 198.5,375C 181.823,371.598 165.156,368.931 148.5,367C 143.523,365.064 138.523,363.23 133.5,361.5C 136.887,351.967 141.72,343.3 148,335.5C 153.123,326.249 157.456,316.583 161,306.5C 162.043,303.243 162.543,299.91 162.5,296.5C 157.504,296.258 152.671,296.925 148,298.5C 147.586,298.043 147.086,297.709 146.5,297.5C 134.047,300.49 121.547,303.157 109,305.5C 88.1485,306.743 67.4819,309.076 47,312.5C 45.5,312.167 44,311.833 42.5,311.5C 34.6196,305.453 27.9529,298.287 22.5,290C 23.6512,288.177 24.8179,286.344 26,284.5C 40.015,271.563 54.1817,258.73 68.5,246C 77.2128,240.316 85.8795,234.65 94.5,229C 111.133,220.688 128.466,214.355 146.5,210C 176.22,204.675 206.22,201.175 236.5,199.5 Z M 413.5,201.5 C 418.997,201.243 423.997,202.743 428.5,206C 435.02,210.372 441.353,214.872 447.5,219.5C 440.05,227.055 433.55,235.388 428,244.5C 413.627,235.794 398.794,227.96 383.5,221C 390.841,211.339 400.508,205.339 412.5,203C 413.056,202.617 413.389,202.117 413.5,201.5 Z M 146.5,304.5 C 147.873,304.343 149.207,304.51 150.5,305C 145.252,309.536 139.752,313.703 134,317.5C 130.584,315.538 127.417,313.205 124.5,310.5C 124.709,309.914 125.043,309.414 125.5,309C 132.666,307.62 139.666,306.12 146.5,304.5 Z M 103.5,311.5 C 105.199,311.34 106.866,311.506 108.5,312C 105.62,316.258 103.12,320.758 101,325.5C 95.6172,322.217 90.4505,318.551 85.5,314.5C 91.6611,313.626 97.6611,312.626 103.5,311.5 Z M 105.5,334.5 C 108.693,327.948 112.026,321.448 115.5,315C 119.653,317.102 123.653,319.769 127.5,323C 123.832,326.661 121.165,330.994 119.5,336C 114.831,335.838 110.165,335.338 105.5,334.5 Z M 71.5,315.5 C 72.4972,315.47 73.1639,315.97 73.5,317C 72.0768,321.192 70.5768,325.358 69,329.5C 63.5059,326.009 58.0059,322.509 52.5,319C 58.8595,317.701 65.1929,316.535 71.5,315.5 Z M 147.5,316.5 C 148.376,316.369 149.043,316.702 149.5,317.5C 148.194,321.446 146.361,325.112 144,328.5C 141.929,327.475 139.762,326.642 137.5,326C 140.729,322.601 144.062,319.435 147.5,316.5 Z M 105.5,334.5 C 102.877,338.354 101.21,342.688 100.5,347.5C 91.7179,343.275 83.0513,338.775 74.5,334C 76.7939,329.785 78.2939,325.285 79,320.5C 79.414,320.043 79.914,319.709 80.5,319.5C 86.38,325.788 93.38,330.621 101.5,334C 102.793,334.49 104.127,334.657 105.5,334.5 Z M 131.5,334.5 C 133.896,335.3 136.229,336.3 138.5,337.5C 134.393,344.115 130.06,350.615 125.5,357C 123.833,357.667 122.167,357.667 120.5,357C 116.179,355.229 111.846,353.395 107.5,351.5C 108.23,348.891 108.73,346.224 109,343.5C 113.639,345.757 118.472,347.257 123.5,348C 126.304,343.555 128.971,339.055 131.5,334.5 Z M 180.5,381.5 C 182.532,381.478 184.698,381.145 187,380.5C 187.5,381 188,381.5 188.5,382C 195.833,383 203.167,384 210.5,385C 209.724,386.77 209.89,388.603 211,390.5C 215.343,397.858 220.176,404.858 225.5,411.5C 228.844,413.834 232.178,416.167 235.5,418.5C 231.545,420.619 227.712,422.952 224,425.5C 215.82,421.158 208.653,415.491 202.5,408.5C 195.387,399.246 188.054,390.246 180.5,381.5 Z M 219.5,386.5 C 223.843,386.993 228.009,387.326 232,387.5C 237.598,395.069 244.432,401.403 252.5,406.5C 253.521,407.002 253.688,407.668 253,408.5C 250.059,409.783 247.393,411.45 245,413.5C 237.778,408.205 231.111,402.205 225,395.5C 223.148,392.454 221.315,389.454 219.5,386.5 Z M 248.5,387.5 C 252.75,388.272 257.083,388.772 261.5,389C 263.276,392.441 265.443,395.608 268,398.5C 268.749,399.635 268.583,400.635 267.5,401.5C 259.432,399.092 252.432,394.926 246.5,389C 247.416,388.722 248.082,388.222 248.5,387.5 Z"/></g>
<g><path style="opacity:0.461" fill="#000000" d="M 155.5,240.5 C 154.508,240.328 153.842,240.662 153.5,241.5C 151.151,242.957 148.818,244.291 146.5,245.5C 146.62,248.205 145.62,248.872 143.5,247.5C 142.833,248.5 142.167,249.5 141.5,250.5C 140.402,249.385 139.235,249.385 138,250.5C 135.524,252.655 132.691,254.155 129.5,255C 128.874,255.75 128.374,256.584 128,257.5C 126.75,256.427 125.416,256.427 124,257.5C 121.109,259.172 118.609,261.172 116.5,263.5C 116.631,262.761 116.464,262.094 116,261.5C 114.956,262.623 114.29,263.956 114,265.5C 111.347,265.318 108.68,264.985 106,264.5C 105.333,263.5 105.333,262.5 106,261.5C 106.333,261.833 106.667,262.167 107,262.5C 107.333,261.5 107.667,260.5 108,259.5C 108.667,258.167 109.333,258.167 110,259.5C 111.095,258.307 111.928,256.973 112.5,255.5C 113.833,255.5 115.167,255.5 116.5,255.5C 116.413,252.402 116.913,252.068 118,254.5C 119.518,253.837 120.685,252.837 121.5,251.5C 124.607,249.758 127.941,248.425 131.5,247.5C 131.285,245.821 131.952,244.821 133.5,244.5C 134.649,241.959 134.649,239.459 133.5,237C 137.071,236.141 140.071,236.974 142.5,239.5C 145.805,237.882 149.139,236.216 152.5,234.5C 153.442,234.608 154.275,234.941 155,235.5C 155.494,237.134 155.66,238.801 155.5,240.5 Z"/></g>
<g><path style="opacity:0.699" fill="#000000" d="M 144.5,276.5 C 143.833,276.5 143.5,276.833 143.5,277.5C 141.436,277.687 139.436,278.187 137.5,279C 137.833,279.333 138.167,279.667 138.5,280C 135.558,280.144 133.224,281.311 131.5,283.5C 129.901,283.232 128.568,283.566 127.5,284.5C 122.849,285.186 120.183,283.186 119.5,278.5C 120.145,277.268 120.311,275.935 120,274.5C 121.016,273.366 121.683,273.699 122,275.5C 123.758,274.531 124.258,273.364 123.5,272C 124.901,271.59 126.234,271.09 127.5,270.5C 127.833,271.833 128.167,271.833 128.5,270.5C 129.167,270.5 129.5,270.167 129.5,269.5C 130.79,268.942 131.623,267.942 132,266.5C 132.333,267.167 132.667,267.833 133,268.5C 134.667,267.167 136.333,265.833 138,264.5C 138.333,264.833 138.667,265.167 139,265.5C 139.71,264.027 140.876,263.36 142.5,263.5C 142.413,260.402 142.913,260.068 144,262.5C 146.398,262.042 148.064,260.708 149,258.5C 151.667,259.833 154.333,259.833 157,258.5C 157.617,259.449 157.451,260.282 156.5,261C 160.092,263.971 160.425,267.304 157.5,271C 156.551,271.617 155.718,271.451 155,270.5C 154.25,271.126 153.416,271.626 152.5,272C 153.34,273.666 152.84,273.833 151,272.5C 148.987,274.248 146.82,275.582 144.5,276.5 Z"/></g>
<g><path style="opacity:0.008" fill="#000000" d="M 90.5,260.5 C 92.2132,261.635 92.8799,263.302 92.5,265.5C 94.1992,265.34 95.8659,265.506 97.5,266C 94.9906,267.421 92.6572,269.088 90.5,271C 85.0754,272.49 83.0754,270.657 84.5,265.5C 86.9408,264.291 88.9408,262.624 90.5,260.5 Z"/></g>
<g><path style="opacity:0.005" fill="#000000" d="M 129.5,269.5 C 128.833,269.5 128.5,269.833 128.5,270.5C 128.167,270.5 127.833,270.5 127.5,270.5C 128.032,267.54 128.699,267.207 129.5,269.5 Z"/></g>
<g><path style="opacity:0.004" fill="#000000" d="M 144.5,276.5 C 146.975,276.747 146.975,277.413 144.5,278.5C 143.893,278.376 143.56,278.043 143.5,277.5C 144.167,277.5 144.5,277.167 144.5,276.5 Z"/></g>
</svg>
