<?xml version="1.0" encoding="UTF-8"?>
<!DOCTYPE svg PUBLIC "-//W3C//DTD SVG 1.1//EN" "http://www.w3.org/Graphics/SVG/1.1/DTD/svg11.dtd">
<svg xmlns="http://www.w3.org/2000/svg" version="1.1" width="611px" height="611px" style="shape-rendering:geometricPrecision; text-rendering:geometricPrecision; image-rendering:optimizeQuality; fill-rule:evenodd; clip-rule:evenodd" xmlns:xlink="http://www.w3.org/1999/xlink">
<g><path style="opacity:0.738" fill="#000000" d="M 250.5,138.5 C 260.858,140.686 271.191,142.353 281.5,143.5C 284.385,142.981 287.385,142.981 290.5,143.5C 310.743,145.926 331.076,150.426 351.5,157C 383.771,169.205 415.105,183.539 445.5,200C 452.772,204.219 459.605,209.052 466,214.5C 466.818,217.227 466.652,219.894 465.5,222.5C 464.038,221.529 462.705,221.862 461.5,223.5C 455.789,232.722 449.455,241.555 442.5,250C 446.551,252.018 450.217,254.518 453.5,257.5C 454.736,258.246 456.07,258.579 457.5,258.5C 457.281,259.675 457.614,260.675 458.5,261.5C 467.571,269.245 476.904,276.579 486.5,283.5C 497.325,273.51 508.325,263.677 519.5,254C 539.379,241.454 558.712,228.121 577.5,214C 581.295,212.269 584.962,210.269 588.5,208C 593.167,207.333 597.833,207.333 602.5,208C 603.333,208.833 604.167,209.667 605,210.5C 604.677,213.809 604.011,217.143 603,220.5C 595.273,232.925 586.939,244.925 578,256.5C 570.029,273.112 562.029,289.778 554,306.5C 551.267,312.915 549.767,319.415 549.5,326C 550.829,333.585 552.662,341.085 555,348.5C 564.45,369.897 574.283,391.063 584.5,412C 584.167,412.333 583.833,412.667 583.5,413C 587.651,418.785 589.817,425.285 590,432.5C 588.981,433.687 587.814,434.687 586.5,435.5C 575.845,431.076 565.512,425.91 555.5,420C 533.609,404.563 511.942,388.896 490.5,373C 484.281,367.283 478.614,361.117 473.5,354.5C 445.687,368.493 416.021,378.326 384.5,384C 377.082,384.779 369.748,385.946 362.5,387.5C 359.622,386.953 356.789,386.62 354,386.5C 348.532,387.188 343.032,387.855 337.5,388.5C 332.189,388.114 326.689,387.781 321,387.5C 307.583,389.457 294.083,390.124 280.5,389.5C 282.685,393.856 285.018,398.189 287.5,402.5C 287.985,404.777 287.319,406.944 285.5,409C 267.299,413.914 250.966,422.247 236.5,434C 236.957,434.414 237.291,434.914 237.5,435.5C 233.878,436.659 230.211,436.825 226.5,436C 217.323,430.718 209.156,424.218 202,416.5C 195.735,406.304 188.735,396.638 181,387.5C 178.97,384.774 177.47,381.774 176.5,378.5C 166.37,377.508 156.37,375.674 146.5,373C 131.367,367.476 116.367,361.809 101.5,356C 81.2266,343.858 61.2266,331.191 41.5,318C 35.5601,311.971 29.7268,305.804 24,299.5C 22.7305,295.859 21.5639,292.192 20.5,288.5C 21.0953,285.025 22.4287,282.025 24.5,279.5C 25.5,279.5 26.5,279.5 27.5,279.5C 27.3505,278.448 27.5172,277.448 28,276.5C 37.473,267.027 46.973,257.527 56.5,248C 65.566,241.806 74.2327,235.14 82.5,228C 107.399,214.368 133.732,204.701 161.5,199C 164.877,194.416 167.877,189.582 170.5,184.5C 171.552,184.649 172.552,184.483 173.5,184C 189.559,168.612 207.559,155.946 227.5,146C 235.079,143.027 242.746,140.527 250.5,138.5 Z M 253.5,147.5 C 261.927,148.627 270.261,150.294 278.5,152.5C 279.086,152.291 279.586,151.957 280,151.5C 285.43,152.476 290.93,153.309 296.5,154C 290.146,158.031 283.813,162.031 277.5,166C 271.367,172.507 265.534,179.34 260,186.5C 258.991,188.025 258.491,189.692 258.5,191.5C 246.33,192.724 234.33,192.724 222.5,191.5C 205.775,193.558 189.109,195.392 172.5,197C 183.218,186.952 194.551,177.618 206.5,169C 212.965,165.6 219.298,161.933 225.5,158C 234.985,154.625 244.318,151.125 253.5,147.5 Z M 312.5,156.5 C 326.555,159.337 340.221,163.337 353.5,168.5C 343.833,176 334.167,183.5 324.5,191C 321.941,193.4 319.941,196.233 318.5,199.5C 302.606,195.641 286.772,192.974 271,191.5C 275.376,183.494 281.21,176.494 288.5,170.5C 289.386,169.675 289.719,168.675 289.5,167.5C 290.873,167.657 292.207,167.49 293.5,167C 299.579,162.962 305.912,159.462 312.5,156.5 Z M 366.5,173.5 C 381.663,180.914 396.997,188.08 412.5,195C 398.433,198.121 387.266,205.621 379,217.5C 371.122,214.479 363.288,211.312 355.5,208C 346.948,206.423 338.615,204.09 330.5,201C 331.337,199.989 331.67,198.822 331.5,197.5C 332.552,197.649 333.552,197.483 334.5,197C 337.882,193.247 341.549,189.747 345.5,186.5C 352.429,181.878 359.429,177.545 366.5,173.5 Z M 242.5,199.5 C 255.555,199.995 268.555,200.995 281.5,202.5C 308.727,205.419 335.394,211.252 361.5,220C 378.341,226.947 395.008,234.28 411.5,242C 426.164,249.997 440.164,258.997 453.5,269C 458.216,274.383 463.549,279.05 469.5,283C 472.709,285.709 475.375,288.875 477.5,292.5C 481.967,296.253 486.634,296.42 491.5,293C 495.833,287.333 500.833,282.333 506.5,278C 517.244,269.996 527.911,261.996 538.5,254C 552.624,246.405 566.29,238.071 579.5,229C 580.5,228.333 581.5,228.333 582.5,229C 574.948,238.221 568.615,248.221 563.5,259C 555.719,276.066 548.053,293.233 540.5,310.5C 537.937,318.746 537.937,326.746 540.5,334.5C 540.069,335.293 539.735,336.127 539.5,337C 541.171,341.353 542.338,345.853 543,350.5C 551.506,369.846 560.839,388.846 571,407.5C 572.196,410.813 572.863,414.146 573,417.5C 568.074,414.286 562.907,411.452 557.5,409C 547.181,400.51 536.515,392.51 525.5,385C 519.215,382.857 513.548,379.691 508.5,375.5C 501.28,369.294 494.113,362.961 487,356.5C 483.444,352.277 480.278,347.777 477.5,343C 476.127,342.125 474.627,341.625 473,341.5C 463.187,347.656 453.02,353.156 442.5,358C 414.36,367.98 385.36,374.814 355.5,378.5C 345.115,379.552 334.781,379.552 324.5,378.5C 308.111,379.941 291.944,380.941 276,381.5C 247.433,379.738 218.933,376.904 190.5,373C 183.587,371.094 176.587,369.594 169.5,368.5C 168.707,368.931 167.873,369.265 167,369.5C 158.357,367.848 149.857,365.681 141.5,363C 131.268,358.716 120.935,354.716 110.5,351C 101.488,346.505 92.8217,341.338 84.5,335.5C 93.9817,327.342 104.648,321.342 116.5,317.5C 119.833,318.333 123.167,319.167 126.5,320C 132.833,324.333 139.167,328.667 145.5,333C 150.371,333.45 152.037,331.284 150.5,326.5C 142.805,320.318 134.471,315.152 125.5,311C 118.615,309.902 111.949,310.569 105.5,313C 95.3427,317.913 86.0093,324.079 77.5,331.5C 69.8976,325.733 61.8976,320.567 53.5,316C 44.342,308.876 36.1753,300.71 29,291.5C 28.3333,290.5 28.3333,289.5 29,288.5C 49.5042,267.327 71.8376,248.327 96,231.5C 123.564,216.547 152.897,207.88 184,205.5C 203.586,203.046 223.086,201.046 242.5,199.5 Z M 419.5,201.5 C 424.997,201.243 429.997,202.743 434.5,206C 441.02,210.372 447.353,214.872 453.5,219.5C 446.386,227.291 439.886,235.624 434,244.5C 427.001,239.955 419.835,235.788 412.5,232C 404.681,228.59 397.014,224.923 389.5,221C 396.82,211.371 406.486,205.371 418.5,203C 419.056,202.617 419.389,202.117 419.5,201.5 Z M 122.5,286.5 C 123.547,285.922 123.38,285.256 122,284.5C 121.601,284.728 121.435,285.062 121.5,285.5C 120.079,281.896 121.413,280.396 125.5,281C 126.672,282.868 126.505,284.702 125,286.5C 124.023,287.774 123.189,287.774 122.5,286.5 Z M 186.5,381.5 C 188.532,381.478 190.698,381.145 193,380.5C 193.5,381 194,381.5 194.5,382C 201.833,383 209.167,384 216.5,385C 215.724,386.77 215.89,388.603 217,390.5C 222.898,401.892 231.064,411.226 241.5,418.5C 237.891,421.22 234.058,423.554 230,425.5C 221.82,421.158 214.653,415.491 208.5,408.5C 201.387,399.246 194.054,390.246 186.5,381.5 Z M 225.5,386.5 C 229.423,387.141 233.257,387.141 237,386.5C 242.732,394.632 249.899,401.299 258.5,406.5C 259.521,407.002 259.688,407.668 259,408.5C 256.059,409.783 253.393,411.45 251,413.5C 244.196,407.746 237.53,401.746 231,395.5C 229.148,392.454 227.315,389.454 225.5,386.5 Z M 254.5,387.5 C 258.75,388.272 263.083,388.772 267.5,389C 269.276,392.441 271.443,395.608 274,398.5C 274.749,399.635 274.583,400.635 273.5,401.5C 265.432,399.092 258.432,394.926 252.5,389C 253.416,388.722 254.082,388.222 254.5,387.5 Z"/></g>
<g><path style="opacity:0.537" fill="#000000" d="M 125.5,268.5 C 120.859,269.127 116.193,269.46 111.5,269.5C 110.432,268.566 109.099,268.232 107.5,268.5C 107.167,267.167 106.833,267.167 106.5,268.5C 105.596,267.791 105.263,266.791 105.5,265.5C 103.585,265.784 101.919,265.451 100.5,264.5C 99.02,262.142 97.3534,259.809 95.5,257.5C 95.8627,256.817 96.1961,256.15 96.5,255.5C 97.1667,255.5 97.5,255.167 97.5,254.5C 99.1992,254.34 100.866,254.506 102.5,255C 104.078,258.209 106.578,260.376 110,261.5C 111.087,259.068 111.587,259.402 111.5,262.5C 114.394,262.958 116.894,262.291 119,260.5C 119.333,261.167 119.667,261.833 120,262.5C 121.302,261.915 122.469,261.249 123.5,260.5C 126.139,259.054 128.472,257.221 130.5,255C 129.552,254.517 128.552,254.351 127.5,254.5C 128.751,252.78 130.251,252.447 132,253.5C 132.333,252.833 132.667,252.167 133,251.5C 135.133,252.418 137.3,252.584 139.5,252C 138.971,255.93 137.305,259.263 134.5,262C 135.34,263.666 134.84,263.833 133,262.5C 130.281,264.402 127.781,266.402 125.5,268.5 Z"/></g>
<g><path style="opacity:0.59" fill="#000000" d="M 116.5,292.5 C 116.167,291.5 115.5,290.833 114.5,290.5C 113.718,288.549 112.384,287.049 110.5,286C 110.799,284.68 110.966,283.18 111,281.5C 112.459,279.568 113.625,277.568 114.5,275.5C 114.833,276.833 115.167,276.833 115.5,275.5C 116.473,275.013 117.473,274.513 118.5,274C 122.867,273.636 127.034,273.47 131,273.5C 132.954,276.343 134.454,279.509 135.5,283C 134.576,284.15 134.576,285.15 135.5,286C 134.506,287.329 133.506,288.662 132.5,290C 133.938,292.366 133.438,292.866 131,291.5C 130.626,292.416 130.126,293.25 129.5,294C 124.755,296.22 120.421,295.72 116.5,292.5 Z M 122.5,286.5 C 123.547,285.922 123.38,285.256 122,284.5C 121.601,284.728 121.435,285.062 121.5,285.5C 120.079,281.896 121.413,280.396 125.5,281C 126.672,282.868 126.505,284.702 125,286.5C 124.023,287.774 123.189,287.774 122.5,286.5 Z"/></g>
</svg>
