<?xml version="1.0" encoding="UTF-8"?>
<!DOCTYPE svg PUBLIC "-//W3C//DTD SVG 1.1//EN" "http://www.w3.org/Graphics/SVG/1.1/DTD/svg11.dtd">
<svg xmlns="http://www.w3.org/2000/svg" version="1.1" width="611px" height="611px" style="shape-rendering:geometricPrecision; text-rendering:geometricPrecision; image-rendering:optimizeQuality; fill-rule:evenodd; clip-rule:evenodd" xmlns:xlink="http://www.w3.org/1999/xlink">
<g><path style="opacity:0.618" fill="#000000" d="M 182.5,349.5 C 181.167,349.833 181.167,350.167 182.5,350.5C 177.529,356.141 172.529,361.808 167.5,367.5C 166.167,367.833 166.167,368.167 167.5,368.5C 166.928,370.255 166.094,371.922 165,373.5C 164.667,372.833 164.333,372.167 164,371.5C 160.718,376.834 157.551,382.168 154.5,387.5C 153.685,388.429 152.852,389.429 152,390.5C 149.804,396.379 148.138,402.046 147,407.5C 146.818,418.219 150.485,427.886 158,436.5C 158.914,435.346 159.747,435.513 160.5,437C 159.549,437.718 159.383,438.551 160,439.5C 168.944,449.154 174.944,460.487 178,473.5C 180.508,470.083 182.674,470.083 184.5,473.5C 182.851,475.65 181.018,477.65 179,479.5C 178.577,485.057 177.41,490.39 175.5,495.5C 173.408,498.681 171.075,501.681 168.5,504.5C 167.167,504.833 167.167,505.167 168.5,505.5C 167.922,507.443 166.922,507.777 165.5,506.5C 164.304,506.846 164.304,507.346 165.5,508C 158.055,511.162 150.222,512.996 142,513.5C 134.639,513.202 127.306,511.869 120,509.5C 119.667,509.833 119.333,510.167 119,510.5C 117.154,507.993 114.654,506.659 111.5,506.5C 111.167,505.167 110.833,505.167 110.5,506.5C 105.879,502.849 100.879,499.683 95.5,497C 87.5509,491.383 81.3842,484.216 77,475.5C 76.6667,475.833 76.3333,476.167 76,476.5C 75.7238,474.233 75.0571,471.9 74,469.5C 73.4257,467.508 72.259,466.008 70.5,465C 71.0219,464.439 71.3552,463.772 71.5,463C 70.207,458.868 69.0403,454.701 68,450.5C 67.3333,439.833 67.3333,429.167 68,418.5C 69.5819,409.879 72.0819,402.046 75.5,395C 74.5494,394.282 74.3828,393.449 75,392.5C 78.5135,387.64 81.8468,382.64 85,377.5C 84.2288,374.418 85.5621,372.418 89,371.5C 91.2032,366.934 94.0365,362.768 97.5,359C 97.1667,358.667 96.8333,358.333 96.5,358C 98.1066,356.951 98.7733,355.451 98.5,353.5C 99.5,353.5 100.5,353.5 101.5,353.5C 107.8,341.789 113.634,329.789 119,317.5C 119.311,315.444 119.811,313.444 120.5,311.5C 120.291,310.914 119.957,310.414 119.5,310C 120.667,309.5 121.5,308.667 122,307.5C 124.145,294.438 123.811,281.438 121,268.5C 114.306,253.014 107.473,237.681 100.5,222.5C 100.709,221.914 101.043,221.414 101.5,221C 92.7831,201.356 92.2831,181.189 100,160.5C 103.348,154.468 106.681,148.468 110,142.5C 112.605,139.62 115.271,137.62 118,136.5C 117.822,134.56 118.822,132.893 121,131.5C 121.957,133.709 123.124,133.543 124.5,131C 122.258,129.993 122.592,129.159 125.5,128.5C 125.897,129.525 126.563,129.692 127.5,129C 129.83,126.833 132.497,125.166 135.5,124C 136.833,123.333 136.833,122.667 135.5,122C 136.449,121.383 137.282,121.549 138,122.5C 148.538,115.921 160.372,113.421 173.5,115C 176.607,116.878 179.273,119.211 181.5,122C 180.697,136.974 178.197,152.141 174,167.5C 167.803,197.543 174.969,223.71 195.5,246C 195.167,246.333 194.833,246.667 194.5,247C 198.437,252.528 202.103,257.694 205.5,262.5C 210.594,270.449 212.594,279.115 211.5,288.5C 212.651,297.852 210.651,306.352 205.5,314C 205.833,314.333 206.167,314.667 206.5,315C 203.536,318.318 201.37,322.151 200,326.5C 197.197,329.975 194.363,333.475 191.5,337C 191.957,337.414 192.291,337.914 192.5,338.5C 188.079,341.883 184.746,345.549 182.5,349.5 Z M 195.5,314.5 C 194.89,316.434 193.89,318.101 192.5,319.5C 189.22,324.781 185.553,329.781 181.5,334.5C 180.167,334.833 180.167,335.167 181.5,335.5C 180.488,336.872 179.488,338.205 178.5,339.5C 175.878,343.956 172.378,347.623 168,350.5C 166.333,353.5 164.667,356.5 163,359.5C 162.086,358.346 161.253,358.513 160.5,360C 160.833,360.333 161.167,360.667 161.5,361C 160.058,361.377 159.058,362.21 158.5,363.5C 153.864,370.479 149.197,377.479 144.5,384.5C 140.965,390.774 138.631,397.441 137.5,404.5C 138.625,405.652 138.625,406.652 137.5,407.5C 137.204,416.14 139.204,424.14 143.5,431.5C 142.674,432.451 142.508,433.451 143,434.5C 144.159,433.434 144.992,433.767 145.5,435.5C 148.592,439.805 152.092,444.472 156,449.5C 159,454.833 162,460.167 165,465.5C 172.483,491.087 162.483,504.087 135,504.5C 133.893,504.415 132.893,504.081 132,503.5C 129.954,496.345 126.954,489.679 123,483.5C 121.751,477.671 119.418,472.337 116,467.5C 114.029,454.164 114.029,440.831 116,427.5C 117.164,425.351 118.33,423.185 119.5,421C 119.167,420.667 118.833,420.333 118.5,420C 121.013,413.459 124.013,407.125 127.5,401C 127.028,398.601 128.028,396.601 130.5,395C 130.167,394.667 129.833,394.333 129.5,394C 130.5,393.667 131.5,393.333 132.5,393C 132.167,392 131.833,391 131.5,390C 135.816,384.217 139.483,378.05 142.5,371.5C 143.981,370.52 145.315,369.353 146.5,368C 146.167,367.667 145.833,367.333 145.5,367C 148.604,362.282 151.271,357.449 153.5,352.5C 153.328,351.508 153.662,350.842 154.5,350.5C 155.167,349.833 155.833,349.167 156.5,348.5C 155.957,348.44 155.624,348.107 155.5,347.5C 161.549,337.255 165.715,326.255 168,314.5C 168.654,315.696 169.154,315.696 169.5,314.5C 169.069,313.707 168.735,312.873 168.5,312C 169.78,303.851 170.78,295.685 171.5,287.5C 170.831,279.604 169.831,271.604 168.5,263.5C 168.68,262.446 169.013,261.446 169.5,260.5C 169.154,259.304 168.654,259.304 168,260.5C 166.972,256.527 166.139,252.527 165.5,248.5C 166.465,247.279 166.298,245.946 165,244.5C 162.701,240.294 160.534,235.294 158.5,229.5C 158.833,228.833 159.167,228.167 159.5,227.5C 159.154,226.304 158.654,226.304 158,227.5C 153.652,217.3 149.152,207.133 144.5,197C 145.022,196.439 145.355,195.772 145.5,195C 143.119,192.236 141.285,189.07 140,185.5C 139.159,180.469 138.159,175.469 137,170.5C 135.989,169.663 134.822,169.33 133.5,169.5C 135.261,184.469 137.428,198.469 140,211.5C 154.872,239.215 162.372,268.715 162.5,300C 160.933,305.379 159.767,310.879 159,316.5C 155.328,326.912 151.495,336.745 147.5,346C 146.635,347.359 145.635,348.526 144.5,349.5C 143.167,349.833 143.167,350.167 144.5,350.5C 138.721,360.413 132.387,371.58 125.5,384C 125.833,384.333 126.167,384.667 126.5,385C 125.584,385.374 124.75,385.874 124,386.5C 123.744,390.824 121.911,394.157 118.5,396.5C 118.709,397.086 119.043,397.586 119.5,398C 100.529,433.521 102.529,468.521 125.5,503C 119.633,500.372 113.967,497.705 108.5,495C 105.377,493.118 102.711,490.785 100.5,488C 99.5632,487.308 98.8966,487.475 98.5,488.5C 96.7673,487.992 96.434,487.159 97.5,486C 96.6753,484.312 95.6753,484.145 94.5,485.5C 92.086,484.089 90.4194,482.089 89.5,479.5C 87.5337,478.745 87.2004,477.579 88.5,476C 87.7471,474.513 86.9138,474.346 86,475.5C 72.2005,448.691 72.0338,421.024 85.5,392.5C 86.376,391.749 87.376,391.249 88.5,391C 88.0426,390.586 87.7093,390.086 87.5,389.5C 92.2549,379.652 97.9215,371.152 104.5,364C 104.167,363.667 103.833,363.333 103.5,363C 104.729,361.471 106.229,360.304 108,359.5C 108.617,358.551 108.451,357.718 107.5,357C 109.752,354.264 111.752,351.431 113.5,348.5C 132.893,319.365 136.726,287.365 125,252.5C 123.197,246.897 120.863,241.564 118,236.5C 117.333,235.167 116.667,235.167 116,236.5C 113.431,228.371 110.598,220.371 107.5,212.5C 105.486,207.309 104.152,201.809 103.5,196C 103.58,191.346 103.58,186.68 103.5,182C 104.202,177.63 105.202,173.464 106.5,169.5C 107.075,166.088 108.408,163.088 110.5,160.5C 112.565,155.051 116.065,150.718 121,147.5C 121.792,145.413 122.959,143.579 124.5,142C 133.545,134.806 143.545,129.14 154.5,125C 160.247,123.337 165.747,123.17 171,124.5C 171.5,125.5 172,126.5 172.5,127.5C 168.717,145.318 165.551,163.318 163,181.5C 161.896,195.342 163.896,209.009 169,222.5C 169.807,224.577 170.974,226.411 172.5,228C 172.167,228.333 171.833,228.667 171.5,229C 172.672,229.419 173.672,230.085 174.5,231C 174.746,232.06 174.746,233.227 174.5,234.5C 174.846,235.696 175.346,235.696 176,234.5C 177.953,238.479 179.62,242.146 181,245.5C 182,245.833 183,246.167 184,246.5C 187.4,252.59 191.733,258.59 197,264.5C 205.982,281.526 205.482,298.193 195.5,314.5 Z"/></g>
<g><path style="opacity:0.004" fill="#000000" d="M 133.5,122.5 C 134.833,123.167 134.833,123.167 133.5,122.5 Z"/></g>
<g><path style="opacity:0.004" fill="#000000" d="M 125.5,127.5 C 126.833,128.167 126.833,128.167 125.5,127.5 Z"/></g>
<g><path style="opacity:0.618" fill="#000000" d="M 503.5,236.5 C 503.738,239.148 505.072,240.982 507.5,242C 506.366,243.016 506.699,243.683 508.5,244C 508.453,247.975 510.453,250.975 514.5,253C 513.833,253.333 513.167,253.667 512.5,254C 514.452,256.074 516.285,258.241 518,260.5C 518.333,260.167 518.667,259.833 519,259.5C 520.558,264.631 523.558,268.631 528,271.5C 531.49,278.153 534.156,285.153 536,292.5C 538.659,306.799 536.159,319.966 528.5,332C 528.833,332.333 529.167,332.667 529.5,333C 526.226,337.045 523.226,341.211 520.5,345.5C 517.919,348.32 516.086,351.654 515,355.5C 511.939,357.473 509.439,359.973 507.5,363C 507.833,363.333 508.167,363.667 508.5,364C 506.627,366.209 504.46,368.042 502,369.5C 501.138,371.087 500.471,372.754 500,374.5C 498.853,373.542 497.853,373.875 497,375.5C 494.558,378.048 492.892,381.048 492,384.5C 487.939,387.455 484.939,391.788 483,397.5C 482.333,398.833 481.667,398.833 481,397.5C 475.147,407.054 472.147,417.388 472,428.5C 472.708,432.249 473.708,435.916 475,439.5C 480.672,446.842 486.338,454.175 492,461.5C 493.294,462.854 493.46,464.188 492.5,465.5C 493.887,467.21 495.221,468.877 496.5,470.5C 502.815,483.043 503.982,496.377 500,510.5C 496.813,513.695 493.98,517.195 491.5,521C 483.231,525.646 474.397,528.479 465,529.5C 459.865,528.643 455.032,526.976 450.5,524.5C 448.902,525.485 447.235,525.651 445.5,525C 442.268,522.886 438.935,521.053 435.5,519.5C 434.432,518.566 433.099,518.232 431.5,518.5C 429.188,516.364 426.688,514.364 424,512.5C 423.549,514.929 422.715,515.096 421.5,513C 422.712,511.893 422.379,511.393 420.5,511.5C 417.509,508.88 414.176,505.88 410.5,502.5C 410.5,501.833 410.167,501.5 409.5,501.5C 408.811,500.226 407.977,500.226 407,501.5C 407,500.167 407,498.833 407,497.5C 404.294,495.129 401.961,492.463 400,489.5C 396.934,481.724 394.1,473.891 391.5,466C 391.509,455.26 391.675,444.427 392,433.5C 394.641,417.729 400.807,403.562 410.5,391C 409.549,390.282 409.383,389.449 410,388.5C 413.344,386.496 415.677,384.163 417,381.5C 423.681,371.47 429.848,361.136 435.5,350.5C 439.715,341.741 443.215,332.074 446,321.5C 448.171,307.529 447.671,294.029 444.5,281C 441.587,274.671 439.087,268.171 437,261.5C 434.622,258.421 432.455,255.255 430.5,252C 430.833,251.667 431.167,251.333 431.5,251C 429.833,247.952 428.166,244.952 426.5,242C 427.584,239.81 426.917,238.144 424.5,237C 425.022,236.439 425.355,235.772 425.5,235C 418.246,216.412 417.58,197.579 423.5,178.5C 424.774,177.811 424.774,176.977 423.5,176C 424.416,175.722 425.082,175.222 425.5,174.5C 428.197,168.795 431.364,162.795 435,156.5C 435.667,155.167 436.333,155.167 437,156.5C 440.736,151.982 444.236,147.982 447.5,144.5C 452.717,142.117 457.55,139.117 462,135.5C 462.414,135.957 462.914,136.291 463.5,136.5C 475.642,129.697 488.308,128.197 501.5,132C 504.212,135.134 505.545,138.8 505.5,143C 503.134,163.035 500.134,183.035 496.5,203C 497.413,209.771 498.247,216.605 499,223.5C 501.345,227.371 502.345,231.371 502,235.5C 502.383,236.056 502.883,236.389 503.5,236.5 Z M 469.5,397.5 C 468.167,398.167 468.167,398.833 469.5,399.5C 458.117,418.554 459.45,436.387 473.5,453C 472.549,453.718 472.383,454.551 473,455.5C 473.667,456.833 474.333,456.833 475,455.5C 475.464,456.094 475.631,456.761 475.5,457.5C 474.453,458.078 474.62,458.744 476,459.5C 476.399,459.272 476.565,458.938 476.5,458.5C 479.396,463.251 482.396,467.917 485.5,472.5C 484.167,472.833 484.167,473.167 485.5,473.5C 491.299,481.842 493.299,490.842 491.5,500.5C 491.628,502.655 491.128,504.655 490,506.5C 480.844,515.813 469.677,519.646 456.5,518C 451.158,506.126 446.158,493.959 441.5,481.5C 439.012,468.351 438.846,455.018 441,441.5C 441.21,439.942 441.71,438.609 442.5,437.5C 445.524,427.739 449.524,418.072 454.5,408.5C 454.918,407.778 455.584,407.278 456.5,407C 455.226,406.023 455.226,405.189 456.5,404.5C 460.328,395.943 464.828,388.943 470,383.5C 476.277,371.28 482.277,358.947 488,346.5C 499.508,311.523 498.008,277.357 483.5,244C 484.943,241.922 484.276,241.089 481.5,241.5C 475.981,225.707 469.981,210.541 463.5,196C 462.588,192.184 461.754,188.351 461,184.5C 460.259,183.359 459.425,183.359 458.5,184.5C 458.087,202.485 461.754,219.651 469.5,236C 469.167,236.333 468.833,236.667 468.5,237C 470.524,239.051 472.19,241.384 473.5,244C 474.079,245.425 474.079,247.092 473.5,249C 475.904,249.508 476.571,250.675 475.5,252.5C 477.31,256.793 479.143,261.126 481,265.5C 483.76,275.567 485.76,285.9 487,296.5C 487.667,301.5 487.667,306.5 487,311.5C 485.767,313.422 485.6,315.589 486.5,318C 485.462,322.118 484.628,326.285 484,330.5C 483.56,332.076 482.727,333.41 481.5,334.5C 482.902,335.842 482.569,336.676 480.5,337C 481.531,340.295 480.531,342.961 477.5,345C 477.833,345.333 478.167,345.667 478.5,346C 476.808,350.074 475.308,354.24 474,358.5C 473.333,359.833 472.667,359.833 472,358.5C 471.383,359.449 471.549,360.282 472.5,361C 471.934,361.995 471.267,362.828 470.5,363.5C 470.459,365.745 469.625,366.412 468,365.5C 467.383,366.449 467.549,367.282 468.5,368C 453.889,389.138 442.723,411.638 435,435.5C 434.5,436.667 433.667,437.5 432.5,438C 433.108,439.231 433.441,440.564 433.5,442C 428.999,462.422 431.666,482.088 441.5,501C 441.167,501.333 440.833,501.667 440.5,502C 442.981,507.294 445.981,512.294 449.5,517C 436.473,512.441 425.307,505.608 416,496.5C 414.212,494.24 412.712,491.907 411.5,489.5C 409.59,488.025 408.424,486.025 408,483.5C 407.333,482.167 406.667,482.167 406,483.5C 403.927,477.305 402.427,470.971 401.5,464.5C 399.985,459.42 399.318,454.086 399.5,448.5C 399.542,444.405 400.208,440.571 401.5,437C 401.177,431.249 402.177,425.582 404.5,420C 406.581,418.618 406.915,416.951 405.5,415C 410.548,407.568 415.048,399.735 419,391.5C 419.995,390.934 420.828,390.267 421.5,389.5C 422.833,389.167 422.833,388.833 421.5,388.5C 424.753,385 427.253,381 429,376.5C 430.771,375.696 432.271,374.529 433.5,373C 433.167,372.667 432.833,372.333 432.5,372C 435.973,366.877 439.307,361.711 442.5,356.5C 444.382,355.779 444.715,354.779 443.5,353.5C 443.574,351.589 444.574,350.422 446.5,350C 445.799,347.532 446.466,345.365 448.5,343.5C 454.235,327.372 456.568,310.372 455.5,292.5C 453.795,278.88 449.462,265.713 442.5,253C 440.284,247.034 437.45,240.867 434,234.5C 429.302,221.377 427.635,207.71 429,193.5C 430.725,182.555 435.225,173.055 442.5,165C 442.167,164.667 441.833,164.333 441.5,164C 442.623,162.956 443.956,162.29 445.5,162C 446.833,161.333 446.833,160.667 445.5,160C 449.103,157.344 452.103,154.844 454.5,152.5C 455.078,153.547 455.744,153.38 456.5,152C 456.272,151.601 455.938,151.435 455.5,151.5C 457.205,149.808 459.205,148.475 461.5,147.5C 462.705,145.862 464.038,145.529 465.5,146.5C 466.267,145.828 466.934,144.995 467.5,144C 476.643,139.128 486.31,137.295 496.5,138.5C 496.519,140.06 496.852,141.56 497.5,143C 493.691,160.379 490.524,177.879 488,195.5C 486.731,210.491 488.897,224.491 494.5,237.5C 497.097,242.791 499.597,248.124 502,253.5C 509.818,263.131 517.151,273.131 524,283.5C 527.666,291.485 528.999,299.818 528,308.5C 526.044,316.637 522.878,324.304 518.5,331.5C 511.862,341.637 505.029,351.637 498,361.5C 496.681,363.487 494.848,364.654 492.5,365C 489.731,370.689 486.231,375.189 482,378.5C 481.667,379.833 481.333,381.167 481,382.5C 479.386,385.237 477.219,387.403 474.5,389C 474.833,389.333 475.167,389.667 475.5,390C 473.826,391.506 472.826,393.339 472.5,395.5C 470.821,395.285 469.821,395.952 469.5,397.5 Z"/></g>
<g><path style="opacity:0.004" fill="#000000" d="M 471.5,130.5 C 472.833,131.167 472.833,131.167 471.5,130.5 Z"/></g>
<g><path style="opacity:0.004" fill="#000000" d="M 502.5,164.5 C 503.833,165.167 503.833,165.167 502.5,164.5 Z"/></g>
<g><path style="opacity:0.004" fill="#000000" d="M 425.5,174.5 C 424.833,173.167 424.833,173.167 425.5,174.5 Z"/></g>
<g><path style="opacity:0.004" fill="#000000" d="M 423.5,178.5 C 422.833,177.167 422.833,177.167 423.5,178.5 Z"/></g>
<g><path style="opacity:0.004" fill="#000000" d="M 503.5,235.5 C 504.833,236.167 504.833,236.167 503.5,235.5 Z"/></g>
<g><path style="opacity:0.004" fill="#000000" d="M 517.5,257.5 C 518.833,258.167 518.833,258.167 517.5,257.5 Z"/></g>
<g><path style="opacity:0.004" fill="#000000" d="M 118.5,267.5 C 119.833,268.167 119.833,268.167 118.5,267.5 Z"/></g>
<g><path style="opacity:0.004" fill="#000000" d="M 520.5,345.5 C 521.833,346.167 521.833,346.167 520.5,345.5 Z"/></g>
<g><path style="opacity:0.004" fill="#000000" d="M 182.5,349.5 C 183.833,350.167 183.833,350.167 182.5,349.5 Z"/></g>
<g><path style="opacity:0.004" fill="#000000" d="M 435.5,350.5 C 434.833,349.167 434.833,349.167 435.5,350.5 Z"/></g>
<g><path style="opacity:0.004" fill="#000000" d="M 167.5,367.5 C 168.833,368.167 168.833,368.167 167.5,367.5 Z"/></g>
<g><path style="opacity:0.004" fill="#000000" d="M 154.5,387.5 C 155.833,388.167 155.833,388.167 154.5,387.5 Z"/></g>
<g><path style="opacity:0.004" fill="#000000" d="M 261.5,451.5 C 262.601,450.402 263.934,450.235 265.5,451C 264.207,451.49 262.873,451.657 261.5,451.5 Z"/></g>
<g><path style="opacity:0.004" fill="#000000" d="M 260.5,452.5 C 262.429,452.231 264.095,452.731 265.5,454C 264.667,454.167 263.833,454.333 263,454.5C 261.624,454.316 260.791,453.649 260.5,452.5 Z"/></g>
<g><path style="opacity:0.007" fill="#000000" d="M 368.5,454.5 C 372.945,455.195 377.278,456.362 381.5,458C 382.126,458.75 382.626,459.584 383,460.5C 383.718,459.549 384.551,459.383 385.5,460C 387.544,462.131 388.377,464.631 388,467.5C 384.262,465.527 380.429,463.86 376.5,462.5C 375.914,462.709 375.414,463.043 375,463.5C 372.141,462.827 369.308,461.993 366.5,461C 365.833,459.333 365.167,457.667 364.5,456C 366.058,455.79 367.391,455.29 368.5,454.5 Z"/></g>
<g><path style="opacity:0.004" fill="#000000" d="M 496.5,469.5 C 497.833,470.167 497.833,470.167 496.5,469.5 Z"/></g>
<g><path style="opacity:0.006" fill="#000000" d="M 202.5,489.5 C 204.701,489.858 206.035,491.192 206.5,493.5C 204.772,497.643 202.106,500.976 198.5,503.5C 195.161,497.611 196.494,492.944 202.5,489.5 Z"/></g>
<g><path style="opacity:0.004" fill="#000000" d="M 85.5,492.5 C 86.552,492.351 87.552,492.517 88.5,493C 89.5832,495.056 91.2499,496.389 93.5,497C 94.8333,499.333 94.1667,500.333 91.5,500C 89.5822,497.269 87.5822,494.769 85.5,492.5 Z"/></g>
<g><path style="opacity:0.004" fill="#000000" d="M 175.5,495.5 C 176.833,496.167 176.833,496.167 175.5,495.5 Z"/></g>
<g><path style="opacity:0.004" fill="#000000" d="M 409.5,501.5 C 410.167,501.5 410.5,501.833 410.5,502.5C 410.44,503.043 410.107,503.376 409.5,503.5C 408.227,502.743 408.227,502.077 409.5,501.5 Z"/></g>
<g><path style="opacity:0.004" fill="#000000" d="M 168.5,504.5 C 169.833,505.167 169.833,505.167 168.5,504.5 Z"/></g>
<g><path style="opacity:0.004" fill="#000000" d="M 410.5,504.5 C 411.833,505.167 411.833,505.167 410.5,504.5 Z"/></g>
<g><path style="opacity:0.004" fill="#000000" d="M 110.5,506.5 C 110.833,506.5 111.167,506.5 111.5,506.5C 111.315,507.17 110.981,507.17 110.5,506.5 Z"/></g>
<g><path style="opacity:0.007" fill="#000000" d="M 388.5,506.5 C 392.848,508.583 393.348,511.249 390,514.5C 388.187,512.239 386.687,509.905 385.5,507.5C 386.791,507.737 387.791,507.404 388.5,506.5 Z"/></g>
<g><path style="opacity:0.004" fill="#000000" d="M 420.5,511.5 C 419.833,512.167 419.833,512.167 420.5,511.5 Z"/></g>
<g><path style="opacity:0.004" fill="#000000" d="M 58.5,517.5 C 59.8333,518.167 59.8333,518.167 58.5,517.5 Z"/></g>
<g><path style="opacity:0.004" fill="#000000" d="M 431.5,518.5 C 430.833,519.167 430.833,519.167 431.5,518.5 Z"/></g>
<g><path style="opacity:0.008" fill="#000000" d="M 435.5,519.5 C 435.103,520.525 434.437,520.692 433.5,520C 434.094,519.536 434.761,519.369 435.5,519.5 Z"/></g>
<g><path style="opacity:0.009" fill="#000000" d="M 503.5,520.5 C 510.727,521.862 511.393,524.862 505.5,529.5C 503.547,528.239 501.547,527.073 499.5,526C 500.665,524.008 501.998,522.175 503.5,520.5 Z"/></g>
<g><path style="opacity:0.004" fill="#000000" d="M 437.5,521.5 C 438.833,522.167 438.833,522.167 437.5,521.5 Z"/></g>
<g><path style="opacity:0.004" fill="#000000" d="M 493.5,523.5 C 494.251,522.427 495.251,522.26 496.5,523C 495.552,523.483 494.552,523.649 493.5,523.5 Z"/></g>
<g><path style="opacity:0.004" fill="#000000" d="M 512.5,524.5 C 514.487,525.164 516.154,526.331 517.5,528C 511.026,534.369 509.359,533.202 512.5,524.5 Z"/></g>
<g><path style="opacity:0.006" fill="#000000" d="M 134.5,525.5 C 136.831,525.498 138.831,526.331 140.5,528C 137.45,531.1 135.45,534.767 134.5,539C 132.887,539.089 131.72,538.255 131,536.5C 130.219,535.056 130.386,533.723 131.5,532.5C 132.736,533.246 134.07,533.579 135.5,533.5C 135.5,532.167 135.5,530.833 135.5,529.5C 134.448,529.649 133.448,529.483 132.5,529C 133.305,527.887 133.972,526.721 134.5,525.5 Z"/></g>
<g><path style="opacity:0.004" fill="#000000" d="M 261.5,529.5 C 265.093,530.43 266.759,532.763 266.5,536.5C 263.482,536.2 261.482,534.533 260.5,531.5C 260.863,530.817 261.196,530.15 261.5,529.5 Z"/></g>
<g><path style="opacity:0.006" fill="#000000" d="M 190.5,538.5 C 192.384,538.712 193.717,539.712 194.5,541.5C 194.03,545.212 192.697,548.545 190.5,551.5C 185.283,547.04 185.283,542.707 190.5,538.5 Z"/></g>
<g><path style="opacity:0.004" fill="#000000" d="M 460.5,538.5 C 461.756,538.461 462.756,538.961 463.5,540C 461.835,540.788 460.169,541.122 458.5,541C 459.381,540.292 460.047,539.458 460.5,538.5 Z"/></g>
<g><path style="opacity:0.004" fill="#000000" d="M 342.5,551.5 C 343.051,555.195 344.385,558.695 346.5,562C 346.167,562.833 345.833,563.667 345.5,564.5C 340.14,561.234 339.14,556.901 342.5,551.5 Z"/></g>
<g><path style="opacity:0.004" fill="#000000" d="M 456.5,551.5 C 458.465,551.948 458.798,552.948 457.5,554.5C 456.614,553.675 456.281,552.675 456.5,551.5 Z"/></g>
<g><path style="opacity:0.007" fill="#000000" d="M 229.5,573.5 C 238.208,573.705 247.208,573.871 256.5,574C 262.332,574.568 267.999,575.568 273.5,577C 250.447,584.421 227.447,584.254 204.5,576.5C 209.518,575.786 214.518,575.119 219.5,574.5C 223.018,575.713 226.351,575.38 229.5,573.5 Z"/></g>
</svg>
