<?xml version="1.0" encoding="UTF-8"?>
<!DOCTYPE svg PUBLIC "-//W3C//DTD SVG 1.1//EN" "http://www.w3.org/Graphics/SVG/1.1/DTD/svg11.dtd">
<svg xmlns="http://www.w3.org/2000/svg" version="1.1" width="611px" height="611px" style="shape-rendering:geometricPrecision; text-rendering:geometricPrecision; image-rendering:optimizeQuality; fill-rule:evenodd; clip-rule:evenodd" xmlns:xlink="http://www.w3.org/1999/xlink">
<g><path style="opacity:0.773" fill="#000000" d="M 223.5,179.5 C 231.107,179.507 238.774,179.507 246.5,179.5C 275.048,184.493 302.048,193.66 327.5,207C 336.54,212.853 345.873,218.186 355.5,223C 365.422,230.978 375.422,238.978 385.5,247C 397.237,257.565 406.904,269.732 414.5,283.5C 424.612,256.225 442.612,236.058 468.5,223C 478.208,218.898 488.208,217.898 498.5,220C 501.171,221.25 503.337,223.083 505,225.5C 505.667,230.167 505.667,234.833 505,239.5C 502.981,243.212 501.148,247.046 499.5,251C 499.905,251.945 500.572,252.612 501.5,253C 509.113,253.649 516.113,255.983 522.5,260C 527.743,264.997 528.91,270.83 526,277.5C 521.346,284.129 516.679,290.796 512,297.5C 510.85,299.754 510.516,302.087 511,304.5C 519.455,309.215 527.122,314.881 534,321.5C 536.142,326.04 536.642,330.707 535.5,335.5C 528.773,347.054 519.106,355.221 506.5,360C 503.37,362.128 500.537,364.628 498,367.5C 498.759,372.045 500.425,376.378 503,380.5C 504.541,398.669 496.375,405.502 478.5,401C 474.227,399.465 469.894,398.131 465.5,397C 450.449,388.614 439.615,376.447 433,360.5C 425.504,349.667 418.837,338.334 413,326.5C 406.364,332.804 400.031,339.471 394,346.5C 387.291,356.879 378.791,365.712 368.5,373C 348.898,387.469 327.565,398.803 304.5,407C 302.872,409.65 300.705,410.483 298,409.5C 294.091,411.597 290.424,412.264 287,411.5C 276.472,414.207 265.805,416.54 255,418.5C 247.485,418.667 239.818,418.001 232,416.5C 229.429,417.245 226.929,417.579 224.5,417.5C 218.927,416.142 213.26,415.309 207.5,415C 186.546,408.126 166.546,399.126 147.5,388C 135.626,378.118 123.792,368.284 112,358.5C 104.943,349.108 98.2764,339.442 92,329.5C 87.6092,320.493 84.1092,311.16 81.5,301.5C 83.5662,298.115 83.5662,294.949 81.5,292C 82.6658,287.836 83.8324,283.669 85,279.5C 94.5475,260.966 106.048,243.799 119.5,228C 149.268,200.607 183.935,184.44 223.5,179.5 Z M 90.5,287.5 C 101.44,258.71 119.44,235.21 144.5,217C 167.254,201.854 192.254,192.187 219.5,188C 236.64,186.575 253.306,187.908 269.5,192C 279.368,195.734 289.368,199.067 299.5,202C 332.372,216.17 361.538,235.67 387,260.5C 390,264.167 393,267.833 396,271.5C 400.817,280.516 405.484,289.516 410,298.5C 414.309,301.668 417.809,301.001 420.5,296.5C 420.392,295.558 420.059,294.725 419.5,294C 425.593,274.742 435.927,258.076 450.5,244C 459.07,237.884 468.07,232.551 477.5,228C 483.559,226.255 489.559,226.255 495.5,228C 496.944,229.126 497.61,230.626 497.5,232.5C 495.64,237.896 493.474,243.23 491,248.5C 489.956,253.034 491.123,256.867 494.5,260C 500.997,261.833 507.497,263.666 514,265.5C 517.398,267.943 518.065,270.943 516,274.5C 507.276,281.789 501.776,290.956 499.5,302C 499.411,307.334 501.411,311.667 505.5,315C 511.952,318.536 517.952,322.703 523.5,327.5C 524.641,329.421 524.808,331.421 524,333.5C 516.288,341.598 507.454,348.098 497.5,353C 492.163,356.335 488.496,361.002 486.5,367C 487.97,373.946 490.303,380.612 493.5,387C 493,389.5 491.5,391 489,391.5C 477.466,389.4 467.466,384.4 459,376.5C 451.803,366.649 445.469,356.316 440,345.5C 433.911,336.995 428.578,327.995 424,318.5C 422.255,317.044 420.422,315.711 418.5,314.5C 417.754,313.264 417.421,311.93 417.5,310.5C 416.5,310.5 415.5,310.5 414.5,310.5C 414.785,312.288 414.452,313.955 413.5,315.5C 401.048,327.796 389.382,340.963 378.5,355C 352.53,378.404 322.696,394.904 289,404.5C 288.667,404.167 288.333,403.833 288,403.5C 263.136,411.358 237.969,412.691 212.5,407.5C 193.299,402.092 174.633,394.592 156.5,385C 142.545,373.878 128.878,362.545 115.5,351C 103.606,335.876 94.6055,319.21 88.5,301C 88.7852,299.11 89.7852,297.777 91.5,297C 97.4106,293.148 103.411,292.814 109.5,296C 113.21,297.224 115.877,296.058 117.5,292.5C 119.972,290.652 122.139,290.652 124,292.5C 124.414,292.043 124.914,291.709 125.5,291.5C 129.229,294.679 133.563,296.179 138.5,296C 144.262,297.874 148.928,301.207 152.5,306C 160.832,308.801 162.499,306.635 157.5,299.5C 141.949,285.605 124.115,281.272 104,286.5C 101.773,285.637 99.6068,284.637 97.5,283.5C 94.692,284.094 92.3587,285.427 90.5,287.5 Z M 149.5,259.5 C 154.923,259.603 155.756,261.603 152,265.5C 149.961,264.022 149.128,262.022 149.5,259.5 Z"/></g>
<g><path style="opacity:0.656" fill="#000000" d="M 159.5,235.5 C 160.5,235.5 161.5,235.5 162.5,235.5C 161.109,244.047 155.942,248.714 147,249.5C 139.682,248.879 135.015,245.212 133,238.5C 133.725,237.941 134.558,237.608 135.5,237.5C 138.776,240.723 142.61,243.056 147,244.5C 149.819,244.007 152.319,242.84 154.5,241C 155.692,238.645 157.359,236.812 159.5,235.5 Z"/></g>
<g><path style="opacity:0.648" fill="#000000" d="M 186.5,243.5 C 187.822,243.33 188.989,243.663 190,244.5C 191.197,247.089 192.197,249.756 193,252.5C 197.742,278.483 196.742,304.483 190,330.5C 187.339,336.493 184.172,342.16 180.5,347.5C 180.167,346.667 179.833,345.833 179.5,345C 192.285,311.889 194.618,278.055 186.5,243.5 Z"/></g>
<g><path style="opacity:0.708" fill="#000000" d="M 147.5,253.5 C 158.341,252.513 162.008,257.18 158.5,267.5C 152.116,272.882 147.282,271.548 144,263.5C 143.729,259.699 144.896,256.366 147.5,253.5 Z M 149.5,259.5 C 149.128,262.022 149.961,264.022 152,265.5C 155.756,261.603 154.923,259.603 149.5,259.5 Z"/></g>
<g><path style="opacity:0.013" fill="#000000" d="M 53.5,260.5 C 56.8131,261.161 59.4797,262.994 61.5,266C 60.9747,266.692 60.3081,267.192 59.5,267.5C 57.1463,266.94 54.813,266.273 52.5,265.5C 51.2878,263.572 51.6211,261.905 53.5,260.5 Z"/></g>
</svg>
