<?xml version="1.0" encoding="UTF-8"?>
<!DOCTYPE svg PUBLIC "-//W3C//DTD SVG 1.1//EN" "http://www.w3.org/Graphics/SVG/1.1/DTD/svg11.dtd">
<svg xmlns="http://www.w3.org/2000/svg" version="1.1" width="611px" height="611px" style="shape-rendering:geometricPrecision; text-rendering:geometricPrecision; image-rendering:optimizeQuality; fill-rule:evenodd; clip-rule:evenodd" xmlns:xlink="http://www.w3.org/1999/xlink">
<g><path style="opacity:0.786" fill="#000000" d="M 223.5,179.5 C 231.107,179.507 238.774,179.507 246.5,179.5C 275.048,184.493 302.048,193.66 327.5,207C 336.54,212.853 345.873,218.186 355.5,223C 365.422,230.978 375.422,238.978 385.5,247C 397.237,257.565 406.904,269.732 414.5,283.5C 424.612,256.225 442.612,236.058 468.5,223C 478.208,218.898 488.208,217.898 498.5,220C 501.171,221.25 503.337,223.083 505,225.5C 505.667,230.167 505.667,234.833 505,239.5C 502.981,243.212 501.148,247.046 499.5,251C 499.905,251.945 500.572,252.612 501.5,253C 509.113,253.649 516.113,255.983 522.5,260C 527.743,264.997 528.91,270.83 526,277.5C 521.346,284.129 516.679,290.796 512,297.5C 510.85,299.754 510.516,302.087 511,304.5C 519.455,309.215 527.122,314.881 534,321.5C 536.142,326.04 536.642,330.707 535.5,335.5C 528.773,347.054 519.106,355.221 506.5,360C 503.37,362.128 500.537,364.628 498,367.5C 498.759,372.045 500.425,376.378 503,380.5C 504.541,398.669 496.375,405.502 478.5,401C 474.227,399.465 469.894,398.131 465.5,397C 450.449,388.614 439.615,376.447 433,360.5C 425.504,349.667 418.837,338.334 413,326.5C 406.364,332.804 400.031,339.471 394,346.5C 387.291,356.879 378.791,365.712 368.5,373C 348.898,387.469 327.565,398.803 304.5,407C 302.872,409.65 300.705,410.483 298,409.5C 294.091,411.597 290.424,412.264 287,411.5C 276.472,414.207 265.805,416.54 255,418.5C 247.485,418.667 239.818,418.001 232,416.5C 229.429,417.245 226.929,417.579 224.5,417.5C 218.927,416.142 213.26,415.309 207.5,415C 186.546,408.126 166.546,399.126 147.5,388C 135.626,378.118 123.792,368.284 112,358.5C 104.943,349.108 98.2764,339.442 92,329.5C 87.6092,320.493 84.1092,311.16 81.5,301.5C 83.5662,298.115 83.5662,294.949 81.5,292C 82.6658,287.836 83.8324,283.669 85,279.5C 94.5475,260.966 106.048,243.799 119.5,228C 149.268,200.607 183.935,184.44 223.5,179.5 Z M 219.5,187.5 C 236.642,186.572 253.308,188.072 269.5,192C 279.368,195.734 289.368,199.067 299.5,202C 329.863,215.169 357.196,232.836 381.5,255C 386.304,260.475 391.138,265.975 396,271.5C 400.817,280.516 405.484,289.516 410,298.5C 414.309,301.668 417.809,301.001 420.5,296.5C 420.392,295.558 420.059,294.725 419.5,294C 425.593,274.742 435.927,258.076 450.5,244C 459.07,237.884 468.07,232.551 477.5,228C 483.559,226.255 489.559,226.255 495.5,228C 496.944,229.126 497.61,230.626 497.5,232.5C 495.64,237.896 493.474,243.23 491,248.5C 489.956,253.034 491.123,256.867 494.5,260C 500.997,261.833 507.497,263.666 514,265.5C 517.398,267.943 518.065,270.943 516,274.5C 507.276,281.789 501.776,290.956 499.5,302C 499.411,307.334 501.411,311.667 505.5,315C 511.952,318.536 517.952,322.703 523.5,327.5C 524.641,329.421 524.808,331.421 524,333.5C 516.288,341.598 507.454,348.098 497.5,353C 492.163,356.335 488.496,361.002 486.5,367C 487.97,373.946 490.303,380.612 493.5,387C 493,389.5 491.5,391 489,391.5C 477.466,389.4 467.466,384.4 459,376.5C 451.803,366.649 445.469,356.316 440,345.5C 433.911,336.995 428.578,327.995 424,318.5C 422.255,317.044 420.422,315.711 418.5,314.5C 417.754,313.264 417.421,311.93 417.5,310.5C 416.5,310.5 415.5,310.5 414.5,310.5C 414.785,312.288 414.452,313.955 413.5,315.5C 409.149,320.685 404.316,325.351 399,329.5C 389.209,343.589 377.709,356.089 364.5,367C 344.265,381.213 322.599,392.88 299.5,402C 286.832,403.602 274.165,406.269 261.5,410C 250.234,410.36 239.067,410.527 228,410.5C 217.779,409.319 207.945,406.653 198.5,402.5C 197.914,402.709 197.414,403.043 197,403.5C 183.347,397.709 169.847,391.542 156.5,385C 141.976,373.466 127.809,361.632 114,349.5C 108.007,340.186 102.007,330.852 96,321.5C 93.1936,314.586 90.8602,307.586 89,300.5C 101.378,305.212 113.878,306.379 126.5,304C 134.789,302.595 142.789,300.262 150.5,297C 151.5,295.333 152.5,293.667 153.5,292C 152.892,291.13 152.059,290.63 151,290.5C 137.819,295.063 124.319,298.063 110.5,299.5C 103.276,299.346 96.4426,297.68 90,294.5C 89.3623,293.391 88.8623,292.225 88.5,291C 104.457,249.711 132.457,219.711 172.5,201C 177.728,199.59 182.728,197.59 187.5,195C 198.344,192.592 209.011,190.092 219.5,187.5 Z"/></g>
<g><path style="opacity:0.646" fill="#000000" d="M 167.5,244.5 C 167.5,245.167 167.833,245.5 168.5,245.5C 171.48,249.255 171.146,252.588 167.5,255.5C 163.692,253.526 160.692,250.692 158.5,247C 152.57,244.482 146.57,244.149 140.5,246C 138.963,247.707 137.296,249.207 135.5,250.5C 133.553,252.216 132.219,254.383 131.5,257C 129.527,257.495 127.527,257.662 125.5,257.5C 125.211,254.351 125.711,251.351 127,248.5C 128.734,246.766 130.068,244.766 131,242.5C 133.398,242.042 135.064,240.708 136,238.5C 136.914,239.654 137.747,239.487 138.5,238C 144.833,237.333 151.167,237.333 157.5,238C 159.519,238.45 161.352,239.283 163,240.5C 163.333,240.167 163.667,239.833 164,239.5C 165.755,241.146 166.922,242.813 167.5,244.5 Z"/></g>
<g><path style="opacity:0.648" fill="#000000" d="M 186.5,243.5 C 187.822,243.33 188.989,243.663 190,244.5C 191.197,247.089 192.197,249.756 193,252.5C 197.742,278.483 196.742,304.483 190,330.5C 187.339,336.493 184.172,342.16 180.5,347.5C 180.167,346.667 179.833,345.833 179.5,345C 192.285,311.889 194.618,278.055 186.5,243.5 Z"/></g>
<g><path style="opacity:0.599" fill="#000000" d="M 144.5,252.5 C 151.583,251.928 157.583,254.428 162.5,260C 161.939,262.727 160.273,264.227 157.5,264.5C 154.466,262.645 151.299,260.978 148,259.5C 145.067,260.771 142.401,262.438 140,264.5C 138.19,262.933 137.023,260.933 136.5,258.5C 139.273,256.468 141.94,254.468 144.5,252.5 Z"/></g>
<g><path style="opacity:0.004" fill="#000000" d="M 68.5,272.5 C 67.0152,273.935 65.6819,273.768 64.5,272C 65.8805,270.466 67.2139,270.632 68.5,272.5 Z"/></g>
<g><path style="opacity:0.004" fill="#000000" d="M 116.5,270.5 C 118.368,271.786 118.534,273.119 117,274.5C 115.745,273.789 114.579,272.956 113.5,272C 114.737,271.768 115.737,271.268 116.5,270.5 Z"/></g>
<g><path style="opacity:0.004" fill="#000000" d="M 68.5,272.5 C 69.8333,273.167 69.8333,273.167 68.5,272.5 Z"/></g>
<g><path style="opacity:0.005" fill="#000000" d="M 111.5,288.5 C 113.379,288.393 113.712,288.893 112.5,290C 110.567,290.251 108.734,290.751 107,291.5C 104.765,290.761 102.765,290.761 101,291.5C 100.25,290.874 99.4162,290.374 98.5,290C 103.019,289.825 107.353,289.325 111.5,288.5 Z"/></g>
</svg>
