<?xml version="1.0" encoding="UTF-8"?>
<!DOCTYPE svg PUBLIC "-//W3C//DTD SVG 1.1//EN" "http://www.w3.org/Graphics/SVG/1.1/DTD/svg11.dtd">
<svg xmlns="http://www.w3.org/2000/svg" version="1.1" width="611px" height="611px" style="shape-rendering:geometricPrecision; text-rendering:geometricPrecision; image-rendering:optimizeQuality; fill-rule:evenodd; clip-rule:evenodd" xmlns:xlink="http://www.w3.org/1999/xlink">
<g><path style="opacity:0.749" fill="#000000" d="M 270.5,166.5 C 281.07,166.646 291.57,166.646 302,166.5C 308.79,167.488 315.29,169.321 321.5,172C 330.46,179.985 336.627,189.818 340,201.5C 344.492,214.427 348.326,227.26 351.5,240C 350.67,241.465 350.504,242.965 351,244.5C 368.478,255.413 383.478,269.079 396,285.5C 397.977,290.788 400.477,295.788 403.5,300.5C 411.756,278.472 425.423,260.638 444.5,247C 453.527,240.768 463.527,237.101 474.5,236C 482.665,234.419 489.498,236.586 495,242.5C 495.667,246.833 495.667,251.167 495,255.5C 492.981,259.212 491.148,263.046 489.5,267C 489.905,267.945 490.572,268.612 491.5,269C 499.113,269.649 506.113,271.983 512.5,276C 516.794,281.641 517.627,287.808 515,294.5C 511.408,301.354 507.075,307.687 502,313.5C 500.85,315.754 500.516,318.087 501,320.5C 509.575,325.417 517.242,331.417 524,338.5C 526.869,343.653 527.202,348.653 525,353.5C 520.059,360.088 514.226,365.921 507.5,371C 499.76,373.284 493.26,377.45 488,383.5C 488.759,388.045 490.425,392.378 493,396.5C 495.167,415.33 487,422.497 468.5,418C 456.474,415.404 446.307,409.57 438,400.5C 431.75,393.257 426.75,385.257 423,376.5C 414.984,365.804 407.984,354.47 402,342.5C 399.65,345.199 397.65,348.199 396,351.5C 390.333,357.833 384.667,364.167 379,370.5C 374.001,375.997 368.501,380.997 362.5,385.5C 361.071,404.529 352.738,419.695 337.5,431C 310.558,440.196 282.891,446.529 254.5,450C 238.778,451.9 224.111,448.9 210.5,441C 207.264,438.219 204.264,435.219 201.5,432C 189.359,428.605 177.359,424.605 165.5,420C 158.167,416.333 150.833,412.667 143.5,409C 133.107,399.612 122.107,390.946 110.5,383C 91.5187,364.824 78.5187,342.991 71.5,317.5C 72.7299,314.524 72.7299,311.524 71.5,308.5C 79.3457,284.73 91.679,263.564 108.5,245C 115.151,240.013 121.485,234.68 127.5,229C 138.041,222.565 148.707,216.398 159.5,210.5C 160.107,206.619 161.774,203.286 164.5,200.5C 168.159,196.344 172.492,193.178 177.5,191C 206.514,175.16 237.514,166.993 270.5,166.5 Z M 340.5,237.5 C 309.199,215.65 274.532,201.65 236.5,195.5C 229.107,195.532 221.773,195.532 214.5,195.5C 198.698,197.917 183.031,201.417 167.5,206C 168.833,204 170.5,202.333 172.5,201C 201.073,184.057 231.407,175.557 263.5,175.5C 280.852,171.629 298.186,172.462 315.5,178C 320.333,181.5 324.5,185.667 328,190.5C 334.761,205.471 338.928,221.138 340.5,237.5 Z M 209.5,203.5 C 222.766,200.67 233.932,204.003 243,213.5C 245.535,223.958 242.701,232.791 234.5,240C 231.5,241.667 228.5,243.333 225.5,245C 222.542,247.128 221.876,249.794 223.5,253C 237.4,250.367 247.234,255.534 253,268.5C 254.788,278.252 251.621,285.919 243.5,291.5C 239.8,293.562 236.3,295.896 233,298.5C 229.851,297.422 226.684,296.422 223.5,295.5C 213.674,296.088 203.674,297.921 193.5,301C 191.254,302.039 189.087,303.206 187,304.5C 185.982,292.696 184.648,280.696 183,268.5C 182.197,265.756 181.197,263.089 180,260.5C 178.989,259.663 177.822,259.33 176.5,259.5C 184.884,293.73 182.384,327.063 169,359.5C 168.202,361.259 168.369,362.926 169.5,364.5C 173.795,358.75 177.462,352.583 180.5,346C 180.167,345.667 179.833,345.333 179.5,345C 180.723,342.948 181.723,340.781 182.5,338.5C 186.624,343.125 190.957,347.625 195.5,352C 206.017,358.155 214.184,355.989 220,345.5C 220.492,340.449 220.492,335.449 220,330.5C 225.308,325.862 230.641,321.196 236,316.5C 237.125,313.11 238.625,309.943 240.5,307C 242.527,306.502 244.527,306.669 246.5,307.5C 261.881,317.556 262.214,328.056 247.5,339C 244.136,340.682 240.802,342.349 237.5,344C 235.029,347.046 235.029,350.046 237.5,353C 244.454,353.729 251.12,355.395 257.5,358C 265.745,366.258 265.411,374.258 256.5,382C 251.048,384.896 245.715,388.062 240.5,391.5C 241.779,393.146 243.445,394.313 245.5,395C 254.762,394.288 260.762,398.288 263.5,407C 262.571,412.69 260.405,417.857 257,422.5C 255.681,424.487 253.848,425.654 251.5,426C 198.623,430.09 153.29,413.257 115.5,375.5C 119.666,372.916 123.666,370.082 127.5,367C 134.39,359.448 141.223,351.948 148,344.5C 157.179,332.613 166.179,320.613 175,308.5C 175.494,306.866 175.66,305.199 175.5,303.5C 154.221,305.663 132.887,307.497 111.5,309C 100.833,309.667 90.1667,309.667 79.5,309C 79.0426,308.586 78.7093,308.086 78.5,307.5C 87.1723,284.493 100.172,264.326 117.5,247C 135.333,231.416 155.333,219.416 177.5,211C 188.344,208.592 199.011,206.092 209.5,203.5 Z M 244.5,204.5 C 256.494,206.887 268.161,210.387 279.5,215C 281.96,216.458 284.127,218.291 286,220.5C 287.75,224.336 289.75,228.002 292,231.5C 290.94,243.234 285.107,251.734 274.5,257C 270.624,259.539 270.624,261.872 274.5,264C 288.399,264.239 297.899,271.072 303,284.5C 305.052,298.792 299.218,308.292 285.5,313C 281.577,315.696 281.244,318.363 284.5,321C 298.924,320.513 307.591,327.18 310.5,341C 309.206,350.291 304.206,356.624 295.5,360C 287.401,366.267 288.568,369.1 299,368.5C 307.458,371.954 312.624,378.121 314.5,387C 314.671,390.129 313.838,392.963 312,395.5C 306.829,401.194 302.662,407.528 299.5,414.5C 289.286,418.871 278.62,421.538 267.5,422.5C 269.012,418.631 270.345,414.631 271.5,410.5C 271.875,401.434 268.209,394.6 260.5,390C 272.317,380.584 274.484,369.418 267,356.5C 262.545,353.023 257.712,350.189 252.5,348C 268.062,337.236 270.562,324.069 260,308.5C 256.79,304.813 252.956,301.979 248.5,300C 259.459,290.109 262.959,277.943 259,263.5C 254.464,256.134 248.297,250.467 240.5,246.5C 247.651,239.331 251.651,230.664 252.5,220.5C 250.777,214.645 248.11,209.311 244.5,204.5 Z M 294.5,221.5 C 294.56,220.957 294.893,220.624 295.5,220.5C 302.658,223.912 309.658,227.578 316.5,231.5C 324.603,236.729 332.603,242.229 340.5,248C 346.94,255.717 348.44,264.217 345,273.5C 341.658,278.008 337.825,282.008 333.5,285.5C 331.922,288.937 332.255,292.104 334.5,295C 349.082,301.681 353.749,312.515 348.5,327.5C 346.105,330.861 343.105,333.528 339.5,335.5C 338.123,337.289 337.123,339.289 336.5,341.5C 340.409,346.915 344.909,351.915 350,356.5C 350.837,358.351 351.671,360.184 352.5,362C 351.51,365.759 350.677,369.593 350,373.5C 344.909,381.354 339.575,389.021 334,396.5C 328.997,399.716 323.831,402.549 318.5,405C 317.667,406.5 316.5,407.667 315,408.5C 317.175,404.469 319.175,400.136 321,395.5C 324.358,381.385 319.525,371.218 306.5,365C 316.83,357.822 320.663,347.988 318,335.5C 313.512,327.313 307.345,320.813 299.5,316C 309.004,308.506 312.837,298.672 311,286.5C 307.949,273.285 300.115,264.285 287.5,259.5C 292.339,255.485 295.839,250.485 298,244.5C 298.384,239.465 298.551,234.632 298.5,230C 297.815,226.799 296.481,223.965 294.5,221.5 Z M 473.5,243.5 C 476.85,243.335 480.183,243.502 483.5,244C 487.49,245.908 488.49,248.908 486.5,253C 484.481,256.712 482.648,260.546 481,264.5C 479.956,269.034 481.123,272.867 484.5,276C 490.997,277.833 497.497,279.666 504,281.5C 507.693,284.221 508.359,287.555 506,291.5C 497.556,298.565 492.056,307.398 489.5,318C 489.788,321.319 490.621,324.485 492,327.5C 497.579,332.038 503.412,336.205 509.5,340C 514.951,345.56 514.618,350.894 508.5,356C 501.765,360.698 494.765,365.031 487.5,369C 482.163,372.335 478.496,377.002 476.5,383C 477.97,389.946 480.303,396.612 483.5,403C 483.197,405.878 481.697,407.711 479,408.5C 473.211,406.347 467.378,404.18 461.5,402C 457.244,398.955 453.077,395.788 449,392.5C 436.041,373.967 424.374,354.634 414,334.5C 410.37,332.704 407.537,330.037 405.5,326.5C 401.285,333.058 396.285,339.058 390.5,344.5C 390.026,333.342 386.026,323.842 378.5,316C 384.597,309.38 387.764,301.547 388,292.5C 391.668,299.87 395.335,307.204 399,314.5C 401.971,316.567 405.138,316.9 408.5,315.5C 414.012,294.379 424.679,275.879 440.5,260C 450.582,252.292 461.582,246.792 473.5,243.5 Z M 353.5,255.5 C 366.033,263.516 374.533,274.516 379,288.5C 380.243,298.012 377.076,305.678 369.5,311.5C 367.993,314.818 368.493,317.818 371,320.5C 380.611,328.21 383.278,337.877 379,349.5C 375.389,355.444 371.389,361.111 367,366.5C 366.393,370.381 364.726,373.714 362,376.5C 361.1,375.23 359.934,374.23 358.5,373.5C 360.066,366.692 359.566,360.026 357,353.5C 353.833,349.667 350.667,345.833 347.5,342C 352.487,339.331 355.653,335.164 357,329.5C 359.61,317.648 357.443,306.815 350.5,297C 347.109,295.311 344.109,293.144 341.5,290.5C 343.984,288.041 345.984,285.374 347.5,282.5C 348.5,282.5 349.5,282.5 350.5,282.5C 352.565,276.844 354.232,271.011 355.5,265C 354.778,261.829 354.111,258.662 353.5,255.5 Z M 218.5,300.5 C 223.6,301.025 228.6,302.025 233.5,303.5C 234.201,307.819 233.034,311.486 230,314.5C 225.333,318.5 220.667,322.5 216,326.5C 215.167,328.167 214.333,329.833 213.5,331.5C 217.672,339.951 215.672,346.285 207.5,350.5C 199.935,345.778 192.769,340.445 186,334.5C 184.888,332.61 184.054,330.61 183.5,328.5C 184.407,322.815 185.407,317.148 186.5,311.5C 189.322,308.587 192.655,306.42 196.5,305C 203.882,303.024 211.216,301.524 218.5,300.5 Z M 162.5,310.5 C 163.239,310.369 163.906,310.536 164.5,311C 162.635,313.858 160.468,316.358 158,318.5C 155.073,317.283 152.573,315.45 150.5,313C 154.573,311.971 158.573,311.138 162.5,310.5 Z M 123.5,313.5 C 127.182,313.335 130.848,313.501 134.5,314C 132.021,317.647 129.021,320.813 125.5,323.5C 123.167,320.833 120.833,318.167 118.5,315.5C 120.291,314.83 121.958,314.163 123.5,313.5 Z M 79.5,315.5 C 81.7018,315.276 84.0351,314.943 86.5,314.5C 92.449,315.292 98.449,315.792 104.5,316C 100.388,320.391 96.8879,325.224 94,330.5C 89.2996,325.301 84.4663,320.301 79.5,315.5 Z M 141.5,316.5 C 145.774,319.648 150.108,322.815 154.5,326C 150.263,330.068 146.263,334.235 142.5,338.5C 137.833,336.667 133.167,334.833 128.5,333C 133.102,327.582 137.435,322.082 141.5,316.5 Z M 110.5,320.5 C 114.998,324.83 119.665,328.997 124.5,333C 121.737,339.787 119.071,346.62 116.5,353.5C 111.216,349.185 105.55,345.351 99.5,342C 95.5855,341.043 93.0855,342.543 92,346.5C 87.5211,341.082 84.5211,335.082 83,328.5C 86.4032,332.182 89.9032,335.682 93.5,339C 94.8333,339.667 96.1667,339.667 97.5,339C 101.24,332.329 105.574,326.162 110.5,320.5 Z M 120.5,362.5 C 123.626,355.253 126.459,347.92 129,340.5C 132.039,341.603 134.873,343.103 137.5,345C 135.383,346.731 133.883,348.898 133,351.5C 129.29,355.712 125.123,359.379 120.5,362.5 Z M 120.5,362.5 C 117.158,365.268 113.658,367.934 110,370.5C 105.19,366.686 101.023,362.186 97.5,357C 98.4601,355.581 99.2935,354.081 100,352.5C 105.167,355.667 110.333,358.833 115.5,362C 117.134,362.494 118.801,362.66 120.5,362.5 Z M 213.5,433.5 C 214.496,433.586 215.329,433.252 216,432.5C 225.869,433.608 235.536,434.274 245,434.5C 261.082,431.112 276.915,428.112 292.5,425.5C 303.5,420.667 314.5,415.833 325.5,411C 332.561,405.31 339.894,399.976 347.5,395C 348.448,394.517 349.448,394.351 350.5,394.5C 347.967,406.312 341.634,416.146 331.5,424C 302.061,433.325 272.227,439.825 242,443.5C 231.437,442.815 221.937,439.481 213.5,433.5 Z"/></g>
<g><path style="opacity:0.52" fill="#000000" d="M 152.5,242.5 C 153.5,242.5 154.5,242.5 155.5,242.5C 155.739,244.467 155.406,246.301 154.5,248C 143.565,255.628 132.232,262.461 120.5,268.5C 121.279,265.366 122.945,262.699 125.5,260.5C 130.43,258.12 134.93,255.12 139,251.5C 140.252,248.986 140.752,246.32 140.5,243.5C 143.099,243.549 145.266,244.549 147,246.5C 149.015,245.303 150.849,243.97 152.5,242.5 Z"/></g>
<g><path style="opacity:0.785" fill="#000000" d="M 151.5,263.5 C 156.85,262.863 159.017,265.197 158,270.5C 152.39,274.718 146.557,278.552 140.5,282C 137.685,283.721 134.685,284.388 131.5,284C 130.362,282.266 129.862,280.432 130,278.5C 136.518,272.468 143.684,267.468 151.5,263.5 Z"/></g>
<g><path style="opacity:0.007" fill="#000000" d="M 106.5,265.5 C 107.5,265.5 108.5,265.5 109.5,265.5C 109.5,266.5 109.5,267.5 109.5,268.5C 113.29,268.008 113.956,268.841 111.5,271C 109.667,272.167 107.833,273.333 106,274.5C 103.259,273.778 102.259,272.112 103,269.5C 104.376,268.295 105.542,266.962 106.5,265.5 Z"/></g>
</svg>
