<svg xmlns="http://www.w3.org/2000/svg" width="611" height="611" viewBox="0 0 611 611" version="1.1"><path d="" stroke="none" fill="#080404" fill-rule="evenodd"/><path d="M 268 167.723 C 240.936 169.444, 208.737 174.550, 201.336 178.294 C 199.776 179.083, 196.063 180.526, 193.085 181.500 C 187.781 183.234, 173.939 189.966, 167 194.187 C 161.724 197.396, 154 205.931, 154 208.552 C 154 210.279, 152.864 211.357, 149.250 213.060 C 146.637 214.292, 143.068 216.357, 141.317 217.650 C 139.566 218.942, 137.686 220, 137.138 220 C 136.591 220, 135.548 220.563, 134.821 221.250 C 134.095 221.938, 130.800 224.263, 127.500 226.417 C 118.193 232.493, 105.139 243.067, 97.767 250.500 C 94.732 253.560, 80.768 274.685, 76.945 282 C 75.076 285.575, 73.312 288.725, 73.024 289 C 71.869 290.103, 67.996 298.807, 66.476 303.716 C 65.382 307.251, 65.169 309.479, 65.814 310.632 C 66.339 311.570, 66.415 313.552, 65.984 315.057 C 65.294 317.460, 66.292 322.468, 68.760 329 C 69.072 329.825, 69.373 330.725, 69.429 331 C 69.485 331.275, 69.888 332.063, 70.324 332.750 C 70.761 333.438, 70.891 334, 70.614 334 C 68.214 334, 86.857 364.699, 92.446 369.949 C 93.850 371.269, 95 372.764, 95 373.272 C 95 374.336, 101.449 380.254, 111.500 388.413 C 115.350 391.538, 119.293 394.748, 120.261 395.547 C 121.230 396.346, 122.215 397, 122.450 397 C 122.684 397, 124.367 398.392, 126.188 400.093 C 131.999 405.521, 140.978 410.911, 157.500 418.892 C 163 421.549, 168.787 424.031, 170.360 424.408 C 171.934 424.785, 175.084 425.932, 177.360 426.958 C 179.637 427.983, 183.297 429.128, 185.492 429.502 C 187.688 429.876, 189.938 430.466, 190.492 430.813 C 191.047 431.160, 192.068 431.530, 192.762 431.635 C 193.457 431.741, 196.157 433.932, 198.762 436.506 C 203.738 441.420, 211.454 445.520, 221.500 448.589 C 228.395 450.695, 250.594 451.079, 257.500 449.211 C 259.700 448.617, 263.938 447.836, 266.918 447.476 C 269.898 447.117, 273.498 446.381, 274.918 445.841 C 276.338 445.301, 277.620 444.925, 277.767 445.005 C 277.913 445.086, 279.263 444.900, 280.767 444.593 C 282.270 444.286, 285.037 443.782, 286.916 443.474 C 288.795 443.165, 290.626 442.731, 290.986 442.509 C 291.619 442.117, 294.009 441.564, 299.750 440.481 C 320.285 436.605, 330.322 432.719, 336.780 426.141 C 343.099 419.706, 343.463 419.185, 347.130 411.318 C 351.863 401.167, 353.967 394.295, 354.024 388.807 C 354.039 387.282, 355.428 385.483, 358.120 383.500 C 360.360 381.850, 364.961 377.638, 368.346 374.140 C 376.047 366.181, 375.567 366.714, 381.718 359.279 C 384.549 355.857, 388.657 351.248, 390.847 349.036 C 393.037 346.825, 394.993 344.520, 395.195 343.914 C 395.397 343.309, 396.222 344.093, 397.030 345.657 C 397.837 347.221, 398.746 348.725, 399.051 349 C 399.355 349.275, 400.441 351.300, 401.463 353.500 C 402.485 355.700, 405.837 361.276, 408.911 365.891 C 411.985 370.507, 416.107 377.321, 418.070 381.034 C 420.034 384.747, 422.847 389.218, 424.320 390.969 C 425.794 392.720, 427 394.499, 427 394.921 C 427 398.113, 446.005 413.226, 451.818 414.656 C 453.293 415.018, 456.475 416.155, 458.889 417.182 C 461.549 418.313, 465.930 419.097, 470.011 419.172 C 475.890 419.281, 477.193 418.954, 480.282 416.599 C 487.564 411.044, 488.830 403.184, 484 393.500 C 479.580 384.638, 479.771 383.811, 487.500 378.353 C 491.743 375.357, 497.873 372, 499.102 372 C 499.674 372, 500.784 371.438, 501.568 370.750 C 502.352 370.063, 504.975 367.925, 507.396 366 C 509.817 364.075, 512.822 360.700, 514.074 358.500 C 515.326 356.300, 516.678 354.275, 517.077 354 C 518.451 353.053, 518.809 347.085, 517.742 342.883 C 516.568 338.257, 507.100 327.801, 502.870 326.459 C 498.955 325.216, 494 320.663, 494 318.307 C 494 317.101, 496.470 312.601, 499.489 308.307 C 502.508 304.013, 505.873 298.849, 506.968 296.831 C 509.213 292.692, 509.778 284.897, 508.134 280.742 C 506.823 277.427, 499.031 272.259, 494.073 271.418 C 486.464 270.125, 483 268.889, 483 267.464 C 483 266.662, 484.350 263.148, 486 259.656 C 491.603 247.797, 489.099 239.719, 478.973 236.993 C 461.120 232.186, 429.292 248.811, 414.218 270.817 C 407.598 280.482, 407.023 281.422, 404.328 287 C 402.867 290.025, 401.362 292.725, 400.985 293 C 400.608 293.275, 399.643 295.494, 398.840 297.931 L 397.379 302.363 393.573 294.931 C 391.479 290.844, 388.063 285.215, 385.981 282.422 C 378.896 272.919, 362.374 257.820, 349.500 249.084 C 344.033 245.374, 343.489 244.678, 343.375 241.256 C 343.229 236.842, 342.330 231.730, 340.938 227.396 C 340.390 225.690, 339.766 223.384, 339.552 222.272 C 338.930 219.043, 331.947 197.976, 329.683 192.500 C 326.238 184.166, 319.103 175.767, 312.719 172.532 C 306.090 169.172, 283.465 166.739, 268 167.723 M 277.813 173.478 C 277.641 173.626, 270.525 174.029, 262 174.373 C 244.749 175.070, 237.660 175.672, 231 177.006 C 228.525 177.502, 224.475 178.184, 222 178.522 C 216.399 179.286, 200.259 184.371, 193.223 187.588 C 190.320 188.914, 187.309 190, 186.532 190 C 185.754 190, 184.840 190.450, 184.500 191 C 184.160 191.550, 183.283 192, 182.552 192 C 179.529 192, 165.541 201.179, 161.658 205.711 C 159.843 207.830, 159.850 207.853, 162.158 207.286 C 163.446 206.970, 164.950 206.389, 165.500 205.994 C 167.762 204.373, 181.097 200.931, 194.500 198.510 C 220.400 193.831, 240.622 196.033, 271.785 206.925 C 290.630 213.511, 301.740 218.801, 319.500 229.644 C 327.750 234.680, 334.641 238.668, 334.813 238.504 C 336.155 237.231, 328.553 208.040, 324.010 197.024 C 320.754 189.129, 320.247 188.380, 313.882 182.075 C 308.511 176.755, 303.792 175.015, 293 174.377 C 288.875 174.133, 283.841 173.770, 281.813 173.570 C 279.785 173.371, 277.985 173.329, 277.813 173.478 M 213.500 203.722 C 206.399 204.036, 191.956 205.974, 189 207.009 C 187.625 207.490, 184.700 208.125, 182.500 208.420 C 177.515 209.087, 171.140 211.095, 164 214.245 C 157.245 217.226, 154.544 218.225, 154.355 217.815 C 154.275 217.642, 153.263 218.357, 152.105 219.405 C 150.947 220.453, 150 220.945, 150 220.500 C 150 220.055, 149.213 220.375, 148.250 221.211 C 147.287 222.048, 142 225.340, 136.500 228.526 C 118.435 238.992, 101.528 254.171, 95.002 265.782 C 93.698 268.102, 92.317 270, 91.933 270 C 91.305 270, 84 281.559, 84 282.552 C 84 282.777, 82.485 285.332, 80.634 288.231 C 75.858 295.709, 72.972 302.441, 72.718 306.694 C 72.531 309.834, 72.859 310.463, 75 311.080 C 76.375 311.477, 86.852 311.845, 98.281 311.900 C 116.586 311.988, 119.138 312.196, 119.694 313.645 C 121.023 317.109, 118.041 317.522, 96.404 316.873 C 84.907 316.528, 74.713 315.917, 73.750 315.516 C 70.506 314.163, 71.724 319.827, 77.649 333.651 C 78.392 335.384, 79 337.057, 79 337.368 C 79 338.305, 89.393 354.474, 90.227 354.833 C 90.652 355.017, 91 355.597, 91 356.124 C 91 357.223, 94.454 362.254, 97.750 365.954 C 98.988 367.343, 100 368.822, 100 369.240 C 100 369.658, 100.645 370, 101.433 370 C 102.221 370, 103.151 370.900, 103.500 372 C 103.849 373.100, 104.522 374, 104.996 374 C 105.470 374, 107.577 375.623, 109.679 377.607 C 111.780 379.591, 114.850 382.174, 116.500 383.347 C 118.150 384.520, 121.525 387.412, 124 389.772 C 128.014 393.600, 134.053 398.138, 141.873 403.201 C 144.427 404.855, 158.792 412, 159.563 412 C 159.774 412, 163.183 413.575, 167.139 415.500 C 171.094 417.425, 175.130 419, 176.106 419 C 177.083 419, 178.142 419.421, 178.461 419.936 C 178.779 420.451, 179.818 420.873, 180.770 420.874 C 181.721 420.875, 185.425 421.623, 189 422.536 C 206.234 426.937, 236.569 428.414, 250 425.505 C 254.125 424.612, 263.350 422.815, 270.500 421.513 C 280.637 419.667, 286.408 417.919, 296.704 413.578 C 303.966 410.516, 311.391 407.122, 313.204 406.035 C 315.017 404.948, 318.075 403.347, 320 402.478 C 321.925 401.608, 325.975 398.984, 329 396.646 C 332.025 394.308, 337.425 390.450, 341 388.073 C 347.474 383.769, 352 379.526, 352 377.761 C 352 377.251, 352.563 377.031, 353.250 377.272 C 355.300 377.990, 368.248 365.353, 378.500 352.627 C 380.150 350.579, 383.300 346.983, 385.500 344.635 C 393.865 335.707, 398 330.650, 398 329.348 C 398 327.399, 399.766 327.691, 400.427 329.750 C 400.736 330.712, 402.272 332.357, 403.840 333.405 C 405.439 334.473, 408.753 339.084, 411.385 343.905 C 415.573 351.575, 418.084 355.583, 428.250 370.835 C 429.762 373.104, 431 375.644, 431 376.480 C 431 377.316, 431.450 378, 432 378 C 432.550 378, 433 378.434, 433 378.965 C 433 380.509, 438.468 388.702, 441.616 391.876 C 450.047 400.376, 455.559 404.090, 463.441 406.580 C 476.324 410.649, 479.311 408.164, 474.445 397.425 C 472.968 394.166, 471.364 389.515, 470.880 387.088 C 470.120 383.278, 470.329 382.118, 472.411 378.588 C 475.237 373.797, 481.732 368.686, 491.500 363.567 C 502.284 357.916, 507 353.043, 507 347.552 C 507 343.708, 504.392 341.058, 494.297 334.648 C 490.336 332.132, 486.318 328.888, 485.369 327.440 C 483.439 324.495, 482.794 312.432, 484.500 311.214 C 485.050 310.821, 486.305 308.925, 487.290 307 C 488.274 305.075, 491.333 301.025, 494.088 298 C 504.526 286.539, 503.557 283.381, 488.397 279.460 C 482.807 278.014, 477.645 276.055, 476.536 274.958 C 473.565 272.021, 474.032 265.786, 477.821 257.792 C 481.837 249.316, 481.937 246.317, 478.250 244.876 C 474.072 243.242, 462.151 244.455, 456.433 247.096 C 442.527 253.516, 427.597 264.816, 423.197 272.250 C 422.301 273.762, 421.216 275, 420.784 275 C 420.353 275, 420 275.449, 420 275.997 C 420 276.546, 417.922 279.808, 415.383 283.247 C 409.414 291.330, 402.677 306.527, 402.541 312.214 C 402.518 313.157, 401.720 314.709, 400.766 315.663 C 398.021 318.407, 394.176 316.417, 390.794 310.500 C 389.222 307.750, 387.675 304.825, 387.357 304 C 385.369 298.841, 379.169 287.818, 376.109 284 C 368.998 275.128, 349.299 256.711, 342.415 252.500 C 340.617 251.400, 335.299 247.930, 330.597 244.788 C 325.895 241.647, 320.638 238.272, 318.913 237.288 C 309.121 231.703, 299.725 226.653, 294 223.899 C 290.425 222.179, 286.375 220.207, 285 219.518 C 283.625 218.828, 279.350 217.279, 275.500 216.077 C 271.650 214.875, 267.719 213.466, 266.764 212.946 C 265.809 212.426, 264.467 212, 263.783 212 C 263.099 212, 260.280 211.150, 257.519 210.111 C 249.620 207.139, 239.278 205.039, 229.500 204.423 C 224.550 204.111, 220.050 203.776, 219.500 203.678 C 218.950 203.580, 216.250 203.600, 213.500 203.722 M 116.445 249.959 C 113.517 251.145, 107.834 257.900, 108.195 259.764 C 108.724 262.486, 110.758 262.218, 112.547 259.189 C 114.578 255.752, 118.856 252.998, 122.154 253.005 C 123.444 253.008, 126.300 254.119, 128.500 255.474 C 133.536 258.576, 135.234 258.659, 134.820 255.784 C 134.320 252.322, 128.510 248.989, 123.102 249.063 C 120.571 249.098, 117.575 249.501, 116.445 249.959 M 170 261.757 C 170 262.723, 170.464 265.085, 171.031 267.007 C 172.660 272.531, 175 291.683, 175 299.500 C 175 315.709, 169.509 343.966, 163.623 358.053 C 162.716 360.223, 162.474 362.149, 163.001 363.002 C 163.620 364.002, 165.082 361.857, 168.150 355.450 C 170.507 350.527, 172.542 346.050, 172.673 345.500 C 173.850 340.552, 175.839 334.841, 175.911 336.203 C 176.098 339.779, 178.469 343.043, 183.994 347.334 C 190.465 352.359, 193.029 353.861, 197.160 355.046 C 201.340 356.245, 208.856 352.883, 211.887 348.460 C 213.997 345.381, 214.210 344.204, 213.733 338.266 L 213.194 331.553 221.088 324.176 C 227.392 318.285, 229.260 315.862, 230.359 312.149 C 231.833 307.168, 231.500 301.612, 229.641 300.194 C 227.659 298.681, 217.663 296.422, 213.500 296.545 C 203.228 296.850, 188.453 300.355, 182.407 303.922 L 179 305.933 178.931 303.216 C 178.893 301.722, 178.719 299.375, 178.543 298 C 178.368 296.625, 177.905 291.450, 177.516 286.500 C 176.573 274.530, 175.474 268.071, 173.628 263.653 C 172.027 259.821, 170 258.761, 170 261.757 M 120.327 266.468 C 116.899 268.893, 115.599 274.105, 117.366 278.334 C 119.075 282.424, 121.371 283.885, 125.377 283.434 C 132.679 282.611, 135.387 274.618, 130.250 269.051 C 126.842 265.358, 123.226 264.417, 120.327 266.468 M 197 303.495 C 181.096 307.558, 178.793 309.671, 177.204 321.654 C 176.536 326.689, 176.256 331.503, 176.582 332.352 C 177.214 333.999, 194.025 347.946, 197.684 349.858 C 201.018 351.601, 202.504 351.266, 206.022 347.980 L 209.255 344.960 208.616 337.230 C 208.264 332.978, 208.319 329.050, 208.738 328.500 C 209.157 327.950, 211.750 325.707, 214.500 323.515 C 224.427 315.603, 226.983 312.292, 226.993 307.330 C 226.999 304.432, 226.594 304.028, 222.250 302.610 C 215.935 300.547, 207.361 300.848, 197 303.495 M 342.500 394.945 C 341.400 395.396, 339.643 396.717, 338.595 397.882 C 337.547 399.047, 336.085 400, 335.345 400 C 334.605 400, 334 400.420, 334 400.933 C 334 401.446, 332.988 402.185, 331.750 402.576 C 330.512 402.968, 328.150 404.302, 326.500 405.543 C 324.850 406.783, 320.575 409.341, 317 411.228 C 313.425 413.115, 309.600 415.171, 308.500 415.799 C 305.093 417.742, 289.059 424, 287.488 424 C 286.670 424, 286 424.525, 286 425.167 C 286 425.808, 285.741 426.074, 285.425 425.758 C 285.108 425.442, 283.421 425.613, 281.675 426.138 C 279.929 426.663, 274.900 427.738, 270.500 428.527 C 266.100 429.315, 258.225 430.917, 253 432.087 C 245.416 433.785, 240.475 434.190, 228.500 434.095 C 220.250 434.029, 211.481 433.777, 209.014 433.533 C 203.667 433.006, 204.433 433.681, 214.539 438.404 C 223.512 442.598, 233.198 444.460, 241.303 443.551 C 249.890 442.587, 263.291 440.235, 270.783 438.376 C 274.238 437.518, 278.063 436.688, 279.283 436.531 C 280.502 436.374, 287.125 434.850, 294 433.146 C 300.875 431.441, 308.750 429.555, 311.500 428.954 C 325.703 425.849, 332.853 420.387, 339.361 407.669 C 342.336 401.855, 345.494 393.777, 344.680 394.063 C 344.581 394.098, 343.600 394.495, 342.500 394.945" stroke="none" fill="#040404" fill-rule="evenodd"/></svg>