<svg xmlns="http://www.w3.org/2000/svg" width="611" height="611" viewBox="0 0 611 611" version="1.1"><path d="" stroke="none" fill="#080404" fill-rule="evenodd"/><path d="M 267.500 152.625 C 250.845 154.084, 240.125 155.626, 234.170 157.419 C 233.252 157.695, 231.375 158.150, 230 158.429 C 224.025 159.641, 220.289 160.792, 217.300 162.341 C 215.539 163.254, 213.491 164, 212.747 164 C 212.004 164, 206.361 166.469, 200.208 169.486 C 182.120 178.355, 173.992 184.905, 171.960 192.250 C 171.343 194.482, 170.308 196, 169.404 196 C 167.748 196, 163.135 198.447, 152.429 205.004 C 148.618 207.339, 143.950 210.134, 142.057 211.216 C 137.051 214.075, 130.556 219.525, 122.544 227.587 C 113.279 236.910, 111.537 238.972, 104.630 248.797 C 99.394 256.243, 96.614 260.876, 88.304 276 C 84.645 282.660, 81.645 292.868, 82.902 294.382 C 83.512 295.117, 83.611 296.808, 83.145 298.551 C 82.341 301.555, 83.835 308.554, 86.581 314.651 C 87.361 316.384, 88 318.241, 88 318.777 C 88 320.383, 92.820 330.150, 96.272 335.538 C 104.249 347.987, 121.265 368, 123.873 368 C 124.401 368, 124.983 368.338, 125.167 368.752 C 125.350 369.166, 128.200 371.753, 131.500 374.502 C 134.800 377.251, 137.650 379.837, 137.833 380.250 C 138.017 380.663, 138.579 381, 139.083 381 C 139.587 381, 140.823 381.788, 141.829 382.750 C 145.930 386.675, 148.884 388.764, 156.703 393.272 C 161.215 395.872, 165.140 398, 165.425 398 C 165.711 398, 170.119 399.968, 175.222 402.372 C 180.325 404.777, 185.625 407.050, 187 407.424 C 188.375 407.798, 191.525 408.936, 194 409.954 C 196.475 410.971, 201.419 412.627, 204.987 413.632 C 210.033 415.054, 212.366 416.390, 215.487 419.646 C 220.034 424.389, 230.405 430.345, 237.043 432.025 C 253.617 436.221, 265.184 435.624, 295 429.036 C 299.675 428.003, 305.300 426.825, 307.500 426.418 C 309.700 426.011, 311.950 425.558, 312.500 425.411 C 313.050 425.263, 315.525 424.684, 318 424.125 C 320.475 423.565, 325.491 422.425, 329.147 421.590 C 343.637 418.284, 350.895 414.114, 359.188 404.328 C 364.547 398.005, 370.110 385.138, 371.501 375.849 C 372.122 371.700, 373.187 370.185, 381.349 361.832 C 386.382 356.681, 393.200 349.373, 396.500 345.593 C 399.800 341.812, 404.637 336.487, 407.250 333.758 C 409.863 331.030, 412 328.393, 412 327.899 C 412 325.387, 413.944 327.663, 416.566 333.245 C 418.180 336.680, 422.650 344.218, 426.500 349.995 C 430.350 355.773, 434.839 363.200, 436.475 366.500 C 438.111 369.800, 440.249 373.372, 441.225 374.439 C 442.201 375.505, 443 376.759, 443 377.225 C 443 378.950, 454.691 389.906, 460.500 393.626 C 467.240 397.941, 474.624 400.637, 483.500 402.022 C 491.490 403.268, 495.271 402.438, 499.580 398.490 C 502.750 395.587, 503.236 394.490, 503.721 389.140 C 504.212 383.727, 503.935 382.424, 501.135 376.953 C 497.405 369.664, 497.281 368.076, 500.245 365.472 C 503.251 362.831, 514.244 356.002, 515.500 355.996 C 517.376 355.988, 531.101 343.372, 533.523 339.431 C 536.205 335.064, 536.764 327.987, 534.715 324.337 C 532.253 319.955, 526.979 315.123, 518.994 309.935 C 511.084 304.796, 510.820 304.500, 511.329 301.363 C 511.798 298.472, 514.485 293.752, 517.587 290.369 C 521.375 286.237, 525.471 278.143, 526.069 273.604 C 527.421 263.354, 522.249 257.561, 509.500 255.046 C 498.253 252.827, 498.479 253.224, 503 243.656 C 511.071 226.574, 502.604 217.088, 481.900 220.014 C 471.276 221.516, 450.456 233.494, 440.345 243.921 C 430.882 253.681, 420.205 270.414, 417.006 280.500 C 415.067 286.613, 414.958 286.610, 411.790 280.353 C 406.633 270.172, 400.166 261.466, 392.113 253.866 C 380.337 242.751, 377.261 240.152, 368.275 233.725 C 361.404 228.810, 360.181 227.531, 360.959 226.076 C 361.986 224.157, 359.732 213.802, 356.039 203.474 C 354.864 200.188, 353.532 196.150, 353.080 194.500 C 351.878 190.113, 347.459 178.047, 345.572 174 C 339.766 161.543, 332.977 155.906, 320.097 152.849 C 313.322 151.240, 284.696 151.119, 267.500 152.625 M 294.819 157.514 C 294.630 157.704, 289.305 157.961, 282.987 158.086 C 272.253 158.298, 251.659 160.126, 246 161.369 C 244.625 161.671, 241.626 162.143, 239.335 162.418 C 233.475 163.121, 217.539 167.802, 211 170.741 C 207.975 172.101, 203.706 173.932, 201.512 174.810 C 193.305 178.097, 182.666 185.034, 178.658 189.711 C 176.843 191.830, 176.850 191.853, 179.158 191.286 C 180.446 190.970, 181.950 190.389, 182.500 189.994 C 183.050 189.600, 186.650 188.346, 190.500 187.207 C 196.674 185.382, 200.937 184.462, 212.500 182.461 C 214.150 182.176, 216.175 181.689, 217 181.381 C 220.539 180.055, 246.843 180.210, 255.433 181.606 C 265.561 183.252, 284.500 188.667, 293.500 192.490 C 295.150 193.190, 298.300 194.322, 300.500 195.004 C 304.627 196.283, 322.112 204.027, 323 204.970 C 323.275 205.261, 325.525 206.588, 328 207.918 C 330.475 209.248, 336.872 212.961, 342.216 216.168 C 347.560 219.376, 352.134 222, 352.379 222 C 353.391 222, 351.343 211.629, 347.442 197 C 345.876 191.129, 345.803 190.938, 341.388 181 C 337.433 172.098, 334.823 168.404, 329.792 164.591 C 324.318 160.441, 320.371 159.111, 311.574 158.450 C 307.683 158.158, 302.399 157.750, 299.832 157.544 C 297.265 157.338, 295.009 157.324, 294.819 157.514 M 226 187.752 C 218.881 188.335, 198.312 192.147, 192.500 193.960 C 189.200 194.990, 184.025 196.921, 181 198.252 C 175.127 200.837, 171.809 202.125, 171 202.136 C 170.725 202.139, 169.713 202.855, 168.750 203.726 C 167.787 204.597, 167 205.041, 167 204.712 C 167 204.194, 158.329 209.461, 155.491 211.703 C 154.936 212.141, 152.011 213.799, 148.991 215.387 C 136.706 221.845, 117.348 239.625, 112.595 248.816 C 111.743 250.463, 110.249 252.593, 109.273 253.548 C 107.473 255.312, 102.806 262.765, 101.096 266.607 C 100.580 267.765, 98.630 271.140, 96.762 274.107 C 91.943 281.758, 88.616 291.414, 89.944 293.896 C 91.653 297.088, 99.840 299.152, 110.734 299.136 C 121.595 299.119, 126.740 298.293, 138.500 294.675 C 149.448 291.308, 153 290.734, 153 292.334 C 153 295.932, 147.854 299.063, 137.500 301.764 C 125.012 305.021, 110.476 306.195, 102.500 304.590 C 97.427 303.569, 94.277 302.607, 91.615 301.264 C 88.809 299.849, 88.745 299.873, 89.267 302.155 C 90.926 309.408, 96.422 321.727, 101.828 330.308 C 105.223 335.696, 108 340.324, 108 340.593 C 108 341.292, 112.103 346.982, 114.750 349.954 C 115.987 351.343, 117 352.822, 117 353.240 C 117 353.658, 117.645 354, 118.433 354 C 119.221 354, 120.144 354.877, 120.484 355.949 C 120.824 357.021, 121.867 358.143, 122.801 358.442 C 123.736 358.742, 126.158 360.452, 128.183 362.243 C 133.685 367.108, 135.982 369, 136.385 369 C 136.584 369, 138.717 370.837, 141.124 373.083 C 148.496 379.960, 159.014 386.962, 169.500 391.973 C 189.296 401.434, 192.808 403, 194.226 403 C 195.019 403, 195.976 403.309, 196.354 403.687 C 196.732 404.065, 197.819 404.488, 198.770 404.628 C 199.722 404.767, 203.200 405.585, 206.500 406.445 C 223.740 410.939, 252.930 412.422, 267 409.519 C 271.125 408.668, 277.200 407.508, 280.500 406.942 C 283.800 406.375, 287.625 405.705, 289 405.452 C 290.375 405.199, 293.300 404.705, 295.500 404.354 C 297.700 404.002, 301.975 402.483, 305 400.977 C 308.025 399.471, 314.325 396.651, 319 394.709 C 329.949 390.162, 342.420 383.509, 347.500 379.506 C 349.700 377.773, 354.425 374.412, 358 372.039 C 365.181 367.271, 367.127 365.500, 368.972 362.052 C 369.753 360.593, 370.470 360.142, 370.900 360.839 C 371.758 362.226, 380.592 353.846, 391.813 341 C 401.191 330.265, 410.527 319.769, 413.500 316.619 C 414.600 315.454, 415.556 314.163, 415.625 313.750 C 415.694 313.337, 415.806 312.727, 415.875 312.394 C 415.944 312.061, 417.237 313.105, 418.750 314.715 C 420.262 316.325, 422.220 318.060, 423.099 318.571 C 424.705 319.504, 425.780 321.245, 430.467 330.500 C 433.725 336.933, 435.952 340.741, 438.750 344.658 C 439.988 346.391, 441 348.160, 441 348.590 C 441 349.020, 441.844 350.300, 442.875 351.436 C 443.907 352.571, 446.205 356.200, 447.983 359.500 C 457.552 377.265, 466.613 385.438, 481.833 390.032 C 487.655 391.789, 489.664 392.018, 491.583 391.144 C 494.685 389.731, 494.655 387.227, 491.462 380.925 C 490.066 378.170, 488.522 373.798, 488.031 371.208 C 487.254 367.114, 487.444 365.978, 489.480 362.500 C 492.184 357.881, 498.916 352.538, 507.500 348.195 C 515.105 344.348, 519.521 341.038, 522.582 336.888 C 526.254 331.912, 525.780 328.764, 520.750 324.701 C 518.413 322.813, 516.050 321.091, 515.500 320.874 C 511.976 319.488, 505.018 314.239, 503.224 311.613 C 497.877 303.790, 500.078 295.356, 510.814 282.533 C 518.526 273.321, 519.397 271.628, 517.900 268.750 C 517.256 267.512, 516.643 266.391, 516.538 266.257 C 516.433 266.123, 511.990 264.935, 506.663 263.615 C 496.201 261.024, 492.048 258.943, 491.917 256.227 C 491.871 255.277, 491.708 253.375, 491.556 252 C 491.403 250.625, 492.791 246.258, 494.639 242.296 C 498.710 233.571, 498.886 230.627, 495.470 228.389 C 492.067 226.159, 482.097 226.964, 474.308 230.097 C 466.412 233.273, 453.318 241.900, 447.384 247.834 C 444.698 250.520, 439.839 256.719, 436.586 261.609 C 433.333 266.499, 429.920 271.625, 429.002 273 C 426.943 276.083, 419.993 293.908, 419.997 296.095 C 419.999 296.972, 419.098 298.506, 417.996 299.504 C 416.332 301.010, 415.564 301.122, 413.468 300.167 C 412.080 299.535, 410.652 298.226, 410.295 297.259 C 409.938 296.291, 408.601 293.821, 407.323 291.770 C 406.045 289.718, 405 287.559, 405 286.972 C 405 286.384, 403.425 283.442, 401.500 280.433 C 399.575 277.423, 398 274.629, 398 274.223 C 398 271.332, 365.993 239.214, 359.933 236.024 C 357.971 234.991, 355.779 233.438, 355.061 232.573 C 354.343 231.708, 353.405 231, 352.978 231 C 352.551 231, 349.859 229.424, 346.996 227.497 C 344.133 225.571, 340.151 223.232, 338.146 222.299 C 336.141 221.367, 334.266 220.271, 333.980 219.865 C 333.693 219.458, 332.343 218.639, 330.980 218.046 C 329.616 217.452, 326.475 215.798, 324 214.369 C 317.073 210.371, 306.178 205, 304.993 205 C 304.408 205, 302.933 204.377, 301.715 203.617 C 298.786 201.787, 274.608 193.585, 264.500 190.991 C 254.693 188.475, 236.188 186.918, 226 187.752 M 138.500 239.900 C 136.300 240.921, 133.003 243.331, 131.172 245.256 C 127.817 248.785, 125.375 255.775, 126.948 257.348 C 128.441 258.841, 131.452 257.075, 133 253.797 C 133.825 252.050, 136.232 249.244, 138.349 247.561 C 141.745 244.860, 142.922 244.511, 148.349 244.590 C 155.402 244.693, 159.943 246.652, 163.134 250.968 C 165.582 254.279, 167.312 255.201, 169.500 254.362 C 174.480 252.451, 166.863 241.928, 158.758 239.521 C 151.816 237.459, 143.422 237.616, 138.500 239.900 M 275.437 240.705 C 273.830 242.313, 273.859 242.500, 275.937 243.955 C 281.720 248.006, 284.837 251.285, 287.425 256.039 C 289.796 260.395, 290.144 261.952, 289.622 265.858 C 288.956 270.849, 284.200 280.932, 280.594 285 C 277.948 287.984, 275.763 292.807, 276.509 294.015 C 276.803 294.491, 278.722 294.303, 280.772 293.597 C 287.541 291.268, 294.503 278.618, 295.569 266.712 C 296.136 260.374, 295.915 258.825, 293.742 253.930 C 292.382 250.867, 290.120 247.267, 288.716 245.930 C 280.912 238.504, 278.563 237.580, 275.437 240.705 M 187 245.290 C 187 245.999, 187.620 249.037, 188.379 252.040 C 191.776 265.491, 192.782 289.890, 190.502 303.500 C 190.226 305.150, 189.729 308.075, 189.398 310 C 189.067 311.925, 188.620 314.625, 188.405 316 C 187.872 319.402, 185.284 328.923, 182.394 338.110 C 179.732 346.572, 179.474 348.443, 181.109 347.433 C 182.626 346.495, 190.822 329.142, 191.611 325.195 C 192.369 321.403, 193.549 321.066, 194.386 324.401 C 194.937 326.597, 205.020 334.927, 210.684 337.867 C 216.060 340.656, 225.137 337.969, 228.884 332.479 C 230.985 329.400, 231.210 328.172, 230.777 322.125 L 230.286 315.265 238.279 307.930 C 248.488 298.561, 251.047 292.587, 247.854 285.579 C 244.175 277.503, 217.164 278.624, 199.865 287.570 C 198.351 288.352, 196.895 288.639, 196.628 288.207 C 196.361 287.776, 196.142 284.965, 196.142 281.961 C 196.140 273.178, 194.003 254.894, 192.387 249.837 C 191.568 247.273, 190.209 244.910, 189.367 244.587 C 187.223 243.764, 187 243.831, 187 245.290 M 144.299 254.575 C 140.504 256.504, 137.784 260.274, 138.618 262.448 C 139.411 264.515, 140.670 264.404, 143.727 262 C 147.090 259.355, 149.432 259.477, 154.719 262.575 C 158.225 264.630, 159.405 264.908, 160.557 263.953 C 163.054 261.881, 162.168 259.139, 158.140 256.474 C 153.123 253.154, 148.375 252.503, 144.299 254.575 M 335.983 279.032 C 334.892 281.070, 335.195 281.629, 339.273 285.115 C 344.532 289.610, 347.149 295.350, 347.214 302.529 C 347.260 307.705, 344.525 318.995, 343.222 319.006 C 342.279 319.015, 338.947 324.620, 337.430 328.750 L 336.236 332 340.077 332 C 342.972 332, 344.560 331.322, 346.517 329.250 C 349.759 325.819, 352.956 319.087, 354.562 312.308 C 356.126 305.708, 354.837 292.671, 352.259 289.028 C 351.276 287.637, 349.888 285.375, 349.174 284 C 347.508 280.789, 343.869 278.124, 340.131 277.376 C 337.759 276.902, 336.950 277.225, 335.983 279.032 M 226 284.680 C 219.134 285.386, 207.443 288.263, 204 290.094 C 196.264 294.207, 196.264 294.207, 194.382 310.303 L 193.704 316.107 199.602 321.592 C 207.039 328.507, 215.190 334, 218.015 334 C 219.212 334, 221.558 333.027, 223.227 331.838 C 226.262 329.677, 226.263 329.673, 225.726 321.833 C 225.112 312.878, 224.824 313.414, 234.844 304.916 C 242.632 298.312, 244.689 294.620, 244.111 288.289 C 243.987 286.938, 234.791 283.911, 231.568 284.160 C 230.431 284.248, 227.925 284.482, 226 284.680 M 277.607 331.582 C 276.632 334.122, 276.817 334.592, 280.552 339.063 C 285.881 345.440, 287.278 349.458, 286.586 356.407 C 286.173 360.558, 285.214 363.382, 283.363 365.907 C 280.259 370.140, 272.147 378, 270.882 378 C 268.805 378, 270.247 380.621, 272.993 381.837 C 279.466 384.702, 285.339 380.653, 291.061 369.381 C 293.979 363.630, 294.336 362.033, 294.285 354.951 C 294.239 348.499, 293.739 345.987, 291.653 341.723 C 287.097 332.410, 279.417 326.866, 277.607 331.582 M 359.500 378.945 C 358.400 379.396, 356.643 380.717, 355.595 381.882 C 354.547 383.047, 353.085 384, 352.345 384 C 351.605 384, 351 384.420, 351 384.933 C 351 385.446, 349.988 386.185, 348.750 386.576 C 347.512 386.968, 345.150 388.302, 343.500 389.543 C 337.098 394.354, 309.556 407, 305.478 407 C 304.757 407, 304.017 407.415, 303.833 407.922 C 303.650 408.430, 301.485 409.142, 299.021 409.505 C 296.558 409.868, 294.201 410.375, 293.785 410.633 C 293.369 410.890, 290.659 411.313, 287.764 411.572 C 284.869 411.831, 281.600 412.476, 280.500 413.005 C 275.292 415.512, 259.142 418.089, 248.706 418.080 C 237.537 418.070, 224.679 417.247, 222 416.372 C 218.620 415.267, 222.851 418.049, 229.654 421.404 C 239.147 426.086, 249.251 428.340, 257.267 427.565 C 266.426 426.678, 281.744 424.092, 287.702 422.427 C 290.563 421.627, 294.163 420.807, 295.702 420.606 C 297.241 420.405, 303.900 418.897, 310.500 417.254 C 317.100 415.612, 325.200 413.666, 328.500 412.929 C 331.800 412.192, 335.625 411.009, 337 410.300 C 338.375 409.592, 340.131 409.010, 340.902 409.006 C 342.794 408.998, 350.930 402.797, 350.969 401.333 C 350.986 400.692, 351.360 400.017, 351.800 399.833 C 352.548 399.522, 360.195 386.363, 359.973 385.771 C 359.917 385.622, 360.085 384.825, 360.347 384 C 360.957 382.074, 361.860 377.981, 361.656 378.063 C 361.570 378.098, 360.600 378.495, 359.500 378.945" stroke="none" fill="#040404" fill-rule="evenodd"/></svg>