<svg xmlns="http://www.w3.org/2000/svg" width="611" height="611" viewBox="0 0 611 611" version="1.1"><path d="" stroke="none" fill="#080404" fill-rule="evenodd"/><path d="M 269.500 168.127 C 246.753 169.720, 220.924 173.856, 210.894 177.512 C 208.477 178.393, 203.575 180.170, 200 181.461 C 180.238 188.598, 162.932 200.617, 161.313 208.328 C 160.951 210.050, 159.794 211.508, 158.357 212.055 C 154.335 213.584, 128.852 230.041, 122 235.534 C 105.820 248.506, 93.700 263.303, 83.941 282 C 82.074 285.575, 80.312 288.725, 80.024 289 C 78.870 290.101, 74.997 298.804, 73.482 303.698 C 72.423 307.120, 72.183 309.511, 72.780 310.698 C 73.278 311.689, 73.394 313.625, 73.037 315 C 72.477 317.159, 73.829 324.177, 75.735 329 C 76.061 329.825, 76.373 330.725, 76.429 331 C 76.485 331.275, 76.888 332.063, 77.324 332.750 C 77.761 333.438, 77.891 334, 77.614 334 C 76.561 334, 82.030 344.985, 86.621 352.090 C 95.992 366.592, 110.768 384, 113.708 384 C 114.418 384, 115 384.383, 115 384.851 C 115 385.318, 117.523 387.681, 120.606 390.101 C 123.690 392.520, 126.808 395.063, 127.535 395.750 C 128.262 396.438, 129.087 397, 129.367 397 C 129.647 397, 131.367 398.392, 133.188 400.093 C 136.440 403.130, 142.056 407.092, 147 409.837 C 157.012 415.395, 173.177 423.230, 176.467 424.121 C 178.650 424.711, 182.250 426.010, 184.467 427.008 C 186.685 428.006, 190.297 429.128, 192.492 429.502 C 194.688 429.876, 196.938 430.466, 197.492 430.813 C 198.047 431.160, 199.078 431.531, 199.784 431.638 C 200.490 431.745, 202.948 433.713, 205.246 436.011 C 209.890 440.655, 219.377 445.783, 228.500 448.581 C 235.427 450.705, 257.658 451.104, 264.500 449.227 C 266.700 448.624, 270.938 447.836, 273.918 447.476 C 276.898 447.117, 280.498 446.381, 281.918 445.841 C 283.338 445.301, 284.620 444.925, 284.767 445.005 C 284.913 445.086, 286.263 444.900, 287.767 444.593 C 289.270 444.286, 292.037 443.782, 293.916 443.474 C 295.795 443.165, 297.626 442.731, 297.986 442.509 C 298.346 442.286, 299.959 441.874, 301.570 441.591 C 313.410 439.519, 328 435.590, 335.410 432.480 C 345.518 428.238, 358.214 409.003, 361.138 393.500 C 362.196 387.894, 363.039 386.011, 365.372 384.041 C 371.948 378.491, 385.472 363.984, 391.500 356.014 C 392.600 354.560, 395.413 351.451, 397.750 349.106 C 400.087 346.760, 402 344.427, 402 343.921 C 402 341.304, 404.054 343.731, 406.932 349.750 C 411.277 358.835, 416.418 367.566, 420.572 372.914 C 422.457 375.342, 424 377.874, 424 378.542 C 424 379.209, 424.631 380.279, 425.402 380.919 C 426.173 381.558, 427.104 383.277, 427.470 384.737 C 427.836 386.197, 429.343 388.835, 430.818 390.599 C 432.293 392.364, 434.850 395.692, 436.500 397.996 C 438.150 400.299, 440.400 402.664, 441.500 403.251 C 442.600 403.837, 444.088 405.146, 444.807 406.159 C 445.525 407.171, 446.586 408, 447.163 408 C 447.740 408, 449.852 409.269, 451.856 410.820 C 456.028 414.049, 469.577 418.782, 475.500 419.079 C 483.302 419.470, 484.800 419.030, 489.001 415.113 C 492.771 411.597, 493.220 410.662, 493.705 405.319 C 494.181 400.062, 493.897 398.769, 491.120 393.566 C 487.413 386.618, 487.231 384.104, 490.250 381.513 C 493.364 378.838, 504.725 372, 506.053 372 C 506.653 372, 507.784 371.438, 508.568 370.750 C 509.352 370.063, 511.975 367.925, 514.396 366 C 516.817 364.075, 519.822 360.700, 521.074 358.500 C 522.326 356.300, 523.805 354.197, 524.360 353.827 C 525.767 352.888, 525.519 342.862, 524.016 339.924 C 522.342 336.652, 512.402 327.262, 509.707 326.407 C 505.939 325.211, 501 320.620, 501 318.313 C 501 316.421, 508.989 303.401, 511.010 302 C 511.407 301.725, 512.682 299.624, 513.844 297.331 C 516.160 292.764, 516.810 284.973, 515.211 280.944 C 513.768 277.307, 508.001 273.240, 502.345 271.870 C 499.680 271.225, 495.813 270.298, 493.750 269.810 C 491.687 269.322, 490 268.311, 490 267.564 C 490 266.817, 491.350 263.484, 493 260.159 C 496.243 253.622, 497.058 244.969, 494.718 241.904 C 492.969 239.611, 487.839 237.158, 483.266 236.427 C 469.470 234.221, 444.536 245.290, 430.342 259.921 C 421.439 269.100, 409.523 288.415, 406.009 299.366 L 404.768 303.232 400.775 295.366 C 394.290 282.591, 384.720 271.279, 370.856 260 C 368.490 258.075, 365.773 255.731, 364.819 254.792 C 363.865 253.853, 360.173 251.246, 356.616 248.999 C 350.757 245.299, 350.160 244.612, 350.275 241.707 C 350.419 238.045, 349.427 231.938, 347.951 227.396 C 347.396 225.690, 346.762 223.362, 346.543 222.225 C 344.832 213.336, 335.501 188.604, 332.122 184 C 328.606 179.207, 323.105 174.200, 319.500 172.510 C 310.818 168.438, 290.494 166.657, 269.500 168.127 M 284.832 173.460 C 284.649 173.620, 277.750 174.019, 269.500 174.346 C 255.544 174.900, 241.657 176.161, 235.931 177.395 C 234.594 177.683, 231.475 178.163, 229 178.462 C 224.053 179.061, 207.965 184.070, 201.207 187.115 C 198.847 188.180, 195.022 189.779, 192.707 190.670 C 186.513 193.054, 170.768 202.799, 168.780 205.479 C 167.106 207.735, 167.119 207.783, 169.280 207.254 C 170.501 206.955, 171.950 206.389, 172.500 205.994 C 174.385 204.642, 187.502 201.122, 197 199.418 C 213.896 196.387, 216.312 196.168, 229 196.521 C 249.235 197.085, 259.168 199.569, 297 213.529 C 303.086 215.775, 326.020 228.760, 339.503 237.594 L 342.174 239.344 341.616 234.333 C 340.733 226.396, 336.376 210.543, 331.671 198.145 C 329.071 191.294, 327.417 188.683, 322.488 183.645 C 315.802 176.812, 312.128 175.225, 301.100 174.407 C 297.470 174.138, 292.399 173.750, 289.832 173.544 C 287.265 173.338, 285.015 173.300, 284.832 173.460 M 217 203.752 C 211.368 204.321, 199.304 206.250, 196.500 207.031 C 194.850 207.490, 191.700 208.111, 189.500 208.411 C 184.500 209.091, 178.118 211.104, 171 214.245 C 165.145 216.829, 161.814 218.125, 161 218.136 C 160.725 218.139, 159.713 218.855, 158.750 219.726 C 157.787 220.597, 157 221.041, 157 220.712 C 157 220.194, 148.329 225.461, 145.491 227.703 C 144.936 228.141, 142.133 229.734, 139.262 231.243 C 127.933 237.195, 110.754 252.713, 104.065 263.035 C 102.092 266.080, 99.470 269.652, 98.239 270.974 C 97.008 272.296, 96 273.967, 96 274.689 C 96 275.410, 95.602 276, 95.117 276 C 94.631 276, 93.969 276.788, 93.646 277.750 C 93.322 278.712, 92.489 280.400, 91.794 281.500 C 82.547 296.125, 77.597 307.996, 79.818 310.220 C 80.761 311.164, 87.003 311.584, 103.606 311.819 C 122.978 312.094, 126.200 312.358, 126.720 313.714 C 128.019 317.099, 124.922 317.518, 103.404 316.873 C 91.907 316.528, 81.655 315.895, 80.622 315.467 C 78.952 314.774, 78.801 315.065, 79.258 318.094 C 80.132 323.893, 86.262 338.197, 91.449 346.540 C 94.171 350.918, 96.759 354.650, 97.199 354.833 C 97.640 355.017, 98 355.597, 98 356.124 C 98 357.223, 101.454 362.254, 104.750 365.954 C 105.987 367.343, 107 368.822, 107 369.240 C 107 369.658, 107.645 370, 108.433 370 C 109.221 370, 110.151 370.900, 110.500 372 C 110.849 373.100, 111.522 374, 111.996 374 C 112.470 374, 114.577 375.623, 116.679 377.607 C 118.780 379.591, 121.850 382.152, 123.500 383.299 C 125.150 384.445, 129.149 387.805, 132.387 390.765 C 135.624 393.725, 140.083 397.352, 142.296 398.824 C 144.509 400.296, 147.485 402.272, 148.910 403.215 C 151.695 405.059, 156.954 407.688, 166.500 412.008 C 169.800 413.501, 174.525 415.643, 177 416.767 C 179.475 417.891, 182.850 419.148, 184.500 419.561 C 186.150 419.975, 187.950 420.446, 188.500 420.608 C 202.421 424.714, 215.640 426.522, 234 426.829 C 245.004 427.013, 251.675 426.639, 257 425.539 C 266.520 423.571, 273.676 422.216, 277.500 421.657 C 286.274 420.376, 289.689 419.324, 302.779 413.873 C 310.633 410.602, 318.508 407.063, 320.279 406.008 C 322.051 404.953, 325.300 403.224, 327.500 402.165 C 329.700 401.107, 334.059 398.274, 337.188 395.870 C 340.316 393.467, 344.777 390.375, 347.102 389 C 352.016 386.093, 359 379.597, 359 377.933 C 359 377.302, 359.610 377.020, 360.356 377.306 C 362.162 378, 370.781 369.624, 385.882 352.500 C 392.673 344.800, 399.670 336.925, 401.430 335 C 403.191 333.075, 404.987 330.600, 405.422 329.500 C 406.209 327.506, 406.215 327.507, 407.160 329.528 C 407.681 330.643, 409.459 332.443, 411.110 333.528 C 412.846 334.668, 416.093 339.041, 418.806 343.893 C 427.652 359.711, 430.751 364.842, 433.063 367.500 C 434.019 368.600, 436.362 372.462, 438.268 376.082 C 444.644 388.192, 446.550 390.568, 456.971 399.411 C 461.036 402.860, 464.498 404.702, 470.441 406.580 C 483.324 410.649, 486.312 408.163, 481.442 397.425 C 479.965 394.166, 478.389 389.700, 477.940 387.500 C 476.273 379.315, 482.774 371.793, 498.613 363.583 C 509.707 357.833, 515.971 350.644, 514.103 345.806 C 512.942 342.801, 509.869 340.070, 502.500 335.497 C 494.105 330.288, 491.316 326.932, 490.510 321.072 C 489.956 317.046, 490.279 315.292, 492.389 310.856 C 493.791 307.910, 495.964 304.371, 497.219 302.991 C 503.137 296.483, 507.067 290.886, 507.524 288.318 C 508.341 283.717, 506.049 282.038, 495.324 279.382 C 479.384 275.433, 478.293 272.584, 486.104 255.305 C 488.633 249.709, 488.543 246.361, 485.822 244.905 C 482.419 243.083, 469.375 244.351, 463.473 247.077 C 454.509 251.216, 440.329 260.688, 435.896 265.497 C 423.949 278.458, 409.622 303.997, 409.906 311.826 C 410.061 316.103, 406.118 318.204, 402.036 316.019 C 401.028 315.480, 397.214 309.092, 393.562 301.823 C 389.909 294.555, 385.255 286.559, 383.219 284.054 C 375.764 274.882, 354.384 254.848, 349.011 252 C 347.455 251.175, 342.326 247.930, 337.615 244.788 C 332.903 241.647, 327.638 238.272, 325.913 237.288 C 303.203 224.334, 291.538 218.774, 278 214.450 C 273.325 212.958, 267.250 210.943, 264.500 209.974 C 255.969 206.967, 246.816 205.099, 237.474 204.458 C 225.524 203.638, 220.015 203.448, 217 203.752 M 123.418 249.969 C 118.297 252.041, 113.397 262, 117.500 262 C 118.325 262, 119 261.372, 119 260.604 C 119 258.371, 125.807 253, 128.637 253 C 130.050 253, 133.384 254.225, 136.047 255.722 C 141.266 258.656, 142.575 258.428, 141.651 254.747 C 140.533 250.290, 129.664 247.442, 123.418 249.969 M 265.750 256.080 C 263.199 257.566, 263.607 259.740, 266.750 261.409 C 270.940 263.634, 274.774 267.636, 277.120 272.236 C 278.793 275.515, 279.124 277.508, 278.692 281.695 C 278.141 287.033, 272.771 300, 271.111 300 C 270.192 300, 266 308.192, 266 309.989 C 266 313.236, 275.427 308.914, 277.692 304.629 C 283.631 293.393, 284.937 289.776, 285.568 282.810 C 286.184 276.015, 286.010 274.898, 283.561 269.935 C 280.257 263.240, 278.611 261.257, 273.444 257.750 C 268.992 254.728, 268.321 254.582, 265.750 256.080 M 177 261.757 C 177 262.723, 177.464 265.085, 178.031 267.007 C 179.660 272.531, 182 291.683, 182 299.500 C 182 305.765, 179.946 324.761, 178.572 331.204 C 176.560 340.635, 173.453 352.278, 171.879 356.287 C 170.846 358.920, 170 361.787, 170 362.659 C 170 365.486, 172.601 362.344, 174.490 357.236 C 175.453 354.631, 176.894 351.454, 177.692 350.176 C 178.490 348.897, 179.289 347.097, 179.466 346.176 C 179.644 345.254, 180.451 342.925, 181.259 341 L 182.729 337.500 184 340.195 C 185.213 342.767, 194.173 350.417, 198.998 352.999 C 206.253 356.882, 214.389 355.025, 218.887 348.460 C 220.997 345.381, 221.210 344.204, 220.733 338.266 L 220.194 331.553 228.014 324.245 C 233.814 318.825, 236.226 315.786, 237.354 312.473 C 238.948 307.798, 238.583 301.671, 236.622 300.178 C 234.654 298.678, 224.641 296.423, 220.500 296.545 C 210.336 296.847, 195.461 300.351, 189.556 303.834 L 186.297 305.757 185.671 293.129 C 184.958 278.745, 182.788 266.132, 180.399 262.487 C 178.496 259.582, 177 259.261, 177 261.757 M 127.299 266.503 C 119.865 271.710, 124.388 285.392, 132.924 283.517 C 141.579 281.616, 142.594 270.408, 134.460 266.548 C 130.431 264.636, 129.969 264.633, 127.299 266.503 M 325.571 295.676 C 325.133 296.817, 326.198 298.649, 328.917 301.426 C 334.341 306.967, 336.340 312.043, 336.232 320 C 336.150 325.998, 333.955 334.681, 332.197 335.959 C 330.571 337.142, 328 342.045, 328 343.965 C 328 345.084, 327.550 346, 327 346 C 326.450 346, 326 346.450, 326 347 C 326 347.550, 327.782 348, 329.960 348 C 332.983 348, 334.534 347.350, 336.517 345.250 C 339.759 341.819, 342.956 335.087, 344.562 328.308 C 346.214 321.338, 344.840 308.628, 342.024 304.818 C 340.911 303.313, 340 301.616, 340 301.047 C 340 300.478, 338.132 298.660, 335.850 297.006 C 331.236 293.664, 326.574 293.061, 325.571 295.676 M 204 303.469 C 188.935 307.364, 186.236 309.660, 184.945 319.676 C 183.142 333.666, 182.727 332.726, 195.158 342.818 C 206.482 352.011, 209.324 352.781, 213.522 347.791 C 216.100 344.727, 216.192 344.241, 215.560 336.991 L 214.897 329.399 222.977 322.581 C 231.478 315.407, 232.841 313.638, 234.071 308.187 C 234.787 305.009, 234.630 304.740, 231.164 303.230 C 225.553 300.786, 213.981 300.888, 204 303.469 M 267.406 349.994 C 267.521 351.645, 268.797 354.223, 270.254 355.744 C 276.694 362.467, 277.881 373.199, 273.103 381.500 C 270.382 386.228, 262.842 394, 260.978 394 C 258.526 394, 259.383 396.088, 262.427 397.532 C 269.402 400.842, 275.833 396.602, 281.297 385.087 C 285.293 376.668, 285.541 365.822, 281.910 358.302 C 278.888 352.043, 273.556 347, 269.960 347 C 267.514 347, 267.223 347.342, 267.406 349.994 M 349.500 394.945 C 348.400 395.396, 346.643 396.717, 345.595 397.882 C 344.547 399.047, 343.085 400, 342.345 400 C 341.605 400, 341 400.420, 341 400.933 C 341 401.446, 339.988 402.185, 338.750 402.576 C 337.512 402.968, 335.150 404.292, 333.500 405.519 C 330.902 407.451, 326.241 410.134, 316 415.594 C 311.711 417.881, 296.052 424, 294.488 424 C 293.670 424, 293 424.525, 293 425.167 C 293 425.808, 292.741 426.074, 292.425 425.758 C 292.108 425.442, 290.421 425.613, 288.675 426.138 C 286.929 426.663, 281.900 427.738, 277.500 428.527 C 273.100 429.315, 265.225 430.906, 260 432.063 C 250.422 434.183, 235.306 434.735, 218.595 433.575 C 212.495 433.151, 211.922 433.257, 213.675 434.485 C 221.921 440.261, 238.057 444.554, 247.820 443.568 C 256.029 442.739, 269.849 440.344, 277.783 438.376 C 281.238 437.518, 285.063 436.688, 286.283 436.531 C 287.502 436.374, 294.125 434.850, 301 433.146 C 307.875 431.441, 315.750 429.555, 318.500 428.954 C 323.527 427.855, 324.228 427.606, 331.426 424.370 C 335.631 422.480, 344.581 413.769, 345.629 410.547 C 345.978 409.472, 346.879 407.978, 347.632 407.225 C 348.384 406.473, 349.056 405.214, 349.125 404.429 C 349.268 402.792, 349.445 402.094, 350.247 400 C 350.863 398.392, 351.916 393.958, 351.656 394.063 C 351.570 394.098, 350.600 394.495, 349.500 394.945" stroke="none" fill="#040404" fill-rule="evenodd"/></svg>