<?xml version="1.0" encoding="UTF-8"?>
<!DOCTYPE svg PUBLIC "-//W3C//DTD SVG 1.1//EN" "http://www.w3.org/Graphics/SVG/1.1/DTD/svg11.dtd">
<svg xmlns="http://www.w3.org/2000/svg" version="1.1" width="611px" height="611px" style="shape-rendering:geometricPrecision; text-rendering:geometricPrecision; image-rendering:optimizeQuality; fill-rule:evenodd; clip-rule:evenodd" xmlns:xlink="http://www.w3.org/1999/xlink">
<g><path style="opacity:0.777" fill="#000000" d="M 263.5,166.5 C 274.062,166.678 284.562,166.678 295,166.5C 301.79,167.488 308.29,169.321 314.5,172C 321.181,178.024 326.348,185.19 330,193.5C 336.084,208.512 340.584,224.012 343.5,240C 342.67,241.465 342.504,242.965 343,244.5C 360.985,255.164 376.318,268.831 389,285.5C 390.977,290.788 393.477,295.788 396.5,300.5C 404.748,278.501 418.414,260.668 437.5,247C 444.306,242.598 451.639,239.265 459.5,237C 487.781,231.605 495.447,241.605 482.5,267C 482.905,267.945 483.572,268.612 484.5,269C 492.113,269.649 499.113,271.983 505.5,276C 509.794,281.641 510.627,287.808 508,294.5C 504.408,301.354 500.075,307.687 495,313.5C 493.85,315.754 493.516,318.087 494,320.5C 502.238,325.081 509.572,330.748 516,337.5C 518.257,342.363 518.757,347.363 517.5,352.5C 513.327,359.946 507.66,366.113 500.5,371C 492.76,373.284 486.26,377.45 481,383.5C 481.759,388.045 483.425,392.378 486,396.5C 487.871,415.673 479.371,422.84 460.5,418C 448.906,415.12 439.072,409.287 431,400.5C 424.75,393.257 419.75,385.257 416,376.5C 411.385,369.55 406.385,362.884 401,356.5C 399.551,351.601 397.551,346.935 395,342.5C 392.65,345.199 390.65,348.199 389,351.5C 383.333,357.833 377.667,364.167 372,370.5C 367.001,375.997 361.501,380.997 355.5,385.5C 353.694,398.728 348.861,410.728 341,421.5C 333.922,429.64 325.089,434.807 314.5,437C 292.27,441.89 269.937,446.223 247.5,450C 231.775,451.936 217.108,448.936 203.5,441C 200.264,438.219 197.264,435.219 194.5,432C 174.082,427.127 154.749,419.46 136.5,409C 126.085,399.585 115.085,390.918 103.5,383C 84.5187,364.824 71.5187,342.991 64.5,317.5C 66.4454,314.259 66.4454,311.259 64.5,308.5C 72.3457,284.73 84.679,263.564 101.5,245C 116.764,231.027 133.764,219.527 152.5,210.5C 153.107,206.619 154.774,203.286 157.5,200.5C 161.069,196.762 165.069,193.596 169.5,191C 190.641,179.924 212.974,172.591 236.5,169C 245.665,168.286 254.665,167.453 263.5,166.5 Z M 333.5,237.5 C 301.825,215.708 266.825,201.708 228.5,195.5C 221.44,195.534 214.44,195.534 207.5,195.5C 191.698,197.917 176.031,201.417 160.5,206C 165.962,200.432 172.295,196.099 179.5,193C 199.773,183.341 220.94,177.841 243,176.5C 246.68,176.024 250.18,175.024 253.5,173.5C 254.5,174.167 255.5,174.833 256.5,175.5C 273.852,171.629 291.186,172.462 308.5,178C 313.333,181.5 317.5,185.667 321,190.5C 327.761,205.471 331.928,221.138 333.5,237.5 Z M 115.5,243.5 C 155.123,208.803 200.789,196.97 252.5,208C 272.524,213.689 291.524,221.523 309.5,231.5C 310.287,232.242 310.953,233.075 311.5,234C 336.187,246.354 357.687,262.854 376,283.5C 381.624,293.75 386.957,304.083 392,314.5C 395.209,317.012 398.375,317.012 401.5,314.5C 402.747,312.994 402.747,311.494 401.5,310C 408.498,291.04 419.165,274.373 433.5,260C 441.577,253.962 450.244,248.962 459.5,245C 465.119,243.701 470.786,243.368 476.5,244C 478.967,244.796 480.3,246.463 480.5,249C 478.496,254.182 476.329,259.348 474,264.5C 472.956,269.034 474.123,272.867 477.5,276C 483.997,277.833 490.497,279.666 497,281.5C 500.693,284.221 501.359,287.555 499,291.5C 490.556,298.565 485.056,307.398 482.5,318C 482.411,323.334 484.411,327.667 488.5,331C 494.86,334.45 500.693,338.616 506,343.5C 507.466,348.735 505.966,352.901 501.5,356C 494.765,360.698 487.765,365.031 480.5,369C 475.163,372.335 471.496,377.002 469.5,383C 470.97,389.946 473.303,396.612 476.5,403C 476.197,405.878 474.697,407.711 472,408.5C 466.953,406.483 461.787,404.65 456.5,403C 451.387,399.887 446.554,396.387 442,392.5C 434.334,380.837 426.667,369.17 419,357.5C 415.88,352.923 413.546,347.923 412,342.5C 408.995,337.662 405.161,333.662 400.5,330.5C 399.754,329.264 399.421,327.93 399.5,326.5C 398.5,326.5 397.5,326.5 396.5,326.5C 396.785,328.288 396.452,329.955 395.5,331.5C 391.212,336.443 386.712,341.11 382,345.5C 381.529,347.246 380.862,348.913 380,350.5C 372.003,359.497 363.67,368.163 355,376.5C 354.311,375.643 353.478,374.977 352.5,374.5C 351.853,378.296 349.853,381.129 346.5,383C 334.04,391.821 321.373,400.154 308.5,408C 299.5,411.667 290.5,415.333 281.5,419C 269.104,421.01 256.771,423.344 244.5,426C 210.979,428.899 179.479,422.732 150,407.5C 137.122,399.136 124.622,390.136 112.5,380.5C 93.528,363.914 80.028,343.581 72,319.5C 71.2025,317.741 71.3691,316.074 72.5,314.5C 86.7922,316.028 101.126,317.028 115.5,317.5C 117.059,316.926 118.559,316.26 120,315.5C 120.684,314.216 120.517,313.049 119.5,312C 105.5,311.667 91.5,311.333 77.5,311C 74.7549,310.947 72.7549,309.78 71.5,307.5C 76.5197,294.46 82.853,282.127 90.5,270.5C 92.1933,268.973 94.0266,267.64 96,266.5C 98.5306,258.959 103.031,252.792 109.5,248C 113.922,245.923 118.422,245.423 123,246.5C 123.167,246.833 123.333,247.167 123.5,247.5C 117.621,247.831 112.788,250.164 109,254.5C 107.798,256.677 107.298,259.011 107.5,261.5C 108.833,261.5 110.167,261.5 111.5,261.5C 112.926,256.25 116.426,253.25 122,252.5C 125.328,253.08 128.161,254.58 130.5,257C 131.793,257.49 133.127,257.657 134.5,257.5C 135.145,254.453 134.145,252.287 131.5,251C 133.167,250.667 134.833,250.333 136.5,250C 129.98,245.498 122.98,243.332 115.5,243.5 Z M 211.5,300.5 C 216.009,300.71 220.342,301.71 224.5,303.5C 225.919,307.404 225.419,311.07 223,314.5C 218.333,318.5 213.667,322.5 209,326.5C 208.167,328.167 207.333,329.833 206.5,331.5C 210.672,339.951 208.672,346.285 200.5,350.5C 191.92,345.086 184.086,338.753 177,331.5C 177.126,324.781 177.959,318.115 179.5,311.5C 182.322,308.587 185.655,306.42 189.5,305C 196.882,303.024 204.216,301.524 211.5,300.5 Z M 206.5,433.5 C 207.496,433.586 208.329,433.252 209,432.5C 218.852,433.677 228.519,434.344 238,434.5C 252.864,431.607 267.697,428.774 282.5,426C 296.229,421.036 309.562,415.203 322.5,408.5C 328.616,404.263 334.616,399.763 340.5,395C 341.6,394.568 342.267,395.068 342.5,396.5C 340.139,408.056 334.139,417.223 324.5,424C 294.908,433.388 264.908,439.888 234.5,443.5C 224.127,442.712 214.793,439.378 206.5,433.5 Z"/></g>
<g><path style="opacity:0.004" fill="#000000" d="M 139.5,252.5 C 141.544,253.031 143.211,254.198 144.5,256C 143.646,257.022 142.646,257.855 141.5,258.5C 140.705,256.505 140.039,254.505 139.5,252.5 Z"/></g>
<g><path style="opacity:0.628" fill="#000000" d="M 168.5,259.5 C 169.822,259.33 170.989,259.663 172,260.5C 173.171,263.255 174.504,265.921 176,268.5C 177.566,280.705 178.9,292.705 180,304.5C 189.009,300.038 198.509,297.038 208.5,295.5C 211.24,295.673 213.907,295.673 216.5,295.5C 220.465,296.766 224.465,297.933 228.5,299C 232.381,304.801 232.214,310.634 228,316.5C 223.275,321.562 218.275,326.228 213,330.5C 213.492,335.449 213.492,340.449 213,345.5C 207.184,355.989 199.017,358.155 188.5,352C 183.708,346.992 178.708,342.492 173.5,338.5C 171.48,347.217 168.314,355.55 164,363.5C 162.513,364.741 161.68,364.241 161.5,362C 170.215,338.295 174.048,313.795 173,288.5C 172.07,278.724 170.57,269.058 168.5,259.5 Z M 211.5,300.5 C 204.216,301.524 196.882,303.024 189.5,305C 185.655,306.42 182.322,308.587 179.5,311.5C 177.959,318.115 177.126,324.781 177,331.5C 184.086,338.753 191.92,345.086 200.5,350.5C 208.672,346.285 210.672,339.951 206.5,331.5C 207.333,329.833 208.167,328.167 209,326.5C 213.667,322.5 218.333,318.5 223,314.5C 225.419,311.07 225.919,307.404 224.5,303.5C 220.342,301.71 216.009,300.71 211.5,300.5 Z"/></g>
<g><path style="opacity:0.616" fill="#000000" d="M 121.5,264.5 C 130.958,265.432 134.458,270.432 132,279.5C 131.097,280.701 129.931,281.535 128.5,282C 124.673,283.219 120.839,283.719 117,283.5C 110.531,281.569 107.864,277.236 109,270.5C 112.514,267.346 114.514,268.013 115,272.5C 116.479,269.172 118.645,266.506 121.5,264.5 Z"/></g>
<g><path style="opacity:0.004" fill="#000000" d="M 44.5,286.5 C 45.525,286.897 45.6917,287.563 45,288.5C 44.5357,287.906 44.369,287.239 44.5,286.5 Z"/></g>
</svg>
