<svg xmlns="http://www.w3.org/2000/svg" width="611" height="611" viewBox="0 0 611 611" version="1.1"><path d="" stroke="none" fill="#080404" fill-rule="evenodd"/><path d="M 308 161.607 C 280.822 163.344, 266.846 165.411, 252 169.886 C 243.839 172.346, 228.935 177.833, 227.547 178.888 C 226.971 179.325, 224.475 180.466, 222 181.423 C 217.362 183.217, 206.758 189.759, 206.167 191.192 C 205.983 191.636, 205.308 192.014, 204.667 192.031 C 202.985 192.075, 197.245 200.064, 196.842 202.922 C 196.607 204.582, 195.557 205.649, 193.500 206.315 C 191.850 206.849, 188.250 208.714, 185.500 210.459 C 182.750 212.205, 178.574 214.855, 176.221 216.350 C 173.868 217.844, 170.397 219.935, 168.508 220.996 C 161.140 225.134, 142.629 241.445, 137.253 248.536 C 130.542 257.389, 118.971 276.589, 112.383 289.806 C 105.941 302.729, 106.777 313.439, 115.849 334.231 C 118.349 339.962, 132.194 361.028, 135.553 364.213 C 136.880 365.471, 137.973 366.843, 137.983 367.263 C 138.006 368.308, 147.823 378, 148.858 378 C 149.316 378, 150.547 378.960, 151.595 380.133 C 153.409 382.164, 169.246 394.627, 176.902 400.048 C 182.378 403.926, 207.914 416.613, 215.119 419.036 C 218.629 420.216, 221.950 421.534, 222.500 421.965 C 223.050 422.395, 225.627 423.055, 228.227 423.432 C 230.826 423.808, 233.220 424.547, 233.546 425.074 C 233.872 425.601, 234.534 425.788, 235.017 425.489 C 235.501 425.191, 238.282 427.240, 241.198 430.044 C 246.696 435.330, 254.186 439.371, 264.500 442.614 C 274.934 445.894, 292.098 445.153, 314 440.476 C 317.575 439.712, 324.100 438.355, 328.500 437.461 C 332.900 436.566, 337.400 435.623, 338.500 435.366 C 339.600 435.108, 341.400 434.701, 342.500 434.462 C 361.367 430.351, 366.833 428.710, 373.321 425.207 C 384.250 419.307, 397 396.343, 397 382.557 C 397 381.151, 397.422 380, 397.937 380 C 399.166 380, 413.757 365.490, 422 356.069 C 425.575 351.983, 430.606 346.454, 433.179 343.783 C 435.753 341.111, 438.011 338.468, 438.197 337.909 C 438.383 337.350, 440.087 339.955, 441.982 343.697 C 445.835 351.301, 453.296 363.445, 455.993 366.500 C 456.964 367.600, 459.358 371.550, 461.314 375.279 C 463.270 379.007, 466.025 383.429, 467.435 385.105 C 468.846 386.782, 470 388.499, 470 388.921 C 470 390.569, 480.074 400.075, 485.635 403.673 C 494.784 409.593, 510.135 413.750, 517.745 412.368 C 521.435 411.699, 528 406.173, 528 403.738 C 528 402.847, 528.417 401.860, 528.928 401.545 C 530.604 400.509, 528.886 391.748, 525.915 386.180 C 524.312 383.176, 523 380.159, 523 379.476 C 523 377.347, 530.926 370.950, 537.296 367.938 C 544.686 364.442, 554.299 356.759, 557.235 352 C 558.423 350.075, 559.839 348.197, 560.382 347.827 C 560.925 347.457, 561.343 344.638, 561.311 341.563 C 561.265 337.129, 560.674 335.137, 558.455 331.934 C 555.683 327.935, 546.606 320, 544.803 320 C 544.288 320, 542.322 318.822, 540.433 317.381 C 538.045 315.560, 537 313.956, 537 312.113 C 537 309.647, 540.358 303.711, 543.951 299.824 C 544.803 298.902, 546.950 295.750, 548.723 292.820 C 552.231 287.021, 553.179 279.911, 551.134 274.742 C 549.605 270.875, 542.164 266.481, 534.764 265.076 C 526.416 263.490, 525 263.035, 525 261.935 C 525 261.424, 526.328 258.192, 527.951 254.753 C 533.509 242.977, 532.824 236.460, 525.631 232.682 C 516.335 227.799, 497.362 230.904, 485.702 239.215 C 483.941 240.470, 482.213 241.498, 481.862 241.498 C 480.508 241.502, 471.496 248.553, 466.866 253.231 C 456.986 263.215, 447.062 277.928, 442.879 288.792 C 441.571 292.190, 440.275 294.970, 440 294.969 C 439.725 294.968, 438.150 292.198, 436.500 288.813 C 434.850 285.428, 431.654 280.148, 429.399 277.079 C 423.017 268.397, 403.603 250.552, 392.233 242.918 C 386.704 239.205, 386.039 238.403, 386.182 235.623 C 386.391 231.565, 385.259 224.987, 383.488 219.967 C 382.713 217.770, 382.061 215.753, 382.039 215.486 C 382.018 215.219, 381.966 214.887, 381.923 214.750 C 381.881 214.613, 381.701 213.744, 381.522 212.821 C 381.344 211.898, 379.546 206.273, 377.526 200.321 C 369.120 175.544, 362.516 167.671, 346.560 163.402 C 341.543 162.060, 318.031 160.965, 308 161.607 M 320.673 167.619 C 320.578 167.691, 313.300 168.040, 304.500 168.395 C 286.923 169.104, 280.778 169.628, 274 170.998 C 271.525 171.498, 267.475 172.183, 265 172.521 C 258.071 173.465, 243.117 177.810, 237 180.655 C 233.975 182.062, 229.706 183.932, 227.512 184.810 C 219.325 188.089, 208.662 195.036, 204.681 199.685 C 202.973 201.681, 203.381 201.631, 211.426 198.857 C 219.257 196.158, 230.292 193.565, 238.889 192.404 C 240.753 192.152, 242.722 191.672, 243.266 191.336 C 243.810 191, 250.385 190.589, 257.877 190.424 C 277.841 189.984, 290.675 192.451, 317.637 201.913 C 329.344 206.022, 347.266 213.927, 347.833 215.233 C 348.017 215.655, 348.544 216, 349.004 216 C 350.035 216, 365.491 224.882, 371.273 228.797 C 378.287 233.547, 378.065 233.528, 377.475 229.312 C 377.182 227.215, 376.686 224.375, 376.374 223 C 376.062 221.625, 375.599 219.375, 375.346 218 C 374.442 213.082, 370.197 199.387, 367.621 193.078 C 366.180 189.545, 365 186.088, 365 185.395 C 365 184.701, 362.188 181.291, 358.750 177.817 C 351.272 170.259, 347.887 169.037, 331.877 168.120 C 325.810 167.772, 320.768 167.547, 320.673 167.619 M 255.500 197.685 C 248.729 198.014, 235.074 199.954, 232 201.023 C 230.625 201.501, 227.298 202.163, 224.607 202.494 C 219.428 203.130, 206.810 207.760, 196 212.991 C 188.938 216.408, 180.798 220.940, 180 221.899 C 179.725 222.230, 177.475 223.581, 175 224.902 C 172.525 226.222, 168.588 228.840, 166.250 230.719 C 163.912 232.597, 162 233.806, 162 233.406 C 162 232.457, 145.141 249.596, 142.234 253.500 C 141.006 255.150, 138.988 257.946, 137.750 259.712 C 136.513 261.479, 134.037 264.989, 132.250 267.513 C 130.463 270.036, 129 272.528, 129 273.050 C 129 273.573, 128.550 274, 128 274 C 127.450 274, 127 274.539, 127 275.198 C 127 275.857, 125.052 279.345, 122.672 282.948 C 117.766 290.375, 113.800 300.520, 114.603 303.590 C 115.110 305.527, 115.837 305.645, 126.821 305.575 C 138.221 305.502, 138.637 305.578, 144.246 308.756 C 147.406 310.547, 150.925 312.797, 152.066 313.756 C 158.205 318.915, 161 322.292, 161 324.548 C 161 328.782, 157.120 327.577, 151 321.440 C 145.418 315.844, 138.346 311.811, 132 310.607 C 130.075 310.241, 125.214 310.471, 121.199 311.117 C 115.103 312.097, 114.014 312.556, 114.602 313.895 C 114.989 314.778, 116.067 317.525, 116.997 320 C 117.928 322.475, 119.209 325.767, 119.845 327.315 C 120.480 328.863, 121 330.344, 121 330.606 C 121 330.867, 121.841 332.300, 122.869 333.790 C 123.897 335.281, 127.831 341.225, 131.611 347 C 140.503 360.586, 142.992 363.480, 153.544 372.500 C 156.118 374.700, 158.816 377.063, 159.541 377.750 C 160.265 378.437, 161.302 379, 161.845 379 C 162.389 379, 162.983 379.436, 163.167 379.969 C 164.492 383.822, 186.947 399.161, 199 404.447 C 202.575 406.015, 208.167 408.581, 211.427 410.149 C 214.687 411.717, 218.148 413, 219.118 413 C 220.088 413, 221.142 413.421, 221.461 413.936 C 221.779 414.451, 222.818 414.872, 223.770 414.871 C 224.721 414.870, 229.325 415.836, 234 417.017 C 245.532 419.931, 245.071 419.880, 266 420.611 C 283.337 421.217, 285.286 421.097, 297 418.701 C 303.875 417.295, 311.075 415.902, 313 415.606 C 321.983 414.222, 326.887 412.920, 331.500 410.694 C 334.250 409.367, 338.278 407.703, 340.451 406.996 C 348.153 404.493, 362.226 397.170, 368.931 392.177 C 370.819 390.771, 376.256 387.039, 381.014 383.883 C 385.772 380.727, 391.118 376.490, 392.894 374.468 C 394.670 372.445, 396.387 371.054, 396.710 371.377 C 397.848 372.514, 412.694 357.660, 421.500 346.574 C 423.150 344.497, 426.398 340.706, 428.717 338.149 C 435.125 331.086, 437 328.769, 437 327.914 C 437 327.486, 437.900 326.849, 439 326.500 C 440.100 326.151, 441 324.996, 441 323.933 C 441 321.522, 442.671 321.396, 443.427 323.750 C 443.736 324.712, 445.318 326.388, 446.942 327.473 C 448.729 328.666, 451.520 332.621, 454.003 337.473 C 458.889 347.023, 460.824 350.493, 463.500 354.508 C 464.600 356.158, 465.950 358.248, 466.500 359.152 C 467.050 360.056, 468.962 362.889, 470.750 365.448 C 472.538 368.007, 474 370.327, 474 370.603 C 474 372.899, 484.260 385.944, 489.686 390.547 C 498.865 398.334, 512.792 404.252, 516.840 402.086 C 520.365 400.199, 520.302 397.559, 516.547 389.818 C 514.596 385.797, 513 381.033, 513 379.232 C 513 372.660, 520.880 364.558, 533.500 358.153 C 536.800 356.479, 541.862 352.919, 544.750 350.244 C 549.222 346.100, 550 344.842, 550 341.757 C 550 338.694, 549.327 337.582, 545.647 334.567 C 543.253 332.605, 540.984 331, 540.605 331 C 540.226 331, 539.372 330.556, 538.708 330.013 C 538.044 329.469, 535.475 327.536, 533 325.717 C 527.657 321.789, 525.543 316.750, 526.428 310.054 C 526.751 307.609, 527.349 305.359, 527.758 305.054 C 528.166 304.749, 529.305 302.925, 530.290 301 C 531.274 299.075, 534.333 295.025, 537.088 292 C 543.283 285.197, 544.472 282.554, 542.970 278.927 C 541.818 276.147, 542.002 276.221, 525.712 271.969 C 520.248 270.542, 517 267.156, 517 262.887 C 517 261.323, 518.575 256.680, 520.500 252.568 C 524.947 243.069, 525.001 240.569, 520.807 238.400 C 515.529 235.671, 506.110 237.093, 496.448 242.078 C 492.077 244.333, 487.825 246.759, 487 247.469 C 486.175 248.178, 484.122 249.456, 482.437 250.308 C 471.422 255.881, 455.173 277.709, 448.051 296.500 C 446.800 299.800, 445.700 303.736, 445.607 305.246 C 445.374 308.992, 442.775 311.420, 439.835 310.638 C 436.356 309.713, 435.760 309.041, 432.619 302.500 C 425.549 287.773, 422.476 282.201, 419.109 278 C 412.036 269.174, 392.356 250.763, 385.440 246.500 C 383.655 245.400, 378.438 241.971, 373.847 238.880 C 369.256 235.789, 363.988 232.414, 362.139 231.380 C 346.740 222.766, 342.711 220.606, 337.157 217.989 C 333.668 216.345, 330.207 215, 329.466 215 C 328.725 215, 327.880 214.615, 327.590 214.145 C 327.299 213.675, 323.560 212.061, 319.281 210.559 C 315.001 209.057, 310.600 207.478, 309.500 207.051 C 298.595 202.812, 283.201 199.127, 273.648 198.468 C 269.167 198.159, 264.375 197.802, 263 197.674 C 261.625 197.546, 258.250 197.551, 255.500 197.685 M 165.126 240.874 C 163.395 242.605, 163.264 243.385, 164.153 246.687 C 166.769 256.408, 184.758 267.716, 185.813 260.302 C 186.050 258.634, 185.086 257.454, 181.813 255.409 C 175.734 251.609, 171.257 246.772, 170.261 242.926 C 169.208 238.865, 167.727 238.273, 165.126 240.874 M 212.514 254.977 C 212.182 255.514, 212.431 257.877, 213.067 260.227 C 219.615 284.416, 217.183 320.805, 207.065 350.040 C 205.615 354.232, 205.231 356.631, 205.904 357.304 C 206.577 357.977, 208.321 355.367, 211.184 349.404 C 213.536 344.507, 215.500 340.275, 215.549 340 C 215.599 339.725, 216.248 337.475, 216.992 335 C 217.966 331.758, 218.466 331.059, 218.780 332.500 C 219.019 333.600, 219.694 335.089, 220.279 335.809 C 221.890 337.791, 232.456 345.667, 235.880 347.438 C 242.250 350.732, 250.523 348.358, 254.832 342 C 256.912 338.930, 257.138 337.695, 256.676 331.945 L 256.149 325.390 264.053 318.137 C 270.448 312.268, 272.222 309.988, 273.346 306.192 C 274.832 301.173, 274.505 295.616, 272.641 294.194 C 270.314 292.418, 260.127 290.238, 255.391 290.502 C 245.019 291.081, 231.174 294.520, 225.324 297.971 C 223.496 299.050, 221.968 299.610, 221.930 299.216 C 221.891 298.822, 221.709 296.284, 221.525 293.576 C 220 271.169, 218.898 263.086, 216.628 257.653 C 215.115 254.031, 213.677 253.096, 212.514 254.977 M 161.373 263.470 C 160.099 266.791, 161.881 272.455, 165.117 275.371 C 167.994 277.964, 168.786 278.185, 173.289 277.652 C 179.222 276.950, 182.214 274.628, 181.797 271.052 C 181.567 269.073, 180.856 268.426, 178.628 268.172 C 177.049 267.991, 175.271 268.329, 174.678 268.922 C 172.358 271.242, 169.212 270.098, 167.332 266.250 C 165.366 262.226, 162.384 260.835, 161.373 263.470 M 249.324 295.058 C 240.737 296.177, 227.535 300.828, 224.179 303.918 C 221.755 306.150, 221.203 307.746, 220.115 315.680 C 218.700 325.984, 219.034 327.252, 224.202 331.225 C 226.016 332.619, 228.845 335.017, 230.488 336.553 C 234.576 340.374, 242.026 345, 244.090 345 C 245.024 345, 247.186 343.694, 248.894 342.099 C 251.376 339.781, 252 338.387, 252 335.164 C 252 332.945, 251.597 330.069, 251.103 328.772 C 250.165 326.304, 252.083 320, 253.772 320 C 254.249 320, 256.183 318.608, 258.070 316.907 C 259.956 315.206, 262.193 313.293, 263.041 312.657 C 267.139 309.580, 269.587 303.782, 269.106 298.289 C 268.997 297.048, 259.889 293.899, 257.068 294.127 C 256.206 294.197, 252.721 294.616, 249.324 295.058 M 382 391.500 C 380.708 392.875, 379.055 394, 378.326 394 C 377.597 394, 377 394.420, 377 394.933 C 377 395.446, 375.988 396.180, 374.750 396.564 C 373.512 396.948, 371.159 398.216, 369.521 399.381 C 363.644 403.561, 360.119 405.314, 340.500 413.820 C 328.668 418.949, 322.935 420.775, 313.393 422.455 C 309.052 423.219, 301 424.794, 295.500 425.956 C 285.472 428.073, 269.239 428.685, 254.250 427.509 C 250.813 427.240, 248 427.261, 248 427.556 C 248 428.801, 265.014 435.759, 270.845 436.898 C 278.900 438.472, 293.081 436.989, 313.500 432.436 C 335.156 427.607, 352.214 423.498, 357.500 421.838 C 360.800 420.801, 364.334 419.756, 365.353 419.514 C 368.026 418.881, 375.933 412.726, 375.969 411.250 C 375.986 410.563, 376.379 410, 376.843 410 C 377.306 410, 378.543 408.319, 379.593 406.265 C 380.642 404.211, 382.063 401.929, 382.750 401.194 C 383.438 400.459, 384.005 399.552, 384.011 399.179 C 384.017 398.805, 384.670 396.363, 385.463 393.750 C 387.150 388.192, 385.882 387.368, 382 391.500" stroke="none" fill="#040404" fill-rule="evenodd"/></svg>