<?xml version="1.0" encoding="UTF-8"?>
<!DOCTYPE svg PUBLIC "-//W3C//DTD SVG 1.1//EN" "http://www.w3.org/Graphics/SVG/1.1/DTD/svg11.dtd">
<svg xmlns="http://www.w3.org/2000/svg" version="1.1" width="611px" height="611px" style="shape-rendering:geometricPrecision; text-rendering:geometricPrecision; image-rendering:optimizeQuality; fill-rule:evenodd; clip-rule:evenodd" xmlns:xlink="http://www.w3.org/1999/xlink">
<g><path style="opacity:0.609" fill="#000000" d="M 227.5,236.5 C 227.485,239.839 228.152,243.173 229.5,246.5C 229.263,247.791 229.596,248.791 230.5,249.5C 232.491,257.887 234.658,266.553 237,275.5C 245.979,300.433 254.979,325.433 264,350.5C 264.333,350.833 264.667,351.167 265,351.5C 267.728,344.456 268.728,337.123 268,329.5C 267.182,323.029 265.682,316.862 263.5,311C 264.815,309.605 264.481,308.605 262.5,308C 263.022,307.439 263.355,306.772 263.5,306C 261.064,298.372 258.731,291.205 256.5,284.5C 256.405,282.214 255.738,280.214 254.5,278.5C 253.962,272.598 254.795,266.932 257,261.5C 260.435,261.038 263.935,261.538 267.5,263C 272.635,267.619 277.135,272.786 281,278.5C 281.53,272.796 281.197,267.129 280,261.5C 274.576,257.446 271.409,252.28 270.5,246C 271.5,245.5 272.5,245 273.5,244.5C 275.671,244.727 277.838,245.06 280,245.5C 280.163,243.324 280.996,241.491 282.5,240C 284.492,239.426 285.992,238.259 287,236.5C 287.671,237.252 288.504,237.586 289.5,237.5C 292.497,238.062 295.164,239.395 297.5,241.5C 300.566,245.856 302.566,250.689 303.5,256C 311.623,265.068 318.123,275.235 323,286.5C 324.037,290.73 325.204,294.897 326.5,299C 326.167,299.333 325.833,299.667 325.5,300C 326.28,302.698 327.613,305.031 329.5,307C 328.199,308.616 328.199,310.116 329.5,311.5C 329.369,312.239 329.536,312.906 330,313.5C 330.654,312.304 331.154,312.304 331.5,313.5C 330.617,315.48 330.783,317.48 332,319.5C 332.654,318.304 333.154,318.304 333.5,319.5C 333.167,320.167 332.833,320.833 332.5,321.5C 334.201,326.7 335.368,332.034 336,337.5C 336.185,344.747 336.685,351.913 337.5,359C 337.634,360.545 337.3,362.212 336.5,364C 336.63,365.059 337.13,365.892 338,366.5C 339.934,362.022 341.434,357.355 342.5,352.5C 340.723,336.472 338.223,320.139 335,303.5C 332.883,292.366 330.217,281.699 327,271.5C 325.518,259.201 325.185,246.868 326,234.5C 326.721,227.141 330.388,222.141 337,219.5C 339.139,220.236 341.139,221.236 343,222.5C 345.253,227.414 346.753,232.414 347.5,237.5C 347.325,239.621 347.659,241.621 348.5,243.5C 347.957,243.56 347.624,243.893 347.5,244.5C 354.362,268.959 360.696,293.293 366.5,317.5C 369.329,305.688 371.996,293.855 374.5,282C 372.545,263.928 369.879,246.761 366.5,230.5C 366.615,225.662 365.615,221.162 363.5,217C 365.167,214.845 366.167,212.345 366.5,209.5C 365.674,208.549 365.508,207.549 366,206.5C 366.333,206.833 366.667,207.167 367,207.5C 371.693,200.797 377.526,199.797 384.5,204.5C 385.578,206.997 387.411,208.663 390,209.5C 391.168,214.13 392.835,218.13 395,221.5C 397.574,215.309 401.741,210.642 407.5,207.5C 410.779,208.052 413.279,209.719 415,212.5C 415.791,216.926 415.457,221.259 414,225.5C 410.94,228.949 409.107,232.615 408.5,236.5C 407.758,237.287 406.925,237.953 406,238.5C 404.022,242.777 402.355,247.11 401,251.5C 399.964,261.659 399.131,271.826 398.5,282C 398.664,290.517 398.664,299.183 398.5,308C 396.428,310.249 395.095,312.916 394.5,316C 395.833,317.84 395.666,318.34 394,317.5C 392.706,318.854 392.54,320.188 393.5,321.5C 391.422,324.085 392.089,326.252 395.5,328C 395.789,333.548 395.455,339.214 394.5,345C 394.354,347.034 395.02,348.701 396.5,350C 395.833,350.333 395.167,350.667 394.5,351C 395.22,356.225 396.386,361.392 398,366.5C 401.148,360.435 404.315,355.102 407.5,350.5C 408.791,349.458 408.791,348.292 407.5,347C 410.833,344.369 412.666,340.869 413,336.5C 413.279,333.394 413.112,330.561 412.5,328C 414.129,324.238 415.129,320.238 415.5,316C 414.833,315 414.167,314 413.5,313C 415.035,310.376 416.202,307.543 417,304.5C 420.801,301.933 424.968,301.1 429.5,302C 432.603,303.046 434.937,304.213 436.5,305.5C 438.221,309.665 439.554,313.999 440.5,318.5C 440.01,323.284 439.01,327.95 437.5,332.5C 437.709,333.086 438.043,333.586 438.5,334C 434.539,337.561 431.539,341.894 429.5,347C 426.965,354.554 423.132,361.72 418,368.5C 415.169,374.416 412.502,380.416 410,386.5C 409.667,386.167 409.333,385.833 409,385.5C 408.5,386.667 407.667,387.5 406.5,388C 407.763,390.386 409.597,392.219 412,393.5C 415.548,390.052 418.882,386.386 422,382.5C 423.009,380.975 423.509,379.308 423.5,377.5C 424.5,377.5 425.5,377.5 426.5,377.5C 426.343,376.127 426.51,374.793 427,373.5C 427.333,373.833 427.667,374.167 428,374.5C 433.132,367.075 437.632,359.241 441.5,351C 441.167,350.667 440.833,350.333 440.5,350C 443.996,345.876 446.163,341.043 447,335.5C 447.333,328.5 447.667,321.5 448,314.5C 449.012,309.05 451.346,305.05 455,302.5C 458.605,302.577 462.271,302.577 466,302.5C 467.101,304.394 468.434,305.061 470,304.5C 475.019,312.87 476.353,321.537 474,330.5C 471.143,339.726 466.643,347.893 460.5,355C 459.936,358.739 457.936,362.072 454.5,365C 454.833,365.333 455.167,365.667 455.5,366C 454.069,366.465 452.903,367.299 452,368.5C 447.438,376.472 442.271,383.972 436.5,391C 436.833,391.333 437.167,391.667 437.5,392C 436.377,393.044 435.044,393.71 433.5,394C 434.833,394.667 434.833,395.333 433.5,396C 432.552,396.483 431.552,396.649 430.5,396.5C 429.736,399.787 427.903,402.454 425,404.5C 424.188,413.17 423.522,421.837 423,430.5C 421.809,432.915 419.809,434.248 417,434.5C 404.689,432.605 392.356,431.272 380,430.5C 367.707,431.831 355.374,433.164 343,434.5C 325.536,435.084 308.202,435.084 291,434.5C 285.532,435.188 280.032,435.855 274.5,436.5C 242.884,435.548 211.384,435.548 180,436.5C 176.504,436.735 173.337,435.902 170.5,434C 171.219,431.444 172.886,430.277 175.5,430.5C 175.665,428.173 176.331,426.007 177.5,424C 177.167,423.667 176.833,423.333 176.5,423C 179.362,421.214 180.028,418.881 178.5,416C 161.033,414.616 144.699,409.783 129.5,401.5C 128.132,399.221 126.298,398.554 124,399.5C 122.513,398.747 122.346,397.914 123.5,397C 122.473,396.487 121.473,395.987 120.5,395.5C 118.877,394.221 117.21,392.887 115.5,391.5C 114.914,391.709 114.414,392.043 114,392.5C 110.327,389.226 106.327,385.559 102,381.5C 98.4316,376.074 95.2649,370.907 92.5,366C 93.8333,363.333 93.8333,360.667 92.5,358C 94.1814,356.055 94.848,354.055 94.5,352C 96.5479,352.595 98.5479,352.095 100.5,350.5C 102.45,351.372 104.45,352.039 106.5,352.5C 106.842,353.338 107.508,353.672 108.5,353.5C 108.393,355.379 108.893,355.712 110,354.5C 111.487,355.253 111.654,356.086 110.5,357C 115.018,360.184 118.851,364.018 122,368.5C 122.333,368.167 122.667,367.833 123,367.5C 126.287,371.955 130.12,375.955 134.5,379.5C 140.494,382.566 146.661,384.232 153,384.5C 153.833,385.333 154.667,386.167 155.5,387C 160.496,388.22 164.996,389.72 169,391.5C 177.359,395.016 184.859,400.516 191.5,408C 192.167,408.667 192.833,408.667 193.5,408C 197.55,403.283 202.217,399.283 207.5,396C 202.101,392.532 196.267,390.032 190,388.5C 189.586,388.957 189.086,389.291 188.5,389.5C 185.683,386.813 182.516,385.813 179,386.5C 177.856,384.083 176.19,383.416 174,384.5C 158.654,377.151 147.654,366.151 141,351.5C 140.25,350.874 139.416,350.374 138.5,350C 139.833,348.333 139.833,346.667 138.5,345C 140.457,338.22 145.123,336.387 152.5,339.5C 152.833,339.167 153.167,338.833 153.5,338.5C 150.785,335.786 148.451,332.786 146.5,329.5C 145.675,328.614 144.675,328.281 143.5,328.5C 143.069,325.551 141.902,322.884 140,320.5C 139.138,318.406 137.972,317.406 136.5,317.5C 136.709,316.914 137.043,316.414 137.5,316C 133.725,312.403 131.392,308.403 130.5,304C 129.833,302.667 128.833,301.667 127.5,301C 128.634,299.984 128.301,299.317 126.5,299C 127.423,296.959 127.756,294.792 127.5,292.5C 128.458,292.047 129.292,291.381 130,290.5C 131,291.833 132,291.833 133,290.5C 136.319,290.971 139.485,292.137 142.5,294C 142.167,294.333 141.833,294.667 141.5,295C 145.306,297.923 149.306,300.589 153.5,303C 154.191,304.067 154.691,305.234 155,306.5C 155.914,305.346 156.747,305.513 157.5,307C 156.549,307.718 156.383,308.551 157,309.5C 160.092,310.923 162.092,313.257 163,316.5C 163.667,315.167 164.333,315.167 165,316.5C 165.483,317.448 165.649,318.448 165.5,319.5C 166.5,319.5 167.5,319.5 168.5,319.5C 168.36,321.124 169.027,322.29 170.5,323C 170.167,323.333 169.833,323.667 169.5,324C 183.583,337.665 196.749,351.499 209,365.5C 209.671,364.748 210.504,364.414 211.5,364.5C 207.772,359.393 204.272,354.06 201,348.5C 199.719,348.619 198.552,348.119 197.5,347C 197.833,346.667 198.167,346.333 198.5,346C 194.862,342.21 191.862,338.043 189.5,333.5C 188.181,333.056 187.181,331.723 186.5,329.5C 186.631,328.761 186.464,328.094 186,327.5C 184.334,328.34 184.167,327.84 185.5,326C 177.388,312.12 171.888,296.953 169,280.5C 166.358,273.873 163.691,267.207 161,260.5C 156.584,252.667 151.918,245 147,237.5C 143.965,231.485 142.965,225.152 144,218.5C 144.92,216.686 146.42,215.686 148.5,215.5C 150.9,217.2 153.566,218.533 156.5,219.5C 158.356,222.19 160.689,224.356 163.5,226C 163.167,226.333 162.833,226.667 162.5,227C 165.339,230.104 168.005,233.271 170.5,236.5C 174.786,242.536 178.619,248.536 182,254.5C 188.113,275.719 194.78,296.386 202,316.5C 204.377,320.29 206.377,324.29 208,328.5C 210.783,332.951 214.283,336.785 218.5,340C 218.167,340.333 217.833,340.667 217.5,341C 221.213,344.963 224.546,349.129 227.5,353.5C 227.833,354.5 228.5,355.167 229.5,355.5C 229.738,357.404 230.738,358.738 232.5,359.5C 237.992,365.343 242.325,372.009 245.5,379.5C 245.833,379.833 246.167,380.167 246.5,380.5C 248.115,379.846 249.782,379.346 251.5,379C 250.205,376.242 248.539,373.742 246.5,371.5C 246.931,370.707 247.265,369.873 247.5,369C 246.318,367.51 245.318,366.177 244.5,365C 244.64,363.403 244.64,361.903 244.5,360.5C 239.6,351.31 235.767,341.644 233,331.5C 232.667,331.833 232.333,332.167 232,332.5C 225.616,317.048 220.95,301.048 218,284.5C 212.004,268.173 206.504,251.34 201.5,234C 201.833,233.667 202.167,233.333 202.5,233C 199.936,223.142 197.27,213.309 194.5,203.5C 195.072,197.929 195.072,192.429 194.5,187C 195.031,179.731 197.698,173.398 202.5,168C 212.977,165.146 219.144,168.98 221,179.5C 221.071,189.51 222.238,199.343 224.5,209C 223.446,210.388 223.28,211.888 224,213.5C 224.654,212.304 225.154,212.304 225.5,213.5C 224.954,214.772 224.621,216.106 224.5,217.5C 225.268,224.013 226.268,230.346 227.5,236.5 Z M 233.5,287.5 C 234.823,293.567 236.823,299.901 239.5,306.5C 241.359,314.467 244.193,322.467 248,330.5C 248.662,332.813 249.162,335.146 249.5,337.5C 250.404,338.209 250.737,339.209 250.5,340.5C 254.404,352.499 259.07,364.332 264.5,376C 262.782,376.346 261.115,376.846 259.5,377.5C 255.392,370.346 252.558,362.679 251,354.5C 242.872,336.945 236.039,318.945 230.5,300.5C 228.111,296.643 226.778,292.31 226.5,287.5C 226.973,285.62 226.307,283.787 224.5,282C 221.679,270.869 217.846,259.369 213,247.5C 212.28,245.888 212.446,244.388 213.5,243C 211.519,242.395 211.185,241.395 212.5,240C 209.855,238.713 208.855,236.547 209.5,233.5C 205.396,219.587 202.729,204.92 201.5,189.5C 201.767,183.215 203.1,177.215 205.5,171.5C 210.258,171.941 213.091,174.608 214,179.5C 216.137,192.492 217.303,205.159 217.5,217.5C 218.623,228.458 220.29,239.291 222.5,250C 222.043,250.414 221.709,250.914 221.5,251.5C 224.376,259.296 226.542,267.296 228,275.5C 229.699,277.388 230.199,279.388 229.5,281.5C 231.172,283.342 232.506,285.342 233.5,287.5 Z M 362.5,353.5 C 362.795,355.735 362.461,357.735 361.5,359.5C 361.81,362.713 361.477,365.713 360.5,368.5C 361.26,373.465 361.094,378.465 360,383.5C 357.994,388.843 355.994,394.177 354,399.5C 353.231,402.099 353.398,404.599 354.5,407C 354,407.5 353.5,408 353,408.5C 348.833,405.667 344.667,402.833 340.5,400C 341.49,396.241 342.323,392.407 343,388.5C 343.852,387.429 344.685,386.429 345.5,385.5C 345.802,381.913 347.135,379.58 349.5,378.5C 352.833,366.8 357.667,355.466 364,344.5C 364.528,340.057 365.528,335.723 367,331.5C 371.417,325.689 376.084,320.022 381,314.5C 382.738,309.978 383.904,305.311 384.5,300.5C 383.036,289.59 381.37,278.423 379.5,267C 379.735,266.127 380.069,265.293 380.5,264.5C 377.621,252.581 375.121,240.914 373,229.5C 371.361,222.789 371.361,216.123 373,209.5C 374.333,208.833 375.333,207.833 376,206.5C 377.098,207.967 378.598,208.801 380.5,209C 381.833,210 381.833,211 380.5,212C 383.477,214.27 385.477,217.27 386.5,221C 386.167,221.333 385.833,221.667 385.5,222C 388.429,231.246 390.263,240.746 391,250.5C 391.479,264.753 390.979,278.919 389.5,293C 389.88,301.018 388.38,308.851 385,316.5C 379.3,327.186 372.467,337.02 364.5,346C 364.957,346.414 365.291,346.914 365.5,347.5C 364.481,349.604 363.481,351.604 362.5,353.5 Z M 407.5,213.5 C 410.106,215.421 410.106,217.421 407.5,219.5C 407.709,220.086 408.043,220.586 408.5,221C 403.682,226.811 400.182,233.311 398,240.5C 395.596,235.66 396.263,231.327 400,227.5C 400.932,221.249 403.432,216.582 407.5,213.5 Z M 155.5,227.5 C 169.395,243.202 177.729,260.535 180.5,279.5C 181.404,280.209 181.737,281.209 181.5,282.5C 182.404,283.209 182.737,284.209 182.5,285.5C 185.167,289.362 186.5,293.528 186.5,298C 188.481,298.605 188.815,299.605 187.5,301C 189.481,301.605 189.815,302.605 188.5,304C 190.592,304.953 190.925,306.286 189.5,308C 191.349,311.161 192.516,314.661 193,318.5C 205.002,337.818 219.002,356.818 235,375.5C 238.103,385.031 236.603,385.698 230.5,377.5C 231.833,377.167 231.833,376.833 230.5,376.5C 229.227,376.069 228.227,374.735 227.5,372.5C 223.872,368.589 220.206,363.589 216.5,357.5C 217.547,356.922 217.38,356.256 216,355.5C 215.601,355.728 215.435,356.062 215.5,356.5C 213.534,355.745 213.2,354.579 214.5,353C 200.576,339.218 189.909,322.051 182.5,301.5C 178.202,280.287 170.202,260.954 158.5,243.5C 156.838,240.88 155.172,238.213 153.5,235.5C 150.786,232.056 149.119,228.056 148.5,223.5C 149,223.167 149.5,222.833 150,222.5C 152.361,224.425 154.195,226.091 155.5,227.5 Z M 352.5,350.5 C 352.013,351.473 351.513,352.473 351,353.5C 350.657,348.47 349.49,343.637 347.5,339C 347.661,337.044 347.994,335.044 348.5,333C 347.484,332.481 346.818,331.647 346.5,330.5C 345.111,324.891 344.111,319.224 343.5,313.5C 341.822,302.152 339.489,290.818 336.5,279.5C 336.709,278.914 337.043,278.414 337.5,278C 336.422,277.326 335.755,276.326 335.5,275C 334.5,271.242 333.833,267.742 333.5,264.5C 331.801,257.767 331.468,250.767 332.5,243.5C 333.833,243.167 333.833,242.833 332.5,242.5C 332.205,240.265 332.539,238.265 333.5,236.5C 333.232,234.901 333.566,233.568 334.5,232.5C 333.185,231.105 333.519,230.105 335.5,229.5C 335.821,227.952 336.821,227.285 338.5,227.5C 340.021,242.646 342.521,257.646 346,272.5C 349.032,274.805 349.865,277.638 348.5,281C 349.253,282.487 350.086,282.654 351,281.5C 356.543,300.189 358.543,319.189 357,338.5C 356.601,341.987 355.101,344.821 352.5,347C 353.791,348.292 353.791,349.458 352.5,350.5 Z M 290.5,354.5 C 288.543,348.156 288.21,341.656 289.5,335C 287.955,333.312 286.955,331.312 286.5,329C 286.419,326.24 286.753,323.407 287.5,320.5C 286.833,319.5 286.167,318.5 285.5,317.5C 286.167,316.5 286.833,315.5 287.5,314.5C 286.031,312.808 285.365,310.808 285.5,308.5C 285.953,304.827 286.453,301.16 287,297.5C 287.318,295.939 288.151,294.772 289.5,294C 288.366,292.984 288.699,292.317 290.5,292C 289.655,280.481 288.655,268.981 287.5,257.5C 287.175,252.401 287.675,247.401 289,242.5C 290,243.5 291,244.5 292,245.5C 295.112,253.885 297.279,262.552 298.5,271.5C 297.712,280.051 296.712,288.551 295.5,297C 295.553,305.915 295.553,314.915 295.5,324C 296.167,327.667 296.833,331.333 297.5,335C 294.593,349.711 294.926,364.044 298.5,378C 297.552,378.483 296.552,378.649 295.5,378.5C 293.831,370.479 292.164,362.479 290.5,354.5 Z M 271.5,369.5 C 269.942,366.708 268.609,363.708 267.5,360.5C 268.942,357.95 270.108,355.284 271,352.5C 271.75,351.874 272.584,351.374 273.5,351C 272.209,349.708 272.209,348.542 273.5,347.5C 273.66,345.847 274.326,344.514 275.5,343.5C 275.198,340.941 275.532,338.607 276.5,336.5C 276.138,328.662 274.805,320.996 272.5,313.5C 272.833,312.833 273.167,312.167 273.5,311.5C 273.154,310.304 272.654,310.304 272,311.5C 271.178,308.883 270.678,306.216 270.5,303.5C 268.883,300.811 267.883,297.811 267.5,294.5C 265.642,287.072 263.642,279.572 261.5,272C 262.071,270.795 262.738,269.628 263.5,268.5C 269.461,275.214 274.294,282.214 278,289.5C 278.226,292.095 278.726,294.595 279.5,297C 278.549,306.931 278.216,316.764 278.5,326.5C 279.489,343.282 281.489,359.949 284.5,376.5C 280.753,376.608 277.086,376.108 273.5,375C 271.845,373.556 271.178,371.722 271.5,369.5 Z M 306.5,269.5 C 310.105,274.281 312.771,279.614 314.5,285.5C 315.267,286.172 315.934,287.005 316.5,288C 316.384,289.268 316.051,290.602 315.5,292C 316.516,292.519 317.182,293.353 317.5,294.5C 318.614,302.472 320.781,310.138 324,317.5C 327.723,337.41 328.223,357.077 325.5,376.5C 325.709,377.086 326.043,377.586 326.5,378C 325.851,381.195 325.018,384.361 324,387.5C 322.657,388.214 321.324,387.88 320,386.5C 320.705,382.727 322.039,379.06 324,375.5C 324.147,366.369 324.313,357.536 324.5,349C 320.686,332.946 317.352,316.946 314.5,301C 311.695,298.261 310.528,295.094 311,291.5C 309.729,288.567 308.062,285.901 306,283.5C 305.925,278.683 306.092,274.017 306.5,269.5 Z M 181.5,346.5 C 182.5,346.833 183.167,347.5 183.5,348.5C 188.834,353.52 194.167,359.187 199.5,365.5C 208.269,372.098 216.602,379.265 224.5,387C 221.067,388.543 218.567,387.377 217,383.5C 216.667,383.833 216.333,384.167 216,384.5C 214.5,382.333 213,380.167 211.5,378C 210.551,377.383 209.718,377.549 209,378.5C 205.78,374.81 201.946,371.976 197.5,370C 196.167,369.333 196.167,368.667 197.5,368C 192.104,365.876 188.271,362.709 186,358.5C 173.561,348.861 162.061,338.194 151.5,326.5C 146.283,317.933 141.283,309.767 136.5,302C 136.833,301.667 137.167,301.333 137.5,301C 135.729,300.465 135.396,299.631 136.5,298.5C 137.5,299 138.5,299.5 139.5,300C 152.385,313.841 164.552,327.675 176,341.5C 176.333,341.167 176.667,340.833 177,340.5C 178.332,342.66 179.832,344.66 181.5,346.5 Z M 303.5,300.5 C 304.077,299.227 304.743,299.227 305.5,300.5C 305.03,301.463 304.363,301.463 303.5,300.5 Z M 315.5,346.5 C 316.814,348.895 316.814,351.395 315.5,354C 317.466,355.347 317.799,356.847 316.5,358.5C 316.52,363.35 316.686,368.35 317,373.5C 316.275,375.949 315.275,378.283 314,380.5C 312.89,382.037 311.39,382.703 309.5,382.5C 308.528,376.806 307.361,371.14 306,365.5C 305.216,362.24 305.383,359.073 306.5,356C 305.439,354.151 304.773,352.151 304.5,350C 305.472,345.354 306.139,340.854 306.5,336.5C 305.597,329.625 304.597,322.792 303.5,316C 303.534,311.803 303.534,307.636 303.5,303.5C 304.5,302.167 305.5,302.167 306.5,303.5C 307.711,304.72 307.711,305.887 306.5,307C 308.754,308.054 309.087,309.554 307.5,311.5C 307.846,312.696 308.346,312.696 309,311.5C 311.166,323.165 313.333,334.831 315.5,346.5 Z M 413.5,359.5 C 413.5,358.833 413.167,358.5 412.5,358.5C 418.141,347.342 421.474,335.509 422.5,323C 422.046,318.515 422.546,314.015 424,309.5C 425,306.833 426,306.833 427,309.5C 428.558,308.655 429.558,309.321 430,311.5C 431.928,317.49 431.928,323.49 430,329.5C 424.789,339.584 419.289,349.584 413.5,359.5 Z M 453.5,342.5 C 454.842,332.196 456.009,321.863 457,311.5C 457.941,309.939 459.108,308.605 460.5,307.5C 462.386,308.93 464.053,310.597 465.5,312.5C 465.167,313.167 464.833,313.833 464.5,314.5C 464.846,315.696 465.346,315.696 466,314.5C 466.684,315.784 466.517,316.951 465.5,318C 466.308,318.308 466.975,318.808 467.5,319.5C 466.833,320.833 466.167,322.167 465.5,323.5C 466.131,326.188 466.131,328.688 465.5,331C 463.003,335.816 460.503,340.649 458,345.5C 452.124,354.328 446.124,363.662 440,373.5C 438.933,374.191 437.766,374.691 436.5,375C 436.957,375.414 437.291,375.914 437.5,376.5C 433.688,382.485 429.188,387.819 424,392.5C 422.333,394.833 420.667,397.167 419,399.5C 418.075,398.953 417.242,398.287 416.5,397.5C 419.449,395.617 422.282,392.95 425,389.5C 429.291,381.396 434.624,374.063 441,367.5C 443.738,363.178 445.905,359.012 447.5,355C 448.1,353.324 449.433,351.657 451.5,350C 451.167,349.667 450.833,349.333 450.5,349C 451.132,346.585 452.132,344.418 453.5,342.5 Z M 385.5,330.5 C 386.665,331.496 387.332,332.829 387.5,334.5C 385.483,347.911 386.816,360.911 391.5,373.5C 391.07,376.447 389.57,378.781 387,380.5C 385.132,371.612 384.299,362.779 384.5,354C 383.578,349.996 382.244,346.163 380.5,342.5C 382.18,338.478 383.846,334.478 385.5,330.5 Z M 191.5,372.5 C 186.605,371.975 182.772,370.308 180,367.5C 179.667,367.833 179.333,368.167 179,368.5C 176.245,365.917 173.745,363.251 171.5,360.5C 170.167,360.5 169.5,359.833 169.5,358.5C 168.167,357.833 167.167,356.833 166.5,355.5C 163.732,352.158 161.066,348.658 158.5,345C 159.167,344.333 159.833,344.333 160.5,345C 167.846,352.011 175.512,358.677 183.5,365C 182.167,366.84 182.334,367.34 184,366.5C 186.675,369.09 189.175,371.09 191.5,372.5 Z M 168.5,370.5 C 165.7,371.903 164.2,370.903 164,367.5C 163.667,367.833 163.333,368.167 163,368.5C 160.502,365.509 158.002,362.509 155.5,359.5C 156.547,358.922 156.38,358.256 155,357.5C 154.601,357.728 154.435,358.062 154.5,358.5C 153.662,358.158 153.328,357.492 153.5,356.5C 151.554,355.965 150.554,354.632 150.5,352.5C 148.908,350.418 148.075,348.085 148,345.5C 155.774,353.04 162.608,361.374 168.5,370.5 Z M 376.5,367.5 C 384.155,382.927 379.821,394.26 363.5,401.5C 363.134,398.807 364.134,396.307 366.5,394C 368.52,389.743 369.853,385.243 370.5,380.5C 370.291,379.914 369.957,379.414 369.5,379C 370.144,370.196 370.977,361.362 372,352.5C 373.637,351.167 374.471,349.834 374.5,348.5C 375.761,354.772 376.427,361.105 376.5,367.5 Z M 412.5,358.5 C 413.167,358.5 413.5,358.833 413.5,359.5C 413.771,361.38 413.104,362.713 411.5,363.5C 411.672,364.492 411.338,365.158 410.5,365.5C 409.922,364.453 409.256,364.62 408.5,366C 408.728,366.399 409.062,366.565 409.5,366.5C 409.591,368.698 408.925,369.031 407.5,367.5C 407.586,366.504 407.252,365.671 406.5,365C 408.847,363.128 410.847,360.961 412.5,358.5 Z M 129.5,385.5 C 132.65,385.882 135.317,387.216 137.5,389.5C 139.737,389.306 141.903,389.306 144,389.5C 146.621,390.613 149.121,391.946 151.5,393.5C 153.595,392.771 155.428,393.437 157,395.5C 158.77,394.724 160.603,394.89 162.5,396C 166.722,399.065 171.055,401.898 175.5,404.5C 178.221,405.696 179.387,407.696 179,410.5C 176.912,409.692 174.912,408.692 173,407.5C 169.58,407.887 166.247,407.887 163,407.5C 142.423,401.548 124.423,391.215 109,376.5C 108.028,374.695 106.861,373.028 105.5,371.5C 105.833,370.833 106.167,370.167 106.5,369.5C 105.282,369.891 104.448,369.224 104,367.5C 103.358,365.238 102.525,363.071 101.5,361C 111.42,369.028 120.754,377.195 129.5,385.5 Z M 211.5,364.5 C 212.404,365.209 212.737,366.209 212.5,367.5C 210.519,366.895 210.185,365.895 211.5,364.5 Z M 406.5,367.5 C 406.833,367.5 407.167,367.5 407.5,367.5C 407.414,368.496 407.748,369.329 408.5,370C 407.874,370.75 407.374,371.584 407,372.5C 406.667,372.167 406.333,371.833 406,371.5C 403.348,377.471 400.182,383.138 396.5,388.5C 393.836,389.909 391.169,390.243 388.5,389.5C 393.541,383.466 398.541,377.466 403.5,371.5C 404.341,370.074 405.341,368.74 406.5,367.5 Z M 172.5,373.5 C 171.833,373.5 171.5,373.833 171.5,374.5C 169.799,373.789 168.799,372.455 168.5,370.5C 169.117,370.389 169.617,370.056 170,369.5C 171.085,370.736 171.918,372.069 172.5,373.5 Z M 172.5,375.5 C 173.506,375.062 173.506,374.396 172.5,373.5C 176.228,372.964 179.395,374.297 182,377.5C 183.998,376.729 185.665,377.395 187,379.5C 190.977,378.833 194.31,380.166 197,383.5C 198.297,382.216 199.464,382.383 200.5,384C 200,384.5 199.5,385 199,385.5C 197.266,384.751 195.433,384.251 193.5,384C 185.965,381.409 178.965,378.576 172.5,375.5 Z M 338.5,380.5 C 338.312,378.897 338.812,377.563 340,376.5C 340.348,378.14 339.848,379.473 338.5,380.5 Z M 338.5,380.5 C 338.727,382.933 337.727,384.599 335.5,385.5C 335.241,383.011 336.241,381.344 338.5,380.5 Z M 384.5,397.5 C 386.638,396.596 388.971,395.929 391.5,395.5C 395.256,395.731 398.923,395.731 402.5,395.5C 405.55,395.997 406.55,397.497 405.5,400C 407.329,400.273 408.829,401.107 410,402.5C 411.364,401.742 412.531,402.242 413.5,404C 412.572,404.388 411.905,405.055 411.5,406C 414.857,412.405 415.857,418.905 414.5,425.5C 411.769,425.941 409.269,426.274 407,426.5C 389.021,423.509 370.854,423.842 352.5,427.5C 351.833,427.167 351.167,426.833 350.5,426.5C 347.298,427.127 344.131,427.794 341,428.5C 337.725,427.501 334.225,427.168 330.5,427.5C 324.968,428.145 319.468,428.812 314,429.5C 270.752,429.819 227.252,429.819 183.5,429.5C 183.863,425.055 186.197,422.721 190.5,422.5C 190.343,421.127 190.51,419.793 191,418.5C 197.5,412.667 204,406.833 210.5,401C 214.647,400.852 217.814,399.018 220,395.5C 220.414,395.957 220.914,396.291 221.5,396.5C 224.074,395.334 226.241,393.667 228,391.5C 228.561,392.022 229.228,392.355 230,392.5C 238.007,389.755 246.007,387.089 254,384.5C 257.875,386.048 261.375,385.381 264.5,382.5C 270.272,384.442 275.939,384.442 281.5,382.5C 285.585,382.736 289.585,383.403 293.5,384.5C 294.167,384.167 294.833,383.833 295.5,383.5C 303.67,386.793 312.003,389.626 320.5,392C 321.167,393 321.833,394 322.5,395C 326.257,397.284 329.924,399.284 333.5,401C 332.833,401.333 332.167,401.667 331.5,402C 338.25,408.587 346.25,412.754 355.5,414.5C 361.298,413.438 365.965,410.605 369.5,406C 373.453,403.19 377.787,401.19 382.5,400C 383.066,399.005 383.733,398.172 384.5,397.5 Z M 202.5,385.5 C 204.842,385.504 206.842,386.337 208.5,388C 206.044,388.238 204.044,387.404 202.5,385.5 Z M 335.5,385.5 C 335.923,386.265 336.257,387.098 336.5,388C 335.192,390.337 334.192,392.837 333.5,395.5C 332.5,395.167 331.833,394.5 331.5,393.5C 332.879,390.741 334.213,388.075 335.5,385.5 Z M 210.5,389.5 C 211.756,389.461 212.756,389.961 213.5,391C 212.002,391.585 211.002,391.085 210.5,389.5 Z"/></g>
<g><path style="opacity:0.004" fill="#000000" d="M 225.5,218.5 C 226.833,219.167 226.833,219.167 225.5,218.5 Z"/></g>
<g><path style="opacity:0.004" fill="#000000" d="M 366.5,230.5 C 365.833,231.167 365.833,231.167 366.5,230.5 Z"/></g>
<g><path style="opacity:0.004" fill="#000000" d="M 170.5,235.5 C 171.833,236.167 171.833,236.167 170.5,235.5 Z"/></g>
<g><path style="opacity:0.008" fill="#000000" d="M 227.5,235.5 C 228.833,236.167 228.833,236.167 227.5,235.5 Z"/></g>
<g><path style="opacity:0.004" fill="#000000" d="M 289.5,236.5 C 290.833,237.167 290.833,237.167 289.5,236.5 Z"/></g>
<g><path style="opacity:0.004" fill="#000000" d="M 347.5,236.5 C 348.833,237.167 348.833,237.167 347.5,236.5 Z"/></g>
<g><path style="opacity:0.004" fill="#000000" d="M 348.5,243.5 C 349.833,244.167 349.833,244.167 348.5,243.5 Z"/></g>
<g><path style="opacity:0.004" fill="#000000" d="M 229.5,245.5 C 230.833,246.167 230.833,246.167 229.5,245.5 Z"/></g>
<g><path style="opacity:0.004" fill="#000000" d="M 230.5,248.5 C 231.833,249.167 231.833,249.167 230.5,248.5 Z"/></g>
<g><path style="opacity:0.004" fill="#000000" d="M 254.5,278.5 C 253.833,279.167 253.833,279.167 254.5,278.5 Z"/></g>
<g><path style="opacity:0.004" fill="#000000" d="M 256.5,284.5 C 255.833,285.167 255.833,285.167 256.5,284.5 Z"/></g>
<g><path style="opacity:0.008" fill="#000000" d="M 127.5,292.5 C 126.833,291.167 126.833,291.167 127.5,292.5 Z"/></g>
<g><path style="opacity:0.004" fill="#000000" d="M 257.5,291.5 C 258.833,292.167 258.833,292.167 257.5,291.5 Z"/></g>
<g><path style="opacity:0.004" fill="#000000" d="M 329.5,310.5 C 330.833,311.167 330.833,311.167 329.5,310.5 Z"/></g>
<g><path style="opacity:0.004" fill="#000000" d="M 186.5,329.5 C 185.833,330.167 185.833,330.167 186.5,329.5 Z"/></g>
<g><path style="opacity:0.004" fill="#000000" d="M 189.5,333.5 C 188.833,334.167 188.833,334.167 189.5,333.5 Z"/></g>
<g><path style="opacity:0.004" fill="#000000" d="M 137.5,342.5 C 138.833,343.167 138.833,343.167 137.5,342.5 Z"/></g>
<g><path style="opacity:0.008" fill="#000000" d="M 407.5,350.5 C 406.833,349.167 406.833,349.167 407.5,350.5 Z"/></g>
<g><path style="opacity:0.004" fill="#000000" d="M 106.5,351.5 C 107.833,352.167 107.833,352.167 106.5,351.5 Z"/></g>
<g><path style="opacity:0.004" fill="#000000" d="M 108.5,352.5 C 109.833,353.167 109.833,353.167 108.5,352.5 Z"/></g>
<g><path style="opacity:0.012" fill="#000000" d="M 227.5,352.5 C 228.833,353.167 228.833,353.167 227.5,352.5 Z"/></g>
<g><path style="opacity:0.004" fill="#000000" d="M 229.5,354.5 C 230.833,355.167 230.833,355.167 229.5,354.5 Z"/></g>
<g><path style="opacity:0.004" fill="#000000" d="M 232.5,358.5 C 233.833,359.167 233.833,359.167 232.5,358.5 Z"/></g>
<g><path style="opacity:0.004" fill="#000000" d="M 120.5,395.5 C 119.833,396.167 119.833,396.167 120.5,395.5 Z"/></g>
<g><path style="opacity:0.004" fill="#000000" d="M 129.5,401.5 C 128.833,402.167 128.833,402.167 129.5,401.5 Z"/></g>
</svg>
