<?xml version="1.0" encoding="UTF-8"?>
<!DOCTYPE svg PUBLIC "-//W3C//DTD SVG 1.1//EN" "http://www.w3.org/Graphics/SVG/1.1/DTD/svg11.dtd">
<svg xmlns="http://www.w3.org/2000/svg" version="1.1" width="611px" height="611px" style="shape-rendering:geometricPrecision; text-rendering:geometricPrecision; image-rendering:optimizeQuality; fill-rule:evenodd; clip-rule:evenodd" xmlns:xlink="http://www.w3.org/1999/xlink">
<g><path style="opacity:0.829" fill="#000000" d="M 284.5,90.5 C 298.228,91.9829 307.894,98.9829 313.5,111.5C 321.872,132.552 324.039,154.218 320,176.5C 315.065,192.83 311.898,208.997 310.5,225C 311.239,228.487 312.073,231.987 313,235.5C 316.765,241.456 319.765,247.789 322,254.5C 325.544,242.536 329.877,230.869 335,219.5C 351.042,196.469 369.376,194.469 390,213.5C 396.164,220.826 400.497,229.159 403,238.5C 403.667,244.5 403.667,250.5 403,256.5C 400.011,265.979 397.511,275.646 395.5,285.5C 395.842,287.867 396.342,290.2 397,292.5C 401.484,300.972 406.151,309.305 411,317.5C 413.172,325.603 412.838,333.603 410,341.5C 405.776,349.599 400.776,357.266 395,364.5C 392.078,370.522 390.245,376.855 389.5,383.5C 406.195,398.26 419.528,415.594 429.5,435.5C 429.291,436.086 428.957,436.586 428.5,437C 430.642,442.664 432.309,448.497 433.5,454.5C 436.489,474.665 428.156,487.832 408.5,494C 391.994,498.602 375.661,500.768 359.5,500.5C 337.929,497.611 316.096,495.278 294,493.5C 274.274,495.469 254.274,494.469 234,490.5C 233.107,491.081 232.107,491.415 231,491.5C 226.19,490.807 221.357,490.307 216.5,490C 214.466,486.986 212.132,486.819 209.5,489.5C 196.927,486.692 184.593,483.859 172.5,481C 162.925,477.014 157.925,469.847 157.5,459.5C 159.146,452.795 160.48,446.295 161.5,440C 159.848,435.006 156.681,431.173 152,428.5C 137.345,408.976 139.678,391.976 159,377.5C 159.422,375.645 159.922,373.811 160.5,372C 159.131,368.227 157.964,364.394 157,360.5C 151.801,351.435 147.134,342.102 143,332.5C 140.162,321.242 139.829,309.909 142,298.5C 144.943,291.601 149.11,285.601 154.5,280.5C 159.959,277.456 164.959,273.956 169.5,270C 180.229,270.439 191.229,272.272 202.5,275.5C 202.833,275.167 203.167,274.833 203.5,274.5C 204.706,269.344 206.372,264.344 208.5,259.5C 212.886,255.118 216.886,250.451 220.5,245.5C 225.1,237.51 229.6,229.51 234,221.5C 236.537,199.227 238.537,176.894 240,154.5C 241.363,134.283 248.863,116.783 262.5,102C 268.698,95.7366 276.031,91.9033 284.5,90.5 Z M 283.5,98.5 C 286.874,98.6744 290.207,99.1744 293.5,100C 301.86,106.53 307.36,115.03 310,125.5C 311.54,134.916 312.706,144.583 313.5,154.5C 311.177,169.435 307.677,184.102 303,198.5C 301.273,206.588 300.106,214.755 299.5,223C 300.44,235.155 304.273,246.655 311,257.5C 314.927,266.554 315.594,275.887 313,285.5C 309.621,298.588 305.955,311.588 302,324.5C 296.896,344.676 299.562,363.676 310,381.5C 312.594,403.534 307.927,423.868 296,442.5C 286.313,450.426 275.48,455.093 263.5,456.5C 271.275,437.645 273.442,418.312 270,398.5C 267.413,386.072 264.413,373.739 261,361.5C 257.958,341.475 259.958,321.809 267,302.5C 272.919,289.657 278.585,276.657 284,263.5C 286.937,251.916 287.27,240.249 285,228.5C 281.14,214.669 278.14,200.669 276,186.5C 275.796,179.783 275.296,173.117 274.5,166.5C 274.833,165.833 275.167,165.167 275.5,164.5C 274.878,161.63 274.211,158.796 273.5,156C 273.456,148.932 273.79,141.598 274.5,134C 273.468,130.745 271.468,129.912 268.5,131.5C 267.066,133.22 266.233,135.22 266,137.5C 264.899,154.44 264.899,171.44 266,188.5C 268.041,205.334 271.041,222 275,238.5C 275.871,249.688 273.871,260.354 269,270.5C 259.072,288.7 252.238,308.033 248.5,328.5C 248.415,338.718 248.582,349.051 249,359.5C 254.038,376.484 258.205,393.651 261.5,411C 261.372,416.064 261.205,421.23 261,426.5C 260.102,436.024 257.602,445.024 253.5,453.5C 248.817,458.419 243.317,461.086 237,461.5C 237.833,456.515 239,451.515 240.5,446.5C 240.935,421.926 237.269,397.759 229.5,374C 225.412,344.232 219.245,314.732 211,285.5C 209.944,278.054 211.278,271.054 215,264.5C 222.191,255.955 229.024,247.122 235.5,238C 238.067,232.131 240.567,226.298 243,220.5C 245.166,207.156 245.999,193.822 245.5,180.5C 246.931,169.822 248.264,159.155 249.5,148.5C 249.291,147.914 248.957,147.414 248.5,147C 250.287,134.268 254.954,122.768 262.5,112.5C 268.472,106.177 275.472,101.511 283.5,98.5 Z M 360.5,209.5 C 371.91,210.54 380.91,215.874 387.5,225.5C 391.051,231.686 393.385,238.353 394.5,245.5C 390.931,258.705 387.265,271.871 383.5,285C 384.114,289.965 385.281,294.799 387,299.5C 390.502,305.668 394.002,311.835 397.5,318C 400.146,324.875 399.979,331.709 397,338.5C 392.317,346.624 387.65,354.624 383,362.5C 381.414,367.097 380.081,371.764 379,376.5C 368.581,370.379 357.415,366.046 345.5,363.5C 345.62,359.065 347.787,356.398 352,355.5C 358.106,345.291 363.106,334.624 367,323.5C 367.53,317.796 367.197,312.129 366,306.5C 364.265,300.059 362.765,293.559 361.5,287C 361.625,281.921 361.792,276.755 362,271.5C 363.333,263.496 364.5,255.496 365.5,247.5C 361.776,246.773 359.109,248.106 357.5,251.5C 351.225,266.961 349.725,282.961 353,299.5C 358.426,312.137 357.426,324.137 350,335.5C 346.379,337.12 343.713,339.787 342,343.5C 340.606,348.711 338.273,353.377 335,357.5C 334.667,359.5 334.333,361.5 334,363.5C 327.871,364.732 322.204,367.065 317,370.5C 313.12,362.649 310.954,354.316 310.5,345.5C 310.763,338.466 311.93,331.466 314,324.5C 319.258,309.56 323.258,294.227 326,278.5C 329.664,265.178 333.331,251.845 337,238.5C 340.463,227.769 346.63,218.936 355.5,212C 357.315,211.243 358.981,210.41 360.5,209.5 Z M 176.5,276.5 C 184.93,277.154 192.93,279.321 200.5,283C 201.667,284.167 202.833,285.333 204,286.5C 210.14,310.362 214.64,334.362 217.5,358.5C 222.844,382.916 227.178,407.25 230.5,431.5C 228.94,437.863 228.106,444.197 228,450.5C 224.439,455.591 222.105,460.924 221,466.5C 217.055,472.162 211.889,475.662 205.5,477C 207.927,465.221 209.26,453.388 209.5,441.5C 205.607,421.446 203.94,401.446 204.5,381.5C 202.79,359.031 198.624,337.031 192,315.5C 188.889,313.728 187.056,314.561 186.5,318C 193.947,346.917 197.28,376.084 196.5,405.5C 197.699,418.82 199.032,432.153 200.5,445.5C 200.225,452.044 199.725,458.711 199,465.5C 197.318,466.865 197.151,468.365 198.5,470C 197.833,471 197.167,472 196.5,473C 192.664,472.374 188.831,472.54 185,473.5C 175.945,473.34 170.111,469.007 167.5,460.5C 168.448,453.995 169.781,447.329 171.5,440.5C 170.03,437.692 169.197,434.692 169,431.5C 165.817,427.071 162.15,423.071 158,419.5C 152.985,412.448 151.652,404.781 154,396.5C 158.305,392.606 162.471,388.606 166.5,384.5C 168.385,380.997 169.385,377.497 169.5,374C 168.549,368.243 167.215,362.576 165.5,357C 159.427,347.69 154.261,337.857 150,327.5C 143.635,302.22 152.468,285.22 176.5,276.5 Z M 338.5,372.5 C 353.477,373.557 367.144,378.723 379.5,388C 381.562,389.532 382.896,391.532 383.5,394C 385.218,394.346 386.885,394.846 388.5,395.5C 394.216,400.602 398.716,406.602 402,413.5C 420.255,430.712 426.088,451.212 419.5,475C 416.294,478.067 412.627,480.401 408.5,482C 400.124,484.477 391.957,486.644 384,488.5C 383.439,487.978 382.772,487.645 382,487.5C 377.152,488.14 372.319,488.806 367.5,489.5C 345.715,486.913 323.882,484.58 302,482.5C 290.54,482.391 279.04,482.725 267.5,483.5C 254.451,481.153 241.451,478.653 228.5,476C 240.284,474.654 251.95,472.654 263.5,470C 272.428,465.428 281.762,461.762 291.5,459C 300.097,454.68 306.597,448.18 311,439.5C 320.054,420.118 323.721,399.785 322,378.5C 327.021,375.041 332.521,373.041 338.5,372.5 Z"/></g>
</svg>
