<?xml version="1.0" encoding="UTF-8"?>
<!DOCTYPE svg PUBLIC "-//W3C//DTD SVG 1.1//EN" "http://www.w3.org/Graphics/SVG/1.1/DTD/svg11.dtd">
<svg xmlns="http://www.w3.org/2000/svg" version="1.1" width="611px" height="611px" style="shape-rendering:geometricPrecision; text-rendering:geometricPrecision; image-rendering:optimizeQuality; fill-rule:evenodd; clip-rule:evenodd" xmlns:xlink="http://www.w3.org/1999/xlink">
<g><path style="opacity:0.703" fill="#000000" d="M 362.5,230.5 C 372.428,231.095 377.762,236.428 378.5,246.5C 377.956,248.674 377.956,250.674 378.5,252.5C 377.96,253.748 377.293,254.915 376.5,256C 379.253,257.174 380.253,259.007 379.5,261.5C 373.427,263.109 367.593,262.442 362,259.5C 350.334,261.167 338.667,262.833 327,264.5C 323.297,264.679 319.464,264.346 315.5,263.5C 315.5,262.5 315.5,261.5 315.5,260.5C 305.857,258.034 302.357,252.034 305,242.5C 310.476,235.939 316.976,234.772 324.5,239C 326.584,240.501 327.917,242.501 328.5,245C 329.727,249.102 330.394,253.102 330.5,257C 336.636,258.239 342.802,258.739 349,258.5C 352.128,257.796 355.294,257.296 358.5,257C 349.576,246.473 350.909,237.64 362.5,230.5 Z M 364.5,241.5 C 366.39,241.297 367.89,241.963 369,243.5C 376.238,256.407 374.404,257.907 363.5,248C 361.886,245.439 362.219,243.273 364.5,241.5 Z M 325.5,254.5 C 322.327,253.83 319.327,252.664 316.5,251C 312.527,249.25 312.527,247.75 316.5,246.5C 321.167,247.51 324.167,250.177 325.5,254.5 Z"/></g>
<g><path style="opacity:0.675" fill="#000000" d="M 267.5,235.5 C 277.039,234.056 283.706,237.723 287.5,246.5C 286.957,250.934 285.624,255.1 283.5,259C 284.337,260.011 284.67,261.178 284.5,262.5C 279.134,263.5 273.801,263.167 268.5,261.5C 253.881,264.155 239.215,266.488 224.5,268.5C 217.845,266.305 217.845,263.805 224.5,261C 238.997,259.6 253.33,258.6 267.5,258C 260.627,252.72 259.127,246.22 263,238.5C 264.652,237.601 266.152,236.601 267.5,235.5 Z M 270.5,243.5 C 276.932,243.591 280.598,246.924 281.5,253.5C 280.902,254.795 280.402,256.128 280,257.5C 274.974,254.641 271.141,250.641 268.5,245.5C 269.243,244.818 269.909,244.151 270.5,243.5 Z"/></g>
<g><path style="opacity:0.723" fill="#000000" d="M 460.5,256.5 C 458.66,245.831 463.16,239.831 474,238.5C 484.252,239.126 487.419,244.126 483.5,253.5C 484.93,255.386 486.597,257.053 488.5,258.5C 487.597,260.62 486.263,260.954 484.5,259.5C 475.578,264.326 467.578,263.326 460.5,256.5 Z M 473.5,248.5 C 480.338,251.967 480.004,253.467 472.5,253C 471.257,251.184 471.59,249.684 473.5,248.5 Z"/></g>
<g><path style="opacity:0.693" fill="#000000" d="M 195.5,240.5 C 202.206,239.407 208.039,241.074 213,245.5C 216.763,250.578 216.263,255.078 211.5,259C 212.793,259.49 214.127,259.657 215.5,259.5C 215.5,260.5 215.5,261.5 215.5,262.5C 202.874,265.548 194.541,260.881 190.5,248.5C 191.177,245.133 192.843,242.466 195.5,240.5 Z M 200.5,247.5 C 206.954,248.016 209.287,251.349 207.5,257.5C 203.692,255.526 200.692,252.692 198.5,249C 199.416,248.722 200.082,248.222 200.5,247.5 Z"/></g>
<g><path style="opacity:0.65" fill="#000000" d="M 151.5,241.5 C 162.028,242.169 166.195,247.502 164,257.5C 162.833,259.333 161.333,260.833 159.5,262C 167.493,262.5 175.493,262.666 183.5,262.5C 183.5,263.5 183.5,264.5 183.5,265.5C 173.134,265.855 162.8,266.689 152.5,268C 144.833,268.667 137.167,268.667 129.5,268C 127.87,264.938 128.87,263.271 132.5,263C 139.908,262.101 147.242,261.768 154.5,262C 147.487,261.482 144.154,257.648 144.5,250.5C 144.997,246.01 147.331,243.01 151.5,241.5 Z M 153.5,250.5 C 154.496,250.414 155.329,250.748 156,251.5C 157.15,253.754 157.484,256.087 157,258.5C 156.045,256.051 154.545,254.051 152.5,252.5C 152.863,251.817 153.196,251.15 153.5,250.5 Z"/></g>
<g><path style="opacity:0.601" fill="#000000" d="M 460.5,256.5 C 460.586,257.496 460.252,258.329 459.5,259C 445.411,260.348 431.411,262.348 417.5,265C 412.78,265.717 408.114,265.55 403.5,264.5C 402.451,260.169 404.118,258.003 408.5,258C 425.236,257.906 441.902,257.073 458.5,255.5C 459.183,255.863 459.85,256.196 460.5,256.5 Z"/></g>
<g><path style="opacity:0.529" fill="#000000" d="M 500.5,260.5 C 506.868,260.17 513.202,260.504 519.5,261.5C 519.291,262.086 518.957,262.586 518.5,263C 510.114,263.577 501.781,265.077 493.5,267.5C 489.455,267.41 488.622,265.743 491,262.5C 494.27,261.868 497.437,261.201 500.5,260.5 Z"/></g>
<g><path style="opacity:0.619" fill="#000000" d="M 403.5,264.5 C 404.964,266.63 406.964,267.963 409.5,268.5C 410.571,271.947 411.571,275.447 412.5,279C 412.355,279.772 412.022,280.439 411.5,281C 413.587,281.792 415.421,282.959 417,284.5C 419.048,282.164 420.882,282.164 422.5,284.5C 421.91,285.799 420.91,286.632 419.5,287C 428.337,287.522 437.004,287.355 445.5,286.5C 447.808,286.365 449.808,287.031 451.5,288.5C 439.536,289.533 426.869,291.367 413.5,294C 408.833,294.667 404.167,294.667 399.5,294C 397.666,289.359 399.333,287.026 404.5,287C 397.912,286.044 392.578,283.044 388.5,278C 386.002,265.334 391.002,260.834 403.5,264.5 Z M 402.5,276.5 C 404.713,276.848 406.713,277.681 408.5,279C 406.044,279.238 404.044,278.404 402.5,276.5 Z"/></g>
<g><path style="opacity:0.459" fill="#000000" d="M 319.5,268.5 C 323.067,270.557 326.234,273.223 329,276.5C 329.617,277.449 329.451,278.282 328.5,279C 324.52,277.768 320.687,275.935 317,273.5C 316.294,271.045 317.127,269.378 319.5,268.5 Z"/></g>
<g><path style="opacity:0.475" fill="#000000" d="M 274.5,269.5 C 276.144,269.286 277.644,269.62 279,270.5C 279.497,272.81 279.663,275.143 279.5,277.5C 274.303,276.999 272.636,274.332 274.5,269.5 Z"/></g>
<g><path style="opacity:0.508" fill="#000000" d="M 359.5,270.5 C 364.528,270.513 366.528,272.846 365.5,277.5C 361.387,278.758 359.054,277.091 358.5,272.5C 358.863,271.817 359.196,271.15 359.5,270.5 Z"/></g>
<g><path style="opacity:0.417" fill="#000000" d="M 474.5,270.5 C 479.206,269.881 481.873,271.881 482.5,276.5C 479.167,276.5 475.833,276.5 472.5,276.5C 472.604,274.297 473.27,272.297 474.5,270.5 Z"/></g>
<g><path style="opacity:0.51" fill="#000000" d="M 506.5,270.5 C 511.064,270.55 514.564,272.55 517,276.5C 517.781,277.944 517.614,279.277 516.5,280.5C 511.935,278.036 507.602,276.036 503.5,274.5C 504.172,272.84 505.172,271.507 506.5,270.5 Z"/></g>
<g><path style="opacity:0.429" fill="#000000" d="M 161.5,271.5 C 162.5,271.5 163.5,271.5 164.5,271.5C 164.676,275.033 166.009,278.033 168.5,280.5C 161.5,281.481 159.167,278.481 161.5,271.5 Z"/></g>
<g><path style="opacity:0.469" fill="#000000" d="M 187.5,272.5 C 192.183,273.012 194.517,275.679 194.5,280.5C 191.534,279.602 188.7,278.269 186,276.5C 185.516,274.807 186.016,273.473 187.5,272.5 Z"/></g>
<g><path style="opacity:0.561" fill="#000000" d="M 137.5,273.5 C 141.883,272.755 144.383,274.422 145,278.5C 142.633,280.956 139.8,281.789 136.5,281C 135.083,278.257 135.416,275.757 137.5,273.5 Z"/></g>
<g><path style="opacity:0.663" fill="#000000" d="M 484.5,283.5 C 499.232,282.056 504.732,288.39 501,302.5C 497.5,306.337 493.167,308.67 488,309.5C 485.383,306.934 482.217,304.101 478.5,301C 477.101,300.405 475.768,300.572 474.5,301.5C 473.5,301.167 472.833,300.5 472.5,299.5C 473.436,298.026 474.77,297.026 476.5,296.5C 476.769,290.589 479.436,286.255 484.5,283.5 Z M 487.5,292.5 C 493.533,293.08 495.033,296.08 492,301.5C 490.663,299.996 488.996,298.996 487,298.5C 486.322,296.402 486.489,294.402 487.5,292.5 Z"/></g>
<g><path style="opacity:0.597" fill="#000000" d="M 353.5,284.5 C 356.236,284.631 358.903,285.131 361.5,286C 358.403,287.61 355.069,288.61 351.5,289C 353.759,290.715 355.926,292.548 358,294.5C 359.731,298.067 361.231,301.734 362.5,305.5C 361.07,305.579 359.736,305.246 358.5,304.5C 356.929,306.415 354.929,307.415 352.5,307.5C 352.33,306.178 352.663,305.011 353.5,304C 351.069,299.56 347.402,297.894 342.5,299C 344.667,302.5 347.5,305.333 351,307.5C 351.49,308.793 351.657,310.127 351.5,311.5C 344.669,312.949 339.169,310.949 335,305.5C 332.839,301.152 333.005,296.985 335.5,293C 328.23,293.819 320.897,294.319 313.5,294.5C 313.572,289.249 316.072,287.249 321,288.5C 332.008,287.849 342.841,286.515 353.5,284.5 Z"/></g>
<g><path style="opacity:0.608" fill="#000000" d="M 262.5,287.5 C 266.881,287.372 271.215,287.705 275.5,288.5C 278.331,293.964 280.331,299.797 281.5,306C 280.387,311.396 277.054,314.23 271.5,314.5C 258.952,311.572 254.952,304.072 259.5,292C 243.377,292.54 227.21,294.707 211,298.5C 205.589,297.342 205.089,294.842 209.5,291C 210.549,290.508 211.549,290.674 212.5,291.5C 213.5,290.833 214.5,290.167 215.5,289.5C 218.178,289.198 220.845,289.865 223.5,291.5C 225.374,291.61 226.874,290.944 228,289.5C 229.154,291.957 230.488,291.957 232,289.5C 240.945,288.723 250.111,288.723 259.5,289.5C 261.038,289.547 262.038,288.88 262.5,287.5 Z M 267.5,298.5 C 271.776,298.97 275.11,300.97 277.5,304.5C 271.613,307.214 268.28,305.214 267.5,298.5 Z"/></g>
<g><path style="opacity:0.72" fill="#000000" d="M 190.5,289.5 C 196.837,289.316 201.67,291.983 205,297.5C 205.667,301.833 205.667,306.167 205,310.5C 204.274,314.979 202.274,315.979 199,313.5C 194.87,314.249 190.87,314.249 187,313.5C 185.779,312.728 184.779,311.728 184,310.5C 183.791,306.332 183.791,301.998 184,297.5C 185.367,293.987 187.534,291.32 190.5,289.5 Z M 192.5,300.5 C 193.552,300.351 194.552,300.517 195.5,301C 196.833,303 198.167,305 199.5,307C 195.514,306.855 193.181,304.688 192.5,300.5 Z"/></g>
<g><path style="opacity:0.503" fill="#000000" d="M 445.5,290.5 C 451.219,290.234 454.219,292.9 454.5,298.5C 449.813,297.918 445.48,296.585 441.5,294.5C 441.5,293.5 441.5,292.5 441.5,291.5C 443.099,291.768 444.432,291.434 445.5,290.5 Z"/></g>
<g><path style="opacity:0.451" fill="#000000" d="M 530.5,290.5 C 536.116,290.928 538.449,293.761 537.5,299C 532.511,298.501 530.178,295.668 530.5,290.5 Z"/></g>
<g><path style="opacity:0.533" fill="#000000" d="M 176.5,293.5 C 180.278,294.193 180.278,295.36 176.5,297C 158.366,297.607 140.533,300.107 123,304.5C 117.722,304.247 116.389,301.913 119,297.5C 120.067,296.809 121.234,296.309 122.5,296C 140.698,295.975 158.698,295.142 176.5,293.5 Z"/></g>
<g><path style="opacity:0.487" fill="#000000" d="M 391.5,294.5 C 393.467,294.261 395.301,294.594 397,295.5C 398.549,298.312 399.382,301.312 399.5,304.5C 395.529,303.428 392.029,301.428 389,298.5C 388.333,297.833 388.333,297.167 389,296.5C 389.995,295.934 390.828,295.267 391.5,294.5 Z"/></g>
<g><path style="opacity:0.544" fill="#000000" d="M 322.5,298.5 C 327.459,297.628 329.625,299.628 329,304.5C 325.206,307.507 322.372,306.84 320.5,302.5C 320.752,300.927 321.418,299.594 322.5,298.5 Z"/></g>
<g><path style="opacity:0.515" fill="#000000" d="M 220.5,299.5 C 226.905,298.406 229.238,301.073 227.5,307.5C 223.036,306.702 220.703,304.036 220.5,299.5 Z"/></g>
<g><path style="opacity:0.396" fill="#000000" d="M 151.5,302.5 C 152.978,302.238 154.311,302.571 155.5,303.5C 155.505,306.838 155.505,310.172 155.5,313.5C 153.517,312.018 151.684,310.351 150,308.5C 149.252,306.16 149.752,304.16 151.5,302.5 Z"/></g>
<g><path style="opacity:0.53" fill="#000000" d="M 471.5,313.5 C 473.167,313.5 474.833,313.5 476.5,313.5C 476.5,314.5 476.5,315.5 476.5,316.5C 469.16,317.557 461.827,318.723 454.5,320C 458.099,320.764 460.099,322.93 460.5,326.5C 456.019,326.575 451.686,325.908 447.5,324.5C 447.5,323.5 447.5,322.5 447.5,321.5C 444.15,321.665 440.817,321.498 437.5,321C 436.14,319.062 436.473,317.396 438.5,316C 440.556,315.689 442.556,315.189 444.5,314.5C 445.086,314.709 445.586,315.043 446,315.5C 454.598,314.846 463.098,314.18 471.5,313.5 Z"/></g>
<g><path style="opacity:0.558" fill="#000000" d="M 323.5,314.5 C 325.924,314.192 328.257,314.526 330.5,315.5C 330.291,316.086 329.957,316.586 329.5,317C 315.107,319.645 300.774,322.479 286.5,325.5C 278.56,322.818 278.56,320.318 286.5,318C 298.883,317.423 311.217,316.256 323.5,314.5 Z"/></g>
<g><path style="opacity:0.607" fill="#000000" d="M 351.5,315.5 C 371.39,315.884 391.057,316.217 410.5,316.5C 410.291,317.086 409.957,317.586 409.5,318C 392.565,320.489 375.565,322.323 358.5,323.5C 354.833,323.333 351.167,323.167 347.5,323C 345.455,322.07 344.621,320.57 345,318.5C 347.045,317.074 349.212,316.074 351.5,315.5 Z"/></g>
<g><path style="opacity:0.591" fill="#000000" d="M 212.5,317.5 C 225.74,319.593 239.073,319.593 252.5,317.5C 252.5,318.5 252.5,319.5 252.5,320.5C 240.928,321.653 229.428,323.32 218,325.5C 215.472,325.275 212.972,324.942 210.5,324.5C 210.166,321.812 210.832,319.479 212.5,317.5 Z"/></g>
<g><path style="opacity:0.498" fill="#000000" d="M 506.5,317.5 C 510.833,317.167 512.833,319.167 512.5,323.5C 508.776,324.227 506.109,322.894 504.5,319.5C 505.243,318.818 505.909,318.151 506.5,317.5 Z"/></g>
<g><path style="opacity:0.674" fill="#000000" d="M 533.5,317.5 C 543.299,317.249 545.966,321.249 541.5,329.5C 540.311,330.429 538.978,330.762 537.5,330.5C 537.762,329.022 537.429,327.689 536.5,326.5C 535.355,327.776 535.355,329.109 536.5,330.5C 538.614,333.07 540.947,335.403 543.5,337.5C 536.225,340.286 531.059,337.952 528,330.5C 527.093,324.983 528.926,320.65 533.5,317.5 Z"/></g>
<g><path style="opacity:0.63" fill="#000000" d="M 130.5,321.5 C 131.5,321.5 132.5,321.5 133.5,321.5C 133.67,322.822 133.337,323.989 132.5,325C 123.174,328.713 113.507,330.38 103.5,330C 100.937,327.816 101.271,325.983 104.5,324.5C 113.248,323.038 121.915,322.038 130.5,321.5 Z"/></g>
<g><path style="opacity:0.589" fill="#000000" d="M 183.5,321.5 C 184.833,321.5 186.167,321.5 187.5,321.5C 187.5,322.5 187.5,323.5 187.5,324.5C 173.918,326.546 160.585,328.546 147.5,330.5C 145.167,329.833 142.833,329.167 140.5,328.5C 139.253,326.994 139.253,325.494 140.5,324C 151.731,322.801 162.565,322.635 173,323.5C 176.654,322.938 180.154,322.271 183.5,321.5 Z"/></g>
<g><path style="opacity:0.64" fill="#000000" d="M 423.5,321.5 C 432.558,321.539 436.558,326.206 435.5,335.5C 437.199,335.38 438.865,335.046 440.5,334.5C 442.833,334.833 443.167,335.833 441.5,337.5C 448.747,338.522 455.914,338.189 463,336.5C 463.692,337.025 464.192,337.692 464.5,338.5C 455.623,340.178 446.957,342.678 438.5,346C 439.69,350.489 438.69,351.156 435.5,348C 433.866,347.506 432.199,347.34 430.5,347.5C 430.5,345.5 430.5,343.5 430.5,341.5C 421.637,340.814 417.804,336.148 419,327.5C 419.599,324.746 421.099,322.746 423.5,321.5 Z M 426.5,330.5 C 428.138,331.657 429.804,332.824 431.5,334C 428.632,334.64 426.965,333.473 426.5,330.5 Z"/></g>
<g><path style="opacity:0.717" fill="#000000" d="M 336.5,323.5 C 344.972,321.95 349.472,325.284 350,333.5C 346.304,335.763 345.471,338.43 347.5,341.5C 347.471,343.029 346.804,344.196 345.5,345C 334.119,345.952 329.286,340.786 331,329.5C 332.36,326.977 334.193,324.977 336.5,323.5 Z M 339.5,333.5 C 340.848,334.527 341.348,335.86 341,337.5C 339.812,336.437 339.312,335.103 339.5,333.5 Z"/></g>
<g><path style="opacity:0.376" fill="#000000" d="M 404.5,323.5 C 409.536,322.388 413.202,324.055 415.5,328.5C 411.142,329.343 407.142,328.343 403.5,325.5C 403.863,324.817 404.196,324.15 404.5,323.5 Z"/></g>
<g><path style="opacity:0.401" fill="#000000" d="M 314.5,325.5 C 318.85,326.517 321.517,329.184 322.5,333.5C 319.763,332.969 317.096,332.136 314.5,331C 313.248,329.172 313.248,327.339 314.5,325.5 Z"/></g>
<g><path style="opacity:0.666" fill="#000000" d="M 258.5,326.5 C 259.873,326.343 261.207,326.51 262.5,327C 265.361,328.832 267.861,330.999 270,333.5C 270.224,337.797 271.057,341.963 272.5,346C 272.265,349.399 270.598,351.732 267.5,353C 255.435,354.269 249.935,348.769 251,336.5C 252.305,333.362 254.471,331.029 257.5,329.5C 258.386,328.675 258.719,327.675 258.5,326.5 Z M 260.5,338.5 C 264.012,339.005 266.345,341.005 267.5,344.5C 262.851,345.533 260.518,343.533 260.5,338.5 Z"/></g>
<g><path style="opacity:0.528" fill="#000000" d="M 365.5,327.5 C 370.052,327.686 373.719,329.686 376.5,333.5C 377.386,334.325 377.719,335.325 377.5,336.5C 373.447,335.987 369.447,335.154 365.5,334C 362.939,331.844 362.939,329.677 365.5,327.5 Z"/></g>
<g><path style="opacity:0.599" fill="#000000" d="M 165.5,333.5 C 166.497,333.47 167.164,333.97 167.5,335C 165.985,337.766 166.318,340.266 168.5,342.5C 177.39,334.256 183.723,336.09 187.5,348C 185.188,351.359 183.854,350.859 183.5,346.5C 175.95,347.334 175.616,349.501 182.5,353C 186.154,354.001 189.154,353.001 191.5,350C 192.5,349.333 193.5,349.333 194.5,350C 189.96,360.931 182.627,363.264 172.5,357C 168.711,354.157 167.378,350.49 168.5,346C 163.951,344.389 161.785,341.222 162,336.5C 163.145,335.364 164.312,334.364 165.5,333.5 Z"/></g>
<g><path style="opacity:0.433" fill="#000000" d="M 211.5,335.5 C 212.822,335.33 213.989,335.663 215,336.5C 215.495,338.473 215.662,340.473 215.5,342.5C 210.813,342.084 209.479,339.751 211.5,335.5 Z"/></g>
<g><path style="opacity:0.523" fill="#000000" d="M 491.5,339.5 C 498.167,339.5 504.833,339.5 511.5,339.5C 511.5,340.5 511.5,341.5 511.5,342.5C 506.684,342.58 502.017,343.414 497.5,345C 494.167,345.667 490.833,345.667 487.5,345C 486.549,344.282 486.383,343.449 487,342.5C 488.409,341.219 489.909,340.219 491.5,339.5 Z"/></g>
<g><path style="opacity:0.403" fill="#000000" d="M 542.5,339.5 C 545.731,340.098 546.064,341.264 543.5,343C 539.249,344.195 534.915,344.695 530.5,344.5C 530.5,343.5 530.5,342.5 530.5,341.5C 534.705,341.283 538.705,340.617 542.5,339.5 Z"/></g>
<g><path style="opacity:0.504" fill="#000000" d="M 357.5,343.5 C 371.167,343.5 384.833,343.5 398.5,343.5C 398.5,344.5 398.5,345.5 398.5,346.5C 387.879,345.972 377.546,347.138 367.5,350C 361.833,350.667 356.167,350.667 350.5,350C 346.362,349.352 345.695,347.685 348.5,345C 351.695,344.819 354.695,344.319 357.5,343.5 Z"/></g>
<g><path style="opacity:0.554" fill="#000000" d="M 320.5,344.5 C 322.167,344.5 323.833,344.5 325.5,344.5C 325.5,345.5 325.5,346.5 325.5,347.5C 318.97,349.634 312.303,351.467 305.5,353C 300.201,354.145 294.868,354.478 289.5,354C 287.203,352.737 286.37,350.903 287,348.5C 289.269,346.731 291.602,346.065 294,346.5C 302.932,345.846 311.765,345.179 320.5,344.5 Z"/></g>
<g><path style="opacity:0.611" fill="#000000" d="M 239.5,350.5 C 241.968,351.742 244.468,351.742 247,350.5C 249.241,350.68 249.741,351.513 248.5,353C 231.781,355.173 215.114,357.673 198.5,360.5C 193.314,359.57 192.314,357.07 195.5,353C 196.833,352.667 198.167,352.333 199.5,352C 213.006,351.831 226.34,351.331 239.5,350.5 Z"/></g>
<g><path style="opacity:0.501" fill="#000000" d="M 125.5,358.5 C 136.716,359.024 147.883,360.024 159,361.5C 163.826,361.64 168.659,361.307 173.5,360.5C 173.778,362.346 173.111,363.68 171.5,364.5C 157.342,364.623 143.009,364.457 128.5,364C 125.095,363.247 124.095,361.414 125.5,358.5 Z"/></g>
</svg>
