<?xml version="1.0" encoding="UTF-8"?>
<!DOCTYPE svg PUBLIC "-//W3C//DTD SVG 1.1//EN" "http://www.w3.org/Graphics/SVG/1.1/DTD/svg11.dtd">
<svg xmlns="http://www.w3.org/2000/svg" version="1.1" width="611px" height="611px" style="shape-rendering:geometricPrecision; text-rendering:geometricPrecision; image-rendering:optimizeQuality; fill-rule:evenodd; clip-rule:evenodd" xmlns:xlink="http://www.w3.org/1999/xlink">
<g><path style="opacity:0.739" fill="#000000" d="M 450.5,261.5 C 463.868,261.818 476.868,263.318 489.5,266C 500.426,270.423 508.926,277.59 515,287.5C 519.141,299.341 518.141,310.674 512,321.5C 498.417,339.374 480.25,348.374 457.5,348.5C 450.912,347.755 444.246,347.755 437.5,348.5C 423.676,346.359 410.009,343.526 396.5,340C 388.106,337.048 380.939,332.215 375,325.5C 369.235,317.383 368.235,308.716 372,299.5C 375.338,293.654 379.504,288.487 384.5,284C 395.981,275.833 408.648,270.167 422.5,267C 431.967,265.038 441.3,263.205 450.5,261.5 Z M 441.5,271.5 C 454.078,271.088 466.745,271.921 479.5,274C 488.775,276.705 496.775,281.538 503.5,288.5C 507.98,296.314 508.814,304.314 506,312.5C 495.483,329.178 480.317,337.678 460.5,338C 438.232,339.874 416.565,337.207 395.5,330C 387.782,326.947 381.948,321.781 378,314.5C 377.262,310.739 377.595,307.072 379,303.5C 381.395,298.609 384.895,294.942 389.5,292.5C 389.33,291.178 389.663,290.011 390.5,289C 406.208,279.133 423.208,273.3 441.5,271.5 Z"/></g>
<g><path style="opacity:0.72" fill="#000000" d="M 121.5,271.5 C 130.294,271.091 138.96,271.924 147.5,274C 158.251,277.415 163.585,284.748 163.5,296C 162.684,309.967 157.017,321.634 146.5,331C 137.06,339.706 125.893,344.54 113,345.5C 105.833,343.954 98.6661,343.454 91.5,344C 91.0183,342.992 90.8516,341.825 91,340.5C 72.5235,333.533 67.1902,320.866 75,302.5C 79.101,295.735 83.9344,289.569 89.5,284C 99.7463,278.362 110.413,274.196 121.5,271.5 Z M 121.5,280.5 C 131.321,279.391 140.655,280.891 149.5,285C 155.448,291.066 156.614,297.899 153,305.5C 138.419,334.638 116.252,342.638 86.5,329.5C 80.4267,323.954 78.5934,317.287 81,309.5C 82.4131,306.339 84.0797,303.339 86,300.5C 95.6629,289.389 107.496,282.722 121.5,280.5 Z"/></g>
<g><path style="opacity:0.523" fill="#000000" d="M 466.5,281.5 C 468.5,281.5 470.5,281.5 472.5,281.5C 474.369,288.111 472.035,290.444 465.5,288.5C 464.585,287.672 463.919,286.672 463.5,285.5C 464.826,284.358 465.826,283.024 466.5,281.5 Z"/></g>
<g><path style="opacity:0.53" fill="#000000" d="M 121.5,282.5 C 123.5,282.5 125.5,282.5 127.5,282.5C 128.962,288.205 126.795,290.538 121,289.5C 120.444,287.115 120.61,284.782 121.5,282.5 Z"/></g>
<g><path style="opacity:0.462" fill="#000000" d="M 434.5,283.5 C 441.01,286.229 441.01,289.229 434.5,292.5C 432.045,289.344 432.045,286.344 434.5,283.5 Z"/></g>
<g><path style="opacity:0.493" fill="#000000" d="M 99.5,298.5 C 105.282,297.825 106.949,300.159 104.5,305.5C 99.1349,305.764 97.4682,303.431 99.5,298.5 Z"/></g>
<g><path style="opacity:0.373" fill="#000000" d="M 131.5,306.5 C 133.288,306.215 134.955,306.548 136.5,307.5C 137.713,311.085 136.38,312.251 132.5,311C 131.62,309.644 131.286,308.144 131.5,306.5 Z"/></g>
<g><path style="opacity:0.475" fill="#000000" d="M 405.5,306.5 C 407.451,306.227 408.951,306.893 410,308.5C 411.346,315.538 409.013,317.204 403,313.5C 402.683,310.793 403.516,308.46 405.5,306.5 Z"/></g>
<g><path style="opacity:0.47" fill="#000000" d="M 442.5,309.5 C 447.675,308.672 449.675,310.672 448.5,315.5C 446.955,316.452 445.288,316.785 443.5,316.5C 443.007,314.194 442.674,311.861 442.5,309.5 Z"/></g>
<g><path style="opacity:0.399" fill="#000000" d="M 103.5,321.5 C 104.833,321.5 106.167,321.5 107.5,321.5C 107.5,323.167 107.5,324.833 107.5,326.5C 104.09,326.616 102.756,324.95 103.5,321.5 Z"/></g>
<g><path style="opacity:0.357" fill="#000000" d="M 463.5,321.5 C 465.5,321.5 467.5,321.5 469.5,321.5C 469.166,325.648 466.833,327.315 462.5,326.5C 462.366,324.708 462.699,323.042 463.5,321.5 Z"/></g>
</svg>
