<?xml version="1.0" encoding="UTF-8"?>
<!DOCTYPE svg PUBLIC "-//W3C//DTD SVG 1.1//EN" "http://www.w3.org/Graphics/SVG/1.1/DTD/svg11.dtd">
<svg xmlns="http://www.w3.org/2000/svg" version="1.1" width="611px" height="611px" style="shape-rendering:geometricPrecision; text-rendering:geometricPrecision; image-rendering:optimizeQuality; fill-rule:evenodd; clip-rule:evenodd" xmlns:xlink="http://www.w3.org/1999/xlink">
<g><path style="opacity:0.708" fill="#000000" d="M 351.5,179.5 C 352.878,180.234 354.378,180.901 356,181.5C 356.667,180.833 357.333,180.167 358,179.5C 360.421,181.98 363.254,182.647 366.5,181.5C 367.696,181.846 367.696,182.346 366.5,183C 368.441,183.743 370.274,183.576 372,182.5C 379.033,184.941 386.2,186.941 393.5,188.5C 397.386,189.814 401.386,191.147 405.5,192.5C 406.086,192.291 406.586,191.957 407,191.5C 408.177,192.318 409.51,193.318 411,194.5C 411.772,194.355 412.439,194.022 413,193.5C 413.278,194.416 413.778,195.082 414.5,195.5C 415.189,196.774 416.023,196.774 417,195.5C 424.334,200.002 432.001,204.002 440,207.5C 441.164,207.835 442.497,207.835 444,207.5C 444.617,208.449 444.451,209.282 443.5,210C 455.14,215.648 464.973,223.481 473,233.5C 474.586,234.376 476.086,235.376 477.5,236.5C 477.291,237.086 476.957,237.586 476.5,238C 478.694,240.194 480.86,242.36 483,244.5C 485.527,248.896 488.027,253.229 490.5,257.5C 493.309,261.629 495.976,265.795 498.5,270C 497.978,270.561 497.645,271.228 497.5,272C 498.809,274.923 500.309,277.756 502,280.5C 502.429,285.847 503.596,290.514 505.5,294.5C 505.263,295.791 505.596,296.791 506.5,297.5C 510.813,315.134 510.48,332.634 505.5,350C 505.493,351.583 505.826,353.249 506.5,355C 504.519,355.605 504.185,356.605 505.5,358C 503.549,362.793 501.549,367.626 499.5,372.5C 499.833,373.167 500.167,373.833 500.5,374.5C 500.154,375.696 499.654,375.696 499,374.5C 497.365,380.018 494.699,385.352 491,390.5C 489.196,394.102 487.696,397.769 486.5,401.5C 485.448,401.351 484.448,401.517 483.5,402C 483.833,402.333 484.167,402.667 484.5,403C 472.954,418.774 458.954,429.941 442.5,436.5C 435.53,438.439 428.697,440.439 422,442.5C 418.956,441.428 416.289,442.094 414,444.5C 411.063,443.183 408.23,443.183 405.5,444.5C 394.938,446.077 384.438,447.077 374,447.5C 341.854,447.396 309.687,447.396 277.5,447.5C 263.456,446.547 249.289,445.213 235,443.5C 233,444.833 231,444.833 229,443.5C 228.667,444.167 228.333,444.833 228,445.5C 226.933,444.809 225.766,444.309 224.5,444C 215.802,443.496 207.135,442.663 198.5,441.5C 195.66,442.596 192.994,442.429 190.5,441C 185.25,440.807 180.083,440.307 175,439.5C 174.586,439.957 174.086,440.291 173.5,440.5C 160.48,438.162 147.48,435.662 134.5,433C 129.413,432.025 124.579,430.525 120,428.5C 119,429.167 118,429.833 117,430.5C 115.856,428.083 114.19,427.416 112,428.5C 97.2435,424.87 84.4102,417.703 73.5,407C 74.2797,405.927 74.113,404.76 73,403.5C 72.3292,402.748 71.4959,402.414 70.5,402.5C 70.0825,401.778 69.4158,401.278 68.5,401C 68.8333,400.667 69.1667,400.333 69.5,400C 55.6135,380.978 52.6135,359.311 60.5,335C 60.0426,334.586 59.7093,334.086 59.5,333.5C 60.1667,333.167 60.8333,332.833 61.5,332.5C 60.2822,331.197 60.6155,330.197 62.5,329.5C 61.2822,328.197 61.6155,327.197 63.5,326.5C 63.2907,325.914 62.9574,325.414 62.5,325C 64.6023,321.751 66.2689,318.251 67.5,314.5C 69.1042,313.713 69.7709,312.38 69.5,310.5C 70.9628,307.801 72.6295,305.135 74.5,302.5C 73.4291,300.675 74.0958,299.508 76.5,299C 76.1667,298.667 75.8333,298.333 75.5,298C 77.6437,297.208 78.977,295.708 79.5,293.5C 80.404,292.791 80.7373,291.791 80.5,290.5C 82.7233,287.089 85.2233,283.756 88,280.5C 88.4828,279.552 88.6495,278.552 88.5,277.5C 91.1865,276.336 93.5199,274.503 95.5,272C 94.3463,271.086 94.513,270.253 96,269.5C 96.3333,269.833 96.6667,270.167 97,270.5C 101.431,264.639 106.097,258.972 111,253.5C 111.333,253.833 111.667,254.167 112,254.5C 113.763,251.98 115.763,249.647 118,247.5C 118.333,247.833 118.667,248.167 119,248.5C 121.237,246.353 123.237,244.02 125,241.5C 125.333,241.833 125.667,242.167 126,242.5C 126.903,241.299 128.069,240.465 129.5,240C 129.381,238.719 129.881,237.552 131,236.5C 131.977,237.774 132.811,237.774 133.5,236.5C 143.56,228.051 154.393,220.718 166,214.5C 173.855,209.989 182.022,206.156 190.5,203C 191.72,200.298 193.554,199.464 196,200.5C 199.979,198.72 203.812,196.72 207.5,194.5C 208.167,194.833 208.833,195.167 209.5,195.5C 215.599,192.273 221.933,189.939 228.5,188.5C 235.616,186.55 242.949,184.55 250.5,182.5C 252.527,182.662 254.527,182.495 256.5,182C 255.304,181.346 255.304,180.846 256.5,180.5C 258.768,181.544 261.101,181.711 263.5,181C 263.167,180.667 262.833,180.333 262.5,180C 264.294,178.539 266.294,178.372 268.5,179.5C 269.994,179.291 271.161,178.624 272,177.5C 275.02,178.081 278.02,178.415 281,178.5C 284.131,177.794 287.298,177.127 290.5,176.5C 305.597,176.031 320.763,176.697 336,178.5C 336.414,178.043 336.914,177.709 337.5,177.5C 342.066,178.816 346.732,179.483 351.5,179.5 Z M 416.5,209.5 C 420.455,211.077 424.455,212.577 428.5,214C 427.167,214.667 427.167,215.333 428.5,216C 429.449,216.617 430.282,216.451 431,215.5C 437.103,219.133 442.937,223.133 448.5,227.5C 449.006,229.105 449.673,229.439 450.5,228.5C 452.5,230.167 454.5,231.833 456.5,233.5C 458.833,236.5 461.5,239.167 464.5,241.5C 467.907,247.434 472.407,253.101 478,258.5C 481.63,265.407 484.797,272.074 487.5,278.5C 488.91,281.847 490.244,285.347 491.5,289C 491.355,289.772 491.022,290.439 490.5,291C 491.318,292.177 492.318,293.51 493.5,295C 493.355,295.772 493.022,296.439 492.5,297C 493.578,297.674 494.245,298.674 494.5,300C 498.535,316.42 498.202,332.754 493.5,349C 494.475,351.412 493.808,353.412 491.5,355C 492.059,355.725 492.392,356.558 492.5,357.5C 489.251,367.995 484.918,377.995 479.5,387.5C 478.624,388.251 477.624,388.751 476.5,389C 476.833,390 477.167,391 477.5,392C 475.507,393.621 473.507,395.287 471.5,397C 471.957,397.414 472.291,397.914 472.5,398.5C 469.356,401.297 466.689,404.297 464.5,407.5C 463.922,406.453 463.256,406.62 462.5,408C 462.728,408.399 463.062,408.565 463.5,408.5C 459.796,412.626 455.796,415.626 451.5,417.5C 441.773,424.635 430.773,428.635 418.5,429.5C 414.455,430.856 410.455,431.856 406.5,432.5C 402.716,431.673 398.883,432.007 395,433.5C 394.228,433.355 393.561,433.022 393,432.5C 382.361,433.335 371.528,434.335 360.5,435.5C 336.954,435.037 313.62,435.037 290.5,435.5C 268.779,433.875 247.446,432.541 226.5,431.5C 224.856,431.714 223.356,431.38 222,430.5C 221.667,431.167 221.333,431.833 221,432.5C 218.204,431.789 215.37,431.122 212.5,430.5C 210.602,431.734 208.935,431.401 207.5,429.5C 202.282,430.249 197.115,430.582 192,430.5C 188.062,429.224 184.062,428.224 180,427.5C 179.439,428.022 178.772,428.355 178,428.5C 175.205,427.815 172.372,427.315 169.5,427C 154.831,426.488 140.164,425.988 125.5,425.5C 125.657,424.127 125.49,422.793 125,421.5C 124.667,421.833 124.333,422.167 124,422.5C 121.36,420.69 118.694,419.024 116,417.5C 112.422,418.144 109.255,417.144 106.5,414.5C 104.166,412.663 101.833,411.663 99.5,411.5C 97.8102,411.144 96.8102,410.144 96.5,408.5C 95.325,408.719 94.325,408.386 93.5,407.5C 92.2433,405.321 90.7433,403.321 89,401.5C 88.6667,401.833 88.3333,402.167 88,402.5C 70.4227,386.89 64.9227,367.556 71.5,344.5C 71.1667,343.833 70.8333,343.167 70.5,342.5C 71.7722,338.955 73.1056,335.455 74.5,332C 74.1667,331.667 73.8333,331.333 73.5,331C 75.9946,327.173 77.828,323.006 79,318.5C 81.1223,317.78 81.6223,316.613 80.5,315C 83.0227,310.271 86.0227,305.938 89.5,302C 89.1667,301.667 88.8333,301.333 88.5,301C 91.4743,297.55 93.8076,293.717 95.5,289.5C 95.9569,288.702 96.6236,288.369 97.5,288.5C 98.3696,286.726 99.703,285.393 101.5,284.5C 100.282,282.668 100.949,281.668 103.5,281.5C 104.11,279.566 105.11,277.899 106.5,276.5C 106.842,275.662 107.508,275.328 108.5,275.5C 109.692,273.122 111.359,271.122 113.5,269.5C 113.833,270.833 114.167,270.833 114.5,269.5C 115.774,268.811 115.774,267.977 114.5,267C 115.253,265.513 116.086,265.346 117,266.5C 118.385,265.449 119.385,264.116 120,262.5C 120.333,262.833 120.667,263.167 121,263.5C 123.865,260.72 126.532,257.72 129,254.5C 129.333,254.833 129.667,255.167 130,255.5C 139.042,246.975 148.875,239.308 159.5,232.5C 160.965,231.263 162.632,230.263 164.5,229.5C 165.078,230.547 165.744,230.38 166.5,229C 166.272,228.601 165.938,228.435 165.5,228.5C 167.045,227.36 168.712,226.36 170.5,225.5C 170.833,226.833 171.167,226.833 171.5,225.5C 173.001,224.248 174.668,223.248 176.5,222.5C 177.542,221.209 178.708,221.209 180,222.5C 180.724,220.041 182.057,219.041 184,219.5C 216.399,202.177 252.399,191.844 292,188.5C 302.644,188.502 313.644,188.502 325,188.5C 335.442,190.086 345.942,191.253 356.5,192C 357.667,192.5 358.5,193.333 359,194.5C 363.121,193.592 367.288,193.759 371.5,195C 378.183,196.668 384.85,198.335 391.5,200C 397.643,202.603 403.977,204.603 410.5,206C 412.879,206.716 414.879,207.883 416.5,209.5 Z"/></g>
<g><path style="opacity:0.004" fill="#000000" d="M 351.5,178.5 C 352.833,179.167 352.833,179.167 351.5,178.5 Z"/></g>
<g><path style="opacity:0.004" fill="#000000" d="M 250.5,182.5 C 249.833,181.167 249.833,181.167 250.5,182.5 Z"/></g>
<g><path style="opacity:0.004" fill="#000000" d="M 386.5,185.5 C 387.833,186.167 387.833,186.167 386.5,185.5 Z"/></g>
<g><path style="opacity:0.004" fill="#000000" d="M 228.5,188.5 C 227.833,187.167 227.833,187.167 228.5,188.5 Z"/></g>
<g><path style="opacity:0.004" fill="#000000" d="M 393.5,187.5 C 394.833,188.167 394.833,188.167 393.5,187.5 Z"/></g>
<g><path style="opacity:0.004" fill="#000000" d="M 414.5,194.5 C 415.833,195.167 415.833,195.167 414.5,194.5 Z"/></g>
<g><path style="opacity:0.495" fill="#000000" d="M 347.5,207.5 C 346.167,207.5 344.833,207.5 343.5,207.5C 343.167,206.167 342.833,206.167 342.5,207.5C 341.5,207.5 340.5,207.5 339.5,207.5C 339.335,204.482 339.502,201.482 340,198.5C 345.262,196.069 348.095,197.735 348.5,203.5C 348.154,204.849 347.821,206.183 347.5,207.5 Z"/></g>
<g><path style="opacity:0.004" fill="#000000" d="M 133.5,236.5 C 132.833,235.167 132.833,235.167 133.5,236.5 Z"/></g>
<g><path style="opacity:0.293" fill="#000000" d="M 217.5,245.5 C 222.161,244.832 224.161,246.832 223.5,251.5C 218.074,253.402 216.074,251.402 217.5,245.5 Z"/></g>
<g><path style="opacity:0.564" fill="#000000" d="M 380.5,252.5 C 383.167,253.167 385.833,253.833 388.5,254.5C 388.756,256.937 389.423,259.271 390.5,261.5C 388.471,264.527 387.471,267.86 387.5,271.5C 385.217,271.392 383.217,270.559 381.5,269C 381.957,268.586 382.291,268.086 382.5,267.5C 376.732,263.191 376.065,258.191 380.5,252.5 Z"/></g>
<g><path style="opacity:0.004" fill="#000000" d="M 490.5,256.5 C 491.833,257.167 491.833,257.167 490.5,256.5 Z"/></g>
<g><path style="opacity:0.504" fill="#000000" d="M 306.5,271.5 C 305.791,270.596 304.791,270.263 303.5,270.5C 303.279,269.265 302.612,268.265 301.5,267.5C 301.567,265.576 301.9,263.576 302.5,261.5C 312.488,257.09 315.654,260.09 312,270.5C 310.301,271.406 308.467,271.739 306.5,271.5 Z"/></g>
<g><path style="opacity:0.473" fill="#000000" d="M 169.5,260.5 C 177.088,259.687 179.255,262.687 176,269.5C 173.688,270.15 171.188,270.15 168.5,269.5C 167.146,266.282 167.479,263.282 169.5,260.5 Z"/></g>
<g><path style="opacity:0.434" fill="#000000" d="M 235.5,260.5 C 241.352,262.839 242.518,266.506 239,271.5C 231.926,269.733 230.76,266.066 235.5,260.5 Z"/></g>
<g><path style="opacity:0.468" fill="#000000" d="M 445.5,266.5 C 447.806,266.993 450.139,267.326 452.5,267.5C 454.39,275.65 451.39,279.15 443.5,278C 444.199,274.17 444.866,270.337 445.5,266.5 Z"/></g>
<g><path style="opacity:0.004" fill="#000000" d="M 80.5,290.5 C 79.8333,289.167 79.8333,289.167 80.5,290.5 Z"/></g>
<g><path style="opacity:0.004" fill="#000000" d="M 79.5,293.5 C 78.8333,292.167 78.8333,292.167 79.5,293.5 Z"/></g>
<g><path style="opacity:0.004" fill="#000000" d="M 505.5,293.5 C 506.833,294.167 506.833,294.167 505.5,293.5 Z"/></g>
<g><path style="opacity:0.004" fill="#000000" d="M 506.5,296.5 C 507.833,297.167 507.833,297.167 506.5,296.5 Z"/></g>
<g><path style="opacity:0.004" fill="#000000" d="M 69.5,310.5 C 68.8333,309.167 68.8333,309.167 69.5,310.5 Z"/></g>
<g><path style="opacity:0.004" fill="#000000" d="M 67.5,311.5 C 68.8333,312.167 68.8333,312.167 67.5,311.5 Z"/></g>
<g><path style="opacity:0.004" fill="#000000" d="M 67.5,314.5 C 66.8333,313.167 66.8333,313.167 67.5,314.5 Z"/></g>
<g><path style="opacity:0.531" fill="#000000" d="M 205.5,314.5 C 209.007,313.994 212.174,314.66 215,316.5C 214.637,318.716 214.804,320.882 215.5,323C 213.442,329.462 210.609,329.962 207,324.5C 206.667,324.833 206.333,325.167 206,325.5C 205.654,323.782 205.154,322.115 204.5,320.5C 205.348,318.591 205.682,316.591 205.5,314.5 Z"/></g>
<g><path style="opacity:0.6" fill="#000000" d="M 106.5,325.5 C 105.512,326.795 104.512,328.128 103.5,329.5C 99.5854,329.753 95.9187,329.087 92.5,327.5C 93.0233,324.11 93.8566,320.777 95,317.5C 103.268,313.589 107.101,316.255 106.5,325.5 Z"/></g>
<g><path style="opacity:0.574" fill="#000000" d="M 451.5,345.5 C 450.833,345.5 450.5,345.833 450.5,346.5C 447.976,346.571 445.976,345.571 444.5,343.5C 443.914,343.709 443.414,344.043 443,344.5C 442.71,342.956 442.044,341.623 441,340.5C 440.202,338.741 440.369,337.074 441.5,335.5C 443.002,334.917 444.335,334.084 445.5,333C 445.167,332.667 444.833,332.333 444.5,332C 446.791,331.985 448.958,331.818 451,331.5C 452.167,334.667 454.333,336.833 457.5,338C 456.024,340.97 454.024,343.47 451.5,345.5 Z"/></g>
<g><path style="opacity:0.453" fill="#000000" d="M 158.5,342.5 C 162.482,341.578 164.816,343.078 165.5,347C 164.833,347.333 164.167,347.667 163.5,348C 163.5,349.333 163.5,350.667 163.5,352C 160.648,352.936 158.315,352.27 156.5,350C 156.043,347.352 156.709,344.852 158.5,342.5 Z"/></g>
<g><path style="opacity:0.47" fill="#000000" d="M 318.5,347.5 C 319.174,342.849 321.841,341.349 326.5,343C 329.402,347.369 328.402,350.536 323.5,352.5C 321.667,350.899 320,349.232 318.5,347.5 Z"/></g>
<g><path style="opacity:0.004" fill="#000000" d="M 507.5,346.5 C 508.833,347.167 508.833,347.167 507.5,346.5 Z"/></g>
<g><path style="opacity:0.004" fill="#000000" d="M 506.5,352.5 C 507.833,353.167 507.833,353.167 506.5,352.5 Z"/></g>
<g><path style="opacity:0.541" fill="#000000" d="M 253.5,401.5 C 252.476,398.527 252.643,395.527 254,392.5C 257.086,390.78 259.419,391.447 261,394.5C 261.914,393.346 262.747,393.513 263.5,395C 263.132,398.378 263.132,401.878 263.5,405.5C 261.801,405.66 260.134,405.494 258.5,405C 257.115,403.351 255.449,402.184 253.5,401.5 Z"/></g>
<g><path style="opacity:0.426" fill="#000000" d="M 430.5,391.5 C 432.582,391.472 434.416,392.139 436,393.5C 436.236,395.764 436.736,397.931 437.5,400C 436.391,400.638 435.225,401.138 434,401.5C 432.07,401.518 430.236,401.018 428.5,400C 429.325,397.222 429.992,394.389 430.5,391.5 Z"/></g>
<g><path style="opacity:0.004" fill="#000000" d="M 70.5,402.5 C 69.8333,403.167 69.8333,403.167 70.5,402.5 Z"/></g>
<g><path style="opacity:0.357" fill="#000000" d="M 185.5,405.5 C 189.365,407.448 190.365,410.448 188.5,414.5C 186.955,415.452 185.288,415.785 183.5,415.5C 183.277,413.658 182.943,411.825 182.5,410C 182.557,407.791 183.557,406.291 185.5,405.5 Z"/></g>
<g><path style="opacity:0.004" fill="#000000" d="M 405.5,444.5 C 406.833,445.167 406.833,445.167 405.5,444.5 Z"/></g>
</svg>
