<?xml version="1.0" standalone="no"?>
<!DOCTYPE svg PUBLIC "-//W3C//DTD SVG 20010904//EN"
 "http://www.w3.org/TR/2001/REC-SVG-20010904/DTD/svg10.dtd">
<svg version="1.0" xmlns="http://www.w3.org/2000/svg"
 width="1699.000000pt" height="1180.000000pt" viewBox="0 0 1699.000000 1180.000000"
 preserveAspectRatio="xMidYMid meet">

<g transform="translate(0.000000,1180.000000) scale(0.100000,-0.100000)"
fill="#000000" stroke="none">
<path d="M8135 10569 c-198 -6 -261 -15 -430 -59 -156 -41 -271 -80 -369 -125
-30 -14 -101 -41 -158 -61 -56 -20 -117 -42 -135 -50 -17 -8 -36 -14 -41 -14
-6 0 -52 -14 -104 -31 -101 -34 -188 -58 -228 -64 -14 -2 -61 -11 -105 -20
-76 -15 -250 -16 -436 0 -45 3 -232 44 -319 70 -25 7 -72 18 -105 25 -33 7
-71 16 -85 20 -14 4 -54 15 -90 25 -36 9 -96 27 -135 40 -38 13 -101 31 -140
40 -38 9 -91 25 -117 36 -26 10 -56 19 -67 19 -12 0 -29 4 -39 9 -35 19 -263
51 -430 62 -181 12 -502 17 -632 10 -135 -7 -375 -59 -465 -101 -27 -13 -75
-39 -105 -58 -30 -19 -70 -41 -87 -49 -18 -7 -33 -20 -33 -27 0 -21 28 -46 53
-46 11 0 57 -13 101 -29 128 -46 273 -91 295 -91 11 0 22 -4 25 -9 3 -4 27
-16 53 -25 72 -26 247 -100 273 -116 8 -5 33 -19 55 -30 22 -12 79 -46 126
-76 47 -30 91 -54 98 -54 6 0 11 -4 11 -9 0 -5 10 -13 23 -17 12 -3 42 -23 66
-43 53 -43 58 -47 191 -135 57 -38 117 -81 134 -96 89 -80 162 -140 168 -140
5 0 8 -5 8 -10 0 -9 27 -40 110 -126 11 -12 20 -26 20 -32 0 -6 11 -19 25 -30
14 -11 25 -24 25 -30 0 -5 6 -15 14 -21 27 -22 63 -116 65 -166 5 -115 2 -174
-12 -245 -19 -98 -48 -204 -57 -210 -4 -3 -15 -23 -26 -45 -10 -21 -43 -66
-74 -98 -30 -32 -57 -63 -58 -68 -4 -10 -117 -89 -128 -89 -3 0 -23 -15 -44
-34 -21 -18 -61 -46 -90 -60 -29 -15 -69 -39 -89 -55 -20 -15 -63 -45 -96 -66
-65 -42 -165 -122 -178 -142 -4 -7 -14 -13 -21 -13 -7 0 -23 -10 -36 -22 -13
-13 -39 -32 -56 -43 -115 -71 -213 -150 -214 -172 0 -7 -8 -17 -17 -22 -29
-16 -222 -220 -271 -286 -16 -22 -49 -60 -72 -85 -55 -58 -120 -144 -120 -158
0 -5 -3 -12 -7 -14 -12 -5 -75 -101 -108 -165 -9 -17 -25 -39 -36 -49 -10 -9
-19 -24 -19 -32 0 -11 -8 -13 -33 -8 -57 12 -90 16 -202 26 -60 5 -132 13
-160 18 -70 14 -320 15 -380 2 -27 -6 -86 -17 -130 -25 -84 -15 -207 -59 -247
-88 -12 -9 -57 -34 -98 -55 -90 -46 -123 -65 -130 -73 -3 -3 -16 -12 -30 -19
-30 -15 -39 -23 -110 -92 -52 -52 -76 -79 -138 -158 -32 -41 -112 -199 -112
-222 0 -9 -7 -21 -15 -28 -8 -7 -15 -27 -15 -44 0 -18 -4 -36 -9 -41 -11 -12
-30 -72 -36 -111 -2 -16 -8 -43 -14 -61 -5 -17 -7 -34 -4 -37 3 -3 2 -11 -4
-18 -15 -21 -34 -137 -35 -213 0 -123 11 -309 21 -345 5 -19 19 -70 30 -112
23 -85 35 -114 94 -233 45 -89 93 -163 120 -183 9 -7 17 -19 17 -25 0 -19 118
-129 185 -174 59 -39 109 -64 190 -96 22 -8 63 -24 91 -36 28 -11 105 -30 170
-42 104 -18 142 -20 309 -15 244 7 383 22 440 46 11 5 44 12 72 15 50 6 53 5
62 -19 6 -14 23 -44 38 -68 15 -24 47 -81 71 -128 25 -47 62 -119 84 -160 22
-41 56 -104 75 -140 19 -36 38 -72 42 -80 5 -8 21 -42 37 -75 16 -33 32 -62
35 -65 3 -3 14 -21 23 -41 9 -20 25 -45 34 -55 9 -11 23 -30 30 -44 28 -55 59
-99 95 -136 20 -21 40 -46 43 -56 3 -10 10 -18 15 -18 5 0 9 -6 9 -14 0 -8 4
-16 8 -18 5 -1 19 -21 33 -44 42 -71 188 -234 264 -294 25 -19 77 -62 117 -96
40 -33 91 -73 113 -87 22 -15 78 -56 125 -92 47 -35 110 -77 140 -92 30 -16
59 -33 65 -39 15 -16 196 -120 225 -129 14 -4 36 -16 49 -26 13 -11 29 -19 37
-19 10 0 197 -92 279 -138 117 -64 389 -182 421 -182 9 0 98 -40 198 -89 168
-83 316 -138 436 -161 72 -14 124 -25 375 -76 72 -15 148 -30 170 -35 22 -4
74 -17 115 -28 102 -28 242 -56 380 -76 63 -9 144 -21 180 -27 76 -12 126 -17
235 -22 44 -3 150 -9 235 -15 85 -5 193 -10 239 -11 47 -1 88 -3 93 -6 11 -7
865 -7 876 0 5 3 71 8 146 11 76 4 161 10 189 15 29 5 108 18 177 29 69 11
148 27 175 35 41 12 122 29 280 60 11 2 49 11 85 20 60 16 83 22 135 41 11 4
29 9 40 10 25 4 135 31 195 49 25 8 72 21 105 31 139 39 151 43 310 100 72 25
138 50 147 56 10 5 25 9 33 9 9 0 35 9 57 20 23 11 49 20 58 20 22 0 158 52
270 103 30 14 82 37 115 51 33 15 67 30 75 35 49 25 89 49 124 74 21 15 47 27
57 27 9 0 30 10 46 23 15 13 66 48 113 79 47 31 137 97 200 147 63 50 162 125
219 167 147 107 328 262 391 335 30 34 61 67 68 73 31 26 174 177 233 246 64
74 189 237 189 246 0 4 25 33 49 57 43 43 59 65 91 125 20 37 52 90 72 117 20
28 45 68 57 90 23 43 40 73 81 145 30 53 91 189 95 209 3 25 31 36 57 24 55
-26 198 -42 448 -50 160 -4 201 -2 305 16 206 37 462 154 548 251 14 15 31 32
39 37 7 4 31 31 53 58 139 171 238 408 270 645 11 73 13 160 4 160 -4 0 -3 16
3 36 5 20 7 59 3 88 -11 89 -47 261 -56 272 -5 6 -7 13 -4 16 5 5 -23 107 -34
123 -4 6 -8 24 -10 40 -1 17 -8 37 -15 45 -7 8 -19 35 -26 60 -8 25 -27 67
-42 93 -15 26 -28 51 -28 56 0 4 -11 18 -25 31 -14 13 -25 28 -25 34 0 12 -19
33 -116 130 -71 70 -82 79 -114 96 -14 7 -27 16 -30 19 -6 8 -37 25 -129 73
-40 21 -85 46 -100 56 -43 30 -165 73 -248 87 -43 8 -100 19 -128 25 -61 13
-313 12 -375 -2 -25 -5 -94 -13 -155 -18 -60 -5 -128 -12 -150 -16 -22 -3 -62
-7 -88 -8 l-49 -1 -32 60 c-17 33 -45 80 -61 104 -17 24 -34 51 -40 60 -14 22
-188 255 -195 261 -3 3 -44 50 -91 105 -110 128 -394 415 -411 415 -3 0 -30
24 -61 53 -31 28 -72 66 -92 82 -20 17 -49 40 -63 52 -58 48 -89 71 -127 97
-37 25 -72 54 -179 147 -42 37 -140 112 -215 164 -24 17 -56 41 -71 55 -15 14
-44 39 -65 55 -31 26 -82 95 -160 220 -11 17 -21 39 -22 49 -2 11 -13 35 -24
53 -22 35 -22 42 -4 173 10 68 27 145 36 160 5 8 14 26 19 40 19 47 34 75 55
101 11 15 33 44 50 65 34 45 155 164 166 164 4 0 14 6 21 13 13 13 137 97 143
97 5 0 131 83 230 151 93 65 212 128 293 155 25 9 69 27 96 40 28 12 76 30
106 40 54 16 146 48 185 65 11 5 59 20 107 34 48 14 132 43 185 66 54 23 125
47 158 55 33 8 77 21 98 29 20 8 48 15 61 15 41 0 48 22 20 58 -14 18 -31 32
-37 32 -15 0 -197 56 -262 81 -27 10 -88 26 -135 35 -47 9 -101 20 -120 24
-119 29 -684 36 -835 11 -38 -6 -95 -15 -125 -20 -77 -12 -197 -39 -250 -56
-25 -8 -58 -17 -75 -19 -16 -3 -68 -16 -115 -29 -47 -14 -137 -37 -200 -52
-63 -14 -135 -32 -160 -40 -25 -7 -81 -21 -125 -30 -44 -10 -87 -21 -95 -26
-9 -4 -29 -9 -45 -11 -29 -4 -83 -18 -151 -39 -17 -5 -38 -9 -48 -9 -9 0 -45
-9 -79 -19 -61 -19 -176 -40 -331 -62 -80 -11 -161 -6 -171 12 -4 5 -20 9 -36
9 -16 0 -45 7 -64 15 -19 7 -62 17 -95 21 -33 4 -63 11 -66 15 -3 5 -14 9 -25
9 -21 0 -69 15 -384 120 -249 82 -253 84 -330 111 -33 11 -73 24 -90 29 -16 4
-50 15 -75 24 -52 20 -173 53 -245 67 -27 5 -70 16 -95 24 -67 21 -196 35
-375 41 -88 2 -198 6 -245 7 -47 2 -175 0 -285 -4z m465 -73 c163 -5 183 -7
290 -28 30 -5 75 -14 100 -18 25 -4 59 -12 75 -18 17 -6 77 -25 135 -42 58
-17 114 -35 125 -40 11 -4 67 -22 125 -40 58 -17 119 -38 135 -45 42 -20 143
-55 189 -66 21 -5 73 -22 115 -38 42 -16 110 -38 151 -50 41 -12 102 -30 135
-41 64 -20 152 -37 234 -46 28 -2 64 -10 79 -16 34 -13 242 -18 342 -7 90 10
218 34 320 61 41 11 122 30 180 43 142 32 266 62 320 79 25 8 68 19 95 26 28
6 57 17 65 24 8 7 74 28 145 45 72 17 139 36 150 41 21 9 276 67 355 80 140
24 441 29 671 11 140 -11 326 -48 433 -87 39 -14 91 -32 115 -39 25 -6 46 -16
48 -21 2 -9 -254 -96 -342 -115 -27 -6 -59 -15 -70 -19 -11 -5 -65 -23 -120
-41 -55 -17 -118 -37 -140 -44 -41 -14 -156 -61 -232 -96 -139 -63 -143 -65
-283 -159 -198 -132 -278 -185 -321 -210 -26 -15 -58 -39 -144 -110 -41 -33
-114 -117 -162 -187 -32 -45 -90 -167 -98 -206 -4 -17 -11 -36 -15 -42 -11
-15 -22 -82 -26 -155 -2 -50 2 -72 17 -96 10 -17 19 -39 19 -47 0 -9 21 -58
48 -109 38 -75 63 -109 129 -173 118 -116 191 -178 226 -193 30 -13 85 -52
122 -85 11 -10 67 -55 125 -100 57 -45 132 -107 165 -138 33 -31 92 -79 130
-108 126 -94 182 -142 216 -187 18 -24 41 -44 51 -44 10 0 31 -13 46 -28 15
-16 63 -67 106 -113 44 -46 90 -91 102 -99 13 -9 37 -42 54 -75 17 -33 35 -62
38 -65 4 -3 25 -29 47 -57 21 -29 43 -53 47 -53 4 0 8 -6 8 -14 0 -7 10 -24
23 -37 90 -98 136 -164 190 -269 15 -30 43 -84 62 -120 18 -36 46 -94 60 -130
15 -36 31 -73 36 -82 5 -10 9 -26 9 -36 0 -10 5 -23 12 -30 7 -7 9 -12 5 -12
-3 0 5 -22 18 -49 14 -27 25 -53 25 -57 0 -5 17 -49 38 -99 44 -102 51 -127
87 -314 66 -342 88 -690 55 -896 -5 -33 -12 -78 -15 -100 -3 -22 -13 -74 -22
-115 -9 -41 -16 -79 -14 -84 1 -6 -7 -39 -18 -75 -11 -36 -34 -113 -51 -171
-37 -121 -80 -241 -92 -254 -4 -6 -8 -17 -8 -25 0 -9 -14 -34 -30 -55 -17 -22
-30 -46 -30 -54 0 -21 -64 -126 -128 -209 -31 -41 -65 -86 -74 -101 -30 -46
-43 -64 -56 -78 -7 -7 -32 -43 -57 -81 -25 -37 -49 -73 -54 -79 -5 -6 -20 -28
-34 -50 -13 -22 -49 -65 -79 -96 -30 -30 -76 -83 -103 -117 -26 -33 -55 -63
-64 -66 -22 -7 -80 -62 -115 -110 -16 -22 -48 -58 -71 -80 -168 -164 -301
-279 -440 -380 -44 -32 -129 -95 -190 -140 -108 -80 -185 -128 -275 -169 -81
-37 -215 -108 -239 -127 -13 -11 -31 -19 -40 -19 -9 0 -31 -9 -49 -20 -18 -11
-39 -20 -46 -20 -7 0 -19 -6 -25 -14 -6 -7 -29 -16 -50 -20 -21 -3 -44 -13
-51 -21 -7 -8 -21 -15 -32 -15 -11 0 -47 -11 -81 -25 -34 -13 -100 -36 -147
-51 -47 -15 -89 -30 -95 -34 -5 -5 -33 -15 -61 -23 -28 -8 -60 -20 -70 -25
-11 -6 -48 -19 -84 -30 -188 -56 -217 -65 -235 -72 -34 -13 -101 -30 -122 -30
-11 0 -42 -9 -69 -19 -44 -17 -110 -33 -474 -116 -154 -35 -264 -54 -355 -60
-42 -3 -176 -24 -184 -29 -9 -6 -97 -14 -271 -27 -215 -15 -1111 -3 -1195 16
-11 2 -85 7 -165 10 -80 4 -199 15 -265 25 -66 10 -169 26 -230 34 -183 27
-239 37 -260 46 -35 16 -174 48 -385 90 -300 60 -387 79 -467 106 -39 13 -76
24 -82 24 -16 0 -107 41 -301 135 -30 15 -113 47 -184 71 -70 25 -181 72 -245
106 -64 34 -134 71 -156 81 -22 10 -47 23 -55 28 -8 5 -42 23 -75 40 -49 25
-215 118 -285 159 -8 5 -40 23 -70 41 -30 17 -76 47 -103 65 -26 19 -50 34
-54 34 -3 0 -21 11 -39 25 -18 14 -36 25 -39 25 -4 0 -45 29 -91 65 -46 36
-88 65 -93 65 -5 0 -15 7 -22 17 -8 9 -39 34 -69 56 -56 41 -68 51 -181 160
-60 58 -93 99 -94 120 0 4 -5 11 -10 15 -6 4 -16 19 -24 35 -8 15 -18 27 -23
27 -4 0 -8 5 -8 10 0 6 -9 21 -21 33 -41 44 -229 315 -229 331 0 9 -4 16 -9
16 -5 0 -15 16 -22 35 -7 19 -16 35 -19 35 -4 0 -12 16 -20 35 -7 19 -19 36
-27 39 -7 3 -13 13 -13 22 0 18 -39 87 -52 92 -4 2 -8 10 -8 17 0 18 -78 175
-98 198 -8 9 -12 17 -8 17 3 0 -5 18 -19 40 -14 22 -25 44 -25 49 0 5 -6 14
-14 20 -8 6 -19 33 -26 59 -6 26 -20 61 -30 79 -10 17 -30 76 -45 130 -14 54
-29 107 -34 118 -11 28 -28 83 -37 125 -10 43 -9 41 -17 60 -4 8 -8 26 -9 40
-2 14 -6 30 -9 35 -6 10 -20 76 -18 85 1 3 -6 22 -15 44 -9 21 -16 49 -16 63
0 13 -4 32 -9 42 -6 9 -13 73 -17 142 -3 68 -8 127 -11 131 -2 4 -6 52 -9 107
-2 54 -7 118 -10 142 -9 81 -5 143 18 259 13 63 26 120 29 125 7 10 23 88 24
115 0 8 8 33 18 54 9 21 20 57 23 80 4 23 10 46 14 51 4 6 10 24 14 40 4 17
13 44 21 60 7 17 27 59 43 95 16 36 48 95 70 132 23 37 48 82 57 100 17 38 27
55 72 119 18 26 33 51 33 56 0 6 9 18 20 28 11 10 20 22 20 27 0 16 60 98 130
178 36 41 78 91 94 110 73 91 110 132 237 259 120 120 291 259 368 299 14 7
28 17 31 21 7 11 123 99 185 141 28 18 64 46 80 61 17 16 73 48 125 71 52 24
118 58 145 77 55 38 135 110 135 124 0 4 13 19 29 33 68 57 100 127 153 329
28 111 29 338 2 382 -8 12 -14 31 -14 41 0 36 -121 185 -274 337 -106 105
-164 155 -179 155 -5 0 -21 9 -35 21 -83 64 -188 139 -196 139 -5 0 -16 7 -25
15 -27 26 -114 85 -148 100 -18 9 -33 19 -33 23 0 5 -15 16 -32 25 -18 9 -60
33 -93 52 -82 48 -280 145 -297 145 -7 0 -31 9 -52 21 -60 32 -237 92 -368
124 -61 16 -138 46 -138 55 0 20 125 90 161 90 10 0 20 4 23 9 8 13 189 50
271 56 17 2 64 6 105 11 75 8 326 8 450 0 317 -22 462 -42 605 -83 28 -7 57
-17 65 -20 8 -3 22 -7 30 -9 8 -1 42 -11 75 -22 170 -55 315 -98 365 -107 3 0
37 -9 75 -18 39 -10 104 -27 145 -37 210 -53 312 -70 467 -76 104 -4 179 -2
218 6 33 6 96 17 140 25 44 8 109 21 145 29 36 8 97 21 135 29 39 9 93 25 119
37 27 11 104 39 170 61 67 23 157 56 201 74 168 71 412 132 595 150 106 10
201 17 294 21 54 2 101 5 103 7 2 2 13 3 26 1 12 -2 96 -5 187 -8z m-5630
-3771 c6 -4 32 -6 58 -6 86 1 296 -19 306 -29 6 -6 -3 -30 -26 -67 -19 -32
-47 -84 -63 -115 -15 -32 -28 -58 -29 -58 -1 0 -26 7 -55 16 -52 15 -318 24
-436 15 -93 -7 -210 -33 -255 -55 -25 -13 -56 -25 -70 -29 -26 -7 -173 -134
-227 -197 -29 -34 -123 -183 -123 -196 0 -3 -9 -17 -20 -31 -11 -14 -20 -33
-20 -42 0 -9 -9 -27 -19 -40 -10 -14 -17 -31 -14 -38 3 -7 0 -19 -6 -27 -12
-15 -45 -175 -37 -183 3 -3 1 -14 -5 -25 -12 -23 -23 -294 -12 -311 4 -7 9
-36 10 -66 1 -29 7 -58 12 -65 5 -6 12 -27 16 -46 8 -36 9 -38 45 -110 35 -67
105 -155 143 -179 18 -11 42 -30 53 -42 10 -12 35 -30 55 -40 21 -10 43 -24
50 -31 14 -13 148 -61 199 -72 161 -34 353 -46 435 -27 54 13 212 40 232 41 6
0 14 -15 18 -32 17 -88 48 -204 56 -214 14 -17 -14 -42 -54 -49 -156 -27 -563
-43 -658 -26 -125 23 -152 30 -319 90 -137 49 -247 128 -342 246 -26 33 -54
67 -62 75 -7 8 -24 38 -38 65 -14 28 -33 64 -42 80 -9 17 -16 37 -16 46 0 8
-4 19 -8 25 -4 5 -16 34 -26 64 -10 30 -25 69 -32 85 -36 83 -56 338 -41 521
3 29 7 56 10 61 3 4 8 26 12 48 4 22 13 49 20 60 11 18 26 76 30 117 1 9 6 25
10 35 4 10 10 26 12 37 2 10 9 33 17 50 8 17 16 38 20 46 3 8 19 38 36 65 17
28 36 61 43 74 6 13 23 38 37 55 37 46 182 186 192 186 4 0 27 12 51 27 106
67 308 168 357 178 19 4 55 13 80 21 25 8 81 19 125 23 87 10 297 7 315 -4z
m11675 -19 c124 -29 171 -43 202 -59 18 -9 37 -17 43 -17 7 0 25 -9 41 -21 16
-11 58 -36 92 -54 150 -80 180 -100 249 -168 82 -81 118 -122 135 -158 7 -13
24 -42 38 -64 14 -22 30 -51 36 -65 27 -59 39 -89 42 -106 1 -11 6 -24 10 -30
4 -7 9 -27 11 -46 3 -18 12 -53 21 -78 44 -121 56 -195 57 -335 1 -95 -10
-238 -23 -305 -9 -50 -58 -190 -80 -232 -5 -10 -9 -23 -9 -30 0 -15 -79 -170
-94 -183 -6 -5 -22 -26 -36 -46 -33 -49 -108 -128 -156 -166 -46 -36 -166
-102 -209 -113 -16 -5 -63 -20 -102 -34 -149 -54 -246 -67 -452 -63 -165 3
-400 22 -410 33 -3 2 2 28 11 57 27 86 48 175 48 202 0 32 19 31 178 -6 58
-14 185 -13 272 1 36 6 92 15 125 21 73 12 215 59 234 77 7 7 29 21 50 31 20
11 47 31 60 45 14 14 28 26 33 26 14 0 60 44 97 95 75 100 130 232 135 323 2
26 6 55 10 64 11 26 0 296 -13 312 -6 7 -8 15 -5 18 8 9 -17 139 -33 176 -9
18 -13 35 -10 39 4 3 -2 18 -12 32 -10 14 -21 39 -25 56 -4 16 -11 32 -15 35
-4 3 -31 46 -61 95 -29 50 -67 106 -83 125 -58 67 -192 183 -227 197 -19 8
-53 22 -75 33 -42 19 -166 44 -250 51 -112 9 -383 0 -436 -14 -113 -31 -115
-31 -137 16 -43 91 -72 158 -77 180 -6 22 -2 24 67 35 40 7 129 14 198 18 69
3 141 9 160 13 52 12 306 3 375 -13z m-11512 -302 c26 -4 50 -11 53 -16 5 -8
-7 -58 -26 -103 -4 -11 -13 -38 -18 -60 -6 -22 -20 -71 -32 -109 -11 -38 -20
-80 -20 -93 0 -13 -4 -23 -9 -23 -4 0 -11 -26 -15 -57 -8 -77 -10 -85 -21
-103 -10 -16 -14 -89 -15 -250 -1 -202 27 -438 70 -585 11 -38 23 -86 26 -105
3 -19 7 -44 9 -55 2 -11 7 -38 11 -61 l6 -40 -158 -11 c-207 -15 -200 -15
-269 -3 -33 5 -107 17 -165 26 -74 12 -125 27 -174 50 -39 19 -73 38 -76 42
-3 5 -25 22 -50 39 -25 17 -62 48 -83 69 -37 38 -117 186 -117 218 0 10 -5 27
-11 39 -37 68 -43 451 -8 473 6 3 5 11 -2 20 -8 9 -8 18 -2 27 6 6 16 35 22
62 13 53 94 230 110 240 6 3 23 29 40 58 33 57 143 173 215 225 71 53 138 74
276 88 120 12 334 11 433 -2z m11332 -5 c173 -12 249 -32 326 -87 74 -54 186
-169 220 -229 16 -28 33 -53 38 -55 13 -5 97 -187 117 -253 9 -33 18 -73 20
-90 1 -16 6 -57 11 -90 16 -108 3 -320 -23 -384 -8 -18 -14 -40 -14 -49 0 -13
-17 -53 -58 -139 -34 -69 -168 -181 -277 -232 -128 -59 -413 -90 -628 -67
l-78 8 7 36 c4 21 10 44 15 53 4 8 17 72 28 140 16 93 19 149 15 224 -3 55 -7
152 -9 215 -4 115 -12 202 -21 230 -9 24 -41 208 -54 300 -6 47 -20 105 -31
130 -11 25 -29 72 -40 105 -11 33 -29 88 -41 123 -11 35 -19 64 -17 65 74 49
234 64 494 46z"/>
</g>
</svg>
