<?xml version="1.0" encoding="UTF-8"?>
<!DOCTYPE svg PUBLIC "-//W3C//DTD SVG 1.1//EN" "http://www.w3.org/Graphics/SVG/1.1/DTD/svg11.dtd">
<svg xmlns="http://www.w3.org/2000/svg" version="1.1" width="611px" height="611px" style="shape-rendering:geometricPrecision; text-rendering:geometricPrecision; image-rendering:optimizeQuality; fill-rule:evenodd; clip-rule:evenodd" xmlns:xlink="http://www.w3.org/1999/xlink">
<g><path style="opacity:0.687" fill="#000000" d="M 336.5,222.5 C 337.049,224.687 338.215,225.354 340,224.5C 340.75,225.126 341.584,225.626 342.5,226C 341.742,227.364 342.242,228.531 344,229.5C 344.333,229.167 344.667,228.833 345,228.5C 346.648,231.843 349.148,234.176 352.5,235.5C 353.581,237.134 354.915,238.467 356.5,239.5C 357.5,240.167 358.5,240.833 359.5,241.5C 358.167,241.833 358.167,242.167 359.5,242.5C 360.189,243.774 361.023,243.774 362,242.5C 362.206,244.936 363.373,246.602 365.5,247.5C 365.81,249.144 366.81,250.144 368.5,250.5C 368.5,251.167 368.833,251.5 369.5,251.5C 370.467,254.155 372.133,254.822 374.5,253.5C 374.833,254.833 375.167,256.167 375.5,257.5C 376.451,256.674 377.451,256.508 378.5,257C 378.835,258.164 378.835,259.497 378.5,261C 381.686,263.188 384.186,266.022 386,269.5C 387.666,268.66 387.833,269.16 386.5,271C 388.286,272.196 389.619,273.696 390.5,275.5C 390.577,276.75 391.244,277.583 392.5,278C 391.288,279.107 391.621,279.607 393.5,279.5C 393.369,280.239 393.536,280.906 394,281.5C 395.302,282.085 396.469,282.751 397.5,283.5C 396.761,283.369 396.094,283.536 395.5,284C 396.551,285.385 397.884,286.385 399.5,287C 399.165,288.503 399.165,289.836 399.5,291C 401.848,294.359 404.015,297.859 406,301.5C 406.333,300.833 406.667,300.167 407,299.5C 407.696,302.936 409.529,305.603 412.5,307.5C 413.086,307.291 413.586,306.957 414,306.5C 414.899,308.516 416.233,310.183 418,311.5C 419.84,310.167 420.34,310.334 419.5,312C 421.973,314.489 424.807,315.323 428,314.5C 428.605,316.481 429.605,316.815 431,315.5C 433.822,319.431 437.489,320.431 442,318.5C 443.353,319.704 445.019,320.371 447,320.5C 450.886,320.069 454.72,319.403 458.5,318.5C 458.351,317.448 458.517,316.448 459,315.5C 460.016,316.634 460.683,316.301 461,314.5C 464.316,315.334 466.65,314.001 468,310.5C 470.108,311.612 471.608,310.946 472.5,308.5C 475.705,307.414 476.038,305.914 473.5,304C 475.23,302.148 476.396,302.314 477,304.5C 477.785,302.751 478.618,301.084 479.5,299.5C 480.913,296.781 481.58,293.781 481.5,290.5C 482.947,289.378 483.947,287.878 484.5,286C 483.956,285.283 483.289,284.783 482.5,284.5C 482.5,283.833 482.167,283.5 481.5,283.5C 481.5,282.833 481.167,282.5 480.5,282.5C 479.049,280.985 477.382,280.152 475.5,280C 476.167,279.667 476.833,279.333 477.5,279C 475.754,277.153 474.088,275.319 472.5,273.5C 472.167,272.167 471.833,272.167 471.5,273.5C 470.226,272.811 470.226,271.977 471.5,271C 470.956,270.283 470.289,269.783 469.5,269.5C 469.419,266.487 468.086,264.487 465.5,263.5C 463.605,258.781 461.939,253.281 460.5,247C 461.971,240.573 463.305,234.073 464.5,227.5C 465.774,226.811 465.774,225.977 464.5,225C 466.119,224.764 467.119,223.931 467.5,222.5C 468.404,221.791 468.737,220.791 468.5,219.5C 470.842,219.225 470.842,218.392 468.5,217C 469.872,216.598 471.205,216.098 472.5,215.5C 473.773,214.743 473.773,214.077 472.5,213.5C 472.389,211.352 473.056,211.019 474.5,212.5C 475.192,211.975 475.692,211.308 476,210.5C 480.448,211.371 484.948,212.204 489.5,213C 490.691,213.698 491.691,214.531 492.5,215.5C 494.292,216.309 496.292,216.809 498.5,217C 498.043,217.414 497.709,217.914 497.5,218.5C 499.265,220.053 501.098,220.386 503,219.5C 503.416,221.55 504.583,222.884 506.5,223.5C 507.326,225.264 508.659,226.598 510.5,227.5C 510.263,228.791 510.596,229.791 511.5,230.5C 512.468,233.1 513.801,235.434 515.5,237.5C 515.008,241.457 515.675,245.123 517.5,248.5C 516.975,249.192 516.308,249.692 515.5,250C 516.973,250.71 517.64,251.876 517.5,253.5C 521.976,252.357 526.476,251.357 531,250.5C 531.249,251.624 531.749,252.624 532.5,253.5C 534.845,250.188 536.178,250.188 536.5,253.5C 538.527,253.338 540.527,253.505 542.5,254C 548.175,256.246 553.508,259.079 558.5,262.5C 559.167,262.167 559.833,261.833 560.5,261.5C 560.94,262.698 561.273,263.865 561.5,265C 562.784,265.684 563.951,265.517 565,264.5C 565.576,267.124 566.91,267.791 569,266.5C 569.617,267.449 569.451,268.282 568.5,269C 569.993,270.368 571.493,270.535 573,269.5C 573.464,270.094 573.631,270.761 573.5,271.5C 572.167,271.833 572.167,272.167 573.5,272.5C 574.462,274.986 575.295,274.986 576,272.5C 576.949,274.093 578.115,275.426 579.5,276.5C 579.343,277.873 579.51,279.207 580,280.5C 586.115,287.93 588.449,296.93 587,307.5C 584.916,309.647 582.583,310.314 580,309.5C 578.237,309.975 576.57,310.642 575,311.5C 571.42,310.087 567.92,308.421 564.5,306.5C 557.491,304.35 550.157,302.683 542.5,301.5C 540.955,301.511 539.622,301.844 538.5,302.5C 536.965,301.646 535.632,301.646 534.5,302.5C 531.991,303.113 529.491,303.78 527,304.5C 525.002,303.729 523.335,304.395 522,306.5C 521.667,305.833 521.333,305.167 521,304.5C 518.791,304.989 516.958,305.989 515.5,307.5C 514.761,307.369 514.094,307.536 513.5,308C 514.451,308.718 514.617,309.551 514,310.5C 512.951,309.483 511.784,309.316 510.5,310C 511.451,310.718 511.617,311.551 511,312.5C 509.173,314.154 507.34,314.988 505.5,315C 505.957,315.414 506.291,315.914 506.5,316.5C 505.167,317.167 503.833,317.833 502.5,318.5C 503.893,321.602 503.06,322.602 500,321.5C 498.706,322.854 498.54,324.188 499.5,325.5C 497.615,326.197 497.282,327.197 498.5,328.5C 497.726,329.711 496.893,329.711 496,328.5C 495.293,330.081 494.46,331.581 493.5,333C 495.901,333.805 495.734,334.638 493,335.5C 492.667,335.167 492.333,334.833 492,334.5C 490.632,335.993 490.465,337.493 491.5,339C 489.519,339.605 489.185,340.605 490.5,342C 489.551,342.617 488.718,342.451 488,341.5C 487.338,342.984 486.504,344.317 485.5,345.5C 484.833,345.5 484.5,345.833 484.5,346.5C 482.933,347.681 482.099,349.347 482,351.5C 480.841,350.434 480.008,350.767 479.5,352.5C 478.659,353.926 477.659,355.26 476.5,356.5C 475.374,358.536 473.707,359.87 471.5,360.5C 469.581,361.225 467.581,362.559 465.5,364.5C 464.833,364.5 464.5,364.833 464.5,365.5C 463.833,365.5 463.5,365.833 463.5,366.5C 462.005,366.989 460.671,367.655 459.5,368.5C 458.732,369.263 458.232,370.263 458,371.5C 456.273,370.626 454.44,370.793 452.5,372C 453.451,372.718 453.617,373.551 453,374.5C 451.644,373.62 450.144,373.286 448.5,373.5C 448.587,376.598 448.087,376.932 447,374.5C 446.005,375.066 445.172,375.733 444.5,376.5C 443.833,376.5 443.5,376.833 443.5,377.5C 441.903,378.09 440.569,379.09 439.5,380.5C 438.833,380.167 438.167,379.833 437.5,379.5C 437.002,380.603 436.669,381.603 436.5,382.5C 434.298,381.566 432.298,381.9 430.5,383.5C 427.338,385.438 423.838,386.772 420,387.5C 418.97,387.836 418.47,388.503 418.5,389.5C 417.833,389.5 417.5,389.833 417.5,390.5C 413.779,390.369 410.446,391.369 407.5,393.5C 407.167,392.167 406.833,392.167 406.5,393.5C 405.21,394.058 404.377,395.058 404,396.5C 401.776,395.359 400.276,396.026 399.5,398.5C 395.525,398.486 392.192,399.819 389.5,402.5C 388.448,402.351 387.448,402.517 386.5,403C 387.696,403.654 387.696,404.154 386.5,404.5C 383.499,403.17 381.166,403.836 379.5,406.5C 377.193,406.986 375.027,406.986 373,406.5C 371.69,407.897 370.19,408.897 368.5,409.5C 360.68,411.691 352.68,413.191 344.5,414C 344.833,414.333 345.167,414.667 345.5,415C 343.567,415.251 341.734,415.751 340,416.5C 339.667,416.167 339.333,415.833 339,415.5C 336.371,415.928 334.038,416.928 332,418.5C 331.667,417.833 331.333,417.167 331,416.5C 328.931,417.264 326.764,417.764 324.5,418C 324.833,418.333 325.167,418.667 325.5,419C 310.704,420.721 296.537,422.888 283,425.5C 249.737,424.767 216.571,424.767 183.5,425.5C 183.649,426.552 183.483,427.552 183,428.5C 181.329,426.724 179.496,426.39 177.5,427.5C 176.833,426.833 176.167,426.167 175.5,425.5C 175.089,426.262 174.923,427.262 175,428.5C 173.887,427.695 172.721,427.028 171.5,426.5C 170.399,425.402 169.066,425.235 167.5,426C 168.451,426.718 168.617,427.551 168,428.5C 166.266,427.751 164.433,427.251 162.5,427C 162.833,426.667 163.167,426.333 163.5,426C 156.326,425.604 149.159,425.104 142,424.5C 139.906,424.536 137.906,424.869 136,425.5C 135.581,424.328 134.915,423.328 134,422.5C 132.274,423.576 130.441,423.743 128.5,423C 128.833,422.667 129.167,422.333 129.5,422C 125.287,419.547 121.12,419.047 117,420.5C 116.383,419.551 116.549,418.718 117.5,418C 113.734,417.079 110.234,415.579 107,413.5C 106.228,413.645 105.561,413.978 105,414.5C 101.916,412.686 99.4164,411.02 97.5,409.5C 95.7758,408.231 94.1091,406.898 92.5,405.5C 92.0269,404.094 91.0269,403.427 89.5,403.5C 89.5,402.833 89.1667,402.5 88.5,402.5C 88.5,401.833 88.1667,401.5 87.5,401.5C 87.1667,400.5 86.5,399.833 85.5,399.5C 83.8577,398.197 82.1911,396.864 80.5,395.5C 80.5,394.833 80.1667,394.5 79.5,394.5C 78.8783,393.373 78.045,392.373 77,391.5C 73.8009,392.38 70.8009,393.713 68,395.5C 67.5,395.167 67,394.833 66.5,394.5C 68.3907,391.869 70.3907,389.369 72.5,387C 71.6719,385.008 70.3386,383.508 68.5,382.5C 68.5,381.833 68.1667,381.5 67.5,381.5C 66.9744,379.77 65.9744,378.436 64.5,377.5C 64.1414,375.515 63.308,374.849 62,375.5C 62.3112,374.065 62.1445,372.732 61.5,371.5C 60.7261,370.289 59.8928,370.289 59,371.5C 59.2705,368.307 58.2705,365.307 56,362.5C 55.6667,362.833 55.3333,363.167 55,363.5C 53.6912,359.746 52.5246,356.079 51.5,352.5C 47.7895,335.33 47.7895,317.997 51.5,300.5C 52.3518,296.112 53.6852,291.779 55.5,287.5C 57.3803,285.245 58.3803,282.578 58.5,279.5C 59.404,278.791 59.7373,277.791 59.5,276.5C 61.9754,275.313 62.9754,273.313 62.5,270.5C 63.404,269.791 63.7373,268.791 63.5,267.5C 64.4793,266.235 65.4793,264.901 66.5,263.5C 65.6744,262.549 65.5078,261.549 66,260.5C 66.3333,260.833 66.6667,261.167 67,261.5C 67.4232,258.867 68.5899,256.701 70.5,255C 70.3602,253.403 70.3602,251.903 70.5,250.5C 71.698,250.06 72.8647,249.727 74,249.5C 74.5946,248.101 74.4279,246.768 73.5,245.5C 74.6016,244.824 75.6016,244.158 76.5,243.5C 79.2675,242.362 79.9341,240.528 78.5,238C 79.5358,236.383 80.7025,236.216 82,237.5C 82.7172,236.956 83.2172,236.289 83.5,235.5C 84.1667,235.5 84.5,235.167 84.5,234.5C 85.9335,233.167 87.2668,231.667 88.5,230C 88.1667,229.667 87.8333,229.333 87.5,229C 88.448,228.517 89.448,228.351 90.5,228.5C 90.5482,225.365 92.2148,223.698 95.5,223.5C 94.5653,220.94 95.3987,220.274 98,221.5C 100.192,218.033 103.025,216.033 106.5,215.5C 108.629,213.234 110.796,210.901 113,208.5C 114.395,209.815 115.395,209.481 116,207.5C 117.749,208.553 119.249,208.22 120.5,206.5C 121.167,206.5 121.5,206.167 121.5,205.5C 126.123,202.595 131.123,200.429 136.5,199C 135.549,198.282 135.383,197.449 136,196.5C 138.098,196.815 140.098,196.815 142,196.5C 143.205,195.929 144.372,195.262 145.5,194.5C 144.494,193.604 144.494,192.938 145.5,192.5C 146.293,192.931 147.127,193.265 148,193.5C 149.011,193.108 149.511,192.441 149.5,191.5C 150.293,191.931 151.127,192.265 152,192.5C 153.011,192.108 153.511,191.441 153.5,190.5C 155.62,192.009 157.287,191.676 158.5,189.5C 159.75,189.423 160.583,188.756 161,187.5C 163.274,188.811 165.44,188.811 167.5,187.5C 171.979,187.816 175.813,186.482 179,183.5C 179.333,184.167 179.667,184.833 180,185.5C 205.189,181.695 230.689,181.529 256.5,185C 258.715,185.69 260.882,186.524 263,187.5C 264.226,187.355 265.393,187.022 266.5,186.5C 270.485,189.525 275.485,191.859 281.5,193.5C 284.191,191.748 284.858,192.248 283.5,195C 284.854,196.294 286.188,196.46 287.5,195.5C 288.478,195.977 289.311,196.643 290,197.5C 290.333,196.833 290.667,196.167 291,195.5C 292.774,197.94 295.108,199.606 298,200.5C 299.425,201.079 301.092,201.079 303,200.5C 303.249,201.624 303.749,202.624 304.5,203.5C 305.833,203.833 307.167,204.167 308.5,204.5C 307.391,205.965 307.891,206.965 310,207.5C 310.414,207.043 310.914,206.709 311.5,206.5C 311.833,207.167 312.167,207.833 312.5,208.5C 313.842,207.098 314.676,207.431 315,209.5C 315.414,209.043 315.914,208.709 316.5,208.5C 317.711,209.274 317.711,210.107 316.5,211C 317.025,211.692 317.692,212.192 318.5,212.5C 320.403,212.306 322.237,212.306 324,212.5C 324.617,213.449 324.451,214.282 323.5,215C 325.392,215.973 327.392,216.64 329.5,217C 330.833,217.667 330.833,218.333 329.5,219C 330.784,219.684 331.951,219.517 333,218.5C 333.66,220.324 334.827,221.657 336.5,222.5 Z M 289.5,212.5 C 289.833,212.5 290.167,212.5 290.5,212.5C 290.833,215.167 291.167,215.167 291.5,212.5C 292.79,213.058 293.623,214.058 294,215.5C 294.333,214.833 294.667,214.167 295,213.5C 296.011,214.337 297.178,214.67 298.5,214.5C 298.5,215.5 298.5,216.5 298.5,217.5C 299.791,217.263 300.791,217.596 301.5,218.5C 303.784,219.029 305.784,220.029 307.5,221.5C 310.62,222.803 312.62,224.636 313.5,227C 316.369,226.092 318.702,226.925 320.5,229.5C 318.169,229.859 318.335,230.526 321,231.5C 321.399,231.272 321.565,230.938 321.5,230.5C 324.642,230.799 326.809,232.466 328,235.5C 328.333,235.167 328.667,234.833 329,234.5C 329.5,235.667 330.333,236.5 331.5,237C 330.167,237.667 330.167,238.333 331.5,239C 332.448,239.483 333.448,239.649 334.5,239.5C 334.513,242.361 335.679,243.361 338,242.5C 338.852,243.571 339.685,244.571 340.5,245.5C 340.833,246.833 341.167,246.833 341.5,245.5C 342.143,247.076 343.143,248.41 344.5,249.5C 344.833,252.167 345.167,252.167 345.5,249.5C 346.167,250.167 346.833,250.833 347.5,251.5C 347.833,252.833 348.167,252.833 348.5,251.5C 349.164,252.648 349.331,253.981 349,255.5C 350.395,254.185 351.395,254.519 352,256.5C 353.087,254.068 353.587,254.402 353.5,257.5C 354.167,257.833 354.833,258.167 355.5,258.5C 355.706,260.549 356.539,260.883 358,259.5C 358.833,260.333 359.667,261.167 360.5,262C 359.289,262.893 359.289,263.726 360.5,264.5C 362.345,263.605 363.678,264.272 364.5,266.5C 363.957,266.56 363.624,266.893 363.5,267.5C 364.257,268.773 364.923,268.773 365.5,267.5C 366.721,268.028 367.887,268.695 369,269.5C 369.692,270.437 369.525,271.103 368.5,271.5C 368.369,272.376 368.702,273.043 369.5,273.5C 370.609,272.41 371.609,272.41 372.5,273.5C 371.109,275.936 371.609,276.602 374,275.5C 375.406,277.744 377.239,279.41 379.5,280.5C 381.986,281.462 381.986,282.295 379.5,283C 380.737,283.232 381.737,283.732 382.5,284.5C 384.582,285.585 384.916,287.085 383.5,289C 384.449,289.617 385.282,289.451 386,288.5C 386.617,289.449 386.451,290.282 385.5,291C 386.416,291.278 387.082,291.778 387.5,292.5C 389.088,293.635 389.421,294.969 388.5,296.5C 389.77,297.288 390.77,298.288 391.5,299.5C 390.167,299.833 390.167,300.167 391.5,300.5C 392.747,303.87 394.747,307.203 397.5,310.5C 398.167,311.167 398.833,311.833 399.5,312.5C 400.931,313.903 402.098,315.569 403,317.5C 403.333,317.167 403.667,316.833 404,316.5C 405.145,317.636 406.312,318.636 407.5,319.5C 406.167,320.167 406.167,320.833 407.5,321.5C 408.313,322.653 409.313,322.653 410.5,321.5C 412.213,321.879 413.213,322.879 413.5,324.5C 414.222,324.918 414.722,325.584 415,326.5C 415.853,324.397 417.02,324.397 418.5,326.5C 421.207,327.835 423.874,329.169 426.5,330.5C 427.978,330.238 429.311,330.571 430.5,331.5C 429.494,332.396 429.494,333.062 430.5,333.5C 431.768,332.572 433.101,332.405 434.5,333C 433.304,333.654 433.304,334.154 434.5,334.5C 442.088,334.441 449.755,334.108 457.5,333.5C 458.542,332.209 459.708,332.209 461,333.5C 461.617,332.551 461.451,331.718 460.5,331C 463.366,329.724 466.2,329.557 469,330.5C 469.49,329.207 469.657,327.873 469.5,326.5C 471.124,326.36 472.29,327.027 473,328.5C 473.346,326.152 474.513,324.319 476.5,323C 478.664,322.63 480.664,321.796 482.5,320.5C 481.359,319.575 481.359,318.741 482.5,318C 483.951,318.263 485.284,318.096 486.5,317.5C 485.712,315.671 486.212,314.004 488,312.5C 488.914,313.654 489.747,313.487 490.5,312C 490.167,311.667 489.833,311.333 489.5,311C 490.751,307.156 492.751,303.823 495.5,301C 495.167,300.667 494.833,300.333 494.5,300C 495.059,297.059 495.893,294.225 497,291.5C 497.364,287.133 497.53,282.966 497.5,279C 494.638,278.73 491.972,277.896 489.5,276.5C 489.709,275.914 490.043,275.414 490.5,275C 489.448,273.881 488.281,273.381 487,273.5C 486.383,272.551 486.549,271.718 487.5,271C 485.951,269.786 484.785,268.286 484,266.5C 483.667,266.833 483.333,267.167 483,267.5C 481.686,261.893 479.52,256.726 476.5,252C 476.657,246.06 476.657,240.394 476.5,235C 477.641,233.383 478.474,231.55 479,229.5C 479.718,230.451 480.551,230.617 481.5,230C 480.748,229.329 480.414,228.496 480.5,227.5C 481.239,227.631 481.906,227.464 482.5,227C 481.549,226.282 481.383,225.449 482,224.5C 484.058,225.109 484.891,226.109 484.5,227.5C 485.451,226.674 486.451,226.508 487.5,227C 489.483,228.889 491.816,230.222 494.5,231C 496.132,233.355 497.799,235.522 499.5,237.5C 501.087,241.314 502.754,245.148 504.5,249C 502,249.833 501.833,251 504,252.5C 504.781,257.554 504.614,262.554 503.5,267.5C 504.727,268.59 505.56,269.924 506,271.5C 507.395,270.185 508.395,270.519 509,272.5C 511.041,271.577 513.208,271.244 515.5,271.5C 515.599,268.361 516.932,266.027 519.5,264.5C 525.723,263.164 532.056,263.331 538.5,265C 537.134,267.438 537.634,267.938 540,266.5C 541.653,266.82 542.653,267.82 543,269.5C 543.333,268.833 543.667,268.167 544,267.5C 545.067,268.191 546.234,268.691 547.5,269C 546.398,271.391 547.064,271.891 549.5,270.5C 550.711,271.274 550.711,272.107 549.5,273C 550.549,273.492 551.549,273.326 552.5,272.5C 553.472,274.636 555.139,275.803 557.5,276C 559.891,277.309 559.891,278.309 557.5,279C 558.244,280.039 559.244,280.539 560.5,280.5C 560.833,281.833 561.167,281.833 561.5,280.5C 564.636,281.093 565.802,282.76 565,285.5C 565.893,284.289 566.726,284.289 567.5,285.5C 566.109,287.936 566.609,288.602 569,287.5C 571.015,290.592 571.848,293.925 571.5,297.5C 566.27,296.457 561.27,294.79 556.5,292.5C 555.914,292.709 555.414,293.043 555,293.5C 550.732,292.86 546.565,292.193 542.5,291.5C 541.5,291.5 540.5,291.5 539.5,291.5C 535.635,292.224 531.635,292.891 527.5,293.5C 526.817,293.137 526.15,292.804 525.5,292.5C 524.082,294.308 522.082,294.975 519.5,294.5C 518.432,295.434 517.099,295.768 515.5,295.5C 514.811,296.774 513.977,296.774 513,295.5C 512.517,296.448 512.351,297.448 512.5,298.5C 510.248,299.333 508.081,299.333 506,298.5C 506.175,301.818 504.675,303.818 501.5,304.5C 500.4,307.016 498.733,308.016 496.5,307.5C 497.421,309.031 497.088,310.365 495.5,311.5C 494.811,310.226 493.977,310.226 493,311.5C 493.308,315.517 491.474,318.517 487.5,320.5C 488.833,321.833 488.833,323.167 487.5,324.5C 486.167,325.5 484.833,326.5 483.5,327.5C 484.471,328.962 484.138,330.295 482.5,331.5C 479.739,330.65 479.072,331.65 480.5,334.5C 478.668,335.057 477.335,336.057 476.5,337.5C 475.167,337.833 475.167,338.167 476.5,338.5C 475.5,339.5 474.5,340.5 473.5,341.5C 472.63,343.274 471.297,344.607 469.5,345.5C 470.239,345.369 470.906,345.536 471.5,346C 470.142,346.934 468.808,347.768 467.5,348.5C 464.833,348.833 464.833,349.167 467.5,349.5C 466.791,350.404 465.791,350.737 464.5,350.5C 465.679,352.507 465.179,352.84 463,351.5C 462.722,352.416 462.222,353.082 461.5,353.5C 461.158,354.338 460.492,354.672 459.5,354.5C 459.027,355.906 458.027,356.573 456.5,356.5C 455.486,357.674 454.153,358.34 452.5,358.5C 452.179,360.048 451.179,360.715 449.5,360.5C 449.167,359.167 448.833,359.167 448.5,360.5C 447.188,360.824 446.355,361.491 446,362.5C 445.127,362.265 444.293,361.931 443.5,361.5C 443.331,362.397 442.998,363.397 442.5,364.5C 441.167,365.833 439.833,365.833 438.5,364.5C 437.304,364.846 437.304,365.346 438.5,366C 421.913,374.458 404.913,382.125 387.5,389C 382.115,389.214 376.781,389.714 371.5,390.5C 339.968,390.801 308.134,390.801 276,390.5C 261.41,392.527 246.744,393.861 232,394.5C 222.102,394.554 212.102,394.554 202,394.5C 200.715,394.95 199.548,395.617 198.5,396.5C 197.692,396.192 197.025,395.692 196.5,395C 169.928,394.829 143.428,394.329 117,393.5C 116.667,393.833 116.333,394.167 116,394.5C 111.557,393.745 107.057,393.078 102.5,392.5C 100.392,392.742 98.2254,393.076 96,393.5C 93.8155,393.302 92.3155,392.302 91.5,390.5C 89.9731,390.573 88.9731,389.906 88.5,388.5C 89.8333,388.167 89.8333,387.833 88.5,387.5C 87.3915,386.71 86.0581,386.21 84.5,386C 83.8333,384 82.5,382.667 80.5,382C 84.5273,377.31 89.194,373.31 94.5,370C 115.655,357.922 135.989,344.589 155.5,330C 158.667,327.876 162,327.376 165.5,328.5C 166.429,329.689 166.762,331.022 166.5,332.5C 169.994,331.22 173.327,329.553 176.5,327.5C 177.246,326.264 177.579,324.93 177.5,323.5C 172.125,323.828 166.792,323.495 161.5,322.5C 162.767,320.629 162.767,318.796 161.5,317C 157.778,316.762 154.111,316.262 150.5,315.5C 127.427,315.473 104.594,315.473 82,315.5C 75.1906,314.76 68.3573,314.26 61.5,314C 60.9415,313.275 60.6082,312.442 60.5,311.5C 60.9908,308.326 61.6575,305.326 62.5,302.5C 63.154,298.467 64.4873,294.467 66.5,290.5C 66.7989,287.987 68.1322,285.82 70.5,284C 69.4829,282.951 69.3162,281.784 70,280.5C 70.3333,280.833 70.6667,281.167 71,281.5C 71.1992,279.598 72.0325,278.098 73.5,277C 72.3281,275.132 72.4947,273.298 74,271.5C 76.1293,272.863 76.6293,272.529 75.5,270.5C 76.1805,268.111 77.0138,265.778 78,263.5C 78.8928,264.711 79.7261,264.711 80.5,263.5C 79.0977,262.158 79.4311,261.324 81.5,261C 80.3281,259.132 80.4947,257.298 82,255.5C 84.3909,256.602 84.8909,255.936 83.5,253.5C 85.0154,251.832 86.6821,250.499 88.5,249.5C 88.9066,248.238 89.24,246.905 89.5,245.5C 92.1506,243.35 94.6506,241.017 97,238.5C 98.313,239.287 99.4797,238.954 100.5,237.5C 102.608,231.744 106.941,227.744 113.5,225.5C 114.035,223.554 115.368,222.554 117.5,222.5C 117.842,221.662 118.508,221.328 119.5,221.5C 120.035,219.554 121.368,218.554 123.5,218.5C 125.383,219.042 127.049,218.375 128.5,216.5C 130.492,214.52 133.659,212.52 138,210.5C 144.298,207.686 150.798,205.52 157.5,204C 157.167,203.667 156.833,203.333 156.5,203C 161.292,201.079 166.125,200.579 171,201.5C 171.617,200.551 171.451,199.718 170.5,199C 172.441,198.257 174.274,198.424 176,199.5C 177.353,198.296 179.019,197.629 181,197.5C 196.071,194.963 211.238,194.13 226.5,195C 228.324,197.081 229.991,196.915 231.5,194.5C 231.911,195.262 232.077,196.262 232,197.5C 233.333,196.833 234.667,196.167 236,195.5C 242.971,196.966 249.804,198.132 256.5,199C 255.549,199.718 255.383,200.551 256,201.5C 259.481,199.996 262.481,200.663 265,203.5C 268.491,202.028 271.157,203.028 273,206.5C 276.941,205.325 279.941,206.658 282,210.5C 283.395,209.185 284.395,209.519 285,211.5C 286.915,210.084 288.415,210.418 289.5,212.5 Z M 63.5,318.5 C 70.1143,319.331 76.781,320.164 83.5,321C 79.3333,326.167 75.1667,331.333 71,336.5C 67.3336,331.838 64.1669,326.838 61.5,321.5C 62.1925,320.482 62.8592,319.482 63.5,318.5 Z M 92.5,321.5 C 99.9887,320.344 107.655,320.178 115.5,321C 110.714,324.118 106.214,327.618 102,331.5C 99.3318,327.666 96.1652,324.333 92.5,321.5 Z M 125.5,322.5 C 134.705,321.172 144.038,321.338 153.5,323C 144.069,324.556 134.735,324.389 125.5,322.5 Z M 112.5,341.5 C 112.265,342.097 111.765,342.43 111,342.5C 108.046,340.592 104.88,339.758 101.5,340C 98.8624,342.778 96.8624,345.944 95.5,349.5C 92.5061,351.247 89.3394,352.58 86,353.5C 83.0179,351.685 80.5179,349.351 78.5,346.5C 76.3684,344.883 74.0351,344.383 71.5,345C 69.8976,349.038 67.8976,352.871 65.5,356.5C 64.9984,357.521 64.3317,357.688 63.5,357C 63.8333,356.667 64.1667,356.333 64.5,356C 63.5842,355.722 62.9175,355.222 62.5,354.5C 61.6618,354.158 61.3284,353.492 61.5,352.5C 60.776,350.782 60.1094,348.948 59.5,347C 59.8333,346.667 60.1667,346.333 60.5,346C 59.8065,341.532 59.1398,337.032 58.5,332.5C 59,331.5 59.5,330.5 60,329.5C 62.541,334.876 66.041,339.543 70.5,343.5C 77.3402,338.493 83.1736,332.493 88,325.5C 92.1733,329.341 96.0066,333.507 99.5,338C 102.14,338.839 104.473,338.339 106.5,336.5C 108.721,339.634 111.387,340.134 114.5,338C 112.545,337.047 110.878,335.713 109.5,334C 112.888,330.557 116.722,327.723 121,325.5C 122.141,327.609 123.641,329.442 125.5,331C 123.769,335.652 120.602,338.819 116,340.5C 115.586,340.043 115.086,339.709 114.5,339.5C 113.818,340.243 113.151,340.909 112.5,341.5 Z M 129.5,327.5 C 129.735,326.903 130.235,326.57 131,326.5C 132.811,327.078 134.645,327.578 136.5,328C 135.892,328.87 135.059,329.37 134,329.5C 132.594,328.586 131.094,327.92 129.5,327.5 Z M 127.5,341.5 C 127.615,337.915 128.948,337.082 131.5,339C 130.307,340.095 128.973,340.928 127.5,341.5 Z M 108.5,348.5 C 109.973,349.072 111.307,349.905 112.5,351C 108.114,353.861 103.78,356.027 99.5,357.5C 100.911,352.755 103.911,349.755 108.5,348.5 Z M 73.5,352.5 C 75.8863,353.373 77.8863,354.873 79.5,357C 76.4093,358.628 73.2426,360.128 70,361.5C 70.8125,358.466 71.9791,355.466 73.5,352.5 Z M 92.5,354.5 C 93.404,355.209 93.7373,356.209 93.5,357.5C 89.9952,357.306 89.6618,356.306 92.5,354.5 Z M 74.5,372.5 C 74.1667,371.167 73.8333,371.167 73.5,372.5C 72.2247,370.742 71.2247,369.075 70.5,367.5C 76.3689,359.418 83.3689,358.084 91.5,363.5C 86.5309,366.967 81.6976,370.633 77,374.5C 76.5831,373.244 75.7498,372.577 74.5,372.5 Z M 283.5,403.5 C 280.101,404.82 276.601,404.82 273,403.5C 269.58,405.123 265.913,406.123 262,406.5C 261.086,405.346 260.253,405.513 259.5,407C 246.376,407.239 233.543,407.739 221,408.5C 219.215,407.76 217.382,407.093 215.5,406.5C 214.304,406.846 214.304,407.346 215.5,408C 197.26,408.174 179.093,408.674 161,409.5C 158.043,407.923 155.376,408.256 153,410.5C 152.047,408.408 150.714,408.075 149,409.5C 145.589,408.707 142.089,408.207 138.5,408C 139.696,407.346 139.696,406.846 138.5,406.5C 135.897,407.562 133.23,407.728 130.5,407C 131.34,405.334 130.84,405.167 129,406.5C 125.667,405.833 122.333,405.167 119,404.5C 116.215,405.907 113.715,405.574 111.5,403.5C 109.488,402.772 107.488,401.938 105.5,401C 104.304,400.346 104.304,399.846 105.5,399.5C 113.977,399.467 122.477,400.133 131,401.5C 135.218,401.47 139.385,401.136 143.5,400.5C 144.711,401.274 144.711,402.107 143.5,403C 144.819,403.195 146.153,403.028 147.5,402.5C 173.254,402.524 199.254,402.524 225.5,402.5C 227.823,403.234 229.99,402.568 232,400.5C 237.921,401.033 243.588,401.366 249,401.5C 249.75,400.874 250.584,400.374 251.5,400C 272.935,398.658 294.601,398.325 316.5,399C 316.167,399.333 315.833,399.667 315.5,400C 304.81,401.168 294.143,402.335 283.5,403.5 Z M 331.5,404.5 C 333.857,404.337 336.19,404.503 338.5,405C 336.236,405.236 334.069,405.736 332,406.5C 331.536,405.906 331.369,405.239 331.5,404.5 Z M 315.5,407.5 C 319.981,406.352 324.648,406.185 329.5,407C 325.496,407.874 321.163,408.374 316.5,408.5C 316.5,407.833 316.167,407.5 315.5,407.5 Z M 315.5,407.5 C 316.167,407.5 316.5,407.833 316.5,408.5C 314.695,410.197 312.361,411.03 309.5,411C 300.196,412.067 290.862,412.567 281.5,412.5C 285.395,411.775 289.395,411.109 293.5,410.5C 297.298,409.517 301.298,409.183 305.5,409.5C 308.684,408.677 312.017,408.01 315.5,407.5 Z M 281.5,412.5 C 281.389,413.117 281.056,413.617 280.5,414C 270.5,414.667 260.5,414.667 250.5,414C 261.051,413.4 271.385,412.9 281.5,412.5 Z"/></g>
<g><path style="opacity:0.004" fill="#000000" d="M 167.5,187.5 C 166.833,186.167 166.833,186.167 167.5,187.5 Z"/></g>
<g><path style="opacity:0.004" fill="#000000" d="M 271.5,187.5 C 272.833,188.167 272.833,188.167 271.5,187.5 Z"/></g>
<g><path style="opacity:0.004" fill="#000000" d="M 158.5,189.5 C 157.833,188.167 157.833,188.167 158.5,189.5 Z"/></g>
<g><path style="opacity:0.004" fill="#000000" d="M 273.5,188.5 C 274.833,189.167 274.833,189.167 273.5,188.5 Z"/></g>
<g><path style="opacity:0.004" fill="#000000" d="M 277.5,190.5 C 278.833,191.167 278.833,191.167 277.5,190.5 Z"/></g>
<g><path style="opacity:0.004" fill="#000000" d="M 281.5,191.5 C 282.833,192.167 282.833,192.167 281.5,191.5 Z"/></g>
<g><path style="opacity:0.004" fill="#000000" d="M 294.5,196.5 C 295.833,197.167 295.833,197.167 294.5,196.5 Z"/></g>
<g><path style="opacity:0.005" fill="#000000" d="M 121.5,205.5 C 120.833,205.5 120.5,205.833 120.5,206.5C 119.287,205.503 119.454,204.503 121,203.5C 121.464,204.094 121.631,204.761 121.5,205.5 Z"/></g>
<g><path style="opacity:0.004" fill="#000000" d="M 472.5,213.5 C 471.833,214.167 471.833,214.167 472.5,213.5 Z"/></g>
<g><path style="opacity:0.004" fill="#000000" d="M 492.5,214.5 C 493.833,215.167 493.833,215.167 492.5,214.5 Z"/></g>
<g><path style="opacity:0.004" fill="#000000" d="M 468.5,219.5 C 467.833,218.167 467.833,218.167 468.5,219.5 Z"/></g>
<g><path style="opacity:0.004" fill="#000000" d="M 307.5,221.5 C 307.489,224.001 306.822,224.168 305.5,222C 306.094,221.536 306.761,221.369 307.5,221.5 Z"/></g>
<g><path style="opacity:0.004" fill="#000000" d="M 336.5,221.5 C 337.833,222.167 337.833,222.167 336.5,221.5 Z"/></g>
<g><path style="opacity:0.008" fill="#000000" d="M 467.5,222.5 C 466.833,221.167 466.833,221.167 467.5,222.5 Z"/></g>
<g><path style="opacity:0.004" fill="#000000" d="M 506.5,222.5 C 507.833,223.167 507.833,223.167 506.5,222.5 Z"/></g>
<g><path style="opacity:0.004" fill="#000000" d="M 343.5,226.5 C 344.833,227.167 344.833,227.167 343.5,226.5 Z"/></g>
<g><path style="opacity:0.004" fill="#000000" d="M 464.5,227.5 C 463.833,226.167 463.833,226.167 464.5,227.5 Z"/></g>
<g><path style="opacity:0.004" fill="#000000" d="M 510.5,226.5 C 511.833,227.167 511.833,227.167 510.5,226.5 Z"/></g>
<g><path style="opacity:0.004" fill="#000000" d="M 348.5,230.5 C 347.833,229.167 347.833,229.167 348.5,230.5 Z"/></g>
<g><path style="opacity:0.004" fill="#000000" d="M 511.5,229.5 C 512.833,230.167 512.833,230.167 511.5,229.5 Z"/></g>
<g><path style="opacity:0.004" fill="#000000" d="M 348.5,230.5 C 349.833,231.167 349.833,231.167 348.5,230.5 Z"/></g>
<g><path style="opacity:0.004" fill="#000000" d="M 349.5,232.5 C 350.833,233.167 350.833,233.167 349.5,232.5 Z"/></g>
<g><path style="opacity:0.007" fill="#000000" d="M 84.5,234.5 C 83.8333,234.5 83.5,234.833 83.5,235.5C 81.0248,235.253 81.0248,234.587 83.5,233.5C 84.1067,233.624 84.44,233.957 84.5,234.5 Z"/></g>
<g><path style="opacity:0.004" fill="#000000" d="M 352.5,234.5 C 353.833,235.167 353.833,235.167 352.5,234.5 Z"/></g>
<g><path style="opacity:0.004" fill="#000000" d="M 514.5,234.5 C 515.833,235.167 515.833,235.167 514.5,234.5 Z"/></g>
<g><path style="opacity:0.004" fill="#000000" d="M 515.5,236.5 C 516.833,237.167 516.833,237.167 515.5,236.5 Z"/></g>
<g><path style="opacity:0.004" fill="#000000" d="M 356.5,238.5 C 355.833,237.167 355.833,237.167 356.5,238.5 Z"/></g>
<g><path style="opacity:0.004" fill="#000000" d="M 356.5,238.5 C 357.833,239.167 357.833,239.167 356.5,238.5 Z"/></g>
<g><path style="opacity:0.004" fill="#000000" d="M 75.5,240.5 C 76.8333,241.167 76.8333,241.167 75.5,240.5 Z"/></g>
<g><path style="opacity:0.004" fill="#000000" d="M 359.5,241.5 C 360.833,242.167 360.833,242.167 359.5,241.5 Z"/></g>
<g><path style="opacity:0.004" fill="#000000" d="M 76.5,243.5 C 75.7611,243.631 75.0944,243.464 74.5,243C 75.4368,242.308 76.1034,242.475 76.5,243.5 Z"/></g>
<g><path style="opacity:0.448" fill="#000000" d="M 160.5,250.5 C 157.381,252.217 155.047,254.717 153.5,258C 149.873,257.812 146.873,259.312 144.5,262.5C 139.973,264.048 135.973,266.381 132.5,269.5C 131.29,269.932 130.29,270.599 129.5,271.5C 127.471,273.814 125.304,275.814 123,277.5C 121.644,276.62 120.144,276.286 118.5,276.5C 118.366,274.708 118.699,273.042 119.5,271.5C 120.268,270.737 120.768,269.737 121,268.5C 123.73,267.461 126.23,265.461 128.5,262.5C 129.086,262.709 129.586,263.043 130,263.5C 130.315,260.853 131.482,260.187 133.5,261.5C 136.147,258.843 139.147,256.677 142.5,255C 142.296,252.379 142.296,249.545 142.5,246.5C 145.26,247.569 148.093,248.569 151,249.5C 152.204,248.529 152.704,247.529 152.5,246.5C 153.086,246.709 153.586,247.043 154,247.5C 155.897,245.984 158.064,245.317 160.5,245.5C 160.5,247.167 160.5,248.833 160.5,250.5 Z"/></g>
<g><path style="opacity:0.004" fill="#000000" d="M 517.5,245.5 C 518.833,246.167 518.833,246.167 517.5,245.5 Z"/></g>
<g><path style="opacity:0.004" fill="#000000" d="M 365.5,246.5 C 366.833,247.167 366.833,247.167 365.5,246.5 Z"/></g>
<g><path style="opacity:0.004" fill="#000000" d="M 368.5,250.5 C 369.497,249.287 370.497,249.454 371.5,251C 370.906,251.464 370.239,251.631 369.5,251.5C 368.833,251.5 368.5,251.167 368.5,250.5 Z"/></g>
<g><path style="opacity:0.004" fill="#000000" d="M 67.5,253.5 C 68.8333,254.167 68.8333,254.167 67.5,253.5 Z"/></g>
<g><path style="opacity:0.004" fill="#000000" d="M 465.5,263.5 C 464.833,264.167 464.833,264.167 465.5,263.5 Z"/></g>
<g><path style="opacity:0.004" fill="#000000" d="M 63.5,267.5 C 62.8333,266.167 62.8333,266.167 63.5,267.5 Z"/></g>
<g><path style="opacity:0.004" fill="#000000" d="M 364.5,266.5 C 364.5,267.167 364.833,267.5 365.5,267.5C 364.923,268.773 364.257,268.773 363.5,267.5C 363.624,266.893 363.957,266.56 364.5,266.5 Z"/></g>
<g><path style="opacity:0.004" fill="#000000" d="M 466.5,266.5 C 467.833,267.167 467.833,267.167 466.5,266.5 Z"/></g>
<g><path style="opacity:0.692" fill="#000000" d="M 160.5,282.5 C 157.246,282.794 154.579,284.127 152.5,286.5C 149.968,288.13 147.302,289.464 144.5,290.5C 146.379,290.393 146.712,290.893 145.5,292C 142.036,293.654 138.369,294.821 134.5,295.5C 133.006,295.291 131.839,294.624 131,293.5C 129.94,291.05 129.773,288.717 130.5,286.5C 132.105,285.994 132.439,285.327 131.5,284.5C 133.693,283.611 136.026,282.111 138.5,280C 138.167,279.667 137.833,279.333 137.5,279C 141.5,277.333 145.5,275.667 149.5,274C 152.974,270.682 157.14,268.848 162,268.5C 161.881,270.893 162.381,273.393 163.5,276C 162.71,278.282 161.71,280.448 160.5,282.5 Z"/></g>
<g><path style="opacity:0.004" fill="#000000" d="M 468.5,269.5 C 467.833,268.167 467.833,268.167 468.5,269.5 Z"/></g>
<g><path style="opacity:0.004" fill="#000000" d="M 62.5,270.5 C 61.8333,269.167 61.8333,269.167 62.5,270.5 Z"/></g>
<g><path style="opacity:0.004" fill="#000000" d="M 468.5,269.5 C 468.833,269.5 469.167,269.5 469.5,269.5C 469.167,272.167 468.833,272.167 468.5,269.5 Z"/></g>
<g><path style="opacity:0.004" fill="#000000" d="M 573.5,271.5 C 574.833,272.167 574.833,272.167 573.5,271.5 Z"/></g>
<g><path style="opacity:0.008" fill="#000000" d="M 103.5,272.5 C 104.5,272.5 105.5,272.5 106.5,272.5C 106.5,273.5 106.5,274.5 106.5,275.5C 108.199,275.34 109.866,275.506 111.5,276C 108.428,279.475 104.761,281.475 100.5,282C 98.6751,280.534 98.1751,278.701 99,276.5C 100.667,275.267 102.167,273.933 103.5,272.5 Z"/></g>
<g><path style="opacity:0.006" fill="#000000" d="M 471.5,273.5 C 471.833,273.5 472.167,273.5 472.5,273.5C 472.167,276.167 471.833,276.167 471.5,273.5 Z"/></g>
<g><path style="opacity:0.004" fill="#000000" d="M 390.5,274.5 C 391.833,275.167 391.833,275.167 390.5,274.5 Z"/></g>
<g><path style="opacity:0.004" fill="#000000" d="M 59.5,276.5 C 58.8333,275.167 58.8333,275.167 59.5,276.5 Z"/></g>
<g><path style="opacity:0.004" fill="#000000" d="M 579.5,275.5 C 580.833,276.167 580.833,276.167 579.5,275.5 Z"/></g>
<g><path style="opacity:0.004" fill="#000000" d="M 472.5,276.5 C 473.833,277.167 473.833,277.167 472.5,276.5 Z"/></g>
<g><path style="opacity:0.004" fill="#000000" d="M 58.5,279.5 C 57.8333,278.167 57.8333,278.167 58.5,279.5 Z"/></g>
<g><path style="opacity:0.004" fill="#000000" d="M 394.5,279.5 C 393.833,278.167 393.833,278.167 394.5,279.5 Z"/></g>
<g><path style="opacity:0.004" fill="#000000" d="M 394.5,279.5 C 395.833,280.167 395.833,280.167 394.5,279.5 Z"/></g>
<g><path style="opacity:0.004" fill="#000000" d="M 581.5,279.5 C 582.833,280.167 582.833,280.167 581.5,279.5 Z"/></g>
<g><path style="opacity:0.004" fill="#000000" d="M 55.5,282.5 C 56.8333,283.167 56.8333,283.167 55.5,282.5 Z"/></g>
<g><path style="opacity:0.006" fill="#000000" d="M 480.5,282.5 C 481.167,282.5 481.5,282.833 481.5,283.5C 482.167,283.5 482.5,283.833 482.5,284.5C 480.93,285.559 479.597,285.059 478.5,283C 479.094,282.536 479.761,282.369 480.5,282.5 Z"/></g>
<g><path style="opacity:0.004" fill="#000000" d="M 397.5,283.5 C 398.833,284.167 398.833,284.167 397.5,283.5 Z"/></g>
<g><path style="opacity:0.004" fill="#000000" d="M 583.5,283.5 C 584.833,284.167 584.833,284.167 583.5,283.5 Z"/></g>
<g><path style="opacity:0.012" fill="#000000" d="M 55.5,287.5 C 54.8333,286.167 54.8333,286.167 55.5,287.5 Z"/></g>
<g><path style="opacity:0.004" fill="#000000" d="M 481.5,290.5 C 480.833,289.167 480.833,289.167 481.5,290.5 Z"/></g>
<g><path style="opacity:0.004" fill="#000000" d="M 402.5,291.5 C 401.833,290.167 401.833,290.167 402.5,291.5 Z"/></g>
<g><path style="opacity:0.004" fill="#000000" d="M 402.5,291.5 C 403.833,292.167 403.833,292.167 402.5,291.5 Z"/></g>
<g><path style="opacity:0.004" fill="#000000" d="M 403.5,294.5 C 404.833,295.167 404.833,295.167 403.5,294.5 Z"/></g>
<g><path style="opacity:0.006" fill="#000000" d="M 477.5,299.5 C 478.167,298.167 478.833,298.167 479.5,299.5C 478.833,299.5 478.167,299.5 477.5,299.5 Z"/></g>
<g><path style="opacity:0.004" fill="#000000" d="M 51.5,300.5 C 50.8333,299.167 50.8333,299.167 51.5,300.5 Z"/></g>
<g><path style="opacity:0.004" fill="#000000" d="M 477.5,299.5 C 476.833,300.167 476.833,300.167 477.5,299.5 Z"/></g>
<g><path style="opacity:0.004" fill="#000000" d="M 534.5,302.5 C 535.833,303.167 535.833,303.167 534.5,302.5 Z"/></g>
<g><path style="opacity:0.004" fill="#000000" d="M 538.5,302.5 C 539.833,303.167 539.833,303.167 538.5,302.5 Z"/></g>
<g><path style="opacity:0.004" fill="#000000" d="M 410.5,303.5 C 411.833,304.167 411.833,304.167 410.5,303.5 Z"/></g>
<g><path style="opacity:0.004" fill="#000000" d="M 472.5,308.5 C 469.999,308.489 469.832,307.822 472,306.5C 472.464,307.094 472.631,307.761 472.5,308.5 Z"/></g>
<g><path style="opacity:0.004" fill="#000000" d="M 517.5,306.5 C 518.833,307.167 518.833,307.167 517.5,306.5 Z"/></g>
<g><path style="opacity:0.004" fill="#000000" d="M 564.5,306.5 C 563.833,307.167 563.833,307.167 564.5,306.5 Z"/></g>
<g><path style="opacity:0.004" fill="#000000" d="M 515.5,307.5 C 516.833,308.167 516.833,308.167 515.5,307.5 Z"/></g>
<g><path style="opacity:0.004" fill="#000000" d="M 468.5,308.5 C 469.833,309.167 469.833,309.167 468.5,308.5 Z"/></g>
<g><path style="opacity:0.004" fill="#000000" d="M 579.5,310.5 C 580.833,311.167 580.833,311.167 579.5,310.5 Z"/></g>
<g><path style="opacity:0.004" fill="#000000" d="M 464.5,311.5 C 465.833,312.167 465.833,312.167 464.5,311.5 Z"/></g>
<g><path style="opacity:0.703" fill="#000000" d="M 224.5,332.5 C 228.182,332.335 231.848,332.501 235.5,333C 236.91,333.368 237.91,334.201 238.5,335.5C 235.04,346.788 228.374,355.621 218.5,362C 212.74,364.154 207.074,363.988 201.5,361.5C 198.511,358.018 198.844,355.018 202.5,352.5C 206.768,353.685 210.935,354.352 215,354.5C 216.708,352.457 218.708,350.79 221,349.5C 226.77,342.405 225.437,340.072 217,342.5C 212.79,342.356 208.624,341.856 204.5,341C 203.018,338.408 203.352,336.075 205.5,334C 208.38,333.316 211.213,333.483 214,334.5C 217.654,333.938 221.154,333.271 224.5,332.5 Z"/></g>
<g><path style="opacity:0.004" fill="#000000" d="M 485.5,346.5 C 485.5,346.167 485.5,345.833 485.5,345.5C 488.167,345.833 488.167,346.167 485.5,346.5 Z"/></g>
<g><path style="opacity:0.004" fill="#000000" d="M 484.5,346.5 C 484.833,346.5 485.167,346.5 485.5,346.5C 485.315,347.17 484.981,347.17 484.5,346.5 Z"/></g>
<g><path style="opacity:0.004" fill="#000000" d="M 483.5,348.5 C 484.833,349.167 484.833,349.167 483.5,348.5 Z"/></g>
<g><path style="opacity:0.008" fill="#000000" d="M 51.5,352.5 C 50.8333,353.167 50.8333,353.167 51.5,352.5 Z"/></g>
<g><path style="opacity:0.004" fill="#000000" d="M 479.5,352.5 C 480.239,352.369 480.906,352.536 481.5,353C 480.563,353.692 479.897,353.525 479.5,352.5 Z"/></g>
<g><path style="opacity:0.004" fill="#000000" d="M 476.5,356.5 C 477.833,357.167 477.833,357.167 476.5,356.5 Z"/></g>
<g><path style="opacity:0.004" fill="#000000" d="M 471.5,360.5 C 472.833,361.167 472.833,361.167 471.5,360.5 Z"/></g>
<g><path style="opacity:0.004" fill="#000000" d="M 465.5,364.5 C 466.833,365.167 466.833,365.167 465.5,364.5 Z"/></g>
<g><path style="opacity:0.004" fill="#000000" d="M 55.5,365.5 C 56.8333,366.167 56.8333,366.167 55.5,365.5 Z"/></g>
<g><path style="opacity:0.004" fill="#000000" d="M 464.5,365.5 C 464.833,365.5 465.167,365.5 465.5,365.5C 465.289,367.424 464.623,367.757 463.5,366.5C 464.167,366.5 464.5,366.167 464.5,365.5 Z"/></g>
<g><path style="opacity:0.004" fill="#000000" d="M 459.5,368.5 C 460.525,368.897 460.692,369.563 460,370.5C 459.536,369.906 459.369,369.239 459.5,368.5 Z"/></g>
<g><path style="opacity:0.004" fill="#000000" d="M 59.5,372.5 C 60.8333,373.167 60.8333,373.167 59.5,372.5 Z"/></g>
<g><path style="opacity:0.004" fill="#000000" d="M 444.5,376.5 C 445.713,377.497 445.546,378.497 444,379.5C 443.536,378.906 443.369,378.239 443.5,377.5C 444.167,377.5 444.5,377.167 444.5,376.5 Z"/></g>
<g><path style="opacity:0.004" fill="#000000" d="M 64.5,377.5 C 64.631,378.239 64.4643,378.906 64,379.5C 63.3083,378.563 63.475,377.897 64.5,377.5 Z"/></g>
<g><path style="opacity:0.004" fill="#000000" d="M 67.5,381.5 C 68.1667,381.5 68.5,381.833 68.5,382.5C 68.2533,384.975 67.5866,384.975 66.5,382.5C 66.6236,381.893 66.9569,381.56 67.5,381.5 Z"/></g>
<g><path style="opacity:0.004" fill="#000000" d="M 430.5,383.5 C 431.239,383.369 431.906,383.536 432.5,384C 431.563,384.692 430.897,384.525 430.5,383.5 Z"/></g>
<g><path style="opacity:0.004" fill="#000000" d="M 69.5,385.5 C 70.8333,386.167 70.8333,386.167 69.5,385.5 Z"/></g>
<g><path style="opacity:0.004" fill="#000000" d="M 418.5,389.5 C 419.833,390.167 419.833,390.167 418.5,389.5 Z"/></g>
<g><path style="opacity:0.004" fill="#000000" d="M 417.5,390.5 C 417.833,390.5 418.167,390.5 418.5,390.5C 418.315,391.17 417.981,391.17 417.5,390.5 Z"/></g>
<g><path style="opacity:0.004" fill="#000000" d="M 413.5,391.5 C 414.833,392.167 414.833,392.167 413.5,391.5 Z"/></g>
<g><path style="opacity:0.004" fill="#000000" d="M 75.5,393.5 C 76.8333,394.167 76.8333,394.167 75.5,393.5 Z"/></g>
<g><path style="opacity:0.006" fill="#000000" d="M 406.5,393.5 C 406.833,393.5 407.167,393.5 407.5,393.5C 407.167,396.167 406.833,396.167 406.5,393.5 Z"/></g>
<g><path style="opacity:0.006" fill="#000000" d="M 79.5,394.5 C 80.1667,394.5 80.5,394.833 80.5,395.5C 79.5029,396.713 78.5029,396.546 77.5,395C 78.0944,394.536 78.7611,394.369 79.5,394.5 Z"/></g>
<g><path style="opacity:0.004" fill="#000000" d="M 81.5,398.5 C 82.8333,399.167 82.8333,399.167 81.5,398.5 Z"/></g>
<g><path style="opacity:0.004" fill="#000000" d="M 399.5,398.5 C 400.833,399.167 400.833,399.167 399.5,398.5 Z"/></g>
<g><path style="opacity:0.004" fill="#000000" d="M 85.5,399.5 C 85.1034,400.525 84.4368,400.692 83.5,400C 84.0944,399.536 84.7611,399.369 85.5,399.5 Z"/></g>
<g><path style="opacity:0.004" fill="#000000" d="M 397.5,399.5 C 398.833,400.167 398.833,400.167 397.5,399.5 Z"/></g>
<g><path style="opacity:0.004" fill="#000000" d="M 87.5,401.5 C 88.1667,401.5 88.5,401.833 88.5,402.5C 88.5,402.833 88.5,403.167 88.5,403.5C 86.5759,403.289 86.2426,402.623 87.5,401.5 Z"/></g>
<g><path style="opacity:0.004" fill="#000000" d="M 393.5,401.5 C 394.833,402.167 394.833,402.167 393.5,401.5 Z"/></g>
<g><path style="opacity:0.004" fill="#000000" d="M 389.5,402.5 C 390.239,402.369 390.906,402.536 391.5,403C 390.563,403.692 389.897,403.525 389.5,402.5 Z"/></g>
<g><path style="opacity:0.004" fill="#000000" d="M 88.5,403.5 C 88.8333,403.5 89.1667,403.5 89.5,403.5C 89.3147,404.17 88.9813,404.17 88.5,403.5 Z"/></g>
<g><path style="opacity:0.004" fill="#000000" d="M 92.5,405.5 C 92.5,405.833 92.5,406.167 92.5,406.5C 91.8299,406.019 91.8299,405.685 92.5,405.5 Z"/></g>
<g><path style="opacity:0.004" fill="#000000" d="M 92.5,406.5 C 93.8333,407.167 93.8333,407.167 92.5,406.5 Z"/></g>
<g><path style="opacity:0.004" fill="#000000" d="M 379.5,406.5 C 380.239,406.369 380.906,406.536 381.5,407C 380.563,407.692 379.897,407.525 379.5,406.5 Z"/></g>
<g><path style="opacity:0.004" fill="#000000" d="M 97.5,409.5 C 96.8333,410.167 96.8333,410.167 97.5,409.5 Z"/></g>
<g><path style="opacity:0.004" fill="#000000" d="M 368.5,409.5 C 369.833,410.167 369.833,410.167 368.5,409.5 Z"/></g>
<g><path style="opacity:0.004" fill="#000000" d="M 171.5,426.5 C 171.631,427.239 171.464,427.906 171,428.5C 170.308,427.563 170.475,426.897 171.5,426.5 Z"/></g>
<g><path style="opacity:0.016" fill="#000000" d="M 153.5,433.5 C 158.992,435.717 158.658,437.051 152.5,437.5C 152.433,436.041 152.766,434.708 153.5,433.5 Z"/></g>
<g><path style="opacity:0.004" fill="#000000" d="M 145.5,443.5 C 148.012,444.216 148.012,445.216 145.5,446.5C 144.438,445.575 144.438,444.575 145.5,443.5 Z"/></g>
</svg>
