<?xml version="1.0" encoding="UTF-8"?>
<!DOCTYPE svg PUBLIC "-//W3C//DTD SVG 1.1//EN" "http://www.w3.org/Graphics/SVG/1.1/DTD/svg11.dtd">
<svg xmlns="http://www.w3.org/2000/svg" version="1.1" width="611px" height="611px" style="shape-rendering:geometricPrecision; text-rendering:geometricPrecision; image-rendering:optimizeQuality; fill-rule:evenodd; clip-rule:evenodd" xmlns:xlink="http://www.w3.org/1999/xlink">
<g><path style="opacity:0.704" fill="#000000" d="M 268.5,193.5 C 270.385,195.311 272.719,196.478 275.5,197C 277.112,197.72 278.612,197.554 280,196.5C 280.617,197.449 280.451,198.282 279.5,199C 280.854,200.294 282.188,200.46 283.5,199.5C 284.478,199.977 285.311,200.643 286,201.5C 286.333,200.833 286.667,200.167 287,199.5C 288.774,201.94 291.108,203.606 294,204.5C 295.425,205.079 297.092,205.079 299,204.5C 299.249,205.624 299.749,206.624 300.5,207.5C 301.989,207.533 303.322,208.033 304.5,209C 304.167,209.333 303.833,209.667 303.5,210C 304.76,211.113 305.927,211.28 307,210.5C 307.605,212.481 308.605,212.815 310,211.5C 310.317,213.301 310.984,213.634 312,212.5C 312.5,213 313,213.5 313.5,214C 312.167,214.667 312.167,215.333 313.5,216C 314.549,216.492 315.549,216.326 316.5,215.5C 317.59,216.727 318.924,217.56 320.5,218C 320.167,218.333 319.833,218.667 319.5,219C 321.345,220.128 323.345,220.628 325.5,220.5C 325.5,221.5 325.5,222.5 325.5,223.5C 326.822,223.67 327.989,223.337 329,222.5C 329.652,224.723 331.152,225.89 333.5,226C 332.289,226.893 332.289,227.726 333.5,228.5C 335.201,228.19 336.868,228.69 338.5,230C 338.167,230.333 337.833,230.667 337.5,231C 343.737,236.8 349.737,241.967 355.5,246.5C 355.842,247.338 356.508,247.672 357.5,247.5C 358.167,249.5 359.5,250.833 361.5,251.5C 361.75,252.922 362.583,253.922 364,254.5C 364.667,253.167 365.333,253.167 366,254.5C 366.309,255.766 366.809,256.933 367.5,258C 368.951,257.737 370.284,257.904 371.5,258.5C 370.109,260.936 370.609,261.602 373,260.5C 373.645,261.646 374.478,262.646 375.5,263.5C 375.291,264.086 374.957,264.586 374.5,265C 377.686,267.188 380.186,270.022 382,273.5C 383.666,272.66 383.833,273.16 382.5,275C 384.286,276.196 385.619,277.696 386.5,279.5C 386.577,280.75 387.244,281.583 388.5,282C 387.288,283.107 387.621,283.607 389.5,283.5C 389.369,284.239 389.536,284.906 390,285.5C 391.302,286.085 392.469,286.751 393.5,287.5C 392.761,287.369 392.094,287.536 391.5,288C 392.551,289.385 393.884,290.385 395.5,291C 394.209,292.292 394.209,293.458 395.5,294.5C 397.653,298.315 399.987,301.982 402.5,305.5C 402.5,306.167 402.833,306.5 403.5,306.5C 404.174,308.024 405.174,309.358 406.5,310.5C 407.651,311.731 408.817,311.731 410,310.5C 410.923,311.759 411.757,313.092 412.5,314.5C 413.425,315.641 414.259,315.641 415,314.5C 417.024,318.244 420.024,319.578 424,318.5C 424.605,320.481 425.605,320.815 427,319.5C 427.833,321 429,322.167 430.5,323C 438.573,325.104 446.573,324.937 454.5,322.5C 454.351,321.448 454.517,320.448 455,319.5C 456.016,320.634 456.683,320.301 457,318.5C 458.857,319.167 460.357,318.5 461.5,316.5C 462.75,316.423 463.583,315.756 464,314.5C 466.108,315.612 467.608,314.946 468.5,312.5C 471.925,311.597 472.258,310.097 469.5,308C 471.23,306.148 472.396,306.314 473,308.5C 473.785,306.751 474.618,305.084 475.5,303.5C 476.913,300.781 477.58,297.781 477.5,294.5C 479.185,293.816 480.185,292.483 480.5,290.5C 480.145,289.478 479.478,288.811 478.5,288.5C 478.5,287.833 478.167,287.5 477.5,287.5C 476.738,285.738 475.404,284.738 473.5,284.5C 472.569,281.58 470.903,279.247 468.5,277.5C 467.974,275.77 466.974,274.436 465.5,273.5C 465.119,272.069 464.119,271.236 462.5,271C 463.8,269.421 463.466,268.255 461.5,267.5C 459.632,262.074 457.965,256.574 456.5,251C 457.944,244.736 459.278,238.403 460.5,232C 460.167,231.667 459.833,231.333 459.5,231C 460.5,229.333 461.833,228 463.5,227C 463.167,226.667 462.833,226.333 462.5,226C 463.756,225.583 464.423,224.75 464.5,223.5C 466.698,223.591 467.031,222.925 465.5,221.5C 466.815,220.524 468.148,219.524 469.5,218.5C 469.376,217.893 469.043,217.56 468.5,217.5C 468.389,215.352 469.056,215.019 470.5,216.5C 471.192,215.975 471.692,215.308 472,214.5C 475.076,215.288 478.242,215.788 481.5,216C 484.256,216.517 486.589,217.684 488.5,219.5C 490.292,220.309 492.292,220.809 494.5,221C 494.043,221.414 493.709,221.914 493.5,222.5C 496.848,223.742 499.848,225.408 502.5,227.5C 503.448,228.978 504.781,229.978 506.5,230.5C 505.957,230.56 505.624,230.893 505.5,231.5C 507.165,235.135 509.165,238.469 511.5,241.5C 511.008,245.457 511.675,249.123 513.5,252.5C 512.975,253.192 512.308,253.692 511.5,254C 512.973,254.71 513.64,255.876 513.5,257.5C 517.976,256.357 522.476,255.357 527,254.5C 527.249,255.624 527.749,256.624 528.5,257.5C 530.845,254.188 532.178,254.188 532.5,257.5C 534.527,257.338 536.527,257.505 538.5,258C 544.175,260.246 549.508,263.079 554.5,266.5C 555.167,266.167 555.833,265.833 556.5,265.5C 556.94,266.698 557.273,267.865 557.5,269C 558.784,269.684 559.951,269.517 561,268.5C 561.576,271.124 562.91,271.791 565,270.5C 565.617,271.449 565.451,272.282 564.5,273C 565.993,274.368 567.493,274.535 569,273.5C 569.464,274.094 569.631,274.761 569.5,275.5C 568.167,275.833 568.167,276.167 569.5,276.5C 571.795,276.689 573.795,278.023 575.5,280.5C 576.921,286.104 579.087,291.437 582,296.5C 583.418,301.428 583.751,306.428 583,311.5C 581.007,312.914 578.84,313.914 576.5,314.5C 576.44,313.957 576.107,313.624 575.5,313.5C 573.941,314.074 572.441,314.74 571,315.5C 569.203,313.844 567.036,312.844 564.5,312.5C 563.914,312.709 563.414,313.043 563,313.5C 562.535,312.069 561.701,310.903 560.5,310C 553.281,308.35 545.948,306.85 538.5,305.5C 536.955,305.511 535.622,305.844 534.5,306.5C 532.965,305.646 531.632,305.646 530.5,306.5C 528.283,307.369 525.95,307.702 523.5,307.5C 523.167,306.167 522.833,306.167 522.5,307.5C 520.592,307.883 519.092,308.883 518,310.5C 517.667,309.833 517.333,309.167 517,308.5C 514.791,308.989 512.958,309.989 511.5,311.5C 510.761,311.369 510.094,311.536 509.5,312C 510.451,312.718 510.617,313.551 510,314.5C 508.951,313.483 507.784,313.316 506.5,314C 507.601,316.292 506.768,317.792 504,318.5C 503.086,317.346 502.253,317.513 501.5,319C 502.883,320.461 502.549,321.294 500.5,321.5C 500.167,320.167 499.833,320.167 499.5,321.5C 498.836,322.648 498.669,323.981 499,325.5C 498,326.833 497,326.833 496,325.5C 494.706,326.854 494.54,328.188 495.5,329.5C 493.665,330.428 493.332,331.594 494.5,333C 493.551,333.617 492.718,333.451 492,332.5C 491.293,334.081 490.46,335.581 489.5,337C 491.901,337.805 491.734,338.638 489,339.5C 488.667,339.167 488.333,338.833 488,338.5C 486.702,339.946 486.535,341.279 487.5,342.5C 487.047,343.458 486.381,344.292 485.5,345C 486.34,346.666 485.84,346.833 484,345.5C 483.338,346.984 482.504,348.317 481.5,349.5C 480.167,349.833 480.167,350.167 481.5,350.5C 480.833,351.167 480.167,351.833 479.5,352.5C 478.596,353.209 478.263,354.209 478.5,355.5C 477.209,355.263 476.209,355.596 475.5,356.5C 474.659,357.926 473.659,359.26 472.5,360.5C 471.167,361.833 469.833,363.167 468.5,364.5C 467.221,363.285 466.221,363.618 465.5,365.5C 464.732,366.263 464.232,367.263 464,368.5C 463.295,366.014 462.462,366.014 461.5,368.5C 460.833,368.5 460.5,368.833 460.5,369.5C 459.833,369.5 459.5,369.833 459.5,370.5C 458.005,370.989 456.671,371.655 455.5,372.5C 454.732,373.263 454.232,374.263 454,375.5C 452.132,374.328 450.298,374.495 448.5,376C 449.451,376.718 449.617,377.551 449,378.5C 447.644,377.62 446.144,377.286 444.5,377.5C 444.587,380.598 444.087,380.932 443,378.5C 442.005,379.066 441.172,379.733 440.5,380.5C 439.833,380.5 439.5,380.833 439.5,381.5C 438.833,381.5 438.5,381.833 438.5,382.5C 437.265,382.721 436.265,383.388 435.5,384.5C 434.833,384.167 434.167,383.833 433.5,383.5C 433.002,384.603 432.669,385.603 432.5,386.5C 430.298,385.566 428.298,385.9 426.5,387.5C 424.067,387.273 422.401,388.273 421.5,390.5C 419.901,390.232 418.568,390.566 417.5,391.5C 415.821,391.285 414.821,391.952 414.5,393.5C 413.833,393.5 413.5,393.833 413.5,394.5C 410.018,394.127 407.018,395.127 404.5,397.5C 403.914,397.291 403.414,396.957 403,396.5C 401.855,397.636 400.688,398.636 399.5,399.5C 397.368,399.554 396.035,400.554 395.5,402.5C 391.525,402.486 388.192,403.819 385.5,406.5C 383.053,408.061 379.719,409.228 375.5,410C 375.833,410.333 376.167,410.667 376.5,411C 372.233,411.189 368.233,412.023 364.5,413.5C 356.68,415.691 348.68,417.191 340.5,418C 341.858,420.752 341.191,421.252 338.5,419.5C 337.353,419.818 336.519,420.484 336,421.5C 330.866,420.398 325.7,420.565 320.5,422C 320.833,422.333 321.167,422.667 321.5,423C 306.704,424.721 292.537,426.888 279,429.5C 245.737,428.767 212.571,428.767 179.5,429.5C 179.649,430.552 179.483,431.552 179,432.5C 177.915,431.707 176.748,431.04 175.5,430.5C 172.796,431.486 169.962,432.153 167,432.5C 166.517,431.552 166.351,430.552 166.5,429.5C 165.448,429.351 164.448,429.517 163.5,430C 164.451,430.718 164.617,431.551 164,432.5C 162.053,431.89 160.219,431.057 158.5,430C 151.66,429.588 144.827,429.088 138,428.5C 135.906,428.536 133.906,428.869 132,429.5C 129.975,427.275 127.642,426.941 125,428.5C 124.383,427.551 124.549,426.718 125.5,426C 121.287,423.547 117.12,423.047 113,424.5C 111.921,421.531 109.754,419.865 106.5,419.5C 105.325,420.855 104.325,420.688 103.5,419C 103.833,418.667 104.167,418.333 104.5,418C 103.216,417.316 102.049,417.483 101,418.5C 97.9164,416.686 95.4164,415.02 93.5,413.5C 91.3158,411.106 88.3158,408.772 84.5,406.5C 83.8333,405.167 82.8333,404.167 81.5,403.5C 79.8577,402.197 78.1911,400.864 76.5,399.5C 76.5,398.833 76.1667,398.5 75.5,398.5C 74.8783,397.373 74.045,396.373 73,395.5C 70.1667,396.667 69.3333,395.833 70.5,393C 68.5998,390.665 66.5998,388.498 64.5,386.5C 64.5,385.833 64.1667,385.5 63.5,385.5C 62.9744,383.77 61.9744,382.436 60.5,381.5C 60.0133,380.527 59.5133,379.527 59,378.5C 57.3335,379.34 57.1669,378.84 58.5,377C 57.1763,375.128 55.6763,374.295 54,374.5C 53.8019,372.618 53.3019,370.952 52.5,369.5C 50.3114,366.143 48.8114,361.809 48,356.5C 47.6667,356.833 47.3333,357.167 47,357.5C 43.7387,340.045 43.9053,322.379 47.5,304.5C 48.3173,302.169 48.9839,299.669 49.5,297C 49.3552,296.228 49.0219,295.561 48.5,295C 49.9675,293.902 50.8008,292.402 51,290.5C 51.3333,290.833 51.6667,291.167 52,291.5C 52.7611,288.947 53.5944,286.447 54.5,284C 54.1667,283.667 53.8333,283.333 53.5,283C 54.3805,282.292 55.0472,281.458 55.5,280.5C 57.9754,279.313 58.9754,277.313 58.5,274.5C 59.404,273.791 59.7373,272.791 59.5,271.5C 60.4793,270.235 61.4793,268.901 62.5,267.5C 61.6744,266.549 61.5078,265.549 62,264.5C 62.3333,264.833 62.6667,265.167 63,265.5C 63.4232,262.867 64.5899,260.701 66.5,259C 66.6952,257.765 66.6952,256.265 66.5,254.5C 67.698,254.06 68.8647,253.727 70,253.5C 70.1953,251.793 70.1953,250.126 70,248.5C 70.3333,248.833 70.6667,249.167 71,249.5C 72.3333,248.167 73.6667,246.833 75,245.5C 74.621,243.925 74.7877,242.425 75.5,241C 77.366,242.008 78.6993,241.508 79.5,239.5C 80.1667,239.5 80.5,239.167 80.5,238.5C 81.9473,236.597 83.614,234.93 85.5,233.5C 87.3818,232.779 87.7152,231.779 86.5,230.5C 87.9937,229.67 89.6603,228.67 91.5,227.5C 90.5653,224.94 91.3987,224.274 94,225.5C 95.3333,222.833 97.3333,220.833 100,219.5C 102.021,220.236 103.521,219.403 104.5,217C 105.448,216.517 106.448,216.351 107.5,216.5C 107.117,213.538 108.117,212.538 110.5,213.5C 111.197,211.615 112.197,211.282 113.5,212.5C 114.739,212.058 115.739,211.391 116.5,210.5C 117.167,210.5 117.5,210.167 117.5,209.5C 121.848,206.854 126.848,204.687 132.5,203C 131.549,202.282 131.383,201.449 132,200.5C 134.098,200.815 136.098,200.815 138,200.5C 139.205,199.929 140.372,199.262 141.5,198.5C 140.494,197.604 140.494,196.938 141.5,196.5C 143.609,196.282 145.776,196.282 148,196.5C 149.011,196.108 149.511,195.441 149.5,194.5C 151.62,196.009 153.287,195.676 154.5,193.5C 157.655,193.01 160.655,192.344 163.5,191.5C 167.83,191.432 171.663,190.099 175,187.5C 175.333,188.167 175.667,188.833 176,189.5C 178.74,188.718 181.574,188.218 184.5,188C 186.223,187.477 187.556,186.477 188.5,185C 187.776,175.772 185.609,166.939 182,158.5C 174.285,149.029 164.785,146.196 153.5,150C 148.346,155.344 147.18,161.511 150,168.5C 151.697,170.699 153.197,173.032 154.5,175.5C 154.023,176.478 153.357,177.311 152.5,178C 153.798,180.395 152.965,181.562 150,181.5C 138.438,177.598 131.438,169.598 129,157.5C 127.797,133.37 139.297,121.87 163.5,123C 179.118,125.782 188.784,134.949 192.5,150.5C 196.933,135.601 206.933,127.268 222.5,125.5C 233.185,125.257 241.351,129.59 247,138.5C 250.052,146.758 252.219,155.258 253.5,164C 252.829,166.897 251.829,169.23 250.5,171C 249.365,171.749 248.365,171.583 247.5,170.5C 242.684,161.52 236.017,154.354 227.5,149C 221.839,148.157 216.839,149.657 212.5,153.5C 202.279,162.279 196.612,173.279 195.5,186.5C 214.555,186.119 233.555,186.953 252.5,189C 254.715,189.69 256.882,190.524 259,191.5C 260.226,191.355 261.393,191.022 262.5,190.5C 263.696,190.846 263.696,191.346 262.5,192C 264.518,192.505 266.518,193.005 268.5,193.5 Z M 152.5,128.5 C 172.578,127.422 184.078,136.755 187,156.5C 178.836,145.774 168.002,141.274 154.5,143C 143.436,149.656 140.436,158.989 145.5,171C 141.48,169.648 138.646,166.814 137,162.5C 131.632,146.242 136.799,134.908 152.5,128.5 Z M 217.5,130.5 C 237.187,130.688 247.021,140.688 247,160.5C 233.486,138.733 218.153,137.4 201,156.5C 199.695,160.099 197.695,162.433 195,163.5C 195.092,147.281 202.592,136.281 217.5,130.5 Z M 294.5,221.5 C 295.791,221.263 296.791,221.596 297.5,222.5C 299.124,222.36 300.29,223.027 301,224.5C 302.159,223.434 302.992,223.767 303.5,225.5C 306.62,226.803 308.62,228.636 309.5,231C 312.125,230.12 314.458,230.787 316.5,233C 314.071,233.451 313.904,234.285 316,235.5C 316.333,235.167 316.667,234.833 317,234.5C 320.48,236.635 323.98,238.802 327.5,241C 326.167,241.667 326.167,242.333 327.5,243C 328.448,243.483 329.448,243.649 330.5,243.5C 330.513,246.361 331.679,247.361 334,246.5C 334.852,247.571 335.685,248.571 336.5,249.5C 336.833,250.833 337.167,250.833 337.5,249.5C 338.41,251.019 339.243,252.685 340,254.5C 342.715,254.537 344.382,256.203 345,259.5C 346.395,258.185 347.395,258.519 348,260.5C 348.333,259.833 348.667,259.167 349,258.5C 349.2,260.32 350.034,261.653 351.5,262.5C 351.947,265.524 352.78,265.857 354,263.5C 355.976,264.543 356.476,265.877 355.5,267.5C 356.498,270.028 357.331,270.028 358,267.5C 359.045,268.373 359.878,269.373 360.5,270.5C 359.287,271.497 359.454,272.497 361,273.5C 361.464,272.906 361.631,272.239 361.5,271.5C 362.721,272.028 363.887,272.695 365,273.5C 365.692,274.437 365.525,275.103 364.5,275.5C 364.369,276.376 364.702,277.043 365.5,277.5C 368.167,276.167 368.833,276.833 367.5,279.5C 368.498,282.028 369.331,282.028 370,279.5C 371.406,281.744 373.239,283.41 375.5,284.5C 377.986,285.462 377.986,286.295 375.5,287C 379.428,287.554 380.761,289.554 379.5,293C 380.5,293.333 381.5,293.667 382.5,294C 382.167,294.333 381.833,294.667 381.5,295C 382.416,295.278 383.082,295.778 383.5,296.5C 384.302,297.952 384.802,299.618 385,301.5C 385.995,302.066 386.828,302.733 387.5,303.5C 386.167,303.833 386.167,304.167 387.5,304.5C 388.736,307.722 390.57,311.055 393,314.5C 393.333,314.167 393.667,313.833 394,313.5C 395.766,315.596 397.099,317.929 398,320.5C 398.667,321.833 399.333,321.833 400,320.5C 401.626,321.955 402.792,323.622 403.5,325.5C 404.313,326.653 405.313,326.653 406.5,325.5C 408.213,325.879 409.213,326.879 409.5,328.5C 410.222,328.918 410.722,329.584 411,330.5C 411.853,328.397 413.02,328.397 414.5,330.5C 417.207,331.835 419.874,333.169 422.5,334.5C 423.978,334.238 425.311,334.571 426.5,335.5C 425.494,336.396 425.494,337.062 426.5,337.5C 427.768,336.572 429.101,336.405 430.5,337C 429.304,337.654 429.304,338.154 430.5,338.5C 438.088,338.441 445.755,338.108 453.5,337.5C 454.542,336.209 455.708,336.209 457,337.5C 457.617,336.551 457.451,335.718 456.5,335C 459.366,333.724 462.2,333.557 465,334.5C 465.492,333.451 465.326,332.451 464.5,331.5C 465.689,330.571 467.022,330.238 468.5,330.5C 471.002,327.425 474.002,325.758 477.5,325.5C 477.94,324.302 478.273,323.135 478.5,322C 479.951,322.263 481.284,322.096 482.5,321.5C 481.712,319.671 482.212,318.004 484,316.5C 484.914,317.654 485.747,317.487 486.5,316C 486.167,315.667 485.833,315.333 485.5,315C 486.751,311.156 488.751,307.823 491.5,305C 491.167,304.667 490.833,304.333 490.5,304C 491.071,301.389 491.904,298.889 493,296.5C 493.375,291.799 493.542,287.299 493.5,283C 490.833,282.333 488.167,281.667 485.5,281C 486.451,280.282 486.617,279.449 486,278.5C 484.795,277.929 483.628,277.262 482.5,276.5C 482.709,275.914 483.043,275.414 483.5,275C 482.269,273.595 480.936,272.429 479.5,271.5C 477.86,266.051 475.527,260.884 472.5,256C 472.5,251 472.5,246 472.5,241C 473.919,238.326 474.919,235.826 475.5,233.5C 475.833,232.833 476.167,232.167 476.5,231.5C 477.239,231.631 477.906,231.464 478.5,231C 477.549,230.282 477.383,229.449 478,228.5C 480.058,229.109 480.891,230.109 480.5,231.5C 481.451,230.674 482.451,230.508 483.5,231C 488.129,233.905 492.296,237.405 496,241.5C 497.379,245.458 498.879,249.291 500.5,253C 499.572,253.388 498.905,254.055 498.5,255C 499.671,257.678 500.338,260.511 500.5,263.5C 499.891,267.755 499.891,271.588 500.5,275C 501.549,275.492 502.549,275.326 503.5,274.5C 504.192,275.025 504.692,275.692 505,276.5C 507.041,275.577 509.208,275.244 511.5,275.5C 511.599,272.361 512.932,270.027 515.5,268.5C 521.723,267.164 528.056,267.331 534.5,269C 533.549,269.718 533.383,270.551 534,271.5C 535.292,270.209 536.458,270.209 537.5,271.5C 539.564,271.687 541.564,272.187 543.5,273C 542.398,275.391 543.064,275.891 545.5,274.5C 546.711,275.274 546.711,276.107 545.5,277C 546.549,277.492 547.549,277.326 548.5,276.5C 549.472,278.636 551.139,279.803 553.5,280C 555.891,281.309 555.891,282.309 553.5,283C 554.244,284.039 555.244,284.539 556.5,284.5C 556.833,285.833 557.167,285.833 557.5,284.5C 560.636,285.093 561.802,286.76 561,289.5C 563.391,288.398 563.891,289.064 562.5,291.5C 566.227,293.609 567.894,296.943 567.5,301.5C 562.27,300.457 557.27,298.79 552.5,296.5C 551.914,296.709 551.414,297.043 551,297.5C 546.732,296.86 542.565,296.193 538.5,295.5C 532.732,296.514 527.066,296.847 521.5,296.5C 520.01,298.28 518.01,298.946 515.5,298.5C 514.432,299.434 513.099,299.768 511.5,299.5C 510.811,300.774 509.977,300.774 509,299.5C 508.517,300.448 508.351,301.448 508.5,302.5C 506.194,302.993 503.861,303.326 501.5,303.5C 501.657,306.344 500.324,308.011 497.5,308.5C 496.4,311.016 494.733,312.016 492.5,311.5C 493.421,313.031 493.088,314.365 491.5,315.5C 490.811,314.226 489.977,314.226 489,315.5C 489.308,319.517 487.474,322.517 483.5,324.5C 483.833,325.167 484.167,325.833 484.5,326.5C 483.528,328.305 482.361,329.972 481,331.5C 480.667,331.167 480.333,330.833 480,330.5C 480.311,331.935 480.145,333.268 479.5,334.5C 478.302,334.94 477.135,335.273 476,335.5C 475.308,336.437 475.475,337.103 476.5,337.5C 475.9,338.9 474.9,339.9 473.5,340.5C 471.895,341.006 471.561,341.673 472.5,342.5C 471.5,343.5 470.5,344.5 469.5,345.5C 469.218,346.778 468.551,347.778 467.5,348.5C 464.833,348.833 464.833,349.167 467.5,349.5C 467.316,352.173 466.149,352.84 464,351.5C 462.383,352.539 461.217,353.539 460.5,354.5C 460.607,356.379 460.107,356.712 459,355.5C 458.722,356.416 458.222,357.082 457.5,357.5C 456.811,358.774 455.977,358.774 455,357.5C 454.764,359.119 453.931,360.119 452.5,360.5C 451.486,361.674 450.153,362.34 448.5,362.5C 447.895,364.026 446.729,365.026 445,365.5C 443.237,365.694 441.403,365.694 439.5,365.5C 439.331,366.397 438.998,367.397 438.5,368.5C 437.167,369.833 435.833,369.833 434.5,368.5C 433.167,369.833 431.833,371.167 430.5,372.5C 422.345,375.869 414.345,379.536 406.5,383.5C 399.191,387.142 391.525,390.309 383.5,393C 378.115,393.214 372.781,393.714 367.5,394.5C 336.328,394.787 304.494,394.787 272,394.5C 264.75,396.092 257.416,397.092 250,397.5C 249.667,396.833 249.333,396.167 249,395.5C 242.196,397.151 235.196,398.151 228,398.5C 227,398.167 226,397.833 225,397.5C 215.082,398.407 205.249,399.073 195.5,399.5C 194.279,400.465 192.946,400.298 191.5,399C 186.667,398.833 181.833,398.667 177,398.5C 155.266,398.692 133.6,398.692 112,398.5C 107.557,397.745 103.057,397.078 98.5,396.5C 96.3921,396.742 94.2254,397.076 92,397.5C 89.8155,397.302 88.3155,396.302 87.5,394.5C 85.0882,394.306 84.0882,392.973 84.5,390.5C 83.1266,390.657 81.7932,390.49 80.5,390C 77.9435,384.654 74.6101,380.154 70.5,376.5C 70.1667,375.167 69.8333,375.167 69.5,376.5C 67.5665,374.762 67.2331,372.929 68.5,371C 76.9506,364.767 86.1173,359.934 96,356.5C 106.697,359.933 116.53,365.099 125.5,372C 130.371,372.45 132.037,370.284 130.5,365.5C 122.555,359.129 113.888,353.962 104.5,350C 99.8333,349.333 95.1667,349.333 90.5,350C 81.1952,353.831 72.5286,358.665 64.5,364.5C 63.5,363.167 62.5,363.167 61.5,364.5C 60.1375,362.988 59.8042,361.488 60.5,360C 57.5527,359.925 56.5527,358.758 57.5,356.5C 55.8829,355.411 55.0496,353.744 55,351.5C 54.3333,342.833 54.3333,334.167 55,325.5C 55.6543,326.696 56.1543,326.696 56.5,325.5C 54.998,318.848 55.6647,312.514 58.5,306.5C 59.1365,302.493 60.4699,298.493 62.5,294.5C 62.7989,291.987 64.1322,289.82 66.5,288C 65.4829,286.951 65.3162,285.784 66,284.5C 66.3333,284.833 66.6667,285.167 67,285.5C 67.1992,283.598 68.0325,282.098 69.5,281C 68.3281,279.132 68.4947,277.298 70,275.5C 72.1293,276.863 72.6293,276.529 71.5,274.5C 72.1805,272.111 73.0138,269.778 74,267.5C 76.1293,268.863 76.6293,268.529 75.5,266.5C 76.0253,265.808 76.6919,265.308 77.5,265C 76.3281,263.132 76.4947,261.298 78,259.5C 80.3909,260.602 80.8909,259.936 79.5,257.5C 80.7277,255.679 82.3944,254.679 84.5,254.5C 84.3573,252.738 84.6906,251.071 85.5,249.5C 88.1506,247.35 90.6506,245.017 93,242.5C 94.313,243.287 95.4797,242.954 96.5,241.5C 97.5,239.833 98.8333,238.5 100.5,237.5C 101.833,237.167 101.833,236.833 100.5,236.5C 100.973,235.094 101.973,234.427 103.5,234.5C 104.268,231.438 106.268,229.772 109.5,229.5C 112.057,226.208 115.391,223.874 119.5,222.5C 121.383,223.042 123.049,222.375 124.5,220.5C 125.078,218.557 126.078,218.223 127.5,219.5C 127.968,217.659 129.634,216.659 132.5,216.5C 132.47,215.503 132.97,214.836 134,214.5C 138.788,213.356 143.288,211.522 147.5,209C 149.5,208.667 151.5,208.333 153.5,208C 153.167,207.667 152.833,207.333 152.5,207C 157.292,205.079 162.125,204.579 167,205.5C 167.617,204.551 167.451,203.718 166.5,203C 168.441,202.257 170.274,202.424 172,203.5C 173.353,202.296 175.019,201.629 177,201.5C 192.103,199.338 207.27,198.505 222.5,199C 224.277,201.152 225.777,200.985 227,198.5C 227.969,201.717 229.636,201.717 232,198.5C 236.274,200.199 240.774,201.532 245.5,202.5C 246.086,202.291 246.586,201.957 247,201.5C 248.734,202.249 250.567,202.749 252.5,203C 251.549,203.718 251.383,204.551 252,205.5C 254.838,204.325 257.671,204.491 260.5,206C 259.304,206.654 259.304,207.154 260.5,207.5C 264.201,205.912 267.035,206.912 269,210.5C 272.941,209.325 275.941,210.658 278,214.5C 279.902,215.497 282.069,215.497 284.5,214.5C 284.351,215.552 284.517,216.552 285,217.5C 286.016,216.366 286.683,216.699 287,218.5C 289.432,217.55 291.932,217.55 294.5,218.5C 294.5,219.5 294.5,220.5 294.5,221.5 Z M 138.5,298.5 C 138.167,298.5 137.833,298.5 137.5,298.5C 136.032,297.221 135.365,295.554 135.5,293.5C 136.822,293.67 137.989,293.337 139,292.5C 141.096,293.715 140.929,294.549 138.5,295C 142.223,296.039 142.223,297.206 138.5,298.5 Z M 137.5,298.5 C 137.833,299.833 138.167,299.833 138.5,298.5C 140.048,298.821 140.715,299.821 140.5,301.5C 138.284,301.725 136.617,300.892 135.5,299C 136.094,298.536 136.761,298.369 137.5,298.5 Z M 293.5,406.5 C 289.03,407.486 284.363,407.819 279.5,407.5C 271.801,409.756 263.801,410.922 255.5,411C 242.376,411.239 229.543,411.739 217,412.5C 215.215,411.76 213.382,411.093 211.5,410.5C 210.304,410.846 210.304,411.346 211.5,412C 193.26,412.174 175.093,412.674 157,413.5C 154.043,411.923 151.376,412.256 149,414.5C 147.921,412.606 146.587,412.273 145,413.5C 141.589,412.707 138.089,412.207 134.5,412C 135.696,411.346 135.696,410.846 134.5,410.5C 131.897,411.562 129.23,411.728 126.5,411C 127.696,410.346 127.696,409.846 126.5,409.5C 121.621,410.316 116.788,410.649 112,410.5C 106.844,408.976 102.677,406.809 99.5,404C 100,403.833 100.5,403.667 101,403.5C 109.559,403.72 118.226,404.387 127,405.5C 131.218,405.47 135.385,405.136 139.5,404.5C 139.998,405.603 140.331,406.603 140.5,407.5C 167.264,406.547 194.264,406.214 221.5,406.5C 223.823,407.234 225.99,406.568 228,404.5C 233.921,405.033 239.588,405.366 245,405.5C 245.75,404.874 246.584,404.374 247.5,404C 270.268,402.631 293.268,402.298 316.5,403C 315.579,404.756 314.412,404.923 313,403.5C 306.482,404.666 299.982,405.666 293.5,406.5 Z M 312.5,412.5 C 310.695,414.197 308.361,415.03 305.5,415C 296.196,416.067 286.862,416.567 277.5,416.5C 281.395,415.775 285.395,415.109 289.5,414.5C 293.298,413.517 297.298,413.183 301.5,413.5C 304.563,412.799 307.73,412.132 311,411.5C 311.383,412.056 311.883,412.389 312.5,412.5 Z M 277.5,416.5 C 277.389,417.117 277.056,417.617 276.5,418C 266.5,418.667 256.5,418.667 246.5,418C 257.051,417.4 267.385,416.9 277.5,416.5 Z"/></g>
<g><path style="opacity:0.004" fill="#000000" d="M 163.5,191.5 C 162.833,190.167 162.833,190.167 163.5,191.5 Z"/></g>
<g><path style="opacity:0.004" fill="#000000" d="M 154.5,193.5 C 153.833,192.167 153.833,192.167 154.5,193.5 Z"/></g>
<g><path style="opacity:0.004" fill="#000000" d="M 268.5,193.5 C 268.897,192.475 269.563,192.308 270.5,193C 269.906,193.464 269.239,193.631 268.5,193.5 Z"/></g>
<g><path style="opacity:0.004" fill="#000000" d="M 290.5,200.5 C 291.833,201.167 291.833,201.167 290.5,200.5 Z"/></g>
<g><path style="opacity:0.005" fill="#000000" d="M 117.5,209.5 C 116.833,209.5 116.5,209.833 116.5,210.5C 115.287,209.503 115.454,208.503 117,207.5C 117.464,208.094 117.631,208.761 117.5,209.5 Z"/></g>
<g><path style="opacity:0.004" fill="#000000" d="M 468.5,217.5 C 467.833,218.167 467.833,218.167 468.5,217.5 Z"/></g>
<g><path style="opacity:0.004" fill="#000000" d="M 488.5,218.5 C 489.833,219.167 489.833,219.167 488.5,218.5 Z"/></g>
<g><path style="opacity:0.004" fill="#000000" d="M 465.5,221.5 C 464.833,220.167 464.833,220.167 465.5,221.5 Z"/></g>
<g><path style="opacity:0.004" fill="#000000" d="M 464.5,223.5 C 463.833,222.167 463.833,222.167 464.5,223.5 Z"/></g>
<g><path style="opacity:0.004" fill="#000000" d="M 303.5,225.5 C 303.489,228.001 302.822,228.168 301.5,226C 302.094,225.536 302.761,225.369 303.5,225.5 Z"/></g>
<g><path style="opacity:0.004" fill="#000000" d="M 502.5,226.5 C 501.833,225.167 501.833,225.167 502.5,226.5 Z"/></g>
<g><path style="opacity:0.004" fill="#000000" d="M 502.5,226.5 C 503.833,227.167 503.833,227.167 502.5,226.5 Z"/></g>
<g><path style="opacity:0.004" fill="#000000" d="M 86.5,230.5 C 85.8333,231.167 85.8333,231.167 86.5,230.5 Z"/></g>
<g><path style="opacity:0.004" fill="#000000" d="M 339.5,230.5 C 340.833,231.167 340.833,231.167 339.5,230.5 Z"/></g>
<g><path style="opacity:0.004" fill="#000000" d="M 506.5,230.5 C 507.833,231.167 507.833,231.167 506.5,230.5 Z"/></g>
<g><path style="opacity:0.004" fill="#000000" d="M 85.5,233.5 C 84.7611,233.631 84.0944,233.464 83.5,233C 84.4368,232.308 85.1034,232.475 85.5,233.5 Z"/></g>
<g><path style="opacity:0.004" fill="#000000" d="M 340.5,232.5 C 341.833,233.167 341.833,233.167 340.5,232.5 Z"/></g>
<g><path style="opacity:0.004" fill="#000000" d="M 81.5,233.5 C 82.8333,234.167 82.8333,234.167 81.5,233.5 Z"/></g>
<g><path style="opacity:0.004" fill="#000000" d="M 344.5,234.5 C 343.833,233.167 343.833,233.167 344.5,234.5 Z"/></g>
<g><path style="opacity:0.004" fill="#000000" d="M 507.5,233.5 C 508.833,234.167 508.833,234.167 507.5,233.5 Z"/></g>
<g><path style="opacity:0.004" fill="#000000" d="M 344.5,234.5 C 345.833,235.167 345.833,235.167 344.5,234.5 Z"/></g>
<g><path style="opacity:0.004" fill="#000000" d="M 345.5,236.5 C 346.833,237.167 346.833,237.167 345.5,236.5 Z"/></g>
<g><path style="opacity:0.007" fill="#000000" d="M 80.5,238.5 C 79.8333,238.5 79.5,238.833 79.5,239.5C 77.0248,239.253 77.0248,238.587 79.5,237.5C 80.1067,237.624 80.44,237.957 80.5,238.5 Z"/></g>
<g><path style="opacity:0.008" fill="#000000" d="M 348.5,238.5 C 347.833,237.167 347.833,237.167 348.5,238.5 Z"/></g>
<g><path style="opacity:0.004" fill="#000000" d="M 348.5,238.5 C 349.833,239.167 349.833,239.167 348.5,238.5 Z"/></g>
<g><path style="opacity:0.004" fill="#000000" d="M 510.5,238.5 C 511.833,239.167 511.833,239.167 510.5,238.5 Z"/></g>
<g><path style="opacity:0.004" fill="#000000" d="M 511.5,240.5 C 512.833,241.167 512.833,241.167 511.5,240.5 Z"/></g>
<g><path style="opacity:0.004" fill="#000000" d="M 352.5,242.5 C 351.833,241.167 351.833,241.167 352.5,242.5 Z"/></g>
<g><path style="opacity:0.004" fill="#000000" d="M 352.5,242.5 C 353.833,243.167 353.833,243.167 352.5,242.5 Z"/></g>
<g><path style="opacity:0.004" fill="#000000" d="M 71.5,244.5 C 72.8333,245.167 72.8333,245.167 71.5,244.5 Z"/></g>
<g><path style="opacity:0.004" fill="#000000" d="M 355.5,245.5 C 356.833,246.167 356.833,246.167 355.5,245.5 Z"/></g>
<g><path style="opacity:0.004" fill="#000000" d="M 70.5,246.5 C 71.8333,247.167 71.8333,247.167 70.5,246.5 Z"/></g>
<g><path style="opacity:0.004" fill="#000000" d="M 357.5,246.5 C 358.833,247.167 358.833,247.167 357.5,246.5 Z"/></g>
<g><path style="opacity:0.004" fill="#000000" d="M 513.5,249.5 C 514.833,250.167 514.833,250.167 513.5,249.5 Z"/></g>
<g><path style="opacity:0.004" fill="#000000" d="M 361.5,250.5 C 362.833,251.167 362.833,251.167 361.5,250.5 Z"/></g>
<g><path style="opacity:0.004" fill="#000000" d="M 63.5,257.5 C 64.8333,258.167 64.8333,258.167 63.5,257.5 Z"/></g>
<g><path style="opacity:0.559" fill="#000000" d="M 143.5,275.5 C 142.209,275.263 141.209,275.596 140.5,276.5C 138.219,276.077 136.552,276.744 135.5,278.5C 127.993,278.406 121.326,276.073 115.5,271.5C 115.5,272.167 115.5,272.833 115.5,273.5C 114.167,272.833 113.167,271.833 112.5,270.5C 111.589,268.084 110.589,265.584 109.5,263C 109.666,260.836 110.833,259.669 113,259.5C 115.305,259.484 116.972,260.484 118,262.5C 118.333,262.167 118.667,261.833 119,261.5C 120.188,262.563 120.688,263.897 120.5,265.5C 122.199,265.527 123.533,266.194 124.5,267.5C 125.172,268.267 126.005,268.934 127,269.5C 128.13,268.886 129.463,268.886 131,269.5C 132.326,269.245 133.326,268.578 134,267.5C 134.333,268.167 134.667,268.833 135,269.5C 136.729,269.026 137.895,268.026 138.5,266.5C 139.995,266.011 141.329,265.345 142.5,264.5C 143.91,262.542 144.577,260.542 144.5,258.5C 145.086,258.709 145.586,259.043 146,259.5C 148.228,257.887 150.728,257.22 153.5,257.5C 153.74,260.579 153.407,263.579 152.5,266.5C 151.343,269.141 149.009,271.308 145.5,273C 146.641,273.741 146.641,274.575 145.5,275.5C 144.743,276.773 144.077,276.773 143.5,275.5 Z"/></g>
<g><path style="opacity:0.004" fill="#000000" d="M 142.5,264.5 C 140.972,264.483 140.472,263.816 141,262.5C 141.717,263.044 142.217,263.711 142.5,264.5 Z"/></g>
<g><path style="opacity:0.004" fill="#000000" d="M 461.5,267.5 C 460.833,268.167 460.833,268.167 461.5,267.5 Z"/></g>
<g><path style="opacity:0.004" fill="#000000" d="M 59.5,271.5 C 58.8333,270.167 58.8333,270.167 59.5,271.5 Z"/></g>
<g><path style="opacity:0.005" fill="#000000" d="M 360.5,270.5 C 360.5,271.167 360.833,271.5 361.5,271.5C 361.631,272.239 361.464,272.906 361,273.5C 359.454,272.497 359.287,271.497 360.5,270.5 Z"/></g>
<g><path style="opacity:0.004" fill="#000000" d="M 464.5,273.5 C 463.833,272.167 463.833,272.167 464.5,273.5 Z"/></g>
<g><path style="opacity:0.004" fill="#000000" d="M 58.5,274.5 C 57.8333,273.167 57.8333,273.167 58.5,274.5 Z"/></g>
<g><path style="opacity:0.004" fill="#000000" d="M 464.5,273.5 C 464.833,273.5 465.167,273.5 465.5,273.5C 465.167,276.167 464.833,276.167 464.5,273.5 Z"/></g>
<g><path style="opacity:0.004" fill="#000000" d="M 569.5,275.5 C 570.833,276.167 570.833,276.167 569.5,275.5 Z"/></g>
<g><path style="opacity:0.006" fill="#000000" d="M 468.5,277.5 C 468.631,278.239 468.464,278.906 468,279.5C 467.308,278.563 467.475,277.897 468.5,277.5 Z"/></g>
<g><path style="opacity:0.004" fill="#000000" d="M 386.5,278.5 C 387.833,279.167 387.833,279.167 386.5,278.5 Z"/></g>
<g><path style="opacity:0.004" fill="#000000" d="M 55.5,280.5 C 54.8333,279.167 54.8333,279.167 55.5,280.5 Z"/></g>
<g><path style="opacity:0.004" fill="#000000" d="M 575.5,279.5 C 576.833,280.167 576.833,280.167 575.5,279.5 Z"/></g>
<g><path style="opacity:0.004" fill="#000000" d="M 468.5,280.5 C 469.833,281.167 469.833,281.167 468.5,280.5 Z"/></g>
<g><path style="opacity:0.004" fill="#000000" d="M 390.5,283.5 C 389.833,282.167 389.833,282.167 390.5,283.5 Z"/></g>
<g><path style="opacity:0.625" fill="#000000" d="M 151.5,298.5 C 149.603,300.698 148.603,303.364 148.5,306.5C 147.448,306.351 146.448,306.517 145.5,307C 146.711,307.893 146.711,308.726 145.5,309.5C 140.758,310.462 135.924,310.462 131,309.5C 130.383,308.551 130.549,307.718 131.5,307C 130.062,306.781 128.729,306.281 127.5,305.5C 128.705,304.005 128.705,302.672 127.5,301.5C 127.715,299.821 127.048,298.821 125.5,298.5C 126.367,294.776 127.534,291.109 129,287.5C 131.245,284.093 134.412,282.76 138.5,283.5C 141.454,283.291 144.121,283.958 146.5,285.5C 148.627,289.693 150.294,294.026 151.5,298.5 Z M 138.5,298.5 C 138.167,298.5 137.833,298.5 137.5,298.5C 136.032,297.221 135.365,295.554 135.5,293.5C 136.822,293.67 137.989,293.337 139,292.5C 141.096,293.715 140.929,294.549 138.5,295C 142.223,296.039 142.223,297.206 138.5,298.5 Z M 137.5,298.5 C 137.833,299.833 138.167,299.833 138.5,298.5C 140.048,298.821 140.715,299.821 140.5,301.5C 138.284,301.725 136.617,300.892 135.5,299C 136.094,298.536 136.761,298.369 137.5,298.5 Z"/></g>
<g><path style="opacity:0.004" fill="#000000" d="M 390.5,283.5 C 391.833,284.167 391.833,284.167 390.5,283.5 Z"/></g>
<g><path style="opacity:0.008" fill="#000000" d="M 472.5,284.5 C 471.833,283.167 471.833,283.167 472.5,284.5 Z"/></g>
<g><path style="opacity:0.004" fill="#000000" d="M 577.5,283.5 C 578.833,284.167 578.833,284.167 577.5,283.5 Z"/></g>
<g><path style="opacity:0.008" fill="#000000" d="M 472.5,284.5 C 472.833,284.5 473.167,284.5 473.5,284.5C 473.315,285.17 472.981,285.17 472.5,284.5 Z"/></g>
<g><path style="opacity:0.004" fill="#000000" d="M 51.5,286.5 C 52.8333,287.167 52.8333,287.167 51.5,286.5 Z"/></g>
<g><path style="opacity:0.004" fill="#000000" d="M 475.5,287.5 C 474.833,286.167 474.833,286.167 475.5,287.5 Z"/></g>
<g><path style="opacity:0.004" fill="#000000" d="M 393.5,287.5 C 394.833,288.167 394.833,288.167 393.5,287.5 Z"/></g>
<g><path style="opacity:0.007" fill="#000000" d="M 475.5,287.5 C 476.167,287.5 476.833,287.5 477.5,287.5C 478.167,287.5 478.5,287.833 478.5,288.5C 477.221,289.715 476.221,289.382 475.5,287.5 Z"/></g>
<g><path style="opacity:0.004" fill="#000000" d="M 579.5,287.5 C 580.833,288.167 580.833,288.167 579.5,287.5 Z"/></g>
<g><path style="opacity:0.004" fill="#000000" d="M 580.5,290.5 C 581.833,291.167 581.833,291.167 580.5,290.5 Z"/></g>
<g><path style="opacity:0.004" fill="#000000" d="M 395.5,293.5 C 396.833,294.167 396.833,294.167 395.5,293.5 Z"/></g>
<g><path style="opacity:0.004" fill="#000000" d="M 477.5,294.5 C 476.833,293.167 476.833,293.167 477.5,294.5 Z"/></g>
<g><path style="opacity:0.004" fill="#000000" d="M 398.5,295.5 C 397.833,294.167 397.833,294.167 398.5,295.5 Z"/></g>
<g><path style="opacity:0.004" fill="#000000" d="M 398.5,295.5 C 399.833,296.167 399.833,296.167 398.5,295.5 Z"/></g>
<g><path style="opacity:0.004" fill="#000000" d="M 399.5,298.5 C 400.833,299.167 400.833,299.167 399.5,298.5 Z"/></g>
<g><path style="opacity:0.004" fill="#000000" d="M 473.5,303.5 C 474.167,302.167 474.833,302.167 475.5,303.5C 474.833,303.5 474.167,303.5 473.5,303.5 Z"/></g>
<g><path style="opacity:0.004" fill="#000000" d="M 47.5,304.5 C 46.8333,303.167 46.8333,303.167 47.5,304.5 Z"/></g>
<g><path style="opacity:0.005" fill="#000000" d="M 403.5,306.5 C 402.833,306.5 402.5,306.167 402.5,305.5C 402.747,303.025 403.413,303.025 404.5,305.5C 404.376,306.107 404.043,306.44 403.5,306.5 Z"/></g>
<g><path style="opacity:0.004" fill="#000000" d="M 473.5,303.5 C 472.833,304.167 472.833,304.167 473.5,303.5 Z"/></g>
<g><path style="opacity:0.004" fill="#000000" d="M 530.5,306.5 C 531.833,307.167 531.833,307.167 530.5,306.5 Z"/></g>
<g><path style="opacity:0.004" fill="#000000" d="M 534.5,306.5 C 535.833,307.167 535.833,307.167 534.5,306.5 Z"/></g>
<g><path style="opacity:0.004" fill="#000000" d="M 406.5,307.5 C 407.833,308.167 407.833,308.167 406.5,307.5 Z"/></g>
<g><path style="opacity:0.004" fill="#000000" d="M 522.5,307.5 C 522.833,307.5 523.167,307.5 523.5,307.5C 523.167,310.167 522.833,310.167 522.5,307.5 Z"/></g>
<g><path style="opacity:0.004" fill="#000000" d="M 468.5,312.5 C 465.999,312.489 465.832,311.822 468,310.5C 468.464,311.094 468.631,311.761 468.5,312.5 Z"/></g>
<g><path style="opacity:0.004" fill="#000000" d="M 513.5,310.5 C 514.833,311.167 514.833,311.167 513.5,310.5 Z"/></g>
<g><path style="opacity:0.004" fill="#000000" d="M 511.5,311.5 C 512.833,312.167 512.833,312.167 511.5,311.5 Z"/></g>
<g><path style="opacity:0.004" fill="#000000" d="M 464.5,312.5 C 465.833,313.167 465.833,313.167 464.5,312.5 Z"/></g>
<g><path style="opacity:0.004" fill="#000000" d="M 576.5,314.5 C 575.833,315.167 575.833,315.167 576.5,314.5 Z"/></g>
<g><path style="opacity:0.004" fill="#000000" d="M 461.5,316.5 C 460.833,315.167 460.833,315.167 461.5,316.5 Z"/></g>
<g><path style="opacity:0.004" fill="#000000" d="M 499.5,321.5 C 499.833,321.5 500.167,321.5 500.5,321.5C 500.315,322.17 499.981,322.17 499.5,321.5 Z"/></g>
<g><path style="opacity:0.715" fill="#000000" d="M 220.5,336.5 C 223.85,336.335 227.183,336.502 230.5,337C 232.116,337.615 233.449,338.615 234.5,340C 231.463,345.908 228.296,351.741 225,357.5C 217.725,366.776 208.558,369.443 197.5,365.5C 194.511,362.018 194.844,359.018 198.5,356.5C 202.768,357.685 206.935,358.352 211,358.5C 212.708,356.457 214.708,354.79 217,353.5C 222.699,346.515 221.365,344.181 213,346.5C 208.79,346.356 204.624,345.856 200.5,345C 199.018,342.408 199.352,340.075 201.5,338C 204.38,337.316 207.213,337.483 210,338.5C 213.654,337.938 217.154,337.271 220.5,336.5 Z"/></g>
<g><path style="opacity:0.004" fill="#000000" d="M 487.5,341.5 C 488.833,342.167 488.833,342.167 487.5,341.5 Z"/></g>
<g><path style="opacity:0.004" fill="#000000" d="M 481.5,350.5 C 481.5,350.167 481.5,349.833 481.5,349.5C 484.167,349.833 484.167,350.167 481.5,350.5 Z"/></g>
<g><path style="opacity:0.004" fill="#000000" d="M 479.5,352.5 C 480.833,353.167 480.833,353.167 479.5,352.5 Z"/></g>
<g><path style="opacity:0.004" fill="#000000" d="M 475.5,356.5 C 476.833,357.167 476.833,357.167 475.5,356.5 Z"/></g>
<g><path style="opacity:0.004" fill="#000000" d="M 472.5,360.5 C 473.833,361.167 473.833,361.167 472.5,360.5 Z"/></g>
<g><path style="opacity:0.004" fill="#000000" d="M 468.5,364.5 C 467.833,365.167 467.833,365.167 468.5,364.5 Z"/></g>
<g><path style="opacity:0.004" fill="#000000" d="M 465.5,365.5 C 466.833,366.167 466.833,366.167 465.5,365.5 Z"/></g>
<g><path style="opacity:0.004" fill="#000000" d="M 461.5,368.5 C 462.833,369.167 462.833,369.167 461.5,368.5 Z"/></g>
<g><path style="opacity:0.004" fill="#000000" d="M 52.5,369.5 C 51.8333,370.167 51.8333,370.167 52.5,369.5 Z"/></g>
<g><path style="opacity:0.004" fill="#000000" d="M 460.5,369.5 C 460.833,369.5 461.167,369.5 461.5,369.5C 461.289,371.424 460.623,371.757 459.5,370.5C 460.167,370.5 460.5,370.167 460.5,369.5 Z"/></g>
<g><path style="opacity:0.004" fill="#000000" d="M 455.5,372.5 C 456.525,372.897 456.692,373.563 456,374.5C 455.536,373.906 455.369,373.239 455.5,372.5 Z"/></g>
<g><path style="opacity:0.004" fill="#000000" d="M 440.5,380.5 C 441.525,380.897 441.692,381.563 441,382.5C 440.023,383.774 439.189,383.774 438.5,382.5C 439.167,382.5 439.5,382.167 439.5,381.5C 440.167,381.5 440.5,381.167 440.5,380.5 Z"/></g>
<g><path style="opacity:0.004" fill="#000000" d="M 60.5,381.5 C 60.4891,384.001 59.8224,384.168 58.5,382C 59.0944,381.536 59.7611,381.369 60.5,381.5 Z"/></g>
<g><path style="opacity:0.005" fill="#000000" d="M 63.5,385.5 C 64.1667,385.5 64.5,385.833 64.5,386.5C 63.9467,388.657 62.9467,388.49 61.5,386C 62.0944,385.536 62.7611,385.369 63.5,385.5 Z"/></g>
<g><path style="opacity:0.004" fill="#000000" d="M 426.5,387.5 C 427.833,388.167 427.833,388.167 426.5,387.5 Z"/></g>
<g><path style="opacity:0.004" fill="#000000" d="M 65.5,389.5 C 66.8333,390.167 66.8333,390.167 65.5,389.5 Z"/></g>
<g><path style="opacity:0.004" fill="#000000" d="M 421.5,390.5 C 422.833,391.167 422.833,391.167 421.5,390.5 Z"/></g>
<g><path style="opacity:0.004" fill="#000000" d="M 66.5,391.5 C 67.8333,392.167 67.8333,392.167 66.5,391.5 Z"/></g>
<g><path style="opacity:0.004" fill="#000000" d="M 417.5,391.5 C 418.833,392.167 418.833,392.167 417.5,391.5 Z"/></g>
<g><path style="opacity:0.004" fill="#000000" d="M 67.5,393.5 C 68.8333,394.167 68.8333,394.167 67.5,393.5 Z"/></g>
<g><path style="opacity:0.004" fill="#000000" d="M 414.5,393.5 C 415.833,394.167 415.833,394.167 414.5,393.5 Z"/></g>
<g><path style="opacity:0.004" fill="#000000" d="M 413.5,394.5 C 413.833,394.5 414.167,394.5 414.5,394.5C 414.315,395.17 413.981,395.17 413.5,394.5 Z"/></g>
<g><path style="opacity:0.004" fill="#000000" d="M 409.5,395.5 C 410.833,396.167 410.833,396.167 409.5,395.5 Z"/></g>
<g><path style="opacity:0.004" fill="#000000" d="M 71.5,397.5 C 72.8333,398.167 72.8333,398.167 71.5,397.5 Z"/></g>
<g><path style="opacity:0.006" fill="#000000" d="M 75.5,398.5 C 76.1667,398.5 76.5,398.833 76.5,399.5C 75.5029,400.713 74.5029,400.546 73.5,399C 74.0944,398.536 74.7611,398.369 75.5,398.5 Z"/></g>
<g><path style="opacity:0.008" fill="#000000" d="M 402.5,398.5 C 403.833,399.167 403.833,399.167 402.5,398.5 Z"/></g>
<g><path style="opacity:0.008" fill="#000000" d="M 399.5,399.5 C 400.833,400.167 400.833,400.167 399.5,399.5 Z"/></g>
<g><path style="opacity:0.004" fill="#000000" d="M 77.5,402.5 C 78.8333,403.167 78.8333,403.167 77.5,402.5 Z"/></g>
<g><path style="opacity:0.004" fill="#000000" d="M 395.5,402.5 C 396.833,403.167 396.833,403.167 395.5,402.5 Z"/></g>
<g><path style="opacity:0.006" fill="#000000" d="M 81.5,403.5 C 81.1034,404.525 80.4368,404.692 79.5,404C 80.0944,403.536 80.7611,403.369 81.5,403.5 Z"/></g>
<g><path style="opacity:0.004" fill="#000000" d="M 393.5,403.5 C 394.833,404.167 394.833,404.167 393.5,403.5 Z"/></g>
<g><path style="opacity:0.004" fill="#000000" d="M 82.5,406.5 C 81.8333,405.167 81.8333,405.167 82.5,406.5 Z"/></g>
<g><path style="opacity:0.004" fill="#000000" d="M 389.5,405.5 C 390.833,406.167 390.833,406.167 389.5,405.5 Z"/></g>
<g><path style="opacity:0.004" fill="#000000" d="M 82.5,406.5 C 83.1667,406.5 83.8333,406.5 84.5,406.5C 84.2144,408.933 83.5477,408.933 82.5,406.5 Z"/></g>
<g><path style="opacity:0.004" fill="#000000" d="M 385.5,406.5 C 386.239,406.369 386.906,406.536 387.5,407C 386.563,407.692 385.897,407.525 385.5,406.5 Z"/></g>
<g><path style="opacity:0.004" fill="#000000" d="M 93.5,413.5 C 92.8333,414.167 92.8333,414.167 93.5,413.5 Z"/></g>
<g><path style="opacity:0.004" fill="#000000" d="M 364.5,413.5 C 365.833,414.167 365.833,414.167 364.5,413.5 Z"/></g>
<g><path style="opacity:0.004" fill="#000000" d="M 327.5,421.5 C 328.833,422.167 328.833,422.167 327.5,421.5 Z"/></g>
<g><path style="opacity:0.016" fill="#000000" d="M 149.5,437.5 C 154.992,439.717 154.658,441.051 148.5,441.5C 148.433,440.041 148.766,438.708 149.5,437.5 Z"/></g>
<g><path style="opacity:0.004" fill="#000000" d="M 141.5,447.5 C 142.776,448.386 142.776,449.386 141.5,450.5C 140.438,449.575 140.438,448.575 141.5,447.5 Z"/></g>
</svg>
