<?xml version="1.0" encoding="UTF-8"?>
<!DOCTYPE svg PUBLIC "-//W3C//DTD SVG 1.1//EN" "http://www.w3.org/Graphics/SVG/1.1/DTD/svg11.dtd">
<svg xmlns="http://www.w3.org/2000/svg" version="1.1" width="611px" height="611px" style="shape-rendering:geometricPrecision; text-rendering:geometricPrecision; image-rendering:optimizeQuality; fill-rule:evenodd; clip-rule:evenodd" xmlns:xlink="http://www.w3.org/1999/xlink">
<g><path style="opacity:0.701" fill="#000000" d="M 240.5,184.5 C 241.568,185.434 242.901,185.768 244.5,185.5C 245.828,187.745 247.661,188.078 250,186.5C 251.739,188.318 253.906,189.318 256.5,189.5C 258.895,191.48 261.729,192.813 265,193.5C 266.162,192.813 267.328,192.647 268.5,193C 267.378,194.613 267.878,195.78 270,196.5C 271.587,195.273 272.921,195.606 274,197.5C 274.333,196.833 274.667,196.167 275,195.5C 277.014,197.845 279.347,199.845 282,201.5C 282.333,200.833 282.667,200.167 283,199.5C 283.72,201.056 284.887,202.056 286.5,202.5C 287.688,203.364 288.855,204.364 290,205.5C 290.333,204.833 290.667,204.167 291,203.5C 291.11,206.646 292.443,207.646 295,206.5C 296.449,207.614 297.783,208.614 299,209.5C 299.333,209.167 299.667,208.833 300,208.5C 300.11,211.646 301.443,212.646 304,211.5C 304.853,213.125 305.853,213.458 307,212.5C 308.487,213.253 308.654,214.086 307.5,215C 309.345,216.128 311.345,216.628 313.5,216.5C 313.354,218.942 314.187,219.609 316,218.5C 319.114,221.495 322.614,223.995 326.5,226C 325.742,227.364 326.242,228.531 328,229.5C 328.333,229.167 328.667,228.833 329,228.5C 330.922,232.757 334.089,235.59 338.5,237C 338.043,237.414 337.709,237.914 337.5,238.5C 338.76,239.382 339.926,240.382 341,241.5C 341.333,241.167 341.667,240.833 342,240.5C 342.075,243.447 343.242,244.447 345.5,243.5C 346.713,246.553 348.88,248.887 352,250.5C 352.333,250.167 352.667,249.833 353,249.5C 353.934,250.858 354.768,252.192 355.5,253.5C 356.189,254.774 357.023,254.774 358,253.5C 358.219,254.938 358.719,256.271 359.5,257.5C 360.086,257.291 360.586,256.957 361,256.5C 363.716,261.556 367.216,266.056 371.5,270C 371.167,270.333 370.833,270.667 370.5,271C 372.98,272.91 374.647,275.41 375.5,278.5C 375.957,279.298 376.624,279.631 377.5,279.5C 377.369,280.239 377.536,280.906 378,281.5C 379.302,282.085 380.469,282.751 381.5,283.5C 380.761,283.369 380.094,283.536 379.5,284C 380.551,285.385 381.884,286.385 383.5,287C 382.185,288.395 382.519,289.395 384.5,290C 384.167,290.333 383.833,290.667 383.5,291C 385.662,292.645 386.995,294.812 387.5,297.5C 388.914,298.624 390.414,299.624 392,300.5C 392.492,301.549 392.326,302.549 391.5,303.5C 393.297,305.449 395.297,307.116 397.5,308.5C 397.5,309.167 397.833,309.5 398.5,309.5C 399.688,310.364 400.855,311.364 402,312.5C 402.333,311.833 402.667,311.167 403,310.5C 403.318,312.061 404.151,313.228 405.5,314C 407.218,314.346 408.885,314.846 410.5,315.5C 411.803,314.282 412.803,314.615 413.5,316.5C 414.086,316.291 414.586,315.957 415,315.5C 415.833,317 417,318.167 418.5,319C 423.91,319.383 429.577,319.716 435.5,320C 437.878,319.489 440.212,318.822 442.5,318C 441.289,317.107 441.289,316.274 442.5,315.5C 443.773,315.746 444.94,315.746 446,315.5C 448.721,314.046 450.554,312.379 451.5,310.5C 453.123,311.476 454.457,310.976 455.5,309C 455.167,308.667 454.833,308.333 454.5,308C 455.872,307.369 457.205,306.702 458.5,306C 458.355,305.228 458.022,304.561 457.5,304C 459.081,303.293 460.581,302.46 462,301.5C 462.692,300.563 462.525,299.897 461.5,299.5C 464.172,297.146 465.506,294.146 465.5,290.5C 469.274,287.569 469.107,284.902 465,282.5C 464.536,283.094 464.369,283.761 464.5,284.5C 463.5,283.167 462.5,281.833 461.5,280.5C 460.252,278.351 458.752,276.351 457,274.5C 456.667,274.833 456.333,275.167 456,275.5C 455.138,273.913 454.471,272.246 454,270.5C 453.667,270.833 453.333,271.167 453,271.5C 452.617,266.508 450.451,262.508 446.5,259.5C 447.235,255.069 446.568,250.736 444.5,246.5C 446.64,242.089 446.973,237.589 445.5,233C 447.072,230.962 448.072,228.629 448.5,226C 448.167,225.667 447.833,225.333 447.5,225C 448.448,224.517 449.448,224.351 450.5,224.5C 450.474,221.292 451.474,219.292 453.5,218.5C 453.291,217.914 452.957,217.414 452.5,217C 453.833,216.333 455.167,215.667 456.5,215C 455.216,213.703 455.383,212.536 457,211.5C 461.63,211.344 466.63,211.344 472,211.5C 473.097,213.053 474.43,214.386 476,215.5C 476.333,215.167 476.667,214.833 477,214.5C 478.53,215.92 480.363,216.92 482.5,217.5C 482.291,218.086 481.957,218.586 481.5,219C 482.766,219.309 483.933,219.809 485,220.5C 485.333,220.167 485.667,219.833 486,219.5C 487.956,222.787 490.79,224.954 494.5,226C 494.167,226.333 493.833,226.667 493.5,227C 494.085,228.302 494.751,229.469 495.5,230.5C 496.468,233.1 497.801,235.434 499.5,237.5C 499.008,241.457 499.675,245.123 501.5,248.5C 500.975,249.192 500.308,249.692 499.5,250C 500.973,250.71 501.64,251.876 501.5,253.5C 505.866,252.103 510.366,251.103 515,250.5C 514.923,251.738 515.089,252.738 515.5,253.5C 516.622,252.37 517.956,251.703 519.5,251.5C 524.696,253.522 530.029,255.689 535.5,258C 537.699,259.697 540.032,261.197 542.5,262.5C 543.167,262.167 543.833,261.833 544.5,261.5C 544.94,262.698 545.273,263.865 545.5,265C 546.549,265.492 547.549,265.326 548.5,264.5C 549.345,266.762 550.678,267.429 552.5,266.5C 552.94,267.698 553.273,268.865 553.5,270C 554.784,270.684 555.951,270.517 557,269.5C 557.617,270.449 557.451,271.282 556.5,272C 559.2,273.011 561.533,274.511 563.5,276.5C 564.209,280.635 565.875,284.302 568.5,287.5C 570.418,294.428 570.751,301.428 569.5,308.5C 567.598,310.151 565.598,310.484 563.5,309.5C 561.941,310.074 560.441,310.74 559,311.5C 552.984,308.856 546.984,306.189 541,303.5C 540.667,303.833 540.333,304.167 540,304.5C 534.685,304.003 530.185,303.003 526.5,301.5C 524.955,301.511 523.622,301.844 522.5,302.5C 520.965,301.646 519.632,301.646 518.5,302.5C 516.283,303.369 513.95,303.702 511.5,303.5C 511.167,302.167 510.833,302.167 510.5,303.5C 507.281,304.783 503.948,305.617 500.5,306C 499.672,306.915 498.672,307.581 497.5,308C 497.833,308.333 498.167,308.667 498.5,309C 497.167,309.333 495.833,309.667 494.5,310C 495.336,311.243 495.003,312.41 493.5,313.5C 492.011,313.533 490.678,314.033 489.5,315C 489.957,315.414 490.291,315.914 490.5,316.5C 489.167,317.167 487.833,317.833 486.5,318.5C 487.893,321.602 487.06,322.602 484,321.5C 483.626,322.416 483.126,323.25 482.5,324C 482.5,325.667 482.5,327.333 482.5,329C 481.551,329.617 480.718,329.451 480,328.5C 478.154,331.173 477.154,333.839 477,336.5C 476.667,335.833 476.333,335.167 476,334.5C 474.559,337.047 474.059,339.547 474.5,342C 473.551,342.617 472.718,342.451 472,341.5C 471.338,342.984 470.504,344.317 469.5,345.5C 468.833,345.5 468.5,345.833 468.5,346.5C 467.026,347.436 466.026,348.77 465.5,350.5C 462.513,350.948 461.513,352.448 462.5,355C 459.832,357.664 456.832,359.83 453.5,361.5C 452.216,362.557 450.883,363.557 449.5,364.5C 448.833,364.5 448.5,364.833 448.5,365.5C 447.833,365.5 447.5,365.833 447.5,366.5C 445.958,367.301 444.292,367.634 442.5,367.5C 442.5,368.5 442.5,369.5 442.5,370.5C 438.442,371.254 435.109,372.42 432.5,374C 431.965,376.109 430.965,376.609 429.5,375.5C 428.757,376.908 427.923,378.241 427,379.5C 424.983,379.075 423.149,379.075 421.5,379.5C 420.749,380.376 420.249,381.376 420,382.5C 417.81,381.416 416.144,382.083 415,384.5C 413.951,383.483 412.784,383.316 411.5,384C 404.465,388.221 397.132,391.721 389.5,394.5C 388.761,394.369 388.094,394.536 387.5,395C 388.34,396.666 387.84,396.833 386,395.5C 384.583,396.078 383.75,397.078 383.5,398.5C 379.525,398.486 376.192,399.819 373.5,402.5C 372.448,402.351 371.448,402.517 370.5,403C 371.696,403.654 371.696,404.154 370.5,404.5C 368.689,403.264 366.856,403.264 365,404.5C 363.902,405.384 363.402,406.384 363.5,407.5C 361.275,406.899 359.109,406.566 357,406.5C 352.237,408.456 347.403,410.29 342.5,412C 333.86,414.293 324.527,416.126 314.5,417.5C 304.825,419.412 294.492,421.079 283.5,422.5C 277.691,422.851 272.024,423.851 266.5,425.5C 233.031,424.594 199.698,424.761 166.5,426C 167.451,426.718 167.617,427.551 167,428.5C 164.333,425.833 161.667,425.833 159,428.5C 156.888,427.777 154.888,426.777 153,425.5C 152.894,426.794 151.894,427.461 150,427.5C 142.196,425.752 134.196,424.752 126,424.5C 121.738,426.35 118.738,425.35 117,421.5C 116.296,423.727 115.129,424.06 113.5,422.5C 111.172,421.282 108.672,420.282 106,419.5C 105.586,419.957 105.086,420.291 104.5,420.5C 102.885,419.846 101.218,419.346 99.5,419C 99.8333,418.667 100.167,418.333 100.5,418C 96.0542,416.576 92.3875,415.076 89.5,413.5C 87.337,412.531 85.0037,411.698 82.5,411C 82.8333,410.667 83.1667,410.333 83.5,410C 76.8518,405.722 70.1851,400.556 63.5,394.5C 63.5,393.833 63.1667,393.5 62.5,393.5C 61.7455,391.534 60.5788,391.2 59,392.5C 57.3831,391.464 57.2164,390.297 58.5,389C 57.0257,387.684 55.359,386.684 53.5,386C 54.566,384.841 54.2327,384.008 52.5,383.5C 52.1667,382.167 51.8333,382.167 51.5,383.5C 49.7673,382.992 49.434,382.159 50.5,381C 49.8742,380.25 49.3742,379.416 49,378.5C 48.0862,379.654 47.2529,379.487 46.5,378C 46.8333,377.667 47.1667,377.333 47.5,377C 46.5,376.167 45.5,375.333 44.5,374.5C 45.4604,373.188 45.2937,371.854 44,370.5C 43.0862,371.654 42.2529,371.487 41.5,370C 41.8333,369.667 42.1667,369.333 42.5,369C 41.4752,366.929 40.6419,364.762 40,362.5C 39.0862,363.654 38.2529,363.487 37.5,362C 38.8146,360.605 38.4812,359.605 36.5,359C 36.8541,357.374 36.8541,355.541 36.5,353.5C 33.6095,353.583 32.9429,352.083 34.5,349C 34.3248,347.342 33.6582,346.009 32.5,345C 33.1667,344.667 33.8333,344.333 34.5,344C 33.1286,339.476 32.462,334.809 32.5,330C 32.8372,322.778 33.5039,315.611 34.5,308.5C 34.0111,305.886 34.3445,303.22 35.5,300.5C 36.3173,298.169 36.9839,295.669 37.5,293C 37.3552,292.228 37.0219,291.561 36.5,291C 38.5922,290.047 38.9255,288.714 37.5,287C 38.448,286.517 39.448,286.351 40.5,286.5C 40.5,285.5 40.5,284.5 40.5,283.5C 43.9188,274.932 47.5854,266.265 51.5,257.5C 53.1286,255.142 54.2952,252.476 55,249.5C 56,249.5 57,249.5 58,249.5C 58.1953,247.793 58.1953,246.126 58,244.5C 58.3333,244.833 58.6667,245.167 59,245.5C 60.3333,244.167 61.6667,242.833 63,241.5C 63.6838,240.216 63.5171,239.049 62.5,238C 63.7155,235.904 64.5488,236.071 65,238.5C 68.5313,235.975 70.8646,232.641 72,228.5C 72.3333,228.833 72.6667,229.167 73,229.5C 75.1781,228.107 76.1781,226.44 76,224.5C 77.2433,225.336 78.4099,225.003 79.5,223.5C 78.1451,222.325 78.3117,221.325 80,220.5C 80.7175,221.451 81.5509,221.617 82.5,221C 84.3513,219.316 86.018,217.483 87.5,215.5C 89.3217,216.429 90.6551,215.762 91.5,213.5C 92.6888,212.571 94.0222,212.238 95.5,212.5C 95.3118,210.897 95.8118,209.563 97,208.5C 98.164,208.165 99.4974,208.165 101,208.5C 102.767,207.183 104.101,205.516 105,203.5C 105.561,204.022 106.228,204.355 107,204.5C 111.196,201.989 115.696,200.156 120.5,199C 119.134,196.562 119.634,196.062 122,197.5C 123.221,196.728 124.221,195.728 125,194.5C 125.333,195.167 125.667,195.833 126,196.5C 127.067,195.809 128.234,195.309 129.5,195C 128.549,194.282 128.383,193.449 129,192.5C 131.339,192.489 133.672,192.489 136,192.5C 137.011,192.108 137.511,191.441 137.5,190.5C 139.62,192.009 141.287,191.676 142.5,189.5C 149.885,188.696 156.885,187.03 163.5,184.5C 167.212,184.342 170.712,184.342 174,184.5C 174.827,183.338 175.66,182.171 176.5,181C 174.669,173.558 172.836,166.058 171,158.5C 165.413,147.789 156.579,142.955 144.5,144C 137.764,147.976 135.264,153.809 137,161.5C 137.816,165.135 139.65,168.135 142.5,170.5C 140.73,171.82 140.397,173.32 141.5,175C 138.938,177.858 135.938,178.191 132.5,176C 129.989,173.157 127.156,170.657 124,168.5C 111.356,151.632 113.189,136.465 129.5,123C 154.465,113.482 171.465,121.315 180.5,146.5C 184.933,131.601 194.933,123.268 210.5,121.5C 220.872,121.769 229.039,126.102 235,134.5C 238.052,142.758 240.219,151.258 241.5,160C 240.829,162.897 239.829,165.23 238.5,167C 237.365,167.749 236.365,167.583 235.5,166.5C 230.373,158.875 224.373,152.041 217.5,146C 211.153,143.506 205.486,144.672 200.5,149.5C 190.273,158.29 184.606,169.29 183.5,182.5C 202.537,182.285 221.537,182.952 240.5,184.5 Z M 140.5,124.5 C 151.633,123.375 160.8,127.042 168,135.5C 170.966,141.421 173.299,147.421 175,153.5C 167.156,141.995 156.322,137.162 142.5,139C 131.436,145.656 128.436,154.989 133.5,167C 129.48,165.648 126.646,162.814 125,158.5C 119.632,142.242 124.799,130.908 140.5,124.5 Z M 205.5,126.5 C 220.099,125.762 229.432,132.428 233.5,146.5C 234.468,149.826 234.968,153.159 235,156.5C 230.811,151.313 226.311,146.48 221.5,142C 214.086,137.657 206.753,137.99 199.5,143C 192.904,147.594 187.738,153.427 184,160.5C 182.774,143.969 189.94,132.636 205.5,126.5 Z M 298.5,226.5 C 301.089,226.461 303.089,227.461 304.5,229.5C 307.397,230.43 309.73,232.097 311.5,234.5C 312.683,235.504 314.016,236.338 315.5,237C 314.167,237.667 314.167,238.333 315.5,239C 316.448,239.483 317.448,239.649 318.5,239.5C 318.5,240.5 318.5,241.5 318.5,242.5C 319.833,242.5 321.167,242.5 322.5,242.5C 322.354,244.942 323.187,245.609 325,244.5C 326.487,245.253 326.654,246.086 325.5,247C 327.059,249.364 329.225,250.864 332,251.5C 332.333,252.833 332.667,254.167 333,255.5C 336.058,255.574 338.391,257.24 340,260.5C 340.333,260.167 340.667,259.833 341,259.5C 342.626,260.955 343.792,262.622 344.5,264.5C 344.833,265.833 345.167,265.833 345.5,264.5C 346.857,265.59 347.857,266.924 348.5,268.5C 348.369,267.761 348.536,267.094 349,266.5C 350.145,267.636 351.312,268.636 352.5,269.5C 351.167,270.167 351.167,270.833 352.5,271.5C 352.369,272.239 352.536,272.906 353,273.5C 354.183,272.269 355.349,272.269 356.5,273.5C 355.089,275.017 355.256,276.351 357,277.5C 357.333,276.833 357.667,276.167 358,275.5C 360.179,278.011 362.679,280.178 365.5,282C 364.833,282.333 364.167,282.667 363.5,283C 367.069,283.847 368.402,285.847 367.5,289C 368.449,289.617 369.282,289.451 370,288.5C 371.118,290.765 371.951,293.099 372.5,295.5C 371.167,295.833 371.167,296.167 372.5,296.5C 373.936,297.429 375.269,298.595 376.5,300C 377.03,301.256 377.03,302.756 376.5,304.5C 376.846,305.696 377.346,305.696 378,304.5C 377.734,307.901 379.234,309.567 382.5,309.5C 383.704,311.734 384.87,314.067 386,316.5C 388.887,316.71 390.72,318.543 391.5,322C 394.816,321.564 397.316,323.064 399,326.5C 399.414,326.043 399.914,325.709 400.5,325.5C 401.176,326.602 401.842,327.602 402.5,328.5C 402.369,327.761 402.536,327.094 403,326.5C 404.57,327.614 405.903,328.947 407,330.5C 407.853,328.397 409.02,328.397 410.5,330.5C 411.873,330.343 413.207,330.51 414.5,331C 413.134,333.438 413.634,333.938 416,332.5C 416.945,332.905 417.612,333.572 418,334.5C 422.119,333.341 426.286,333.341 430.5,334.5C 434.034,333.207 437.701,333.207 441.5,334.5C 442.696,334.154 442.696,333.654 441.5,333C 442.951,333.263 444.284,333.096 445.5,332.5C 445.291,331.914 444.957,331.414 444.5,331C 447.366,329.724 450.2,329.557 453,330.5C 453.492,329.451 453.326,328.451 452.5,327.5C 453.689,326.571 455.022,326.238 456.5,326.5C 458.234,323.8 460.568,321.8 463.5,320.5C 463.369,321.239 463.536,321.906 464,322.5C 465.617,321.149 466.784,319.482 467.5,317.5C 470.06,318.435 470.726,317.601 469.5,315C 470.891,313.98 472.391,313.147 474,312.5C 474.198,310.618 474.698,308.952 475.5,307.5C 476.449,305.102 477.783,302.936 479.5,301C 479.167,300.667 478.833,300.333 478.5,300C 479.123,297.393 479.79,294.893 480.5,292.5C 481.441,287.93 481.774,283.263 481.5,278.5C 478.784,278.322 476.117,277.822 473.5,277C 474.694,274.342 473.694,273.176 470.5,273.5C 470.657,272.127 470.49,270.793 470,269.5C 469.333,268.167 468.667,268.167 468,269.5C 467.536,268.906 467.369,268.239 467.5,267.5C 466.599,266.71 465.932,265.71 465.5,264.5C 465.758,261.776 465.092,259.776 463.5,258.5C 462.25,258.423 461.417,257.756 461,256.5C 459.041,248.175 459.041,239.842 461,231.5C 461.417,230.244 462.25,229.577 463.5,229.5C 463.263,228.209 463.596,227.209 464.5,226.5C 464.351,225.448 464.517,224.448 465,223.5C 466.145,224.636 467.312,225.636 468.5,226.5C 471.675,228.13 475.009,229.63 478.5,231C 479.823,231.816 480.489,232.983 480.5,234.5C 483.682,236.193 485.348,238.859 485.5,242.5C 486.074,244.788 487.074,246.955 488.5,249C 487.572,249.388 486.905,250.055 486.5,251C 487.671,253.678 488.338,256.511 488.5,259.5C 487.891,263.755 487.891,267.588 488.5,271C 489.549,271.492 490.549,271.326 491.5,270.5C 491.833,271.167 492.167,271.833 492.5,272.5C 494.747,271.626 497.08,271.292 499.5,271.5C 499.682,268.392 501.016,265.892 503.5,264C 509.891,263.242 516.224,263.576 522.5,265C 521.549,265.718 521.383,266.551 522,267.5C 523.292,266.209 524.458,266.209 525.5,267.5C 526.222,267.918 526.722,268.584 527,269.5C 527.333,268.833 527.667,268.167 528,267.5C 529.067,268.191 530.234,268.691 531.5,269C 530.549,269.718 530.383,270.551 531,271.5C 532.049,270.483 533.216,270.316 534.5,271C 533.134,273.438 533.634,273.938 536,272.5C 537.3,274.459 539.133,275.626 541.5,276C 543.891,277.309 543.891,278.309 541.5,279C 542.876,281.543 544.043,281.709 545,279.5C 546.771,280.304 548.271,281.471 549.5,283C 548.944,283.383 548.611,283.883 548.5,284.5C 551.718,284.651 552.051,285.484 549.5,287C 550.536,288.617 551.703,288.784 553,287.5C 555.015,290.592 555.848,293.925 555.5,297.5C 550.27,296.457 545.27,294.79 540.5,292.5C 539.914,292.709 539.414,293.043 539,293.5C 534.732,292.86 530.565,292.193 526.5,291.5C 521.28,292.031 516.113,292.697 511,293.5C 509.092,290.668 508.259,291.001 508.5,294.5C 506.833,294.5 505.167,294.5 503.5,294.5C 502.432,295.434 501.099,295.768 499.5,295.5C 498.352,296.164 497.019,296.331 495.5,296C 496.993,297.156 496.826,297.99 495,298.5C 493.234,299.233 491.401,299.567 489.5,299.5C 489.67,300.822 489.337,301.989 488.5,303C 486.376,304.122 484.543,305.622 483,307.5C 481.703,306.216 480.536,306.383 479.5,308C 480.167,308.333 480.833,308.667 481.5,309C 480.837,310.518 479.837,311.685 478.5,312.5C 477.947,310.343 476.947,310.51 475.5,313C 476.094,313.464 476.761,313.631 477.5,313.5C 476.509,316.145 475.009,318.478 473,320.5C 472.667,320.167 472.333,319.833 472,319.5C 471.508,320.549 471.674,321.549 472.5,322.5C 472.121,324.213 471.121,325.213 469.5,325.5C 469.631,326.239 469.464,326.906 469,327.5C 468.346,326.304 467.846,326.304 467.5,327.5C 468.833,328.5 468.833,329.5 467.5,330.5C 466.302,330.94 465.135,331.273 464,331.5C 463.308,332.437 463.475,333.103 464.5,333.5C 463.517,334.85 462.184,335.85 460.5,336.5C 459.359,337.425 459.359,338.259 460.5,339C 459.309,339.698 458.309,340.531 457.5,341.5C 456.167,342.833 454.833,344.167 453.5,345.5C 452.167,345.833 452.167,346.167 453.5,346.5C 450.913,347.478 449.246,348.811 448.5,350.5C 448.631,351.239 448.464,351.906 448,352.5C 447.023,351.226 446.189,351.226 445.5,352.5C 444.508,352.328 443.842,352.662 443.5,353.5C 442.146,356.36 439.813,358.026 436.5,358.5C 435.387,360.757 433.721,361.424 431.5,360.5C 430.833,361.167 430.167,361.833 429.5,362.5C 427.162,360.989 426.496,361.323 427.5,363.5C 426.225,365.189 424.892,365.522 423.5,364.5C 406.993,374.076 389.659,382.243 371.5,389C 364.16,389.467 356.993,389.967 350,390.5C 349.333,387.833 348.667,387.833 348,390.5C 347,390.167 346,389.833 345,389.5C 328.241,390.326 311.407,390.826 294.5,391C 294,391.5 293.5,392 293,392.5C 288.082,391.195 282.915,390.529 277.5,390.5C 271.656,390.89 265.99,390.89 260.5,390.5C 259.692,390.808 259.025,391.308 258.5,392C 251.586,392.186 244.753,392.686 238,393.5C 237.667,392.833 237.333,392.167 237,391.5C 230.196,393.151 223.196,394.151 216,394.5C 215,394.167 214,393.833 213,393.5C 202.803,394.415 192.97,395.081 183.5,395.5C 183.44,396.043 183.107,396.376 182.5,396.5C 181.312,395.16 179.812,394.493 178,394.5C 151.947,394.517 125.947,394.517 100,394.5C 95.5574,393.745 91.0574,393.078 86.5,392.5C 82.9513,393.456 79.2846,393.289 75.5,392C 76.6537,391.086 76.487,390.253 75,389.5C 74.6667,389.833 74.3333,390.167 74,390.5C 73,388.833 72,387.167 71,385.5C 70.2825,386.451 69.4491,386.617 68.5,386C 65.5632,380.364 62.2298,375.864 58.5,372.5C 57.8333,371.167 57.1667,371.167 56.5,372.5C 55.3263,371.486 54.6596,370.153 54.5,368.5C 52.5544,367.965 51.5544,366.632 51.5,364.5C 50.5655,363.432 50.2322,362.099 50.5,360.5C 49.5,360.5 48.5,360.5 47.5,360.5C 47.4506,357.901 46.4506,355.734 44.5,354C 45.056,353.617 45.3893,353.117 45.5,352.5C 52.3152,355.476 59.4819,358.809 67,362.5C 68.8114,361.922 70.6447,361.422 72.5,361C 81.3496,353.49 90.5163,346.324 100,339.5C 101.539,335.195 100.206,332.528 96,331.5C 93.851,332.299 91.6843,333.133 89.5,334C 82.0074,339.994 74.674,346.161 67.5,352.5C 67.5479,349.708 66.2146,347.875 63.5,347C 60.4786,346.327 57.4786,345.993 54.5,346C 56.3325,346.748 57.9991,347.748 59.5,349C 58.8333,349.167 58.1667,349.333 57.5,349.5C 54.3686,347.008 51.0353,345.008 47.5,343.5C 45.8297,343.249 44.3297,342.582 43,341.5C 42.3333,334.833 42.3333,328.167 43,321.5C 43.6543,322.696 44.1543,322.696 44.5,321.5C 42.998,314.848 43.6647,308.514 46.5,302.5C 46.933,295.54 48.933,289.207 52.5,283.5C 52.2852,281.821 52.9519,280.821 54.5,280.5C 56,278.605 56.6666,275.938 56.5,272.5C 57.2739,271.289 58.1072,271.289 59,272.5C 59.2949,270.069 60.4616,268.236 62.5,267C 60.3143,266.396 60.1476,265.23 62,263.5C 62.3333,263.833 62.6667,264.167 63,264.5C 63.8476,261.44 64.8476,258.44 66,255.5C 67.1313,256.604 67.9646,256.271 68.5,254.5C 68.2907,253.914 67.9574,253.414 67.5,253C 68.9003,251.562 70.567,250.729 72.5,250.5C 72.7097,246.185 74.7097,243.185 78.5,241.5C 81.7335,239.856 84.4002,237.523 86.5,234.5C 89.1667,234.167 89.1667,233.833 86.5,233.5C 87.5846,231.413 89.2512,230.08 91.5,229.5C 92.5077,227.661 94.0077,226.328 96,225.5C 96.4512,227.929 97.2845,228.096 98.5,226C 98.0426,225.586 97.7093,225.086 97.5,224.5C 101.043,221.27 105.043,218.936 109.5,217.5C 109.369,216.761 109.536,216.094 110,215.5C 110.671,216.252 111.504,216.586 112.5,216.5C 112.5,215.167 113.167,214.5 114.5,214.5C 118.251,211.627 122.251,209.96 126.5,209.5C 134.346,205.499 142.68,202.499 151.5,200.5C 152.772,200.57 153.938,200.903 155,201.5C 155.617,200.551 155.451,199.718 154.5,199C 156.441,198.257 158.274,198.424 160,199.5C 161.688,197.955 163.688,196.955 166,196.5C 167.398,197.051 168.732,197.384 170,197.5C 183.222,194.712 196.722,193.879 210.5,195C 212.277,197.152 213.777,196.985 215,194.5C 215.333,195.5 215.667,196.5 216,197.5C 217.906,196.869 219.906,196.536 222,196.5C 228.386,197.392 234.553,198.225 240.5,199C 239.549,199.718 239.383,200.551 240,201.5C 243.249,199.883 245.916,200.549 248,203.5C 251.732,201.743 254.399,202.743 256,206.5C 260.28,204.986 263.446,206.32 265.5,210.5C 267.881,209.667 270.214,210 272.5,211.5C 274.35,212.242 275.016,213.242 274.5,214.5C 276.684,215.25 279.017,215.25 281.5,214.5C 281.343,215.873 281.51,217.207 282,218.5C 282.414,218.043 282.914,217.709 283.5,217.5C 283.833,218.167 284.167,218.833 284.5,219.5C 286.548,218.917 288.381,218.917 290,219.5C 292.996,221.733 295.829,224.066 298.5,226.5 Z M 61.5,350.5 C 63.1033,350.312 64.4366,350.812 65.5,352C 63.6476,352.773 62.3143,352.273 61.5,350.5 Z M 56.5,372.5 C 57.1667,372.5 57.8333,372.5 58.5,372.5C 58.2144,374.933 57.5477,374.933 56.5,372.5 Z M 256.5,399.5 C 270.994,398.339 285.661,398.172 300.5,399C 289.626,401.103 278.626,402.603 267.5,403.5C 264.038,404.482 260.371,404.815 256.5,404.5C 252.273,405.201 247.94,406.034 243.5,407C 230.376,407.239 217.543,407.739 205,408.5C 203.215,407.76 201.382,407.093 199.5,406.5C 198.304,406.846 198.304,407.346 199.5,408C 181.26,408.174 163.093,408.674 145,409.5C 142.043,407.923 139.376,408.256 137,410.5C 136.5,410 136,409.5 135.5,409C 130.692,409.072 126.192,408.239 122,406.5C 119.063,407.817 116.23,407.817 113.5,406.5C 108.108,405.288 102.774,404.788 97.5,405C 94.4557,404.641 94.1224,403.974 96.5,403C 93.2464,402.75 90.2464,401.75 87.5,400C 96.7652,399.484 105.932,399.984 115,401.5C 119.218,401.47 123.385,401.136 127.5,400.5C 128.298,400.957 128.631,401.624 128.5,402.5C 155.604,402.2 182.771,402.534 210,403.5C 212.316,403.066 214.316,402.066 216,400.5C 221.921,401.033 227.588,401.366 233,401.5C 233.75,400.874 234.584,400.374 235.5,400C 241.748,399.812 247.915,399.312 254,398.5C 254.671,399.252 255.504,399.586 256.5,399.5 Z M 301.5,399.5 C 302.251,398.427 303.251,398.26 304.5,399C 303.648,400.728 302.648,400.895 301.5,399.5 Z M 315.5,404.5 C 324.725,404.525 324.725,405.191 315.5,406.5C 314.537,406.03 314.537,405.363 315.5,404.5 Z M 299.5,407.5 C 303.981,406.352 308.648,406.185 313.5,407C 309.232,407.326 304.899,407.826 300.5,408.5C 300.5,407.833 300.167,407.5 299.5,407.5 Z M 299.5,407.5 C 300.167,407.5 300.5,407.833 300.5,408.5C 298.695,410.197 296.361,411.03 293.5,411C 284.188,412.166 274.854,412.499 265.5,412C 276.811,410.17 288.145,408.67 299.5,407.5 Z M 253.5,412.5 C 257.075,412.455 260.741,412.788 264.5,413.5C 254.183,414.666 243.849,414.832 233.5,414C 240.346,413.828 247.013,413.328 253.5,412.5 Z"/></g>
<g><path style="opacity:0.006" fill="#000000" d="M 163.5,184.5 C 162.761,184.631 162.094,184.464 161.5,184C 162.437,183.308 163.103,183.475 163.5,184.5 Z"/></g>
<g><path style="opacity:0.004" fill="#000000" d="M 240.5,183.5 C 241.833,184.167 241.833,184.167 240.5,183.5 Z"/></g>
<g><path style="opacity:0.004" fill="#000000" d="M 244.5,184.5 C 245.833,185.167 245.833,185.167 244.5,184.5 Z"/></g>
<g><path style="opacity:0.004" fill="#000000" d="M 142.5,189.5 C 141.761,189.631 141.094,189.464 140.5,189C 141.437,188.308 142.103,188.475 142.5,189.5 Z"/></g>
<g><path style="opacity:0.004" fill="#000000" d="M 256.5,189.5 C 256.897,188.475 257.563,188.308 258.5,189C 257.906,189.464 257.239,189.631 256.5,189.5 Z"/></g>
<g><path style="opacity:0.004" fill="#000000" d="M 116.5,198.5 C 117.833,199.167 117.833,199.167 116.5,198.5 Z"/></g>
<g><path style="opacity:0.004" fill="#000000" d="M 112.5,199.5 C 113.833,200.167 113.833,200.167 112.5,199.5 Z"/></g>
<g><path style="opacity:0.004" fill="#000000" d="M 286.5,202.5 C 286.369,201.761 286.536,201.094 287,200.5C 287.692,201.437 287.525,202.103 286.5,202.5 Z"/></g>
<g><path style="opacity:0.004" fill="#000000" d="M 327.5,226.5 C 328.833,227.167 328.833,227.167 327.5,226.5 Z"/></g>
<g><path style="opacity:0.004" fill="#000000" d="M 69.5,229.5 C 70.8333,230.167 70.8333,230.167 69.5,229.5 Z"/></g>
<g><path style="opacity:0.004" fill="#000000" d="M 91.5,229.5 C 92.1667,229.5 92.8333,229.5 93.5,229.5C 92.4523,231.933 91.7856,231.933 91.5,229.5 Z"/></g>
<g><path style="opacity:0.007" fill="#000000" d="M 304.5,229.5 C 304.489,232.001 303.822,232.168 302.5,230C 303.094,229.536 303.761,229.369 304.5,229.5 Z"/></g>
<g><path style="opacity:0.004" fill="#000000" d="M 332.5,230.5 C 331.833,229.167 331.833,229.167 332.5,230.5 Z"/></g>
<g><path style="opacity:0.004" fill="#000000" d="M 495.5,229.5 C 496.833,230.167 496.833,230.167 495.5,229.5 Z"/></g>
<g><path style="opacity:0.004" fill="#000000" d="M 332.5,230.5 C 333.833,231.167 333.833,231.167 332.5,230.5 Z"/></g>
<g><path style="opacity:0.004" fill="#000000" d="M 333.5,232.5 C 334.833,233.167 334.833,233.167 333.5,232.5 Z"/></g>
<g><path style="opacity:0.008" fill="#000000" d="M 336.5,234.5 C 335.833,233.167 335.833,233.167 336.5,234.5 Z"/></g>
<g><path style="opacity:0.004" fill="#000000" d="M 65.5,234.5 C 66.8333,235.167 66.8333,235.167 65.5,234.5 Z"/></g>
<g><path style="opacity:0.004" fill="#000000" d="M 336.5,234.5 C 337.833,235.167 337.833,235.167 336.5,234.5 Z"/></g>
<g><path style="opacity:0.004" fill="#000000" d="M 498.5,234.5 C 499.833,235.167 499.833,235.167 498.5,234.5 Z"/></g>
<g><path style="opacity:0.004" fill="#000000" d="M 499.5,236.5 C 500.833,237.167 500.833,237.167 499.5,236.5 Z"/></g>
<g><path style="opacity:0.004" fill="#000000" d="M 340.5,238.5 C 339.833,237.167 339.833,237.167 340.5,238.5 Z"/></g>
<g><path style="opacity:0.004" fill="#000000" d="M 340.5,238.5 C 341.833,239.167 341.833,239.167 340.5,238.5 Z"/></g>
<g><path style="opacity:0.004" fill="#000000" d="M 59.5,240.5 C 60.8333,241.167 60.8333,241.167 59.5,240.5 Z"/></g>
<g><path style="opacity:0.008" fill="#000000" d="M 343.5,241.5 C 344.833,242.167 344.833,242.167 343.5,241.5 Z"/></g>
<g><path style="opacity:0.008" fill="#000000" d="M 58.5,242.5 C 59.8333,243.167 59.8333,243.167 58.5,242.5 Z"/></g>
<g><path style="opacity:0.004" fill="#000000" d="M 345.5,242.5 C 346.833,243.167 346.833,243.167 345.5,242.5 Z"/></g>
<g><path style="opacity:0.008" fill="#000000" d="M 349.5,246.5 C 348.833,245.167 348.833,245.167 349.5,246.5 Z"/></g>
<g><path style="opacity:0.581" fill="#000000" d="M 142.5,263.5 C 138.538,257.442 133.038,255.442 126,257.5C 125.692,256.692 125.192,256.025 124.5,255.5C 123.575,256.641 122.741,256.641 122,255.5C 119.585,256.132 117.418,257.132 115.5,258.5C 114.571,259.936 113.405,261.269 112,262.5C 111.333,261.167 110.667,261.167 110,262.5C 109.667,263.5 109.333,264.5 109,265.5C 107.333,264.167 105.667,264.167 104,265.5C 102.46,263.045 102.126,260.379 103,257.5C 103.667,258.833 104.333,258.833 105,257.5C 105.125,254.711 105.958,253.045 107.5,252.5C 109.411,252.426 110.578,251.426 111,249.5C 112.716,250.552 113.716,249.886 114,247.5C 115.011,248.337 116.178,248.67 117.5,248.5C 117.369,247.761 117.536,247.094 118,246.5C 123.751,247.31 129.584,247.81 135.5,248C 137.789,249.248 140.123,250.415 142.5,251.5C 144.936,250.109 145.602,250.609 144.5,253C 148.688,255.162 150.688,258.662 150.5,263.5C 148.114,263.676 145.448,263.676 142.5,263.5 Z"/></g>
<g><path style="opacity:0.004" fill="#000000" d="M 349.5,246.5 C 350.833,247.167 350.833,247.167 349.5,246.5 Z"/></g>
<g><path style="opacity:0.004" fill="#000000" d="M 519.5,250.5 C 520.833,251.167 520.833,251.167 519.5,250.5 Z"/></g>
<g><path style="opacity:0.004" fill="#000000" d="M 355.5,252.5 C 356.833,253.167 356.833,253.167 355.5,252.5 Z"/></g>
<g><path style="opacity:0.004" fill="#000000" d="M 526.5,252.5 C 527.833,253.167 527.833,253.167 526.5,252.5 Z"/></g>
<g><path style="opacity:0.004" fill="#000000" d="M 51.5,253.5 C 52.8333,254.167 52.8333,254.167 51.5,253.5 Z"/></g>
<g><path style="opacity:0.011" fill="#000000" d="M 88.5,253.5 C 92.226,253.177 95.8927,253.511 99.5,254.5C 89.6202,256.857 80.7869,261.19 73,267.5C 72.5,267 72,266.5 71.5,266C 74.8285,263.505 77.8285,260.671 80.5,257.5C 83.001,255.624 85.6677,254.291 88.5,253.5 Z"/></g>
<g><path style="opacity:0.004" fill="#000000" d="M 529.5,253.5 C 530.833,254.167 530.833,254.167 529.5,253.5 Z"/></g>
<g><path style="opacity:0.004" fill="#000000" d="M 531.5,254.5 C 532.833,255.167 532.833,255.167 531.5,254.5 Z"/></g>
<g><path style="opacity:0.004" fill="#000000" d="M 51.5,257.5 C 50.8333,256.167 50.8333,256.167 51.5,257.5 Z"/></g>
<g><path style="opacity:0.589" fill="#000000" d="M 140.5,285.5 C 138.473,285.662 136.473,285.495 134.5,285C 132.587,283.276 130.587,281.776 128.5,280.5C 124.702,279.517 120.702,279.183 116.5,279.5C 116.881,281.942 116.214,282.609 114.5,281.5C 113.193,282.816 111.693,283.816 110,284.5C 109.26,282.623 108.427,281.123 107.5,280C 107.648,278.744 107.982,277.577 108.5,276.5C 109.41,274.981 110.243,273.315 111,271.5C 112.395,272.815 113.395,272.481 114,270.5C 116.853,271.558 119.853,270.892 123,268.5C 124.722,268.611 124.888,269.111 123.5,270C 126.099,270.769 128.599,270.602 131,269.5C 135.328,271.325 138.828,273.491 141.5,276C 141.043,276.414 140.709,276.914 140.5,277.5C 141.491,278.665 142.491,279.832 143.5,281C 142.271,282.386 141.271,283.886 140.5,285.5 Z"/></g>
<g><path style="opacity:0.004" fill="#000000" d="M 563.5,275.5 C 564.833,276.167 564.833,276.167 563.5,275.5 Z"/></g>
<g><path style="opacity:0.004" fill="#000000" d="M 456.5,276.5 C 457.833,277.167 457.833,277.167 456.5,276.5 Z"/></g>
<g><path style="opacity:0.025" fill="#000000" d="M 65.5,277.5 C 67.861,277.674 70.1944,278.007 72.5,278.5C 72.4048,281.272 71.0715,283.272 68.5,284.5C 64.9783,283.133 63.9783,280.8 65.5,277.5 Z"/></g>
<g><path style="opacity:0.004" fill="#000000" d="M 377.5,278.5 C 378.833,279.167 378.833,279.167 377.5,278.5 Z"/></g>
<g><path style="opacity:0.004" fill="#000000" d="M 565.5,279.5 C 566.833,280.167 566.833,280.167 565.5,279.5 Z"/></g>
<g><path style="opacity:0.005" fill="#000000" d="M 128.5,280.5 C 128.489,283.001 127.822,283.168 126.5,281C 127.094,280.536 127.761,280.369 128.5,280.5 Z"/></g>
<g><path style="opacity:0.008" fill="#000000" d="M 461.5,280.5 C 460.833,281.167 460.833,281.167 461.5,280.5 Z"/></g>
<g><path style="opacity:0.004" fill="#000000" d="M 40.5,283.5 C 39.8333,282.167 39.8333,282.167 40.5,283.5 Z"/></g>
<g><path style="opacity:0.004" fill="#000000" d="M 381.5,283.5 C 382.833,284.167 382.833,284.167 381.5,283.5 Z"/></g>
<g><path style="opacity:0.004" fill="#000000" d="M 567.5,283.5 C 568.833,284.167 568.833,284.167 567.5,283.5 Z"/></g>
<g><path style="opacity:0.012" fill="#000000" d="M 464.5,284.5 C 465.833,285.167 465.833,285.167 464.5,284.5 Z"/></g>
<g><path style="opacity:0.004" fill="#000000" d="M 568.5,286.5 C 569.833,287.167 569.833,287.167 568.5,286.5 Z"/></g>
<g><path style="opacity:0.004" fill="#000000" d="M 465.5,290.5 C 464.833,289.167 464.833,289.167 465.5,290.5 Z"/></g>
<g><path style="opacity:0.004" fill="#000000" d="M 386.5,291.5 C 385.833,290.167 385.833,290.167 386.5,291.5 Z"/></g>
<g><path style="opacity:0.004" fill="#000000" d="M 386.5,291.5 C 387.833,292.167 387.833,292.167 386.5,291.5 Z"/></g>
<g><path style="opacity:0.004" fill="#000000" d="M 387.5,294.5 C 388.833,295.167 388.833,295.167 387.5,294.5 Z"/></g>
<g><path style="opacity:0.004" fill="#000000" d="M 35.5,300.5 C 34.7611,300.631 34.0944,300.464 33.5,300C 34.4368,299.308 35.1034,299.475 35.5,300.5 Z"/></g>
<g><path style="opacity:0.004" fill="#000000" d="M 461.5,299.5 C 460.833,300.167 460.833,300.167 461.5,299.5 Z"/></g>
<g><path style="opacity:0.004" fill="#000000" d="M 518.5,302.5 C 519.833,303.167 519.833,303.167 518.5,302.5 Z"/></g>
<g><path style="opacity:0.004" fill="#000000" d="M 522.5,302.5 C 523.833,303.167 523.833,303.167 522.5,302.5 Z"/></g>
<g><path style="opacity:0.004" fill="#000000" d="M 394.5,303.5 C 395.833,304.167 395.833,304.167 394.5,303.5 Z"/></g>
<g><path style="opacity:0.004" fill="#000000" d="M 510.5,303.5 C 510.833,303.5 511.167,303.5 511.5,303.5C 511.315,304.17 510.981,304.17 510.5,303.5 Z"/></g>
<g><path style="opacity:0.005" fill="#000000" d="M 398.5,309.5 C 397.833,309.5 397.5,309.167 397.5,308.5C 397.747,306.025 398.413,306.025 399.5,308.5C 399.376,309.107 399.043,309.44 398.5,309.5 Z"/></g>
<g><path style="opacity:0.004" fill="#000000" d="M 452.5,308.5 C 453.833,309.167 453.833,309.167 452.5,308.5 Z"/></g>
<g><path style="opacity:0.005" fill="#000000" d="M 478.5,312.5 C 477.833,312.5 477.5,312.833 477.5,313.5C 476.761,313.631 476.094,313.464 475.5,313C 476.947,310.51 477.947,310.343 478.5,312.5 Z"/></g>
<g><path style="opacity:0.004" fill="#000000" d="M 85.5,329.5 C 86.8734,329.343 88.2068,329.51 89.5,330C 85.6667,333.167 81.8333,336.333 78,339.5C 77.3333,338.833 77.3333,338.167 78,337.5C 80.733,334.938 83.233,332.271 85.5,329.5 Z"/></g>
<g><path style="opacity:0.717" fill="#000000" d="M 208.5,332.5 C 211.85,332.335 215.183,332.502 218.5,333C 219.91,333.368 220.91,334.201 221.5,335.5C 218.818,347.006 212.485,355.839 202.5,362C 196.74,364.154 191.074,363.988 185.5,361.5C 182.511,358.018 182.844,355.018 186.5,352.5C 190.768,353.685 194.935,354.352 199,354.5C 200.708,352.457 202.708,350.79 205,349.5C 205.748,347.091 206.915,344.925 208.5,343C 208.333,342.5 208.167,342 208,341.5C 201.53,342.724 195.03,342.557 188.5,341C 187.018,338.408 187.352,336.075 189.5,334C 192.38,333.316 195.213,333.483 198,334.5C 201.654,333.938 205.154,333.271 208.5,332.5 Z"/></g>
<g><path style="opacity:0.004" fill="#000000" d="M 47.5,343.5 C 45.2569,341.627 45.0902,339.627 47,337.5C 48.5423,339.565 48.709,341.565 47.5,343.5 Z"/></g>
<g><path style="opacity:0.004" fill="#000000" d="M 475.5,337.5 C 476.833,338.167 476.833,338.167 475.5,337.5 Z"/></g>
<g><path style="opacity:0.004" fill="#000000" d="M 73.5,342.5 C 75.337,342.639 75.6704,343.306 74.5,344.5C 73.7025,344.043 73.3691,343.376 73.5,342.5 Z"/></g>
<g><path style="opacity:0.008" fill="#000000" d="M 469.5,345.5 C 470.833,346.167 470.833,346.167 469.5,345.5 Z"/></g>
<g><path style="opacity:0.004" fill="#000000" d="M 468.5,346.5 C 468.833,346.5 469.167,346.5 469.5,346.5C 469.315,347.17 468.981,347.17 468.5,346.5 Z"/></g>
<g><path style="opacity:0.004" fill="#000000" d="M 467.5,348.5 C 468.833,349.167 468.833,349.167 467.5,348.5 Z"/></g>
<g><path style="opacity:0.004" fill="#000000" d="M 465.5,350.5 C 466.833,351.167 466.833,351.167 465.5,350.5 Z"/></g>
<g><path style="opacity:0.008" fill="#000000" d="M 463.5,352.5 C 464.833,353.167 464.833,353.167 463.5,352.5 Z"/></g>
<g><path style="opacity:0.004" fill="#000000" d="M 460.5,356.5 C 461.833,357.167 461.833,357.167 460.5,356.5 Z"/></g>
<g><path style="opacity:0.004" fill="#000000" d="M 455.5,360.5 C 456.833,361.167 456.833,361.167 455.5,360.5 Z"/></g>
<g><path style="opacity:0.004" fill="#000000" d="M 453.5,361.5 C 454.833,362.167 454.833,362.167 453.5,361.5 Z"/></g>
<g><path style="opacity:0.004" fill="#000000" d="M 449.5,364.5 C 450.833,365.167 450.833,365.167 449.5,364.5 Z"/></g>
<g><path style="opacity:0.004" fill="#000000" d="M 448.5,365.5 C 448.833,365.5 449.167,365.5 449.5,365.5C 449.315,366.17 448.981,366.17 448.5,365.5 Z"/></g>
<g><path style="opacity:0.004" fill="#000000" d="M 447.5,366.5 C 447.833,366.5 448.167,366.5 448.5,366.5C 448.315,367.17 447.981,367.17 447.5,366.5 Z"/></g>
<g><path style="opacity:0.004" fill="#000000" d="M 443.5,368.5 C 444.833,369.167 444.833,369.167 443.5,368.5 Z"/></g>
<g><path style="opacity:0.004" fill="#000000" d="M 51.5,383.5 C 51.8333,383.5 52.1667,383.5 52.5,383.5C 52.3147,384.17 51.9813,384.17 51.5,383.5 Z"/></g>
<g><path style="opacity:0.004" fill="#000000" d="M 411.5,385.5 C 412.833,386.167 412.833,386.167 411.5,385.5 Z"/></g>
<g><path style="opacity:0.004" fill="#000000" d="M 409.5,386.5 C 410.833,387.167 410.833,387.167 409.5,386.5 Z"/></g>
<g><path style="opacity:0.004" fill="#000000" d="M 54.5,387.5 C 55.8333,388.167 55.8333,388.167 54.5,387.5 Z"/></g>
<g><path style="opacity:0.004" fill="#000000" d="M 405.5,387.5 C 406.833,388.167 406.833,388.167 405.5,387.5 Z"/></g>
<g><path style="opacity:0.004" fill="#000000" d="M 55.5,389.5 C 56.8333,390.167 56.8333,390.167 55.5,389.5 Z"/></g>
<g><path style="opacity:0.004" fill="#000000" d="M 402.5,389.5 C 403.833,390.167 403.833,390.167 402.5,389.5 Z"/></g>
<g><path style="opacity:0.004" fill="#000000" d="M 402.5,390.5 C 401.833,391.167 401.833,391.167 402.5,390.5 Z"/></g>
<g><path style="opacity:0.004" fill="#000000" d="M 397.5,391.5 C 398.833,392.167 398.833,392.167 397.5,391.5 Z"/></g>
<g><path style="opacity:0.004" fill="#000000" d="M 59.5,393.5 C 60.8333,394.167 60.8333,394.167 59.5,393.5 Z"/></g>
<g><path style="opacity:0.006" fill="#000000" d="M 62.5,393.5 C 63.1667,393.5 63.5,393.833 63.5,394.5C 63.2533,396.975 62.5866,396.975 61.5,394.5C 61.6236,393.893 61.9569,393.56 62.5,393.5 Z"/></g>
<g><path style="opacity:0.006" fill="#000000" d="M 389.5,394.5 C 390.239,394.369 390.906,394.536 391.5,395C 390.563,395.692 389.897,395.525 389.5,394.5 Z"/></g>
<g><path style="opacity:0.004" fill="#000000" d="M 65.5,398.5 C 66.8333,399.167 66.8333,399.167 65.5,398.5 Z"/></g>
<g><path style="opacity:0.004" fill="#000000" d="M 383.5,398.5 C 384.833,399.167 384.833,399.167 383.5,398.5 Z"/></g>
<g><path style="opacity:0.008" fill="#000000" d="M 67.5,399.5 C 68.8333,400.167 68.8333,400.167 67.5,399.5 Z"/></g>
<g><path style="opacity:0.004" fill="#000000" d="M 381.5,399.5 C 382.833,400.167 382.833,400.167 381.5,399.5 Z"/></g>
<g><path style="opacity:0.004" fill="#000000" d="M 70.5,402.5 C 69.8333,401.167 69.8333,401.167 70.5,402.5 Z"/></g>
<g><path style="opacity:0.004" fill="#000000" d="M 70.5,402.5 C 71.1667,402.5 71.5,402.833 71.5,403.5C 71.1667,403.167 70.8333,402.833 70.5,402.5 Z"/></g>
<g><path style="opacity:0.004" fill="#000000" d="M 373.5,402.5 C 374.239,402.369 374.906,402.536 375.5,403C 374.563,403.692 373.897,403.525 373.5,402.5 Z"/></g>
<g><path style="opacity:0.004" fill="#000000" d="M 71.5,403.5 C 72.8333,404.167 72.8333,404.167 71.5,403.5 Z"/></g>
<g><path style="opacity:0.004" fill="#000000" d="M 75.5,406.5 C 74.8333,405.167 74.8333,405.167 75.5,406.5 Z"/></g>
<g><path style="opacity:0.004" fill="#000000" d="M 75.5,406.5 C 76.8333,407.167 76.8333,407.167 75.5,406.5 Z"/></g>
<g><path style="opacity:0.004" fill="#000000" d="M 79.5,409.5 C 80.8333,410.167 80.8333,410.167 79.5,409.5 Z"/></g>
<g><path style="opacity:0.004" fill="#000000" d="M 352.5,409.5 C 353.833,410.167 353.833,410.167 352.5,409.5 Z"/></g>
<g><path style="opacity:0.004" fill="#000000" d="M 89.5,413.5 C 88.8333,414.167 88.8333,414.167 89.5,413.5 Z"/></g>
<g><path style="opacity:0.004" fill="#000000" d="M 314.5,417.5 C 315.833,418.167 315.833,418.167 314.5,417.5 Z"/></g>
<g><path style="opacity:0.004" fill="#000000" d="M 113.5,422.5 C 113.631,423.239 113.464,423.906 113,424.5C 112.308,423.563 112.475,422.897 113.5,422.5 Z"/></g>
<g><path style="opacity:0.004" fill="#000000" d="M 283.5,422.5 C 284.833,423.167 284.833,423.167 283.5,422.5 Z"/></g>
<g><path style="opacity:0.017" fill="#000000" d="M 137.5,433.5 C 138.5,433.5 139.5,433.5 140.5,433.5C 140.5,434.833 140.5,436.167 140.5,437.5C 139.167,437.5 137.833,437.5 136.5,437.5C 136.433,436.041 136.766,434.708 137.5,433.5 Z"/></g>
<g><path style="opacity:0.004" fill="#000000" d="M 129.5,443.5 C 130.404,444.209 130.737,445.209 130.5,446.5C 129.448,446.649 128.448,446.483 127.5,446C 128.381,445.292 129.047,444.458 129.5,443.5 Z"/></g>
</svg>
