<?xml version="1.0" encoding="UTF-8"?>
<!DOCTYPE svg PUBLIC "-//W3C//DTD SVG 1.1//EN" "http://www.w3.org/Graphics/SVG/1.1/DTD/svg11.dtd">
<svg xmlns="http://www.w3.org/2000/svg" version="1.1" width="611px" height="611px" style="shape-rendering:geometricPrecision; text-rendering:geometricPrecision; image-rendering:optimizeQuality; fill-rule:evenodd; clip-rule:evenodd" xmlns:xlink="http://www.w3.org/1999/xlink">
<g><path style="opacity:0.811" fill="#000000" d="M 281.5,59.5 C 300.153,61.4877 310.153,71.821 311.5,90.5C 310.449,93.757 309.782,97.0903 309.5,100.5C 323.564,102.452 329.064,110.452 326,124.5C 325.813,128.039 324.646,131.205 322.5,134C 336.149,139.465 341.149,149.299 337.5,163.5C 336.585,164.328 335.919,165.328 335.5,166.5C 353.593,174.726 361.426,188.726 359,208.5C 358.043,214.829 356.543,220.995 354.5,227C 391.534,236.438 404.368,259.605 393,296.5C 391.777,299.351 390.277,302.018 388.5,304.5C 396.829,306.499 405.162,308.666 413.5,311C 417.257,312.81 420.924,314.81 424.5,317C 441,333.276 450.334,353.109 452.5,376.5C 455.579,414.101 445.413,447.768 422,477.5C 396.134,501.68 366.634,520.18 333.5,533C 326.943,535.034 320.443,534.868 314,532.5C 311.171,533.203 308.338,533.37 305.5,533C 279.15,521.327 254.15,507.327 230.5,491C 218.187,481.487 208.354,469.987 201,456.5C 182.185,420.629 176.519,382.963 184,343.5C 189.11,326.174 197.944,311.007 210.5,298C 213.5,296.333 216.5,294.667 219.5,293C 216.579,286.155 215.745,278.988 217,271.5C 220.746,255.856 227.246,241.689 236.5,229C 234.393,227.736 233.393,225.903 233.5,223.5C 232.325,223.719 231.325,223.386 230.5,222.5C 220.342,201.615 223.175,182.282 239,164.5C 239.293,150.637 244.126,138.471 253.5,128C 249.705,118.824 250.205,109.657 255,100.5C 258.34,93.7981 261.673,87.1315 265,80.5C 269.514,73.6552 275.014,67.8218 281.5,63C 280.316,61.8545 280.316,60.6879 281.5,59.5 Z M 285.5,66.5 C 301.949,72.3997 307.449,83.7331 302,100.5C 291.706,115.68 277.54,123.68 259.5,124.5C 259.124,117.673 259.957,111.006 262,104.5C 265.426,95.885 269.426,87.5517 274,79.5C 278.211,75.4833 282.044,71.1499 285.5,66.5 Z M 307.5,107.5 C 317.378,108.205 321.211,113.538 319,123.5C 317.998,127.164 316.164,130.331 313.5,133C 309.127,136.186 304.46,138.853 299.5,141C 287.737,145.129 276.237,149.962 265,155.5C 264.586,155.043 264.086,154.709 263.5,154.5C 258.746,156.651 253.746,157.651 248.5,157.5C 249.595,147.823 253.095,139.157 259,131.5C 261.124,132.227 263.291,132.894 265.5,133.5C 283.065,130.394 297.065,121.727 307.5,107.5 Z M 315.5,141.5 C 323.897,141.896 328.897,146.23 330.5,154.5C 330.101,156.197 329.601,157.863 329,159.5C 322.911,165.43 316.411,170.764 309.5,175.5C 296.331,182.899 283.331,190.733 270.5,199C 269.167,200.333 267.833,201.667 266.5,203C 257.618,207.514 249.785,213.347 243,220.5C 240.295,218.293 238.129,215.626 236.5,212.5C 232.258,198.246 234.258,184.579 242.5,171.5C 243.5,170.667 244.5,169.833 245.5,169C 254.35,167.829 263.016,165.829 271.5,163C 281.378,157.919 291.712,153.586 302.5,150C 307.25,147.637 311.583,144.803 315.5,141.5 Z M 327.5,174.5 C 332.183,174.939 336.516,176.439 340.5,179C 351.349,188.186 354.516,199.686 350,213.5C 347.028,220.721 344.361,228.055 342,235.5C 335.568,244.935 327.068,251.768 316.5,256C 295.207,263.472 274.541,272.139 254.5,282C 245.366,285.063 236.032,287.563 226.5,289.5C 224.774,273.828 227.941,259.161 236,245.5C 239.701,240.395 243.035,235.062 246,229.5C 249.21,226.991 252.043,224.158 254.5,221C 266.857,212.821 279.524,205.155 292.5,198C 304.544,190.651 316.21,182.818 327.5,174.5 Z M 350.5,237.5 C 377.572,241.381 389.072,256.714 385,283.5C 383.191,294.285 378.358,303.451 370.5,311C 367.833,312.667 365.167,314.333 362.5,316C 340.991,327.088 318.991,337.088 296.5,346C 290.558,349.313 284.892,353.147 279.5,357.5C 268.386,370.405 261.552,385.405 259,402.5C 259.196,409.797 258.696,417.13 257.5,424.5C 258.171,431.737 259.171,438.903 260.5,446C 260.043,446.414 259.709,446.914 259.5,447.5C 264.756,471.098 274.422,492.598 288.5,512C 262.743,501.517 239.91,486.351 220,466.5C 193.277,429.235 184.277,387.902 193,342.5C 197.905,325.171 207.405,311.004 221.5,300C 228.594,300.907 235.594,300.24 242.5,298C 247.15,296.669 251.817,295.335 256.5,294C 279.728,282.687 303.062,271.354 326.5,260C 332.167,255.667 337.833,251.333 343.5,247C 346.282,244.112 348.616,240.945 350.5,237.5 Z M 356.5,510.5 C 373.562,488.697 384.395,464.03 389,436.5C 391.15,422.657 392.65,408.991 393.5,395.5C 391.65,375.438 384.983,357.271 373.5,341C 369.147,336.154 363.813,332.82 357.5,331C 363.997,327.586 370.33,323.919 376.5,320C 379.178,315.826 383.011,313.66 388,313.5C 394.684,315.477 401.517,316.977 408.5,318C 413.536,320.635 418.203,323.802 422.5,327.5C 426.248,332.635 430.082,337.635 434,342.5C 436.519,350.497 439.352,358.497 442.5,366.5C 446.12,393.357 442.62,419.69 432,445.5C 427.418,453.656 422.084,461.323 416,468.5C 398.427,485.551 378.594,499.551 356.5,510.5 Z M 345.5,335.5 C 354.123,336.425 361.623,339.759 368,345.5C 369.903,350.977 372.57,355.977 376,360.5C 378.572,367.947 381.072,375.447 383.5,383C 385.752,419.902 378.252,455.069 361,488.5C 353.125,500.042 343.292,509.542 331.5,517C 328.233,517.453 325.066,518.287 322,519.5C 316.844,516.001 311.678,512.501 306.5,509C 316.811,508.175 325.811,504.342 333.5,497.5C 352.986,475.746 363.32,450.08 364.5,420.5C 364.46,407.807 364.46,395.141 364.5,382.5C 362.204,370.776 358.037,359.776 352,349.5C 348.033,345.526 343.533,342.359 338.5,340C 340.898,338.476 343.231,336.976 345.5,335.5 Z M 319.5,345.5 C 324.083,345.725 328.75,345.892 333.5,346C 343.053,352.357 349.219,360.857 352,371.5C 352.738,377.397 353.571,383.23 354.5,389C 354.118,405.202 353.285,421.702 352,438.5C 348.259,455.417 341.259,470.751 331,484.5C 322.547,495.31 311.547,500.31 298,499.5C 295.008,496.2 292.008,492.866 289,489.5C 282.123,476.629 276.457,463.296 272,449.5C 271.213,443.16 270.38,436.827 269.5,430.5C 270.126,421.167 270.626,411.5 271,401.5C 273.53,389.02 278.03,377.354 284.5,366.5C 295.49,358.135 307.157,351.135 319.5,345.5 Z"/></g>
</svg>
