<?xml version="1.0" encoding="UTF-8"?>
<!DOCTYPE svg PUBLIC "-//W3C//DTD SVG 1.1//EN" "http://www.w3.org/Graphics/SVG/1.1/DTD/svg11.dtd">
<svg xmlns="http://www.w3.org/2000/svg" version="1.1" width="611px" height="611px" style="shape-rendering:geometricPrecision; text-rendering:geometricPrecision; image-rendering:optimizeQuality; fill-rule:evenodd; clip-rule:evenodd" xmlns:xlink="http://www.w3.org/1999/xlink">
<g><path style="opacity:0.755" fill="#000000" d="M 215.5,85.5 C 219.175,85.7537 222.009,87.4204 224,90.5C 232.615,108.331 241.615,125.998 251,143.5C 254.333,147.833 257.667,152.167 261,156.5C 266.184,142.932 270.684,129.098 274.5,115C 278.957,109.971 283.957,109.638 289.5,114C 291.017,115.685 292.684,117.185 294.5,118.5C 295.022,119.607 295.355,120.774 295.5,122C 294.567,129.083 292.567,135.749 289.5,142C 289.957,142.414 290.291,142.914 290.5,143.5C 288.512,153.058 288.012,162.724 289,172.5C 294.406,166.767 299.406,160.767 304,154.5C 308.877,149.954 314.044,145.787 319.5,142C 320.899,141.405 322.232,141.572 323.5,142.5C 325.757,146.012 328.257,149.346 331,152.5C 331.667,154.167 331.667,155.833 331,157.5C 313.396,174.406 299.729,194.072 290,216.5C 288.277,223.184 288.443,229.851 290.5,236.5C 296.148,255.792 303.981,274.126 314,291.5C 315.667,292.833 317.333,294.167 319,295.5C 326.821,285.015 333.821,274.015 340,262.5C 340.744,258.273 341.578,254.106 342.5,250C 341.136,242.848 339.636,235.681 338,228.5C 332.681,216.521 326.347,205.187 319,194.5C 314.495,186.207 316.329,179.874 324.5,175.5C 327.941,176.369 331.274,177.536 334.5,179C 339.833,184.333 345.167,189.667 350.5,195C 353.084,195.082 355.417,194.249 357.5,192.5C 352.915,184.995 348.082,177.662 343,170.5C 340.273,164.321 337.94,157.987 336,151.5C 333.288,139.059 338.121,133.393 350.5,134.5C 355.112,146.392 360.278,158.059 366,169.5C 367.677,171.676 369.511,173.676 371.5,175.5C 378.048,165.738 383.548,155.405 388,144.5C 391.281,138.763 395.781,134.263 401.5,131C 407.284,129.491 412.117,130.991 416,135.5C 416.626,137.713 416.459,139.88 415.5,142C 409.81,147.736 404.643,153.903 400,160.5C 397.829,165.486 398.996,169.486 403.5,172.5C 410.244,170.98 416.911,169.147 423.5,167C 429.927,164.762 433.761,166.928 435,173.5C 436.199,178.812 436.866,184.146 437,189.5C 436.535,190.931 435.701,192.097 434.5,193C 422.8,193.742 411.133,194.742 399.5,196C 392.962,198.271 386.962,201.605 381.5,206C 393.321,202.616 405.321,199.45 417.5,196.5C 423.788,196.955 427.288,200.289 428,206.5C 428.828,211.202 428.662,215.869 427.5,220.5C 415.636,225.552 403.303,229.218 390.5,231.5C 382.115,236.054 375.949,242.72 372,251.5C 367.102,276.131 356.268,297.631 339.5,316C 344.53,316.414 349.53,316.081 354.5,315C 362.199,311.484 369.866,307.818 377.5,304C 380.206,300.78 383.04,297.613 386,294.5C 387.25,291.923 387.584,289.257 387,286.5C 382.541,277.957 379.375,268.957 377.5,259.5C 380.451,254.192 384.784,250.526 390.5,248.5C 391.914,249.624 393.414,250.624 395,251.5C 398.894,257.455 402.394,263.622 405.5,270C 413.077,273.652 417.911,271.485 420,263.5C 420.363,257.775 420.196,252.275 419.5,247C 420.462,241.855 421.296,236.688 422,231.5C 422.707,229.919 423.54,228.419 424.5,227C 429.524,223.631 434.691,223.131 440,225.5C 442.251,232.749 444.251,240.082 446,247.5C 446.951,251.179 449.117,253.845 452.5,255.5C 457.176,251.986 461.009,247.653 464,242.5C 470.115,236.715 475.949,230.548 481.5,224C 483.725,223.439 485.725,222.439 487.5,221C 495.623,218.954 499.956,222.12 500.5,230.5C 498.99,238.853 495.823,246.52 491,253.5C 484.98,260.906 479.48,268.573 474.5,276.5C 476.307,280.337 479.474,282.337 484,282.5C 489.764,281.731 494.93,279.564 499.5,276C 504.617,273.037 507.951,274.37 509.5,280C 508.996,285.028 507.996,290.194 506.5,295.5C 500.248,297.853 493.914,300.019 487.5,302C 475.529,303.891 463.529,305.391 451.5,306.5C 450.585,307.328 449.919,308.328 449.5,309.5C 452.167,312.5 454.833,315.5 457.5,318.5C 458.853,321.245 458.686,323.912 457,326.5C 454.146,330.35 450.979,333.85 447.5,337C 445.711,337.52 444.044,337.187 442.5,336C 436.664,326.584 428.331,322.25 417.5,323C 399.877,329.311 383.544,337.977 368.5,349C 364.161,354.021 358.828,357.354 352.5,359C 348.51,360.99 346.01,364.157 345,368.5C 344.308,373.891 344.641,379.225 346,384.5C 351.079,398.436 356.413,412.436 362,426.5C 366.643,442.255 367.976,458.255 366,474.5C 364.111,481.383 360.278,486.883 354.5,491C 342.63,496.461 330.297,499.961 317.5,501.5C 316.393,500.978 315.226,500.645 314,500.5C 301.435,503.283 288.935,503.116 276.5,500C 270.797,494.419 267.964,487.586 268,479.5C 267.365,466.791 266.532,454.124 265.5,441.5C 266.023,435.408 266.023,429.408 265.5,423.5C 268.191,412.802 269.024,402.135 268,391.5C 263.107,371.512 252.607,355.346 236.5,343C 223.329,338.412 209.996,338.412 196.5,343C 185.334,346.488 174.334,350.488 163.5,355C 161.167,355.667 158.833,355.667 156.5,355C 150.791,348.958 146.291,342.125 143,334.5C 142.056,331.653 142.556,329.153 144.5,327C 150.872,324.892 157.205,322.892 163.5,321C 189.727,316.521 216.06,312.855 242.5,310C 232.877,300.997 221.543,294.997 208.5,292C 207.833,291.333 207.167,290.667 206.5,290C 191.312,285.369 175.979,281.702 160.5,279C 152.719,278.614 145.052,278.448 137.5,278.5C 124.31,281.228 110.977,282.395 97.5,282C 95.9391,281.682 94.7724,280.849 94,279.5C 93.3333,273.5 93.3333,267.5 94,261.5C 94.3095,260.234 94.8095,259.067 95.5,258C 102.108,255.484 108.941,253.984 116,253.5C 122.91,253.782 129.744,253.949 136.5,254C 130.851,246.022 124.851,238.356 118.5,231C 109.909,225.538 100.909,220.871 91.5,217C 79.9682,209.443 75.4682,198.943 78,185.5C 81.8261,180.318 86.6594,178.818 92.5,181C 105.833,189 119.167,197 132.5,205C 136.775,207.284 140.775,206.95 144.5,204C 149.02,200.464 152.186,195.964 154,190.5C 157.878,185.899 162.712,183.732 168.5,184C 170.757,185.45 173.09,186.617 175.5,187.5C 175.923,190.769 175.923,193.936 175.5,197C 170.843,207.989 165.176,218.322 158.5,228C 161.963,233.964 166.63,238.797 172.5,242.5C 176.12,240.048 179.287,237.048 182,233.5C 185.424,228.408 188.424,223.075 191,217.5C 195.195,215.643 198.529,216.643 201,220.5C 203.317,226.295 203.984,232.295 203,238.5C 201.212,244.538 199.045,250.371 196.5,256C 197.167,257.333 197.833,258.667 198.5,260C 206.144,264.664 214.477,267.331 223.5,268C 240.175,273.114 256.675,278.614 273,284.5C 268.198,274.428 263.532,264.095 259,253.5C 254.834,240.333 249.501,227.667 243,215.5C 242.5,215 242,214.5 241.5,214C 238.5,213.833 235.5,213.667 232.5,213.5C 225.269,213.964 218.102,214.964 211,216.5C 204.318,215.802 201.151,211.969 201.5,205C 201.833,203.5 202.167,202 202.5,200.5C 204.833,199.333 207.167,198.167 209.5,197C 220.455,195.149 231.455,193.482 242.5,192C 235.874,179.762 226.207,170.762 213.5,165C 203.104,162.921 192.771,160.588 182.5,158C 179.576,152.545 178.41,146.712 179,140.5C 180.127,137.932 182.127,136.598 185,136.5C 197.081,138.195 208.581,141.695 219.5,147C 225.091,148.808 230.758,150.308 236.5,151.5C 236.649,150.448 236.483,149.448 236,148.5C 224.869,131.229 214.536,113.562 205,95.5C 204.161,92.8604 204.661,90.5271 206.5,88.5C 209.515,87.1821 212.515,86.1821 215.5,85.5 Z M 214.5,91.5 C 216.017,91.5106 217.184,92.1772 218,93.5C 226.217,110.721 234.884,127.721 244,144.5C 248.07,151.24 252.904,157.407 258.5,163C 263.316,163.955 266.483,162.122 268,157.5C 272.275,145.676 275.942,133.676 279,121.5C 281.584,118.253 284.417,118.42 287.5,122C 285.201,130.405 283.201,138.905 281.5,147.5C 281.57,154.777 281.737,162.443 282,170.5C 282.627,174.846 283.794,179.012 285.5,183C 286.5,183.667 287.5,183.667 288.5,183C 298.073,170.833 308.573,159.666 320,149.5C 320.833,151.167 321.667,152.833 322.5,154.5C 305.855,171.134 292.689,190.134 283,211.5C 282.035,216.493 281.202,221.493 280.5,226.5C 282.388,238.12 285.222,249.453 289,260.5C 296.365,275.242 304.199,289.575 312.5,303.5C 315.271,303.579 317.937,303.079 320.5,302C 335.003,289.159 344.503,273.325 349,254.5C 349.667,250.5 349.667,246.5 349,242.5C 347.408,237.625 346.074,232.625 345,227.5C 343,222.833 341,218.167 339,213.5C 333.441,204.881 328.275,196.047 323.5,187C 324.672,184.492 326.338,182.825 328.5,182C 334.82,186.656 340.153,192.322 344.5,199C 350.965,202.094 357.298,201.761 363.5,198C 364.43,196.806 365.097,195.473 365.5,194C 364.697,191.256 363.697,188.589 362.5,186C 353.271,174.043 346.271,160.876 341.5,146.5C 341.76,144.813 342.427,143.313 343.5,142C 344.449,141.383 345.282,141.549 346,142.5C 351.354,153.706 356.521,165.039 361.5,176.5C 368.578,184.721 375.078,184.388 381,175.5C 385.542,165.382 390.375,155.382 395.5,145.5C 398.515,142.317 401.682,139.317 405,136.5C 406.067,137.191 407.234,137.691 408.5,138C 409.451,138.718 409.617,139.551 409,140.5C 403.314,145.522 398.314,151.189 394,157.5C 391.169,165.457 392.336,172.624 397.5,179C 407.744,180.585 417.41,178.752 426.5,173.5C 428.799,178.002 429.466,182.669 428.5,187.5C 412.077,184.332 396.411,186.832 381.5,195C 377.964,198.201 374.797,201.701 372,205.5C 370.763,210.679 372.597,214.013 377.5,215.5C 391.103,212.131 404.603,208.465 418,204.5C 420.33,207.459 420.996,210.793 420,214.5C 408.561,218.925 396.728,222.091 384.5,224C 376.667,227.833 370.833,233.667 367,241.5C 361.802,253.095 357.802,265.095 355,277.5C 348.83,289.837 341.164,301.17 332,311.5C 329.707,317.938 331.874,321.438 338.5,322C 343.833,322.667 349.167,322.667 354.5,322C 367.245,318.133 378.579,311.966 388.5,303.5C 394.575,296.824 396.075,289.157 393,280.5C 389.742,274.469 387.242,268.135 385.5,261.5C 387.197,260.636 388.363,259.303 389,257.5C 393.319,264.119 397.819,270.619 402.5,277C 411.106,281.134 418.606,279.634 425,272.5C 425.667,270.5 426.333,268.5 427,266.5C 427.1,256.108 427.767,245.775 429,235.5C 429.672,231.97 431.838,230.637 435.5,231.5C 436.255,240.187 438.422,248.521 442,256.5C 447.364,263.409 453.53,264.243 460.5,259C 468.501,250.528 476.168,241.695 483.5,232.5C 485.83,230.333 488.497,228.666 491.5,227.5C 492.892,232.03 492.392,236.363 490,240.5C 483.439,251.062 476.106,261.062 468,270.5C 465.228,278.13 467.395,283.963 474.5,288C 483.764,291.352 492.431,290.185 500.5,284.5C 500.705,286.552 500.705,288.886 500.5,291.5C 487.859,294.846 475.026,296.846 462,297.5C 454.688,295.042 448.355,296.709 443,302.5C 439.667,306.833 439.667,311.167 443,315.5C 444.614,318.237 446.781,320.403 449.5,322C 448.213,323.41 447.046,324.91 446,326.5C 436.565,314.911 424.732,311.411 410.5,316C 402.333,319.08 394.333,322.747 386.5,327C 378.006,333.417 369.006,339.083 359.5,344C 356.319,348.265 352.319,351.599 347.5,354C 338.908,362.065 336.074,371.898 339,383.5C 344.549,402.046 350.549,420.379 357,438.5C 358.126,445.968 358.959,453.468 359.5,461C 359.445,470.188 356.112,477.854 349.5,484C 343.1,486.938 336.433,489.272 329.5,491C 317.423,491.723 305.257,492.556 293,493.5C 288.816,493.277 284.649,492.943 280.5,492.5C 277.475,482.561 275.475,472.394 274.5,462C 274.511,437.914 275.011,413.748 276,389.5C 271.251,369.983 261.417,353.65 246.5,340.5C 230.183,331.89 213.183,330.39 195.5,336C 183.749,339.128 172.249,342.961 161,347.5C 156.344,343.375 152.511,338.541 149.5,333C 159.843,328.999 170.509,325.999 181.5,324C 201.806,321.962 222.473,319.296 243.5,316C 251.359,313.705 252.526,309.538 247,303.5C 239.039,296.459 230.206,290.793 220.5,286.5C 198.671,279.251 176.338,274.251 153.5,271.5C 135.507,273.314 117.507,274.981 99.5,276.5C 100.019,271.758 100.019,267.091 99.5,262.5C 113.768,259.227 127.768,259.06 141.5,262C 144.859,265.495 147.526,264.995 149.5,260.5C 141.135,247.253 131.468,235.087 120.5,224C 113.374,220.102 106.041,216.768 98.5,214C 91.2603,210.428 86.0937,204.928 83,197.5C 81.2427,191.742 82.9094,187.408 88,184.5C 102.996,194.076 118.163,203.242 133.5,212C 145.094,213.428 152.927,208.595 157,197.5C 159.389,194.034 162.222,191.034 165.5,188.5C 167.029,188.529 168.196,189.196 169,190.5C 169.328,193.207 168.995,195.874 168,198.5C 164.508,204.811 160.508,210.811 156,216.5C 151.913,222.636 151.246,228.969 154,235.5C 156.54,237.705 158.707,240.205 160.5,243C 163.671,245.341 166.671,247.841 169.5,250.5C 171.284,251.606 173.118,251.606 175,250.5C 183.605,243.272 190.272,234.605 195,224.5C 196.204,226.823 197.038,229.323 197.5,232C 195.779,239.891 193.446,247.558 190.5,255C 190.376,259.539 192.042,263.205 195.5,266C 199.453,268.81 203.787,270.81 208.5,272C 227.499,276.11 246.165,281.443 264.5,288C 268.833,290.333 273.167,292.667 277.5,295C 284.381,295.768 286.214,292.935 283,286.5C 272.165,269.011 263.831,250.344 258,230.5C 255.686,222.19 251.52,215.024 245.5,209C 242.845,207.559 240.012,206.726 237,206.5C 228.511,206.676 220.011,208.009 211.5,210.5C 208.451,209.776 206.785,207.776 206.5,204.5C 208.22,203.066 210.22,202.233 212.5,202C 225.319,200.373 238.319,199.04 251.5,198C 254.335,195.158 253.835,192.992 250,191.5C 242.932,178.431 233.098,167.931 220.5,160C 208.855,156.673 197.188,153.506 185.5,150.5C 184.52,147.914 184.187,145.247 184.5,142.5C 199.203,145.678 213.537,150.178 227.5,156C 232.665,157.674 237.832,158.174 243,157.5C 243.781,156.271 244.281,154.938 244.5,153.5C 243.383,150.93 242.55,148.263 242,145.5C 231.065,128.631 220.898,111.297 211.5,93.5C 212.602,92.8243 213.602,92.1577 214.5,91.5 Z"/></g>
</svg>
