<?xml version="1.0" encoding="UTF-8"?>
<!DOCTYPE svg PUBLIC "-//W3C//DTD SVG 1.1//EN" "http://www.w3.org/Graphics/SVG/1.1/DTD/svg11.dtd">
<svg xmlns="http://www.w3.org/2000/svg" version="1.1" width="611px" height="611px" style="shape-rendering:geometricPrecision; text-rendering:geometricPrecision; image-rendering:optimizeQuality; fill-rule:evenodd; clip-rule:evenodd" xmlns:xlink="http://www.w3.org/1999/xlink">
<g><path style="opacity:0.792" fill="#000000" d="M 298.5,112.5 C 303.518,112.061 308.352,112.727 313,114.5C 317.245,118.282 321.245,122.282 325,126.5C 329.996,134.82 332.996,143.82 334,153.5C 338.006,169.2 342.672,184.866 348,200.5C 351.773,206.624 355.273,212.958 358.5,219.5C 362.611,224.762 367.944,228.262 374.5,230C 381.402,231.224 388.402,233.057 395.5,235.5C 401.412,234.801 407.245,235.467 413,237.5C 431.43,234.494 449.93,233.994 468.5,236C 486.175,238.355 492.675,248.188 488,265.5C 485.608,272.615 482.441,279.281 478.5,285.5C 477.5,285.5 476.5,285.5 475.5,285.5C 473.964,288.723 471.964,291.723 469.5,294.5C 461.419,302.094 452.419,308.26 442.5,313C 433.414,319.415 424.914,326.582 417,334.5C 414.608,337.228 412.608,340.228 411,343.5C 410.545,347.948 410.045,352.115 409.5,356C 411.776,369.247 414.609,382.413 418,395.5C 423.905,412.301 430.072,428.968 436.5,445.5C 437.609,458.456 433.276,469.29 423.5,478C 418.056,480.239 412.556,482.406 407,484.5C 402.068,483.86 397.235,482.693 392.5,481C 387.167,477.667 381.833,474.333 376.5,471C 370.747,464.96 364.414,459.626 357.5,455C 343.018,442.495 328.185,430.328 313,418.5C 308.83,419.34 304.663,419.007 300.5,417.5C 296.474,418.171 292.474,419.004 288.5,420C 271.24,434.59 254.573,449.923 238.5,466C 231.5,471 224.5,476 217.5,481C 203.115,484.947 191.282,481.114 182,469.5C 175.109,454.167 174.109,438.501 179,422.5C 182.978,412.766 187.478,403.266 192.5,394C 198.663,380.013 201.663,365.513 201.5,350.5C 201.808,340.254 198.475,331.421 191.5,324C 177.683,316.258 164.016,308.258 150.5,300C 141.059,291.739 131.392,283.572 121.5,275.5C 112.272,265.85 109.939,254.85 114.5,242.5C 115.552,242.649 116.552,242.483 117.5,242C 121.228,237.604 125.561,233.938 130.5,231C 134.388,229.622 138.388,228.622 142.5,228C 151.368,227.792 160.202,227.292 169,226.5C 185.917,228.723 202.751,230.223 219.5,231C 226.759,233.699 232.925,231.866 238,225.5C 239.139,221.888 240.806,218.554 243,215.5C 246.631,204.434 251.131,193.767 256.5,183.5C 262.246,169.201 267.079,154.535 271,139.5C 272.971,132.378 276.804,126.545 282.5,122C 288.094,119.046 293.428,115.879 298.5,112.5 Z M 300.5,121.5 C 304.923,121.626 309.256,122.293 313.5,123.5C 317.058,126.935 319.891,130.935 322,135.5C 328.288,156.053 333.955,176.719 339,197.5C 343.184,210.876 349.684,222.876 358.5,233.5C 363.512,236.059 368.512,238.559 373.5,241C 378.872,242.005 384.205,243.171 389.5,244.5C 403.748,244.449 418.081,244.449 432.5,244.5C 441.981,242.13 451.481,242.13 461,244.5C 466.027,243.679 471.193,244.513 476.5,247C 482.249,252.416 483.083,258.583 479,265.5C 475.302,274.86 469.135,282.026 460.5,287C 458.992,290.26 456.658,292.76 453.5,294.5C 435.544,304.553 419.377,316.887 405,331.5C 400.935,338.993 399.102,346.827 399.5,355C 400.047,360.876 400.88,366.709 402,372.5C 408.504,392.163 415.171,411.83 422,431.5C 425.032,440.136 425.199,448.803 422.5,457.5C 420.248,460.338 418.248,463.338 416.5,466.5C 414.821,467.782 412.987,468.782 411,469.5C 407.532,469.446 404.032,469.446 400.5,469.5C 397.095,468.752 393.762,467.752 390.5,466.5C 385.168,462.499 379.502,458.999 373.5,456C 355.147,440.837 336.481,426.17 317.5,412C 303.918,406.549 290.918,407.549 278.5,415C 262.432,430.07 246.765,445.403 231.5,461C 228.977,461.518 226.977,462.852 225.5,465C 220.565,468.121 215.231,470.288 209.5,471.5C 206.891,470.77 204.224,470.27 201.5,470C 194.913,466.374 190.413,460.874 188,453.5C 186.057,443.227 186.723,432.893 190,422.5C 197.63,407.915 204.13,392.915 209.5,377.5C 209.291,376.914 208.957,376.414 208.5,376C 212.237,361.234 212.403,346.4 209,331.5C 206.609,324.992 202.776,319.492 197.5,315C 185.924,307.38 173.924,300.546 161.5,294.5C 150.197,285.538 138.864,276.538 127.5,267.5C 117.877,258.108 118.21,249.275 128.5,241C 132.437,239.356 136.27,237.523 140,235.5C 141.533,235.944 143.033,236.277 144.5,236.5C 152.987,235.819 161.487,235.152 170,234.5C 185.213,236.74 200.379,238.24 215.5,239C 216.025,239.692 216.692,240.192 217.5,240.5C 222.414,240.405 227.414,240.239 232.5,240C 234.608,239.64 236.608,238.973 238.5,238C 243.216,232.732 247.049,226.899 250,220.5C 255.124,205.811 261.124,191.478 268,177.5C 272.001,162.156 277.001,147.156 283,132.5C 288.509,128.17 294.343,124.504 300.5,121.5 Z M 295.5,346.5 C 297.948,346.085 299.281,347.085 299.5,349.5C 299.461,351.587 298.461,352.921 296.5,353.5C 294.734,353.566 293.734,352.732 293.5,351C 294.044,349.415 294.711,347.915 295.5,346.5 Z"/></g>
<g><path style="opacity:0.768" fill="#000000" d="M 297.5,166.5 C 303.653,165.836 307.653,168.336 309.5,174C 308.351,175.604 308.351,177.27 309.5,179C 308.541,181.895 307.207,184.561 305.5,187C 299.925,188.228 296.425,186.062 295,180.5C 294.333,177.167 294.333,173.833 295,170.5C 295.48,168.867 296.313,167.534 297.5,166.5 Z"/></g>
<g><path style="opacity:0.767" fill="#000000" d="M 299.5,216.5 C 301.5,216.833 303.5,217.167 305.5,217.5C 307.675,222.633 306.675,226.966 302.5,230.5C 296.97,232.801 294.303,230.968 294.5,225C 294.667,223.5 294.833,222 295,220.5C 296.667,219.267 298.167,217.933 299.5,216.5 Z"/></g>
<g><path style="opacity:0.746" fill="#000000" d="M 179.5,257.5 C 186.162,256.997 188.662,259.997 187,266.5C 184.833,269.287 181.999,270.12 178.5,269C 174.113,267.481 172.78,264.648 174.5,260.5C 176.598,260.043 178.264,259.043 179.5,257.5 Z"/></g>
<g><path style="opacity:0.799" fill="#000000" d="M 439.5,259.5 C 441.441,259.869 443.275,260.536 445,261.5C 450.126,272.341 446.96,276.841 435.5,275C 432.019,268.463 433.353,263.296 439.5,259.5 Z"/></g>
<g><path style="opacity:0.597" fill="#000000" d="M 299.5,265.5 C 304.699,266.259 305.699,268.759 302.5,273C 299.402,274.067 297.402,273.067 296.5,270C 297.008,268.107 298.008,266.607 299.5,265.5 Z"/></g>
<g><path style="opacity:0.757" fill="#000000" d="M 389.5,272.5 C 392.87,273.031 394.537,275.031 394.5,278.5C 395.032,282.303 393.365,284.303 389.5,284.5C 384.425,282.691 383.259,279.357 386,274.5C 387.302,273.915 388.469,273.249 389.5,272.5 Z"/></g>
<g><path style="opacity:0.764" fill="#000000" d="M 220.5,276.5 C 223.833,277.167 227.167,277.833 230.5,278.5C 232.487,286.347 229.487,289.513 221.5,288C 218.089,284.323 217.755,280.489 220.5,276.5 Z"/></g>
<g><path style="opacity:0.589" fill="#000000" d="M 345.5,286.5 C 353.695,291.081 353.362,295.081 344.5,298.5C 340.741,296.063 339.741,292.73 341.5,288.5C 342.949,287.828 344.282,287.161 345.5,286.5 Z"/></g>
<g><path style="opacity:0.674" fill="#000000" d="M 265.5,297.5 C 272.065,296.422 274.232,299.089 272,305.5C 269.525,307.752 266.859,307.752 264,305.5C 263.023,303.26 262.523,300.927 262.5,298.5C 263.791,298.737 264.791,298.404 265.5,297.5 Z"/></g>
<g><path style="opacity:0.004" fill="#000000" d="M 329.5,342.5 C 328.399,343.598 327.066,343.765 325.5,343C 324.331,340.993 323.665,338.827 323.5,336.5C 324.552,336.351 325.552,336.517 326.5,337C 324.65,340.466 325.65,342.299 329.5,342.5 Z"/></g>
<g><path style="opacity:0.599" fill="#000000" d="M 341.5,341.5 C 344.056,341.132 346.056,341.966 347.5,344C 346.496,346.35 345.496,348.684 344.5,351C 342.299,351.825 340.466,351.325 339,349.5C 338.503,347.19 338.337,344.857 338.5,342.5C 339.791,342.737 340.791,342.404 341.5,341.5 Z"/></g>
<g><path style="opacity:0.366" fill="#000000" d="M 295.5,342.5 C 304.16,343.981 305.493,347.814 299.5,354C 297.231,354.758 295.064,354.591 293,353.5C 288.833,359.015 285.333,358.515 282.5,352C 282.594,348.072 284.594,345.906 288.5,345.5C 292.183,348.166 294.516,347.166 295.5,342.5 Z M 295.5,346.5 C 294.711,347.915 294.044,349.415 293.5,351C 293.734,352.732 294.734,353.566 296.5,353.5C 298.461,352.921 299.461,351.587 299.5,349.5C 299.281,347.085 297.948,346.085 295.5,346.5 Z"/></g>
<g><path style="opacity:0.783" fill="#000000" d="M 360.5,369.5 C 366.709,367.926 370.042,370.26 370.5,376.5C 367.955,384.179 363.455,385.512 357,380.5C 355.662,375.96 356.829,372.293 360.5,369.5 Z"/></g>
<g><path style="opacity:0.755" fill="#000000" d="M 258.5,374.5 C 266.316,374.15 268.65,377.484 265.5,384.5C 260.085,390.13 255.752,389.463 252.5,382.5C 253.753,379.25 255.753,376.584 258.5,374.5 Z"/></g>
<g><path style="opacity:0.811" fill="#000000" d="M 222.5,411.5 C 230.177,410.75 233.01,414.083 231,421.5C 229.434,424.813 226.767,426.479 223,426.5C 220.849,426.357 219.182,425.357 218,423.5C 217.457,420.132 217.624,416.799 218.5,413.5C 220.38,413.771 221.713,413.104 222.5,411.5 Z"/></g>
<g><path style="opacity:0.787" fill="#000000" d="M 388.5,414.5 C 392.801,414.633 395.468,416.8 396.5,421C 395.604,427.617 391.937,429.951 385.5,428C 381.972,424.79 381.806,421.29 385,417.5C 386.145,416.364 387.312,415.364 388.5,414.5 Z"/></g>
</svg>
