<?xml version="1.0" encoding="UTF-8"?>
<!DOCTYPE svg PUBLIC "-//W3C//DTD SVG 1.1//EN" "http://www.w3.org/Graphics/SVG/1.1/DTD/svg11.dtd">
<svg xmlns="http://www.w3.org/2000/svg" version="1.1" width="611px" height="611px" style="shape-rendering:geometricPrecision; text-rendering:geometricPrecision; image-rendering:optimizeQuality; fill-rule:evenodd; clip-rule:evenodd" xmlns:xlink="http://www.w3.org/1999/xlink">
<g><path style="opacity:0.82" fill="#000000" d="M 297.5,75.5 C 310.726,76.2968 323.726,78.4635 336.5,82C 357.111,87.9772 375.278,98.1439 391,112.5C 395.004,117.182 399.004,121.849 403,126.5C 411.748,137.628 419.415,149.628 426,162.5C 430.608,173.475 431.942,184.809 430,196.5C 425.133,211.717 417.3,225.217 406.5,237C 403.036,239.047 399.37,240.713 395.5,242C 394.941,242.725 394.608,243.558 394.5,244.5C 398.302,264.058 401.302,283.725 403.5,303.5C 402.863,307.7 402.196,311.866 401.5,316C 402.059,316.725 402.392,317.558 402.5,318.5C 401.087,329.531 397.254,339.531 391,348.5C 382.636,356.154 373.469,357.654 363.5,353C 362.646,351.978 361.646,351.145 360.5,350.5C 359.589,354.376 359.589,358.376 360.5,362.5C 359.869,366.034 359.202,369.534 358.5,373C 358.957,373.414 359.291,373.914 359.5,374.5C 358.336,379.156 357.169,383.823 356,388.5C 355.535,389.931 354.701,391.097 353.5,392C 358.762,398.935 364.429,405.602 370.5,412C 382.362,419.641 395.029,421.974 408.5,419C 418.044,416.215 427.044,412.382 435.5,407.5C 435.33,406.178 435.663,405.011 436.5,404C 442.038,400.167 447.204,396 452,391.5C 455.81,393.471 458.31,396.471 459.5,400.5C 455.27,412.084 450.436,423.417 445,434.5C 439.558,441.645 433.724,448.478 427.5,455C 416.503,461.004 404.836,465.338 392.5,468C 381.535,470.005 371.369,468.171 362,462.5C 365.139,471.116 369.139,479.449 374,487.5C 377.572,496.152 380.738,504.985 383.5,514C 382.903,516.537 381.57,518.537 379.5,520C 349.546,522.449 328.712,509.949 317,482.5C 310.745,465.156 306.578,447.489 304.5,429.5C 303.197,427.522 301.531,427.522 299.5,429.5C 309.278,459.979 309.778,490.645 301,521.5C 299.535,527.77 296.535,533.104 292,537.5C 287.602,539.558 284.269,538.558 282,534.5C 277.396,514.307 274.063,493.641 272,472.5C 271.514,500.513 257.847,518.18 231,525.5C 222.114,523.739 218.78,518.406 221,509.5C 225.334,495.466 231.001,482.132 238,469.5C 238.667,468.5 238.667,467.5 238,466.5C 224.691,480.573 208.858,490.739 190.5,497C 184.307,497.984 178.307,497.318 172.5,495C 166.898,490.708 166.065,485.542 170,479.5C 186.21,464.291 201.377,448.124 215.5,431C 206.951,428.147 198.951,424.147 191.5,419C 188.993,415.327 185.993,412.16 182.5,409.5C 166.098,388.376 158.932,364.376 161,337.5C 161.546,331.649 162.879,325.982 165,320.5C 169.382,316.307 173.382,316.641 177,321.5C 185.272,342.041 194.605,362.041 205,381.5C 211.529,388.382 218.863,394.048 227,398.5C 225.99,391.419 225.157,384.252 224.5,377C 225.043,367.78 227.043,358.947 230.5,350.5C 230.392,349.558 230.059,348.725 229.5,348C 223.811,346.774 218.144,345.441 212.5,344C 186.098,325.486 176.598,300.653 184,269.5C 189.062,247.413 195.895,225.913 204.5,205C 185.517,198.038 175.517,184.871 174.5,165.5C 176.549,157.195 180.049,149.528 185,142.5C 200.321,124.776 218.155,110.276 238.5,99C 248.315,94.9242 257.982,90.5908 267.5,86C 277.671,82.4732 287.671,78.9732 297.5,75.5 Z M 304.5,83.5 C 311.396,91.5339 318.563,99.5339 326,107.5C 334.47,119.28 341.136,131.947 346,145.5C 346.624,147.754 347.957,149.421 350,150.5C 370.448,192.601 383.948,236.934 390.5,283.5C 390.167,284.167 389.833,284.833 389.5,285.5C 391.743,296.455 391.91,307.455 390,318.5C 389.187,324.938 387.187,330.938 384,336.5C 381.191,339.567 377.691,341.234 373.5,341.5C 368.011,341.579 363.344,339.746 359.5,336C 351.343,334.17 344.177,330.336 338,324.5C 335.083,307.731 325.249,299.731 308.5,300.5C 297.439,302.276 288.272,307.276 281,315.5C 277,312.182 272.5,309.682 267.5,308C 264.594,306.682 261.594,306.348 258.5,307C 252.931,309.035 248.097,312.202 244,316.5C 240.408,322.658 236.075,328.325 231,333.5C 230.727,335.101 230.227,336.601 229.5,338C 223.891,337.762 218.557,336.262 213.5,333.5C 198.186,321.095 190.852,304.929 191.5,285C 195.344,258.131 202.844,232.298 214,207.5C 215.11,205.963 216.61,205.297 218.5,205.5C 218.64,203.876 217.973,202.71 216.5,202C 231.671,174.123 249.171,147.957 269,123.5C 271,120.167 273,116.833 275,113.5C 285.245,103.817 295.078,93.817 304.5,83.5 Z M 316.5,86.5 C 316.735,85.9033 317.235,85.5699 318,85.5C 341.867,89.8546 363.034,99.6879 381.5,115C 385.355,119.853 389.522,124.353 394,128.5C 400.33,137.45 406.663,146.45 413,155.5C 415.333,161.167 417.667,166.833 420,172.5C 421.145,177.799 421.478,183.132 421,188.5C 417.211,203.559 409.544,216.226 398,226.5C 396.163,229.509 394.33,232.509 392.5,235.5C 379.629,187.782 359.796,143.448 333,102.5C 327.303,97.2605 321.803,91.9272 316.5,86.5 Z M 286.5,86.5 C 288.028,86.5173 288.528,87.184 288,88.5C 279.691,97.0626 271.525,105.729 263.5,114.5C 262.719,115.729 262.219,117.062 262,118.5C 241.601,142.734 223.768,168.734 208.5,196.5C 197.646,192.145 189.479,184.811 184,174.5C 182.85,167.81 183.85,161.476 187,155.5C 192.744,145.859 199.911,137.359 208.5,130C 216.197,123.961 223.864,117.961 231.5,112C 247.689,103.686 264.356,96.3529 281.5,90C 283.431,89.0978 285.097,87.9312 286.5,86.5 Z M 310.5,311.5 C 320.785,312.283 326.785,317.783 328.5,328C 327.712,331.076 327.212,334.242 327,337.5C 324.804,341.892 322.637,346.226 320.5,350.5C 317.352,352.407 314.018,354.24 310.5,356C 300.976,358.146 294.476,354.646 291,345.5C 290.725,339.151 290.725,332.818 291,326.5C 290.667,326.167 290.333,325.833 290,325.5C 289.577,326.956 288.744,327.456 287.5,327C 292.646,318.009 300.313,312.842 310.5,311.5 Z M 260.5,318.5 C 270.959,322.535 277.125,330.202 279,341.5C 280.367,350.185 277.2,356.685 269.5,361C 254.894,368.937 245.06,365.103 240,349.5C 237.849,339.215 241.016,331.048 249.5,325C 253.096,322.539 256.763,320.373 260.5,318.5 Z M 170.5,335.5 C 172.017,338.013 173.683,340.513 175.5,343C 181.379,357.592 188.212,371.759 196,385.5C 206.277,398.281 219.444,406.281 235.5,409.5C 236.5,410.333 237.5,411.167 238.5,412C 222.226,423.071 207.392,421.237 194,406.5C 189.642,401.31 185.476,395.977 181.5,390.5C 179.052,384.16 176.385,377.994 173.5,372C 170.13,359.838 169.13,347.671 170.5,335.5 Z M 340.5,338.5 C 343.387,341.052 346.72,342.718 350.5,343.5C 347.741,355.65 345.908,367.983 345,380.5C 338.415,398.085 326.248,409.919 308.5,416C 289.942,421.733 271.942,420.4 254.5,412C 252.757,410.89 251.424,409.39 250.5,407.5C 249.167,406.167 247.833,406.167 246.5,407.5C 244.213,404.559 241.713,401.892 239,399.5C 234.081,387.564 232.748,375.231 235,362.5C 242.765,374.646 253.599,378.479 267.5,374C 275.578,372.216 282.078,368.049 287,361.5C 287.483,360.552 287.649,359.552 287.5,358.5C 291.769,360.635 296.103,362.801 300.5,365C 317.824,365.986 329.657,358.486 336,342.5C 336.541,348.214 335.041,353.381 331.5,358C 331.833,358.167 332.167,358.333 332.5,358.5C 338.097,353.05 340.763,346.384 340.5,338.5 Z M 348.5,400.5 C 362.453,424.787 383.453,434.621 411.5,430C 419.772,428.173 427.772,425.84 435.5,423C 433.121,426.256 431.121,429.756 429.5,433.5C 426.117,437.044 422.951,440.711 420,444.5C 405.815,453.922 390.315,457.755 373.5,456C 368.703,454.538 364.369,452.204 360.5,449C 349.71,439.727 341.044,428.894 334.5,416.5C 336.854,413.312 339.688,410.645 343,408.5C 344.243,405.424 346.077,402.757 348.5,400.5 Z M 246.5,418.5 C 247.552,418.351 248.552,418.517 249.5,419C 246.63,424.909 244.463,431.076 243,437.5C 240.433,443.069 237.433,448.403 234,453.5C 221.386,468.477 206.053,479.811 188,487.5C 185.26,486.718 182.426,486.218 179.5,486C 184.973,479.194 191.14,473.027 198,467.5C 201.272,462.878 204.605,458.211 208,453.5C 214.558,446.73 220.891,439.73 227,432.5C 230.335,429.417 234.169,427.25 238.5,426C 241.692,423.972 244.359,421.472 246.5,418.5 Z M 317.5,423.5 C 318.833,423.5 320.167,423.5 321.5,423.5C 321.351,424.552 321.517,425.552 322,426.5C 329.972,435.114 336.972,444.448 343,454.5C 352.376,471.919 361.209,489.586 369.5,507.5C 355.371,506.941 343.538,501.274 334,490.5C 329.064,483.386 325.064,475.719 322,467.5C 318.053,453.594 314.553,439.594 311.5,425.5C 314.01,425.946 316.01,425.28 317.5,423.5 Z M 257.5,427.5 C 262.178,443.108 263.178,458.941 260.5,475C 260.826,489.554 254.826,501.221 242.5,510C 238.828,511.503 235.162,513.003 231.5,514.5C 230.833,514.167 230.167,513.833 229.5,513.5C 235.044,498.696 240.878,484.03 247,469.5C 247.301,466.026 248.134,462.692 249.5,459.5C 248.959,457.477 249.459,455.477 251,453.5C 252.554,444.964 254.72,436.297 257.5,427.5 Z M 269.5,427.5 C 271.971,427.233 273.638,428.233 274.5,430.5C 273.05,435.047 272.216,439.714 272,444.5C 270.681,438.894 269.847,433.227 269.5,427.5 Z M 281.5,429.5 C 284.079,429.083 286.246,429.75 288,431.5C 294.771,451.846 297.105,472.846 295,494.5C 294.469,502.926 292.469,510.926 289,518.5C 284.724,497.445 281.557,476.279 279.5,455C 280.749,446.596 281.416,438.096 281.5,429.5 Z"/></g>
<g><path style="opacity:0.893" fill="#000000" d="M 310.5,317.5 C 318.45,318.956 322.783,323.789 323.5,332C 322.967,341.091 317.967,346.258 308.5,347.5C 299.368,344.912 296.201,338.912 299,329.5C 299.412,325.993 301.245,323.66 304.5,322.5C 305.386,321.675 305.719,320.675 305.5,319.5C 307.553,319.598 309.22,318.931 310.5,317.5 Z"/></g>
<g><path style="opacity:0.842" fill="#000000" d="M 262.5,329.5 C 266.025,329.346 268.859,330.679 271,333.5C 274.182,342.111 272.682,349.611 266.5,356C 255.856,359.581 250.523,355.414 250.5,343.5C 251.648,340.711 252.981,338.044 254.5,335.5C 255.689,334.571 257.022,334.238 258.5,334.5C 258.408,331.6 259.741,329.933 262.5,329.5 Z"/></g>
<g><path style="opacity:0.78" fill="#000000" d="M 307.5,385.5 C 308.978,385.238 310.311,385.571 311.5,386.5C 310.522,390.891 309.356,395.224 308,399.5C 306.647,400.685 305.48,402.019 304.5,403.5C 300.558,405.058 296.724,406.725 293,408.5C 292,405.833 291,405.833 290,408.5C 282.544,406.766 276.544,402.766 272,396.5C 270.707,393.138 271.707,391.138 275,390.5C 278.365,391.437 281.199,393.271 283.5,396C 286.313,397.27 289.146,397.77 292,397.5C 298.523,395.131 303.69,391.131 307.5,385.5 Z"/></g>
</svg>
