<?xml version="1.0" encoding="UTF-8"?>
<!DOCTYPE svg PUBLIC "-//W3C//DTD SVG 1.1//EN" "http://www.w3.org/Graphics/SVG/1.1/DTD/svg11.dtd">
<svg xmlns="http://www.w3.org/2000/svg" version="1.1" width="611px" height="611px" style="shape-rendering:geometricPrecision; text-rendering:geometricPrecision; image-rendering:optimizeQuality; fill-rule:evenodd; clip-rule:evenodd" xmlns:xlink="http://www.w3.org/1999/xlink">
<g><path style="opacity:0.642" fill="#000000" d="M 169.5,109.5 C 166.757,122.24 164.757,135.407 163.5,149C 164.094,156.922 165.427,164.756 167.5,172.5C 166.579,174.031 166.912,175.365 168.5,176.5C 167.965,179.238 168.965,181.072 171.5,182C 171.167,182.333 170.833,182.667 170.5,183C 171.46,184.419 172.293,185.919 173,187.5C 173.333,187.167 173.667,186.833 174,186.5C 175.113,187.76 175.28,188.927 174.5,190C 180.276,198.617 186.276,207.117 192.5,215.5C 193.325,216.386 194.325,216.719 195.5,216.5C 195.34,218.199 195.506,219.866 196,221.5C 199.28,225.658 201.613,230.325 203,235.5C 203.667,244.167 203.667,252.833 203,261.5C 201.85,265.288 200.517,268.954 199,272.5C 192.644,285.619 184.478,297.953 174.5,309.5C 173.167,309.833 173.167,310.167 174.5,310.5C 174.144,312.19 173.144,313.19 171.5,313.5C 171.167,312.167 170.833,312.167 170.5,313.5C 166.877,318.539 162.877,323.373 158.5,328C 159.451,328.718 159.617,329.551 159,330.5C 158.085,331.328 157.419,332.328 157,333.5C 156.667,332.833 156.333,332.167 156,331.5C 154.999,334.173 153.499,336.507 151.5,338.5C 151.709,339.086 152.043,339.586 152.5,340C 150.881,340.236 149.881,341.069 149.5,342.5C 147.221,343.868 146.554,345.702 147.5,348C 145.667,348.5 144.5,349.667 144,351.5C 140.652,358.859 138.985,366.526 139,374.5C 140.264,383.701 144.597,391.034 152,396.5C 152.088,400.121 153.922,402.954 157.5,405C 157.167,405.333 156.833,405.667 156.5,406C 157.672,406.419 158.672,407.085 159.5,408C 159.5,409 159.5,410 159.5,411C 160.728,413.14 162.395,414.807 164.5,416C 164.167,416.333 163.833,416.667 163.5,417C 164.289,419.365 165.456,421.532 167,423.5C 166.62,426.518 167.287,429.518 169,432.5C 190.806,420.164 214.306,412.664 239.5,410C 264.676,409.524 289.676,409.358 314.5,409.5C 326.181,410.687 337.848,412.02 349.5,413.5C 358.486,413.857 367.486,415.357 376.5,418C 378.024,420.358 380.024,422.191 382.5,423.5C 381.403,404.401 384.403,386.068 391.5,368.5C 395.089,362.252 398.589,355.919 402,349.5C 405.037,346.842 407.371,344.175 409,341.5C 415.331,331.188 421.664,320.855 428,310.5C 434.534,296.381 438.367,281.381 439.5,265.5C 439.77,253.68 437.437,242.513 432.5,232C 432.833,231.667 433.167,231.333 433.5,231C 432.328,230.581 431.328,229.915 430.5,229C 431.774,228.023 431.774,227.189 430.5,226.5C 430.366,223.232 428.866,220.898 426,219.5C 426.424,216.499 425.257,213.999 422.5,212C 422.833,211.667 423.167,211.333 423.5,211C 421.319,207.454 419.819,203.62 419,199.5C 416.79,198.368 416.29,196.868 417.5,195C 409.553,174.082 409.553,153.915 417.5,134.5C 419.008,132.819 420.008,130.819 420.5,128.5C 423.968,124.807 426.302,120.807 427.5,116.5C 427.897,117.525 428.563,117.692 429.5,117C 430.774,116.023 430.774,115.189 429.5,114.5C 430.808,113.768 432.142,112.934 433.5,112C 433.167,111.667 432.833,111.333 432.5,111C 433.448,110.517 434.448,110.351 435.5,110.5C 435.312,108.897 435.812,107.563 437,106.5C 437.333,106.833 437.667,107.167 438,107.5C 452.752,94.8076 469.586,88.9743 488.5,90C 493.333,90.8333 496.167,93.6667 497,98.5C 497.242,104.167 497.075,109.833 496.5,115.5C 492.698,131.195 490.031,147.195 488.5,163.5C 489.298,174.649 491.132,185.316 494,195.5C 498.06,200.728 501.393,206.395 504,212.5C 505.666,211.66 505.833,212.16 504.5,214C 506.3,215.812 507.967,217.645 509.5,219.5C 512.389,223.723 515.889,228.056 520,232.5C 520.283,237.069 522.283,241.069 526,244.5C 526.667,247.167 527.333,249.833 528,252.5C 528.425,259.87 528.591,267.037 528.5,274C 525.894,281.261 523.227,287.428 520.5,292.5C 519.167,292.833 519.167,293.167 520.5,293.5C 516.93,299.257 513.096,304.923 509,310.5C 508.544,314.294 506.544,316.961 503,318.5C 500.558,321.048 498.892,324.048 498,327.5C 496.693,328.772 495.193,329.772 493.5,330.5C 492.754,331.736 492.421,333.07 492.5,334.5C 488.187,336.331 485.353,339.665 484,344.5C 483.25,345.126 482.416,345.626 481.5,346C 481.833,346.333 482.167,346.667 482.5,347C 481.069,347.465 479.903,348.299 479,349.5C 473.806,357.695 468.973,366.195 464.5,375C 464.957,375.414 465.291,375.914 465.5,376.5C 463.656,379.533 462.656,382.866 462.5,386.5C 464.081,393.851 467.081,400.851 471.5,407.5C 471.833,408.5 472.5,409.167 473.5,409.5C 477.027,414.713 481.027,419.713 485.5,424.5C 485.291,425.086 484.957,425.586 484.5,426C 490.131,432.726 493.297,440.226 494,448.5C 494.861,455.975 494.194,463.309 492,470.5C 490.623,472.754 489.123,474.92 487.5,477C 497.644,479.594 506.644,484.26 514.5,491C 523.486,500.648 523.652,510.481 515,520.5C 510.371,525.413 504.871,529.247 498.5,532C 464.964,542.762 430.63,550.428 395.5,555C 374.854,555.466 354.354,555.632 334,555.5C 304.487,550.951 274.653,547.285 244.5,544.5C 230.373,544.969 215.707,545.969 200.5,547.5C 169.584,548.209 139.417,544.209 110,535.5C 100.23,535.224 90.73,533.057 81.5,529C 73.4667,524.471 66.1334,518.971 59.5,512.5C 47.1629,498.151 45.3296,482.484 54,465.5C 61.1947,458.994 69.3614,454.161 78.5,451C 72.6944,441.942 67.3611,433.275 62.5,425C 62.9574,424.586 63.2907,424.086 63.5,423.5C 62.0182,419.261 60.8516,414.927 60,410.5C 57.637,391.862 59.8037,373.862 66.5,356.5C 67.1641,355.352 67.3308,354.019 67,352.5C 67.6667,351.167 68.3333,351.167 69,352.5C 70.9303,346.804 73.7636,341.637 77.5,337C 76.5494,336.282 76.3828,335.449 77,334.5C 81.2916,329.86 85.2916,324.86 89,319.5C 90.128,317.655 90.628,315.655 90.5,313.5C 91.5,313.5 92.5,313.5 93.5,313.5C 93.5191,311.94 93.8524,310.44 94.5,309C 108.962,288.136 115.629,265.136 114.5,240C 113.245,233.735 111.745,227.902 110,222.5C 100.579,203.012 92.7456,182.846 86.5,162C 84.3758,134.317 93.0425,110.984 112.5,92C 117.317,90.4855 121.983,87.9855 126.5,84.5C 138.01,76.1411 151.343,73.3078 166.5,76C 168.167,77 169.833,78 171.5,79C 171.043,79.414 170.709,79.914 170.5,80.5C 171.852,83.1678 172.519,86.0011 172.5,89C 171.732,95.8792 170.732,102.713 169.5,109.5 Z M 178.5,211.5 C 180.675,213.982 182.675,216.648 184.5,219.5C 186.547,221.55 188.214,223.883 189.5,226.5C 197.966,242.57 197.299,258.236 187.5,273.5C 186.226,274.189 186.226,275.023 187.5,276C 186.364,277.145 185.364,278.312 184.5,279.5C 181.655,282.444 179.322,286.111 177.5,290.5C 176.833,291.167 176.167,291.833 175.5,292.5C 173.65,293.242 172.984,294.242 173.5,295.5C 165.495,304.724 157.328,314.391 149,324.5C 145.989,330.533 142.489,336.2 138.5,341.5C 137.922,340.453 137.256,340.62 136.5,342C 136.728,342.399 137.062,342.565 137.5,342.5C 137.631,343.239 137.464,343.906 137,344.5C 135.334,343.66 135.167,344.16 136.5,346C 134.782,348.627 133.282,351.46 132,354.5C 131.689,358.09 130.856,361.423 129.5,364.5C 129.5,365.167 129.5,365.833 129.5,366.5C 128.167,366.833 128.167,367.167 129.5,367.5C 129.249,376.282 131.249,384.448 135.5,392C 135.355,392.772 135.022,393.439 134.5,394C 137.328,394.637 139.328,396.304 140.5,399C 139.167,400.84 139.334,401.34 141,400.5C 148.746,410.075 154.746,421.075 159,433.5C 162.064,447.561 156.898,456.894 143.5,461.5C 137.495,463.15 131.329,464.483 125,465.5C 121.905,457.88 118.238,450.547 114,443.5C 113.405,442.101 113.572,440.768 114.5,439.5C 114.145,438.478 113.478,437.811 112.5,437.5C 112.607,435.621 112.107,435.288 111,436.5C 110.667,433.833 110.333,431.167 110,428.5C 108.984,429.634 108.317,429.301 108,427.5C 105.652,412.259 106.152,397.592 109.5,383.5C 109.692,379.898 111.026,376.898 113.5,374.5C 115.104,367.764 118.104,361.264 122.5,355C 122.167,354.667 121.833,354.333 121.5,354C 133.913,334.71 145.08,314.21 155,292.5C 156.604,286.329 158.437,280.329 160.5,274.5C 161.606,266.373 162.606,258.373 163.5,250.5C 163.5,249.5 163.5,248.5 163.5,247.5C 162.766,239.613 161.766,231.613 160.5,223.5C 160.608,222.558 160.941,221.725 161.5,221C 160.484,220.481 159.818,219.647 159.5,218.5C 158.508,214.573 157.842,210.906 157.5,207.5C 155.342,201.672 153.009,195.839 150.5,190C 150.645,189.228 150.978,188.561 151.5,188C 150.584,187.626 149.75,187.126 149,186.5C 143.449,172.447 137.782,158.78 132,145.5C 131.003,140.514 130.169,135.514 129.5,130.5C 128.167,130.5 126.833,130.5 125.5,130.5C 126.408,138.856 127.408,147.189 128.5,155.5C 129.768,157.905 130.435,160.572 130.5,163.5C 132.64,173.126 135.973,181.959 140.5,190C 140.167,190.333 139.833,190.667 139.5,191C 143.07,197.4 145.903,204.234 148,211.5C 150.365,221.09 152.365,231.09 154,241.5C 154.839,253.411 153.839,265.078 151,276.5C 150.355,277.646 149.522,278.646 148.5,279.5C 149.403,284.032 148.07,287.865 144.5,291C 144.833,291.333 145.167,291.667 145.5,292C 143.665,296.004 142.332,300.17 141.5,304.5C 140.448,304.351 139.448,304.517 138.5,305C 139.127,308.372 137.793,311.039 134.5,313C 134.833,313.333 135.167,313.667 135.5,314C 133.15,317.695 131.15,320.862 129.5,323.5C 127.883,326.805 126.049,330.472 124,334.5C 123.25,335.126 122.416,335.626 121.5,336C 121.972,338.399 120.972,340.399 118.5,342C 119.634,343.016 119.301,343.683 117.5,344C 118.634,345.016 118.301,345.683 116.5,346C 116.5,347 116.5,348 116.5,349C 94.0328,384.421 92.6994,420.255 112.5,456.5C 114.323,459.113 115.823,461.78 117,464.5C 115,463.833 113.667,462.5 113,460.5C 112.667,460.833 112.333,461.167 112,461.5C 110.065,459.898 107.899,458.731 105.5,458C 97.3,452.545 89.9667,447.545 83.5,443C 82.5336,440.901 81.2003,439.068 79.5,437.5C 80.8549,436.325 80.6883,435.325 79,434.5C 78.6667,434.833 78.3333,435.167 78,435.5C 64.0623,408.162 64.0623,380.496 78,352.5C 80.5838,346.383 84.0838,340.383 88.5,334.5C 96.789,322.73 104.122,311.397 110.5,300.5C 111.833,300.167 111.833,299.833 110.5,299.5C 110.712,297.616 111.712,296.283 113.5,295.5C 113.467,291.178 114.967,287.178 118,283.5C 124.037,264.183 125.037,244.849 121,225.5C 119.113,218.788 116.613,212.788 113.5,207.5C 113.709,206.914 114.043,206.414 114.5,206C 112.281,204.399 110.948,202.233 110.5,199.5C 111.833,199.167 111.833,198.833 110.5,198.5C 110.459,196.255 109.625,195.588 108,196.5C 105.305,188.358 102.471,180.358 99.5,172.5C 97.7366,168.57 96.4032,164.404 95.5,160C 95.4458,153.31 95.6124,146.477 96,139.5C 98.5317,127.417 103.365,117.084 110.5,108.5C 110.435,108.938 110.601,109.272 111,109.5C 111.833,108.667 112.667,107.833 113.5,107C 113.272,106.601 112.938,106.435 112.5,106.5C 113.57,102.88 115.737,101.213 119,101.5C 120.421,100.079 122.255,98.2454 124.5,96C 132.885,89.8078 142.219,85.8078 152.5,84C 156.091,83.2114 159.591,83.3781 163,84.5C 163.638,85.6086 164.138,86.7753 164.5,88C 160.617,105.699 157.451,123.532 155,141.5C 153.598,157.554 156.264,172.887 163,187.5C 166,193.167 169,198.833 172,204.5C 173.101,206.394 174.434,207.061 176,206.5C 177.094,208.078 177.928,209.745 178.5,211.5 Z M 488.5,100.5 C 489.912,102.23 489.578,103.73 487.5,105C 488.811,107.274 488.811,109.44 487.5,111.5C 484.679,126.094 482.179,140.761 480,155.5C 478.124,176.294 482.458,194.627 493,210.5C 494.562,215.906 497.562,220.239 502,223.5C 505.928,229.45 509.928,235.45 514,241.5C 520.439,254.211 521.106,267.211 516,280.5C 507.413,298.04 496.246,314.373 482.5,329.5C 480.861,331.806 478.861,333.806 476.5,335.5C 474.259,340.724 471.259,345.39 467.5,349.5C 467.34,351.153 466.674,352.486 465.5,353.5C 463.491,354.741 461.825,356.408 460.5,358.5C 460.709,359.086 461.043,359.586 461.5,360C 460.333,360.5 459.5,361.333 459,362.5C 451.07,378.539 451.903,394.206 461.5,409.5C 460.167,409.833 460.167,410.167 461.5,410.5C 463.415,412.705 465.415,414.872 467.5,417C 467.167,417.333 466.833,417.667 466.5,418C 467.579,418.956 468.745,419.789 470,420.5C 475.229,427.433 479.229,434.099 482,440.5C 483.565,446.089 484.399,451.589 484.5,457C 484.333,458.167 484.167,459.333 484,460.5C 483.346,459.304 482.846,459.304 482.5,460.5C 483.615,464.414 482.615,467.748 479.5,470.5C 479.158,471.338 478.492,471.672 477.5,471.5C 476.176,473.736 473.676,475.403 470,476.5C 469.667,476.167 469.333,475.833 469,475.5C 467.56,477.046 465.727,477.879 463.5,478C 458.5,478.779 453.5,479.112 448.5,479C 447.167,478 447.167,477 448.5,476C 446.431,475.676 446.098,474.842 447.5,473.5C 447.154,472.304 446.654,472.304 446,473.5C 443.709,468.189 441.376,462.856 439,457.5C 438.316,456.216 438.483,455.049 439.5,454C 438.672,453.085 437.672,452.419 436.5,452C 436.833,451.667 437.167,451.333 437.5,451C 435.333,449.144 434.666,446.977 435.5,444.5C 434.273,443.41 433.44,442.076 433,440.5C 430.366,423.597 431.366,407.264 436,391.5C 436.5,389.667 437.667,388.5 439.5,388C 438.978,387.439 438.645,386.772 438.5,386C 441.545,380.416 443.878,374.583 445.5,368.5C 447.942,368.646 448.609,367.813 447.5,366C 451.494,360.488 454.827,354.654 457.5,348.5C 458.3,346.427 459.633,344.76 461.5,343.5C 462.833,343.167 462.833,342.833 461.5,342.5C 464.304,335.562 468.137,329.229 473,323.5C 482.079,304.188 487.245,284.188 488.5,263.5C 487.852,254.98 486.852,246.48 485.5,238C 485.585,236.893 485.919,235.893 486.5,235C 485.151,234.228 484.318,233.061 484,231.5C 479.783,212.822 472.783,194.822 463,177.5C 462.187,175.564 461.687,173.564 461.5,171.5C 462.833,171.167 462.833,170.833 461.5,170.5C 457.23,163.492 454.563,154.825 453.5,144.5C 452.167,144.5 450.833,144.5 449.5,144.5C 451.129,157.955 453.296,171.622 456,185.5C 459.574,194.235 463.074,202.235 466.5,209.5C 468.443,210.078 468.777,211.078 467.5,212.5C 468.919,216.988 470.752,221.321 473,225.5C 475.564,235.626 477.564,245.959 479,256.5C 480.022,262.68 479.522,268.68 477.5,274.5C 479.139,278.506 478.473,282.006 475.5,285C 476.097,286.062 476.43,287.228 476.5,288.5C 475.714,292.55 474.714,295.55 473.5,297.5C 473.585,300.649 472.585,303.316 470.5,305.5C 468.91,309.768 467.41,314.101 466,318.5C 465.333,319.833 464.667,319.833 464,318.5C 461.271,325.694 457.604,332.361 453,338.5C 450.481,345.202 447.148,351.536 443,357.5C 442.51,358.793 442.343,360.127 442.5,361.5C 440.058,361.354 439.391,362.187 440.5,364C 434.042,374.544 429.375,385.544 426.5,397C 425.692,397.308 425.025,397.808 424.5,398.5C 425.562,402.5 425.395,406.5 424,410.5C 422.642,425.301 424.475,439.634 429.5,453.5C 431.22,454.751 431.553,456.251 430.5,458C 432.394,459.101 433.061,460.434 432.5,462C 435.244,467.49 438.244,472.823 441.5,478C 436.068,475.785 430.735,473.285 425.5,470.5C 421.946,469.231 418.946,467.231 416.5,464.5C 416.938,464.565 417.272,464.399 417.5,464C 416.667,463.167 415.833,462.333 415,461.5C 414.601,461.728 414.435,462.062 414.5,462.5C 412.383,460.17 409.883,458.17 407,456.5C 406.487,454.479 405.32,452.979 403.5,452C 404.654,451.086 404.487,450.253 403,449.5C 402.667,449.833 402.333,450.167 402,450.5C 400.956,448.285 400.29,445.952 400,443.5C 399.333,442.167 398.667,442.167 398,443.5C 395.926,437.293 394.426,430.96 393.5,424.5C 392.71,423.391 392.21,422.058 392,420.5C 391.333,412.833 391.333,405.167 392,397.5C 392.654,398.696 393.154,398.696 393.5,397.5C 393.013,396.554 392.68,395.554 392.5,394.5C 393.667,389.833 394.833,385.167 396,380.5C 396.5,379.333 397.333,378.5 398.5,378C 397.446,376.612 397.28,375.112 398,373.5C 399.311,370.771 401.477,368.104 404.5,365.5C 404.291,364.914 403.957,364.414 403.5,364C 406.369,358.668 409.702,353.835 413.5,349.5C 414.833,349.167 414.833,348.833 413.5,348.5C 416.762,343.636 420.262,338.969 424,334.5C 424.52,330.265 426.52,326.932 430,324.5C 431.087,320.52 433.254,317.353 436.5,315C 435.833,314.667 435.167,314.333 434.5,314C 435.167,312 436.5,310.667 438.5,310C 438.167,309.667 437.833,309.333 437.5,309C 439.855,303.959 442.189,298.959 444.5,294C 444.384,292.732 444.051,291.398 443.5,290C 445.292,285.273 446.625,280.773 447.5,276.5C 447.5,268.5 447.5,260.5 447.5,252.5C 446.189,250.44 446.189,248.274 447.5,246C 441.723,228.568 434.556,211.401 426,194.5C 413.575,161.653 420.408,134.319 446.5,112.5C 447.078,113.547 447.744,113.38 448.5,112C 448.272,111.601 447.938,111.435 447.5,111.5C 449.205,109.808 451.205,108.475 453.5,107.5C 454.705,105.862 456.038,105.529 457.5,106.5C 458.413,103.7 460.413,102.367 463.5,102.5C 469.094,99.8386 475.094,98.1719 481.5,97.5C 483.375,97.6299 485.208,97.9633 487,98.5C 488.03,98.8361 488.53,99.5028 488.5,100.5 Z M 429.5,114.5 C 430.774,115.189 430.774,116.023 429.5,117C 428.563,117.692 427.897,117.525 427.5,116.5C 428.5,116.167 429.167,115.5 429.5,114.5 Z M 403.5,464.5 C 406.876,467.878 410.543,470.878 414.5,473.5C 414.833,474.833 415.167,474.833 415.5,473.5C 419.3,475.908 422.966,478.575 426.5,481.5C 427.086,481.291 427.586,480.957 428,480.5C 430.814,481.966 433.647,483.466 436.5,485C 443.108,486.423 449.775,487.923 456.5,489.5C 465.035,488.069 473.702,486.236 482.5,484C 489.045,487.44 495.712,490.606 502.5,493.5C 507.369,496.733 510.369,501.233 511.5,507C 510.699,509.598 509.366,511.931 507.5,514C 489.816,524.058 471.15,530.558 451.5,533.5C 411.831,543.544 371.831,546.877 331.5,543.5C 311.195,540.587 290.862,537.753 270.5,535C 238.005,534.351 206.338,534.517 175.5,535.5C 147.278,532.622 119.612,527.122 92.5,519C 86.7126,516.606 81.0459,513.94 75.5,511C 70.6866,506.346 66.5199,501.18 63,495.5C 59.0229,486.208 60.1895,477.708 66.5,470C 74.3361,465.885 82.3361,462.051 90.5,458.5C 91.1067,458.624 91.44,458.957 91.5,459.5C 95.218,461.586 98.8846,463.586 102.5,465.5C 100.169,465.859 100.335,466.526 103,467.5C 103.399,467.272 103.565,466.938 103.5,466.5C 107.102,468.547 110.935,470.214 115,471.5C 118.129,470.095 120.796,470.762 123,473.5C 123.414,473.043 123.914,472.709 124.5,472.5C 134.418,475.376 144.085,474.542 153.5,470C 156.239,468.974 158.572,467.474 160.5,465.5C 161.833,465.167 161.833,464.833 160.5,464.5C 163.075,461.681 165.408,458.681 167.5,455.5C 168.524,450.545 169.357,445.545 170,440.5C 178.631,433.39 188.464,428.557 199.5,426C 214.182,422.029 228.848,418.863 243.5,416.5C 257.945,416.588 272.445,416.588 287,416.5C 316.265,417.678 345.431,420.844 374.5,426C 378.589,428.127 382.423,430.627 386,433.5C 388.467,442.434 392.467,450.434 398,457.5C 398.333,458.833 398.667,460.167 399,461.5C 399.333,461.167 399.667,460.833 400,460.5C 400.483,461.448 400.649,462.448 400.5,463.5C 401.791,463.263 402.791,463.596 403.5,464.5 Z"/></g>
<g><path style="opacity:0.004" fill="#000000" d="M 172.5,81.5 C 173.833,82.1667 173.833,82.1667 172.5,81.5 Z"/></g>
<g><path style="opacity:0.004" fill="#000000" d="M 171.5,101.5 C 172.833,102.167 172.833,102.167 171.5,101.5 Z"/></g>
<g><path style="opacity:0.004" fill="#000000" d="M 169.5,109.5 C 170.833,110.167 170.833,110.167 169.5,109.5 Z"/></g>
<g><path style="opacity:0.004" fill="#000000" d="M 496.5,115.5 C 497.833,116.167 497.833,116.167 496.5,115.5 Z"/></g>
<g><path style="opacity:0.004" fill="#000000" d="M 420.5,128.5 C 419.833,127.167 419.833,127.167 420.5,128.5 Z"/></g>
<g><path style="opacity:0.004" fill="#000000" d="M 417.5,134.5 C 416.833,133.167 416.833,133.167 417.5,134.5 Z"/></g>
<g><path style="opacity:0.004" fill="#000000" d="M 168.5,175.5 C 169.833,176.167 169.833,176.167 168.5,175.5 Z"/></g>
<g><path style="opacity:0.004" fill="#000000" d="M 509.5,218.5 C 510.833,219.167 510.833,219.167 509.5,218.5 Z"/></g>
<g><path style="opacity:0.004" fill="#000000" d="M 430.5,226.5 C 429.833,227.167 429.833,227.167 430.5,226.5 Z"/></g>
<g><path style="opacity:0.004" fill="#000000" d="M 520.5,292.5 C 521.833,293.167 521.833,293.167 520.5,292.5 Z"/></g>
<g><path style="opacity:0.004" fill="#000000" d="M 174.5,309.5 C 175.833,310.167 175.833,310.167 174.5,309.5 Z"/></g>
<g><path style="opacity:0.004" fill="#000000" d="M 170.5,313.5 C 170.833,313.5 171.167,313.5 171.5,313.5C 171.315,314.17 170.981,314.17 170.5,313.5 Z"/></g>
<g><path style="opacity:0.004" fill="#000000" d="M 150.5,341.5 C 151.833,342.167 151.833,342.167 150.5,341.5 Z"/></g>
<g><path style="opacity:0.004" fill="#000000" d="M 149.5,342.5 C 149.833,342.5 150.167,342.5 150.5,342.5C 150.315,343.17 149.981,343.17 149.5,342.5 Z"/></g>
<g><path style="opacity:0.004" fill="#000000" d="M 66.5,356.5 C 65.8333,355.167 65.8333,355.167 66.5,356.5 Z"/></g>
<g><path style="opacity:0.004" fill="#000000" d="M 471.5,406.5 C 472.833,407.167 472.833,407.167 471.5,406.5 Z"/></g>
<g><path style="opacity:0.004" fill="#000000" d="M 473.5,408.5 C 474.833,409.167 474.833,409.167 473.5,408.5 Z"/></g>
<g><path style="opacity:0.009" fill="#000000" d="M 300.5,441.5 C 304.224,440.773 306.891,442.106 308.5,445.5C 304.706,446.768 301.54,449.101 299,452.5C 298.517,451.552 298.351,450.552 298.5,449.5C 297.127,449.657 295.793,449.49 294.5,449C 295.69,445.75 297.69,443.25 300.5,441.5 Z"/></g>
<g><path style="opacity:0.009" fill="#000000" d="M 194.5,449.5 C 196.844,449.979 198.178,451.479 198.5,454C 196.727,457.938 194.06,461.105 190.5,463.5C 189.692,463.192 189.025,462.692 188.5,462C 188.626,460.026 188.792,457.859 189,455.5C 190.021,452.65 191.854,450.65 194.5,449.5 Z"/></g>
<g><path style="opacity:0.008" fill="#000000" d="M 379.5,467.5 C 384.815,468.45 385.648,470.784 382,474.5C 380.457,472.622 378.624,471.122 376.5,470C 377.571,469.148 378.571,468.315 379.5,467.5 Z"/></g>
<g><path style="opacity:0.006" fill="#000000" d="M 126.5,485.5 C 128.958,485.227 130.625,486.227 131.5,488.5C 129.406,492.184 127.74,496.017 126.5,500C 122.553,498.754 121.72,496.254 124,492.5C 125.011,493.337 126.178,493.67 127.5,493.5C 127.5,492.167 127.5,490.833 127.5,489.5C 126.448,489.649 125.448,489.483 124.5,489C 125.305,487.887 125.972,486.721 126.5,485.5 Z"/></g>
<g><path style="opacity:0.005" fill="#000000" d="M 256.5,485.5 C 257.043,485.56 257.376,485.893 257.5,486.5C 256.833,487.5 256.167,488.5 255.5,489.5C 256.888,491.109 257.888,492.942 258.5,495C 258.387,496.28 257.72,497.113 256.5,497.5C 254.684,495.882 253.351,493.882 252.5,491.5C 253.467,489.21 254.8,487.21 256.5,485.5 Z"/></g>
<g><path style="opacity:0.007" fill="#000000" d="M 182.5,498.5 C 187.093,499.868 187.759,502.368 184.5,506C 184.833,506.333 185.167,506.667 185.5,507C 182.409,512.829 180.076,512.329 178.5,505.5C 179.086,502.651 180.42,500.318 182.5,498.5 Z"/></g>
<g><path style="opacity:0.004" fill="#000000" d="M 451.5,499.5 C 456.778,500.605 456.612,501.605 451,502.5C 450.53,501.423 450.697,500.423 451.5,499.5 Z"/></g>
<g><path style="opacity:0.007" fill="#000000" d="M 449.5,510.5 C 453.079,510.766 453.413,512.099 450.5,514.5C 449.675,515.386 448.675,515.719 447.5,515.5C 447.365,513.446 448.032,511.779 449.5,510.5 Z"/></g>
<g><path style="opacity:0.015" fill="#000000" d="M 333.5,512.5 C 336.388,512.22 337.888,513.553 338,516.5C 338.821,519.554 338.655,522.554 337.5,525.5C 331.78,522.724 330.447,518.391 333.5,512.5 Z"/></g>
</svg>
