<?xml version="1.0" encoding="UTF-8"?>
<!DOCTYPE svg PUBLIC "-//W3C//DTD SVG 1.1//EN" "http://www.w3.org/Graphics/SVG/1.1/DTD/svg11.dtd">
<svg xmlns="http://www.w3.org/2000/svg" version="1.1" width="611px" height="611px" style="shape-rendering:geometricPrecision; text-rendering:geometricPrecision; image-rendering:optimizeQuality; fill-rule:evenodd; clip-rule:evenodd" xmlns:xlink="http://www.w3.org/1999/xlink">
<g><path style="opacity:0.558" fill="#000000" d="M 280.5,92.5 C 304.624,91.79 316.124,103.457 315,127.5C 309.925,144.632 298.425,152.132 280.5,150C 263.666,145.179 256.166,134.013 258,116.5C 260.579,103.758 268.079,95.758 280.5,92.5 Z M 281.5,97.5 C 295.963,96.4762 305.463,102.81 310,116.5C 311.51,130.98 305.343,140.48 291.5,145C 276.745,146.909 267.245,140.742 263,126.5C 261.299,111.719 267.466,102.053 281.5,97.5 Z"/></g>
<g><path style="opacity:0.006" fill="#000000" d="M 345.5,104.5 C 347.136,105.749 348.303,107.416 349,109.5C 351.014,114.495 352.681,119.495 354,124.5C 347.968,119.249 345.135,112.582 345.5,104.5 Z"/></g>
<g><path style="opacity:0.554" fill="#000000" d="M 402.5,117.5 C 426.121,116.621 437.621,127.954 437,151.5C 432.309,167.767 421.475,175.601 404.5,175C 386.372,170.579 378.206,159.079 380,140.5C 383.015,128.319 390.515,120.653 402.5,117.5 Z M 403.5,122.5 C 418.238,121.083 427.738,127.416 432,141.5C 433.202,155.59 427.035,164.756 413.5,169C 398.745,170.909 389.245,164.742 385,150.5C 383.78,136.23 389.947,126.896 403.5,122.5 Z"/></g>
<g><path style="opacity:0.517" fill="#000000" d="M 301.5,124.5 C 302.833,124.5 304.167,124.5 305.5,124.5C 305.84,128.131 305.006,131.464 303,134.5C 301.211,136.229 299.044,136.896 296.5,136.5C 298.167,132.5 299.833,128.5 301.5,124.5 Z"/></g>
<g><path style="opacity:0.006" fill="#000000" d="M 467.5,128.5 C 470.438,133.148 472.938,138.148 475,143.5C 475.402,144.872 475.902,146.205 476.5,147.5C 476.167,147.833 475.833,148.167 475.5,148.5C 469.917,143.099 467.25,136.432 467.5,128.5 Z"/></g>
<g><path style="opacity:0.271" fill="#000000" d="M 288.5,137.5 C 294.669,136.878 295.836,138.878 292,143.5C 289.09,142.55 287.923,140.55 288.5,137.5 Z"/></g>
<g><path style="opacity:0.517" fill="#000000" d="M 423.5,148.5 C 424.833,148.5 426.167,148.5 427.5,148.5C 427.84,152.131 427.006,155.464 425,158.5C 423.211,160.229 421.044,160.896 418.5,160.5C 420.167,156.5 421.833,152.5 423.5,148.5 Z"/></g>
<g><path style="opacity:0.009" fill="#000000" d="M 288.5,156.5 C 296.832,157.328 301.832,161.828 303.5,170C 303.491,171.404 302.991,172.57 302,173.5C 300.348,162.927 294.515,159.427 284.5,163C 277.422,173.371 280.089,180.204 292.5,183.5C 282.045,185.06 276.712,180.394 276.5,169.5C 277.756,162.579 281.756,158.246 288.5,156.5 Z"/></g>
<g><path style="opacity:0.004" fill="#000000" d="M 348.5,160.5 C 356.942,159.111 361.942,162.611 363.5,171C 363.304,176.25 360.804,179.75 356,181.5C 355.5,181.167 355,180.833 354.5,180.5C 357.856,178.782 359.356,176.115 359,172.5C 357.684,175.028 356.517,175.028 355.5,172.5C 356.083,170.998 356.916,169.665 358,168.5C 359.247,170.881 359.58,170.547 359,167.5C 356.182,163.675 352.348,161.842 347.5,162C 348.056,161.617 348.389,161.117 348.5,160.5 Z"/></g>
<g><path style="opacity:0.304" fill="#000000" d="M 411.5,161.5 C 416.694,161.416 417.694,163.416 414.5,167.5C 412.022,166.278 411.022,164.278 411.5,161.5 Z"/></g>
<g><path style="opacity:0.547" fill="#000000" d="M 321.5,171.5 C 338.938,171.466 350.105,179.799 355,196.5C 356.142,213.707 348.309,224.54 331.5,229C 308.303,229.803 297.137,218.637 298,195.5C 301.376,182.959 309.209,174.959 321.5,171.5 Z M 321.5,177.5 C 340.502,177.336 350.002,186.67 350,205.5C 342.905,222.751 330.738,227.918 313.5,221C 298.833,207.667 298.833,194.333 313.5,181C 316.309,179.907 318.976,178.74 321.5,177.5 Z"/></g>
<g><path style="opacity:0.004" fill="#000000" d="M 293.5,172.5 C 296.927,173.596 296.927,175.262 293.5,177.5C 292.566,175.905 292.566,174.239 293.5,172.5 Z"/></g>
<g><path style="opacity:0.006" fill="#000000" d="M 385.5,183.5 C 387.136,184.749 388.303,186.416 389,188.5C 389.987,193.478 391.82,198.144 394.5,202.5C 394.167,202.833 393.833,203.167 393.5,203.5C 387.128,198.396 384.461,191.73 385.5,183.5 Z"/></g>
<g><path style="opacity:0.556" fill="#000000" d="M 183.5,190.5 C 208.893,190.725 219.726,203.392 216,228.5C 212.649,239.183 205.483,245.683 194.5,248C 168.012,248.512 156.846,235.678 161,209.5C 165.131,199.038 172.631,192.705 183.5,190.5 Z M 184.5,195.5 C 198.725,194.565 207.892,200.898 212,214.5C 213.485,229.042 207.318,238.542 193.5,243C 174,243.5 164.5,234 165,214.5C 168.086,204.579 174.586,198.246 184.5,195.5 Z"/></g>
<g><path style="opacity:0.006" fill="#000000" d="M 247.5,202.5 C 248.496,202.414 249.329,202.748 250,203.5C 251.556,209.775 254.056,215.608 257.5,221C 256.5,221.667 255.5,221.667 254.5,221C 249.908,215.729 247.575,209.563 247.5,202.5 Z"/></g>
<g><path style="opacity:0.517" fill="#000000" d="M 340.5,203.5 C 341.833,203.5 343.167,203.5 344.5,203.5C 344.84,207.131 344.006,210.464 342,213.5C 340.211,215.229 338.044,215.896 335.5,215.5C 337.167,211.5 338.833,207.5 340.5,203.5 Z"/></g>
<g><path style="opacity:0.303" fill="#000000" d="M 328.5,216.5 C 333.694,216.416 334.694,218.416 331.5,222.5C 329.022,221.278 328.022,219.278 328.5,216.5 Z"/></g>
<g><path style="opacity:0.481" fill="#000000" d="M 203.5,221.5 C 204.833,221.5 206.167,221.5 207.5,221.5C 207.88,226.073 206.547,230.073 203.5,233.5C 201.955,234.452 200.288,234.785 198.5,234.5C 199.7,229.974 201.367,225.64 203.5,221.5 Z"/></g>
<g><path style="opacity:0.331" fill="#000000" d="M 191.5,235.5 C 195.138,234.737 196.638,236.07 196,239.5C 192.331,241.009 190.831,239.676 191.5,235.5 Z"/></g>
<g><path style="opacity:0.518" fill="#000000" d="M 387.5,236.5 C 390.794,236.259 393.794,237.092 396.5,239C 400.655,242.988 404.655,247.155 408.5,251.5C 416.221,268.445 412.221,281.945 396.5,292C 375.586,299.46 361.753,292.626 355,271.5C 354.291,249.044 365.125,237.377 387.5,236.5 Z M 378.5,242.5 C 379.239,242.369 379.906,242.536 380.5,243C 379.446,244.388 379.28,245.888 380,247.5C 381.422,245.256 383.256,243.59 385.5,242.5C 388.941,243.369 392.274,244.536 395.5,246C 396.274,248.405 396.774,250.905 397,253.5C 398,252.5 399,251.5 400,250.5C 408.687,259.017 409.687,268.35 403,278.5C 394.328,290.025 383.495,292.525 370.5,286C 355.833,272.667 355.833,259.333 370.5,246C 373.309,244.907 375.976,243.74 378.5,242.5 Z"/></g>
<g><path style="opacity:0.448" fill="#000000" d="M 313.5,259.5 C 314.167,259.5 314.5,259.167 314.5,258.5C 315.167,258.5 315.5,258.167 315.5,257.5C 316.79,256.942 317.623,255.942 318,254.5C 318.76,250.775 318.593,247.108 317.5,243.5C 317.808,242.692 318.308,242.025 319,241.5C 324.011,246.575 324.677,252.241 321,258.5C 318.291,261.378 315.458,264.044 312.5,266.5C 317.929,276.898 317.762,287.231 312,297.5C 300.039,311.687 285.873,314.187 269.5,305C 256.752,292.023 255.252,277.856 265,262.5C 280.231,248.784 295.231,248.784 310,262.5C 311.518,261.837 312.685,260.837 313.5,259.5 Z M 289.5,300.5 C 286.855,295.637 284.355,290.637 282,285.5C 281.368,292.938 283.535,299.438 288.5,305C 275.365,304.875 267.198,298.375 264,285.5C 262.574,271.254 268.741,262.088 282.5,258C 285.5,257.333 288.5,257.333 291.5,258C 295.186,263.849 300.519,267.182 307.5,268C 315.489,286.204 310.155,298.704 291.5,305.5C 290.05,304.15 289.383,302.484 289.5,300.5 Z M 298.5,260.5 C 299.756,260.461 300.756,260.961 301.5,262C 300.002,262.585 299.002,262.085 298.5,260.5 Z"/></g>
<g><path style="opacity:0.006" fill="#000000" d="M 442.5,249.5 C 443.497,249.47 444.164,249.97 444.5,251C 446.138,256.779 448.472,262.279 451.5,267.5C 451.167,267.833 450.833,268.167 450.5,268.5C 443.955,263.88 441.288,257.546 442.5,249.5 Z"/></g>
<g><path style="opacity:0.006" fill="#000000" d="M 315.5,257.5 C 314.833,257.5 314.5,257.833 314.5,258.5C 313.833,258.5 313.5,258.833 313.5,259.5C 312.167,259.5 310.833,259.5 309.5,259.5C 309.848,255.806 311.515,252.806 314.5,250.5C 315.881,251 316.547,252 316.5,253.5C 316.154,254.849 315.821,256.183 315.5,257.5 Z"/></g>
<g><path style="opacity:0.006" fill="#000000" d="M 346.5,264.5 C 348.284,265.574 349.451,267.24 350,269.5C 352.014,274.495 353.681,279.495 355,284.5C 348.968,279.249 346.135,272.582 346.5,264.5 Z"/></g>
<g><path style="opacity:0.517" fill="#000000" d="M 397.5,268.5 C 398.833,268.5 400.167,268.5 401.5,268.5C 401.84,272.131 401.006,275.464 399,278.5C 397.211,280.229 395.044,280.896 392.5,280.5C 394.167,276.5 395.833,272.5 397.5,268.5 Z"/></g>
<g><path style="opacity:0.555" fill="#000000" d="M 216.5,273.5 C 240.638,272.804 252.138,284.471 251,308.5C 245.925,325.632 234.425,333.132 216.5,331C 199.651,326.141 192.151,314.975 194,297.5C 196.579,284.758 204.079,276.758 216.5,273.5 Z M 217.5,278.5 C 236.966,278.466 246.466,288.132 246,307.5C 239.225,325.097 227.058,330.264 209.5,323C 194.902,309.366 194.902,295.699 209.5,282C 212.309,280.907 214.976,279.74 217.5,278.5 Z"/></g>
<g><path style="opacity:0.303" fill="#000000" d="M 385.5,281.5 C 390.694,281.416 391.694,283.416 388.5,287.5C 386.022,286.278 385.022,284.278 385.5,281.5 Z"/></g>
<g><path style="opacity:0.474" fill="#000000" d="M 302.5,283.5 C 303.833,283.5 305.167,283.5 306.5,283.5C 306.737,287.41 305.904,291.077 304,294.5C 302.211,296.229 300.044,296.896 297.5,296.5C 298.908,292.026 300.575,287.693 302.5,283.5 Z"/></g>
<g><path style="opacity:0.292" fill="#000000" d="M 289.5,300.5 C 289.5,299.5 289.5,298.5 289.5,297.5C 295.669,296.878 296.836,298.878 293,303.5C 291.961,302.29 290.794,301.29 289.5,300.5 Z"/></g>
<g><path style="opacity:0.513" fill="#000000" d="M 313.5,304.5 C 338.24,304.573 349.24,316.907 346.5,341.5C 348.06,341.481 349.56,341.148 351,340.5C 352.257,340.85 352.591,341.517 352,342.5C 349.57,343.965 347.07,345.298 344.5,346.5C 336.571,360.126 324.905,364.959 309.5,361C 298.606,356.402 292.106,348.236 290,336.5C 290.32,320.155 298.153,309.488 313.5,304.5 Z M 314.5,309.5 C 330.697,309.199 340.03,317.032 342.5,333C 342.363,335.898 341.863,338.731 341,341.5C 339.989,342.337 338.822,342.67 337.5,342.5C 337.5,340.167 337.5,337.833 337.5,335.5C 336.167,335.5 334.833,335.5 333.5,335.5C 333.509,337.308 333.009,338.975 332,340.5C 329.056,339.277 326.556,337.444 324.5,335C 323.365,334.251 322.365,334.417 321.5,335.5C 323.307,339.141 325.974,341.974 329.5,344C 328.663,345.011 328.33,346.178 328.5,347.5C 339.044,344.422 340.044,346.588 331.5,354C 311.112,361.471 299.112,354.471 295.5,333C 296.903,321.104 303.237,313.271 314.5,309.5 Z"/></g>
<g><path style="opacity:0.502" fill="#000000" d="M 237.5,305.5 C 238.833,305.5 240.167,305.5 241.5,305.5C 241.84,309.131 241.006,312.464 239,315.5C 230.672,318.498 229.672,316.832 236,310.5C 237.009,308.975 237.509,307.308 237.5,305.5 Z"/></g>
<g><path style="opacity:0.005" fill="#000000" d="M 378.5,315.5 C 379.117,315.611 379.617,315.944 380,316.5C 382.399,323.266 384.733,329.933 387,336.5C 379.951,331.181 377.117,324.181 378.5,315.5 Z"/></g>
<g><path style="opacity:0.317" fill="#000000" d="M 224.5,318.5 C 229.472,318.242 230.639,320.242 228,324.5C 225.09,323.55 223.923,321.55 224.5,318.5 Z"/></g>
<g><path style="opacity:0.006" fill="#000000" d="M 452.5,342.5 C 455.102,341.031 457.269,341.698 459,344.5C 462.302,349.997 461.969,355.331 458,360.5C 454.53,363.352 450.697,364.019 446.5,362.5C 455.964,360.232 459.131,354.565 456,345.5C 454.961,344.29 453.794,343.29 452.5,342.5 Z"/></g>
<g><path style="opacity:0.004" fill="#000000" d="M 259.5,345.5 C 260.833,346.167 260.833,346.167 259.5,345.5 Z"/></g>
<g><path style="opacity:0.004" fill="#000000" d="M 261.5,347.5 C 261.735,346.903 262.235,346.57 263,346.5C 266.363,347.94 269.863,348.94 273.5,349.5C 277.134,348.404 280.801,347.904 284.5,348C 276.683,354.135 269.016,353.968 261.5,347.5 Z"/></g>
<g><path style="opacity:0.004" fill="#000000" d="M 452.5,347.5 C 456.16,350.022 455.993,352.689 452,355.5C 451.57,352.808 451.737,350.141 452.5,347.5 Z"/></g>
<g><path style="opacity:0.331" fill="#000000" d="M 321.5,349.5 C 325.138,348.737 326.638,350.07 326,353.5C 322.331,355.009 320.831,353.676 321.5,349.5 Z"/></g>
<g><path style="opacity:0.556" fill="#000000" d="M 356.5,363.5 C 381.893,363.725 392.726,376.392 389,401.5C 383.252,416.297 372.418,422.797 356.5,421C 343.36,418.527 335.527,410.694 333,397.5C 331.688,379.672 339.522,368.339 356.5,363.5 Z M 357.5,368.5 C 371.725,367.565 380.892,373.898 385,387.5C 386.068,401.754 379.902,411.254 366.5,416C 347.03,416.53 337.53,407.03 338,387.5C 341.112,377.553 347.612,371.219 357.5,368.5 Z"/></g>
<g><path style="opacity:0.006" fill="#000000" d="M 420.5,375.5 C 421.496,375.414 422.329,375.748 423,376.5C 424.539,382.745 427.039,388.578 430.5,394C 428.097,394.63 426.263,393.797 425,391.5C 422.253,386.511 420.753,381.178 420.5,375.5 Z"/></g>
<g><path style="opacity:0.556" fill="#000000" d="M 282.5,378.5 C 306.644,377.81 318.144,389.477 317,413.5C 314.061,426.106 306.228,433.606 293.5,436C 270.328,436.828 259.161,425.661 260,402.5C 262.566,389.77 270.066,381.77 282.5,378.5 Z M 283.5,383.5 C 297.963,382.476 307.463,388.81 312,402.5C 313.51,416.98 307.343,426.48 293.5,431C 278.745,432.909 269.245,426.742 265,412.5C 263.299,397.719 269.466,388.053 283.5,383.5 Z"/></g>
<g><path style="opacity:0.057" fill="#000000" d="M 350.5,382.5 C 351.239,382.369 351.906,382.536 352.5,383C 348.222,395.605 351.889,405.105 363.5,411.5C 364.386,410.675 364.719,409.675 364.5,408.5C 368.138,407.737 369.638,409.07 369,412.5C 367.23,414.418 365.063,414.918 362.5,414C 348.747,407.243 344.747,396.743 350.5,382.5 Z"/></g>
<g><path style="opacity:0.517" fill="#000000" d="M 376.5,394.5 C 377.833,394.5 379.167,394.5 380.5,394.5C 380.84,398.131 380.006,401.464 378,404.5C 376.211,406.229 374.044,406.896 371.5,406.5C 373.167,402.5 374.833,398.5 376.5,394.5 Z"/></g>
<g><path style="opacity:0.517" fill="#000000" d="M 303.5,410.5 C 304.833,410.5 306.167,410.5 307.5,410.5C 307.84,414.131 307.006,417.464 305,420.5C 303.211,422.229 301.044,422.896 298.5,422.5C 300.167,418.5 301.833,414.5 303.5,410.5 Z"/></g>
<g><path style="opacity:0.317" fill="#000000" d="M 291.5,423.5 C 296.923,423.603 297.756,425.603 294,429.5C 291.961,428.022 291.128,426.022 291.5,423.5 Z"/></g>
<g><path style="opacity:0.555" fill="#000000" d="M 328.5,451.5 C 352.638,450.804 364.138,462.471 363,486.5C 357.891,503.583 346.391,511.083 328.5,509C 311.651,504.141 304.151,492.975 306,475.5C 308.606,462.732 316.106,454.732 328.5,451.5 Z M 329.5,456.5 C 348.976,456.475 358.476,466.142 358,485.5C 353.254,498.902 343.754,505.068 329.5,504C 312.122,497.539 306.955,485.706 314,468.5C 317.637,462.345 322.804,458.345 329.5,456.5 Z"/></g>
<g><path style="opacity:0.006" fill="#000000" d="M 393.5,463.5 C 396.438,468.148 398.938,473.148 401,478.5C 401.402,479.872 401.902,481.205 402.5,482.5C 402.167,482.833 401.833,483.167 401.5,483.5C 395.529,478.272 392.862,471.605 393.5,463.5 Z"/></g>
<g><path style="opacity:0.462" fill="#000000" d="M 349.5,483.5 C 350.833,483.5 352.167,483.5 353.5,483.5C 354.334,491.233 351,495.233 343.5,495.5C 345.071,491.269 347.071,487.269 349.5,483.5 Z"/></g>
<g><path style="opacity:0.304" fill="#000000" d="M 336.5,496.5 C 341.694,496.416 342.694,498.416 339.5,502.5C 337.022,501.278 336.022,499.278 336.5,496.5 Z"/></g>
</svg>
