<?xml version="1.0" encoding="UTF-8"?>
<!DOCTYPE svg PUBLIC "-//W3C//DTD SVG 1.1//EN" "http://www.w3.org/Graphics/SVG/1.1/DTD/svg11.dtd">
<svg xmlns="http://www.w3.org/2000/svg" version="1.1" width="611px" height="611px" style="shape-rendering:geometricPrecision; text-rendering:geometricPrecision; image-rendering:optimizeQuality; fill-rule:evenodd; clip-rule:evenodd" xmlns:xlink="http://www.w3.org/1999/xlink">
<g><path style="opacity:0.777" fill="#000000" d="M 306.5,160.5 C 316.737,160.652 326.903,160.652 337,160.5C 344.079,161.644 350.912,163.477 357.5,166C 364.12,171.978 369.286,179.145 373,187.5C 378.936,202.383 383.436,217.716 386.5,233.5C 385.772,235.155 385.605,236.821 386,238.5C 403.985,249.164 419.318,262.831 432,279.5C 434.504,284.509 437.004,289.509 439.5,294.5C 446.992,271.853 460.658,254.02 480.5,241C 486.5,237.667 492.5,234.333 498.5,231C 506.77,228.45 515.103,228.116 523.5,230C 531.21,234.257 533.71,240.757 531,249.5C 528.981,253.212 527.148,257.046 525.5,261C 525.905,261.945 526.572,262.612 527.5,263C 535.113,263.649 542.113,265.983 548.5,270C 552.766,277.23 552.932,284.73 549,292.5C 545.578,297.678 541.911,302.678 538,307.5C 536.85,309.754 536.516,312.087 537,314.5C 545.238,319.081 552.572,324.748 559,331.5C 562.853,340.598 561.353,348.764 554.5,356C 551.537,357.961 548.871,360.294 546.5,363C 537.779,366.442 529.945,371.275 523,377.5C 522.833,378.167 522.667,378.833 522.5,379.5C 525.126,382.855 527.293,386.522 529,390.5C 530.342,409.15 521.842,416.317 503.5,412C 493.586,408.778 484.586,403.778 476.5,397C 473.281,393.448 470.448,389.615 468,385.5C 463.405,381.461 460.071,376.461 458,370.5C 449.807,360.122 443.141,348.788 438,336.5C 430.749,346.093 423.082,355.426 415,364.5C 409.364,369.629 403.531,374.629 397.5,379.5C 395.748,390.748 392.248,401.414 387,411.5C 379.813,422.023 369.98,428.523 357.5,431C 334.948,435.983 312.281,440.317 289.5,444C 274.113,445.826 259.78,442.826 246.5,435C 243.264,432.219 240.264,429.219 237.5,426C 225.176,423.182 213.176,419.182 201.5,414C 177.948,402.143 156.782,386.976 138,368.5C 134.333,363.833 130.667,359.167 127,354.5C 123.763,347.693 119.763,341.36 115,335.5C 111.667,327.667 108.834,319.667 106.5,311.5C 108.445,308.259 108.445,305.259 106.5,302.5C 107.768,298.53 108.935,294.53 110,290.5C 117.892,276.977 126.059,263.643 134.5,250.5C 143.349,240.817 152.682,231.651 162.5,223C 173.505,216.831 184.505,210.664 195.5,204.5C 196.107,200.619 197.774,197.286 200.5,194.5C 204.069,190.762 208.069,187.596 212.5,185C 242.113,168.933 273.446,160.767 306.5,160.5 Z M 376.5,230.5 C 344.477,209.596 309.477,195.929 271.5,189.5C 264.44,189.534 257.44,189.534 250.5,189.5C 246.236,190.179 242.069,191.179 238,192.5C 237.586,192.043 237.086,191.709 236.5,191.5C 225.186,193.67 214.186,196.504 203.5,200C 208.755,194.699 214.755,190.366 221.5,187C 233.693,181.767 246.026,177.1 258.5,173C 279.364,169.347 300.198,167.18 321,166.5C 331.315,166.834 341.482,168.334 351.5,171C 356.006,175.173 360.173,179.673 364,184.5C 370.632,199.156 374.798,214.489 376.5,230.5 Z M 245.5,197.5 C 262.633,196.62 279.3,198.12 295.5,202C 317.027,208.924 337.693,217.59 357.5,228C 367.189,235.175 377.189,241.841 387.5,248C 393.921,254.098 400.587,259.765 407.5,265C 412.304,270.475 417.138,275.975 422,281.5C 426.415,290.546 430.748,299.546 435,308.5C 439.309,311.668 442.809,311.001 445.5,306.5C 452.686,274.447 471.686,251.947 502.5,239C 508.865,237.194 515.199,237.194 521.5,239C 522.574,239.739 523.241,240.739 523.5,242C 520.88,247.41 518.38,252.91 516,258.5C 514.956,263.034 516.123,266.867 519.5,270C 526.367,271.707 533.2,273.54 540,275.5C 541.649,276.786 542.815,278.453 543.5,280.5C 537.846,289.133 532.179,297.8 526.5,306.5C 524.508,313.703 526.175,319.87 531.5,325C 537.86,328.45 543.693,332.616 549,337.5C 549.917,342.505 548.417,346.672 544.5,350C 537.117,355.032 529.45,359.699 521.5,364C 513.506,368.808 510.673,375.641 513,384.5C 515.222,388.501 517.055,392.667 518.5,397C 518,399.5 516.5,401 514,401.5C 498.467,398.607 486.467,390.607 478,377.5C 473.821,367.795 468.154,359.128 461,351.5C 457.575,343.578 453.575,335.911 449,328.5C 447.255,327.044 445.422,325.711 443.5,324.5C 442.754,323.264 442.421,321.93 442.5,320.5C 441.5,320.5 440.5,320.5 439.5,320.5C 439.785,322.288 439.452,323.955 438.5,325.5C 434.212,330.443 429.712,335.11 425,339.5C 417.459,351.378 408.126,361.711 397,370.5C 396.29,369.027 395.124,368.36 393.5,368.5C 393.654,372.025 392.321,374.859 389.5,377C 381.972,381.264 374.972,386.264 368.5,392C 354.138,399.513 339.471,406.513 324.5,413C 311.791,415.118 299.124,417.451 286.5,420C 264.912,422.232 243.912,420.065 223.5,413.5C 222.914,413.709 222.414,414.043 222,414.5C 204.207,406.52 187.041,397.353 170.5,387C 160.873,379.043 151.54,370.877 142.5,362.5C 130.896,347.125 121.23,330.625 113.5,313C 123.712,308.356 133.712,309.023 143.5,315C 147.492,318.622 151.492,322.289 155.5,326C 157.134,326.494 158.801,326.66 160.5,326.5C 160.799,324.396 160.466,322.396 159.5,320.5C 151.384,310.525 140.884,305.192 128,304.5C 123.498,304.882 118.998,305.215 114.5,305.5C 114.579,304.07 114.246,302.736 113.5,301.5C 126.133,271.552 144.8,246.719 169.5,227C 176.962,223.803 183.962,219.803 190.5,215C 197.764,211.682 205.098,208.349 212.5,205C 223.635,202.485 234.635,199.985 245.5,197.5 Z M 254.5,294.5 C 259.009,294.71 263.342,295.71 267.5,297.5C 268.919,301.404 268.419,305.07 266,308.5C 261.333,312.5 256.667,316.5 252,320.5C 251.167,322.167 250.333,323.833 249.5,325.5C 253.74,333.844 251.74,339.844 243.5,343.5C 239.585,342.141 235.918,340.308 232.5,338C 229.127,334.237 225.294,331.07 221,328.5C 219.888,326.61 219.054,324.61 218.5,322.5C 219.407,316.815 220.407,311.148 221.5,305.5C 224.322,302.587 227.655,300.42 231.5,299C 239.244,297.151 246.911,295.651 254.5,294.5 Z M 249.5,427.5 C 250.496,427.586 251.329,427.252 252,426.5C 261.533,427.635 270.867,428.302 280,428.5C 295.22,425.714 310.387,422.881 325.5,420C 346.786,412.414 366.453,401.914 384.5,388.5C 384.833,389.167 385.167,389.833 385.5,390.5C 382.638,401.724 376.638,410.89 367.5,418C 347.756,423.519 328.089,428.519 308.5,433C 298.08,435.06 287.58,436.56 277,437.5C 266.814,436.608 257.647,433.275 249.5,427.5 Z"/></g>
<g><path style="opacity:0.653" fill="#000000" d="M 165.5,238.5 C 166.822,238.33 167.989,238.663 169,239.5C 169.353,243.232 170.853,246.398 173.5,249C 177.638,251.792 181.804,254.625 186,257.5C 186.595,258.899 186.428,260.232 185.5,261.5C 177.069,261.87 170.236,258.537 165,251.5C 163.916,248.751 163.083,245.918 162.5,243C 162.957,241.06 163.957,239.56 165.5,238.5 Z"/></g>
<g><path style="opacity:0.653" fill="#000000" d="M 211.5,253.5 C 212.822,253.33 213.989,253.663 215,254.5C 216.197,257.089 217.197,259.756 218,262.5C 219.675,274.669 221.008,286.669 222,298.5C 224.087,297.206 226.254,296.039 228.5,295C 236.319,293.296 243.985,291.129 251.5,288.5C 254.24,288.673 256.907,288.673 259.5,288.5C 263.33,290.441 267.33,291.941 271.5,293C 275.381,298.801 275.214,304.634 271,310.5C 266.275,315.562 261.275,320.228 256,324.5C 259.785,336.424 255.952,344.59 244.5,349C 242.5,349.667 240.5,349.667 238.5,349C 232.316,346.152 226.649,342.485 221.5,338C 220.044,336.255 218.711,334.422 217.5,332.5C 215.545,339.073 213.045,345.406 210,351.5C 208.985,354.21 207.485,356.543 205.5,358.5C 205.167,357.667 204.833,356.833 204.5,356C 213.218,332.288 217.051,307.788 216,282.5C 215.07,272.724 213.57,263.058 211.5,253.5 Z M 254.5,294.5 C 246.911,295.651 239.244,297.151 231.5,299C 227.655,300.42 224.322,302.587 221.5,305.5C 220.407,311.148 219.407,316.815 218.5,322.5C 219.054,324.61 219.888,326.61 221,328.5C 225.294,331.07 229.127,334.237 232.5,338C 235.918,340.308 239.585,342.141 243.5,343.5C 251.74,339.844 253.74,333.844 249.5,325.5C 250.333,323.833 251.167,322.167 252,320.5C 256.667,316.5 261.333,312.5 266,308.5C 268.419,305.07 268.919,301.404 267.5,297.5C 263.342,295.71 259.009,294.71 254.5,294.5 Z"/></g>
<g><path style="opacity:0.661" fill="#000000" d="M 160.5,261.5 C 162.288,261.215 163.955,261.548 165.5,262.5C 166.456,265.439 168.123,267.772 170.5,269.5C 173.167,268.5 175.833,267.5 178.5,266.5C 183.385,268.842 183.719,272.009 179.5,276C 165.614,280.59 159.281,275.757 160.5,261.5 Z"/></g>
</svg>
