<?xml version="1.0" encoding="UTF-8"?>
<!DOCTYPE svg PUBLIC "-//W3C//DTD SVG 1.1//EN" "http://www.w3.org/Graphics/SVG/1.1/DTD/svg11.dtd">
<svg xmlns="http://www.w3.org/2000/svg" version="1.1" width="611px" height="611px" style="shape-rendering:geometricPrecision; text-rendering:geometricPrecision; image-rendering:optimizeQuality; fill-rule:evenodd; clip-rule:evenodd" xmlns:xlink="http://www.w3.org/1999/xlink">
<g><path style="opacity:0.776" fill="#000000" d="M 270.5,166.5 C 281.07,166.646 291.57,166.646 302,166.5C 308.79,167.488 315.29,169.321 321.5,172C 330.46,179.985 336.627,189.818 340,201.5C 344.492,214.427 348.326,227.26 351.5,240C 350.67,241.465 350.504,242.965 351,244.5C 368.478,255.413 383.478,269.079 396,285.5C 397.977,290.788 400.477,295.788 403.5,300.5C 411.756,278.472 425.423,260.638 444.5,247C 453.527,240.768 463.527,237.101 474.5,236C 482.665,234.419 489.498,236.586 495,242.5C 495.667,246.833 495.667,251.167 495,255.5C 492.981,259.212 491.148,263.046 489.5,267C 489.905,267.945 490.572,268.612 491.5,269C 499.113,269.649 506.113,271.983 512.5,276C 516.794,281.641 517.627,287.808 515,294.5C 511.408,301.354 507.075,307.687 502,313.5C 500.85,315.754 500.516,318.087 501,320.5C 509.575,325.417 517.242,331.417 524,338.5C 526.869,343.653 527.202,348.653 525,353.5C 520.059,360.088 514.226,365.921 507.5,371C 499.76,373.284 493.26,377.45 488,383.5C 488.759,388.045 490.425,392.378 493,396.5C 495.167,415.33 487,422.497 468.5,418C 456.474,415.404 446.307,409.57 438,400.5C 431.75,393.257 426.75,385.257 423,376.5C 414.984,365.804 407.984,354.47 402,342.5C 399.65,345.199 397.65,348.199 396,351.5C 390.333,357.833 384.667,364.167 379,370.5C 374.001,375.997 368.501,380.997 362.5,385.5C 361.071,404.529 352.738,419.695 337.5,431C 310.558,440.196 282.891,446.529 254.5,450C 238.778,451.9 224.111,448.9 210.5,441C 207.264,438.219 204.264,435.219 201.5,432C 189.359,428.605 177.359,424.605 165.5,420C 158.167,416.333 150.833,412.667 143.5,409C 133.107,399.612 122.107,390.946 110.5,383C 91.5187,364.824 78.5187,342.991 71.5,317.5C 73.4454,314.259 73.4454,311.259 71.5,308.5C 79.3457,284.73 91.679,263.564 108.5,245C 115.151,240.013 121.485,234.68 127.5,229C 138.041,222.565 148.707,216.398 159.5,210.5C 160.107,206.619 161.774,203.286 164.5,200.5C 168.159,196.344 172.492,193.178 177.5,191C 206.514,175.16 237.514,166.993 270.5,166.5 Z M 340.5,237.5 C 309.199,215.65 274.532,201.65 236.5,195.5C 229.107,195.532 221.773,195.532 214.5,195.5C 198.698,197.917 183.031,201.417 167.5,206C 168.833,204 170.5,202.333 172.5,201C 201.073,184.057 231.407,175.557 263.5,175.5C 280.852,171.629 298.186,172.462 315.5,178C 320.333,181.5 324.5,185.667 328,190.5C 334.761,205.471 338.928,221.138 340.5,237.5 Z M 209.5,203.5 C 226.642,202.572 243.308,204.072 259.5,208C 279.553,213.619 298.553,221.453 316.5,231.5C 326.13,237.987 335.796,244.487 345.5,251C 347.949,251.725 350.283,252.725 352.5,254C 364.516,264.403 375.682,275.57 386,287.5C 390.415,296.546 394.748,305.546 399,314.5C 402.533,317.032 406.033,317.032 409.5,314.5C 411.221,306.024 414.054,297.691 418,289.5C 428.519,267.979 445.019,253.146 467.5,245C 472.787,243.738 478.12,243.404 483.5,244C 487.49,245.908 488.49,248.908 486.5,253C 484.481,256.712 482.648,260.546 481,264.5C 479.956,269.034 481.123,272.867 484.5,276C 490.997,277.833 497.497,279.666 504,281.5C 507.693,284.221 508.359,287.555 506,291.5C 497.556,298.565 492.056,307.398 489.5,318C 489.411,323.334 491.411,327.667 495.5,331C 501.86,334.45 507.693,338.616 513,343.5C 514.466,348.735 512.966,352.901 508.5,356C 501.765,360.698 494.765,365.031 487.5,369C 482.163,372.335 478.496,377.002 476.5,383C 477.97,389.946 480.303,396.612 483.5,403C 483.197,405.878 481.697,407.711 479,408.5C 473.953,406.483 468.787,404.65 463.5,403C 458.387,399.887 453.554,396.387 449,392.5C 436.041,373.967 424.374,354.634 414,334.5C 410.37,332.704 407.537,330.037 405.5,326.5C 394.096,340.325 382.596,354.325 371,368.5C 367.703,370.795 364.703,373.462 362,376.5C 361.29,375.027 360.124,374.36 358.5,374.5C 358.654,378.025 357.321,380.859 354.5,383C 341.436,391.429 328.436,399.762 315.5,408C 306.5,411.667 297.5,415.333 288.5,419C 276.104,421.01 263.771,423.344 251.5,426C 210.051,429.645 172.717,419.645 139.5,396C 128.396,386.806 117.396,377.64 106.5,368.5C 94.7426,353.655 85.576,337.322 79,319.5C 78.2025,317.741 78.3691,316.074 79.5,314.5C 94.1258,316.032 108.792,317.032 123.5,317.5C 127.032,316.842 128.032,315.008 126.5,312C 112.5,311.667 98.5,311.333 84.5,311C 81.7549,310.947 79.7549,309.78 78.5,307.5C 84.1495,292.718 91.6495,279.051 101,266.5C 101.667,267.833 102.333,267.833 103,266.5C 105.531,258.959 110.031,252.792 116.5,248C 120.922,245.923 125.422,245.423 130,246.5C 130.167,246.833 130.333,247.167 130.5,247.5C 127.5,248.333 124.5,249.167 121.5,250C 119.333,252.167 117.167,254.333 115,256.5C 114.506,258.134 114.34,259.801 114.5,261.5C 116.167,261.5 117.833,261.5 119.5,261.5C 123.331,251.566 129.331,250.066 137.5,257C 138.793,257.49 140.127,257.657 141.5,257.5C 142.145,254.453 141.145,252.287 138.5,251C 140.167,250.667 141.833,250.333 143.5,250C 138.183,245.891 132.35,244.057 126,244.5C 125.075,243.953 124.242,243.287 123.5,242.5C 139.649,228.855 157.649,218.355 177.5,211C 188.344,208.592 199.011,206.092 209.5,203.5 Z M 218.5,300.5 C 223.6,301.025 228.6,302.025 233.5,303.5C 234.201,307.819 233.034,311.486 230,314.5C 225.333,318.5 220.667,322.5 216,326.5C 215.167,328.167 214.333,329.833 213.5,331.5C 217.672,339.951 215.672,346.285 207.5,350.5C 199.935,345.778 192.769,340.445 186,334.5C 184.888,332.61 184.054,330.61 183.5,328.5C 184.407,322.815 185.407,317.148 186.5,311.5C 189.322,308.587 192.655,306.42 196.5,305C 203.882,303.024 211.216,301.524 218.5,300.5 Z M 213.5,433.5 C 214.496,433.586 215.329,433.252 216,432.5C 225.869,433.608 235.536,434.274 245,434.5C 261.088,431.107 276.922,428.107 292.5,425.5C 303.5,420.667 314.5,415.833 325.5,411C 332.561,405.31 339.894,399.976 347.5,395C 348.448,394.517 349.448,394.351 350.5,394.5C 347.967,406.312 341.634,416.146 331.5,424C 302.061,433.325 272.227,439.825 242,443.5C 231.437,442.815 221.937,439.481 213.5,433.5 Z"/></g>
<g><path style="opacity:0.47" fill="#000000" d="M 258.5,235.5 C 265.067,235.367 270.233,238.034 274,243.5C 275.372,247.949 276.539,252.449 277.5,257C 277.355,257.772 277.022,258.439 276.5,259C 285.35,267.926 287.85,278.426 284,290.5C 282.166,297.654 278.666,303.821 273.5,309C 271.129,309.735 268.795,310.568 266.5,311.5C 265.914,311.291 265.414,310.957 265,310.5C 265.911,307.973 266.911,305.306 268,302.5C 274.341,295.98 277.841,288.147 278.5,279C 278.048,275.591 276.881,272.424 275,269.5C 272.025,274.975 267.858,279.308 262.5,282.5C 261.692,282.192 261.025,281.692 260.5,281C 264.954,276.551 268.62,271.551 271.5,266C 270.21,262.88 267.877,261.047 264.5,260.5C 263.167,258.833 263.167,257.167 264.5,255.5C 267.803,254.549 270.803,254.549 273.5,255.5C 271.786,246.453 266.453,241.12 257.5,239.5C 257.433,238.041 257.766,236.708 258.5,235.5 Z"/></g>
<g><path style="opacity:0.004" fill="#000000" d="M 147.5,252.5 C 149.145,253.479 150.479,254.812 151.5,256.5C 151.167,257.5 150.5,258.167 149.5,258.5C 148.523,256.589 147.857,254.589 147.5,252.5 Z"/></g>
<g><path style="opacity:0.651" fill="#000000" d="M 176.5,259.5 C 177.822,259.33 178.989,259.663 180,260.5C 181.197,263.089 182.197,265.756 183,268.5C 184.648,280.696 185.982,292.696 187,304.5C 203.246,295.916 219.746,294.083 236.5,299C 240.381,304.801 240.214,310.634 236,316.5C 230.641,321.196 225.308,325.862 220,330.5C 220.492,335.449 220.492,340.449 220,345.5C 214.184,355.989 206.017,358.155 195.5,352C 190.957,347.625 186.624,343.125 182.5,338.5C 181.723,340.781 180.723,342.948 179.5,345C 179.833,345.333 180.167,345.667 180.5,346C 177.462,352.583 173.795,358.75 169.5,364.5C 168.369,362.926 168.202,361.259 169,359.5C 182.384,327.063 184.884,293.73 176.5,259.5 Z M 218.5,300.5 C 211.216,301.524 203.882,303.024 196.5,305C 192.655,306.42 189.322,308.587 186.5,311.5C 185.407,317.148 184.407,322.815 183.5,328.5C 184.054,330.61 184.888,332.61 186,334.5C 192.769,340.445 199.935,345.778 207.5,350.5C 215.672,346.285 217.672,339.951 213.5,331.5C 214.333,329.833 215.167,328.167 216,326.5C 220.667,322.5 225.333,318.5 230,314.5C 233.034,311.486 234.201,307.819 233.5,303.5C 228.6,302.025 223.6,301.025 218.5,300.5 Z"/></g>
<g><path style="opacity:0.629" fill="#000000" d="M 122.5,275.5 C 124,264.495 129.166,262.162 138,268.5C 142.278,276.819 139.778,281.819 130.5,283.5C 128.267,282.385 126.101,282.385 124,283.5C 117.531,281.569 114.864,277.236 116,270.5C 117.441,269.74 118.941,269.074 120.5,268.5C 121.168,270.969 121.835,273.302 122.5,275.5 Z"/></g>
<g><path style="opacity:0.004" fill="#000000" d="M 51.5,286.5 C 52.525,286.897 52.6917,287.563 52,288.5C 51.5357,287.906 51.369,287.239 51.5,286.5 Z"/></g>
<g><path style="opacity:0.739" fill="#000000" d="M 325.5,293.5 C 331.023,293.178 335.523,295.178 339,299.5C 346.997,313.486 346.997,327.486 339,341.5C 337.14,343.36 335.306,345.194 333.5,347C 330.854,347.497 328.187,347.664 325.5,347.5C 326.423,341.735 328.923,336.735 333,332.5C 338.678,319.248 336.011,307.915 325,298.5C 324.616,296.803 324.782,295.137 325.5,293.5 Z"/></g>
<g><path style="opacity:0.012" fill="#000000" d="M 303.5,294.5 C 305.199,294.34 306.866,294.506 308.5,295C 310.652,297.469 312.152,300.302 313,303.5C 313.667,308.5 313.667,313.5 313,318.5C 311.556,320.155 309.722,320.822 307.5,320.5C 308.838,312.033 307.171,304.2 302.5,297C 303.252,296.329 303.586,295.496 303.5,294.5 Z"/></g>
<g><path style="opacity:0.004" fill="#000000" d="M 360.5,300.5 C 362.144,300.286 363.644,300.62 365,301.5C 368.386,309.548 368.22,317.548 364.5,325.5C 362.476,327.358 360.309,329.025 358,330.5C 359.609,324.755 361.109,318.922 362.5,313C 361.977,308.796 361.31,304.629 360.5,300.5 Z"/></g>
<g><path style="opacity:0.709" fill="#000000" d="M 266.5,345.5 C 271.582,345.078 275.416,347.078 278,351.5C 287.329,367.21 285.829,381.876 273.5,395.5C 268.713,399.02 263.713,399.353 258.5,396.5C 258.5,395.5 258.5,394.5 258.5,393.5C 270.047,387.775 275.547,378.442 275,365.5C 274,363.167 273,360.833 272,358.5C 267.42,355.338 265.586,351.005 266.5,345.5 Z"/></g>
<g><path style="opacity:0.007" fill="#000000" d="M 245.5,346.5 C 252.587,347.868 255.587,352.034 254.5,359C 253.833,359.667 253.167,359.667 252.5,359C 251.33,355.822 249.33,353.322 246.5,351.5C 245.548,349.955 245.215,348.288 245.5,346.5 Z"/></g>
<g><path style="opacity:0.011" fill="#000000" d="M 254.5,378.5 C 256.311,378.572 257.644,379.405 258.5,381C 255.497,390 249.331,395.5 240,397.5C 239.333,396.5 239.333,395.5 240,394.5C 241.385,393.449 242.385,392.116 243,390.5C 247.291,386.807 251.124,382.807 254.5,378.5 Z"/></g>
</svg>
