<?xml version="1.0" encoding="UTF-8"?>
<!DOCTYPE svg PUBLIC "-//W3C//DTD SVG 1.1//EN" "http://www.w3.org/Graphics/SVG/1.1/DTD/svg11.dtd">
<svg xmlns="http://www.w3.org/2000/svg" version="1.1" width="611px" height="611px" style="shape-rendering:geometricPrecision; text-rendering:geometricPrecision; image-rendering:optimizeQuality; fill-rule:evenodd; clip-rule:evenodd" xmlns:xlink="http://www.w3.org/1999/xlink">
<g><path style="opacity:0.77" fill="#000000" d="M 223.5,179.5 C 231.107,179.507 238.774,179.507 246.5,179.5C 275.048,184.493 302.048,193.66 327.5,207C 336.54,212.853 345.873,218.186 355.5,223C 365.422,230.978 375.422,238.978 385.5,247C 397.237,257.565 406.904,269.732 414.5,283.5C 424.612,256.225 442.612,236.058 468.5,223C 478.208,218.898 488.208,217.898 498.5,220C 501.171,221.25 503.337,223.083 505,225.5C 505.667,230.167 505.667,234.833 505,239.5C 502.981,243.212 501.148,247.046 499.5,251C 499.905,251.945 500.572,252.612 501.5,253C 509.113,253.649 516.113,255.983 522.5,260C 527.743,264.997 528.91,270.83 526,277.5C 521.346,284.129 516.679,290.796 512,297.5C 510.85,299.754 510.516,302.087 511,304.5C 519.455,309.215 527.122,314.881 534,321.5C 536.142,326.04 536.642,330.707 535.5,335.5C 528.773,347.054 519.106,355.221 506.5,360C 503.37,362.128 500.537,364.628 498,367.5C 498.759,372.045 500.425,376.378 503,380.5C 504.541,398.669 496.375,405.502 478.5,401C 474.227,399.465 469.894,398.131 465.5,397C 450.449,388.614 439.615,376.447 433,360.5C 425.504,349.667 418.837,338.334 413,326.5C 406.364,332.804 400.031,339.471 394,346.5C 387.291,356.879 378.791,365.712 368.5,373C 348.898,387.469 327.565,398.803 304.5,407C 302.872,409.65 300.705,410.483 298,409.5C 294.091,411.597 290.424,412.264 287,411.5C 276.472,414.207 265.805,416.54 255,418.5C 247.485,418.667 239.818,418.001 232,416.5C 229.429,417.245 226.929,417.579 224.5,417.5C 218.927,416.142 213.26,415.309 207.5,415C 186.546,408.126 166.546,399.126 147.5,388C 135.626,378.118 123.792,368.284 112,358.5C 104.943,349.108 98.2764,339.442 92,329.5C 85.7382,317.601 82.2382,305.101 81.5,292C 82.6658,287.836 83.8324,283.669 85,279.5C 94.5475,260.966 106.048,243.799 119.5,228C 149.268,200.607 183.935,184.44 223.5,179.5 Z M 219.5,187.5 C 236.642,186.572 253.308,188.072 269.5,192C 279.368,195.734 289.368,199.067 299.5,202C 329.863,215.169 357.196,232.836 381.5,255C 386.304,260.475 391.138,265.975 396,271.5C 400.817,280.516 405.484,289.516 410,298.5C 414.309,301.668 417.809,301.001 420.5,296.5C 420.392,295.558 420.059,294.725 419.5,294C 425.593,274.742 435.927,258.076 450.5,244C 459.07,237.884 468.07,232.551 477.5,228C 483.559,226.255 489.559,226.255 495.5,228C 496.944,229.126 497.61,230.626 497.5,232.5C 495.64,237.896 493.474,243.23 491,248.5C 489.956,253.034 491.123,256.867 494.5,260C 500.997,261.833 507.497,263.666 514,265.5C 517.398,267.943 518.065,270.943 516,274.5C 507.276,281.789 501.776,290.956 499.5,302C 499.411,307.334 501.411,311.667 505.5,315C 511.952,318.536 517.952,322.703 523.5,327.5C 524.641,329.421 524.808,331.421 524,333.5C 516.288,341.598 507.454,348.098 497.5,353C 492.163,356.335 488.496,361.002 486.5,367C 487.97,373.946 490.303,380.612 493.5,387C 493,389.5 491.5,391 489,391.5C 477.466,389.4 467.466,384.4 459,376.5C 451.803,366.649 445.469,356.316 440,345.5C 433.911,336.995 428.578,327.995 424,318.5C 422.255,317.044 420.422,315.711 418.5,314.5C 417.754,313.264 417.421,311.93 417.5,310.5C 416.5,310.5 415.5,310.5 414.5,310.5C 414.785,312.288 414.452,313.955 413.5,315.5C 401.048,327.796 389.382,340.963 378.5,355C 352.53,378.404 322.696,394.904 289,404.5C 288.667,404.167 288.333,403.833 288,403.5C 263.136,411.358 237.969,412.691 212.5,407.5C 207.834,405.833 203.167,404.167 198.5,402.5C 170.669,395.088 146.669,380.755 126.5,359.5C 144.271,344.062 159.938,326.729 173.5,307.5C 177.475,302.681 181.308,297.681 185,292.5C 185.495,290.527 185.662,288.527 185.5,286.5C 164.18,288.601 143.18,290.768 122.5,293C 111.5,293.667 100.5,293.667 89.5,293C 88.4829,291.951 88.3162,290.784 89,289.5C 100.624,260.092 119.124,235.925 144.5,217C 167.457,201.959 192.457,192.126 219.5,187.5 Z M 172.5,294.5 C 173.552,294.351 174.552,294.517 175.5,295C 172.961,297.539 170.461,300.039 168,302.5C 165.073,301.283 162.573,299.45 160.5,297C 164.573,295.971 168.573,295.138 172.5,294.5 Z M 133.5,297.5 C 137.182,297.335 140.848,297.501 144.5,298C 142.021,301.647 139.021,304.813 135.5,307.5C 133.167,304.833 130.833,302.167 128.5,299.5C 130.291,298.83 131.958,298.163 133.5,297.5 Z M 89.5,299.5 C 91.7018,299.276 94.0351,298.943 96.5,298.5C 102.449,299.292 108.449,299.792 114.5,300C 110.388,304.391 106.888,309.224 104,314.5C 99.2996,309.301 94.4663,304.301 89.5,299.5 Z M 151.5,300.5 C 155.774,303.648 160.108,306.815 164.5,310C 160.263,314.068 156.263,318.235 152.5,322.5C 147.833,320.667 143.167,318.833 138.5,317C 143.102,311.582 147.435,306.082 151.5,300.5 Z M 121.5,304.5 C 125.375,309.111 129.708,313.278 134.5,317C 131.809,323.405 129.309,329.905 127,336.5C 121.097,331.761 114.597,328.095 107.5,325.5C 104.571,325.928 102.737,327.595 102,330.5C 97.5211,325.082 94.5211,319.082 93,312.5C 96.4032,316.182 99.9032,319.682 103.5,323C 104.833,323.667 106.167,323.667 107.5,323C 110.293,319.919 112.46,316.419 114,312.5C 116.733,309.938 119.233,307.271 121.5,304.5 Z M 130.5,345.5 C 133.342,338.486 136.175,331.486 139,324.5C 142.039,325.603 144.873,327.103 147.5,329C 145.622,330.543 144.122,332.376 143,334.5C 139.29,338.712 135.123,342.379 130.5,345.5 Z M 130.5,345.5 C 127.86,348.971 124.694,351.971 121,354.5C 118.394,353.23 116.061,351.563 114,349.5C 112.207,346.083 110.041,342.916 107.5,340C 108.46,338.581 109.293,337.081 110,335.5C 115.551,338.026 120.718,341.193 125.5,345C 127.134,345.494 128.801,345.66 130.5,345.5 Z"/></g>
<g><path style="opacity:0.512" fill="#000000" d="M 162.5,225.5 C 163.5,225.5 164.5,225.5 165.5,225.5C 165.66,227.199 165.494,228.866 165,230.5C 154.367,239.231 142.867,246.564 130.5,252.5C 131.279,249.366 132.945,246.699 135.5,244.5C 140.942,242.03 145.776,238.697 150,234.5C 151.582,232.376 151.749,230.21 150.5,228C 152.92,227.313 155.087,227.813 157,229.5C 159.015,228.303 160.849,226.97 162.5,225.5 Z"/></g>
<g><path style="opacity:0.648" fill="#000000" d="M 186.5,243.5 C 187.822,243.33 188.989,243.663 190,244.5C 191.197,247.089 192.197,249.756 193,252.5C 197.742,278.483 196.742,304.483 190,330.5C 187.339,336.493 184.172,342.16 180.5,347.5C 180.167,346.667 179.833,345.833 179.5,345C 192.285,311.889 194.618,278.055 186.5,243.5 Z"/></g>
<g><path style="opacity:0.785" fill="#000000" d="M 161.5,247.5 C 166.85,246.863 169.017,249.197 168,254.5C 162.39,258.718 156.557,262.552 150.5,266C 147.685,267.721 144.685,268.388 141.5,268C 140.362,266.266 139.862,264.432 140,262.5C 146.518,256.468 153.684,251.468 161.5,247.5 Z"/></g>
<g><path style="opacity:0.008" fill="#000000" d="M 117.5,248.5 C 119.048,248.821 119.715,249.821 119.5,251.5C 120.873,251.343 122.207,251.51 123.5,252C 121.597,253.447 119.93,255.114 118.5,257C 114.333,258.167 112.833,256.667 114,252.5C 115.376,251.295 116.542,249.962 117.5,248.5 Z"/></g>
</svg>
