<?xml version="1.0" encoding="UTF-8"?>
<!DOCTYPE svg PUBLIC "-//W3C//DTD SVG 1.1//EN" "http://www.w3.org/Graphics/SVG/1.1/DTD/svg11.dtd">
<svg xmlns="http://www.w3.org/2000/svg" version="1.1" width="611px" height="611px" style="shape-rendering:geometricPrecision; text-rendering:geometricPrecision; image-rendering:optimizeQuality; fill-rule:evenodd; clip-rule:evenodd" xmlns:xlink="http://www.w3.org/1999/xlink">
<g><path style="opacity:0.781" fill="#000000" d="M 280.5,150.5 C 291.07,150.646 301.57,150.646 312,150.5C 322.464,150.966 331.298,154.8 338.5,162C 348.759,178.474 355.925,196.308 360,215.5C 361.042,219.548 361.376,223.548 361,227.5C 378.989,240.059 394.822,255.059 408.5,272.5C 410.25,276.336 412.25,280.002 414.5,283.5C 424.612,256.225 442.612,236.058 468.5,223C 478.208,218.898 488.208,217.898 498.5,220C 501.171,221.25 503.337,223.083 505,225.5C 505.667,230.167 505.667,234.833 505,239.5C 502.981,243.212 501.148,247.046 499.5,251C 499.905,251.945 500.572,252.612 501.5,253C 509.113,253.649 516.113,255.983 522.5,260C 527.743,264.997 528.91,270.83 526,277.5C 521.346,284.129 516.679,290.796 512,297.5C 510.85,299.754 510.516,302.087 511,304.5C 519.455,309.215 527.122,314.881 534,321.5C 536.142,326.04 536.642,330.707 535.5,335.5C 528.773,347.054 519.106,355.221 506.5,360C 503.37,362.128 500.537,364.628 498,367.5C 498.759,372.045 500.425,376.378 503,380.5C 504.541,398.669 496.375,405.502 478.5,401C 474.227,399.465 469.894,398.131 465.5,397C 450.449,388.614 439.615,376.447 433,360.5C 425.504,349.667 418.837,338.334 413,326.5C 406.364,332.804 400.031,339.471 394,346.5C 392.76,349.412 391.094,352.079 389,354.5C 384.001,359.997 378.501,364.997 372.5,369.5C 370.549,385.9 363.883,400.067 352.5,412C 346.05,416.154 339.05,419.154 331.5,421C 309.326,426.17 286.992,430.503 264.5,434C 248.819,435.722 234.153,432.722 220.5,425C 217.264,422.219 214.264,419.219 211.5,416C 206.729,414.042 201.729,412.709 196.5,412C 179.466,405.266 163.132,397.266 147.5,388C 135.626,378.118 123.792,368.284 112,358.5C 104.943,349.108 98.2764,339.442 92,329.5C 87.6092,320.493 84.1092,311.16 81.5,301.5C 83.5662,298.115 83.5662,294.949 81.5,292C 82.6658,287.836 83.8324,283.669 85,279.5C 94.5475,260.966 106.048,243.799 119.5,228C 134.655,214.588 151.322,203.422 169.5,194.5C 170.18,192.111 171.014,189.778 172,187.5C 187.477,172.843 205.643,163.009 226.5,158C 244.422,153.847 262.422,151.347 280.5,150.5 Z M 351.5,220.5 C 336.33,212.081 320.997,203.914 305.5,196C 286.451,188.486 266.784,182.986 246.5,179.5C 239.107,179.532 231.773,179.532 224.5,179.5C 208.999,181.812 193.666,185.312 178.5,190C 194.168,176.646 212.168,167.646 232.5,163C 253.705,159.366 274.871,157.199 296,156.5C 303.795,157.216 311.628,158.049 319.5,159C 327.383,161.539 333.55,166.373 338,173.5C 342.293,184.34 346.127,195.34 349.5,206.5C 350.985,211.046 351.652,215.713 351.5,220.5 Z M 219.5,187.5 C 236.642,186.572 253.308,188.072 269.5,192C 279.368,195.734 289.368,199.067 299.5,202C 329.863,215.169 357.196,232.836 381.5,255C 386.304,260.475 391.138,265.975 396,271.5C 400.817,280.516 405.484,289.516 410,298.5C 414.309,301.668 417.809,301.001 420.5,296.5C 420.392,295.558 420.059,294.725 419.5,294C 425.593,274.742 435.927,258.076 450.5,244C 459.07,237.884 468.07,232.551 477.5,228C 483.559,226.255 489.559,226.255 495.5,228C 496.944,229.126 497.61,230.626 497.5,232.5C 495.64,237.896 493.474,243.23 491,248.5C 489.956,253.034 491.123,256.867 494.5,260C 500.997,261.833 507.497,263.666 514,265.5C 517.398,267.943 518.065,270.943 516,274.5C 507.276,281.789 501.776,290.956 499.5,302C 499.411,307.334 501.411,311.667 505.5,315C 511.952,318.536 517.952,322.703 523.5,327.5C 524.641,329.421 524.808,331.421 524,333.5C 516.288,341.598 507.454,348.098 497.5,353C 492.163,356.335 488.496,361.002 486.5,367C 487.97,373.946 490.303,380.612 493.5,387C 493,389.5 491.5,391 489,391.5C 477.466,389.4 467.466,384.4 459,376.5C 451.803,366.649 445.469,356.316 440,345.5C 433.911,336.995 428.578,327.995 424,318.5C 422.255,317.044 420.422,315.711 418.5,314.5C 417.754,313.264 417.421,311.93 417.5,310.5C 416.5,310.5 415.5,310.5 414.5,310.5C 414.785,312.288 414.452,313.955 413.5,315.5C 409.149,320.685 404.316,325.351 399,329.5C 393.412,337.429 387.412,345.096 381,352.5C 377.703,354.795 374.703,357.462 372,360.5C 371.29,359.027 370.124,358.36 368.5,358.5C 368.654,362.025 367.321,364.859 364.5,367C 344.265,381.213 322.599,392.88 299.5,402C 286.832,403.602 274.165,406.269 261.5,410C 250.234,410.36 239.067,410.527 228,410.5C 205.024,406.268 182.857,398.768 161.5,388C 156.188,384.363 150.854,380.696 145.5,377C 134.666,368.104 124.166,358.938 114,349.5C 108.007,340.186 102.007,330.852 96,321.5C 93.1936,314.586 90.8602,307.586 89,300.5C 101.378,305.212 113.878,306.379 126.5,304C 134.789,302.595 142.789,300.262 150.5,297C 151.5,295.333 152.5,293.667 153.5,292C 152.892,291.13 152.059,290.63 151,290.5C 137.819,295.063 124.319,298.063 110.5,299.5C 103.559,299.218 96.8923,297.718 90.5,295C 89.5697,293.806 88.9031,292.473 88.5,291C 103.218,252.949 128.551,224.282 164.5,205C 172.149,201.824 179.816,198.491 187.5,195C 198.344,192.592 209.011,190.092 219.5,187.5 Z M 228.5,283.5 C 233.366,283.55 238.032,284.55 242.5,286.5C 244.347,293.321 242.347,298.821 236.5,303C 230.971,306.031 226.638,310.198 223.5,315.5C 227.74,323.844 225.74,329.844 217.5,333.5C 215.618,332.469 213.618,331.635 211.5,331C 206.623,326.454 201.456,322.287 196,318.5C 194.888,316.61 194.054,314.61 193.5,312.5C 192.331,301.155 196.665,292.988 206.5,288C 213.882,286.024 221.216,284.524 228.5,283.5 Z M 223.5,417.5 C 226.259,417.452 229.092,417.118 232,416.5C 239.818,418.001 247.485,418.667 255,418.5C 265.805,416.54 276.472,414.207 287,411.5C 290.424,412.264 294.091,411.597 298,409.5C 300.705,410.483 302.872,409.65 304.5,407C 324.32,400.237 342.654,390.737 359.5,378.5C 358.332,390.958 352.332,400.791 341.5,408C 321.827,413.834 302.161,418.834 282.5,423C 272.403,424.966 262.236,426.466 252,427.5C 241.57,426.415 232.07,423.081 223.5,417.5 Z"/></g>
<g><path style="opacity:0.646" fill="#000000" d="M 167.5,244.5 C 167.5,245.167 167.833,245.5 168.5,245.5C 171.48,249.255 171.146,252.588 167.5,255.5C 163.692,253.526 160.692,250.692 158.5,247C 152.57,244.482 146.57,244.149 140.5,246C 138.963,247.707 137.296,249.207 135.5,250.5C 133.553,252.216 132.219,254.383 131.5,257C 129.527,257.495 127.527,257.662 125.5,257.5C 125.211,254.351 125.711,251.351 127,248.5C 128.734,246.766 130.068,244.766 131,242.5C 133.398,242.042 135.064,240.708 136,238.5C 136.914,239.654 137.747,239.487 138.5,238C 144.833,237.333 151.167,237.333 157.5,238C 159.519,238.45 161.352,239.283 163,240.5C 163.333,240.167 163.667,239.833 164,239.5C 165.755,241.146 166.922,242.813 167.5,244.5 Z"/></g>
<g><path style="opacity:0.662" fill="#000000" d="M 186.5,243.5 C 187.822,243.33 188.989,243.663 190,244.5C 191.197,247.089 192.197,249.756 193,252.5C 194.621,264.364 195.954,276.031 197,287.5C 206.009,283.038 215.509,280.038 225.5,278.5C 228.5,278.5 231.5,278.5 234.5,278.5C 238.465,279.766 242.465,280.933 246.5,282C 250.271,288.098 250.104,294.264 246,300.5C 241.21,305.968 235.877,310.634 230,314.5C 230.492,319.449 230.492,324.449 230,329.5C 225.941,336.748 219.775,339.582 211.5,338C 203.946,334.237 197.613,329.07 192.5,322.5C 191.359,325.062 190.526,327.728 190,330.5C 187.339,336.493 184.172,342.16 180.5,347.5C 180.167,346.667 179.833,345.833 179.5,345C 192.285,311.889 194.618,278.055 186.5,243.5 Z M 228.5,283.5 C 221.216,284.524 213.882,286.024 206.5,288C 196.665,292.988 192.331,301.155 193.5,312.5C 194.054,314.61 194.888,316.61 196,318.5C 201.456,322.287 206.623,326.454 211.5,331C 213.618,331.635 215.618,332.469 217.5,333.5C 225.74,329.844 227.74,323.844 223.5,315.5C 226.638,310.198 230.971,306.031 236.5,303C 242.347,298.821 244.347,293.321 242.5,286.5C 238.032,284.55 233.366,283.55 228.5,283.5 Z"/></g>
<g><path style="opacity:0.599" fill="#000000" d="M 144.5,252.5 C 151.583,251.928 157.583,254.428 162.5,260C 161.939,262.727 160.273,264.227 157.5,264.5C 154.466,262.645 151.299,260.978 148,259.5C 145.067,260.771 142.401,262.438 140,264.5C 138.19,262.933 137.023,260.933 136.5,258.5C 139.273,256.468 141.94,254.468 144.5,252.5 Z"/></g>
<g><path style="opacity:0.004" fill="#000000" d="M 68.5,272.5 C 67.0152,273.935 65.6819,273.768 64.5,272C 65.8805,270.466 67.2139,270.632 68.5,272.5 Z"/></g>
<g><path style="opacity:0.004" fill="#000000" d="M 116.5,270.5 C 118.368,271.786 118.534,273.119 117,274.5C 115.745,273.789 114.579,272.956 113.5,272C 114.737,271.768 115.737,271.268 116.5,270.5 Z"/></g>
<g><path style="opacity:0.004" fill="#000000" d="M 68.5,272.5 C 69.8333,273.167 69.8333,273.167 68.5,272.5 Z"/></g>
<g><path style="opacity:0.005" fill="#000000" d="M 111.5,288.5 C 113.379,288.393 113.712,288.893 112.5,290C 110.567,290.251 108.734,290.751 107,291.5C 104.765,290.761 102.765,290.761 101,291.5C 100.25,290.874 99.4162,290.374 98.5,290C 103.019,289.825 107.353,289.325 111.5,288.5 Z"/></g>
</svg>
