<?xml version="1.0" encoding="UTF-8"?>
<!DOCTYPE svg PUBLIC "-//W3C//DTD SVG 1.1//EN" "http://www.w3.org/Graphics/SVG/1.1/DTD/svg11.dtd">
<svg xmlns="http://www.w3.org/2000/svg" version="1.1" width="611px" height="611px" style="shape-rendering:geometricPrecision; text-rendering:geometricPrecision; image-rendering:optimizeQuality; fill-rule:evenodd; clip-rule:evenodd" xmlns:xlink="http://www.w3.org/1999/xlink">
<g><path style="opacity:0.771" fill="#000000" d="M 280.5,150.5 C 291.07,150.646 301.57,150.646 312,150.5C 322.464,150.966 331.298,154.8 338.5,162C 348.759,178.474 355.925,196.308 360,215.5C 361.042,219.548 361.376,223.548 361,227.5C 378.989,240.059 394.822,255.059 408.5,272.5C 410.25,276.336 412.25,280.002 414.5,283.5C 424.612,256.225 442.612,236.058 468.5,223C 478.208,218.898 488.208,217.898 498.5,220C 501.171,221.25 503.337,223.083 505,225.5C 505.667,230.167 505.667,234.833 505,239.5C 502.981,243.212 501.148,247.046 499.5,251C 499.905,251.945 500.572,252.612 501.5,253C 509.113,253.649 516.113,255.983 522.5,260C 527.743,264.997 528.91,270.83 526,277.5C 521.346,284.129 516.679,290.796 512,297.5C 510.85,299.754 510.516,302.087 511,304.5C 519.455,309.215 527.122,314.881 534,321.5C 536.142,326.04 536.642,330.707 535.5,335.5C 528.773,347.054 519.106,355.221 506.5,360C 503.37,362.128 500.537,364.628 498,367.5C 498.759,372.045 500.425,376.378 503,380.5C 504.541,398.669 496.375,405.502 478.5,401C 474.227,399.465 469.894,398.131 465.5,397C 450.449,388.614 439.615,376.447 433,360.5C 425.504,349.667 418.837,338.334 413,326.5C 406.364,332.804 400.031,339.471 394,346.5C 392.76,349.412 391.094,352.079 389,354.5C 384.001,359.997 378.501,364.997 372.5,369.5C 370.549,385.9 363.883,400.067 352.5,412C 346.05,416.154 339.05,419.154 331.5,421C 309.326,426.17 286.992,430.503 264.5,434C 248.819,435.722 234.153,432.722 220.5,425C 217.264,422.219 214.264,419.219 211.5,416C 206.729,414.042 201.729,412.709 196.5,412C 179.466,405.266 163.132,397.266 147.5,388C 135.626,378.118 123.792,368.284 112,358.5C 104.943,349.108 98.2764,339.442 92,329.5C 87.6092,320.493 84.1092,311.16 81.5,301.5C 83.5662,298.115 83.5662,294.949 81.5,292C 82.6658,287.836 83.8324,283.669 85,279.5C 94.5475,260.966 106.048,243.799 119.5,228C 134.655,214.588 151.322,203.422 169.5,194.5C 170.18,192.111 171.014,189.778 172,187.5C 187.477,172.843 205.643,163.009 226.5,158C 244.422,153.847 262.422,151.347 280.5,150.5 Z M 351.5,220.5 C 336.33,212.081 320.997,203.914 305.5,196C 286.451,188.486 266.784,182.986 246.5,179.5C 239.107,179.532 231.773,179.532 224.5,179.5C 208.999,181.812 193.666,185.312 178.5,190C 194.168,176.646 212.168,167.646 232.5,163C 253.705,159.366 274.871,157.199 296,156.5C 303.795,157.216 311.628,158.049 319.5,159C 327.383,161.539 333.55,166.373 338,173.5C 342.293,184.34 346.127,195.34 349.5,206.5C 350.985,211.046 351.652,215.713 351.5,220.5 Z M 90.5,287.5 C 101.44,258.71 119.44,235.21 144.5,217C 167.254,201.854 192.254,192.187 219.5,188C 236.64,186.575 253.306,187.908 269.5,192C 279.368,195.734 289.368,199.067 299.5,202C 332.372,216.17 361.538,235.67 387,260.5C 390,264.167 393,267.833 396,271.5C 400.817,280.516 405.484,289.516 410,298.5C 414.309,301.668 417.809,301.001 420.5,296.5C 420.392,295.558 420.059,294.725 419.5,294C 425.593,274.742 435.927,258.076 450.5,244C 459.07,237.884 468.07,232.551 477.5,228C 483.559,226.255 489.559,226.255 495.5,228C 496.944,229.126 497.61,230.626 497.5,232.5C 495.64,237.896 493.474,243.23 491,248.5C 489.956,253.034 491.123,256.867 494.5,260C 500.997,261.833 507.497,263.666 514,265.5C 517.398,267.943 518.065,270.943 516,274.5C 507.276,281.789 501.776,290.956 499.5,302C 499.411,307.334 501.411,311.667 505.5,315C 511.952,318.536 517.952,322.703 523.5,327.5C 524.641,329.421 524.808,331.421 524,333.5C 516.288,341.598 507.454,348.098 497.5,353C 492.163,356.335 488.496,361.002 486.5,367C 487.97,373.946 490.303,380.612 493.5,387C 493,389.5 491.5,391 489,391.5C 477.466,389.4 467.466,384.4 459,376.5C 451.803,366.649 445.469,356.316 440,345.5C 433.911,336.995 428.578,327.995 424,318.5C 422.255,317.044 420.422,315.711 418.5,314.5C 417.754,313.264 417.421,311.93 417.5,310.5C 416.5,310.5 415.5,310.5 414.5,310.5C 414.785,312.288 414.452,313.955 413.5,315.5C 409.149,320.685 404.316,325.351 399,329.5C 393.412,337.429 387.412,345.096 381,352.5C 377.703,354.795 374.703,357.462 372,360.5C 371.29,359.027 370.124,358.36 368.5,358.5C 368.654,362.025 367.321,364.859 364.5,367C 344.265,381.213 322.599,392.88 299.5,402C 286.832,403.602 274.165,406.269 261.5,410C 250.234,410.36 239.067,410.527 228,410.5C 200.03,405.719 173.863,395.552 149.5,380C 137.282,370.162 125.449,359.995 114,349.5C 108.007,340.186 102.007,330.852 96,321.5C 93.4279,314.724 90.9279,307.891 88.5,301C 89.886,297.951 92.2194,295.951 95.5,295C 97.9528,294.262 100.453,293.762 103,293.5C 105.969,294.438 108.969,295.438 112,296.5C 115.03,294.166 118.364,292.166 122,290.5C 122.928,292.335 124.094,292.668 125.5,291.5C 129.229,294.679 133.563,296.179 138.5,296C 144.262,297.874 148.928,301.207 152.5,306C 160.832,308.801 162.499,306.635 157.5,299.5C 141.949,285.605 124.115,281.272 104,286.5C 101.773,285.637 99.6068,284.637 97.5,283.5C 94.692,284.094 92.3587,285.427 90.5,287.5 Z M 149.5,259.5 C 154.923,259.603 155.756,261.603 152,265.5C 149.961,264.022 149.128,262.022 149.5,259.5 Z M 228.5,283.5 C 233.366,283.55 238.032,284.55 242.5,286.5C 244.347,293.321 242.347,298.821 236.5,303C 230.971,306.031 226.638,310.198 223.5,315.5C 227.74,323.844 225.74,329.844 217.5,333.5C 215.618,332.469 213.618,331.635 211.5,331C 206.623,326.454 201.456,322.287 196,318.5C 194.888,316.61 194.054,314.61 193.5,312.5C 192.331,301.155 196.665,292.988 206.5,288C 213.882,286.024 221.216,284.524 228.5,283.5 Z M 223.5,417.5 C 226.259,417.452 229.092,417.118 232,416.5C 239.818,418.001 247.485,418.667 255,418.5C 265.805,416.54 276.472,414.207 287,411.5C 290.424,412.264 294.091,411.597 298,409.5C 300.705,410.483 302.872,409.65 304.5,407C 324.32,400.237 342.654,390.737 359.5,378.5C 358.332,390.958 352.332,400.791 341.5,408C 321.827,413.834 302.161,418.834 282.5,423C 272.403,424.966 262.236,426.466 252,427.5C 241.57,426.415 232.07,423.081 223.5,417.5 Z"/></g>
<g><path style="opacity:0.45" fill="#000000" d="M 269.5,218.5 C 280.895,221.243 286.895,228.576 287.5,240.5C 287.392,241.442 287.059,242.275 286.5,243C 297.819,254.286 299.652,267.119 292,281.5C 288.557,284.888 285.723,288.722 283.5,293C 281.129,293.735 278.795,294.568 276.5,295.5C 275.713,294.758 275.047,293.925 274.5,293C 277.676,286.153 281.51,279.653 286,273.5C 289.614,266.588 289.281,259.921 285,253.5C 282.025,258.975 277.858,263.308 272.5,266.5C 272.167,266 271.833,265.5 271.5,265C 275.226,260.272 278.559,255.272 281.5,250C 280.21,246.88 277.877,245.047 274.5,244.5C 272.909,240.895 274.076,238.895 278,238.5C 279.895,238.615 281.562,239.282 283,240.5C 282.876,230.261 277.71,224.595 267.5,223.5C 267.365,221.446 268.032,219.779 269.5,218.5 Z"/></g>
<g><path style="opacity:0.656" fill="#000000" d="M 159.5,235.5 C 160.5,235.5 161.5,235.5 162.5,235.5C 161.109,244.047 155.942,248.714 147,249.5C 139.682,248.879 135.015,245.212 133,238.5C 133.725,237.941 134.558,237.608 135.5,237.5C 138.776,240.723 142.61,243.056 147,244.5C 149.819,244.007 152.319,242.84 154.5,241C 155.692,238.645 157.359,236.812 159.5,235.5 Z"/></g>
<g><path style="opacity:0.662" fill="#000000" d="M 186.5,243.5 C 187.822,243.33 188.989,243.663 190,244.5C 191.197,247.089 192.197,249.756 193,252.5C 194.621,264.364 195.954,276.031 197,287.5C 206.009,283.038 215.509,280.038 225.5,278.5C 228.5,278.5 231.5,278.5 234.5,278.5C 238.465,279.766 242.465,280.933 246.5,282C 250.271,288.098 250.104,294.264 246,300.5C 241.21,305.968 235.877,310.634 230,314.5C 230.492,319.449 230.492,324.449 230,329.5C 225.941,336.748 219.775,339.582 211.5,338C 203.946,334.237 197.613,329.07 192.5,322.5C 191.359,325.062 190.526,327.728 190,330.5C 187.339,336.493 184.172,342.16 180.5,347.5C 180.167,346.667 179.833,345.833 179.5,345C 192.285,311.889 194.618,278.055 186.5,243.5 Z M 228.5,283.5 C 221.216,284.524 213.882,286.024 206.5,288C 196.665,292.988 192.331,301.155 193.5,312.5C 194.054,314.61 194.888,316.61 196,318.5C 201.456,322.287 206.623,326.454 211.5,331C 213.618,331.635 215.618,332.469 217.5,333.5C 225.74,329.844 227.74,323.844 223.5,315.5C 226.638,310.198 230.971,306.031 236.5,303C 242.347,298.821 244.347,293.321 242.5,286.5C 238.032,284.55 233.366,283.55 228.5,283.5 Z"/></g>
<g><path style="opacity:0.708" fill="#000000" d="M 147.5,253.5 C 158.341,252.513 162.008,257.18 158.5,267.5C 152.116,272.882 147.282,271.548 144,263.5C 143.729,259.699 144.896,256.366 147.5,253.5 Z M 149.5,259.5 C 149.128,262.022 149.961,264.022 152,265.5C 155.756,261.603 154.923,259.603 149.5,259.5 Z"/></g>
<g><path style="opacity:0.013" fill="#000000" d="M 53.5,260.5 C 56.8131,261.161 59.4797,262.994 61.5,266C 60.9747,266.692 60.3081,267.192 59.5,267.5C 57.1463,266.94 54.813,266.273 52.5,265.5C 51.2878,263.572 51.6211,261.905 53.5,260.5 Z"/></g>
<g><path style="opacity:0.678" fill="#000000" d="M 335.5,276.5 C 344.612,277.094 350.778,281.761 354,290.5C 358.837,306.326 355.337,319.826 343.5,331C 340.854,331.497 338.187,331.664 335.5,331.5C 336.423,325.735 338.923,320.735 343,316.5C 348.579,302.981 345.912,291.315 335,281.5C 334.616,279.803 334.782,278.137 335.5,276.5 Z"/></g>
<g><path style="opacity:0.011" fill="#000000" d="M 313.5,277.5 C 316.044,277.104 318.211,277.771 320,279.5C 321.691,282.901 323.191,286.401 324.5,290C 324.517,293.633 324.35,297.467 324,301.5C 322.448,302.966 320.614,303.966 318.5,304.5C 318.271,299.637 317.771,294.637 317,289.5C 315.682,286.523 314.182,283.69 312.5,281C 313.337,279.989 313.67,278.822 313.5,277.5 Z"/></g>
<g><path style="opacity:0.004" fill="#000000" d="M 370.5,284.5 C 372.288,284.215 373.955,284.548 375.5,285.5C 379.594,293.238 379.428,300.904 375,308.5C 373.164,311.379 370.664,312.879 367.5,313C 370.044,307.919 371.711,302.586 372.5,297C 371.977,292.796 371.31,288.629 370.5,284.5 Z"/></g>
<g><path style="opacity:0.007" fill="#000000" d="M 256.5,329.5 C 257.922,329.709 259.255,330.209 260.5,331C 262.333,333.167 264.167,335.333 266,337.5C 266.743,339.441 266.576,341.274 265.5,343C 264.833,343.667 264.167,343.667 263.5,343C 261.343,339.844 258.843,337.011 256,334.5C 255.36,332.735 255.527,331.068 256.5,329.5 Z"/></g>
<g><path style="opacity:0.679" fill="#000000" d="M 276.5,329.5 C 281.227,329.048 285.06,330.715 288,334.5C 298.848,350.334 297.348,365.334 283.5,379.5C 278.713,383.02 273.713,383.353 268.5,380.5C 268.5,379.5 268.5,378.5 268.5,377.5C 280.526,371.621 286.026,361.955 285,348.5C 284,346.167 283,343.833 282,341.5C 277.722,338.611 275.888,334.611 276.5,329.5 Z"/></g>
<g><path style="opacity:0.011" fill="#000000" d="M 264.5,362.5 C 266.665,362.116 268.332,362.783 269.5,364.5C 265.958,373.541 259.458,379.208 250,381.5C 249.333,380.167 249.333,378.833 250,377.5C 255.092,372.578 259.925,367.578 264.5,362.5 Z"/></g>
</svg>
