<?xml version="1.0" encoding="UTF-8"?>
<!DOCTYPE svg PUBLIC "-//W3C//DTD SVG 1.1//EN" "http://www.w3.org/Graphics/SVG/1.1/DTD/svg11.dtd">
<svg xmlns="http://www.w3.org/2000/svg" version="1.1" width="611px" height="611px" style="shape-rendering:geometricPrecision; text-rendering:geometricPrecision; image-rendering:optimizeQuality; fill-rule:evenodd; clip-rule:evenodd" xmlns:xlink="http://www.w3.org/1999/xlink">
<g><path style="opacity:0.752" fill="#000000" d="M 306.5,160.5 C 316.737,160.652 326.903,160.652 337,160.5C 344.079,161.644 350.912,163.477 357.5,166C 364.12,171.978 369.286,179.145 373,187.5C 378.936,202.383 383.436,217.716 386.5,233.5C 385.772,235.155 385.605,236.821 386,238.5C 403.985,249.164 419.318,262.831 432,279.5C 434.504,284.509 437.004,289.509 439.5,294.5C 446.992,271.853 460.658,254.02 480.5,241C 486.5,237.667 492.5,234.333 498.5,231C 506.77,228.45 515.103,228.116 523.5,230C 531.21,234.257 533.71,240.757 531,249.5C 528.981,253.212 527.148,257.046 525.5,261C 525.905,261.945 526.572,262.612 527.5,263C 535.113,263.649 542.113,265.983 548.5,270C 552.766,277.23 552.932,284.73 549,292.5C 545.578,297.678 541.911,302.678 538,307.5C 536.85,309.754 536.516,312.087 537,314.5C 545.238,319.081 552.572,324.748 559,331.5C 562.853,340.598 561.353,348.764 554.5,356C 551.537,357.961 548.871,360.294 546.5,363C 537.779,366.442 529.945,371.275 523,377.5C 522.833,378.167 522.667,378.833 522.5,379.5C 525.126,382.855 527.293,386.522 529,390.5C 530.342,409.15 521.842,416.317 503.5,412C 493.586,408.778 484.586,403.778 476.5,397C 473.281,393.448 470.448,389.615 468,385.5C 463.405,381.461 460.071,376.461 458,370.5C 449.807,360.122 443.141,348.788 438,336.5C 430.749,346.093 423.082,355.426 415,364.5C 409.364,369.629 403.531,374.629 397.5,379.5C 395.748,390.748 392.248,401.414 387,411.5C 379.813,422.023 369.98,428.523 357.5,431C 334.948,435.983 312.281,440.317 289.5,444C 274.113,445.826 259.78,442.826 246.5,435C 243.264,432.219 240.264,429.219 237.5,426C 225.176,423.182 213.176,419.182 201.5,414C 177.948,402.143 156.782,386.976 138,368.5C 134.333,363.833 130.667,359.167 127,354.5C 123.763,347.693 119.763,341.36 115,335.5C 111.667,327.667 108.834,319.667 106.5,311.5C 108.445,308.259 108.445,305.259 106.5,302.5C 107.768,298.53 108.935,294.53 110,290.5C 117.892,276.977 126.059,263.643 134.5,250.5C 143.349,240.817 152.682,231.651 162.5,223C 173.505,216.831 184.505,210.664 195.5,204.5C 196.107,200.619 197.774,197.286 200.5,194.5C 204.069,190.762 208.069,187.596 212.5,185C 242.113,168.933 273.446,160.767 306.5,160.5 Z M 376.5,230.5 C 344.477,209.596 309.477,195.929 271.5,189.5C 264.44,189.534 257.44,189.534 250.5,189.5C 246.236,190.179 242.069,191.179 238,192.5C 237.586,192.043 237.086,191.709 236.5,191.5C 225.186,193.67 214.186,196.504 203.5,200C 208.755,194.699 214.755,190.366 221.5,187C 233.693,181.767 246.026,177.1 258.5,173C 279.364,169.347 300.198,167.18 321,166.5C 331.315,166.834 341.482,168.334 351.5,171C 356.006,175.173 360.173,179.673 364,184.5C 370.632,199.156 374.798,214.489 376.5,230.5 Z M 245.5,197.5 C 258.478,194.642 269.311,197.975 278,207.5C 280.295,213.809 279.628,219.809 276,225.5C 273.442,228.055 271.275,230.888 269.5,234C 266.22,236.862 262.72,239.362 259,241.5C 258.257,243.441 258.424,245.274 259.5,247C 272.951,244.765 282.451,249.931 288,262.5C 289.338,275.488 283.838,284.155 271.5,288.5C 270.5,289.833 269.5,291.167 268.5,292.5C 265.622,290.894 262.622,289.561 259.5,288.5C 256.907,288.673 254.24,288.673 251.5,288.5C 243.985,291.129 236.319,293.296 228.5,295C 226.254,296.039 224.087,297.206 222,298.5C 221.008,286.669 219.675,274.669 218,262.5C 217.197,259.756 216.197,257.089 215,254.5C 213.989,253.663 212.822,253.33 211.5,253.5C 215.306,269.952 216.806,286.619 216,303.5C 214.566,321.557 210.732,339.057 204.5,356C 204.833,356.833 205.167,357.667 205.5,358.5C 207.485,356.543 208.985,354.21 210,351.5C 213.045,345.406 215.545,339.073 217.5,332.5C 218.711,334.422 220.044,336.255 221.5,338C 226.649,342.485 232.316,346.152 238.5,349C 246.21,349.393 252.044,346.227 256,339.5C 256.492,334.449 256.492,329.449 256,324.5C 264.728,318.446 271.228,310.612 275.5,301C 278.312,300.534 280.979,301.034 283.5,302.5C 298.49,313.026 298.157,323.193 282.5,333C 279.136,334.682 275.802,336.349 272.5,338C 270.109,340.733 270.109,343.4 272.5,346C 281.591,346.095 289.591,348.929 296.5,354.5C 301.483,362.825 300.15,369.992 292.5,376C 286.588,378.625 280.921,381.792 275.5,385.5C 276.779,387.146 278.445,388.313 280.5,389C 299.72,391.275 303.887,400.442 293,416.5C 291.2,418.317 289.034,419.484 286.5,420C 264.912,422.232 243.912,420.065 223.5,413.5C 222.914,413.709 222.414,414.043 222,414.5C 204.207,406.52 187.041,397.353 170.5,387C 158.981,377.312 147.981,367.145 137.5,356.5C 128.387,342.569 120.387,328.069 113.5,313C 123.712,308.356 133.712,309.023 143.5,315C 147.492,318.622 151.492,322.289 155.5,326C 157.134,326.494 158.801,326.66 160.5,326.5C 160.799,324.396 160.466,322.396 159.5,320.5C 151.384,310.525 140.884,305.192 128,304.5C 123.498,304.882 118.998,305.215 114.5,305.5C 114.579,304.07 114.246,302.736 113.5,301.5C 126.133,271.552 144.8,246.719 169.5,227C 176.962,223.803 183.962,219.803 190.5,215C 197.764,211.682 205.098,208.349 212.5,205C 223.635,202.485 234.635,199.985 245.5,197.5 Z M 279.5,198.5 C 291.875,200.68 303.875,204.18 315.5,209C 328.647,218.764 330.48,230.264 321,243.5C 317.94,246.614 314.44,249.114 310.5,251C 306.624,253.539 306.624,255.872 310.5,258C 316.864,257.184 322.53,259.017 327.5,263.5C 336.025,270.549 339.525,279.549 338,290.5C 334.859,298.308 329.359,303.808 321.5,307C 320.169,308.659 318.835,310.326 317.5,312C 318.272,313.221 319.272,314.221 320.5,315C 336.853,315.352 345.019,323.518 345,339.5C 343.503,343.165 341.503,346.498 339,349.5C 335.564,351.592 332.064,353.592 328.5,355.5C 326.585,357.071 325.585,359.071 325.5,361.5C 327.675,361.682 329.675,362.349 331.5,363.5C 332.442,363.392 333.275,363.059 334,362.5C 340.597,365.66 345.93,370.327 350,376.5C 350.667,379.5 350.667,382.5 350,385.5C 344.211,392.782 339.044,400.448 334.5,408.5C 324.669,412.975 314.336,415.642 303.5,416.5C 305.215,412.351 306.548,408.017 307.5,403.5C 307.585,394.831 303.918,388.331 296.5,384C 310.297,371.877 310.964,359.211 298.5,346C 295.039,344.769 291.706,343.269 288.5,341.5C 304.089,331.046 306.589,318.046 296,302.5C 292.266,299.048 288.1,296.215 283.5,294C 286.064,290.392 289.064,287.226 292.5,284.5C 297.575,274.503 297.742,264.503 293,254.5C 287.913,248.914 282.079,244.247 275.5,240.5C 279.676,236.141 282.842,231.141 285,225.5C 285.644,221.779 286.477,218.113 287.5,214.5C 285.777,208.645 283.11,203.311 279.5,198.5 Z M 329.5,215.5 C 329.56,214.957 329.893,214.624 330.5,214.5C 346.964,221.802 362.297,230.968 376.5,242C 382.94,249.717 384.44,258.217 381,267.5C 377.658,272.008 373.825,276.008 369.5,279.5C 368.456,281.768 368.289,284.101 369,286.5C 383.616,294.064 388.616,305.731 384,321.5C 381.918,324.959 379.085,327.626 375.5,329.5C 374.123,331.289 373.123,333.289 372.5,335.5C 375.422,340.093 379.089,344.093 383.5,347.5C 384.978,350.288 386.311,353.122 387.5,356C 386.509,361.614 385.009,367.114 383,372.5C 378.239,378.25 373.906,384.25 370,390.5C 364.166,393.655 358.5,396.988 353,400.5C 354.858,395.733 356.525,390.733 358,385.5C 359.079,372.578 353.579,363.744 341.5,359C 352.098,351.964 356.264,342.13 354,329.5C 351.401,324.572 348.068,320.239 344,316.5C 340.747,314.457 337.58,312.29 334.5,310C 342.751,303.829 346.751,295.495 346.5,285C 345.04,269.896 337.374,259.396 323.5,253.5C 332.411,244.992 335.578,234.658 333,222.5C 332.33,219.826 331.163,217.493 329.5,215.5 Z M 508.5,237.5 C 512.936,237.21 517.27,237.71 521.5,239C 522.574,239.739 523.241,240.739 523.5,242C 520.88,247.41 518.38,252.91 516,258.5C 514.956,263.034 516.123,266.867 519.5,270C 526.367,271.707 533.2,273.54 540,275.5C 543.398,277.943 544.065,280.943 542,284.5C 533.797,292.078 528.297,301.245 525.5,312C 525.788,315.319 526.621,318.485 528,321.5C 533.579,326.038 539.412,330.205 545.5,334C 549.707,337.07 550.54,340.903 548,345.5C 545.21,348.991 542.043,352.158 538.5,355C 532.707,357.73 527.04,360.73 521.5,364C 513.506,368.808 510.673,375.641 513,384.5C 515.222,388.501 517.055,392.667 518.5,397C 518,399.5 516.5,401 514,401.5C 498.467,398.607 486.467,390.607 478,377.5C 473.821,367.795 468.154,359.128 461,351.5C 457.575,343.578 453.575,335.911 449,328.5C 447.255,327.044 445.422,325.711 443.5,324.5C 442.754,323.264 442.421,321.93 442.5,320.5C 441.5,320.5 440.5,320.5 439.5,320.5C 439.785,322.288 439.452,323.955 438.5,325.5C 434.472,329.859 430.472,334.193 426.5,338.5C 426.026,327.342 422.026,317.842 414.5,310C 420.863,302.887 424.03,294.72 424,285.5C 427.52,293.273 431.187,300.939 435,308.5C 437.64,310.524 440.473,310.857 443.5,309.5C 448.918,285.926 461.252,266.426 480.5,251C 485.098,248.73 489.431,246.063 493.5,243C 498.382,240.546 503.382,238.713 508.5,237.5 Z M 388.5,249.5 C 394.288,253.785 399.621,258.619 404.5,264C 405.448,264.483 406.448,264.649 407.5,264.5C 408.123,268.554 409.789,272.054 412.5,275C 417.859,287.401 415.192,297.568 404.5,305.5C 403.276,307.839 403.276,310.172 404.5,312.5C 411.967,317.25 416.3,324.084 417.5,333C 415.13,343.811 409.963,352.978 402,360.5C 401.393,364.381 399.726,367.714 397,370.5C 396.1,369.23 394.934,368.23 393.5,367.5C 396.095,355.027 392.762,344.527 383.5,336C 387.861,332.956 390.694,328.789 392,323.5C 395.759,306.96 390.926,293.793 377.5,284C 387.939,274.63 391.606,263.13 388.5,249.5 Z M 254.5,294.5 C 259.009,294.71 263.342,295.71 267.5,297.5C 268.919,301.404 268.419,305.07 266,308.5C 261.333,312.5 256.667,316.5 252,320.5C 251.167,322.167 250.333,323.833 249.5,325.5C 253.74,333.844 251.74,339.844 243.5,343.5C 239.585,342.141 235.918,340.308 232.5,338C 229.127,334.237 225.294,331.07 221,328.5C 219.888,326.61 219.054,324.61 218.5,322.5C 219.407,316.815 220.407,311.148 221.5,305.5C 224.322,302.587 227.655,300.42 231.5,299C 239.244,297.151 246.911,295.651 254.5,294.5 Z M 249.5,427.5 C 250.496,427.586 251.329,427.252 252,426.5C 261.533,427.635 270.867,428.302 280,428.5C 295.208,425.716 310.375,422.883 325.5,420C 346.786,412.414 366.453,401.914 384.5,388.5C 384.833,389.167 385.167,389.833 385.5,390.5C 382.638,401.724 376.638,410.89 367.5,418C 347.756,423.519 328.089,428.519 308.5,433C 298.08,435.06 287.58,436.56 277,437.5C 266.814,436.608 257.647,433.275 249.5,427.5 Z"/></g>
<g><path style="opacity:0.653" fill="#000000" d="M 165.5,238.5 C 166.822,238.33 167.989,238.663 169,239.5C 169.353,243.232 170.853,246.398 173.5,249C 177.638,251.792 181.804,254.625 186,257.5C 186.595,258.899 186.428,260.232 185.5,261.5C 177.069,261.87 170.236,258.537 165,251.5C 163.916,248.751 163.083,245.918 162.5,243C 162.957,241.06 163.957,239.56 165.5,238.5 Z"/></g>
<g><path style="opacity:0.661" fill="#000000" d="M 160.5,261.5 C 162.288,261.215 163.955,261.548 165.5,262.5C 166.456,265.439 168.123,267.772 170.5,269.5C 173.167,268.5 175.833,267.5 178.5,266.5C 183.385,268.842 183.719,272.009 179.5,276C 165.614,280.59 159.281,275.757 160.5,261.5 Z"/></g>
</svg>
