<?xml version="1.0" encoding="UTF-8"?>
<!DOCTYPE svg PUBLIC "-//W3C//DTD SVG 1.1//EN" "http://www.w3.org/Graphics/SVG/1.1/DTD/svg11.dtd">
<svg xmlns="http://www.w3.org/2000/svg" version="1.1" width="611px" height="611px" style="shape-rendering:geometricPrecision; text-rendering:geometricPrecision; image-rendering:optimizeQuality; fill-rule:evenodd; clip-rule:evenodd" xmlns:xlink="http://www.w3.org/1999/xlink">
<g><path style="opacity:0.779" fill="#000000" d="M 249.5,189.5 C 265.795,188.603 282.128,190.436 298.5,195C 326.842,202.848 353.175,215.014 377.5,231.5C 388.654,240.243 399.988,248.743 411.5,257C 423.698,267.364 433.031,279.864 439.5,294.5C 446.709,273.225 459.376,256.058 477.5,243C 485.435,237.866 493.768,233.533 502.5,230C 530.609,225.427 538.276,235.761 525.5,261C 525.905,261.945 526.572,262.612 527.5,263C 535.113,263.649 542.113,265.983 548.5,270C 552.766,277.23 552.932,284.73 549,292.5C 545.578,297.678 541.911,302.678 538,307.5C 536.85,309.754 536.516,312.087 537,314.5C 545.238,319.081 552.572,324.748 559,331.5C 562.853,340.598 561.353,348.764 554.5,356C 551.537,357.961 548.871,360.294 546.5,363C 537.779,366.442 529.945,371.275 523,377.5C 522.833,378.167 522.667,378.833 522.5,379.5C 528.401,385.66 530.568,392.993 529,401.5C 527.062,407.772 522.895,411.605 516.5,413C 507.405,413.361 498.739,411.528 490.5,407.5C 485.999,403.839 481.332,400.339 476.5,397C 473.281,393.448 470.448,389.615 468,385.5C 463.405,381.461 460.071,376.461 458,370.5C 449.807,360.122 443.141,348.788 438,336.5C 425.279,353.891 410.445,369.391 393.5,383C 380.17,392.218 366.503,400.885 352.5,409C 343.48,412.704 334.48,416.37 325.5,420C 310.387,422.881 295.22,425.714 280,428.5C 270.867,428.302 261.533,427.635 252,426.5C 251.586,426.957 251.086,427.291 250.5,427.5C 233.48,425.725 217.147,421.225 201.5,414C 177.948,402.143 156.782,386.976 138,368.5C 134.333,363.833 130.667,359.167 127,354.5C 123.763,347.693 119.763,341.36 115,335.5C 111.667,327.667 108.834,319.667 106.5,311.5C 108.445,308.259 108.445,305.259 106.5,302.5C 107.768,298.53 108.935,294.53 110,290.5C 117.892,276.977 126.059,263.643 134.5,250.5C 143.349,240.817 152.682,231.651 162.5,223C 176.826,213.671 191.826,205.671 207.5,199C 221.645,194.83 235.645,191.663 249.5,189.5 Z M 245.5,197.5 C 262.633,196.62 279.3,198.12 295.5,202C 317.027,208.924 337.693,217.59 357.5,228C 367.189,235.175 377.189,241.841 387.5,248C 393.921,254.098 400.587,259.765 407.5,265C 412.304,270.475 417.138,275.975 422,281.5C 426.415,290.546 430.748,299.546 435,308.5C 439.309,311.668 442.809,311.001 445.5,306.5C 452.686,274.447 471.686,251.947 502.5,239C 508.865,237.194 515.199,237.194 521.5,239C 522.574,239.739 523.241,240.739 523.5,242C 520.88,247.41 518.38,252.91 516,258.5C 514.956,263.034 516.123,266.867 519.5,270C 526.367,271.707 533.2,273.54 540,275.5C 541.649,276.786 542.815,278.453 543.5,280.5C 537.846,289.133 532.179,297.8 526.5,306.5C 524.508,313.703 526.175,319.87 531.5,325C 537.86,328.45 543.693,332.616 549,337.5C 549.917,342.505 548.417,346.672 544.5,350C 537.117,355.032 529.45,359.699 521.5,364C 513.506,368.808 510.673,375.641 513,384.5C 515.222,388.501 517.055,392.667 518.5,397C 518,399.5 516.5,401 514,401.5C 498.467,398.607 486.467,390.607 478,377.5C 473.821,367.795 468.154,359.128 461,351.5C 457.575,343.578 453.575,335.911 449,328.5C 447.255,327.044 445.422,325.711 443.5,324.5C 442.754,323.264 442.421,321.93 442.5,320.5C 441.5,320.5 440.5,320.5 439.5,320.5C 439.785,322.288 439.452,323.955 438.5,325.5C 434.212,330.443 429.712,335.11 425,339.5C 421.974,343.205 419.308,347.205 417,351.5C 390.707,378.786 359.874,399.286 324.5,413C 311.791,415.118 299.124,417.451 286.5,420C 262.142,422.087 238.475,419.421 215.5,412C 204.625,406.063 193.625,400.396 182.5,395C 173.074,388.742 164.074,381.909 155.5,374.5C 147.537,367.626 140.37,359.96 134,351.5C 130.516,344.534 126.516,337.868 122,331.5C 119.989,324.959 117.156,318.792 113.5,313C 123.712,308.356 133.712,309.023 143.5,315C 147.492,318.622 151.492,322.289 155.5,326C 157.134,326.494 158.801,326.66 160.5,326.5C 160.799,324.396 160.466,322.396 159.5,320.5C 151.384,310.525 140.884,305.192 128,304.5C 123.498,304.882 118.998,305.215 114.5,305.5C 114.579,304.07 114.246,302.736 113.5,301.5C 126.133,271.552 144.8,246.719 169.5,227C 176.962,223.803 183.962,219.803 190.5,215C 197.764,211.682 205.098,208.349 212.5,205C 223.635,202.485 234.635,199.985 245.5,197.5 Z"/></g>
<g><path style="opacity:0.653" fill="#000000" d="M 165.5,238.5 C 166.822,238.33 167.989,238.663 169,239.5C 169.353,243.232 170.853,246.398 173.5,249C 177.638,251.792 181.804,254.625 186,257.5C 186.595,258.899 186.428,260.232 185.5,261.5C 177.069,261.87 170.236,258.537 165,251.5C 163.916,248.751 163.083,245.918 162.5,243C 162.957,241.06 163.957,239.56 165.5,238.5 Z"/></g>
<g><path style="opacity:0.643" fill="#000000" d="M 211.5,253.5 C 212.822,253.33 213.989,253.663 215,254.5C 216.197,257.089 217.197,259.756 218,262.5C 223.275,288.537 222.275,314.537 215,340.5C 212.297,346.799 209.131,352.799 205.5,358.5C 205.167,357.667 204.833,356.833 204.5,356C 213.218,332.288 217.051,307.788 216,282.5C 215.07,272.724 213.57,263.058 211.5,253.5 Z"/></g>
<g><path style="opacity:0.661" fill="#000000" d="M 160.5,261.5 C 162.288,261.215 163.955,261.548 165.5,262.5C 166.456,265.439 168.123,267.772 170.5,269.5C 173.167,268.5 175.833,267.5 178.5,266.5C 183.385,268.842 183.719,272.009 179.5,276C 165.614,280.59 159.281,275.757 160.5,261.5 Z"/></g>
</svg>
