<?xml version="1.0" encoding="UTF-8"?>
<!DOCTYPE svg PUBLIC "-//W3C//DTD SVG 1.1//EN" "http://www.w3.org/Graphics/SVG/1.1/DTD/svg11.dtd">
<svg xmlns="http://www.w3.org/2000/svg" version="1.1" width="611px" height="611px" style="shape-rendering:geometricPrecision; text-rendering:geometricPrecision; image-rendering:optimizeQuality; fill-rule:evenodd; clip-rule:evenodd" xmlns:xlink="http://www.w3.org/1999/xlink">
<g><path style="opacity:0.783" fill="#000000" d="M 206.5,195.5 C 220.469,195.108 234.469,196.275 248.5,199C 269.988,205.048 290.655,213.048 310.5,223C 325.33,232.916 340.33,242.583 355.5,252C 366.938,261.104 377.438,271.27 387,282.5C 390.073,288.555 393.24,294.555 396.5,300.5C 406.61,273.227 424.61,253.06 450.5,240C 460.552,235.951 470.885,234.951 481.5,237C 484.171,238.25 486.337,240.083 488,242.5C 488.667,246.833 488.667,251.167 488,255.5C 485.981,259.212 484.148,263.046 482.5,267C 482.905,267.945 483.572,268.612 484.5,269C 492.113,269.649 499.113,271.983 505.5,276C 509.794,281.641 510.627,287.808 508,294.5C 504.408,301.354 500.075,307.687 495,313.5C 493.85,315.754 493.516,318.087 494,320.5C 502.238,325.081 509.572,330.748 516,337.5C 518.257,342.363 518.757,347.363 517.5,352.5C 513.327,359.946 507.66,366.113 500.5,371C 492.76,373.284 486.26,377.45 481,383.5C 481.759,388.045 483.425,392.378 486,396.5C 487.871,415.673 479.371,422.84 460.5,418C 448.906,415.12 439.072,409.287 431,400.5C 424.75,393.257 419.75,385.257 416,376.5C 411.385,369.55 406.385,362.884 401,356.5C 399.551,351.601 397.551,346.935 395,342.5C 384.768,356.06 373.602,368.894 361.5,381C 346.861,390.651 332.528,400.651 318.5,411C 306.719,416.558 294.719,421.558 282.5,426C 267.697,428.774 252.864,431.607 238,434.5C 228.519,434.344 218.852,433.677 209,432.5C 208.586,432.957 208.086,433.291 207.5,433.5C 182.357,429.792 158.691,421.626 136.5,409C 126.085,399.585 115.085,390.918 103.5,383C 84.5187,364.824 71.5187,342.991 64.5,317.5C 66.4454,314.259 66.4454,311.259 64.5,308.5C 72.3457,284.73 84.679,263.564 101.5,245C 120.414,228.377 141.414,215.043 164.5,205C 178.704,201.043 192.704,197.876 206.5,195.5 Z M 115.5,243.5 C 155.123,208.803 200.789,196.97 252.5,208C 272.524,213.689 291.524,221.523 309.5,231.5C 310.287,232.242 310.953,233.075 311.5,234C 336.187,246.354 357.687,262.854 376,283.5C 381.624,293.75 386.957,304.083 392,314.5C 395.209,317.012 398.375,317.012 401.5,314.5C 402.747,312.994 402.747,311.494 401.5,310C 408.498,291.04 419.165,274.373 433.5,260C 441.577,253.962 450.244,248.962 459.5,245C 465.119,243.701 470.786,243.368 476.5,244C 478.967,244.796 480.3,246.463 480.5,249C 478.496,254.182 476.329,259.348 474,264.5C 472.956,269.034 474.123,272.867 477.5,276C 483.997,277.833 490.497,279.666 497,281.5C 500.693,284.221 501.359,287.555 499,291.5C 490.556,298.565 485.056,307.398 482.5,318C 482.411,323.334 484.411,327.667 488.5,331C 494.86,334.45 500.693,338.616 506,343.5C 507.466,348.735 505.966,352.901 501.5,356C 494.765,360.698 487.765,365.031 480.5,369C 475.163,372.335 471.496,377.002 469.5,383C 470.97,389.946 473.303,396.612 476.5,403C 476.197,405.878 474.697,407.711 472,408.5C 466.953,406.483 461.787,404.65 456.5,403C 451.387,399.887 446.554,396.387 442,392.5C 434.334,380.837 426.667,369.17 419,357.5C 415.88,352.923 413.546,347.923 412,342.5C 408.995,337.662 405.161,333.662 400.5,330.5C 399.754,329.264 399.421,327.93 399.5,326.5C 398.5,326.5 397.5,326.5 396.5,326.5C 396.785,328.288 396.452,329.955 395.5,331.5C 391.212,336.443 386.712,341.11 382,345.5C 381.529,347.246 380.862,348.913 380,350.5C 373.862,357.308 367.695,364.141 361.5,371C 347.579,382.924 332.579,393.258 316.5,402C 313.546,403.646 310.88,405.646 308.5,408C 299.5,411.667 290.5,415.333 281.5,419C 269.104,421.01 256.771,423.344 244.5,426C 210.979,428.899 179.479,422.732 150,407.5C 137.122,399.136 124.622,390.136 112.5,380.5C 93.528,363.914 80.028,343.581 72,319.5C 71.2025,317.741 71.3691,316.074 72.5,314.5C 86.7922,316.028 101.126,317.028 115.5,317.5C 117.059,316.926 118.559,316.26 120,315.5C 120.684,314.216 120.517,313.049 119.5,312C 105.5,311.667 91.5,311.333 77.5,311C 74.7549,310.947 72.7549,309.78 71.5,307.5C 76.5197,294.46 82.853,282.127 90.5,270.5C 92.1933,268.973 94.0266,267.64 96,266.5C 98.5306,258.959 103.031,252.792 109.5,248C 113.922,245.923 118.422,245.423 123,246.5C 123.167,246.833 123.333,247.167 123.5,247.5C 117.621,247.831 112.788,250.164 109,254.5C 107.798,256.677 107.298,259.011 107.5,261.5C 108.833,261.5 110.167,261.5 111.5,261.5C 112.926,256.25 116.426,253.25 122,252.5C 125.328,253.08 128.161,254.58 130.5,257C 131.793,257.49 133.127,257.657 134.5,257.5C 135.145,254.453 134.145,252.287 131.5,251C 133.167,250.667 134.833,250.333 136.5,250C 129.98,245.498 122.98,243.332 115.5,243.5 Z"/></g>
<g><path style="opacity:0.004" fill="#000000" d="M 139.5,252.5 C 141.544,253.031 143.211,254.198 144.5,256C 143.646,257.022 142.646,257.855 141.5,258.5C 140.705,256.505 140.039,254.505 139.5,252.5 Z"/></g>
<g><path style="opacity:0.565" fill="#000000" d="M 168.5,259.5 C 169.822,259.33 170.989,259.663 172,260.5C 173.171,263.255 174.504,265.921 176,268.5C 180.495,290.831 180.329,313.331 175.5,336C 173.533,342.7 171.033,349.2 168,355.5C 166.654,358.87 164.821,361.87 162.5,364.5C 162.167,363.667 161.833,362.833 161.5,362C 170.215,338.295 174.048,313.795 173,288.5C 172.07,278.724 170.57,269.058 168.5,259.5 Z"/></g>
<g><path style="opacity:0.616" fill="#000000" d="M 121.5,264.5 C 130.958,265.432 134.458,270.432 132,279.5C 131.097,280.701 129.931,281.535 128.5,282C 124.673,283.219 120.839,283.719 117,283.5C 110.531,281.569 107.864,277.236 109,270.5C 112.514,267.346 114.514,268.013 115,272.5C 116.479,269.172 118.645,266.506 121.5,264.5 Z"/></g>
<g><path style="opacity:0.004" fill="#000000" d="M 44.5,286.5 C 45.525,286.897 45.6917,287.563 45,288.5C 44.5357,287.906 44.369,287.239 44.5,286.5 Z"/></g>
</svg>
