<?xml version="1.0" encoding="UTF-8"?>
<!DOCTYPE svg PUBLIC "-//W3C//DTD SVG 1.1//EN" "http://www.w3.org/Graphics/SVG/1.1/DTD/svg11.dtd">
<svg xmlns="http://www.w3.org/2000/svg" version="1.1" width="611px" height="611px" style="shape-rendering:geometricPrecision; text-rendering:geometricPrecision; image-rendering:optimizeQuality; fill-rule:evenodd; clip-rule:evenodd" xmlns:xlink="http://www.w3.org/1999/xlink">
<g><path style="opacity:0.695" fill="#000000" d="M 256.5,184.5 C 268.72,184.193 281.387,184.693 294.5,186C 310.422,188.911 326.089,191.911 341.5,195C 346.634,197.38 351.967,199.38 357.5,201C 361.674,203.588 366.007,205.921 370.5,208C 383.152,217.188 395.819,226.188 408.5,235C 418.737,244.948 428.737,255.115 438.5,265.5C 442.715,268.889 447.048,272.056 451.5,275C 453.037,276.11 453.703,277.61 453.5,279.5C 457.578,278.298 461.578,276.798 465.5,275C 469.217,271.615 473.217,268.615 477.5,266C 499.198,260.18 519.531,263.18 538.5,275C 545.255,280.479 546.922,287.146 543.5,295C 539.693,301.414 534.693,306.747 528.5,311C 514.243,320.868 498.41,326.702 481,328.5C 472.181,327.191 463.347,326.358 454.5,326C 446.086,335.417 436.752,343.751 426.5,351C 424.655,352.128 422.655,352.628 420.5,352.5C 422.966,364.587 419.966,375.087 411.5,384C 400.36,393.151 388.693,401.485 376.5,409C 355.641,419.505 334.307,428.839 312.5,437C 301.129,439.959 297.295,435.793 301,424.5C 304.808,415.894 308.308,407.228 311.5,398.5C 265.094,404.298 219.094,400.631 173.5,387.5C 168.304,391.538 163.304,395.704 158.5,400C 139.419,411.01 119.085,415.01 97.5,412C 90.962,411.654 86.462,408.487 84,402.5C 82.648,394.831 85.8147,389.997 93.5,388C 96.1897,387.229 98.8564,386.396 101.5,385.5C 106.571,381.976 111.571,378.476 116.5,375C 121.775,368.966 126.942,362.799 132,356.5C 132.867,354.316 133.701,352.149 134.5,350C 131.371,345.538 127.538,341.705 123,338.5C 121.431,339.122 119.764,339.456 118,339.5C 108.479,338.146 98.9792,336.646 89.5,335C 83.2206,332.858 77.5539,329.691 72.5,325.5C 68.6376,321.099 68.6376,316.766 72.5,312.5C 74.9928,310.42 77.6595,308.586 80.5,307C 86.7131,304.367 93.0464,302.2 99.5,300.5C 99.3367,298.143 99.5034,295.81 100,293.5C 102.895,286.708 106.562,280.375 111,274.5C 127.329,257.174 143.829,240.341 160.5,224C 175.291,214.855 190.291,206.188 205.5,198C 221.933,191.372 238.933,186.872 256.5,184.5 Z M 252.5,192.5 C 260.683,192.605 269.016,192.605 277.5,192.5C 277.376,204.583 277.543,216.583 278,228.5C 266.215,234.975 254.381,241.309 242.5,247.5C 230.901,242.401 219.901,236.234 209.5,229C 210.464,220.9 210.464,212.733 209.5,204.5C 223.647,199.478 237.981,195.478 252.5,192.5 Z M 283.5,192.5 C 299.135,194.995 314.802,197.495 330.5,200C 336.697,201.607 342.697,203.773 348.5,206.5C 349.665,213.811 349.831,221.144 349,228.5C 338.454,233.856 328.287,239.856 318.5,246.5C 314.214,243.524 309.547,241.357 304.5,240C 300.081,236.466 295.081,233.966 289.5,232.5C 287.651,231.407 285.984,230.074 284.5,228.5C 283.822,218.607 283.155,208.773 282.5,199C 283.423,196.959 283.756,194.792 283.5,192.5 Z M 200.5,208.5 C 201.5,208.5 202.5,208.5 203.5,208.5C 203.503,212.524 203.836,216.524 204.5,220.5C 204.263,223.924 203.596,227.257 202.5,230.5C 194.232,236.548 185.732,242.215 177,247.5C 169.063,245.744 161.23,243.577 153.5,241C 165.084,229.531 178.417,220.531 193.5,214C 196.02,212.303 198.353,210.47 200.5,208.5 Z M 355.5,209.5 C 363.599,213.058 370.933,217.891 377.5,224C 381.261,226.765 385.261,229.098 389.5,231C 392.076,234.287 395.076,237.12 398.5,239.5C 395.473,240.361 392.806,241.861 390.5,244C 385.49,243.495 381.156,241.329 377.5,237.5C 370.614,234.739 363.948,231.572 357.5,228C 356.809,226.933 356.309,225.766 356,224.5C 355.501,219.511 355.334,214.511 355.5,209.5 Z M 206.5,235.5 C 216.37,242.605 227.037,248.439 238.5,253C 237.843,259.412 237.51,266.078 237.5,273C 237.791,276.912 238.457,280.745 239.5,284.5C 227.26,291.783 214.926,298.783 202.5,305.5C 198.409,304.48 195.075,302.314 192.5,299C 187.584,296.293 182.751,293.459 178,290.5C 177.691,289.234 177.191,288.067 176.5,287C 177.438,276.575 177.438,266.241 176.5,256C 187.053,249.897 197.053,243.064 206.5,235.5 Z M 281.5,235.5 C 292.214,240.024 302.548,245.358 312.5,251.5C 313.225,257.675 313.892,263.842 314.5,270C 314.087,275.303 313.587,280.469 313,285.5C 306.812,289.996 300.312,294.163 293.5,298C 288.723,299.888 284.057,302.054 279.5,304.5C 271.445,299.951 263.778,294.784 256.5,289C 253.36,287.284 250.027,285.951 246.5,285C 244.933,279.816 243.933,274.482 243.5,269C 244.136,263.877 244.136,258.71 243.5,253.5C 249.702,250.857 256.036,248.357 262.5,246C 268.815,242.198 275.148,238.698 281.5,235.5 Z M 353.5,235.5 C 363.923,238.962 373.756,243.629 383,249.5C 384.581,260.932 386.081,272.599 387.5,284.5C 387.333,285.833 387.167,287.167 387,288.5C 385.5,289.333 384.333,290.5 383.5,292C 373.405,296.465 363.571,301.298 354,306.5C 341.64,303.474 331.307,297.14 323,287.5C 321.277,284.228 320.777,280.894 321.5,277.5C 320.516,268.724 319.85,260.058 319.5,251.5C 331.085,246.708 342.418,241.374 353.5,235.5 Z M 148.5,244.5 C 156.005,247.949 163.672,251.116 171.5,254C 169.547,265.194 168.88,276.361 169.5,287.5C 165.833,287.651 163,289.318 161,292.5C 158.102,293.365 155.602,294.865 153.5,297C 151.212,297.822 148.878,298.489 146.5,299C 145.195,301.148 143.362,302.648 141,303.5C 133.473,297.973 126.973,291.473 121.5,284C 119.772,282.274 117.772,280.941 115.5,280C 126.366,267.97 137.366,256.137 148.5,244.5 Z M 403.5,244.5 C 404.922,244.709 406.255,245.209 407.5,246C 410.859,249.029 414.192,252.029 417.5,255C 426.636,265.389 435.969,275.556 445.5,285.5C 444.041,287.583 442.708,289.75 441.5,292C 434.394,296.236 427.227,300.403 420,304.5C 410.971,301.83 402.638,297.83 395,292.5C 393.805,280.435 392.305,268.268 390.5,256C 390.833,254.5 391.167,253 391.5,251.5C 395.877,249.518 399.877,247.184 403.5,244.5 Z M 491.5,269.5 C 505.636,269.294 518.969,272.46 531.5,279C 537.266,282.925 538.433,287.759 535,293.5C 531.988,297.011 528.822,300.344 525.5,303.5C 516.255,308.039 507.089,312.706 498,317.5C 497.586,317.043 497.086,316.709 496.5,316.5C 491.808,318.1 486.975,319.1 482,319.5C 474.028,318.381 466.195,316.715 458.5,314.5C 458.373,310.705 458.706,307.038 459.5,303.5C 458.02,297.244 457.02,290.911 456.5,284.5C 464.55,283.141 471.55,279.641 477.5,274C 482.135,272.052 486.802,270.552 491.5,269.5 Z M 111.5,283.5 C 118.204,292.04 125.871,299.874 134.5,307C 142.561,312.699 151.228,317.365 160.5,321C 195.193,329.291 230.36,335.458 266,339.5C 303.03,338.308 339.863,334.475 376.5,328C 390.946,323.467 405.28,318.467 419.5,313C 429.897,307.255 439.73,300.755 449,293.5C 449.333,292.5 449.667,291.5 450,290.5C 452.181,298.368 452.848,306.368 452,314.5C 450.729,317.433 449.062,320.099 447,322.5C 441.506,328.656 435.339,334.156 428.5,339C 420.5,342.667 412.5,346.333 404.5,350C 395.533,352.793 386.533,355.46 377.5,358C 355.379,361.578 333.213,364.411 311,366.5C 305.974,366.432 300.974,366.432 296,366.5C 287.439,364.276 279.106,364.276 271,366.5C 266.641,366.484 262.141,366.317 257.5,366C 247.203,364.624 236.87,363.624 226.5,363C 206.097,359.461 185.43,356.128 164.5,353C 141.881,346.76 124.381,333.593 112,313.5C 109.736,308.207 107.569,302.873 105.5,297.5C 107.692,292.925 109.692,288.259 111.5,283.5 Z M 241.5,290.5 C 246.014,292.809 250.681,294.976 255.5,297C 261.457,301.226 267.624,305.059 274,308.5C 274.419,309.672 275.085,310.672 276,311.5C 276.5,317.825 276.666,324.158 276.5,330.5C 269.955,330.631 263.455,330.631 257,330.5C 241.572,328.82 226.239,326.486 211,323.5C 210.766,319.686 209.932,316.019 208.5,312.5C 218.33,305.679 228.663,299.679 239.5,294.5C 240.705,293.423 241.372,292.09 241.5,290.5 Z M 316.5,292.5 C 324.083,298.918 332.083,304.751 340.5,310C 344.084,311.073 347.75,311.74 351.5,312C 352.464,316.066 352.797,320.233 352.5,324.5C 329.873,326.617 306.873,328.617 283.5,330.5C 282.854,323.281 282.854,316.281 283.5,309.5C 295.249,305.149 306.249,299.483 316.5,292.5 Z M 171.5,293.5 C 180.844,301.509 191.177,308.009 202.5,313C 203.451,316.057 203.784,319.223 203.5,322.5C 183.919,320.772 165.252,315.939 147.5,308C 147.167,307.667 146.833,307.333 146.5,307C 155.483,303.473 163.816,298.973 171.5,293.5 Z M 388.5,296.5 C 392.91,299.051 397.244,301.884 401.5,305C 404.726,305.885 407.726,307.219 410.5,309C 399.481,313.598 388.147,317.598 376.5,321C 370.951,322.677 365.285,323.51 359.5,323.5C 359.701,320.272 359.367,317.105 358.5,314C 358.759,312.739 359.426,311.739 360.5,311C 369.858,306.059 379.192,301.226 388.5,296.5 Z M 100.5,306.5 C 104.114,312.099 107.28,318.099 110,324.5C 117.59,330.211 116.424,332.044 106.5,330C 96.1604,329.587 86.827,326.421 78.5,320.5C 77.6744,319.549 77.5078,318.549 78,317.5C 79.7713,316.696 81.2713,315.529 82.5,314C 88.8032,311.962 94.8032,309.462 100.5,306.5 Z M 140.5,351.5 C 144.922,354.704 149.922,356.871 155.5,358C 185.567,363.103 215.567,368.103 245.5,373C 268.502,375.97 291.502,375.803 314.5,372.5C 320.344,373.543 326.344,373.71 332.5,373C 327.03,378.291 322.03,383.958 317.5,390C 313.398,389.786 309.398,389.62 305.5,389.5C 274.384,394.04 243.384,393.373 212.5,387.5C 211.914,387.709 211.414,388.043 211,388.5C 203.731,386.103 196.397,385.103 189,385.5C 185.359,383.835 181.525,382.668 177.5,382C 176,381.167 174.833,380 174,378.5C 167.5,379.995 162.333,383.495 158.5,389C 154.411,392.095 150.077,394.761 145.5,397C 132.651,401.577 119.817,404.077 107,404.5C 101.084,404.147 95.5842,402.48 90.5,399.5C 90.6667,399.167 90.8333,398.833 91,398.5C 100.331,394.584 109.164,389.751 117.5,384C 124.718,376.617 131.384,368.784 137.5,360.5C 138.35,357.427 139.35,354.427 140.5,351.5 Z M 411.5,355.5 C 413.409,362.536 412.242,369.203 408,375.5C 402.945,379.208 398.112,383.374 393.5,388C 368.498,404.45 342.164,418.45 314.5,430C 312.302,430.373 310.135,430.873 308,431.5C 307.5,431.167 307,430.833 306.5,430.5C 311.069,419.031 315.903,407.697 321,396.5C 327.814,387.021 335.647,378.521 344.5,371C 367.598,368.473 389.931,363.306 411.5,355.5 Z"/></g>
<g><path style="opacity:0.671" fill="#000000" d="M 506.5,277.5 C 512.751,277.948 514.918,281.282 513,287.5C 506.698,292.273 502.198,290.939 499.5,283.5C 500.685,279.969 503.019,277.969 506.5,277.5 Z"/></g>
</svg>
