<?xml version="1.0" encoding="UTF-8"?>
<!DOCTYPE svg PUBLIC "-//W3C//DTD SVG 1.1//EN" "http://www.w3.org/Graphics/SVG/1.1/DTD/svg11.dtd">
<svg xmlns="http://www.w3.org/2000/svg" version="1.1" width="611px" height="611px" style="shape-rendering:geometricPrecision; text-rendering:geometricPrecision; image-rendering:optimizeQuality; fill-rule:evenodd; clip-rule:evenodd" xmlns:xlink="http://www.w3.org/1999/xlink">
<g><path style="opacity:0.847" fill="#000000" d="M 164.5,409.5 C 149.802,413.841 135.136,416.175 120.5,416.5C 111.781,415.172 108.281,410.172 110,401.5C 116.172,393.662 123.339,386.829 131.5,381C 139.5,378 147.5,375 155.5,372C 162.4,370.183 169.4,369.017 176.5,368.5C 175.339,362.5 175.172,356.5 176,350.5C 170.265,355.286 164.099,359.452 157.5,363C 142.676,370.053 127.176,374.886 111,377.5C 97.1427,377.458 93.1427,371.124 99,358.5C 107.191,343.66 119.024,332.827 134.5,326C 128.962,325.764 123.462,325.264 118,324.5C 107.828,325.499 99.3276,322.166 92.5,314.5C 91.9366,313.061 91.6032,311.561 91.5,310C 92.3718,305.422 94.2051,301.255 97,297.5C 101.316,291.634 106.149,286.134 111.5,281C 120.942,274.946 130.942,269.946 141.5,266C 149.69,264.422 158.023,264.422 166.5,266C 169.428,267.38 172.262,268.88 175,270.5C 179.085,262.313 183.918,254.479 189.5,247C 181.083,242.011 176.917,234.511 177,224.5C 167.766,219.933 160.432,213.266 155,204.5C 150.636,196.971 147.47,188.971 145.5,180.5C 145.033,176.164 145.533,171.831 147,167.5C 148.885,165.98 151.051,164.98 153.5,164.5C 164.008,164.944 173.174,168.611 181,175.5C 183.235,166.367 187.069,158.033 192.5,150.5C 195.141,148.419 198.141,147.086 201.5,146.5C 202.5,147 203.5,147.5 204.5,148C 211.59,157.351 216.09,167.851 218,179.5C 218.833,185.333 219.667,191.167 220.5,197C 219.477,203.204 217.477,209.037 214.5,214.5C 215.639,217.917 216.972,221.25 218.5,224.5C 229.225,219.15 240.558,215.65 252.5,214C 240.587,207.074 232.754,196.908 229,183.5C 225.786,164.765 232.953,151.598 250.5,144C 274.508,141.21 286.508,152.043 286.5,176.5C 287.093,187.154 283.593,196.154 276,203.5C 275.503,206.146 275.336,208.813 275.5,211.5C 282.574,211.426 289.574,210.759 296.5,209.5C 297.681,207.865 297.681,206.198 296.5,204.5C 297.074,202.941 297.74,201.441 298.5,200C 286.363,188.695 284.863,176.195 294,162.5C 300.611,154.357 308.944,148.69 319,145.5C 333.089,146.367 341.422,153.7 344,167.5C 344.818,173.902 344.484,180.235 343,186.5C 340.711,191.352 338.044,196.018 335,200.5C 331.88,203.802 328.38,206.469 324.5,208.5C 334.799,211.045 345.132,213.379 355.5,215.5C 355.443,213.116 355.777,210.782 356.5,208.5C 353.943,199.794 352.276,191.128 351.5,182.5C 353.476,157.017 367.143,144.85 392.5,146C 393.5,146.833 394.5,147.667 395.5,148.5C 396.682,153.93 398.182,159.263 400,164.5C 403.734,161.048 407.9,158.215 412.5,156C 415.662,155.554 418.662,156.054 421.5,157.5C 422.624,166.784 423.958,176.284 425.5,186C 425.554,195.066 423.554,203.566 419.5,211.5C 414.281,219.88 406.781,224.88 397,226.5C 392.616,226.815 388.116,226.481 383.5,225.5C 383.343,226.873 383.51,228.207 384,229.5C 391.074,236.982 396.074,245.649 399,255.5C 405.892,250.806 413.392,247.306 421.5,245C 446.063,237.368 469.23,240.202 491,253.5C 491.719,260.577 489.219,266.411 483.5,271C 473.619,278.882 462.619,284.549 450.5,288C 453.426,288.218 456.26,288.718 459,289.5C 466.243,290.787 472.91,294.12 479,299.5C 478.99,307.849 475.49,314.516 468.5,319.5C 460.472,324.573 451.805,328.406 442.5,331C 456.701,334.402 470.368,339.402 483.5,346C 488.398,348.951 490.064,353.118 488.5,358.5C 482.717,365.567 475.383,370.4 466.5,373C 448.347,378.007 430.014,378.674 411.5,375C 409.759,373.38 407.925,371.88 406,370.5C 405.782,373.426 405.282,376.26 404.5,379C 405.211,380.255 406.044,381.421 407,382.5C 411.322,381.529 415.488,380.862 419.5,380.5C 436.7,383.276 452.7,389.11 467.5,398C 472.972,403.807 478.472,409.64 484,415.5C 489.096,424.036 494.43,432.369 500,440.5C 501.572,447.186 499.072,451.019 492.5,452C 457.196,454.676 426.362,444.176 400,420.5C 399.012,428.841 394.845,434.841 387.5,438.5C 386.02,437.011 385.187,435.345 385,433.5C 338.631,453.085 290.298,458.752 240,450.5C 225.27,450.732 212.27,446.065 201,436.5C 193.45,442.381 185.616,447.881 177.5,453C 166.614,458.076 155.448,462.576 144,466.5C 143.055,466.095 142.388,465.428 142,464.5C 141.044,465.894 139.711,466.561 138,466.5C 131.55,465.441 125.884,462.775 121,458.5C 119.156,453.877 119.156,449.211 121,444.5C 126.264,438.321 131.764,432.321 137.5,426.5C 146.766,421.046 155.766,415.379 164.5,409.5 Z M 254.5,152.5 C 269.011,152.173 276.677,159.34 277.5,174C 277.039,177.229 276.539,180.729 276,184.5C 273.106,191.392 269.772,198.059 266,204.5C 265.825,207.157 265.992,209.824 266.5,212.5C 264.833,212.5 263.167,212.5 261.5,212.5C 261.579,211.07 261.246,209.736 260.5,208.5C 245.547,199.937 238.38,186.937 239,169.5C 241.44,161.246 246.607,155.579 254.5,152.5 Z M 326.5,192.5 C 325.7,194.682 324.2,196.349 322,197.5C 319.684,196.633 317.684,197.299 316,199.5C 315.548,202.877 314.882,206.211 314,209.5C 312.204,208.233 310.371,208.233 308.5,209.5C 308.167,208.667 307.833,207.833 307.5,207C 308.503,204.532 309.003,202.032 309,199.5C 304.847,194.68 301.514,189.347 299,183.5C 297.827,178.023 298.827,173.023 302,168.5C 306.721,161.774 313.054,157.441 321,155.5C 330.987,159.471 335.32,166.804 334,177.5C 332.502,166.326 326.336,162.659 315.5,166.5C 307.062,172.013 304.562,179.346 308,188.5C 313.344,193.36 319.511,194.693 326.5,192.5 Z M 383.5,156.5 C 384.75,156.577 385.583,157.244 386,158.5C 387.013,163.363 388.18,168.196 389.5,173C 388.386,181.639 392.053,184.306 400.5,181C 404,178.167 407.5,175.333 411,172.5C 413.343,183.387 412.676,194.053 409,204.5C 404.515,210.159 398.681,213.326 391.5,214C 386.821,214.164 382.155,214.164 377.5,214C 375.906,216.884 374.239,219.717 372.5,222.5C 370.088,221.423 367.754,220.256 365.5,219C 367.91,218.242 368.91,216.575 368.5,214C 365.707,204.161 363.707,194.161 362.5,184C 361.913,168.782 368.913,159.615 383.5,156.5 Z M 198.5,158.5 C 204.486,167.505 207.986,177.505 209,188.5C 209.667,192.833 209.667,197.167 209,201.5C 207.502,203.614 205.669,204.114 203.5,203C 202.282,204.438 201.615,206.105 201.5,208C 203.684,215.412 206.018,222.745 208.5,230C 204.025,233.804 199.525,237.637 195,241.5C 192.667,237.167 190.333,232.833 188,228.5C 186.642,223.544 185.475,218.544 184.5,213.5C 182.252,212.622 180.085,212.955 178,214.5C 164.379,205.544 156.546,192.877 154.5,176.5C 154.667,175.5 154.833,174.5 155,173.5C 158.213,175.286 161.713,176.452 165.5,177C 170.546,179.19 174.88,182.357 178.5,186.5C 180.421,187.641 182.421,187.808 184.5,187C 186.969,184.559 188.802,181.726 190,178.5C 192.174,171.455 195.007,164.788 198.5,158.5 Z M 262.5,176.5 C 266.544,179.402 266.044,181.735 261,183.5C 260.25,182.874 259.416,182.374 258.5,182C 259.965,180.226 261.298,178.392 262.5,176.5 Z M 319.5,176.5 C 321.913,177.68 322.913,179.68 322.5,182.5C 320.5,182.5 318.5,182.5 316.5,182.5C 316.455,179.923 317.455,177.923 319.5,176.5 Z M 308.5,218.5 C 324.091,218.573 339.757,221.407 355.5,227C 355.167,227.333 354.833,227.667 354.5,228C 356.351,228.837 358.184,229.671 360,230.5C 361.945,229.308 363.945,229.308 366,230.5C 370.082,234.418 374.582,237.751 379.5,240.5C 385.199,247.565 389.032,255.565 391,264.5C 392.56,271.422 393.726,278.422 394.5,285.5C 394.481,306.779 394.481,327.945 394.5,349C 393.037,361.398 391.371,373.564 389.5,385.5C 388.4,397.432 386.4,409.432 383.5,421.5C 372.423,427.344 361.09,431.844 349.5,435C 330.184,439.933 310.351,443.1 290,444.5C 272.832,443.367 255.666,442.2 238.5,441C 225.977,439.898 214.644,435.731 204.5,428.5C 203.686,426.234 203.186,423.9 203,421.5C 201.644,420.62 200.144,420.286 198.5,420.5C 190.687,385.915 184.354,351.249 179.5,316.5C 180.244,300.128 183.077,284.128 188,268.5C 195.906,251.985 208.406,240.652 225.5,234.5C 225.5,233.5 225.5,232.5 225.5,231.5C 233.371,229.265 241.204,226.932 249,224.5C 250.799,224.721 252.632,225.054 254.5,225.5C 260.102,223.507 265.769,222.84 271.5,223.5C 279.993,221.646 288.66,220.312 297.5,219.5C 301.379,220.634 305.045,220.301 308.5,218.5 Z M 445.5,252.5 C 455.915,252.21 465.915,254.377 475.5,259C 475.833,259.333 476.167,259.667 476.5,260C 464.34,270.328 450.34,275.828 434.5,276.5C 426.151,277.347 417.817,278.347 409.5,279.5C 407.833,278.833 406.167,278.167 404.5,277.5C 402.745,273.233 402.411,268.899 403.5,264.5C 416.732,257.592 430.732,253.592 445.5,252.5 Z M 147.5,276.5 C 156.253,275.563 164.587,276.896 172.5,280.5C 172.833,281.667 173.167,282.833 173.5,284C 172.417,289.162 171.417,294.329 170.5,299.5C 161.946,303.414 153.279,307.247 144.5,311C 137.24,312.907 130.073,314.074 123,314.5C 116.782,313.825 110.615,312.658 104.5,311C 103.825,308.758 104.325,306.591 106,304.5C 114.471,293.692 124.971,285.526 137.5,280C 141.052,279.122 144.386,277.956 147.5,276.5 Z M 405.5,289.5 C 415.194,290.993 415.528,292.993 406.5,295.5C 405.534,293.604 405.201,291.604 405.5,289.5 Z M 431.5,299.5 C 439.875,299.316 448.208,299.816 456.5,301C 459.785,301.759 462.785,303.092 465.5,305C 455.18,313.759 443.18,318.592 429.5,319.5C 424.828,318.842 420.328,318.842 416,319.5C 413.084,317.959 410.251,316.293 407.5,314.5C 406.167,311.5 406.167,308.5 407.5,305.5C 415.163,301.838 423.163,299.838 431.5,299.5 Z M 153.5,320.5 C 158.835,318.163 164.169,315.829 169.5,313.5C 169.5,316.167 169.5,318.833 169.5,321.5C 164.187,320.902 158.854,320.569 153.5,320.5 Z M 406.5,326.5 C 415.345,329.584 415.345,331.917 406.5,333.5C 406.5,331.167 406.5,328.833 406.5,326.5 Z M 153.5,331.5 C 159.545,331.303 165.545,331.637 171.5,332.5C 171.575,335.206 171.908,337.873 172.5,340.5C 170.436,340.687 168.436,341.187 166.5,342C 150.342,354.067 132.175,361.901 112,365.5C 111.167,365.167 110.333,364.833 109.5,364.5C 119.86,347.664 134.527,336.664 153.5,331.5 Z M 415.5,341.5 C 435.965,340.713 454.965,345.547 472.5,356C 470.517,357.889 468.184,359.222 465.5,360C 456.52,361.719 447.52,363.219 438.5,364.5C 430.488,364.313 422.155,363.813 413.5,363C 407.06,358.213 404.894,351.713 407,343.5C 407.414,343.957 407.914,344.291 408.5,344.5C 410.885,343.339 413.219,342.339 415.5,341.5 Z M 124.5,403.5 C 128.102,397.48 133.102,392.98 139.5,390C 152.07,384.82 164.904,380.654 178,377.5C 178.74,380.176 179.073,382.842 179,385.5C 163.349,398.545 145.183,404.545 124.5,403.5 Z M 403.5,392.5 C 440.42,391.449 467.42,407.115 484.5,439.5C 467.022,440.431 450.022,436.931 433.5,429C 424.952,423.225 415.952,418.225 406.5,414C 403.77,412.122 402.103,409.622 401.5,406.5C 402.261,401.837 402.928,397.17 403.5,392.5 Z M 164.5,409.5 C 168.148,406.003 172.481,403.503 177.5,402C 182.263,396.308 183.93,397.475 182.5,405.5C 181.914,405.291 181.414,404.957 181,404.5C 175.648,406.449 170.148,408.115 164.5,409.5 Z M 184.5,416.5 C 185.5,416.5 186.5,416.5 187.5,416.5C 187.955,419.203 188.622,421.87 189.5,424.5C 186.184,428.146 182.518,431.479 178.5,434.5C 166.176,441.079 153.342,446.413 140,450.5C 138.596,450.491 137.43,449.991 136.5,449C 139.13,445.368 142.13,442.035 145.5,439C 151.858,434.492 158.191,429.992 164.5,425.5C 171.239,422.46 177.906,419.46 184.5,416.5 Z"/></g>
<g><path style="opacity:0.776" fill="#000000" d="M 262.5,165.5 C 267.093,165.547 270.593,167.547 273,171.5C 277.292,183.198 273.459,190.198 261.5,192.5C 254.568,192.554 250.568,189.22 249.5,182.5C 250.596,174.102 254.929,168.436 262.5,165.5 Z M 262.5,176.5 C 261.298,178.392 259.965,180.226 258.5,182C 259.416,182.374 260.25,182.874 261,183.5C 266.044,181.735 266.544,179.402 262.5,176.5 Z"/></g>
</svg>
