<?xml version="1.0" encoding="UTF-8"?>
<!DOCTYPE svg PUBLIC "-//W3C//DTD SVG 1.1//EN" "http://www.w3.org/Graphics/SVG/1.1/DTD/svg11.dtd">
<svg xmlns="http://www.w3.org/2000/svg" version="1.1" width="611px" height="611px" style="shape-rendering:geometricPrecision; text-rendering:geometricPrecision; image-rendering:optimizeQuality; fill-rule:evenodd; clip-rule:evenodd" xmlns:xlink="http://www.w3.org/1999/xlink">
<g><path style="opacity:0.548" fill="#000000" d="M 166.5,172.5 C 167.5,174.167 168.833,175.5 170.5,176.5C 171.775,179.051 173.609,180.051 176,179.5C 177.487,180.253 177.654,181.086 176.5,182C 179.736,184.074 182.236,186.241 184,188.5C 184.333,188.167 184.667,187.833 185,187.5C 185.834,190.172 186.668,192.839 187.5,195.5C 189.316,196.815 190.983,198.315 192.5,200C 197.57,201.702 202.237,204.202 206.5,207.5C 207.086,207.291 207.586,206.957 208,206.5C 208.318,208.061 209.151,209.228 210.5,210C 214.908,210.705 219.241,211.705 223.5,213C 231.72,214.165 239.72,213.165 247.5,210C 251.723,207.521 256.056,205.187 260.5,203C 261.071,201.795 261.738,200.628 262.5,199.5C 263.086,199.709 263.586,200.043 264,200.5C 266.962,197.44 270.295,195.773 274,195.5C 279.698,191.66 285.865,189.327 292.5,188.5C 296.685,188.057 300.685,187.724 304.5,187.5C 308.86,188.194 313.194,189.028 317.5,190C 320.47,190.763 322.97,192.263 325,194.5C 325.718,193.549 326.551,193.383 327.5,194C 328.833,194.667 328.833,195.333 327.5,196C 328.5,197 329.5,198 330.5,199C 346.813,201.758 363.48,204.092 380.5,206C 383.365,206.837 386.198,207.67 389,208.5C 389.333,207.833 389.667,207.167 390,206.5C 391.509,206.923 393.009,208.09 394.5,210C 399.249,211.194 403.916,212.694 408.5,214.5C 409.842,213.098 410.676,213.431 411,215.5C 411.333,215.167 411.667,214.833 412,214.5C 417.04,220.37 422.874,225.37 429.5,229.5C 449.016,232.978 467.016,239.811 483.5,250C 483.167,250.333 482.833,250.667 482.5,251C 486.01,252.907 487.176,255.74 486,259.5C 483.917,263.257 481.417,266.757 478.5,270C 480.631,274.839 483.131,280.339 486,286.5C 486.868,290.672 485.368,293.838 481.5,296C 471.784,299.754 462.117,299.088 452.5,294C 449.235,290.677 446.069,287.177 443,283.5C 442.667,281.5 442.333,279.5 442,277.5C 440.16,278.833 439.66,278.666 440.5,277C 433.646,276.207 427.312,274.041 421.5,270.5C 419.675,271.571 418.508,270.904 418,268.5C 417.667,268.833 417.333,269.167 417,269.5C 414.489,266.657 411.656,264.157 408.5,262C 407.216,261.316 406.049,261.483 405,262.5C 401.973,258.139 398.306,254.473 394,251.5C 392.022,253.739 389.522,255.072 386.5,255.5C 387.473,258.779 388.973,261.779 391,264.5C 392.666,263.66 392.833,264.16 391.5,266C 392.557,268.339 393.89,270.505 395.5,272.5C 395.069,273.293 394.735,274.127 394.5,275C 396.229,281.897 397.562,288.73 398.5,295.5C 397.819,307.677 396.819,320.01 395.5,332.5C 394.689,336.431 393.689,340.431 392.5,344.5C 391.662,344.842 391.328,345.508 391.5,346.5C 390.209,347.542 390.209,348.708 391.5,350C 390.061,350.991 389.061,352.324 388.5,354C 387.911,355.873 388.578,357.54 390.5,359C 388.014,359.705 388.014,360.538 390.5,361.5C 390.162,364.011 390.162,366.345 390.5,368.5C 390.123,370.824 389.123,371.491 387.5,370.5C 383.583,371.437 383.083,372.77 386,374.5C 386.821,382.332 383.321,385.165 375.5,383C 374.584,382.626 373.75,382.126 373,381.5C 360.713,383.895 348.546,382.561 336.5,377.5C 328.098,375.56 319.432,373.226 310.5,370.5C 309.558,370.608 308.725,370.941 308,371.5C 307.5,370.333 306.667,369.5 305.5,369C 290.57,363.992 277.737,356.492 267,346.5C 266.667,346.833 266.333,347.167 266,347.5C 263.829,345.047 261.329,344.047 258.5,344.5C 258.167,343.833 257.833,343.167 257.5,342.5C 256.833,342.833 256.167,343.167 255.5,343.5C 254.304,343.154 254.304,342.654 255.5,342C 254.737,341.056 253.737,340.556 252.5,340.5C 249.885,341.269 247.219,341.603 244.5,341.5C 233.634,340.851 222.634,340.018 211.5,339C 208.062,336.259 204.395,334.759 200.5,334.5C 196.674,332.42 193.007,330.087 189.5,327.5C 188.833,327.833 188.167,328.167 187.5,328.5C 185.54,326.215 183.374,324.215 181,322.5C 180.667,322.833 180.333,323.167 180,323.5C 179.148,322.429 178.315,321.429 177.5,320.5C 176.297,318.366 174.463,317.032 172,316.5C 167.29,311.957 163.124,306.957 159.5,301.5C 154.858,298.557 150.024,295.891 145,293.5C 144.667,293.833 144.333,294.167 144,294.5C 141.625,293.285 139.791,291.619 138.5,289.5C 135.454,287.142 132.121,285.142 128.5,283.5C 128.167,282.167 127.833,282.167 127.5,283.5C 126.735,282.34 125.735,281.34 124.5,280.5C 123.325,281.855 122.325,281.688 121.5,280C 121.833,279.667 122.167,279.333 122.5,279C 121.154,277.331 119.487,276.164 117.5,275.5C 116.378,274.053 114.878,273.053 113,272.5C 112.667,272.833 112.333,273.167 112,273.5C 109.651,270.983 107.151,268.65 104.5,266.5C 103.833,266.833 103.167,267.167 102.5,267.5C 97.7577,264.975 92.7577,263.141 87.5,262C 86.3523,260.351 85.019,258.851 83.5,257.5C 82.914,257.709 82.414,258.043 82,258.5C 79.8759,254.687 76.7092,252.187 72.5,251C 70.9697,248.648 69.3031,246.481 67.5,244.5C 67.1667,243.167 66.8333,243.167 66.5,244.5C 65.2719,243.694 64.2719,242.694 63.5,241.5C 63.1667,240.167 62.8333,240.167 62.5,241.5C 58.8919,237.072 54.3919,232.739 49,228.5C 46.5496,224.967 47.2163,222.3 51,220.5C 52,222.167 53,223.833 54,225.5C 58.8316,229.354 63.3316,233.521 67.5,238C 70.7811,239.294 73.4477,241.294 75.5,244C 76.5,244.333 77.5,244.667 78.5,245C 78.1667,245.333 77.8333,245.667 77.5,246C 79.8877,247.861 82.5544,249.194 85.5,250C 90.9926,256.984 97.6592,259.651 105.5,258C 110.406,255.027 115.073,251.693 119.5,248C 119.167,247.667 118.833,247.333 118.5,247C 120.058,246.79 121.391,246.29 122.5,245.5C 123.833,245.5 124.5,244.833 124.5,243.5C 126.745,243.459 127.412,242.625 126.5,241C 128.246,240.529 129.913,239.862 131.5,239C 130.833,238.667 130.167,238.333 129.5,238C 132.198,237.088 134.865,235.421 137.5,233C 137.167,232.667 136.833,232.333 136.5,232C 137.416,231.722 138.082,231.222 138.5,230.5C 149.362,219.698 160.696,208.531 172.5,197C 172.167,196.667 171.833,196.333 171.5,196C 173.351,194.316 175.018,192.483 176.5,190.5C 170.848,185.348 165.348,180.015 160,174.5C 159.023,172.26 158.523,169.927 158.5,167.5C 159.873,167.343 161.207,167.51 162.5,168C 163.733,169.667 165.067,171.167 166.5,172.5 Z M 350.5,226.5 C 354.5,229.833 358.167,233.5 361.5,237.5C 362.263,238.268 363.263,238.768 364.5,239C 366.328,241.718 368.661,244.552 371.5,247.5C 374.139,249.182 376.473,251.849 378.5,255.5C 380.68,257.863 382.347,260.53 383.5,263.5C 392.624,281.4 395.458,300.733 392,321.5C 389.799,331.973 387.132,342.306 384,352.5C 381.266,351.638 381.099,350.805 383.5,350C 373.886,341.114 367.886,330.114 365.5,317C 366.022,316.439 366.355,315.772 366.5,315C 363.979,309.974 361.813,305.141 360,300.5C 359.5,293.842 359.334,287.175 359.5,280.5C 352.899,280.313 348.066,277.313 345,271.5C 344.333,272.833 343.667,272.833 343,271.5C 339.82,266.982 336.82,262.316 334,257.5C 333.667,255.833 333.333,254.167 333,252.5C 331.119,253.354 329.286,253.021 327.5,251.5C 327.112,253.359 327.112,255.359 327.5,257.5C 323.524,258.386 319.524,259.052 315.5,259.5C 315.167,258.167 314.833,258.167 314.5,259.5C 308.264,262.921 302.931,267.255 298.5,272.5C 296.737,275.999 294.737,278.832 292.5,281C 292.709,283.568 291.542,286.401 289,289.5C 287.092,294.845 287.092,300.178 289,305.5C 292.625,308.6 295.625,312.267 298,316.5C 298.333,315.833 298.667,315.167 299,314.5C 302.248,318.073 305.081,321.907 307.5,326C 311.524,326.526 314.191,328.693 315.5,332.5C 317.167,333.667 318.833,334.833 320.5,336C 320.167,336.333 319.833,336.667 319.5,337C 323.85,338.307 327.183,340.141 329.5,342.5C 332.33,343.51 334.83,345.177 337,347.5C 338.016,346.366 338.683,346.699 339,348.5C 340.016,347.366 340.683,347.699 341,349.5C 341.414,349.043 341.914,348.709 342.5,348.5C 349.753,351.372 356.253,355.372 362,360.5C 364.328,361.486 366.328,363.486 368,366.5C 369.145,369.432 369.978,372.432 370.5,375.5C 362.847,374.903 355.18,374.403 347.5,374C 345.148,373.76 343.148,372.927 341.5,371.5C 336.941,370.804 332.775,369.137 329,366.5C 320.513,365.957 312.346,363.624 304.5,359.5C 303.158,360.902 302.324,360.569 302,358.5C 301.667,358.833 301.333,359.167 301,359.5C 298.929,358.636 297.262,357.303 296,355.5C 295.586,355.957 295.086,356.291 294.5,356.5C 290.963,354.674 287.63,352.674 284.5,350.5C 285.547,349.922 285.38,349.256 284,348.5C 283.601,348.728 283.435,349.062 283.5,349.5C 281.621,349.607 281.288,349.107 282.5,348C 275.606,342.923 267.939,339.59 259.5,338C 258.624,336.415 257.291,335.415 255.5,335C 226.877,338.942 201.877,331.776 180.5,313.5C 180.167,312.167 179.833,312.167 179.5,313.5C 176.374,311.807 174.04,309.474 172.5,306.5C 172.5,305.833 172.167,305.5 171.5,305.5C 171.167,304.167 170.833,304.167 170.5,305.5C 165.923,302.817 163.923,298.984 164.5,294C 163.906,293.536 163.239,293.369 162.5,293.5C 147.032,287.136 132.366,278.802 118.5,268.5C 117.311,267.571 115.978,267.238 114.5,267.5C 114.649,266.448 114.483,265.448 114,264.5C 112.391,265.15 110.891,264.65 109.5,263C 119.648,256.606 128.981,249.273 137.5,241C 139.376,239.137 141.543,237.637 144,236.5C 145.555,233.596 147.555,230.93 150,228.5C 151.22,230.857 152.053,230.524 152.5,227.5C 153.833,227.167 153.833,226.833 152.5,226.5C 153.5,224.833 154.833,223.5 156.5,222.5C 157.078,223.547 157.744,223.38 158.5,222C 158.272,221.601 157.938,221.435 157.5,221.5C 157.894,219.29 159.227,217.957 161.5,217.5C 162.078,218.547 162.744,218.38 163.5,217C 163.272,216.601 162.938,216.435 162.5,216.5C 164.651,213.969 167.151,210.969 170,207.5C 171.073,208.28 172.24,208.113 173.5,207C 172.226,206.023 172.226,205.189 173.5,204.5C 175.663,201.582 178.163,199.582 181,198.5C 186.396,202.451 191.896,206.284 197.5,210C 204.143,212.655 210.477,215.822 216.5,219.5C 218.977,218.666 221.144,219.333 223,221.5C 228.425,220.566 233.925,219.899 239.5,219.5C 242.645,218.767 245.812,217.767 249,216.5C 249.333,216.833 249.667,217.167 250,217.5C 251.667,215.5 253.333,213.5 255,211.5C 255.333,211.833 255.667,212.167 256,212.5C 258.296,210.846 260.629,209.179 263,207.5C 263.414,207.957 263.914,208.291 264.5,208.5C 265.262,207.372 265.929,206.205 266.5,205C 267.449,204.383 268.282,204.549 269,205.5C 271.47,203.707 273.97,201.873 276.5,200C 281.9,198.756 287.066,196.923 292,194.5C 292.333,194.833 292.667,195.167 293,195.5C 306.362,191.954 317.695,195.287 327,205.5C 327.333,205.167 327.667,204.833 328,204.5C 328.056,208.788 330.223,211.288 334.5,212C 336.5,214.667 338.833,217 341.5,219C 341.167,219.333 340.833,219.667 340.5,220C 342.67,221.586 345.004,222.92 347.5,224C 347.133,225.757 347.966,227.257 350,228.5C 350.464,227.906 350.631,227.239 350.5,226.5 Z M 469.5,267.5 C 467.067,267.786 467.067,268.452 469.5,269.5C 469.947,272.524 470.78,272.857 472,270.5C 472.333,271.833 472.667,273.167 473,274.5C 473.333,274.167 473.667,273.833 474,273.5C 475.984,276.619 477.484,279.952 478.5,283.5C 477.957,283.56 477.624,283.893 477.5,284.5C 479.04,285.532 479.54,286.865 479,288.5C 476.557,289.593 474.057,290.593 471.5,291.5C 467.098,290.4 462.432,289.233 457.5,288C 456.934,287.005 456.267,286.172 455.5,285.5C 451.547,283.71 448.714,280.71 447,276.5C 447.046,274.687 446.88,273.021 446.5,271.5C 435.754,269.75 426.087,265.75 417.5,259.5C 417.167,258.167 416.833,258.167 416.5,259.5C 415.29,259.068 414.29,258.401 413.5,257.5C 410.326,255.605 407.659,253.272 405.5,250.5C 405.217,249.711 404.717,249.044 404,248.5C 403.023,249.774 402.189,249.774 401.5,248.5C 399.596,248.262 398.262,247.262 397.5,245.5C 395.863,244.782 394.197,244.616 392.5,245C 389.397,246.439 386.564,248.273 384,250.5C 381.791,249.08 379.791,247.413 378,245.5C 377.383,244.551 377.549,243.718 378.5,243C 377.241,242.077 375.908,241.243 374.5,240.5C 373.872,238.742 372.872,237.242 371.5,236C 360.91,227.56 350.91,218.727 341.5,209.5C 340.729,206.668 340.062,206.335 339.5,208.5C 338.596,207.791 338.263,206.791 338.5,205.5C 340.124,205.36 341.29,206.027 342,207.5C 343.016,206.366 343.683,206.699 344,208.5C 345.062,207.903 346.228,207.57 347.5,207.5C 359.365,210.107 371.365,211.607 383.5,212C 382.304,212.654 382.304,213.154 383.5,213.5C 386.288,212.04 388.455,212.707 390,215.5C 391.395,214.185 392.395,214.519 393,216.5C 393.414,216.043 393.914,215.709 394.5,215.5C 398.915,218.067 403.248,219.9 407.5,221C 410.685,222.845 413.018,224.845 414.5,227C 415.449,227.617 416.282,227.451 417,226.5C 421.045,231.23 425.878,234.73 431.5,237C 434.048,240.216 437.715,242.883 442.5,245C 444.194,246.939 446.027,248.772 448,250.5C 448.333,250.167 448.667,249.833 449,249.5C 456.323,254.993 463.157,260.993 469.5,267.5 Z M 454.5,243.5 C 455.117,243.389 455.617,243.056 456,242.5C 459.202,244.572 462.702,246.072 466.5,247C 467.362,249.734 468.195,249.901 469,247.5C 469.284,249.886 470.284,250.552 472,249.5C 475.198,251.612 478.031,254.112 480.5,257C 479.335,260.16 477.335,262.66 474.5,264.5C 472.925,261.74 471.091,259.073 469,256.5C 467.512,257.196 466.012,256.862 464.5,255.5C 462.062,254.069 460.396,252.069 459.5,249.5C 455.29,247.315 451.29,244.649 447.5,241.5C 450.017,239.849 452.351,240.516 454.5,243.5 Z M 405.5,250.5 C 405.489,253.001 404.822,253.168 403.5,251C 404.094,250.536 404.761,250.369 405.5,250.5 Z M 350.5,284.5 C 351.496,284.414 352.329,284.748 353,285.5C 353.063,292.377 354.23,299.044 356.5,305.5C 356.167,306.167 355.833,306.833 355.5,307.5C 356.891,307.109 357.891,307.942 358.5,310C 359.084,316.845 360.751,323.678 363.5,330.5C 364.791,331.542 364.791,332.708 363.5,334C 365.808,336.128 367.474,338.628 368.5,341.5C 369.267,342.172 369.934,343.005 370.5,344C 366.495,344.994 364.495,347.494 364.5,351.5C 364.631,352.376 364.298,353.043 363.5,353.5C 362.818,352.757 362.151,352.091 361.5,351.5C 361.5,350.833 361.167,350.5 360.5,350.5C 356.806,348.787 352.972,346.454 349,343.5C 347.853,344.458 346.853,344.125 346,342.5C 345.667,342.833 345.333,343.167 345,343.5C 337.751,339.46 330.585,335.293 323.5,331C 322.54,329.581 321.707,328.081 321,326.5C 313.331,321.34 306.498,314.673 300.5,306.5C 300.167,305.167 299.833,305.167 299.5,306.5C 298.282,305.269 296.949,304.102 295.5,303C 295.228,297.561 296.061,292.394 298,287.5C 302,281.5 306,275.5 310,269.5C 312.292,270.601 313.792,269.768 314.5,267C 318.457,265.149 322.624,263.982 327,263.5C 328.509,264.09 330.009,264.756 331.5,265.5C 333.626,269.52 336.46,273.52 340,277.5C 340.333,277.167 340.667,276.833 341,276.5C 341.333,277.5 341.667,278.5 342,279.5C 342.333,279.167 342.667,278.833 343,278.5C 345.043,280.208 346.71,282.208 348,284.5C 348.977,283.226 349.811,283.226 350.5,284.5 Z M 170.5,305.5 C 170.833,305.5 171.167,305.5 171.5,305.5C 172.167,305.5 172.5,305.833 172.5,306.5C 171.377,307.757 170.711,307.424 170.5,305.5 Z M 379.5,355.5 C 380.525,355.897 380.692,356.563 380,357.5C 379.23,358.598 378.397,358.598 377.5,357.5C 378.167,356.833 378.833,356.167 379.5,355.5 Z M 376.5,358.5 C 376.918,359.222 377.584,359.722 378.5,360C 375.868,363.568 375.868,367.068 378.5,370.5C 377.25,370.577 376.417,371.244 376,372.5C 374.98,368.958 373.813,365.458 372.5,362C 373.645,360.598 374.978,359.431 376.5,358.5 Z"/></g>
<g><path style="opacity:0.004" fill="#000000" d="M 166.5,171.5 C 167.833,172.167 167.833,172.167 166.5,171.5 Z"/></g>
<g><path style="opacity:0.008" fill="#000000" d="M 170.5,175.5 C 171.833,176.167 171.833,176.167 170.5,175.5 Z"/></g>
<g><path style="opacity:0.004" fill="#000000" d="M 292.5,188.5 C 291.761,188.631 291.094,188.464 290.5,188C 291.437,187.308 292.103,187.475 292.5,188.5 Z"/></g>
<g><path style="opacity:0.004" fill="#000000" d="M 138.5,230.5 C 137.833,229.167 137.833,229.167 138.5,230.5 Z"/></g>
<g><path style="opacity:0.004" fill="#000000" d="M 459.5,236.5 C 458.833,235.167 458.833,235.167 459.5,236.5 Z"/></g>
<g><path style="opacity:0.004" fill="#000000" d="M 459.5,236.5 C 460.833,237.167 460.833,237.167 459.5,236.5 Z"/></g>
<g><path style="opacity:0.004" fill="#000000" d="M 62.5,241.5 C 62.8333,241.5 63.1667,241.5 63.5,241.5C 63.3147,242.17 62.9813,242.17 62.5,241.5 Z"/></g>
<g><path style="opacity:0.004" fill="#000000" d="M 124.5,243.5 C 123.833,242.167 123.833,242.167 124.5,243.5 Z"/></g>
<g><path style="opacity:0.004" fill="#000000" d="M 66.5,244.5 C 66.8333,244.5 67.1667,244.5 67.5,244.5C 67.3147,245.17 66.9813,245.17 66.5,244.5 Z"/></g>
<g><path style="opacity:0.004" fill="#000000" d="M 122.5,245.5 C 121.833,244.167 121.833,244.167 122.5,245.5 Z"/></g>
<g><path style="opacity:0.004" fill="#000000" d="M 469.5,267.5 C 469.5,268.167 469.5,268.833 469.5,269.5C 467.067,268.452 467.067,267.786 469.5,267.5 Z"/></g>
<g><path style="opacity:0.004" fill="#000000" d="M 422.5,272.5 C 423.833,273.167 423.833,273.167 422.5,272.5 Z"/></g>
<g><path style="opacity:0.004" fill="#000000" d="M 117.5,275.5 C 116.833,276.167 116.833,276.167 117.5,275.5 Z"/></g>
<g><path style="opacity:0.004" fill="#000000" d="M 127.5,283.5 C 127.833,283.5 128.167,283.5 128.5,283.5C 128.315,284.17 127.981,284.17 127.5,283.5 Z"/></g>
<g><path style="opacity:0.004" fill="#000000" d="M 129.5,285.5 C 130.833,286.167 130.833,286.167 129.5,285.5 Z"/></g>
<g><path style="opacity:0.004" fill="#000000" d="M 138.5,289.5 C 137.833,290.167 137.833,290.167 138.5,289.5 Z"/></g>
<g><path style="opacity:0.004" fill="#000000" d="M 398.5,294.5 C 399.833,295.167 399.833,295.167 398.5,294.5 Z"/></g>
<g><path style="opacity:0.004" fill="#000000" d="M 177.5,320.5 C 176.833,321.167 176.833,321.167 177.5,320.5 Z"/></g>
<g><path style="opacity:0.004" fill="#000000" d="M 395.5,332.5 C 396.833,333.167 396.833,333.167 395.5,332.5 Z"/></g>
<g><path style="opacity:0.004" fill="#000000" d="M 244.5,341.5 C 243.833,342.167 243.833,342.167 244.5,341.5 Z"/></g>
<g><path style="opacity:0.004" fill="#000000" d="M 392.5,344.5 C 393.833,345.167 393.833,345.167 392.5,344.5 Z"/></g>
<g><path style="opacity:0.004" fill="#000000" d="M 391.5,346.5 C 392.525,346.897 392.692,347.563 392,348.5C 391.536,347.906 391.369,347.239 391.5,346.5 Z"/></g>
<g><path style="opacity:0.004" fill="#000000" d="M 390.5,360.5 C 391.833,361.167 391.833,361.167 390.5,360.5 Z"/></g>
<g><path style="opacity:0.575" fill="#000000" d="M 398.5,388.5 C 403.398,390.24 406.398,393.074 407.5,397C 406.516,398.657 405.516,400.323 404.5,402C 404.833,402.333 405.167,402.667 405.5,403C 402.099,402.914 398.599,403.414 395,404.5C 391.588,400.865 390.588,396.532 392,391.5C 394.294,390.578 396.461,389.578 398.5,388.5 Z"/></g>
<g><path style="opacity:0.544" fill="#000000" d="M 383.5,403.5 C 383.5,405.5 383.5,407.5 383.5,409.5C 382.833,409.5 382.5,409.833 382.5,410.5C 381.167,410.833 381.167,411.167 382.5,411.5C 382.217,412.289 381.717,412.956 381,413.5C 377.935,413.393 374.935,413.393 372,413.5C 370.833,412.333 369.667,411.167 368.5,410C 369.097,408.372 368.763,406.705 367.5,405C 368.308,402.912 369.308,400.912 370.5,399C 370.167,398.667 369.833,398.333 369.5,398C 374.862,395.562 379.528,396.562 383.5,401C 382.226,401.977 382.226,402.811 383.5,403.5 Z M 374.5,403.5 C 375.627,404.122 376.627,404.955 377.5,406C 375.511,406.519 374.511,405.686 374.5,403.5 Z"/></g>
<g><path style="opacity:0.004" fill="#000000" d="M 383.5,402.5 C 384.833,403.167 384.833,403.167 383.5,402.5 Z"/></g>
<g><path style="opacity:0.004" fill="#000000" d="M 383.5,409.5 C 384.833,410.167 384.833,410.167 383.5,409.5 Z"/></g>
<g><path style="opacity:0.004" fill="#000000" d="M 382.5,410.5 C 382.833,410.5 383.167,410.5 383.5,410.5C 383.315,411.17 382.981,411.17 382.5,410.5 Z"/></g>
<g><path style="opacity:0.614" fill="#000000" d="M 385.5,417.5 C 393.574,416.089 397.24,419.256 396.5,427C 391.293,433.08 386.46,432.913 382,426.5C 381.505,422.827 382.672,419.827 385.5,417.5 Z"/></g>
<g><path style="opacity:0.004" fill="#000000" d="M 396.5,419.5 C 397.833,420.167 397.833,420.167 396.5,419.5 Z"/></g>
<g><path style="opacity:0.644" fill="#000000" d="M 372.5,428.5 C 379.884,428.729 382.384,432.396 380,439.5C 379.5,440.667 378.667,441.5 377.5,442C 377.833,442.333 378.167,442.667 378.5,443C 375.541,442.194 372.708,442.694 370,444.5C 369.414,441.98 367.914,439.647 365.5,437.5C 366.745,433.595 369.079,430.595 372.5,428.5 Z"/></g>
<g><path style="opacity:0.566" fill="#000000" d="M 402.5,441.5 C 411.043,440.701 414.043,444.534 411.5,453C 407.453,455.073 403.62,454.907 400,452.5C 397.553,447.959 398.387,444.292 402.5,441.5 Z"/></g>
<g><path style="opacity:0.491" fill="#000000" d="M 347.5,457.5 C 350.127,453.202 353.794,452.368 358.5,455C 359.701,455.903 360.535,457.069 361,458.5C 361.288,461.53 361.455,464.364 361.5,467C 357.077,471.034 352.41,471.367 347.5,468C 347.833,467.667 348.167,467.333 348.5,467C 345.361,463.977 345.028,460.81 347.5,457.5 Z M 352.5,459.5 C 357.62,461.397 357.787,462.73 353,463.5C 352.51,462.207 352.343,460.873 352.5,459.5 Z"/></g>
<g><path style="opacity:0.004" fill="#000000" d="M 347.5,457.5 C 346.833,456.167 346.833,456.167 347.5,457.5 Z"/></g>
<g><path style="opacity:0.004" fill="#000000" d="M 445.5,462.5 C 446.833,463.167 446.833,463.167 445.5,462.5 Z"/></g>
<g><path style="opacity:0.599" fill="#000000" d="M 445.5,463.5 C 446.768,465.047 448.435,466.047 450.5,466.5C 450.918,467.222 451.584,467.722 452.5,468C 451.787,470.826 451.12,473.66 450.5,476.5C 449.167,476.833 449.167,477.167 450.5,477.5C 450.217,478.289 449.717,478.956 449,479.5C 447.372,478.99 445.539,478.99 443.5,479.5C 439.421,479.255 437.087,477.089 436.5,473C 437.097,470.463 438.43,468.463 440.5,467C 439.549,466.282 439.383,465.449 440,464.5C 441.699,463.594 443.533,463.261 445.5,463.5 Z"/></g>
<g><path style="opacity:0.004" fill="#000000" d="M 447.5,463.5 C 448.833,464.167 448.833,464.167 447.5,463.5 Z"/></g>
<g><path style="opacity:0.004" fill="#000000" d="M 450.5,465.5 C 451.833,466.167 451.833,466.167 450.5,465.5 Z"/></g>
<g><path style="opacity:0.568" fill="#000000" d="M 390.5,468.5 C 394.432,468.26 397.266,469.927 399,473.5C 399.771,481.386 396.271,484.219 388.5,482C 383.205,475.972 383.872,471.472 390.5,468.5 Z"/></g>
<g><path style="opacity:0.004" fill="#000000" d="M 450.5,476.5 C 451.833,477.167 451.833,477.167 450.5,476.5 Z"/></g>
</svg>
