<?xml version="1.0" encoding="UTF-8"?>
<!DOCTYPE svg PUBLIC "-//W3C//DTD SVG 1.1//EN" "http://www.w3.org/Graphics/SVG/1.1/DTD/svg11.dtd">
<svg xmlns="http://www.w3.org/2000/svg" version="1.1" width="611px" height="611px" style="shape-rendering:geometricPrecision; text-rendering:geometricPrecision; image-rendering:optimizeQuality; fill-rule:evenodd; clip-rule:evenodd" xmlns:xlink="http://www.w3.org/1999/xlink">
<g><path style="opacity:0.768" fill="#000000" d="M 287.5,21.5 C 299.342,21.7281 311.342,22.2281 323.5,23C 327.581,23.6149 330.414,25.7815 332,29.5C 332.421,59.9818 333.921,90.8151 336.5,122C 336.415,123.107 336.081,124.107 335.5,125C 338.699,125.401 341.699,126.234 344.5,127.5C 344.351,128.552 344.517,129.552 345,130.5C 349.623,133.737 352.79,138.07 354.5,143.5C 357.314,146.053 360.647,147.553 364.5,148C 365.333,149.5 366.5,150.667 368,151.5C 368.617,152.449 368.451,153.282 367.5,154C 369.286,154.785 370.786,155.951 372,157.5C 373.543,161.895 374.876,166.228 376,170.5C 376.476,186 379.309,201 384.5,215.5C 384.167,216.167 383.833,216.833 383.5,217.5C 388.246,229.488 394.913,240.321 403.5,250C 419.073,260.39 433.906,271.89 448,284.5C 448.483,285.448 448.649,286.448 448.5,287.5C 449.675,287.281 450.675,287.614 451.5,288.5C 453.211,292.534 456.044,295.534 460,297.5C 460.483,298.448 460.649,299.448 460.5,300.5C 467.155,304.388 471.988,310.055 475,317.5C 476.667,319.167 478.333,320.833 480,322.5C 495.842,347.867 508.176,374.534 517,402.5C 518.666,411.165 520.332,419.832 522,428.5C 525.117,431.506 526.284,435.006 525.5,439C 529.757,440.773 530.59,443.606 528,447.5C 483.699,467.243 437.699,481.576 390,490.5C 389.228,490.355 388.561,490.022 388,489.5C 380.925,490.955 373.758,492.122 366.5,493C 355.51,494.152 344.677,494.986 334,495.5C 327.246,494.749 320.413,494.749 313.5,495.5C 303.414,493.923 293.747,493.59 284.5,494.5C 281.239,494.097 278.072,493.43 275,492.5C 273.938,493.097 272.772,493.43 271.5,493.5C 255.205,492.029 238.872,489.696 222.5,486.5C 221.833,486.833 221.167,487.167 220.5,487.5C 216.651,486.768 212.984,485.602 209.5,484C 204.5,483.667 199.5,483.333 194.5,483C 193.069,482.535 191.903,481.701 191,480.5C 188.183,480.923 185.35,481.256 182.5,481.5C 177.905,480.345 173.238,479.512 168.5,479C 167.32,477.683 165.82,477.516 164,478.5C 152.952,476.079 141.786,473.246 130.5,470C 120.593,465.226 110.26,461.226 99.5,458C 92.2303,454.365 84.897,450.698 77.5,447C 76.6667,445.5 75.5,444.333 74,443.5C 72.8394,440.733 71.6728,438.067 70.5,435.5C 74.2434,435.541 74.4101,434.874 71,433.5C 70.5779,431.645 70.0779,429.811 69.5,428C 70.58,420.334 72.58,412.667 75.5,405C 79.8945,394.917 84.0611,384.75 88,374.5C 94.1272,362.065 100.627,349.898 107.5,338C 113.421,330.926 119.088,323.759 124.5,316.5C 127.467,315.585 129.3,313.585 130,310.5C 136.39,303.774 143.057,297.44 150,291.5C 150.47,289.226 151.47,287.226 153,285.5C 169.515,272.334 185.515,258.334 201,243.5C 205.265,234.679 210.265,226.346 216,218.5C 219.829,204.032 223.662,189.532 227.5,175C 227.265,174.127 226.931,173.293 226.5,172.5C 229.875,161.576 235.875,152.409 244.5,145C 249.838,142.248 255.505,140.582 261.5,140C 260.754,136.769 261.254,133.603 263,130.5C 267.215,128.407 271.382,126.24 275.5,124C 274.884,122.6 274.551,121.1 274.5,119.5C 275.07,111.978 275.736,104.478 276.5,97C 275.908,85.9625 275.908,74.9625 276.5,64C 275.679,53.9102 275.179,43.7435 275,33.5C 274.15,31.99 273.317,30.49 272.5,29C 272.725,27.3791 273.558,26.2125 275,25.5C 279.373,24.4299 283.539,23.0966 287.5,21.5 Z M 298.5,32.5 C 306.11,33.9523 313.777,35.2856 321.5,36.5C 322.36,48.636 323.36,60.636 324.5,72.5C 323.833,74.5 323.167,76.5 322.5,78.5C 323.234,93.4839 323.901,108.817 324.5,124.5C 311.477,125.046 298.477,125.046 285.5,124.5C 286.428,109.666 286.761,94.8328 286.5,80C 285.423,65.0906 284.757,50.4239 284.5,36C 284.867,33.7558 285.867,33.2558 287.5,34.5C 291.303,33.8963 294.969,33.2296 298.5,32.5 Z M 280.5,134.5 C 295.318,136.503 310.318,136.837 325.5,135.5C 328.777,136.254 332.11,136.754 335.5,137C 337.325,138.466 337.825,140.299 337,142.5C 336.481,141.484 335.647,140.818 334.5,140.5C 328.127,140.59 321.794,140.924 315.5,141.5C 314.059,140.696 312.559,140.029 311,139.5C 297.775,140.393 284.608,141.226 271.5,142C 272.717,140.352 273.55,138.519 274,136.5C 276.277,135.883 278.444,135.216 280.5,134.5 Z M 292.5,152.5 C 301.767,153.286 311.1,153.953 320.5,154.5C 332.968,153.077 345.134,155.077 357,160.5C 358.88,164.359 360.713,168.193 362.5,172C 361.941,172.725 361.608,173.558 361.5,174.5C 362.995,183.117 364.162,191.784 365,200.5C 366.943,205.331 368.277,210.331 369,215.5C 371.158,218.506 372.658,221.839 373.5,225.5C 374.242,226.287 375.075,226.953 376,227.5C 376.888,232.169 378.555,236.503 381,240.5C 383.235,243.291 385.235,246.291 387,249.5C 392.806,253.973 397.973,259.14 402.5,265C 406.693,267.398 410.693,270.064 414.5,273C 421.215,278.876 428.048,284.709 435,290.5C 447.083,303.246 458.417,316.579 469,330.5C 472.455,337.247 476.289,343.747 480.5,350C 480.043,350.414 479.709,350.914 479.5,351.5C 485.919,360.407 490.586,369.741 493.5,379.5C 495.891,385.282 498.557,390.949 501.5,396.5C 501.167,397.167 500.833,397.833 500.5,398.5C 502.564,404.992 504.564,411.492 506.5,418C 505.566,421.272 506.233,424.272 508.5,427C 507.978,427.561 507.645,428.228 507.5,429C 508.921,431.843 509.921,434.843 510.5,438C 507.171,437.929 503.838,437.429 500.5,436.5C 498.836,437.223 497.169,436.89 495.5,435.5C 492.998,436.191 490.498,435.858 488,434.5C 485.858,435.206 483.691,434.872 481.5,433.5C 480.914,433.709 480.414,434.043 480,434.5C 478.829,433.107 477.329,432.273 475.5,432C 460.788,428.646 446.122,426.146 431.5,424.5C 420.069,424.415 408.569,424.415 397,424.5C 383.727,423.358 370.227,422.025 356.5,420.5C 354.608,421.813 352.941,421.646 351.5,420C 340.216,418.977 329.216,417.643 318.5,416C 305.141,415.032 291.808,413.865 278.5,412.5C 266.268,413.252 254.101,414.252 242,415.5C 239.493,414.933 236.993,414.6 234.5,414.5C 231.5,415.167 228.5,415.833 225.5,416.5C 214.528,416.043 203.528,415.71 192.5,415.5C 185.969,416.149 179.469,416.815 173,417.5C 167.335,416.477 161.501,416.81 155.5,418.5C 154.707,418.069 153.873,417.735 153,417.5C 149.944,418.077 146.944,418.743 144,419.5C 142.467,419.056 140.967,418.723 139.5,418.5C 128.792,419.843 118.125,421.51 107.5,423.5C 106.707,423.069 105.873,422.735 105,422.5C 98.1449,424.001 91.4783,426.001 85,428.5C 84.0565,427.737 83.5565,426.737 83.5,425.5C 89.9589,404.33 97.6256,383.997 106.5,364.5C 107.325,363.614 108.325,363.281 109.5,363.5C 109.383,361.516 110.05,359.85 111.5,358.5C 110.571,356.678 111.238,355.345 113.5,354.5C 114.308,352.075 115.308,349.742 116.5,347.5C 118.258,346.872 119.758,345.872 121,344.5C 129.801,330.212 140.468,317.545 153,306.5C 155.5,303.333 158,300.167 160.5,297C 164.964,295.036 168.298,291.869 170.5,287.5C 172.824,286.338 175.158,285.171 177.5,284C 184.251,277.241 191.251,270.908 198.5,265C 223.913,240.457 237.58,210.457 239.5,175C 242.058,169.276 245.058,163.776 248.5,158.5C 249.646,157.855 250.646,157.022 251.5,156C 265.243,154.221 278.91,153.054 292.5,152.5 Z M 282.5,424.5 C 284.484,424.383 286.15,425.05 287.5,426.5C 292.091,426.73 296.758,426.397 301.5,425.5C 302.672,425.919 303.672,426.585 304.5,427.5C 306.648,427.299 308.814,426.966 311,426.5C 330.257,429.404 349.424,431.571 368.5,433C 353.304,447.379 335.47,455.545 315,457.5C 305.89,457.454 296.723,457.287 287.5,457C 265.983,454.923 248.316,445.756 234.5,429.5C 238.891,428.011 243.391,427.011 248,426.5C 248.414,426.957 248.914,427.291 249.5,427.5C 252.833,426.833 256.167,426.167 259.5,425.5C 260.167,425.833 260.833,426.167 261.5,426.5C 268.63,425.866 275.63,425.199 282.5,424.5 Z M 183.5,428.5 C 194.841,428.516 206.174,428.683 217.5,429C 224.55,439.051 233.217,447.384 243.5,454C 250.705,458.501 258.205,462.667 266,466.5C 280.362,469.293 294.862,470.127 309.5,469C 311.777,468.027 313.943,467.86 316,468.5C 318,467.833 320,467.167 322,466.5C 324.305,467.629 326.638,467.629 329,466.5C 339.296,463.985 349.129,459.819 358.5,454C 367.643,447.518 376.143,440.351 384,432.5C 389.104,433.702 394.271,434.702 399.5,435.5C 410.998,435.601 422.498,435.601 434,435.5C 455.668,440.3 477.501,444.466 499.5,448C 484.113,453.522 468.446,458.189 452.5,462C 446.388,465.116 440.054,467.783 433.5,470C 407.698,476.543 381.532,481.043 355,483.5C 335.74,483.359 316.406,483.359 297,483.5C 290.151,482.536 283.317,481.536 276.5,480.5C 272.945,481.19 269.445,481.523 266,481.5C 264.42,479.203 262.42,478.869 260,480.5C 250.181,478.793 240.348,477.127 230.5,475.5C 229.914,475.709 229.414,476.043 229,476.5C 215.352,474.143 201.518,471.476 187.5,468.5C 184.681,468.519 181.847,468.852 179,469.5C 164.874,465.008 150.374,461.174 135.5,458C 130.709,456.48 126.042,454.646 121.5,452.5C 120.914,452.709 120.414,453.043 120,453.5C 117.482,451.536 114.816,450.87 112,451.5C 104.565,447.678 97.0648,443.845 89.5,440C 91.5161,437.711 93.8494,437.211 96.5,438.5C 103.416,436.419 110.416,434.752 117.5,433.5C 118.293,433.931 119.127,434.265 120,434.5C 141.341,431.47 162.508,429.47 183.5,428.5 Z"/></g>
<g><path style="opacity:0.757" fill="#000000" d="M 473.5,484.5 C 475.199,484.34 476.866,484.506 478.5,485C 485.536,492.247 491.203,500.414 495.5,509.5C 494.704,512.084 494.371,514.584 494.5,517C 491.074,518.423 487.74,518.423 484.5,517C 478.564,509.957 474.064,502.123 471,493.5C 469.779,489.718 470.613,486.718 473.5,484.5 Z"/></g>
<g><path style="opacity:0.714" fill="#000000" d="M 138.5,498.5 C 140.117,499.038 141.784,499.371 143.5,499.5C 144.394,502.792 144.227,506.126 143,509.5C 139.707,514.137 136.374,518.804 133,523.5C 131.477,525.62 129.644,525.953 127.5,524.5C 125.846,522.857 124.513,521.024 123.5,519C 123.921,516.815 124.421,514.649 125,512.5C 128.345,508.813 131.345,504.813 134,500.5C 135.622,499.901 137.122,499.234 138.5,498.5 Z"/></g>
<g><path style="opacity:0.682" fill="#000000" d="M 403.5,507.5 C 405.527,507.338 407.527,507.505 409.5,508C 413.789,512.293 416.289,517.459 417,523.5C 420.638,527.997 421.472,532.997 419.5,538.5C 413.413,539.915 408.58,537.915 405,532.5C 403.157,527.11 401.324,521.776 399.5,516.5C 400.087,513.12 401.421,510.12 403.5,507.5 Z"/></g>
<g><path style="opacity:0.704" fill="#000000" d="M 227.5,511.5 C 231.097,511.697 233.763,513.363 235.5,516.5C 234.313,517.519 233.313,518.686 232.5,520C 233.576,521.726 233.743,523.559 233,525.5C 230.745,530.601 229.079,535.934 228,541.5C 225.358,544.029 222.192,545.029 218.5,544.5C 217.541,538.862 217.374,533.195 218,527.5C 219.833,522.839 221.666,518.173 223.5,513.5C 224.949,512.828 226.282,512.161 227.5,511.5 Z"/></g>
<g><path style="opacity:0.686" fill="#000000" d="M 314.5,519.5 C 316.833,519.5 319.167,519.5 321.5,519.5C 321.278,522.39 321.945,525.057 323.5,527.5C 323.09,531.104 322.923,534.771 323,538.5C 320.893,542.501 317.727,543.501 313.5,541.5C 312.501,538.839 311.501,536.172 310.5,533.5C 311.025,532.808 311.692,532.308 312.5,532C 310.425,527.559 311.091,523.393 314.5,519.5 Z"/></g>
</svg>
