<?xml version="1.0" encoding="UTF-8"?>
<!DOCTYPE svg PUBLIC "-//W3C//DTD SVG 1.1//EN" "http://www.w3.org/Graphics/SVG/1.1/DTD/svg11.dtd">
<svg xmlns="http://www.w3.org/2000/svg" version="1.1" width="611px" height="611px" style="shape-rendering:geometricPrecision; text-rendering:geometricPrecision; image-rendering:optimizeQuality; fill-rule:evenodd; clip-rule:evenodd" xmlns:xlink="http://www.w3.org/1999/xlink">
<g><path style="opacity:0.671" fill="#000000" d="M 343.5,151.5 C 354.15,150.815 359.817,155.815 360.5,166.5C 359.923,168.809 359.923,170.976 360.5,173C 359.833,174.333 359.167,175.667 358.5,177C 361.253,178.174 362.253,180.007 361.5,182.5C 355.13,184.046 348.964,183.379 343,180.5C 331.68,182.248 320.346,183.915 309,185.5C 305.297,185.679 301.464,185.346 297.5,184.5C 297.5,183.5 297.5,182.5 297.5,181.5C 292.562,180.446 288.729,177.779 286,173.5C 283.074,163.734 286.74,158.068 297,156.5C 304.359,156.259 309.026,159.593 311,166.5C 312.402,170.364 312.902,174.197 312.5,178C 318.48,179.271 324.48,179.771 330.5,179.5C 333.443,178.756 336.443,178.256 339.5,178C 333.195,170.995 332.361,163.495 337,155.5C 339.095,153.875 341.261,152.542 343.5,151.5 Z M 345.5,161.5 C 347.722,161.178 349.556,161.845 351,163.5C 358.476,176.275 356.642,178.275 345.5,169.5C 343.089,166.655 343.089,163.989 345.5,161.5 Z M 307.5,175.5 C 304.553,174.027 301.553,172.527 298.5,171C 294.527,169.25 294.527,167.75 298.5,166.5C 303.623,167.622 306.623,170.622 307.5,175.5 Z"/></g>
<g><path style="opacity:0.663" fill="#000000" d="M 249.5,155.5 C 259.039,154.056 265.706,157.723 269.5,166.5C 268.854,171.225 267.521,175.725 265.5,180C 266.337,181.011 266.67,182.178 266.5,183.5C 261.134,184.5 255.801,184.167 250.5,182.5C 237.156,184.621 223.822,186.787 210.5,189C 207.773,189.818 205.106,189.652 202.5,188.5C 200.981,184.814 202.314,182.647 206.5,182C 220.977,180.523 235.311,179.523 249.5,179C 242.809,173.271 241.309,166.437 245,158.5C 246.652,157.601 248.152,156.601 249.5,155.5 Z M 252.5,163.5 C 259.155,163.651 262.822,167.151 263.5,174C 263,175.5 262.5,177 262,178.5C 257.276,175.007 253.443,170.674 250.5,165.5C 251.243,164.818 251.909,164.151 252.5,163.5 Z"/></g>
<g><path style="opacity:0.705" fill="#000000" d="M 442.5,177.5 C 440.085,166.76 444.252,160.427 455,158.5C 466.802,160.111 469.969,166.111 464.5,176.5C 466.842,176.504 468.842,177.337 470.5,179C 469.368,181.21 467.868,181.71 466,180.5C 459.241,184.066 452.408,184.233 445.5,181C 444.837,179.482 443.837,178.315 442.5,177.5 Z M 454.5,168.5 C 461.338,171.967 461.004,173.467 453.5,173C 452.257,171.184 452.59,169.684 454.5,168.5 Z"/></g>
<g><path style="opacity:0.656" fill="#000000" d="M 177.5,160.5 C 184.206,159.407 190.039,161.074 195,165.5C 198.612,170.849 198.112,175.682 193.5,180C 194.793,180.49 196.127,180.657 197.5,180.5C 197.5,181.5 197.5,182.5 197.5,183.5C 184.707,186.267 176.04,181.433 171.5,169C 172.187,165.16 174.187,162.327 177.5,160.5 Z M 182.5,167.5 C 189.338,168.258 191.672,171.925 189.5,178.5C 185.304,176.471 182.304,173.304 180.5,169C 181.416,168.722 182.082,168.222 182.5,167.5 Z"/></g>
<g><path style="opacity:0.631" fill="#000000" d="M 133.5,161.5 C 144.522,162.334 148.689,168 146,178.5C 144.833,180.333 143.333,181.833 141.5,183C 149.159,183.5 156.826,183.666 164.5,183.5C 164.5,184.5 164.5,185.5 164.5,186.5C 154.472,186.929 144.472,187.762 134.5,189C 126.5,189.667 118.5,189.667 110.5,189C 108.87,185.938 109.87,184.271 113.5,184C 121.245,183.144 128.912,182.811 136.5,183C 129.047,182.303 125.713,178.136 126.5,170.5C 126.997,166.01 129.331,163.01 133.5,161.5 Z M 135.5,170.5 C 136.496,170.414 137.329,170.748 138,171.5C 139.25,174.077 139.584,176.743 139,179.5C 138.376,177.246 137.043,175.579 135,174.5C 134.421,173.072 134.588,171.738 135.5,170.5 Z"/></g>
<g><path style="opacity:0.603" fill="#000000" d="M 442.5,177.5 C 442.586,178.496 442.252,179.329 441.5,180C 427.094,181.456 412.761,183.456 398.5,186C 394.113,186.706 389.78,186.54 385.5,185.5C 384.637,181.838 385.97,179.672 389.5,179C 406.569,178.913 423.569,178.08 440.5,176.5C 441.183,176.863 441.85,177.196 442.5,177.5 Z"/></g>
<g><path style="opacity:0.529" fill="#000000" d="M 482.5,181.5 C 488.868,181.17 495.202,181.504 501.5,182.5C 501.291,183.086 500.957,183.586 500.5,184C 492.114,184.577 483.781,186.077 475.5,188.5C 471.455,188.41 470.622,186.743 473,183.5C 476.27,182.868 479.437,182.201 482.5,181.5 Z"/></g>
<g><path style="opacity:0.649" fill="#000000" d="M 385.5,185.5 C 391.062,189.698 393.395,195.198 392.5,202C 394.587,202.792 396.421,203.959 398,205.5C 399.441,204.74 400.941,204.074 402.5,203.5C 403.9,205.782 403.234,207.282 400.5,208C 411.749,207.979 422.749,208.146 433.5,208.5C 432.335,209.584 431.002,210.417 429.5,211C 434.207,211.231 436.541,213.731 436.5,218.5C 431.813,217.918 427.48,216.585 423.5,214.5C 423.5,213.5 423.5,212.5 423.5,211.5C 413.933,211.397 404.266,212.231 394.5,214C 390.167,214.667 385.833,214.667 381.5,214C 379.697,209.453 381.363,207.453 386.5,208C 379.912,207.044 374.578,204.044 370.5,199C 368.002,186.334 373.002,181.834 385.5,185.5 Z M 384.5,197.5 C 386.153,197.66 387.486,198.326 388.5,199.5C 386.62,199.771 385.287,199.104 384.5,197.5 Z"/></g>
<g><path style="opacity:0.459" fill="#000000" d="M 301.5,189.5 C 305.067,191.557 308.234,194.223 311,197.5C 311.617,198.449 311.451,199.282 310.5,200C 306.52,198.768 302.687,196.935 299,194.5C 298.294,192.045 299.127,190.378 301.5,189.5 Z"/></g>
<g><path style="opacity:0.475" fill="#000000" d="M 256.5,190.5 C 258.144,190.286 259.644,190.62 261,191.5C 261.497,193.81 261.663,196.143 261.5,198.5C 256.303,197.999 254.636,195.332 256.5,190.5 Z"/></g>
<g><path style="opacity:0.508" fill="#000000" d="M 340.5,191.5 C 345.528,191.513 347.528,193.846 346.5,198.5C 342.387,199.758 340.054,198.091 339.5,193.5C 339.863,192.817 340.196,192.15 340.5,191.5 Z"/></g>
<g><path style="opacity:0.418" fill="#000000" d="M 455.5,191.5 C 460.206,190.881 462.873,192.881 463.5,197.5C 460.167,197.5 456.833,197.5 453.5,197.5C 453.604,195.297 454.27,193.297 455.5,191.5 Z"/></g>
<g><path style="opacity:0.509" fill="#000000" d="M 488.5,191.5 C 493.064,191.55 496.564,193.55 499,197.5C 499.781,198.944 499.614,200.277 498.5,201.5C 493.935,199.036 489.602,197.036 485.5,195.5C 486.172,193.84 487.172,192.507 488.5,191.5 Z"/></g>
<g><path style="opacity:0.428" fill="#000000" d="M 143.5,192.5 C 144.5,192.5 145.5,192.5 146.5,192.5C 146.676,196.033 148.009,199.033 150.5,201.5C 143.5,202.481 141.167,199.481 143.5,192.5 Z"/></g>
<g><path style="opacity:0.441" fill="#000000" d="M 168.5,193.5 C 173.404,193.949 176.071,196.615 176.5,201.5C 172.198,201.02 168.865,199.02 166.5,195.5C 167.243,194.818 167.909,194.151 168.5,193.5 Z"/></g>
<g><path style="opacity:0.561" fill="#000000" d="M 119.5,194.5 C 123.883,193.755 126.383,195.422 127,199.5C 124.633,201.956 121.8,202.789 118.5,202C 117.083,199.257 117.416,196.757 119.5,194.5 Z"/></g>
<g><path style="opacity:0.671" fill="#000000" d="M 466.5,204.5 C 480.749,202.905 486.249,208.905 483,222.5C 479.5,226.337 475.167,228.67 470,229.5C 467.109,226.869 463.609,224.036 459.5,221C 452.811,221.83 452.144,220.33 457.5,216.5C 458.113,210.57 461.113,206.57 466.5,204.5 Z M 469.5,212.5 C 475.533,213.08 477.033,216.08 474,221.5C 472.663,219.996 470.996,218.996 469,218.5C 468.691,217.234 468.191,216.067 467.5,215C 468.381,214.292 469.047,213.458 469.5,212.5 Z"/></g>
<g><path style="opacity:0.647" fill="#000000" d="M 334.5,205.5 C 337.062,206.371 339.728,206.371 342.5,205.5C 342.5,206.5 342.5,207.5 342.5,208.5C 339.432,208.547 336.432,209.047 333.5,210C 335.609,211.141 337.442,212.641 339,214.5C 340.731,218.067 342.231,221.734 343.5,225.5C 342.07,225.579 340.736,225.246 339.5,224.5C 337.929,226.415 335.929,227.415 333.5,227.5C 334.052,225.669 334.052,224.003 333.5,222.5C 331.838,221.673 330.505,220.507 329.5,219C 327.833,218.333 326.167,218.333 324.5,219C 326.657,222.156 329.157,224.989 332,227.5C 332.49,228.793 332.657,230.127 332.5,231.5C 329.482,231.665 326.482,231.498 323.5,231C 321.241,229.285 319.074,227.452 317,225.5C 314.839,221.152 315.005,216.985 317.5,213C 310.23,213.819 302.897,214.319 295.5,214.5C 295.587,210.759 297.587,208.759 301.5,208.5C 302.086,208.709 302.586,209.043 303,209.5C 313.681,208.89 324.181,207.557 334.5,205.5 Z"/></g>
<g><path style="opacity:0.629" fill="#000000" d="M 244.5,208.5 C 252.448,206.52 257.948,209.187 261,216.5C 264.579,222.632 264.079,228.298 259.5,233.5C 250.063,237.16 243.563,234.16 240,224.5C 239.24,220.775 239.407,217.108 240.5,213.5C 235.559,212.669 230.726,212.336 226,212.5C 215.002,214.278 204.002,216.278 193,218.5C 187.217,216.734 187.05,214.067 192.5,210.5C 208.893,210.696 225.56,210.696 242.5,210.5C 243.522,210.145 244.189,209.478 244.5,208.5 Z M 249.5,218.5 C 253.776,218.97 257.11,220.97 259.5,224.5C 253.613,227.214 250.28,225.214 249.5,218.5 Z"/></g>
<g><path style="opacity:0.681" fill="#000000" d="M 171.5,210.5 C 178.472,208.998 183.639,211.331 187,217.5C 187.789,223.237 187.456,228.903 186,234.5C 183.626,237.288 182.293,236.954 182,233.5C 177.817,236.203 173.817,235.87 170,232.5C 169.692,233.308 169.192,233.975 168.5,234.5C 167.108,233.395 165.941,232.061 165,230.5C 164.791,226.332 164.791,221.998 165,217.5C 166.045,213.96 168.212,211.626 171.5,210.5 Z M 173.5,220.5 C 174.873,220.343 176.207,220.51 177.5,221C 178.833,223 180.167,225 181.5,227C 176.946,227.288 174.279,225.122 173.5,220.5 Z"/></g>
<g><path style="opacity:0.452" fill="#000000" d="M 511.5,210.5 C 517.116,210.928 519.449,213.761 518.5,219C 513.511,218.501 511.178,215.668 511.5,210.5 Z"/></g>
<g><path style="opacity:0.522" fill="#000000" d="M 158.5,213.5 C 162.333,214.667 162.333,215.833 158.5,217C 140.05,217.715 121.883,220.215 104,224.5C 98.7222,224.247 97.3889,221.913 100,217.5C 101.067,216.809 102.234,216.309 103.5,216C 122.031,215.98 140.365,215.146 158.5,213.5 Z"/></g>
<g><path style="opacity:0.487" fill="#000000" d="M 373.5,214.5 C 375.467,214.261 377.301,214.594 379,215.5C 380.549,218.312 381.382,221.312 381.5,224.5C 377.529,223.428 374.029,221.428 371,218.5C 370.333,217.833 370.333,217.167 371,216.5C 371.995,215.934 372.828,215.267 373.5,214.5 Z"/></g>
<g><path style="opacity:0.544" fill="#000000" d="M 304.5,218.5 C 309.459,217.628 311.625,219.628 311,224.5C 307.206,227.507 304.372,226.84 302.5,222.5C 302.752,220.927 303.418,219.594 304.5,218.5 Z"/></g>
<g><path style="opacity:0.515" fill="#000000" d="M 202.5,219.5 C 208.905,218.406 211.238,221.073 209.5,227.5C 205.036,226.702 202.703,224.036 202.5,219.5 Z"/></g>
<g><path style="opacity:0.38" fill="#000000" d="M 133.5,222.5 C 136.838,222.109 137.838,223.276 136.5,226C 138.606,228.845 138.773,231.678 137,234.5C 135.71,232.208 134.043,230.208 132,228.5C 131.252,226.16 131.752,224.16 133.5,222.5 Z"/></g>
<g><path style="opacity:0.539" fill="#000000" d="M 452.5,234.5 C 454.167,234.5 455.833,234.5 457.5,234.5C 457.5,235.5 457.5,236.5 457.5,237.5C 450.478,238.471 443.478,239.637 436.5,241C 440.099,241.764 442.099,243.93 442.5,247.5C 438.019,247.575 433.686,246.908 429.5,245.5C 429.5,244.5 429.5,243.5 429.5,242.5C 426.15,242.665 422.817,242.498 419.5,242C 418.14,240.062 418.473,238.396 420.5,237C 422.556,236.689 424.556,236.189 426.5,235.5C 427.086,235.709 427.586,236.043 428,236.5C 436.265,235.847 444.432,235.18 452.5,234.5 Z"/></g>
<g><path style="opacity:0.567" fill="#000000" d="M 305.5,235.5 C 307.924,235.192 310.257,235.526 312.5,236.5C 311.975,237.192 311.308,237.692 310.5,238C 296.413,240.517 282.413,243.351 268.5,246.5C 265.644,246.374 263.644,245.04 262.5,242.5C 262.962,240.709 264.129,239.709 266,239.5C 269.871,238.954 273.704,238.288 277.5,237.5C 278.167,237.833 278.833,238.167 279.5,238.5C 288.348,237.989 297.015,236.989 305.5,235.5 Z"/></g>
<g><path style="opacity:0.612" fill="#000000" d="M 332.5,236.5 C 352.409,237.206 372.076,237.54 391.5,237.5C 391.291,238.086 390.957,238.586 390.5,239C 373.752,241.653 356.918,243.486 340,244.5C 336.5,244.333 333,244.167 329.5,244C 327.455,243.07 326.621,241.57 327,239.5C 328.719,238.131 330.552,237.131 332.5,236.5 Z"/></g>
<g><path style="opacity:0.597" fill="#000000" d="M 194.5,238.5 C 206.447,240.493 218.281,240.493 230,238.5C 231.728,238.454 233.228,238.954 234.5,240C 224.625,242.204 214.625,244.204 204.5,246C 200.463,246.607 196.463,246.44 192.5,245.5C 192.166,242.812 192.832,240.479 194.5,238.5 Z"/></g>
<g><path style="opacity:0.498" fill="#000000" d="M 488.5,238.5 C 492.833,238.167 494.833,240.167 494.5,244.5C 490.776,245.227 488.109,243.894 486.5,240.5C 487.243,239.818 487.909,239.151 488.5,238.5 Z"/></g>
<g><path style="opacity:0.651" fill="#000000" d="M 514.5,238.5 C 520.441,237.795 524.441,240.129 526.5,245.5C 524.603,248.756 521.937,250.756 518.5,251.5C 518.762,250.022 518.429,248.689 517.5,247.5C 516.355,248.776 516.355,250.109 517.5,251.5C 519.361,252.528 520.695,254.028 521.5,256C 522.448,256.483 523.448,256.649 524.5,256.5C 524.5,257.5 524.5,258.5 524.5,259.5C 513.842,261.012 508.676,256.345 509,245.5C 510.316,242.692 512.15,240.359 514.5,238.5 Z"/></g>
<g><path style="opacity:0.655" fill="#000000" d="M 111.5,242.5 C 112.5,242.5 113.5,242.5 114.5,242.5C 114.67,243.822 114.337,244.989 113.5,246C 105.732,248.775 97.7324,250.608 89.5,251.5C 86.9577,251.782 84.9577,250.949 83.5,249C 83.6878,247.118 84.6878,245.952 86.5,245.5C 94.915,244.049 103.248,243.049 111.5,242.5 Z"/></g>
<g><path style="opacity:0.597" fill="#000000" d="M 164.5,242.5 C 165.833,242.5 167.167,242.5 168.5,242.5C 168.5,243.5 168.5,244.5 168.5,245.5C 155.268,247.653 142.268,249.653 129.5,251.5C 127.167,250.833 124.833,250.167 122.5,249.5C 121.253,247.994 121.253,246.494 122.5,245C 127.357,244.693 132.19,244.193 137,243.5C 142.895,244.255 148.728,244.589 154.5,244.5C 157.971,243.903 161.305,243.236 164.5,242.5 Z"/></g>
<g><path style="opacity:0.616" fill="#000000" d="M 404.5,242.5 C 414.24,241.915 418.573,246.582 417.5,256.5C 419.199,256.38 420.865,256.046 422.5,255.5C 424.833,255.833 425.167,256.833 423.5,258.5C 430.554,259.556 437.554,259.223 444.5,257.5C 445.5,257.833 446.167,258.5 446.5,259.5C 437.623,261.178 428.957,263.678 420.5,267C 421.337,268.011 421.67,269.178 421.5,270.5C 418.739,269.08 415.739,268.413 412.5,268.5C 412.5,266.5 412.5,264.5 412.5,262.5C 408.28,261.705 404.447,260.038 401,257.5C 398.336,251.432 399.502,246.432 404.5,242.5 Z M 408.5,251.5 C 410.138,252.657 411.804,253.824 413.5,255C 410.632,255.64 408.965,254.473 408.5,251.5 Z"/></g>
<g><path style="opacity:0.728" fill="#000000" d="M 318.5,244.5 C 327.055,242.82 331.221,246.153 331,254.5C 329.833,256.333 328.667,258.167 327.5,260C 330.033,261.916 330.033,263.916 327.5,266C 316.119,266.952 311.286,261.786 313,250.5C 314.36,247.977 316.193,245.977 318.5,244.5 Z M 321.5,254.5 C 322.848,255.527 323.348,256.86 323,258.5C 321.812,257.437 321.312,256.103 321.5,254.5 Z"/></g>
<g><path style="opacity:0.4" fill="#000000" d="M 385.5,244.5 C 390.536,243.388 394.202,245.055 396.5,249.5C 392.883,250.714 389.549,250.048 386.5,247.5C 385.614,246.675 385.281,245.675 385.5,244.5 Z"/></g>
<g><path style="opacity:0.401" fill="#000000" d="M 296.5,246.5 C 300.85,247.517 303.517,250.184 304.5,254.5C 301.763,253.969 299.096,253.136 296.5,252C 295.248,250.172 295.248,248.339 296.5,246.5 Z"/></g>
<g><path style="opacity:0.671" fill="#000000" d="M 240.5,247.5 C 244.27,248.397 247.77,250.063 251,252.5C 252.005,257.202 253.172,261.869 254.5,266.5C 254.24,268.187 253.573,269.687 252.5,271C 262.013,270.035 268.679,273.868 272.5,282.5C 271.854,287.225 270.521,291.725 268.5,296C 269.337,297.011 269.67,298.178 269.5,299.5C 264.134,300.5 258.801,300.167 253.5,298.5C 240.156,300.621 226.822,302.787 213.5,305C 210.773,305.818 208.106,305.652 205.5,304.5C 203.981,300.814 205.314,298.647 209.5,298C 223.994,296.586 238.327,295.586 252.5,295C 245.497,289.013 244.164,282.013 248.5,274C 238.071,273.901 232.571,268.735 232,258.5C 233.64,255.027 236.14,252.36 239.5,250.5C 240.386,249.675 240.719,248.675 240.5,247.5 Z M 242.5,259.5 C 246.012,260.005 248.345,262.005 249.5,265.5C 244.851,266.533 242.518,264.533 242.5,259.5 Z M 255.5,279.5 C 262.155,279.651 265.822,283.151 266.5,290C 266,291.5 265.5,293 265,294.5C 260.276,291.007 256.443,286.674 253.5,281.5C 254.243,280.818 254.909,280.151 255.5,279.5 Z"/></g>
<g><path style="opacity:0.491" fill="#000000" d="M 346.5,248.5 C 348.527,248.338 350.527,248.505 352.5,249C 354.35,251.018 356.35,252.851 358.5,254.5C 359.386,255.325 359.719,256.325 359.5,257.5C 355.149,256.83 350.816,255.996 346.5,255C 343.929,252.744 343.929,250.578 346.5,248.5 Z"/></g>
<g><path style="opacity:0.636" fill="#000000" d="M 147.5,254.5 C 148.497,254.47 149.164,254.97 149.5,256C 148.116,264.297 150.116,265.297 155.5,259C 163.639,258.297 167.973,262.13 168.5,270.5C 166.009,270.16 163.842,269.16 162,267.5C 160.338,267.388 159.171,268.054 158.5,269.5C 160.469,271.736 162.969,273.069 166,273.5C 169.154,272.84 171.987,271.506 174.5,269.5C 174.156,275.69 170.656,279.357 164,280.5C 161.5,280 159,279.5 156.5,279C 154.957,277.122 153.124,275.622 151,274.5C 150.474,271.728 149.641,269.062 148.5,266.5C 142.507,262.644 142.173,258.644 147.5,254.5 Z"/></g>
<g><path style="opacity:0.432" fill="#000000" d="M 193.5,256.5 C 194.822,256.33 195.989,256.663 197,257.5C 197.495,259.473 197.662,261.473 197.5,263.5C 192.813,263.084 191.479,260.751 193.5,256.5 Z"/></g>
<g><path style="opacity:0.523" fill="#000000" d="M 473.5,260.5 C 480.167,260.5 486.833,260.5 493.5,260.5C 493.5,261.5 493.5,262.5 493.5,263.5C 488.684,263.58 484.017,264.414 479.5,266C 476.167,266.667 472.833,266.667 469.5,266C 468.549,265.282 468.383,264.449 469,263.5C 470.409,262.219 471.909,261.219 473.5,260.5 Z"/></g>
<g><path style="opacity:0.388" fill="#000000" d="M 524.5,260.5 C 527.572,261.318 527.905,262.485 525.5,264C 520.898,265.122 516.232,265.622 511.5,265.5C 511.5,264.5 511.5,263.5 511.5,262.5C 516.028,262.23 520.361,261.563 524.5,260.5 Z"/></g>
<g><path style="opacity:0.662" fill="#000000" d="M 338.5,264.5 C 352.5,264.5 366.5,264.5 380.5,264.5C 380.5,265.5 380.5,266.5 380.5,267.5C 372.459,267.336 364.459,267.836 356.5,269C 359.835,271.341 362.002,274.507 363,278.5C 363.282,282.002 363.449,285.335 363.5,288.5C 362.926,290.059 362.26,291.559 361.5,293C 363.161,293.995 364.495,295.328 365.5,297C 365.095,297.945 364.428,298.612 363.5,299C 357.557,300.006 351.89,299.173 346.5,296.5C 335.002,298.208 323.502,299.875 312,301.5C 308.297,301.679 304.464,301.346 300.5,300.5C 300.5,299.5 300.5,298.5 300.5,297.5C 293.594,295.554 289.261,291.054 287.5,284C 292.831,271.464 300.997,269.298 312,277.5C 314.35,282.925 315.517,288.425 315.5,294C 317.909,294.935 320.409,295.435 323,295.5C 329.554,295.535 336.054,295.035 342.5,294C 335.913,286.717 335.246,279.05 340.5,271C 336.299,270.926 332.299,270.093 328.5,268.5C 328.833,267.833 329.167,267.167 329.5,266.5C 332.642,265.833 335.642,265.166 338.5,264.5 Z M 348.5,277.5 C 350.722,277.178 352.556,277.845 354,279.5C 355.08,281.996 356.414,284.33 358,286.5C 358.667,288.167 358.667,289.833 358,291.5C 354.793,289.594 351.627,287.594 348.5,285.5C 346.089,282.655 346.089,279.989 348.5,277.5 Z M 299.5,282.5 C 303.438,282.635 306.772,284.135 309.5,287C 310.638,288.734 311.138,290.568 311,292.5C 307.25,290.041 303.417,287.708 299.5,285.5C 298.438,284.575 298.438,283.575 299.5,282.5 Z"/></g>
<g><path style="opacity:0.626" fill="#000000" d="M 302.5,265.5 C 304.167,265.5 305.833,265.5 307.5,265.5C 307.5,266.5 307.5,267.5 307.5,268.5C 300.481,269.838 293.481,271.338 286.5,273C 281.201,274.145 275.868,274.478 270.5,274C 267.561,270.197 268.561,267.864 273.5,267C 283.342,266.83 293.009,266.33 302.5,265.5 Z"/></g>
<g><path style="opacity:0.668" fill="#000000" d="M 220.5,270.5 C 223.76,271.215 227.093,271.215 230.5,270.5C 230.5,271.5 230.5,272.5 230.5,273.5C 218.587,274.264 206.92,276.097 195.5,279C 201.484,284.511 201.817,290.177 196.5,296C 197.793,296.49 199.127,296.657 200.5,296.5C 200.5,297.5 200.5,298.5 200.5,299.5C 187.423,302.46 179.09,297.46 175.5,284.5C 175.76,282.813 176.427,281.313 177.5,280C 174.204,275.256 175.538,272.589 181.5,272C 194.673,271.831 207.673,271.331 220.5,270.5 Z M 185.5,283.5 C 192.338,284.258 194.672,287.925 192.5,294.5C 190.742,293.872 189.242,292.872 188,291.5C 187.117,288.898 185.617,286.731 183.5,285C 184.416,284.722 185.082,284.222 185.5,283.5 Z"/></g>
<g><path style="opacity:0.692" fill="#000000" d="M 445.5,293.5 C 443.085,282.76 447.252,276.427 458,274.5C 464.027,274.579 468.194,277.246 470.5,282.5C 466.846,287.996 467.846,292.162 473.5,295C 472.457,296.976 471.123,297.476 469.5,296.5C 462.579,300.028 455.579,300.195 448.5,297C 447.837,295.482 446.837,294.315 445.5,293.5 Z M 457.5,284.5 C 464.338,287.967 464.004,289.467 456.5,289C 455.257,287.184 455.59,285.684 457.5,284.5 Z"/></g>
<g><path style="opacity:0.615" fill="#000000" d="M 136.5,277.5 C 140.833,277.915 144.833,279.248 148.5,281.5C 150.747,280.626 153.08,280.292 155.5,280.5C 155.824,283.694 154.658,284.694 152,283.5C 149.664,284.292 149.164,285.625 150.5,287.5C 150.6,292.486 148.6,296.319 144.5,299C 152.159,299.5 159.826,299.666 167.5,299.5C 167.5,300.5 167.5,301.5 167.5,302.5C 157.472,302.929 147.472,303.762 137.5,305C 129.5,305.667 121.5,305.667 113.5,305C 112.028,301.448 113.362,299.782 117.5,300C 124.908,299.101 132.242,298.768 139.5,299C 136.284,298.997 133.617,297.831 131.5,295.5C 130.319,291.928 129.652,288.262 129.5,284.5C 122.825,284.666 116.158,284.5 109.5,284C 106.716,283.564 105.55,282.064 106,279.5C 113.982,278.44 121.982,278.773 130,280.5C 132.546,280.141 134.713,279.141 136.5,277.5 Z M 138.5,286.5 C 139.496,286.414 140.329,286.748 141,287.5C 142.25,290.077 142.584,292.743 142,295.5C 140.697,293.032 139.197,290.699 137.5,288.5C 137.863,287.817 138.196,287.15 138.5,286.5 Z"/></g>
<g><path style="opacity:0.603" fill="#000000" d="M 445.5,293.5 C 445.586,294.496 445.252,295.329 444.5,296C 430.094,297.456 415.761,299.456 401.5,302C 397.113,302.706 392.78,302.54 388.5,301.5C 387.637,297.838 388.97,295.672 392.5,295C 409.569,294.913 426.569,294.08 443.5,292.5C 444.183,292.863 444.85,293.196 445.5,293.5 Z"/></g>
<g><path style="opacity:0.529" fill="#000000" d="M 485.5,297.5 C 491.868,297.17 498.202,297.504 504.5,298.5C 504.291,299.086 503.957,299.586 503.5,300C 495.114,300.577 486.781,302.077 478.5,304.5C 474.455,304.41 473.622,302.743 476,299.5C 479.27,298.868 482.437,298.201 485.5,297.5 Z"/></g>
<g><path style="opacity:0.649" fill="#000000" d="M 388.5,301.5 C 394.062,305.698 396.395,311.198 395.5,318C 397.587,318.792 399.421,319.959 401,321.5C 402.441,320.74 403.941,320.074 405.5,319.5C 406.9,321.782 406.234,323.282 403.5,324C 414.749,323.979 425.749,324.146 436.5,324.5C 435.335,325.584 434.002,326.417 432.5,327C 437.207,327.231 439.541,329.731 439.5,334.5C 434.813,333.918 430.48,332.585 426.5,330.5C 426.5,329.5 426.5,328.5 426.5,327.5C 416.933,327.397 407.266,328.231 397.5,330C 393.167,330.667 388.833,330.667 384.5,330C 382.697,325.453 384.363,323.453 389.5,324C 382.912,323.044 377.578,320.044 373.5,315C 371.002,302.334 376.002,297.834 388.5,301.5 Z M 387.5,313.5 C 389.153,313.66 390.486,314.326 391.5,315.5C 389.62,315.771 388.287,315.104 387.5,313.5 Z"/></g>
<g><path style="opacity:0.459" fill="#000000" d="M 304.5,305.5 C 308.067,307.557 311.234,310.223 314,313.5C 314.617,314.449 314.451,315.282 313.5,316C 309.52,314.768 305.687,312.935 302,310.5C 301.294,308.045 302.127,306.378 304.5,305.5 Z"/></g>
<g><path style="opacity:0.475" fill="#000000" d="M 259.5,306.5 C 261.144,306.286 262.644,306.62 264,307.5C 264.497,309.81 264.663,312.143 264.5,314.5C 259.303,313.999 257.636,311.332 259.5,306.5 Z"/></g>
<g><path style="opacity:0.452" fill="#000000" d="M 343.5,307.5 C 349.083,307.078 351.417,309.412 350.5,314.5C 344.471,315.805 342.138,313.471 343.5,307.5 Z"/></g>
<g><path style="opacity:0.402" fill="#000000" d="M 458.5,307.5 C 462.342,307.023 465.342,308.356 467.5,311.5C 467.192,312.308 466.692,312.975 466,313.5C 463.045,313.322 459.879,313.322 456.5,313.5C 456.604,311.297 457.27,309.297 458.5,307.5 Z"/></g>
<g><path style="opacity:0.509" fill="#000000" d="M 491.5,307.5 C 496.064,307.55 499.564,309.55 502,313.5C 502.781,314.944 502.614,316.277 501.5,317.5C 496.935,315.036 492.602,313.036 488.5,311.5C 489.172,309.84 490.172,308.507 491.5,307.5 Z"/></g>
<g><path style="opacity:0.428" fill="#000000" d="M 146.5,308.5 C 147.5,308.5 148.5,308.5 149.5,308.5C 149.676,312.033 151.009,315.033 153.5,317.5C 146.5,318.481 144.167,315.481 146.5,308.5 Z"/></g>
<g><path style="opacity:0.424" fill="#000000" d="M 171.5,309.5 C 176.78,309.485 179.446,312.151 179.5,317.5C 176.874,316.578 174.207,315.578 171.5,314.5C 169.016,312.631 169.016,310.964 171.5,309.5 Z"/></g>
<g><path style="opacity:0.561" fill="#000000" d="M 122.5,310.5 C 126.883,309.755 129.383,311.422 130,315.5C 127.633,317.956 124.8,318.789 121.5,318C 120.083,315.257 120.416,312.757 122.5,310.5 Z"/></g>
<g><path style="opacity:0.678" fill="#000000" d="M 469.5,320.5 C 483.749,318.905 489.249,324.905 486,338.5C 482.5,342.337 478.167,344.67 473,345.5C 470.213,342.715 466.713,339.881 462.5,337C 455.811,337.83 455.144,336.33 460.5,332.5C 461.246,326.76 464.246,322.76 469.5,320.5 Z M 472.5,328.5 C 478.533,329.08 480.033,332.08 477,337.5C 475.663,335.996 473.996,334.996 472,334.5C 471.322,332.402 471.489,330.402 472.5,328.5 Z"/></g>
<g><path style="opacity:0.646" fill="#000000" d="M 337.5,321.5 C 340.062,322.371 342.728,322.371 345.5,321.5C 345.5,322.5 345.5,323.5 345.5,324.5C 342.432,324.547 339.432,325.047 336.5,326C 338.609,327.141 340.442,328.641 342,330.5C 343.731,334.067 345.231,337.734 346.5,341.5C 345.07,341.579 343.736,341.246 342.5,340.5C 340.929,342.415 338.929,343.415 336.5,343.5C 337.052,341.669 337.052,340.003 336.5,338.5C 334.838,337.673 333.505,336.507 332.5,335C 330.833,334.333 329.167,334.333 327.5,335C 329.657,338.156 332.157,340.989 335,343.5C 335.49,344.793 335.657,346.127 335.5,347.5C 332.482,347.665 329.482,347.498 326.5,347C 324.241,345.285 322.074,343.452 320,341.5C 317.839,337.152 318.005,332.985 320.5,329C 313.23,329.819 305.897,330.319 298.5,330.5C 298.587,326.759 300.587,324.759 304.5,324.5C 305.086,324.709 305.586,325.043 306,325.5C 316.681,324.89 327.181,323.557 337.5,321.5 Z"/></g>
<g><path style="opacity:0.631" fill="#000000" d="M 247.5,324.5 C 255.448,322.52 260.948,325.187 264,332.5C 268.125,339.124 267.292,344.957 261.5,350C 252.512,352.735 246.345,349.568 243,340.5C 242.24,336.775 242.407,333.108 243.5,329.5C 238.559,328.669 233.726,328.336 229,328.5C 218.002,330.278 207.002,332.278 196,334.5C 190.217,332.734 190.05,330.067 195.5,326.5C 212.112,326.662 228.779,326.662 245.5,326.5C 246.522,326.145 247.189,325.478 247.5,324.5 Z M 252.5,334.5 C 256.776,334.97 260.11,336.97 262.5,340.5C 256.613,343.214 253.28,341.214 252.5,334.5 Z"/></g>
<g><path style="opacity:0.675" fill="#000000" d="M 175.5,326.5 C 181.974,325.482 186.807,327.815 190,333.5C 190.789,339.237 190.456,344.903 189,350.5C 186.929,353.416 185.595,353.082 185,349.5C 180.941,352.259 177.108,351.925 173.5,348.5C 172.833,349.167 172.167,349.833 171.5,350.5C 170.108,349.395 168.941,348.061 168,346.5C 167.791,342.332 167.791,337.998 168,333.5C 169.15,329.51 171.65,327.177 175.5,326.5 Z M 177.5,336.5 C 178.552,336.351 179.552,336.517 180.5,337C 181.833,339 183.167,341 184.5,343C 180.514,342.855 178.181,340.688 177.5,336.5 Z"/></g>
<g><path style="opacity:0.451" fill="#000000" d="M 514.5,326.5 C 520.116,326.928 522.449,329.761 521.5,335C 516.511,334.501 514.178,331.668 514.5,326.5 Z"/></g>
<g><path style="opacity:0.52" fill="#000000" d="M 161.5,329.5 C 162.5,329.5 163.5,329.5 164.5,329.5C 164.5,330.5 164.5,331.5 164.5,332.5C 155.219,333.752 145.886,334.586 136.5,335C 126.503,336.143 116.67,337.977 107,340.5C 101.722,340.247 100.389,337.913 103,333.5C 104.067,332.809 105.234,332.309 106.5,332C 125.031,331.98 143.365,331.146 161.5,329.5 Z"/></g>
<g><path style="opacity:0.487" fill="#000000" d="M 376.5,330.5 C 378.467,330.261 380.301,330.594 382,331.5C 383.549,334.312 384.382,337.312 384.5,340.5C 380.529,339.428 377.029,337.428 374,334.5C 373.333,333.833 373.333,333.167 374,332.5C 374.995,331.934 375.828,331.267 376.5,330.5 Z"/></g>
<g><path style="opacity:0.544" fill="#000000" d="M 307.5,334.5 C 312.459,333.628 314.625,335.628 314,340.5C 310.206,343.507 307.372,342.84 305.5,338.5C 305.752,336.927 306.418,335.594 307.5,334.5 Z"/></g>
<g><path style="opacity:0.515" fill="#000000" d="M 205.5,335.5 C 211.905,334.406 214.238,337.073 212.5,343.5C 208.036,342.702 205.703,340.036 205.5,335.5 Z"/></g>
<g><path style="opacity:0.388" fill="#000000" d="M 136.5,338.5 C 139.838,338.109 140.838,339.276 139.5,342C 141.606,344.845 141.773,347.678 140,350.5C 138.71,348.208 137.043,346.208 135,344.5C 134.252,342.16 134.752,340.16 136.5,338.5 Z"/></g>
<g><path style="opacity:0.539" fill="#000000" d="M 455.5,350.5 C 457.167,350.5 458.833,350.5 460.5,350.5C 460.5,351.5 460.5,352.5 460.5,353.5C 453.478,354.471 446.478,355.637 439.5,357C 443.099,357.764 445.099,359.93 445.5,363.5C 441.019,363.575 436.686,362.908 432.5,361.5C 432.5,360.5 432.5,359.5 432.5,358.5C 429.15,358.665 425.817,358.498 422.5,358C 421.14,356.062 421.473,354.396 423.5,353C 425.556,352.689 427.556,352.189 429.5,351.5C 430.086,351.709 430.586,352.043 431,352.5C 439.265,351.847 447.432,351.18 455.5,350.5 Z"/></g>
<g><path style="opacity:0.564" fill="#000000" d="M 308.5,351.5 C 310.924,351.192 313.257,351.526 315.5,352.5C 314.975,353.192 314.308,353.692 313.5,354C 299.461,356.728 285.461,359.561 271.5,362.5C 268.644,362.374 266.644,361.04 265.5,358.5C 265.962,356.709 267.129,355.709 269,355.5C 272.871,354.954 276.704,354.288 280.5,353.5C 281.167,353.833 281.833,354.167 282.5,354.5C 291.348,353.989 300.015,352.989 308.5,351.5 Z"/></g>
<g><path style="opacity:0.61" fill="#000000" d="M 335.5,352.5 C 355.409,353.206 375.076,353.54 394.5,353.5C 394.291,354.086 393.957,354.586 393.5,355C 376.912,357.598 360.245,359.432 343.5,360.5C 339.448,360.468 335.448,360.135 331.5,359.5C 330.112,358.409 329.612,357.076 330,355.5C 331.719,354.131 333.552,353.131 335.5,352.5 Z"/></g>
<g><path style="opacity:0.594" fill="#000000" d="M 197.5,354.5 C 209.579,356.658 221.579,356.658 233.5,354.5C 234.833,354.833 236.167,355.167 237.5,355.5C 237.291,356.086 236.957,356.586 236.5,357C 226.777,358.343 217.11,360.009 207.5,362C 203.463,362.607 199.463,362.44 195.5,361.5C 195.166,358.812 195.832,356.479 197.5,354.5 Z"/></g>
<g><path style="opacity:0.497" fill="#000000" d="M 491.5,354.5 C 495.833,354.167 497.833,356.167 497.5,360.5C 493.776,361.227 491.109,359.894 489.5,356.5C 490.243,355.818 490.909,355.151 491.5,354.5 Z"/></g>
<g><path style="opacity:0.627" fill="#000000" d="M 517.5,354.5 C 527.791,353.739 530.791,357.739 526.5,366.5C 524.955,367.452 523.288,367.785 521.5,367.5C 521.762,366.022 521.429,364.689 520.5,363.5C 519.355,364.776 519.355,366.109 520.5,367.5C 523.192,369.862 525.859,372.196 528.5,374.5C 520.835,377.59 515.335,375.257 512,367.5C 511.093,361.983 512.926,357.65 517.5,354.5 Z"/></g>
<g><path style="opacity:0.64" fill="#000000" d="M 114.5,358.5 C 115.833,358.5 117.167,358.5 118.5,358.5C 118.67,359.822 118.337,360.989 117.5,362C 109.362,364.617 101.029,366.45 92.5,367.5C 89.9577,367.782 87.9577,366.949 86.5,365C 86.6878,363.118 87.6878,361.952 89.5,361.5C 97.915,360.049 106.248,359.049 114.5,358.5 Z"/></g>
<g><path style="opacity:0.597" fill="#000000" d="M 167.5,358.5 C 168.833,358.5 170.167,358.5 171.5,358.5C 171.5,359.5 171.5,360.5 171.5,361.5C 158.268,363.653 145.268,365.653 132.5,367.5C 130.167,366.833 127.833,366.167 125.5,365.5C 124.253,363.994 124.253,362.494 125.5,361C 130.357,360.693 135.19,360.193 140,359.5C 145.895,360.255 151.728,360.589 157.5,360.5C 160.971,359.903 164.305,359.236 167.5,358.5 Z"/></g>
<g><path style="opacity:0.619" fill="#000000" d="M 408.5,358.5 C 417.558,358.539 421.558,363.206 420.5,372.5C 422.199,372.38 423.865,372.046 425.5,371.5C 427.833,371.833 428.167,372.833 426.5,374.5C 433.554,375.556 440.554,375.223 447.5,373.5C 448.5,373.833 449.167,374.5 449.5,375.5C 440.623,377.178 431.957,379.678 423.5,383C 424.337,384.011 424.67,385.178 424.5,386.5C 421.739,385.08 418.739,384.413 415.5,384.5C 415.5,382.5 415.5,380.5 415.5,378.5C 411.361,377.513 407.528,375.847 404,373.5C 401.076,366.884 402.576,361.884 408.5,358.5 Z M 411.5,367.5 C 413.138,368.657 414.804,369.824 416.5,371C 413.632,371.64 411.965,370.473 411.5,367.5 Z"/></g>
<g><path style="opacity:0.728" fill="#000000" d="M 321.5,360.5 C 330.055,358.82 334.221,362.153 334,370.5C 332.833,372.333 331.667,374.167 330.5,376C 333.033,377.916 333.033,379.916 330.5,382C 319.119,382.952 314.286,377.786 316,366.5C 317.36,363.977 319.193,361.977 321.5,360.5 Z M 324.5,370.5 C 325.848,371.527 326.348,372.86 326,374.5C 324.812,373.437 324.312,372.103 324.5,370.5 Z"/></g>
<g><path style="opacity:0.4" fill="#000000" d="M 388.5,360.5 C 393.536,359.388 397.202,361.055 399.5,365.5C 395.883,366.714 392.549,366.048 389.5,363.5C 388.614,362.675 388.281,361.675 388.5,360.5 Z"/></g>
<g><path style="opacity:0.401" fill="#000000" d="M 299.5,362.5 C 303.85,363.517 306.517,366.184 307.5,370.5C 304.763,369.969 302.096,369.136 299.5,368C 298.248,366.172 298.248,364.339 299.5,362.5 Z"/></g>
<g><path style="opacity:0.694" fill="#000000" d="M 243.5,363.5 C 244.873,363.343 246.207,363.51 247.5,364C 250.361,365.832 252.861,367.999 255,370.5C 255.185,374.656 256.018,378.656 257.5,382.5C 257.144,385.688 255.477,387.855 252.5,389C 240.875,390.375 235.375,385.209 236,373.5C 237.305,370.362 239.471,368.029 242.5,366.5C 243.386,365.675 243.719,364.675 243.5,363.5 Z M 245.5,375.5 C 249.012,376.005 251.345,378.005 252.5,381.5C 247.851,382.533 245.518,380.533 245.5,375.5 Z"/></g>
<g><path style="opacity:0.515" fill="#000000" d="M 350.5,364.5 C 355.052,364.686 358.719,366.686 361.5,370.5C 362.386,371.325 362.719,372.325 362.5,373.5C 358.447,372.987 354.447,372.154 350.5,371C 349.313,369.981 348.313,368.814 347.5,367.5C 348.77,366.712 349.77,365.712 350.5,364.5 Z"/></g>
<g><path style="opacity:0.63" fill="#000000" d="M 150.5,370.5 C 151.497,370.47 152.164,370.97 152.5,372C 151.116,380.297 153.116,381.297 158.5,375C 166.639,374.297 170.973,378.13 171.5,386.5C 169.009,386.16 166.842,385.16 165,383.5C 162.544,383.287 161.544,384.287 162,386.5C 167.438,390.58 172.605,390.247 177.5,385.5C 178.308,385.808 178.975,386.308 179.5,387C 172.434,398.278 163.934,399.445 154,390.5C 153.474,387.728 152.641,385.062 151.5,382.5C 145.507,378.644 145.173,374.644 150.5,370.5 Z"/></g>
<g><path style="opacity:0.433" fill="#000000" d="M 196.5,372.5 C 197.822,372.33 198.989,372.663 200,373.5C 200.495,375.473 200.662,377.473 200.5,379.5C 195.813,379.084 194.479,376.751 196.5,372.5 Z"/></g>
<g><path style="opacity:0.523" fill="#000000" d="M 476.5,376.5 C 483.167,376.5 489.833,376.5 496.5,376.5C 496.5,377.5 496.5,378.5 496.5,379.5C 491.684,379.58 487.017,380.414 482.5,382C 479.167,382.667 475.833,382.667 472.5,382C 471.549,381.282 471.383,380.449 472,379.5C 473.409,378.219 474.909,377.219 476.5,376.5 Z"/></g>
<g><path style="opacity:0.381" fill="#000000" d="M 527.5,376.5 C 530.731,377.098 531.064,378.264 528.5,380C 523.868,381.564 519.201,381.731 514.5,380.5C 514.709,379.914 515.043,379.414 515.5,379C 519.637,378.161 523.637,377.327 527.5,376.5 Z"/></g>
<g><path style="opacity:0.546" fill="#000000" d="M 341.5,380.5 C 355.5,380.5 369.5,380.5 383.5,380.5C 383.5,381.5 383.5,382.5 383.5,383.5C 367.145,384.47 350.811,385.304 334.5,386C 331.853,385.685 331.187,384.518 332.5,382.5C 335.642,381.833 338.642,381.166 341.5,380.5 Z"/></g>
<g><path style="opacity:0.623" fill="#000000" d="M 305.5,381.5 C 307.167,381.5 308.833,381.5 310.5,381.5C 310.5,382.5 310.5,383.5 310.5,384.5C 303.481,385.838 296.481,387.338 289.5,389C 284.201,390.145 278.868,390.478 273.5,390C 270.561,386.197 271.561,383.864 276.5,383C 286.342,382.83 296.009,382.33 305.5,381.5 Z"/></g>
<g><path style="opacity:0.616" fill="#000000" d="M 223.5,386.5 C 226.76,387.215 230.093,387.215 233.5,386.5C 233.5,387.5 233.5,388.5 233.5,389.5C 216.1,391.508 198.767,393.675 181.5,396C 178.8,395.051 177.967,393.217 179,390.5C 180.491,388.996 182.324,388.163 184.5,388C 197.673,387.831 210.673,387.331 223.5,386.5 Z"/></g>
<g><path style="opacity:0.488" fill="#000000" d="M 109.5,394.5 C 121.055,394.951 132.555,395.951 144,397.5C 148.826,397.64 153.659,397.307 158.5,396.5C 158.778,398.346 158.111,399.68 156.5,400.5C 142.009,400.624 127.342,400.458 112.5,400C 109.095,399.247 108.095,397.414 109.5,394.5 Z"/></g>
</svg>
