<?xml version="1.0" encoding="UTF-8"?>
<!DOCTYPE svg PUBLIC "-//W3C//DTD SVG 1.1//EN" "http://www.w3.org/Graphics/SVG/1.1/DTD/svg11.dtd">
<svg xmlns="http://www.w3.org/2000/svg" version="1.1" width="611px" height="611px" style="shape-rendering:geometricPrecision; text-rendering:geometricPrecision; image-rendering:optimizeQuality; fill-rule:evenodd; clip-rule:evenodd" xmlns:xlink="http://www.w3.org/1999/xlink">
<g><path style="opacity:0.628" fill="#000000" d="M 265.5,211.5 C 275.716,211.296 285.383,213.463 294.5,218C 296.96,219.458 299.127,221.291 301,223.5C 304.04,217.397 308.874,215.231 315.5,217C 318.833,218 322.167,219 325.5,220C 335.427,225.268 345.093,230.935 354.5,237C 358.092,239.921 360.925,243.421 363,247.5C 369.616,236.942 379.116,232.442 391.5,234C 400.497,235.198 409.164,237.531 417.5,241C 424.446,246.411 429.279,253.244 432,261.5C 443.429,255.172 454.929,255.006 466.5,261C 470.399,265.021 472.566,269.855 473,275.5C 473.667,280.167 473.667,284.833 473,289.5C 471.36,293.38 470.693,297.38 471,301.5C 473.335,304.166 475.169,307.166 476.5,310.5C 487.81,311.55 494.643,317.55 497,328.5C 499.23,337.276 498.897,345.943 496,354.5C 494.5,356 493,357.5 491.5,359C 481.235,361.859 470.902,363.359 460.5,363.5C 457.74,363.758 455.406,364.758 453.5,366.5C 450.232,365.074 447.065,363.407 444,361.5C 442.605,363.14 441.105,364.64 439.5,366C 424.471,370.329 410.137,368.662 396.5,361C 395.667,360.167 394.833,359.333 394,358.5C 390.329,367.837 383.495,373.004 373.5,374C 363.353,375.393 353.02,375.393 342.5,374C 339.578,373.708 337.578,372.208 336.5,369.5C 335.354,370.145 334.354,370.978 333.5,372C 316.863,374.652 300.196,374.652 283.5,372C 281.078,370.641 278.578,369.475 276,368.5C 271.446,369.43 266.946,370.597 262.5,372C 250.784,374.284 240.784,371.284 232.5,363C 229.514,363.128 226.514,363.128 223.5,363C 221.679,361.257 219.679,359.757 217.5,358.5C 216.375,361.454 215.375,364.454 214.5,367.5C 208.019,369.479 201.353,370.646 194.5,371C 178.662,371.595 162.996,371.928 147.5,372C 142.268,371.455 137.934,369.122 134.5,365C 126.85,366.105 119.516,364.938 112.5,361.5C 108.744,363.439 104.744,364.439 100.5,364.5C 88.9771,363.758 77.6438,362.758 66.5,361.5C 61.3063,350.394 58.8063,338.727 59,326.5C 62.7465,317.258 69.5798,311.924 79.5,310.5C 80.8434,284.3 92.1767,263.8 113.5,249C 120.017,246.79 126.684,246.124 133.5,247C 137.77,248.679 140.27,251.845 141,256.5C 152.713,245.161 165.713,243.495 180,251.5C 188.185,243.327 197.351,236.494 207.5,231C 216.494,227.244 225.161,227.744 233.5,232.5C 236.567,226.596 240.901,221.762 246.5,218C 252.789,215.354 259.122,213.188 265.5,211.5 Z M 268.5,216.5 C 278.46,217.316 287.46,220.649 295.5,226.5C 296.54,228.523 297.54,230.523 298.5,232.5C 297.587,237.472 296.92,242.472 296.5,247.5C 290.657,247.703 284.991,248.703 279.5,250.5C 275.48,253.686 271.98,257.353 269,261.5C 266.935,249.908 263.935,238.575 260,227.5C 256.379,224.221 252.212,223.054 247.5,224C 254.179,220.314 261.179,217.814 268.5,216.5 Z M 308.5,221.5 C 316.694,222.257 324.361,224.757 331.5,229C 336.956,233.784 342.956,237.784 349.5,241C 358.458,248.755 362.625,258.588 362,270.5C 363.099,273.864 364.599,277.03 366.5,280C 364.721,279.956 363.055,279.289 361.5,278C 354.957,271.093 346.957,266.926 337.5,265.5C 333.417,266.148 329.583,267.482 326,269.5C 326.165,252.312 317.665,244.979 300.5,247.5C 301.393,243.144 302.393,238.811 303.5,234.5C 302.97,229.435 304.637,225.102 308.5,221.5 Z M 246.5,229.5 C 250.007,228.994 253.174,229.66 256,231.5C 259.55,243.592 262.717,255.758 265.5,268C 264.833,268.333 264.167,268.667 263.5,269C 256.729,266.579 249.729,264.413 242.5,262.5C 238.356,259.281 236.189,254.948 236,249.5C 234.031,239.765 237.531,233.098 246.5,229.5 Z M 216.5,234.5 C 222.074,233.456 226.741,234.956 230.5,239C 228.73,246.691 230.063,254.191 234.5,261.5C 228.852,262.73 223.185,263.896 217.5,265C 213.38,265.819 209.546,267.319 206,269.5C 205.727,267.899 205.227,266.399 204.5,265C 202.645,264.578 200.811,264.078 199,263.5C 195.938,263.548 192.772,264.214 189.5,265.5C 188.165,261.35 186.165,257.517 183.5,254C 192.739,244.386 203.739,237.886 216.5,234.5 Z M 383.5,238.5 C 394.729,239.011 405.396,241.678 415.5,246.5C 427.108,257.36 430.275,270.36 425,285.5C 411.212,280.793 397.379,276.293 383.5,272C 378.018,271.478 372.685,270.978 367.5,270.5C 365.404,267.01 365.404,263.677 367.5,260.5C 366.425,257.562 366.259,254.562 367,251.5C 370.8,244.868 376.3,240.535 383.5,238.5 Z M 122.5,251.5 C 132.439,249.844 136.606,253.844 135,263.5C 133.563,270.187 132.063,276.854 130.5,283.5C 129.833,283.167 129.167,282.833 128.5,282.5C 125.333,283.719 122.333,285.219 119.5,287C 110.316,297.855 101.483,309.021 93,320.5C 90.8198,316.487 87.6532,313.487 83.5,311.5C 85.6791,295.822 91.1791,281.489 100,268.5C 105.982,260.666 113.482,255 122.5,251.5 Z M 156.5,251.5 C 166.532,250.453 175.032,253.453 182,260.5C 182.579,262.649 183.079,264.815 183.5,267C 178.107,276.15 173.274,285.65 169,295.5C 166.858,299.471 164.024,302.805 160.5,305.5C 156.473,304.395 152.473,303.229 148.5,302C 144.352,296.183 140.352,290.349 136.5,284.5C 137.841,277.468 139.341,270.468 141,263.5C 145.459,258.381 150.625,254.381 156.5,251.5 Z M 285.5,253.5 C 294.839,253.334 304.173,253.5 313.5,254C 317.108,256.114 319.275,259.281 320,263.5C 320.667,266.833 320.667,270.167 320,273.5C 317.148,277.204 314.815,281.204 313,285.5C 307.314,277.248 299.481,272.081 289.5,270C 283.559,268.512 277.559,267.345 271.5,266.5C 275.393,261.24 280.06,256.906 285.5,253.5 Z M 446.5,261.5 C 459.827,260.667 467.16,266.834 468.5,280C 467.822,284.622 467.155,289.455 466.5,294.5C 461.286,292.528 455.953,290.862 450.5,289.5C 445.001,290.706 439.668,292.206 434.5,294C 433.224,291.446 432.224,288.779 431.5,286C 432.871,279.156 433.204,272.322 432.5,265.5C 437.355,264.456 442.022,263.123 446.5,261.5 Z M 227.5,267.5 C 236.981,266.558 245.981,268.058 254.5,272C 244.464,275.549 239.464,282.716 239.5,293.5C 239.966,296.492 240.299,299.492 240.5,302.5C 225.98,299.28 214.313,303.447 205.5,315C 196.649,316.322 190.482,312.822 187,304.5C 186.191,299.637 186.858,294.97 189,290.5C 198.859,277.822 211.692,270.155 227.5,267.5 Z M 196.5,268.5 C 198.589,268.857 200.589,269.523 202.5,270.5C 195.188,275.312 189.021,281.312 184,288.5C 180.669,296.179 180.669,303.845 184,311.5C 184.833,312.333 185.667,313.167 186.5,314C 179.85,312.492 173.183,310.659 166.5,308.5C 168.459,307.252 169.959,305.585 171,303.5C 175.854,293.724 180.854,284.058 186,274.5C 188.975,271.311 192.475,269.311 196.5,268.5 Z M 367.5,293.5 C 364.402,292.784 361.736,291.284 359.5,289C 350.324,285.395 341.324,285.728 332.5,290C 327.5,293.833 322.5,297.667 317.5,301.5C 314.52,284.832 321.187,274.499 337.5,270.5C 342.472,271.655 347.138,273.489 351.5,276C 358.162,280.819 363.495,286.652 367.5,293.5 Z M 269.5,272.5 C 280.95,272.372 291.617,275.205 301.5,281C 304.04,283.205 306.207,285.705 308,288.5C 308.917,294.369 309.75,300.202 310.5,306C 304.89,308.721 299.39,311.554 294,314.5C 289.852,307.353 284.352,301.52 277.5,297C 271.425,295.15 265.425,295.483 259.5,298C 254.873,299.82 250.539,301.82 246.5,304C 243.75,297.13 243.916,290.297 247,283.5C 253.344,277.288 260.844,273.621 269.5,272.5 Z M 371.5,275.5 C 374.518,275.335 377.518,275.502 380.5,276C 396.23,281.132 411.897,286.466 427.5,292C 428.293,293.085 428.96,294.252 429.5,295.5C 425.948,300.641 423.448,306.307 422,312.5C 417.443,302.264 409.61,297.43 398.5,298C 391.745,303.113 387.912,309.946 387,318.5C 385.895,315.583 384.895,312.583 384,309.5C 378.69,302.231 373.856,294.564 369.5,286.5C 370.426,282.87 371.093,279.203 371.5,275.5 Z M 126.5,289.5 C 128.199,289.34 129.866,289.506 131.5,290C 135.515,293.849 138.682,298.349 141,303.5C 142.961,306.135 145.461,307.969 148.5,309C 139.587,310.738 132.087,314.905 126,321.5C 122.967,334.575 124.467,347.075 130.5,359C 126.219,360.011 122.386,359.177 119,356.5C 119.195,354.255 120.362,352.422 122.5,351C 120.863,349.049 119.363,349.216 118,351.5C 110.831,343.155 104.665,334.155 99.5,324.5C 107.405,311.936 116.405,300.269 126.5,289.5 Z M 341.5,292.5 C 349.413,291.97 356.746,293.803 363.5,298C 367.866,302.701 372.533,307.034 377.5,311C 382.534,317.634 384.534,325.134 383.5,333.5C 375.739,332.533 368.072,332.2 360.5,332.5C 363.355,328.27 365.021,323.603 365.5,318.5C 364.022,318.238 362.689,318.571 361.5,319.5C 359.321,326.371 355.321,331.871 349.5,336C 342.545,338.989 335.545,341.989 328.5,345C 315.727,344.856 303.06,343.523 290.5,341C 283.364,337.583 281.864,332.416 286,325.5C 287.333,324.167 288.667,322.833 290,321.5C 305.287,315.919 319.454,307.752 332.5,297C 335.592,295.454 338.592,293.954 341.5,292.5 Z M 444.5,295.5 C 449.777,294.931 454.777,295.765 459.5,298C 460.893,299.171 461.727,300.671 462,302.5C 463.892,303.13 465.559,304.13 467,305.5C 468.731,312.563 473.231,316.396 480.5,317C 487.209,319.043 491.043,323.543 492,330.5C 492.829,337.234 492.496,343.901 491,350.5C 488.705,352.938 485.872,354.438 482.5,355C 474.613,355.835 466.779,356.668 459,357.5C 455.624,356.635 452.29,356.968 449,358.5C 447.667,357.833 446.333,357.167 445,356.5C 444.869,351.306 443.869,346.306 442,341.5C 438.274,337.436 434.274,333.77 430,330.5C 424.725,322.355 424.725,313.688 430,304.5C 434.053,300.066 438.886,297.066 444.5,295.5 Z M 268.5,300.5 C 272.785,300.538 276.452,302.038 279.5,305C 282.541,308.912 285.208,313.079 287.5,317.5C 280.524,323.261 278.024,330.594 280,339.5C 281.5,341 283,342.5 284.5,344C 278.052,348.823 275.385,355.323 276.5,363.5C 271.294,363.812 266.294,364.978 261.5,367C 246.852,369.345 236.518,363.845 230.5,350.5C 231.151,346.522 232.818,343.022 235.5,340C 234.157,336.007 234.657,331.84 237,327.5C 243.128,313.192 253.628,304.192 268.5,300.5 Z M 400.5,302.5 C 406.012,303.592 410.679,306.259 414.5,310.5C 417.47,319.249 421.303,327.582 426,335.5C 429.667,338.833 433.333,342.167 437,345.5C 438.221,349.615 438.721,353.782 438.5,358C 438.241,359.261 437.574,360.261 436.5,361C 421.311,364.576 407.478,361.743 395,352.5C 395.29,345.774 392.456,340.94 386.5,338C 389.765,330.513 391.932,322.679 393,314.5C 394.933,310.083 397.433,306.083 400.5,302.5 Z M 229.5,306.5 C 234.109,306.312 238.109,307.645 241.5,310.5C 236.299,316.904 232.133,323.904 229,331.5C 228.259,334.562 228.425,337.562 229.5,340.5C 225.786,345.786 225.119,351.286 227.5,357C 223.725,356.766 220.725,354.932 218.5,351.5C 217.587,344.086 214.92,337.419 210.5,331.5C 208.412,324.213 209.745,317.713 214.5,312C 219.299,309.238 224.299,307.404 229.5,306.5 Z M 148.5,314.5 C 171.699,312.49 191.199,319.823 207,336.5C 209.106,339.608 210.772,342.941 212,346.5C 212.36,352.673 211.527,358.673 209.5,364.5C 187.851,366.044 166.184,366.877 144.5,367C 131.539,354.985 127.373,340.485 132,323.5C 136.801,319.078 142.301,316.078 148.5,314.5 Z M 78.5,315.5 C 84.0165,316.847 87.8499,320.18 90,325.5C 91.8153,327.405 93.8153,329.072 96,330.5C 99.2623,336.693 103.262,342.36 108,347.5C 109.312,349.955 110.478,352.455 111.5,355C 107.556,358.592 102.89,360.092 97.5,359.5C 88.1963,359.227 79.0296,358.227 70,356.5C 66.0981,347.154 64.0981,337.487 64,327.5C 66.9642,321.019 71.7975,317.019 78.5,315.5 Z M 204.5,326.5 C 202.704,325.207 201.037,323.707 199.5,322C 201.433,321.749 203.266,321.249 205,320.5C 204.865,322.425 204.698,324.425 204.5,326.5 Z M 367.5,337.5 C 372.552,337.45 377.552,337.95 382.5,339C 384.027,341.439 386.027,343.439 388.5,345C 387.216,346.297 387.383,347.464 389,348.5C 389.667,351.167 389.667,353.833 389,356.5C 386.5,359.667 384,362.833 381.5,366C 367.413,370.157 353.079,370.324 338.5,366.5C 338.385,360.868 337.052,355.368 334.5,350C 334.957,349.586 335.291,349.086 335.5,348.5C 341.431,345.586 347.264,342.586 353,339.5C 354.062,340.097 355.228,340.43 356.5,340.5C 360.251,339.386 363.918,338.386 367.5,337.5 Z M 293.5,346.5 C 304.882,349.832 316.882,351.498 329.5,351.5C 330.199,355.096 331.199,358.596 332.5,362C 331.833,363.333 331.167,364.667 330.5,366C 326.658,366.956 322.825,367.79 319,368.5C 311.471,368.394 303.637,368.394 295.5,368.5C 291.474,367.829 287.474,366.996 283.5,366C 279.209,355.295 282.543,348.795 293.5,346.5 Z"/></g>
</svg>
