<?xml version="1.0" encoding="UTF-8"?>
<!DOCTYPE svg PUBLIC "-//W3C//DTD SVG 1.1//EN" "http://www.w3.org/Graphics/SVG/1.1/DTD/svg11.dtd">
<svg xmlns="http://www.w3.org/2000/svg" version="1.1" width="611px" height="611px" style="shape-rendering:geometricPrecision; text-rendering:geometricPrecision; image-rendering:optimizeQuality; fill-rule:evenodd; clip-rule:evenodd" xmlns:xlink="http://www.w3.org/1999/xlink">
<g><path style="opacity:0.571" fill="#000000" d="M 302.5,245.5 C 315.32,244.153 320.82,249.819 319,262.5C 315.877,268.996 310.71,271.496 303.5,270C 294.323,265.463 292.156,258.629 297,249.5C 298.812,248.023 300.645,246.69 302.5,245.5 Z M 306.5,250.5 C 309.651,250.98 311.985,252.646 313.5,255.5C 309.98,255.377 308.314,257.377 308.5,261.5C 309.873,261.343 311.207,261.51 312.5,262C 306.59,265.885 302.59,264.385 300.5,257.5C 301.115,253.891 303.115,251.558 306.5,250.5 Z"/></g>
<g><path style="opacity:0.548" fill="#000000" d="M 299.5,287.5 C 314.12,285.955 322.454,292.455 324.5,307C 323.667,318.5 317.5,324.667 306,325.5C 288.707,322.575 283.04,312.908 289,296.5C 292.252,293.137 295.752,290.137 299.5,287.5 Z M 314.5,315.5 C 315.371,312.888 316.037,310.221 316.5,307.5C 313.167,306.833 311.167,308.167 310.5,311.5C 306.979,312.15 305.979,313.983 307.5,317C 308.793,317.49 310.127,317.657 311.5,317.5C 301.692,320.922 295.359,317.422 292.5,307C 294.987,295.427 301.654,291.76 312.5,296C 319.591,302.004 320.258,308.504 314.5,315.5 Z"/></g>
<g><path style="opacity:0.595" fill="#000000" d="M 314.5,315.5 C 313.833,315.5 313.5,315.833 313.5,316.5C 312.508,316.328 311.842,316.662 311.5,317.5C 310.127,317.657 308.793,317.49 307.5,317C 305.979,313.983 306.979,312.15 310.5,311.5C 311.167,308.167 313.167,306.833 316.5,307.5C 316.037,310.221 315.371,312.888 314.5,315.5 Z"/></g>
<g><path style="opacity:0.567" fill="#000000" d="M 301.5,337.5 C 318.392,336.021 329.226,343.354 334,359.5C 336.964,378.089 329.464,389.922 311.5,395C 295.024,396.685 283.857,389.852 278,374.5C 275.26,355.29 283.094,342.957 301.5,337.5 Z M 302.5,343.5 C 318.147,343.645 327.147,351.478 329.5,367C 326.113,384.402 315.779,391.402 298.5,388C 282.057,379.125 278.891,366.959 289,351.5C 292.897,347.641 297.397,344.975 302.5,343.5 Z"/></g>
<g><path style="opacity:0.608" fill="#000000" d="M 319.5,370.5 C 320.833,370.5 322.167,370.5 323.5,370.5C 323.432,377.9 319.765,382.233 312.5,383.5C 310.503,383.014 309.169,381.847 308.5,380C 311.354,378.188 314.354,376.521 317.5,375C 318.267,373.53 318.933,372.03 319.5,370.5 Z"/></g>
</svg>
