<?xml version="1.0" encoding="UTF-8"?>
<!DOCTYPE svg PUBLIC "-//W3C//DTD SVG 1.1//EN" "http://www.w3.org/Graphics/SVG/1.1/DTD/svg11.dtd">
<svg xmlns="http://www.w3.org/2000/svg" version="1.1" width="611px" height="611px" style="shape-rendering:geometricPrecision; text-rendering:geometricPrecision; image-rendering:optimizeQuality; fill-rule:evenodd; clip-rule:evenodd" xmlns:xlink="http://www.w3.org/1999/xlink">
<g><path style="opacity:0.673" fill="#000000" d="M 460.5,230.5 C 465.947,230.954 471.947,231.454 478.5,232C 495.738,233.959 511.072,240.293 524.5,251C 536.431,261.8 541.431,275.133 539.5,291C 536.418,303.25 531.584,314.75 525,325.5C 518.368,334.631 510.868,342.964 502.5,350.5C 493.676,356.356 484.176,359.689 474,360.5C 458.033,363.828 442.367,364.161 427,361.5C 426.127,361.735 425.293,362.069 424.5,362.5C 419.715,360.975 415.381,358.641 411.5,355.5C 396.736,367.106 380.069,370.939 361.5,367C 350.029,366.099 340.696,361.266 333.5,352.5C 332.959,350.465 332.292,348.465 331.5,346.5C 325.522,350.988 318.856,354.154 311.5,356C 294.721,360.689 277.721,364.356 260.5,367C 241.474,367.568 222.808,365.234 204.5,360C 202.972,358.639 201.305,357.472 199.5,356.5C 195.461,358.683 191.294,360.683 187,362.5C 185.908,361.704 184.741,361.037 183.5,360.5C 171.366,361.877 159.2,362.877 147,363.5C 131.157,363.484 114.99,363.318 98.5,363C 76.3587,361.164 60.5253,350.331 51,330.5C 49.8688,321.96 51.2021,313.627 55,305.5C 59.6153,298.55 64.6153,291.884 70,285.5C 93.2268,267.279 119.393,259.779 148.5,263C 158.306,264.36 167.306,267.694 175.5,273C 187.73,280.896 197.564,291.063 205,303.5C 222.495,273.153 248.662,255.32 283.5,250C 295.767,247.931 307.934,248.097 320,250.5C 327.212,250.789 334.045,252.956 340.5,257C 349.586,261.085 356.419,267.585 361,276.5C 361.834,280.002 362.667,283.502 363.5,287C 363.514,292.107 363.348,297.607 363,303.5C 364.833,302 366.667,300.5 368.5,299C 372.922,296.796 377.589,295.129 382.5,294C 381.326,288.197 381.493,282.364 383,276.5C 386.97,272.587 389.97,267.92 392,262.5C 396.177,257.656 400.677,253.156 405.5,249C 414.919,244.297 424.586,239.964 434.5,236C 443.457,234.462 452.123,232.628 460.5,230.5 Z M 453.5,238.5 C 464.456,238.388 475.456,239.222 486.5,241C 487.5,241.333 488.5,241.667 489.5,242C 487.714,242.196 486.381,243.029 485.5,244.5C 487.742,245.692 490.075,246.692 492.5,247.5C 493.9,245.218 493.234,243.718 490.5,243C 508.091,245.941 521.258,255.108 530,270.5C 532.368,275.892 533.035,281.558 532,287.5C 530.946,293.721 529.279,299.721 527,305.5C 519.773,318.583 510.606,330.25 499.5,340.5C 486.588,348.937 472.422,353.604 457,354.5C 443.475,353.985 429.975,352.818 416.5,351C 416.043,350.586 415.709,350.086 415.5,349.5C 424.941,336.807 426.775,323.14 421,308.5C 417.47,301.81 411.97,297.643 404.5,296C 398.506,295.056 392.506,294.223 386.5,293.5C 388.257,278.606 394.924,266.439 406.5,257C 413.582,252.461 420.915,248.461 428.5,245C 436.876,242.499 445.209,240.332 453.5,238.5 Z M 305.5,254.5 C 324.932,255.017 340.932,262.517 353.5,277C 357.721,289.644 357.221,302.144 352,314.5C 347.205,321.234 342.039,327.734 336.5,334C 333.899,336.498 332.565,335.998 332.5,332.5C 331.5,332.5 330.5,332.5 329.5,332.5C 329.286,334.144 329.62,335.644 330.5,337C 327.466,339.516 324.132,341.516 320.5,343C 297.726,351.481 274.226,356.647 250,358.5C 238.835,357.971 227.668,357.471 216.5,357C 212.001,356.139 207.668,354.972 203.5,353.5C 205.87,347.771 209.037,342.437 213,337.5C 216.36,327.813 215.193,318.646 209.5,310C 214.53,298.634 221.53,288.634 230.5,280C 241.065,272.468 252.398,266.134 264.5,261C 278.017,257.079 291.683,254.913 305.5,254.5 Z M 124.5,268.5 C 136.394,267.689 148.06,268.856 159.5,272C 168.953,277.197 177.953,283.031 186.5,289.5C 192.878,296.716 198.711,304.383 204,312.5C 205.95,316.732 207.617,321.066 209,325.5C 209.584,328.257 209.25,330.923 208,333.5C 203.217,343.481 195.717,350.648 185.5,355C 162.671,356.564 139.838,357.73 117,358.5C 104.877,358.448 93.0441,356.615 81.5,353C 74.8172,348.767 68.6506,343.934 63,338.5C 60.5646,334.628 58.3979,330.628 56.5,326.5C 57.7357,324.689 57.7357,322.856 56.5,321C 62.7351,301.771 74.7351,287.438 92.5,278C 102.869,273.578 113.536,270.411 124.5,268.5 Z M 387.5,299.5 C 394.356,300.061 401.023,301.561 407.5,304C 416.219,310.17 419.886,318.504 418.5,329C 409.072,354.945 390.739,364.945 363.5,359C 351.31,358.57 342.81,353.07 338,342.5C 348.385,334.43 356.219,324.263 361.5,312C 368.907,305.041 377.573,300.874 387.5,299.5 Z"/></g>
<g><path style="opacity:0.119" fill="#000000" d="M 467.5,249.5 C 472.012,250.28 472.345,251.613 468.5,253.5C 467.571,252.311 467.238,250.978 467.5,249.5 Z"/></g>
<g><path style="opacity:0.487" fill="#000000" d="M 507.5,256.5 C 513.294,256.622 516.627,259.622 517.5,265.5C 512.028,264.78 508.695,261.78 507.5,256.5 Z"/></g>
<g><path style="opacity:0.324" fill="#000000" d="M 457.5,258.5 C 459.527,258.338 461.527,258.505 463.5,259C 464.973,259.71 465.64,260.876 465.5,262.5C 463.473,262.662 461.473,262.495 459.5,262C 458.027,261.29 457.36,260.124 457.5,258.5 Z"/></g>
<g><path style="opacity:0.444" fill="#000000" d="M 418.5,263.5 C 421.321,263.539 423.988,264.205 426.5,265.5C 424.342,268.644 421.342,269.977 417.5,269.5C 417.517,267.435 417.85,265.435 418.5,263.5 Z"/></g>
<g><path style="opacity:0.312" fill="#000000" d="M 491.5,266.5 C 493.59,266.45 494.923,267.45 495.5,269.5C 494.754,270.736 494.421,272.07 494.5,273.5C 493.022,273.762 491.689,273.429 490.5,272.5C 491.348,270.591 491.682,268.591 491.5,266.5 Z"/></g>
<g><path style="opacity:0.32" fill="#000000" d="M 248.5,269.5 C 251.588,269.197 253.254,270.53 253.5,273.5C 251.833,273.5 250.167,273.5 248.5,273.5C 248.5,272.167 248.5,270.833 248.5,269.5 Z"/></g>
<g><path style="opacity:0.377" fill="#000000" d="M 293.5,273.5 C 296.484,273.787 297.817,275.454 297.5,278.5C 292.285,278.998 290.951,277.331 293.5,273.5 Z"/></g>
<g><path style="opacity:0.407" fill="#000000" d="M 411.5,275.5 C 412.5,275.5 413.5,275.5 414.5,275.5C 415.093,278.596 414.093,280.929 411.5,282.5C 408.852,280.132 408.852,277.798 411.5,275.5 Z"/></g>
<g><path style="opacity:0.325" fill="#000000" d="M 514.5,275.5 C 515.833,275.5 517.167,275.5 518.5,275.5C 518.067,278.285 516.734,280.619 514.5,282.5C 513.28,282.113 512.613,281.28 512.5,280C 513.044,278.415 513.711,276.915 514.5,275.5 Z"/></g>
<g><path style="opacity:0.381" fill="#000000" d="M 270.5,277.5 C 272.5,277.5 274.5,277.5 276.5,277.5C 275.89,281.444 273.557,283.777 269.5,284.5C 268.5,284.167 267.833,283.5 267.5,282.5C 269.278,281.274 270.278,279.607 270.5,277.5 Z"/></g>
<g><path style="opacity:0.345" fill="#000000" d="M 442.5,278.5 C 445.833,278.5 447.5,280.167 447.5,283.5C 443.828,283.817 442.162,282.151 442.5,278.5 Z"/></g>
<g><path style="opacity:0.375" fill="#000000" d="M 326.5,279.5 C 330.833,279.167 332.833,281.167 332.5,285.5C 328.833,285.167 326.833,283.167 326.5,279.5 Z"/></g>
<g><path style="opacity:0.383" fill="#000000" d="M 492.5,281.5 C 493.978,281.238 495.311,281.571 496.5,282.5C 497.986,284.302 498.986,286.302 499.5,288.5C 496.984,288.245 494.65,287.411 492.5,286C 491.587,284.586 491.587,283.086 492.5,281.5 Z"/></g>
<g><path style="opacity:0.455" fill="#000000" d="M 116.5,283.5 C 118.167,283.5 119.833,283.5 121.5,283.5C 121.5,285.5 121.5,287.5 121.5,289.5C 118.136,290.211 115.803,289.044 114.5,286C 115.381,285.292 116.047,284.458 116.5,283.5 Z"/></g>
<g><path style="opacity:0.24" fill="#000000" d="M 460.5,286.5 C 461.833,286.5 463.167,286.5 464.5,286.5C 464.5,287.5 464.5,288.5 464.5,289.5C 462.774,289.815 461.107,289.981 459.5,290C 459.167,289.667 458.833,289.333 458.5,289C 459.381,288.292 460.047,287.458 460.5,286.5 Z"/></g>
<g><path style="opacity:0.323" fill="#000000" d="M 295.5,287.5 C 297.948,287.085 299.281,288.085 299.5,290.5C 299.132,291.91 298.299,292.91 297,293.5C 295.681,291.75 295.181,289.75 295.5,287.5 Z"/></g>
<g><path style="opacity:0.431" fill="#000000" d="M 154.5,293.5 C 158.833,292.685 161.166,294.352 161.5,298.5C 158.794,298.425 156.127,298.092 153.5,297.5C 153.433,296.041 153.766,294.708 154.5,293.5 Z"/></g>
<g><path style="opacity:0.42" fill="#000000" d="M 262.5,293.5 C 263.5,293.5 264.5,293.5 265.5,293.5C 265.383,295.484 266.05,297.15 267.5,298.5C 262.483,300.124 260.817,298.457 262.5,293.5 Z"/></g>
<g><path style="opacity:0.328" fill="#000000" d="M 443.5,296.5 C 445.465,296.948 445.798,297.948 444.5,299.5C 442.591,300.348 440.591,300.682 438.5,300.5C 438.5,299.5 438.5,298.5 438.5,297.5C 440.415,297.784 442.081,297.451 443.5,296.5 Z"/></g>
<g><path style="opacity:0.423" fill="#000000" d="M 124.5,298.5 C 126.167,298.5 127.833,298.5 129.5,298.5C 129.5,300.167 129.5,301.833 129.5,303.5C 125.5,304.167 123.833,302.5 124.5,298.5 Z"/></g>
<g><path style="opacity:0.355" fill="#000000" d="M 88.5,301.5 C 89.8333,301.5 91.1667,301.5 92.5,301.5C 91.3182,308.085 89.9848,308.085 88.5,301.5 Z"/></g>
<g><path style="opacity:0.089" fill="#000000" d="M 468.5,303.5 C 469.5,303.5 470.5,303.5 471.5,303.5C 471.778,305.346 471.111,306.68 469.5,307.5C 468.571,306.311 468.238,304.978 468.5,303.5 Z"/></g>
<g><path style="opacity:0.392" fill="#000000" d="M 500.5,303.5 C 501.833,303.5 503.167,303.5 504.5,303.5C 504.926,307.946 502.926,310.28 498.5,310.5C 498.166,307.812 498.832,305.479 500.5,303.5 Z"/></g>
<g><path style="opacity:0.323" fill="#000000" d="M 242.5,304.5 C 244.256,305.552 244.923,307.219 244.5,309.5C 243.167,309.5 241.833,309.5 240.5,309.5C 240.365,307.446 241.032,305.779 242.5,304.5 Z"/></g>
<g><path style="opacity:0.333" fill="#000000" d="M 326.5,305.5 C 328.167,305.5 329.833,305.5 331.5,305.5C 331.5,306.5 331.5,307.5 331.5,308.5C 329.94,308.519 328.44,308.852 327,309.5C 326.5,309.167 326,308.833 325.5,308.5C 326.127,307.583 326.461,306.583 326.5,305.5 Z"/></g>
<g><path style="opacity:0.189" fill="#000000" d="M 249.5,306.5 C 250.833,306.5 252.167,306.5 253.5,306.5C 253.5,307.5 253.5,308.5 253.5,309.5C 251.027,309.912 249.694,308.912 249.5,306.5 Z"/></g>
<g><path style="opacity:0.404" fill="#000000" d="M 166.5,307.5 C 168.527,307.338 170.527,307.505 172.5,308C 173.38,309.356 173.714,310.856 173.5,312.5C 171.073,312.477 168.74,311.977 166.5,311C 165.316,309.855 165.316,308.688 166.5,307.5 Z"/></g>
<g><path style="opacity:0.108" fill="#000000" d="M 286.5,307.5 C 287.5,307.5 288.5,307.5 289.5,307.5C 289.762,308.978 289.429,310.311 288.5,311.5C 286.889,310.68 286.222,309.346 286.5,307.5 Z"/></g>
<g><path style="opacity:0.462" fill="#000000" d="M 383.5,311.5 C 385.167,311.5 386.833,311.5 388.5,311.5C 389.046,316.406 387.546,317.406 384,314.5C 383.517,313.552 383.351,312.552 383.5,311.5 Z"/></g>
<g><path style="opacity:0.299" fill="#000000" d="M 110.5,314.5 C 111.5,314.5 112.5,314.5 113.5,314.5C 113.5,315.833 113.5,317.167 113.5,318.5C 110.046,318.733 109.046,317.4 110.5,314.5 Z"/></g>
<g><path style="opacity:0.143" fill="#000000" d="M 494.5,314.5 C 495.5,314.5 496.5,314.5 497.5,314.5C 496.72,317.101 495.054,319.101 492.5,320.5C 491.5,320.167 490.833,319.5 490.5,318.5C 491.549,316.784 492.882,315.451 494.5,314.5 Z"/></g>
<g><path style="opacity:0.236" fill="#000000" d="M 312.5,317.5 C 314.346,317.222 315.68,317.889 316.5,319.5C 315.311,320.429 313.978,320.762 312.5,320.5C 312.5,319.5 312.5,318.5 312.5,317.5 Z"/></g>
<g><path style="opacity:0.125" fill="#000000" d="M 283.5,318.5 C 285.346,318.222 286.68,318.889 287.5,320.5C 286.15,321.95 284.484,322.617 282.5,322.5C 282.433,321.041 282.766,319.708 283.5,318.5 Z"/></g>
<g><path style="opacity:0.357" fill="#000000" d="M 165.5,319.5 C 166.675,319.281 167.675,319.614 168.5,320.5C 169.348,322.409 169.682,324.409 169.5,326.5C 168.178,326.67 167.011,326.337 166,325.5C 165.505,323.527 165.338,321.527 165.5,319.5 Z"/></g>
<g><path style="opacity:0.104" fill="#000000" d="M 305.5,321.5 C 306.5,321.5 307.5,321.5 308.5,321.5C 308.5,322.5 308.5,323.5 308.5,324.5C 307.5,324.5 306.5,324.5 305.5,324.5C 305.5,323.5 305.5,322.5 305.5,321.5 Z"/></g>
<g><path style="opacity:0.35" fill="#000000" d="M 394.5,321.5 C 397.859,321.698 399.692,323.365 400,326.5C 398.23,327.276 396.397,327.11 394.5,326C 393.587,324.586 393.587,323.086 394.5,321.5 Z"/></g>
<g><path style="opacity:0.343" fill="#000000" d="M 87.5,326.5 C 88.675,326.281 89.675,326.614 90.5,327.5C 92.0198,329.662 93.0198,331.995 93.5,334.5C 91.8561,334.714 90.3561,334.38 89,333.5C 88.023,331.26 87.523,328.927 87.5,326.5 Z"/></g>
<g><path style="opacity:0.233" fill="#000000" d="M 237.5,326.5 C 238.5,326.5 239.5,326.5 240.5,326.5C 240.553,329.061 239.553,331.061 237.5,332.5C 236.306,330.484 236.306,328.484 237.5,326.5 Z"/></g>
<g><path style="opacity:0.476" fill="#000000" d="M 473.5,326.5 C 476.167,326.5 478.833,326.5 481.5,326.5C 481.67,327.822 481.337,328.989 480.5,330C 477.854,330.497 475.187,330.664 472.5,330.5C 472.433,329.041 472.766,327.708 473.5,326.5 Z"/></g>
<g><path style="opacity:0.374" fill="#000000" d="M 439.5,327.5 C 443.206,327.499 445.539,329.165 446.5,332.5C 441.563,334.529 439.23,332.863 439.5,327.5 Z"/></g>
<g><path style="opacity:0.429" fill="#000000" d="M 178.5,329.5 C 179.496,329.414 180.329,329.748 181,330.5C 181.497,332.81 181.663,335.143 181.5,337.5C 179.856,337.714 178.356,337.38 177,336.5C 176.865,334.078 177.365,331.745 178.5,329.5 Z"/></g>
<g><path style="opacity:0.148" fill="#000000" d="M 384.5,330.5 C 389.557,331.145 389.557,332.478 384.5,334.5C 381.875,333.135 381.875,331.802 384.5,330.5 Z"/></g>
<g><path style="opacity:0.319" fill="#000000" d="M 450.5,330.5 C 452.939,331.053 455.273,331.053 457.5,330.5C 458.529,333.308 457.362,334.642 454,334.5C 451.244,334.576 450.077,333.243 450.5,330.5 Z"/></g>
<g><path style="opacity:0.295" fill="#000000" d="M 137.5,331.5 C 138.833,331.5 140.167,331.5 141.5,331.5C 141.833,334.5 140.5,335.833 137.5,335.5C 137.5,334.167 137.5,332.833 137.5,331.5 Z"/></g>
<g><path style="opacity:0.352" fill="#000000" d="M 287.5,331.5 C 290.247,331.187 292.914,331.52 295.5,332.5C 292.717,334.976 289.384,335.976 285.5,335.5C 285.527,333.801 286.194,332.467 287.5,331.5 Z"/></g>
<g><path style="opacity:0.394" fill="#000000" d="M 361.5,333.5 C 362.978,333.238 364.311,333.571 365.5,334.5C 364.691,336.071 364.357,337.738 364.5,339.5C 360.489,339.165 359.489,337.165 361.5,333.5 Z"/></g>
<g><path style="opacity:0.175" fill="#000000" d="M 380.5,335.5 C 381.5,335.5 382.5,335.5 383.5,335.5C 383.426,339.541 382.093,340.208 379.5,337.5C 379.863,336.817 380.196,336.15 380.5,335.5 Z"/></g>
<g><path style="opacity:0.201" fill="#000000" d="M 249.5,336.5 C 252.851,337.184 254.851,339.184 255.5,342.5C 251.833,342.167 249.833,340.167 249.5,336.5 Z"/></g>
<g><path style="opacity:0.401" fill="#000000" d="M 401.5,338.5 C 402.5,338.5 403.5,338.5 404.5,338.5C 404.839,343.241 402.839,344.574 398.5,342.5C 399.172,340.84 400.172,339.507 401.5,338.5 Z"/></g>
<g><path style="opacity:0.113" fill="#000000" d="M 163.5,340.5 C 166.101,341.922 165.934,343.256 163,344.5C 162.5,344.167 162,343.833 161.5,343.5C 162.193,342.482 162.859,341.482 163.5,340.5 Z"/></g>
<g><path style="opacity:0.231" fill="#000000" d="M 366.5,350.5 C 368.912,350.244 370.579,351.244 371.5,353.5C 368.167,355.252 366.501,354.252 366.5,350.5 Z"/></g>
</svg>
