<?xml version="1.0" encoding="UTF-8"?>
<!DOCTYPE svg PUBLIC "-//W3C//DTD SVG 1.1//EN" "http://www.w3.org/Graphics/SVG/1.1/DTD/svg11.dtd">
<svg xmlns="http://www.w3.org/2000/svg" version="1.1" width="611px" height="611px" style="shape-rendering:geometricPrecision; text-rendering:geometricPrecision; image-rendering:optimizeQuality; fill-rule:evenodd; clip-rule:evenodd" xmlns:xlink="http://www.w3.org/1999/xlink">
<g><path style="opacity:0.653" fill="#000000" d="M 538.5,272.5 C 538.167,271.167 537.833,271.167 537.5,272.5C 535.039,274.153 532.872,276.153 531,278.5C 530.667,278.167 530.333,277.833 530,277.5C 526.997,279.03 524.164,280.697 521.5,282.5C 520.833,282.5 520.5,282.833 520.5,283.5C 519.118,284.801 517.452,285.634 515.5,286C 516.258,287.364 515.758,288.531 514,289.5C 513.667,289.167 513.333,288.833 513,288.5C 511.471,289.729 510.304,291.229 509.5,293C 501.917,298.71 494.417,304.544 487,310.5C 484.849,310.765 483.182,311.765 482,313.5C 481.667,313.167 481.333,312.833 481,312.5C 474.565,316.787 467.898,320.787 461,324.5C 460.023,323.226 459.189,323.226 458.5,324.5C 455.797,326.181 453.131,327.847 450.5,329.5C 443.808,333.322 436.808,336.488 429.5,339C 430.604,340.131 430.271,340.965 428.5,341.5C 427.158,340.098 426.324,340.431 426,342.5C 425.667,342.167 425.333,341.833 425,341.5C 422.699,342.867 420.199,343.534 417.5,343.5C 417.62,346.205 416.62,346.872 414.5,345.5C 388.94,354.603 361.94,359.603 333.5,360.5C 327.142,359.963 320.475,359.963 313.5,360.5C 309.167,360.333 304.833,360.167 300.5,360C 290.87,358.074 281.203,356.407 271.5,355C 263.996,352.63 256.663,349.964 249.5,347C 249.833,346.667 250.167,346.333 250.5,346C 246.522,345.059 242.522,344.226 238.5,343.5C 237.014,342.186 235.347,341.186 233.5,340.5C 231.392,341.949 229.725,341.449 228.5,339C 226.385,338.443 224.385,337.609 222.5,336.5C 221.914,336.709 221.414,337.043 221,337.5C 220.5,336.333 219.667,335.5 218.5,335C 212.873,334.069 207.206,333.569 201.5,333.5C 197.733,333.547 194.233,334.214 191,335.5C 189.062,334.14 187.396,334.473 186,336.5C 185.586,336.043 185.086,335.709 184.5,335.5C 179.773,337.082 175.106,338.415 170.5,339.5C 168.214,339.595 166.214,340.262 164.5,341.5C 161.325,341.503 158.492,342.503 156,344.5C 154.384,343.199 152.884,343.199 151.5,344.5C 144.255,345.347 137.088,346.68 130,348.5C 124.051,348.876 118.051,348.21 112,346.5C 110.564,346.559 109.231,346.892 108,347.5C 107.5,347 107,346.5 106.5,346C 93.2184,343.993 80.5518,344.159 68.5,346.5C 65.7239,344.87 62.7239,344.203 59.5,344.5C 54.3378,343.963 49.1712,342.963 44,341.5C 43.6667,341.833 43.3333,342.167 43,342.5C 42.5831,341.244 41.7498,340.577 40.5,340.5C 36.7186,336.894 32.7186,333.394 28.5,330C 29.6943,327.556 29.1943,325.389 27,323.5C 25.1043,307.593 29.6043,294.427 40.5,284C 40.1667,283.667 39.8333,283.333 39.5,283C 42.7667,281.904 44.7667,279.737 45.5,276.5C 54.1177,272.188 61.1177,266.021 66.5,258C 79.6795,248.742 93.3461,241.909 107.5,237.5C 109.434,237.099 110.934,236.099 112,234.5C 113.616,235.801 115.116,235.801 116.5,234.5C 133.442,228.332 151.109,225.332 169.5,225.5C 178.725,226.098 187.892,226.765 197,227.5C 197.333,227.167 197.667,226.833 198,226.5C 202.037,227.793 206.204,228.626 210.5,229C 216.907,232.105 223.573,234.605 230.5,236.5C 232.812,237.341 235.145,238.341 237.5,239.5C 240.724,241.788 244.391,243.622 248.5,245C 251.011,247.843 253.844,250.343 257,252.5C 258.84,251.167 259.34,251.334 258.5,253C 262.73,255.189 267.063,257.189 271.5,259C 272.313,260.803 273.48,262.303 275,263.5C 289.55,270.931 305.384,274.931 322.5,275.5C 332.872,275.204 343.372,275.204 354,275.5C 393.436,270.936 430.936,260.936 466.5,245.5C 470.182,243.507 474.182,242.34 478.5,242C 477.346,241.086 477.513,240.253 479,239.5C 479.893,240.081 480.893,240.415 482,240.5C 500.348,235.431 519.015,231.764 538,229.5C 543.856,229.487 550.023,229.821 556.5,230.5C 560.62,224.874 564.953,219.374 569.5,214C 576.097,210.622 583.097,209.622 590.5,211C 593,212.167 594.833,214 596,216.5C 600.141,228.863 601.807,241.53 601,254.5C 598.933,259.246 595.433,262.079 590.5,263C 579.675,264.516 571.508,260.683 566,251.5C 562.649,254.567 559.149,257.233 555.5,259.5C 555.646,261.942 554.813,262.609 553,261.5C 547.96,265.08 543.127,268.747 538.5,272.5 Z M 586.5,219.5 C 587.458,219.953 588.292,220.619 589,221.5C 589.519,228.435 590.686,234.935 592.5,241C 591.15,243.055 591.483,244.555 593.5,245.5C 593.245,247.343 593.078,249.343 593,251.5C 592.617,252.056 592.117,252.389 591.5,252.5C 591.038,253.88 590.038,254.547 588.5,254.5C 585.525,253.861 582.525,253.361 579.5,253C 580.863,250.871 580.529,250.371 578.5,251.5C 577.646,250.478 576.646,249.645 575.5,249C 578.576,248.654 581.576,247.988 584.5,247C 586.348,240.152 583.848,237.985 577,240.5C 576.25,239.874 575.416,239.374 574.5,239C 576.833,237.333 579.167,235.667 581.5,234C 580.167,233 580.167,232 581.5,231C 579.699,230.683 579.366,230.016 580.5,229C 578.671,228.727 577.171,227.893 576,226.5C 574.301,227.406 572.467,227.739 570.5,227.5C 571.263,225.632 572.263,223.965 573.5,222.5C 575.508,220.732 577.674,219.066 580,217.5C 581.458,218.747 582.958,218.747 584.5,217.5C 585.522,217.855 586.189,218.522 586.5,219.5 Z M 570.5,227.5 C 570.672,228.492 570.338,229.158 569.5,229.5C 567.969,228.075 568.302,227.409 570.5,227.5 Z M 276.5,272.5 C 279.079,272.852 280.913,274.186 282,276.5C 282.718,275.549 283.551,275.383 284.5,276C 286,276.833 287.167,278 288,279.5C 288.414,279.043 288.914,278.709 289.5,278.5C 292.655,280.22 295.655,281.22 298.5,281.5C 303.731,281.444 308.731,282.111 313.5,283.5C 330.29,284.635 347.29,284.635 364.5,283.5C 364.833,284.833 365.167,284.833 365.5,283.5C 395.59,279.438 424.423,272.104 452,261.5C 454.078,262.943 454.911,262.276 454.5,259.5C 460.084,259.125 465.251,257.458 470,254.5C 473.378,253.903 476.878,252.57 480.5,250.5C 481.086,250.709 481.586,251.043 482,251.5C 482.903,250.299 484.069,249.465 485.5,249C 490.332,248.251 494.999,246.917 499.5,245C 513.82,242.773 527.987,240.94 542,239.5C 547.492,240.083 552.992,240.583 558.5,241C 559.367,243.316 558.701,245.316 556.5,247C 548.168,251.317 540.335,256.484 533,262.5C 532.667,262.167 532.333,261.833 532,261.5C 530.833,263 529.667,264.5 528.5,266C 522.257,269.238 516.257,272.905 510.5,277C 503.683,283.359 496.683,289.192 489.5,294.5C 487.436,296.589 485.103,298.256 482.5,299.5C 481.564,300.974 480.23,301.974 478.5,302.5C 477.014,304.559 475.18,305.225 473,304.5C 470.405,306.496 467.739,308.496 465,310.5C 464.667,310.167 464.333,309.833 464,309.5C 446.241,318.713 427.574,328.046 408,337.5C 402.558,337.531 397.225,338.864 392,341.5C 391.586,341.043 391.086,340.709 390.5,340.5C 373.478,345.38 356.644,347.714 340,347.5C 339.5,348 339,348.5 338.5,349C 325.323,350.031 312.157,350.198 299,349.5C 288.226,347.168 277.726,345.002 267.5,343C 260.008,338.878 252.008,336.212 243.5,335C 224.943,324.493 204.61,321.659 182.5,326.5C 176.438,327.586 170.938,329.253 166,331.5C 159.576,332.645 153.409,334.479 147.5,337C 137.957,338.245 128.457,339.412 119,340.5C 112.665,338.627 106.165,337.46 99.5,337C 89.9655,336.795 80.4655,336.295 71,335.5C 64.2316,336.153 57.5649,335.487 51,333.5C 50.6667,333.833 50.3333,334.167 50,334.5C 46.1437,332.884 42.6437,330.718 39.5,328C 38.8333,326.667 38.1667,325.333 37.5,324C 40.4896,324.152 43.4896,324.652 46.5,325.5C 48.9592,323.88 51.1259,324.214 53,326.5C 56.5757,324.905 60.0757,323.239 63.5,321.5C 58.5192,322.332 53.5192,322.498 48.5,322C 48.0107,319.51 46.6773,317.676 44.5,316.5C 44.4039,322.715 41.9039,323.715 37,319.5C 36.7837,317.616 36.117,315.949 35,314.5C 34.3333,312.833 34.3333,311.167 35,309.5C 36.7322,305.637 38.0656,301.637 39,297.5C 39.6667,298.833 40.3333,298.833 41,297.5C 43.4277,291.412 47.9277,285.745 54.5,280.5C 57.9084,277.589 61.2417,274.423 64.5,271C 73.651,266.844 81.3176,260.844 87.5,253C 89.0806,252.293 90.5806,251.46 92,250.5C 90.8803,255.039 92.547,256.372 97,254.5C 97.49,253.207 97.6567,251.873 97.5,250.5C 96.448,250.649 95.448,250.483 94.5,250C 106.236,245.502 117.903,241.835 129.5,239C 135.629,238.284 141.462,236.784 147,234.5C 151.724,235.59 156.39,235.257 161,233.5C 166.074,234.66 171.074,234.66 176,233.5C 189.551,235.082 203.051,237.248 216.5,240C 222.869,242.46 229.203,245.127 235.5,248C 236.167,249 236.833,250 237.5,251C 244.394,253.229 250.227,257.062 255,262.5C 255.414,262.043 255.914,261.709 256.5,261.5C 262.738,266.1 269.405,269.767 276.5,272.5 Z M 208.5,297.5 C 203.261,294.049 197.595,291.382 191.5,289.5C 191.5,287.5 191.5,285.5 191.5,283.5C 194.963,282.55 198.463,282.884 202,284.5C 207.511,282.987 209.011,279.82 206.5,275C 201.5,274.667 196.5,274.333 191.5,274C 193.388,272.301 195.388,271.801 197.5,272.5C 198.696,272.154 198.696,271.654 197.5,271C 201.379,269.951 205.046,268.451 208.5,266.5C 209.086,266.709 209.586,267.043 210,267.5C 211.24,264.083 212.407,263.917 213.5,267C 213.262,272.618 212.262,277.951 210.5,283C 212.059,285.642 211.725,287.975 209.5,290C 210.718,292.65 210.385,295.15 208.5,297.5 Z"/></g>
<g><path style="opacity:0.004" fill="#000000" d="M 116.5,234.5 C 115.833,233.167 115.833,233.167 116.5,234.5 Z"/></g>
<g><path style="opacity:0.004" fill="#000000" d="M 225.5,233.5 C 226.833,234.167 226.833,234.167 225.5,233.5 Z"/></g>
<g><path style="opacity:0.016" fill="#000000" d="M 230.5,235.5 C 231.833,236.167 231.833,236.167 230.5,235.5 Z"/></g>
<g><path style="opacity:0.004" fill="#000000" d="M 237.5,238.5 C 238.833,239.167 238.833,239.167 237.5,238.5 Z"/></g>
<g><path style="opacity:0.5" fill="#000000" d="M 461.5,270.5 C 459.447,270.402 457.78,271.069 456.5,272.5C 446.178,275.036 436.845,278.369 428.5,282.5C 427.833,282.167 427.167,281.833 426.5,281.5C 418.993,284.769 411.993,286.769 405.5,287.5C 390.779,290.013 376.113,292.846 361.5,296C 346.5,296.667 331.5,296.667 316.5,296C 313.635,295.163 310.802,294.33 308,293.5C 306.657,294.214 305.324,293.88 304,292.5C 302.657,293.214 301.324,292.88 300,291.5C 299.586,291.957 299.086,292.291 298.5,292.5C 293.881,290.48 289.047,289.147 284,288.5C 283.667,288.833 283.333,289.167 283,289.5C 281.688,287.342 280.022,287.009 278,288.5C 277.683,286.699 277.016,286.366 276,287.5C 272.561,285.198 269.061,283.865 265.5,283.5C 263.098,281.376 260.098,279.043 256.5,276.5C 255.549,277.326 254.549,277.492 253.5,277C 253.833,276.667 254.167,276.333 254.5,276C 251.72,273.135 248.72,270.468 245.5,268C 244.216,267.316 243.049,267.483 242,268.5C 241.121,265.654 239.454,264.987 237,266.5C 236.173,265.338 235.34,264.171 234.5,263C 234.667,261.5 235.5,260.667 237,260.5C 245.423,262.284 252.256,266.451 257.5,273C 260.952,273.892 263.952,275.558 266.5,278C 286.475,283.647 307.141,288.147 328.5,291.5C 335.363,291.482 342.197,291.482 349,291.5C 366.152,288.947 383.319,286.114 400.5,283C 422.66,277.539 444.494,270.372 466,261.5C 466.561,262.022 467.228,262.355 468,262.5C 484.316,256.424 500.983,251.091 518,246.5C 523.067,245.187 528.234,244.187 533.5,243.5C 538.257,243.049 539.257,244.549 536.5,248C 532.68,248.235 529.013,249.068 525.5,250.5C 531.046,254.574 530.38,256.741 523.5,257C 521.845,255.556 521.178,253.722 521.5,251.5C 501.1,257.196 481.1,263.529 461.5,270.5 Z"/></g>
<g><path style="opacity:0.004" fill="#000000" d="M 466.5,245.5 C 465.833,244.167 465.833,244.167 466.5,245.5 Z"/></g>
<g><path style="opacity:0.587" fill="#000000" d="M 112.5,254.5 C 119.148,254.177 125.648,254.844 132,256.5C 132.414,256.043 132.914,255.709 133.5,255.5C 135.572,257.616 137.738,259.616 140,261.5C 140.613,265.897 138.613,268.231 134,268.5C 132.802,265.634 130.635,263.8 127.5,263C 126.234,262.691 125.067,262.191 124,261.5C 123.667,262.167 123.333,262.833 123,263.5C 121.43,262.642 119.763,261.975 118,261.5C 114.855,262.411 111.688,263.245 108.5,264C 107,264.833 105.833,266 105,267.5C 104.586,267.043 104.086,266.709 103.5,266.5C 101.095,267.903 98.9287,269.57 97,271.5C 95.85,270.576 94.85,270.576 94,271.5C 93.2189,270.271 92.7189,268.938 92.5,267.5C 93.9771,265.361 94.9771,263.028 95.5,260.5C 101.34,258.735 107.006,256.735 112.5,254.5 Z"/></g>
<g><path style="opacity:0.664" fill="#000000" d="M 220.5,287.5 C 219.199,288.884 219.199,290.384 220.5,292C 219.094,295.624 217.76,299.291 216.5,303C 216.833,303.333 217.167,303.667 217.5,304C 213.785,307.31 209.452,308.31 204.5,307C 199.342,303.829 193.842,301.329 188,299.5C 185.415,302.27 182.248,303.437 178.5,303C 179.444,300.281 179.777,297.448 179.5,294.5C 180.833,294.167 180.833,293.833 179.5,293.5C 180.298,291.114 181.298,288.78 182.5,286.5C 181.098,285.158 181.431,284.324 183.5,284C 182.167,281.667 182.167,279.333 183.5,277C 182.743,275.488 181.743,274.154 180.5,273C 180.833,272.667 181.167,272.333 181.5,272C 180.566,268.51 179.566,265.01 178.5,261.5C 179.945,261.259 181.612,260.592 183.5,259.5C 186.81,260.143 188.81,262.143 189.5,265.5C 195.718,262.584 202.384,259.75 209.5,257C 213.117,255.981 216.617,255.481 220,255.5C 221.617,256.536 221.784,257.703 220.5,259C 221.218,261.461 221.885,263.961 222.5,266.5C 221.608,272.711 220.608,278.877 219.5,285C 220.252,285.671 220.586,286.504 220.5,287.5 Z M 208.5,297.5 C 210.385,295.15 210.718,292.65 209.5,290C 211.725,287.975 212.059,285.642 210.5,283C 212.262,277.951 213.262,272.618 213.5,267C 212.407,263.917 211.24,264.083 210,267.5C 209.586,267.043 209.086,266.709 208.5,266.5C 205.046,268.451 201.379,269.951 197.5,271C 198.696,271.654 198.696,272.154 197.5,272.5C 195.388,271.801 193.388,272.301 191.5,274C 196.5,274.333 201.5,274.667 206.5,275C 209.011,279.82 207.511,282.987 202,284.5C 198.463,282.884 194.963,282.55 191.5,283.5C 191.5,285.5 191.5,287.5 191.5,289.5C 197.595,291.382 203.261,294.049 208.5,297.5 Z"/></g>
<g><path style="opacity:0.44" fill="#000000" d="M 505.5,257.5 C 507.844,257.506 509.178,258.673 509.5,261C 509.612,262.662 508.946,263.829 507.5,264.5C 503.148,263.119 502.482,260.786 505.5,257.5 Z"/></g>
<g><path style="opacity:0.004" fill="#000000" d="M 53.5,266.5 C 54.8333,267.167 54.8333,267.167 53.5,266.5 Z"/></g>
<g><path style="opacity:0.559" fill="#000000" d="M 479.5,266.5 C 482.916,265.894 485.582,266.894 487.5,269.5C 486.052,274.593 483.219,275.593 479,272.5C 478.82,270.512 478.986,268.512 479.5,266.5 Z"/></g>
<g><path style="opacity:0.004" fill="#000000" d="M 53.5,267.5 C 52.9976,269.085 51.9976,269.585 50.5,269C 51.2438,267.961 52.2438,267.461 53.5,267.5 Z"/></g>
<g><path style="opacity:0.656" fill="#000000" d="M 116.5,268.5 C 117.991,268.901 119.658,269.068 121.5,269C 122.729,270.529 124.229,271.696 126,272.5C 127.692,278.465 126.359,283.465 122,287.5C 119.272,287.986 116.605,287.32 114,285.5C 113.667,285.833 113.333,286.167 113,286.5C 108.969,279.357 110.136,273.357 116.5,268.5 Z"/></g>
<g><path style="opacity:0.004" fill="#000000" d="M 537.5,272.5 C 537.833,272.5 538.167,272.5 538.5,272.5C 538.315,273.17 537.981,273.17 537.5,272.5 Z"/></g>
<g><path style="opacity:0.617" fill="#000000" d="M 451.5,276.5 C 457.113,275.079 459.28,277.079 458,282.5C 455.419,286.057 452.419,286.39 449,283.5C 448.505,281.527 448.338,279.527 448.5,277.5C 449.791,277.737 450.791,277.404 451.5,276.5 Z"/></g>
<g><path style="opacity:0.012" fill="#000000" d="M 521.5,282.5 C 522.833,283.167 522.833,283.167 521.5,282.5 Z"/></g>
<g><path style="opacity:0.008" fill="#000000" d="M 520.5,283.5 C 520.833,283.5 521.167,283.5 521.5,283.5C 521.315,284.17 520.981,284.17 520.5,283.5 Z"/></g>
<g><path style="opacity:0.567" fill="#000000" d="M 419.5,285.5 C 424.85,286.184 426.684,289.184 425,294.5C 422.271,296.788 419.438,296.955 416.5,295C 413.313,290.404 414.313,287.238 419.5,285.5 Z"/></g>
<g><path style="opacity:0.627" fill="#000000" d="M 252.5,288.5 C 254.833,288.5 257.167,288.5 259.5,288.5C 260.329,291.469 260.495,294.469 260,297.5C 257.315,301.019 254.315,301.352 251,298.5C 250.153,294.928 250.653,291.594 252.5,288.5 Z"/></g>
<g><path style="opacity:0.617" fill="#000000" d="M 385.5,294.5 C 392.145,293.977 393.811,296.477 390.5,302C 386.641,304.379 383.975,303.379 382.5,299C 382.957,297.06 383.957,295.56 385.5,294.5 Z"/></g>
<g><path style="opacity:0.597" fill="#000000" d="M 283.5,296.5 C 286.568,296.547 289.568,297.047 292.5,298C 295.902,303.156 294.568,306.323 288.5,307.5C 284.5,307.5 282.5,305.5 282.5,301.5C 282.728,299.793 283.062,298.126 283.5,296.5 Z"/></g>
<g><path style="opacity:0.661" fill="#000000" d="M 352.5,298.5 C 359.282,297.125 362.448,299.791 362,306.5C 359.032,308.991 355.865,309.157 352.5,307C 351.321,304.204 351.321,301.371 352.5,298.5 Z"/></g>
<g><path style="opacity:0.644" fill="#000000" d="M 318.5,300.5 C 323.745,299.843 326.745,302.176 327.5,307.5C 321.613,313.61 317.946,312.443 316.5,304C 316.862,302.566 317.528,301.399 318.5,300.5 Z"/></g>
<g><path style="opacity:0.004" fill="#000000" d="M 458.5,324.5 C 459.833,325.167 459.833,325.167 458.5,324.5 Z"/></g>
<g><path style="opacity:0.004" fill="#000000" d="M 450.5,329.5 C 451.833,330.167 451.833,330.167 450.5,329.5 Z"/></g>
<g><path style="opacity:0.008" fill="#000000" d="M 170.5,339.5 C 171.833,340.167 171.833,340.167 170.5,339.5 Z"/></g>
<g><path style="opacity:0.004" fill="#000000" d="M 40.5,340.5 C 39.8333,341.167 39.8333,341.167 40.5,340.5 Z"/></g>
<g><path style="opacity:0.004" fill="#000000" d="M 164.5,341.5 C 165.833,342.167 165.833,342.167 164.5,341.5 Z"/></g>
<g><path style="opacity:0.004" fill="#000000" d="M 59.5,344.5 C 58.8333,345.167 58.8333,345.167 59.5,344.5 Z"/></g>
<g><path style="opacity:0.004" fill="#000000" d="M 151.5,344.5 C 152.833,345.167 152.833,345.167 151.5,344.5 Z"/></g>
</svg>
