<?xml version="1.0" encoding="UTF-8"?>
<!DOCTYPE svg PUBLIC "-//W3C//DTD SVG 1.1//EN" "http://www.w3.org/Graphics/SVG/1.1/DTD/svg11.dtd">
<svg xmlns="http://www.w3.org/2000/svg" version="1.1" width="611px" height="611px" style="shape-rendering:geometricPrecision; text-rendering:geometricPrecision; image-rendering:optimizeQuality; fill-rule:evenodd; clip-rule:evenodd" xmlns:xlink="http://www.w3.org/1999/xlink">
<g><path style="opacity:0.656" fill="#000000" d="M 534.5,276.5 C 534.167,275.167 533.833,275.167 533.5,276.5C 531.46,278.177 529.46,279.844 527.5,281.5C 527.167,280.167 526.833,280.167 526.5,281.5C 522.999,282.395 519.999,284.062 517.5,286.5C 516.833,286.5 516.5,286.833 516.5,287.5C 504.382,297.709 491.549,307.709 478,317.5C 477.667,317.167 477.333,316.833 477,316.5C 473.069,318.759 469.402,321.426 466,324.5C 462.53,324.196 459.53,325.529 457,328.5C 456.023,327.226 455.189,327.226 454.5,328.5C 451.797,330.181 449.131,331.847 446.5,333.5C 439.808,337.322 432.808,340.488 425.5,343C 426.604,344.131 426.271,344.965 424.5,345.5C 423.158,344.098 422.324,344.431 422,346.5C 421.667,346.167 421.333,345.833 421,345.5C 419.293,346.459 417.459,347.125 415.5,347.5C 411.986,349.645 408.319,351.645 404.5,353.5C 403.914,353.291 403.414,352.957 403,352.5C 379.006,359.428 354.506,363.428 329.5,364.5C 318.807,364.459 307.807,364.292 296.5,364C 286.86,362.173 277.193,360.507 267.5,359C 254.366,354.686 241.533,349.853 229,344.5C 227.132,345.71 225.632,345.21 224.5,343C 222.385,342.443 220.385,341.609 218.5,340.5C 217.914,340.709 217.414,341.043 217,341.5C 216.5,340.333 215.667,339.5 214.5,339C 208.873,338.069 203.206,337.569 197.5,337.5C 193.733,337.547 190.233,338.214 187,339.5C 185.062,338.14 183.396,338.473 182,340.5C 181.586,340.043 181.086,339.709 180.5,339.5C 175.668,340.672 171.001,342.005 166.5,343.5C 164.214,343.595 162.214,344.262 160.5,345.5C 157.325,345.503 154.492,346.503 152,348.5C 150.612,347.446 149.112,347.28 147.5,348C 147.833,348.333 148.167,348.667 148.5,349C 138.406,351.019 128.239,352.519 118,353.5C 100.686,349.156 83.5192,348.156 66.5,350.5C 62.8561,350.404 59.3561,349.738 56,348.5C 55.6667,348.833 55.3333,349.167 55,349.5C 50.1365,347.983 45.1365,346.65 40,345.5C 39.6667,345.833 39.3333,346.167 39,346.5C 38.5831,345.244 37.7498,344.577 36.5,344.5C 32.7186,340.894 28.7186,337.394 24.5,334C 25.6943,331.556 25.1943,329.389 23,327.5C 20.5689,315.474 23.0689,304.641 30.5,295C 30.1667,294.667 29.8333,294.333 29.5,294C 30.7375,293.768 31.7375,293.268 32.5,292.5C 33.5964,290.897 34.9297,289.397 36.5,288C 36.1667,287.667 35.8333,287.333 35.5,287C 38.7667,285.904 40.7667,283.737 41.5,280.5C 44.4255,279.364 47.0922,277.698 49.5,275.5C 61.6732,261.395 76.6732,251.228 94.5,245C 98.4395,242.781 102.273,241.281 106,240.5C 106.945,240.095 107.612,239.428 108,238.5C 109.714,239.925 111.047,239.592 112,237.5C 112.333,237.833 112.667,238.167 113,238.5C 116.877,237.267 120.711,236.267 124.5,235.5C 127.067,235.279 129.401,234.612 131.5,233.5C 156.146,228.83 180.813,228.83 205.5,233.5C 207.177,235.498 209.177,235.831 211.5,234.5C 212.696,234.846 212.696,235.346 211.5,236C 216.419,236.893 221.086,238.393 225.5,240.5C 226.086,240.291 226.586,239.957 227,239.5C 228.601,241.719 230.767,243.052 233.5,243.5C 234.52,244.954 235.687,245.287 237,244.5C 246.099,252.232 256.265,258.398 267.5,263C 268.313,264.803 269.48,266.303 271,267.5C 285.303,274.871 301.136,278.871 318.5,279.5C 328.872,279.204 339.372,279.204 350,279.5C 387.935,275.387 424.268,265.721 459,250.5C 460.558,251.345 461.558,250.679 462,248.5C 463.049,249.517 464.216,249.684 465.5,249C 468.994,247.648 472.16,245.815 475,243.5C 478.404,244.821 481.571,244.321 484.5,242C 495.722,239.955 506.888,237.789 518,235.5C 519.4,236.116 520.9,236.449 522.5,236.5C 526.615,235.029 530.615,234.362 534.5,234.5C 536.755,234.755 539.088,234.755 541.5,234.5C 546.107,234.317 550.44,234.317 554.5,234.5C 557.37,227.395 562.037,221.228 568.5,216C 574.415,214.473 580.415,214.139 586.5,215C 590.165,216.668 592.332,219.501 593,223.5C 594.206,229.861 595.539,236.194 597,242.5C 599.699,266.769 589.866,273.603 567.5,263C 565.28,260.781 563.447,258.281 562,255.5C 558.542,258.467 555.042,261.3 551.5,264C 550.167,264.667 550.167,265.333 551.5,266C 550.551,266.617 549.718,266.451 549,265.5C 543.96,269.08 539.127,272.747 534.5,276.5 Z M 582.5,223.5 C 583.458,223.953 584.292,224.619 585,225.5C 585.152,232.187 586.318,238.687 588.5,245C 587.15,247.055 587.483,248.555 589.5,249.5C 589.245,251.343 589.078,253.343 589,255.5C 588.617,256.056 588.117,256.389 587.5,256.5C 586.866,257.947 585.699,258.613 584,258.5C 581.176,257.946 578.343,257.446 575.5,257C 576.863,254.871 576.529,254.371 574.5,255.5C 573.646,254.478 572.646,253.645 571.5,253C 574.513,252.498 577.513,251.998 580.5,251.5C 580.5,249.5 580.5,247.5 580.5,245.5C 577.264,243.827 573.93,242.993 570.5,243C 572.833,241.333 575.167,239.667 577.5,238C 576.748,237.329 576.414,236.496 576.5,235.5C 575.662,235.158 575.328,234.492 575.5,233.5C 574.2,232.892 572.867,232.225 571.5,231.5C 569.818,232.807 568.152,232.807 566.5,231.5C 567.263,229.632 568.263,227.965 569.5,226.5C 571.508,224.732 573.674,223.066 576,221.5C 577.458,222.747 578.958,222.747 580.5,221.5C 581.522,221.855 582.189,222.522 582.5,223.5 Z M 272.5,276.5 C 275.079,276.852 276.913,278.186 278,280.5C 278.718,279.549 279.551,279.383 280.5,280C 282,280.833 283.167,282 284,283.5C 284.333,283.167 284.667,282.833 285,282.5C 288.343,284.122 291.51,285.122 294.5,285.5C 299.731,285.444 304.731,286.111 309.5,287.5C 326.468,288.747 343.468,288.747 360.5,287.5C 360.833,288.833 361.167,288.833 361.5,287.5C 364.119,287.003 366.953,287.003 370,287.5C 371.054,285.246 372.554,284.913 374.5,286.5C 388.665,283.459 402.665,279.792 416.5,275.5C 417.167,275.833 417.833,276.167 418.5,276.5C 426.884,273.388 436.217,269.888 446.5,266C 447.784,265.316 448.951,265.483 450,266.5C 450.483,265.552 450.649,264.552 450.5,263.5C 455.961,263.272 460.961,261.606 465.5,258.5C 469.09,257.984 472.757,256.65 476.5,254.5C 477.801,255.478 478.968,255.145 480,253.5C 485.383,252.724 490.55,251.224 495.5,249C 509.82,246.773 523.987,244.94 538,243.5C 543.492,244.083 548.992,244.583 554.5,245C 555.367,247.316 554.701,249.316 552.5,251C 546.942,253.374 541.942,256.707 537.5,261C 536.24,262.113 535.073,262.28 534,261.5C 532.791,263.184 531.291,264.517 529.5,265.5C 529.167,264.167 528.833,264.167 528.5,265.5C 521.821,271.362 514.488,276.528 506.5,281C 502.43,283.947 498.93,287.447 496,291.5C 494.16,290.167 493.66,290.334 494.5,292C 492.358,292.438 491.025,293.272 490.5,294.5C 489.328,296.539 487.662,297.872 485.5,298.5C 483.436,300.589 481.103,302.256 478.5,303.5C 477.564,304.974 476.23,305.974 474.5,306.5C 455.23,316.572 434.23,327.072 411.5,338C 403.609,340.429 395.776,342.929 388,345.5C 387.586,345.043 387.086,344.709 386.5,344.5C 377.817,346.777 369.15,348.944 360.5,351C 357.571,351.777 354.737,351.61 352,350.5C 350.561,352.014 349.061,352.347 347.5,351.5C 333.894,352.953 320.227,353.953 306.5,354.5C 300.315,354.155 294.315,353.489 288.5,352.5C 280.938,352.138 273.605,350.638 266.5,348C 257.92,343.807 248.92,340.807 239.5,339C 220.578,328.446 200.244,325.612 178.5,330.5C 166.86,334.102 155.194,337.602 143.5,341C 133.477,342.293 123.977,343.459 115,344.5C 100.404,341.193 85.5702,339.693 70.5,340C 75.9184,334.905 82.085,331.072 89,328.5C 91.5726,329.654 93.7392,331.32 95.5,333.5C 101.552,335.137 102.885,333.303 99.5,328C 95.7191,324.791 91.3858,322.625 86.5,321.5C 82.4935,324.505 78.1602,327.005 73.5,329C 69.386,332.237 65.7193,335.903 62.5,340C 57.2593,339.766 52.0926,338.932 47,337.5C 46.6667,337.833 46.3333,338.167 46,338.5C 42.1437,336.884 38.6437,334.718 35.5,332C 34.8333,330.667 34.1667,329.333 33.5,328C 38.6446,328.758 43.8112,329.592 49,330.5C 52.5757,328.905 56.0757,327.239 59.5,325.5C 54.5192,326.332 49.5192,326.498 44.5,326C 44.0107,323.51 42.6773,321.676 40.5,320.5C 40.4039,326.715 37.9039,327.715 33,323.5C 32.7837,321.616 32.117,319.949 31,318.5C 30.3333,316.833 30.3333,315.167 31,313.5C 32.7322,309.637 34.0656,305.637 35,301.5C 35.6667,302.833 36.3333,302.833 37,301.5C 37.5743,299.508 38.741,298.008 40.5,297C 40.1667,296.667 39.8333,296.333 39.5,296C 42.6786,291.735 46.3452,287.901 50.5,284.5C 56.1668,277.686 63.1668,272.519 71.5,269C 75.3582,266.642 78.3582,263.475 80.5,259.5C 82.4935,257.501 84.8268,256.001 87.5,255C 97.5737,250.753 107.574,247.42 117.5,245C 125.462,243.242 133.462,241.576 141.5,240C 142,239.5 142.5,239 143,238.5C 144.231,239.108 145.564,239.441 147,239.5C 152.073,239.011 157.073,238.344 162,237.5C 174.132,238.43 186.298,239.596 198.5,241C 218.95,244.78 236.45,253.28 251,266.5C 255.669,267.088 259.836,269.254 263.5,273C 266.802,273.661 269.802,274.828 272.5,276.5 Z M 207.5,268.5 C 208.376,268.369 209.043,268.702 209.5,269.5C 208.289,270.72 208.289,271.887 209.5,273C 207.75,282.866 206.25,292.699 205,302.5C 201.876,299.053 198.376,296.887 194.5,296C 192.26,295.023 189.927,294.523 187.5,294.5C 187.5,292.167 187.5,289.833 187.5,287.5C 190.963,286.55 194.463,286.884 198,288.5C 203.511,286.987 205.011,283.82 202.5,279C 197.5,278.667 192.5,278.333 187.5,278C 189.388,276.301 191.388,275.801 193.5,276.5C 194.696,276.154 194.696,275.654 193.5,275C 197.268,274.023 200.768,272.523 204,270.5C 204.414,270.957 204.914,271.291 205.5,271.5C 205.088,270.218 205.754,269.218 207.5,268.5 Z"/></g>
<g><path style="opacity:0.004" fill="#000000" d="M 131.5,233.5 C 130.833,232.167 130.833,232.167 131.5,233.5 Z"/></g>
<g><path style="opacity:0.004" fill="#000000" d="M 205.5,232.5 C 206.833,233.167 206.833,233.167 205.5,232.5 Z"/></g>
<g><path style="opacity:0.004" fill="#000000" d="M 534.5,234.5 C 533.833,233.167 533.833,233.167 534.5,234.5 Z"/></g>
<g><path style="opacity:0.004" fill="#000000" d="M 541.5,234.5 C 540.761,234.631 540.094,234.464 539.5,234C 540.437,233.308 541.103,233.475 541.5,234.5 Z"/></g>
<g><path style="opacity:0.008" fill="#000000" d="M 124.5,235.5 C 123.833,234.167 123.833,234.167 124.5,235.5 Z"/></g>
<g><path style="opacity:0.004" fill="#000000" d="M 221.5,237.5 C 222.833,238.167 222.833,238.167 221.5,237.5 Z"/></g>
<g><path style="opacity:0.004" fill="#000000" d="M 233.5,242.5 C 234.833,243.167 234.833,243.167 233.5,242.5 Z"/></g>
<g><path style="opacity:0.502" fill="#000000" d="M 457.5,274.5 C 455.447,274.402 453.78,275.069 452.5,276.5C 442.178,279.036 432.845,282.369 424.5,286.5C 423.833,286.167 423.167,285.833 422.5,285.5C 417.07,288.096 411.737,289.763 406.5,290.5C 390.296,294.114 373.963,297.28 357.5,300C 342.5,300.667 327.5,300.667 312.5,300C 309.635,299.163 306.802,298.33 304,297.5C 303.667,297.833 303.333,298.167 303,298.5C 300.667,297.5 298.333,296.5 296,295.5C 289.35,295.506 282.684,294.506 276,292.5C 274.674,292.245 273.674,291.578 273,290.5C 272.667,290.833 272.333,291.167 272,291.5C 268.561,289.198 265.061,287.865 261.5,287.5C 259.098,285.376 256.098,283.043 252.5,280.5C 251.833,280.833 251.167,281.167 250.5,281.5C 249.304,281.154 249.304,280.654 250.5,280C 249.906,279.536 249.239,279.369 248.5,279.5C 247.05,276.215 244.717,273.715 241.5,272C 240.216,271.316 239.049,271.483 238,272.5C 237.121,269.654 235.454,268.987 233,270.5C 231.933,269.057 230.766,267.724 229.5,266.5C 230.438,265.447 231.605,264.78 233,264.5C 241.383,266.234 248.216,270.401 253.5,277C 256.952,277.892 259.952,279.558 262.5,282C 277.864,286.924 293.531,290.757 309.5,293.5C 314.243,293.72 319.243,294.387 324.5,295.5C 331.363,295.482 338.197,295.482 345,295.5C 350.6,294.854 356.1,294.187 361.5,293.5C 396.668,288.364 430.168,279.03 462,265.5C 463,265.833 464,266.167 465,266.5C 479.513,260.666 494.846,255.666 511,251.5C 511.945,251.095 512.612,250.428 513,249.5C 513.333,249.833 513.667,250.167 514,250.5C 519.036,249.021 524.203,248.021 529.5,247.5C 534.257,247.049 535.257,248.549 532.5,252C 528.68,252.235 525.013,253.068 521.5,254.5C 525.951,256.455 526.284,258.622 522.5,261C 518.498,261.563 516.831,259.73 517.5,255.5C 496.9,261.385 476.9,267.718 457.5,274.5 Z"/></g>
<g><path style="opacity:0.618" fill="#000000" d="M 92.5,256.5 C 98.7764,260.646 105.11,264.813 111.5,269C 114.424,269.988 117.424,270.654 120.5,271C 121.767,272.796 121.767,274.629 120.5,276.5C 118.235,277.647 115.902,277.814 113.5,277C 104.903,273.45 97.4032,268.283 91,261.5C 90.3872,259.505 90.8872,257.838 92.5,256.5 Z"/></g>
<g><path style="opacity:0.666" fill="#000000" d="M 216.5,291.5 C 215.532,295.689 214.699,300.356 214,305.5C 211.232,311.172 206.732,313.006 200.5,311C 195.388,307.833 189.888,305.333 184,303.5C 181.707,305.87 178.874,307.203 175.5,307.5C 175.346,304.781 175.346,301.781 175.5,298.5C 176.833,298.167 176.833,297.833 175.5,297.5C 176.298,295.114 177.298,292.78 178.5,290.5C 177.098,289.158 177.431,288.324 179.5,288C 178.167,285.667 178.167,283.333 179.5,281C 178.743,279.488 177.743,278.154 176.5,277C 176.833,276.667 177.167,276.333 177.5,276C 176.566,272.51 175.566,269.01 174.5,265.5C 175.945,265.259 177.612,264.592 179.5,263.5C 182.81,264.143 184.81,266.143 185.5,269.5C 191.718,266.584 198.384,263.75 205.5,261C 209.117,259.981 212.617,259.481 216,259.5C 217.617,260.536 217.784,261.703 216.5,263C 217.218,265.461 217.885,267.961 218.5,270.5C 217.573,276.843 216.573,283.177 215.5,289.5C 215.863,290.183 216.196,290.85 216.5,291.5 Z M 207.5,268.5 C 205.754,269.218 205.088,270.218 205.5,271.5C 204.914,271.291 204.414,270.957 204,270.5C 200.768,272.523 197.268,274.023 193.5,275C 194.696,275.654 194.696,276.154 193.5,276.5C 191.388,275.801 189.388,276.301 187.5,278C 192.5,278.333 197.5,278.667 202.5,279C 205.011,283.82 203.511,286.987 198,288.5C 194.463,286.884 190.963,286.55 187.5,287.5C 187.5,289.833 187.5,292.167 187.5,294.5C 189.927,294.523 192.26,295.023 194.5,296C 198.376,296.887 201.876,299.053 205,302.5C 206.25,292.699 207.75,282.866 209.5,273C 208.289,271.887 208.289,270.72 209.5,269.5C 209.043,268.702 208.376,268.369 207.5,268.5 Z"/></g>
<g><path style="opacity:0.441" fill="#000000" d="M 501.5,261.5 C 503.844,261.506 505.178,262.673 505.5,265C 505.612,266.662 504.946,267.829 503.5,268.5C 499.148,267.119 498.482,264.786 501.5,261.5 Z"/></g>
<g><path style="opacity:0.004" fill="#000000" d="M 49.5,270.5 C 50.8333,271.167 50.8333,271.167 49.5,270.5 Z"/></g>
<g><path style="opacity:0.559" fill="#000000" d="M 475.5,270.5 C 478.916,269.894 481.582,270.894 483.5,273.5C 482.052,278.593 479.219,279.593 475,276.5C 474.82,274.512 474.986,272.512 475.5,270.5 Z"/></g>
<g><path style="opacity:0.004" fill="#000000" d="M 49.5,271.5 C 48.9976,273.085 47.9976,273.585 46.5,273C 47.2438,271.961 48.2438,271.461 49.5,271.5 Z"/></g>
<g><path style="opacity:0.004" fill="#000000" d="M 533.5,276.5 C 533.833,276.5 534.167,276.5 534.5,276.5C 534.315,277.17 533.981,277.17 533.5,276.5 Z"/></g>
<g><path style="opacity:0.627" fill="#000000" d="M 95.5,279.5 C 98.8097,279.461 101.476,280.794 103.5,283.5C 106.289,281.702 109.289,281.202 112.5,282C 114.028,284.881 113.362,287.214 110.5,289C 107.821,290.339 105.321,291.173 103,291.5C 97.6865,289.198 95.1865,285.198 95.5,279.5 Z"/></g>
<g><path style="opacity:0.617" fill="#000000" d="M 447.5,280.5 C 453.113,279.079 455.28,281.079 454,286.5C 451.419,290.057 448.419,290.39 445,287.5C 444.505,285.527 444.338,283.527 444.5,281.5C 445.791,281.737 446.791,281.404 447.5,280.5 Z"/></g>
<g><path style="opacity:0.004" fill="#000000" d="M 526.5,281.5 C 526.833,281.5 527.167,281.5 527.5,281.5C 527.315,282.17 526.981,282.17 526.5,281.5 Z"/></g>
<g><path style="opacity:0.012" fill="#000000" d="M 517.5,286.5 C 518.833,287.167 518.833,287.167 517.5,286.5 Z"/></g>
<g><path style="opacity:0.008" fill="#000000" d="M 516.5,287.5 C 516.833,287.5 517.167,287.5 517.5,287.5C 517.315,288.17 516.981,288.17 516.5,287.5 Z"/></g>
<g><path style="opacity:0.624" fill="#000000" d="M 415.5,289.5 C 420.746,290.826 422.412,293.992 420.5,299C 415.968,301.101 412.635,299.934 410.5,295.5C 410.68,294.446 411.013,293.446 411.5,292.5C 413.332,291.943 414.665,290.943 415.5,289.5 Z"/></g>
<g><path style="opacity:0.004" fill="#000000" d="M 32.5,292.5 C 31.8333,291.167 31.8333,291.167 32.5,292.5 Z"/></g>
<g><path style="opacity:0.679" fill="#000000" d="M 248.5,293.5 C 255.334,292.184 257.834,294.851 256,301.5C 253.315,305.019 250.315,305.352 247,302.5C 246.068,299.177 246.568,296.177 248.5,293.5 Z"/></g>
<g><path style="opacity:0.616" fill="#000000" d="M 381.5,298.5 C 388.145,297.977 389.811,300.477 386.5,306C 382.641,308.379 379.975,307.379 378.5,303C 378.957,301.06 379.957,299.56 381.5,298.5 Z"/></g>
<g><path style="opacity:0.649" fill="#000000" d="M 279.5,300.5 C 288.326,299.793 290.993,303.293 287.5,311C 279.238,312.013 276.571,308.513 279.5,300.5 Z"/></g>
<g><path style="opacity:0.604" fill="#000000" d="M 347.5,302.5 C 354.774,300.63 358.274,303.297 358,310.5C 354.72,312.891 351.22,313.058 347.5,311C 346.321,308.204 346.321,305.371 347.5,302.5 Z"/></g>
<g><path style="opacity:0.644" fill="#000000" d="M 314.5,304.5 C 319.745,303.843 322.745,306.176 323.5,311.5C 317.613,317.61 313.946,316.443 312.5,308C 312.862,306.566 313.528,305.399 314.5,304.5 Z"/></g>
<g><path style="opacity:0.004" fill="#000000" d="M 454.5,328.5 C 455.833,329.167 455.833,329.167 454.5,328.5 Z"/></g>
<g><path style="opacity:0.004" fill="#000000" d="M 446.5,333.5 C 447.833,334.167 447.833,334.167 446.5,333.5 Z"/></g>
<g><path style="opacity:0.008" fill="#000000" d="M 166.5,343.5 C 167.833,344.167 167.833,344.167 166.5,343.5 Z"/></g>
<g><path style="opacity:0.004" fill="#000000" d="M 36.5,344.5 C 35.8333,345.167 35.8333,345.167 36.5,344.5 Z"/></g>
<g><path style="opacity:0.004" fill="#000000" d="M 160.5,345.5 C 161.833,346.167 161.833,346.167 160.5,345.5 Z"/></g>
</svg>
