<?xml version="1.0" encoding="UTF-8"?>
<!DOCTYPE svg PUBLIC "-//W3C//DTD SVG 1.1//EN" "http://www.w3.org/Graphics/SVG/1.1/DTD/svg11.dtd">
<svg xmlns="http://www.w3.org/2000/svg" version="1.1" width="611px" height="611px" style="shape-rendering:geometricPrecision; text-rendering:geometricPrecision; image-rendering:optimizeQuality; fill-rule:evenodd; clip-rule:evenodd" xmlns:xlink="http://www.w3.org/1999/xlink">
<g><path style="opacity:0.653" fill="#000000" d="M 529.5,268.5 C 529.167,267.167 528.833,267.167 528.5,268.5C 526.46,270.177 524.46,271.844 522.5,273.5C 522.167,272.167 521.833,272.167 521.5,273.5C 518.745,274.344 516.079,275.344 513.5,276.5C 513.688,278.103 513.188,279.437 512,280.5C 511.667,280.167 511.333,279.833 511,279.5C 508.667,281.167 506.667,283.167 505,285.5C 504.667,285.167 504.333,284.833 504,284.5C 494.588,293.17 484.255,301.503 473,309.5C 472.667,309.167 472.333,308.833 472,308.5C 465.449,312.772 458.782,316.772 452,320.5C 451.282,319.549 450.449,319.383 449.5,320C 439.278,325.956 429.611,330.956 420.5,335C 421.604,336.131 421.271,336.965 419.5,337.5C 418.158,336.098 417.324,336.431 417,338.5C 416.667,338.167 416.333,337.833 416,337.5C 412.458,338.29 409.458,339.957 407,342.5C 404.556,341.306 402.389,341.806 400.5,344C 395.25,345.391 389.917,346.558 384.5,347.5C 375.928,349.616 367.261,351.616 358.5,353.5C 357.914,353.291 357.414,352.957 357,352.5C 354.539,353.218 352.039,353.885 349.5,354.5C 348.914,354.291 348.414,353.957 348,353.5C 320.377,358.211 292.544,357.377 264.5,351C 260.838,349.61 257.172,348.11 253.5,346.5C 252.833,346.833 252.167,347.167 251.5,347.5C 250.304,347.154 250.304,346.654 251.5,346C 250.551,345.383 249.718,345.549 249,346.5C 246.833,344.5 244.333,343.167 241.5,342.5C 237.04,341.024 232.374,339.858 227.5,339C 226.073,336.631 224.239,336.131 222,337.5C 213.256,331.215 203.423,328.548 192.5,329.5C 188.733,329.547 185.233,330.214 182,331.5C 180.062,330.14 178.396,330.473 177,332.5C 176.439,331.978 175.772,331.645 175,331.5C 170.353,332.776 165.853,334.109 161.5,335.5C 159.214,335.595 157.214,336.262 155.5,337.5C 141.495,340.511 127.495,342.844 113.5,344.5C 102.554,342.998 91.3877,341.664 80,340.5C 76.1266,340.908 72.4599,340.908 69,340.5C 66.6667,341.167 64.3333,341.833 62,342.5C 59.2096,342.156 56.2096,341.489 53,340.5C 44.1543,340.806 35.6543,338.639 27.5,334C 25.3122,331.805 23.4789,329.305 22,326.5C 20.8687,327.604 20.0354,327.271 19.5,325.5C 20.5568,323.234 20.0568,321.234 18,319.5C 15.9877,309.146 17.8211,299.646 23.5,291C 23.1667,290.667 22.8333,290.333 22.5,290C 25.1224,286.375 28.1224,283.042 31.5,280C 31.1667,279.667 30.8333,279.333 30.5,279C 31.5521,277.881 32.7188,277.381 34,277.5C 35.4381,276.1 36.2714,274.433 36.5,272.5C 40.8663,270.319 44.8663,267.485 48.5,264C 52.1667,259 56.5,254.667 61.5,251C 103.869,224.19 150.202,215.523 200.5,225C 208.325,227.097 215.658,229.43 222.5,232C 222.167,232.333 221.833,232.667 221.5,233C 223.854,233.847 226.188,234.68 228.5,235.5C 231.915,237.189 235.415,239.523 239,242.5C 239.333,242.167 239.667,241.833 240,241.5C 242.439,244.059 245.105,246.392 248,248.5C 248.333,248.167 248.667,247.833 249,247.5C 252.991,250.804 257.491,253.304 262.5,255C 263.313,256.803 264.48,258.303 266,259.5C 280.851,267.163 296.685,271.163 313.5,271.5C 328.797,271.803 344.13,271.303 359.5,270C 369.866,268.158 380.2,266.158 390.5,264C 396.101,262.393 401.601,260.56 407,258.5C 409.77,259.47 412.603,258.804 415.5,256.5C 424.911,253.771 434.245,250.937 443.5,248C 443.167,247.667 442.833,247.333 442.5,247C 446.249,246.292 449.916,245.292 453.5,244C 452.66,242.334 453.16,242.167 455,243.5C 455.915,242.672 456.581,241.672 457,240.5C 457.414,240.957 457.914,241.291 458.5,241.5C 467.443,238.12 476.443,235.12 485.5,232.5C 492.91,230.518 500.41,228.851 508,227.5C 515.422,227.867 522.922,227.2 530.5,225.5C 536.125,225.347 541.791,225.68 547.5,226.5C 550.284,222.878 553.284,219.378 556.5,216C 556.167,215.667 555.833,215.333 555.5,215C 559.879,208.798 565.879,205.965 573.5,206.5C 580.623,205.143 585.456,207.809 588,214.5C 589.333,221.164 590.666,227.831 592,234.5C 594.701,258.767 584.868,265.6 562.5,255C 560.28,252.781 558.447,250.281 557,247.5C 552.615,250.89 548.615,254.557 545,258.5C 544.667,258.167 544.333,257.833 544,257.5C 538.96,261.08 534.127,264.747 529.5,268.5 Z M 582.5,248.5 C 581.866,249.947 580.699,250.613 579,250.5C 576.176,249.946 573.343,249.446 570.5,249C 571.863,246.871 571.529,246.371 569.5,247.5C 568.646,246.478 567.646,245.645 566.5,245C 569.513,244.498 572.513,243.998 575.5,243.5C 575.5,241.5 575.5,239.5 575.5,237.5C 572.264,235.827 568.93,234.993 565.5,235C 567.629,233.026 569.962,231.359 572.5,230C 571.167,229 571.167,228 572.5,227C 570.699,226.683 570.366,226.016 571.5,225C 569.671,224.727 568.171,223.893 567,222.5C 565.301,223.406 563.467,223.739 561.5,223.5C 562.263,221.632 563.263,219.965 564.5,218.5C 566.508,216.732 568.674,215.066 571,213.5C 572.333,214.833 573.667,214.833 575,213.5C 576,215.167 577.333,216.5 579,217.5C 579.421,221.645 580.588,225.478 582.5,229C 583.096,232.524 583.096,236.191 582.5,240C 583.308,240.308 583.975,240.808 584.5,241.5C 584.245,243.343 584.078,245.343 584,247.5C 583.617,248.056 583.117,248.389 582.5,248.5 Z M 175.5,230.5 C 179.042,230.187 182.375,230.521 185.5,231.5C 189.582,231.344 193.582,231.844 197.5,233C 205.824,235.982 214.157,238.982 222.5,242C 224.909,243.201 226.909,244.867 228.5,247C 235.383,249.312 241.217,253.145 246,258.5C 250.669,259.088 254.836,261.254 258.5,265C 264.546,266.567 270.213,268.9 275.5,272C 277,272.833 278.167,274 279,275.5C 279.333,275.167 279.667,274.833 280,274.5C 282.333,275.5 284.667,276.5 287,277.5C 288.016,276.366 288.683,276.699 289,278.5C 289.667,277.833 290.333,277.167 291,276.5C 295.588,277.553 300.088,278.553 304.5,279.5C 321.29,280.635 338.29,280.635 355.5,279.5C 355.833,280.833 356.167,280.833 356.5,279.5C 359.119,279.003 361.953,279.003 365,279.5C 366.054,277.246 367.554,276.913 369.5,278.5C 394.869,273.288 419.369,266.288 443,257.5C 445.078,258.943 445.911,258.276 445.5,255.5C 450.961,255.272 455.961,253.606 460.5,250.5C 461.086,250.709 461.586,251.043 462,251.5C 464.759,249.202 467.926,247.536 471.5,246.5C 472.801,247.478 473.968,247.145 475,245.5C 490.313,240.753 505.813,238.086 521.5,237.5C 530.618,235.363 539.618,235.196 548.5,237C 550.767,238.081 550.934,239.581 549,241.5C 547.89,243.037 546.39,243.703 544.5,243.5C 540.932,246.496 536.932,249.663 532.5,253C 531.552,253.483 530.552,253.649 529.5,253.5C 528.922,252.453 528.256,252.62 527.5,254C 527.728,254.399 528.062,254.565 528.5,254.5C 521.991,259.829 514.658,264.829 506.5,269.5C 497.739,276.526 489.073,283.526 480.5,290.5C 478.436,292.589 476.103,294.256 473.5,295.5C 472.564,296.974 471.23,297.974 469.5,298.5C 448.973,308.763 427.64,319.43 405.5,330.5C 387.451,335.561 368.618,339.894 349,343.5C 346.768,342.813 344.602,342.479 342.5,342.5C 326.067,344.633 309.734,345.466 293.5,345C 277.998,344.212 262.665,340.546 247.5,334C 242.021,333.507 236.854,332.007 232,329.5C 231.667,329.833 231.333,330.167 231,330.5C 230,329.167 229,327.833 228,326.5C 226.286,327.925 224.953,327.592 224,325.5C 223.667,325.833 223.333,326.167 223,326.5C 217.518,323.669 211.685,321.836 205.5,321C 188.226,319.008 172.059,321.174 157,327.5C 150.576,328.645 144.409,330.479 138.5,333C 130.246,333.885 122.079,335.052 114,336.5C 95.3265,332.98 76.4931,331.647 57.5,332.5C 52.5,331.667 47.5,330.833 42.5,330C 53.5162,328.399 64.5162,326.732 75.5,325C 76.8333,323.667 76.8333,322.333 75.5,321C 71.5,320.333 67.5,320.333 63.5,321C 54.3172,322.421 45.1506,323.921 36,325.5C 31.9172,325.718 29.4172,323.884 28.5,320C 34.0384,321.289 39.7051,321.622 45.5,321C 48.3454,320.992 50.3454,319.825 51.5,317.5C 47.7956,317.724 44.129,317.89 40.5,318C 39.1741,315.842 37.5075,314.008 35.5,312.5C 34.5481,314.045 34.2148,315.712 34.5,317.5C 31.9556,317.896 29.7889,317.229 28,315.5C 27.0187,313.04 26.1854,310.54 25.5,308C 27.1386,303.219 28.6386,298.386 30,293.5C 30.9138,294.654 31.7471,294.487 32.5,293C 32.1667,292.667 31.8333,292.333 31.5,292C 32.6364,290.855 33.6364,289.688 34.5,288.5C 34.3284,287.508 34.6618,286.842 35.5,286.5C 38.7906,283.175 42.1239,279.842 45.5,276.5C 52.6581,268.903 60.9914,262.736 70.5,258C 72.5269,255.906 74.1935,253.573 75.5,251C 78.2296,248.796 81.2296,247.463 84.5,247C 81.6167,250.701 82.6167,252.035 87.5,251C 88.3802,249.644 88.7135,248.144 88.5,246.5C 87.448,246.649 86.448,246.483 85.5,246C 93.3331,242.992 101.166,240.159 109,237.5C 109.772,237.645 110.439,237.978 111,238.5C 113.168,236.545 115.502,235.879 118,236.5C 124.787,234.31 131.453,231.976 138,229.5C 140,230.167 142,230.833 144,231.5C 148.102,229.867 152.435,228.867 157,228.5C 163.266,229.149 169.433,229.815 175.5,230.5 Z M 200.5,291.5 C 200.649,292.552 200.483,293.552 200,294.5C 195.093,289.796 189.259,286.796 182.5,285.5C 182.5,283.5 182.5,281.5 182.5,279.5C 185.963,278.55 189.463,278.884 193,280.5C 198.511,278.987 200.011,275.82 197.5,271C 192.5,270.667 187.5,270.333 182.5,270C 187.425,267.305 192.925,264.805 199,262.5C 199.333,262.833 199.667,263.167 200,263.5C 200.7,261.968 201.866,260.968 203.5,260.5C 203.723,261.967 204.056,263.467 204.5,265C 202.254,274.184 200.92,283.017 200.5,291.5 Z"/></g>
<g><path style="opacity:0.004" fill="#000000" d="M 485.5,232.5 C 484.833,231.167 484.833,231.167 485.5,232.5 Z"/></g>
<g><path style="opacity:0.004" fill="#000000" d="M 228.5,234.5 C 229.833,235.167 229.833,235.167 228.5,234.5 Z"/></g>
<g><path style="opacity:0.504" fill="#000000" d="M 401.5,282.5 C 399.585,282.216 397.919,282.549 396.5,283.5C 387.244,285.448 377.91,286.948 368.5,288C 369.696,288.654 369.696,289.154 368.5,289.5C 366.261,287.88 364.427,288.213 363,290.5C 360.978,289.009 359.312,289.342 358,291.5C 355.708,290.092 353.541,290.259 351.5,292C 337.5,292.667 323.5,292.667 309.5,292C 306.077,290.096 302.41,289.263 298.5,289.5C 296.172,288.282 293.672,287.282 291,286.5C 290.333,287.167 289.667,287.833 289,288.5C 284.578,286.619 279.911,285.285 275,284.5C 273.16,285.833 272.66,285.666 273.5,284C 271.888,283.28 270.388,283.446 269,284.5C 268.683,282.699 268.016,282.366 267,283.5C 263.561,281.198 260.061,279.865 256.5,279.5C 254.255,279.459 253.588,278.625 254.5,277C 251.763,275.936 249.263,274.436 247,272.5C 246.228,272.645 245.561,272.978 245,273.5C 244.722,272.584 244.222,271.918 243.5,271.5C 242.05,268.215 239.717,265.715 236.5,264C 235.216,263.316 234.049,263.483 233,264.5C 232.121,261.654 230.454,260.987 228,262.5C 227.29,261.027 226.124,260.36 224.5,260.5C 224.167,257.5 225.5,256.167 228.5,256.5C 236.545,258.361 243.211,262.528 248.5,269C 252.207,269.936 255.374,271.769 258,274.5C 275.99,279.167 294.49,283.167 313.5,286.5C 323.659,286.606 333.992,286.439 344.5,286C 372.69,283.433 399.524,277.933 425,269.5C 425.354,267.193 426.354,266.859 428,268.5C 439.027,265.007 449.527,261.341 459.5,257.5C 474.196,252.791 489.696,248.124 506,243.5C 507.011,243.108 507.511,242.441 507.5,241.5C 508.086,241.709 508.586,242.043 509,242.5C 515.302,240.408 521.802,239.408 528.5,239.5C 528.703,241.39 528.037,242.89 526.5,244C 522.963,244.145 519.629,244.978 516.5,246.5C 519.606,248.459 519.94,250.626 517.5,253C 513.498,253.563 511.831,251.73 512.5,247.5C 502.178,249.587 492.345,252.92 483,257.5C 482.667,257.167 482.333,256.833 482,256.5C 476.094,259.135 469.927,260.968 463.5,262C 462.874,262.75 462.374,263.584 462,264.5C 461.439,263.978 460.772,263.645 460,263.5C 439.534,271.032 420.034,277.365 401.5,282.5 Z"/></g>
<g><path style="opacity:0.59" fill="#000000" d="M 103.5,250.5 C 110.138,250.261 116.638,250.927 123,252.5C 123.333,252.167 123.667,251.833 124,251.5C 125.813,253.397 128.147,255.397 131,257.5C 131.613,261.897 129.613,264.231 125,264.5C 123.802,261.634 121.635,259.8 118.5,259C 115.158,259.618 111.825,259.118 108.5,257.5C 105.55,258.488 102.55,259.321 99.5,260C 98,260.833 96.8333,262 96,263.5C 95.586,263.043 95.086,262.709 94.5,262.5C 92.0954,263.903 89.9287,265.57 88,267.5C 85.5008,267.184 84.0008,265.851 83.5,263.5C 84.9771,261.361 85.9771,259.028 86.5,256.5C 92.3396,254.735 98.0062,252.735 103.5,250.5 Z"/></g>
<g><path style="opacity:0.649" fill="#000000" d="M 211.5,283.5 C 210.64,287.374 209.806,291.708 209,296.5C 206.797,303.11 202.297,305.277 195.5,303C 190.186,300.116 184.686,297.616 179,295.5C 170.532,302.447 167.532,300.447 170,289.5C 172.486,284.248 173.653,278.915 173.5,273.5C 170.863,268.008 169.863,262.341 170.5,256.5C 172.792,255.691 174.959,255.357 177,255.5C 178.423,257.345 179.59,259.345 180.5,261.5C 188.566,257.226 197.399,253.892 207,251.5C 208.451,252.355 209.951,252.522 211.5,252C 213.444,261.407 213.11,271.074 210.5,281C 211.252,281.671 211.586,282.504 211.5,283.5 Z M 200.5,291.5 C 200.92,283.017 202.254,274.184 204.5,265C 204.056,263.467 203.723,261.967 203.5,260.5C 201.866,260.968 200.7,261.968 200,263.5C 199.667,263.167 199.333,262.833 199,262.5C 192.925,264.805 187.425,267.305 182.5,270C 187.5,270.333 192.5,270.667 197.5,271C 200.011,275.82 198.511,278.987 193,280.5C 189.463,278.884 185.963,278.55 182.5,279.5C 182.5,281.5 182.5,283.5 182.5,285.5C 189.259,286.796 195.093,289.796 200,294.5C 200.483,293.552 200.649,292.552 200.5,291.5 Z"/></g>
<g><path style="opacity:0.44" fill="#000000" d="M 496.5,253.5 C 498.844,253.506 500.178,254.673 500.5,257C 500.612,258.662 499.946,259.829 498.5,260.5C 494.148,259.119 493.482,256.786 496.5,253.5 Z"/></g>
<g><path style="opacity:0.004" fill="#000000" d="M 415.5,256.5 C 414.833,255.167 414.833,255.167 415.5,256.5 Z"/></g>
<g><path style="opacity:0.558" fill="#000000" d="M 470.5,262.5 C 473.916,261.894 476.582,262.894 478.5,265.5C 477.052,270.593 474.219,271.593 470,268.5C 469.82,266.512 469.986,264.512 470.5,262.5 Z"/></g>
<g><path style="opacity:0.004" fill="#000000" d="M 41.5,263.5 C 44.0009,263.511 44.1676,264.178 42,265.5C 41.5357,264.906 41.369,264.239 41.5,263.5 Z"/></g>
<g><path style="opacity:0.664" fill="#000000" d="M 114.5,281.5 C 114.217,282.289 113.717,282.956 113,283.5C 111.605,282.57 110.105,282.57 108.5,283.5C 101.2,281.424 99.5334,276.591 103.5,269C 102.542,267.853 102.875,266.853 104.5,266C 109.614,263.207 113.447,264.374 116,269.5C 116.333,269.167 116.667,268.833 117,268.5C 118.257,273.424 117.423,277.757 114.5,281.5 Z"/></g>
<g><path style="opacity:0.004" fill="#000000" d="M 528.5,268.5 C 528.833,268.5 529.167,268.5 529.5,268.5C 529.315,269.17 528.981,269.17 528.5,268.5 Z"/></g>
<g><path style="opacity:0.617" fill="#000000" d="M 442.5,272.5 C 448.113,271.079 450.28,273.079 449,278.5C 446.419,282.057 443.419,282.39 440,279.5C 439.505,277.527 439.338,275.527 439.5,273.5C 440.791,273.737 441.791,273.404 442.5,272.5 Z"/></g>
<g><path style="opacity:0.004" fill="#000000" d="M 521.5,273.5 C 521.833,273.5 522.167,273.5 522.5,273.5C 522.315,274.17 521.981,274.17 521.5,273.5 Z"/></g>
<g><path style="opacity:0.579" fill="#000000" d="M 410.5,281.5 C 415.534,281.89 417.367,284.556 416,289.5C 411.423,293.168 407.59,292.334 404.5,287C 405.166,283.543 407.166,281.709 410.5,281.5 Z"/></g>
<g><path style="opacity:0.615" fill="#000000" d="M 243.5,284.5 C 250.672,283.49 253.172,286.49 251,293.5C 248.315,297.019 245.315,297.352 242,294.5C 241.037,290.851 241.537,287.518 243.5,284.5 Z"/></g>
<g><path style="opacity:0.576" fill="#000000" d="M 376.5,289.5 C 380.789,288.483 383.122,290.15 383.5,294.5C 380.364,300.724 377.03,300.89 373.5,295C 374.339,293.016 375.339,291.183 376.5,289.5 Z"/></g>
<g><path style="opacity:0.649" fill="#000000" d="M 274.5,292.5 C 283.326,291.793 285.993,295.293 282.5,303C 274.238,304.013 271.571,300.513 274.5,292.5 Z"/></g>
<g><path style="opacity:0.004" fill="#000000" d="M 19.5,293.5 C 20.8333,294.167 20.8333,294.167 19.5,293.5 Z"/></g>
<g><path style="opacity:0.599" fill="#000000" d="M 342.5,294.5 C 349.774,292.63 353.274,295.297 353,302.5C 349.692,304.993 346.192,305.159 342.5,303C 341.321,300.204 341.321,297.371 342.5,294.5 Z"/></g>
<g><path style="opacity:0.644" fill="#000000" d="M 309.5,296.5 C 314.745,295.843 317.745,298.176 318.5,303.5C 312.613,309.61 308.946,308.443 307.5,300C 307.862,298.566 308.528,297.399 309.5,296.5 Z"/></g>
<g><path style="opacity:0.004" fill="#000000" d="M 161.5,335.5 C 162.833,336.167 162.833,336.167 161.5,335.5 Z"/></g>
<g><path style="opacity:0.004" fill="#000000" d="M 155.5,337.5 C 156.833,338.167 156.833,338.167 155.5,337.5 Z"/></g>
<g><path style="opacity:0.008" fill="#000000" d="M 241.5,342.5 C 240.833,343.167 240.833,343.167 241.5,342.5 Z"/></g>
<g><path style="opacity:0.004" fill="#000000" d="M 384.5,347.5 C 385.833,348.167 385.833,348.167 384.5,347.5 Z"/></g>
</svg>
