<?xml version="1.0" standalone="no"?>
<!DOCTYPE svg PUBLIC "-//W3C//DTD SVG 20010904//EN"
 "http://www.w3.org/TR/2001/REC-SVG-20010904/DTD/svg10.dtd">
<svg version="1.0" xmlns="http://www.w3.org/2000/svg"
 width="611.000000pt" height="611.000000pt" viewBox="0 0 611.000000 611.000000"
 preserveAspectRatio="xMidYMid meet">

<g transform="translate(0.000000,611.000000) scale(0.100000,-0.100000)"
fill="#000000" stroke="none">
<path d="M5715 3932 c-36 -17 -96 -83 -145 -160 -14 -21 -22 -23 -175 -27 -88
-2 -173 -7 -190 -10 -16 -2 -52 -7 -80 -10 -175 -19 -343 -69 -630 -185 -253
-103 -615 -199 -874 -233 -177 -22 -647 -8 -696 21 -5 4 -18 8 -28 9 -31 5
-207 91 -207 102 0 5 -28 24 -62 41 -72 37 -123 67 -211 127 -34 23 -82 52
-107 64 -70 32 -239 85 -300 94 -30 4 -64 9 -75 11 -11 1 -96 6 -188 10 -176
7 -342 -5 -447 -33 -226 -59 -263 -70 -351 -108 -164 -70 -220 -107 -365 -240
-267 -245 -285 -266 -324 -380 -33 -95 -30 -140 13 -228 42 -86 76 -117 158
-146 30 -10 56 -18 59 -19 123 -12 181 -16 205 -15 155 6 261 4 315 -7 166
-32 386 -11 636 60 218 62 323 77 429 62 99 -15 149 -30 250 -78 39 -19 81
-34 92 -34 22 0 71 -15 118 -35 83 -37 188 -62 400 -96 59 -9 301 -12 360 -4
17 2 90 7 164 10 74 3 138 8 141 10 3 2 30 6 60 10 30 3 81 12 113 20 32 8 68
15 79 15 12 0 52 9 90 21 38 11 79 22 91 23 43 6 87 19 87 26 0 4 19 13 43 20
23 8 112 50 197 94 85 44 191 98 235 120 171 84 319 183 497 330 87 72 106 86
117 86 6 0 11 4 11 9 0 5 11 11 23 15 13 3 55 30 93 61 38 30 72 55 76 55 13
0 102 63 160 112 60 51 68 55 68 35 0 -25 76 -88 126 -103 127 -38 213 29 201
155 -13 130 -52 280 -79 307 -33 34 -119 41 -173 16z m127 -59 c14 -16 22 -42
32 -93 1 -8 5 -24 9 -35 5 -19 15 -86 22 -152 4 -41 -27 -83 -61 -83 -30 0
-92 25 -116 47 -30 27 -23 44 17 41 45 -3 75 23 55 47 -7 9 -25 15 -39 15 -14
-1 -44 -2 -66 -1 l-40 1 45 26 c63 36 77 64 42 83 -20 11 -65 -7 -99 -39 -32
-29 -48 -9 -21 26 42 56 92 109 112 121 31 18 90 16 108 -4z m-3953 -147 c79
-5 244 -40 266 -56 6 -4 31 -13 58 -20 26 -7 47 -17 47 -21 0 -5 7 -9 17 -9 9
0 31 -11 49 -25 18 -14 36 -25 39 -25 4 0 25 -13 48 -29 142 -99 236 -153 369
-215 162 -76 315 -97 648 -90 252 5 399 27 665 99 183 50 258 74 338 109 21 9
42 16 47 16 6 0 29 9 53 20 81 37 290 111 380 134 136 35 383 66 523 66 97 0
144 -11 144 -32 0 -25 -66 -80 -170 -143 -76 -45 -255 -175 -543 -395 -102
-77 -161 -111 -425 -243 -317 -159 -378 -185 -497 -211 -38 -9 -110 -25 -160
-37 -82 -18 -201 -32 -505 -57 -106 -9 -304 -8 -350 2 -14 3 -63 12 -110 20
-117 20 -130 23 -255 63 -60 19 -126 39 -145 45 -19 6 -53 19 -75 30 -135 65
-304 98 -433 82 -37 -4 -69 -8 -72 -9 -3 -1 -23 -5 -45 -9 -22 -5 -85 -23
-140 -41 -55 -19 -134 -41 -175 -50 -41 -9 -85 -21 -98 -26 -13 -5 -76 -12
-140 -15 -90 -5 -137 -2 -202 11 -47 9 -145 19 -219 21 -74 2 -136 6 -139 8
-5 6 95 80 143 105 55 29 88 27 126 -8 25 -24 36 -28 51 -20 10 5 18 13 18 17
0 10 -80 72 -94 73 -6 0 -21 2 -34 5 -36 6 -156 -64 -214 -125 l-51 -53 -53 6
c-153 18 -207 48 -250 141 -44 93 -23 193 62 305 49 65 250 259 350 340 40 31
94 67 120 79 27 12 56 26 66 31 66 35 482 138 563 139 38 0 71 3 74 6 5 6 184
1 330 -9z"/>
<path d="M5220 3608 c-52 -11 -280 -80 -358 -109 -30 -11 -84 -28 -120 -38
-37 -11 -195 -62 -351 -116 -289 -98 -325 -107 -741 -181 -147 -26 -430 -29
-550 -5 -52 10 -138 27 -190 36 -134 25 -259 62 -300 89 -19 13 -44 26 -55 29
-11 4 -39 25 -62 46 -49 47 -85 67 -136 76 -55 11 -45 -9 12 -24 31 -8 64 -26
90 -50 82 -76 218 -147 321 -167 14 -3 106 -22 205 -42 172 -35 188 -37 365
-35 185 1 253 8 535 57 179 31 294 62 530 143 105 36 219 74 255 86 36 11 142
46 235 78 152 51 309 97 388 114 15 3 25 10 22 15 -7 12 -34 11 -95 -2z"/>
<path d="M5197 3537 c-3 -8 -2 -20 3 -27 11 -18 42 -4 38 17 -4 22 -34 29 -41
10z"/>
<path d="M927 3516 c-3 -7 15 -33 41 -58 93 -89 220 -145 236 -103 9 24 1 32
-42 39 -21 3 -57 19 -80 36 -23 16 -44 30 -48 30 -3 0 -25 16 -48 35 -48 39
-52 41 -59 21z"/>
<path d="M2100 3493 c-33 -5 -70 -19 -154 -60 -80 -38 -102 -41 -111 -13 -8
25 -37 41 -54 31 -11 -7 -11 -18 -1 -57 24 -98 24 -180 0 -245 -20 -55 -20
-99 -1 -99 5 0 20 10 35 21 l27 21 92 -41 c107 -48 159 -53 181 -18 29 45 67
315 56 401 -6 44 -31 65 -70 59z m1 -238 c-5 -22 -13 -67 -16 -100 -4 -33 -12
-65 -17 -71 -6 -9 -33 0 -96 32 -47 24 -93 44 -100 44 -10 0 -12 10 -8 38 3
20 5 39 6 41 0 2 30 1 66 -2 57 -4 69 -2 86 15 33 33 8 48 -78 48 -64 0 -74 2
-74 18 0 18 105 71 191 96 l44 13 3 -66 c2 -36 -1 -84 -7 -106z"/>
<path d="M5022 3468 c-18 -18 -14 -28 8 -28 11 0 20 6 20 14 0 21 -15 27 -28
14z"/>
<path d="M4764 3375 c-9 -23 3 -45 25 -45 22 0 41 27 34 48 -6 17 -52 15 -59
-3z"/>
<path d="M970 3279 c0 -28 52 -79 76 -74 10 2 27 4 37 4 9 1 26 10 38 22 19
19 19 23 6 36 -12 13 -20 13 -50 2 -31 -11 -38 -10 -65 9 -37 27 -42 27 -42 1z"/>
<path d="M4477 3283 c-13 -3 -17 -12 -15 -31 2 -22 9 -28 35 -30 24 -2 34 2
43 18 20 37 -9 57 -63 43z"/>
<path d="M4143 3190 c-33 -13 -31 -58 1 -66 14 -3 32 -4 42 -2 23 4 28 43 8
62 -17 18 -20 18 -51 6z"/>
<path d="M2486 3154 c-30 -30 -13 -74 29 -74 27 0 45 18 45 45 0 42 -44 59
-74 29z"/>
<path d="M3817 3102 c-24 -26 -12 -52 24 -52 33 0 48 23 32 49 -15 23 -37 24
-56 3z"/>
<path d="M2812 3088 c-33 -33 11 -98 58 -83 23 7 28 56 8 73 -23 17 -54 22
-66 10z"/>
<path d="M3489 3057 c-16 -35 -6 -54 31 -62 72 -16 79 62 7 80 -22 6 -28 3
-38 -18z"/>
<path d="M3146 3045 c-16 -17 -12 -39 12 -68 16 -18 50 -15 64 6 9 14 -17 63
-37 71 -22 8 -21 8 -39 -9z"/>
</g>
</svg>
