<?xml version="1.0" encoding="UTF-8"?>
<!DOCTYPE svg PUBLIC "-//W3C//DTD SVG 1.1//EN" "http://www.w3.org/Graphics/SVG/1.1/DTD/svg11.dtd">
<svg xmlns="http://www.w3.org/2000/svg" version="1.1" width="611px" height="611px" style="shape-rendering:geometricPrecision; text-rendering:geometricPrecision; image-rendering:optimizeQuality; fill-rule:evenodd; clip-rule:evenodd" xmlns:xlink="http://www.w3.org/1999/xlink">
<g><path style="opacity:0.272" fill="#000000" d="M 222.5,-0.5 C 225.833,-0.5 229.167,-0.5 232.5,-0.5C 232.389,0.117425 232.056,0.617425 231.5,1C 228.833,1.66667 226.167,1.66667 223.5,1C 222.944,0.617425 222.611,0.117425 222.5,-0.5 Z"/></g>
<g><path style="opacity:0.661" fill="#000000" d="M 517.5,270.5 C 517.103,269.475 516.437,269.308 515.5,270C 514.122,271.713 512.455,273.047 510.5,274C 511.654,274.914 511.487,275.747 510,276.5C 508.75,275.427 507.416,275.427 506,276.5C 504.629,277.581 503.129,278.415 501.5,279C 501.167,280 500.833,281 500.5,282C 498.5,282.667 496.5,283.333 494.5,284C 495.833,284.667 495.833,285.333 494.5,286C 492.5,287 490.5,288 488.5,289C 489.833,289.667 489.833,290.333 488.5,291C 477.304,299.528 466.971,306.861 457.5,313C 451.375,315.802 445.542,318.968 440,322.5C 439.282,321.549 438.449,321.383 437.5,322C 430.705,325.75 424.039,329.584 417.5,333.5C 417.167,332.167 416.833,332.167 416.5,333.5C 412.883,334.862 409.717,336.862 407,339.5C 406.023,338.226 405.189,338.226 404.5,339.5C 401.546,340.428 398.546,341.261 395.5,342C 396.604,343.131 396.271,343.965 394.5,344.5C 392.234,343.443 390.234,343.943 388.5,346C 379.237,347.66 369.57,349.993 359.5,353C 333.082,357.172 306.415,358.838 279.5,358C 269.858,356.173 260.192,354.506 250.5,353C 246.603,351.981 242.936,350.481 239.5,348.5C 239.158,347.662 238.492,347.328 237.5,347.5C 237.167,346.167 236.833,346.167 236.5,347.5C 230.234,344.379 223.567,342.379 216.5,341.5C 214.997,340.477 213.497,339.477 212,338.5C 210.132,339.71 208.632,339.21 207.5,337C 204.193,335.716 200.859,334.383 197.5,333C 195.19,332.503 192.857,332.337 190.5,332.5C 183.667,331.455 176.667,331.455 169.5,332.5C 163.107,333.589 156.441,335.089 149.5,337C 150.696,337.654 150.696,338.154 149.5,338.5C 144.13,338.468 138.964,339.802 134,342.5C 132.286,341.075 130.953,341.408 130,343.5C 129.107,342.919 128.107,342.585 127,342.5C 120.791,343.696 114.624,345.029 108.5,346.5C 102.496,346.944 96.4959,346.277 90.5,344.5C 89.1055,344.621 87.7722,344.954 86.5,345.5C 83.7631,343.898 80.7631,343.064 77.5,343C 68.5887,342.425 60.2554,342.592 52.5,343.5C 50.8129,343.24 49.3129,342.573 48,341.5C 45.316,334.612 42.816,327.612 40.5,320.5C 39.109,321.645 37.7757,321.645 36.5,320.5C 38.6317,319.402 40.7984,318.402 43,317.5C 47.6782,318.671 52.3449,320.004 57,321.5C 57.5,321.167 58,320.833 58.5,320.5C 56.878,317.043 55.878,313.376 55.5,309.5C 56.3483,306.825 58.1816,305.491 61,305.5C 64.868,307.433 68.868,309.099 73,310.5C 74.377,306.529 73.377,305.196 70,306.5C 68.276,306.045 66.776,305.212 65.5,304C 64.856,301.26 63.6893,298.76 62,296.5C 57.9303,298.234 54.097,300.4 50.5,303C 47.4819,303.573 45.3152,302.406 44,299.5C 43.7031,296.086 43.0365,292.753 42,289.5C 37.6233,292.529 32.9567,295.196 28,297.5C 26.1387,296.391 25.3053,294.725 25.5,292.5C 25.2837,287.029 25.9503,281.529 27.5,276C 27.1667,275.667 26.8333,275.333 26.5,275C 33.9301,268.516 40.9301,261.516 47.5,254C 59.6903,246.571 72.0236,240.405 84.5,235.5C 87.7081,235.526 89.7081,234.526 90.5,232.5C 92.4461,234.087 93.9461,233.754 95,231.5C 104.465,229.553 114.131,227.22 124,224.5C 124.333,224.833 124.667,225.167 125,225.5C 132.752,224.366 140.418,223.7 148,223.5C 161.582,223.862 175.082,225.028 188.5,227C 195.35,228.827 201.85,231.327 208,234.5C 209.84,233.167 210.34,233.334 209.5,235C 211.854,235.847 214.188,236.68 216.5,237.5C 217.52,238.954 218.687,239.287 220,238.5C 221.487,239.253 221.654,240.086 220.5,241C 222.329,241.273 223.829,242.107 225,243.5C 225.333,243.167 225.667,242.833 226,242.5C 226.278,243.416 226.778,244.082 227.5,244.5C 234.542,249.684 242.209,253.85 250.5,257C 251.313,258.803 252.48,260.303 254,261.5C 260.571,264.914 267.404,267.747 274.5,270C 317.502,276.882 359.669,273.382 401,259.5C 401.945,259.095 402.612,258.428 403,257.5C 403.561,258.022 404.228,258.355 405,258.5C 408.254,257.534 411.254,256.201 414,254.5C 414.333,254.833 414.667,255.167 415,255.5C 420.051,252.547 425.551,250.714 431.5,250C 431.167,249.667 430.833,249.333 430.5,249C 434.249,248.292 437.916,247.292 441.5,246C 440.66,244.334 441.16,244.167 443,245.5C 443.915,244.672 444.581,243.672 445,242.5C 445.414,242.957 445.914,243.291 446.5,243.5C 449.572,241.586 452.905,240.252 456.5,239.5C 457.304,237.271 458.637,236.938 460.5,238.5C 464.909,237.013 469.242,235.68 473.5,234.5C 475.857,234.663 478.19,234.497 480.5,234C 485.95,231.344 491.617,230.177 497.5,230.5C 504.078,229.856 510.578,228.856 517,227.5C 522.978,227.664 529.144,227.997 535.5,228.5C 537.507,226.992 539.174,225.158 540.5,223C 540.167,222.667 539.833,222.333 539.5,222C 541.167,220.667 542.833,219.333 544.5,218C 544.167,217.667 543.833,217.333 543.5,217C 550.659,208.622 559.659,206.122 570.5,209.5C 573.134,211.976 575.134,214.81 576.5,218C 575.978,218.561 575.645,219.228 575.5,220C 578.906,230.598 580.072,241.432 579,252.5C 578.145,255.115 576.812,257.448 575,259.5C 566.841,262.589 558.675,261.756 550.5,257C 548.28,254.781 546.447,252.281 545,249.5C 537.991,256.349 530.491,261.682 522.5,265.5C 520.146,266.594 518.479,268.261 517.5,270.5 Z M 558.5,215.5 C 560.01,216.728 561.51,216.728 563,215.5C 564,217.167 565.333,218.5 567,219.5C 568.619,228.95 570.119,238.783 571.5,249C 570.119,250.625 568.452,251.792 566.5,252.5C 563.855,251.892 561.188,251.392 558.5,251C 558.957,250.586 559.291,250.086 559.5,249.5C 558.726,248.289 557.893,248.289 557,249.5C 556.5,248.333 555.667,247.5 554.5,247C 557.513,246.498 560.513,245.998 563.5,245.5C 563.244,243.208 563.577,241.041 564.5,239C 561.671,237.491 558.838,237.325 556,238.5C 555.25,237.874 554.416,237.374 553.5,237C 555.833,235.333 558.167,233.667 560.5,232C 559.167,231 559.167,230 560.5,229C 558.699,228.683 558.366,228.016 559.5,227C 557.671,226.727 556.171,225.893 555,224.5C 553.274,225.576 551.441,225.743 549.5,225C 550.46,223.581 551.293,222.081 552,220.5C 554.326,218.934 556.492,217.268 558.5,215.5 Z M 292.5,281.5 C 310.895,282.746 328.895,282.746 346.5,281.5C 348.388,279.364 350.555,279.364 353,281.5C 353.953,279.408 355.286,279.075 357,280.5C 373.484,276.428 389.651,272.428 405.5,268.5C 423.764,262.955 441.598,256.288 459,248.5C 459.772,248.645 460.439,248.978 461,249.5C 462.997,246.786 465.497,245.786 468.5,246.5C 471.986,244.757 475.652,243.59 479.5,243C 497.557,239.999 515.39,238.165 533,237.5C 534.816,238.329 536.649,239.163 538.5,240C 537.947,241.878 536.947,243.378 535.5,244.5C 534.791,245.404 533.791,245.737 532.5,245.5C 531.746,247.505 530.579,248.172 529,247.5C 528.167,248.5 527.333,249.5 526.5,250.5C 523.231,251.789 520.231,253.456 517.5,255.5C 517.167,254.167 516.833,254.167 516.5,255.5C 508.146,263.345 498.813,269.845 488.5,275C 488.833,275.333 489.167,275.667 489.5,276C 482.249,280.882 475.583,286.382 469.5,292.5C 469.158,293.338 468.492,293.672 467.5,293.5C 465.689,294.767 463.856,296.1 462,297.5C 461.667,297.167 461.333,296.833 461,296.5C 460.276,298.959 458.943,299.959 457,299.5C 455.903,301.053 454.57,302.386 453,303.5C 451.16,302.167 450.66,302.334 451.5,304C 446.555,306.388 441.722,308.888 437,311.5C 435.16,310.167 434.66,310.334 435.5,312C 419.351,320.172 403.018,327.839 386.5,335C 350.828,344.261 315.161,348.261 279.5,347C 254.263,343.926 229.93,336.926 206.5,326C 191.66,322.166 176.66,321.5 161.5,324C 142.141,330.9 122.308,335.733 102,338.5C 89.3361,336.049 76.5028,334.549 63.5,334C 75.9718,322.499 88.8052,311.333 102,300.5C 102.624,298.536 102.124,296.869 100.5,295.5C 81.3017,289.747 61.9683,284.247 42.5,279C 40.1526,278.288 38.1526,277.121 36.5,275.5C 42.5979,269.944 49.2645,265.111 56.5,261C 59.728,256.86 63.3947,253.194 67.5,250C 80.4363,244.333 93.2697,240.5 106,238.5C 111.684,236.609 117.517,235.109 123.5,234C 124.333,233.167 125.167,232.333 126,231.5C 126.689,232.357 127.522,233.023 128.5,233.5C 140.657,230.263 153.324,230.263 166.5,233.5C 182.227,233.899 197.56,237.733 212.5,245C 219.912,249.793 227.079,254.959 234,260.5C 238.669,261.088 242.836,263.254 246.5,267C 254.193,269.563 261.526,272.897 268.5,277C 270.762,277.642 272.929,278.475 275,279.5C 276.016,278.366 276.683,278.699 277,280.5C 282.301,279.562 287.468,279.895 292.5,281.5 Z M 102.5,254.5 C 103.773,255.077 103.773,255.743 102.5,256.5C 101.537,256.03 101.537,255.363 102.5,254.5 Z M 188.5,293.5 C 188.649,294.552 188.483,295.552 188,296.5C 185.911,295.009 183.911,293.342 182,291.5C 181.667,291.833 181.333,292.167 181,292.5C 177.689,289.594 173.856,287.927 169.5,287.5C 169.5,285.5 169.5,283.5 169.5,281.5C 173.385,280.329 177.219,280.663 181,282.5C 186.645,281.356 188.145,278.356 185.5,273.5C 180.5,272.833 175.5,272.167 170.5,271.5C 172.265,269.947 174.098,269.614 176,270.5C 176.317,268.699 176.984,268.366 178,269.5C 181,267.833 184,266.167 187,264.5C 187.333,264.833 187.667,265.167 188,265.5C 188.7,263.968 189.866,262.968 191.5,262.5C 191.735,267.777 191.735,273.277 191.5,279C 191.095,279.945 190.428,280.612 189.5,281C 191.059,283.642 190.725,285.975 188.5,288C 189.807,289.943 189.807,291.777 188.5,293.5 Z M 31.5,280.5 C 33.4714,281.823 35.4714,283.156 37.5,284.5C 35.5781,285.711 33.7448,287.044 32,288.5C 31.5026,285.854 31.3359,283.187 31.5,280.5 Z M 47.5,287.5 C 50.6428,288.207 53.6428,289.373 56.5,291C 54.2202,293.304 51.5536,294.804 48.5,295.5C 47.9084,292.873 47.5751,290.206 47.5,287.5 Z M 68.5,294.5 C 70.5115,295.228 72.5115,296.062 74.5,297C 71.0229,300.404 69.0229,299.571 68.5,294.5 Z M 83.5,299.5 C 85.6547,299.372 87.6547,299.872 89.5,301C 86.9699,302.422 84.3033,302.755 81.5,302C 82.3805,301.292 83.0472,300.458 83.5,299.5 Z M 64.5,314.5 C 66.854,314.838 69.1873,315.338 71.5,316C 69.7071,317.78 68.0404,319.613 66.5,321.5C 65.3652,319.293 64.6985,316.96 64.5,314.5 Z M 49.5,325.5 C 52.8988,326.016 56.2321,326.85 59.5,328C 56.6692,329.583 54.0025,331.416 51.5,333.5C 49.9462,331.067 49.2796,328.4 49.5,325.5 Z"/></g>
<g><path style="opacity:0.004" fill="#000000" d="M 204.5,231.5 C 205.833,232.167 205.833,232.167 204.5,231.5 Z"/></g>
<g><path style="opacity:0.004" fill="#000000" d="M 473.5,234.5 C 472.833,233.167 472.833,233.167 473.5,234.5 Z"/></g>
<g><path style="opacity:0.004" fill="#000000" d="M 84.5,235.5 C 83.8333,234.167 83.8333,234.167 84.5,235.5 Z"/></g>
<g><path style="opacity:0.004" fill="#000000" d="M 216.5,236.5 C 217.833,237.167 217.833,237.167 216.5,236.5 Z"/></g>
<g><path style="opacity:0.501" fill="#000000" d="M 422.5,274.5 C 411.474,278.191 400.474,281.524 389.5,284.5C 387.801,284.34 386.134,284.506 384.5,285C 385.696,285.654 385.696,286.154 384.5,286.5C 383.707,286.069 382.873,285.735 382,285.5C 375.002,287.682 367.836,288.849 360.5,289C 354.112,291.625 347.112,293.292 339.5,294C 324.795,294.464 310.295,294.631 296,294.5C 291.205,292.408 286.705,291.074 282.5,290.5C 280.777,289.193 278.943,289.193 277,290.5C 269.458,288.166 262.624,286.499 256.5,285.5C 256.158,284.662 255.492,284.328 254.5,284.5C 251.659,283.331 248.659,282.331 245.5,281.5C 244.811,280.226 243.977,280.226 243,281.5C 241.198,279.01 238.532,276.677 235,274.5C 233.456,275.024 232.123,275.024 231,274.5C 230.31,272.65 229.144,271.316 227.5,270.5C 228.833,270.167 228.833,269.833 227.5,269.5C 226.086,267.946 224.419,266.612 222.5,265.5C 221.914,265.709 221.414,266.043 221,266.5C 219.856,264.083 218.19,263.416 216,264.5C 215.29,263.027 214.124,262.36 212.5,262.5C 212.147,260.365 212.98,259.032 215,258.5C 220.811,259.989 226.311,262.156 231.5,265C 232.071,266.205 232.738,267.372 233.5,268.5C 237.921,270.792 242.088,273.459 246,276.5C 250.713,277.285 255.547,278.785 260.5,281C 273.776,283.394 286.776,285.728 299.5,288C 311.5,288.667 323.5,288.667 335.5,288C 362.645,285.048 388.479,279.548 413,271.5C 440.26,261.634 467.76,252.801 495.5,245C 494.66,243.334 495.16,243.167 497,244.5C 503.173,242.492 509.34,241.492 515.5,241.5C 516.754,243.259 516.421,244.759 514.5,246C 510.963,246.145 507.629,246.978 504.5,248.5C 507.606,250.459 507.94,252.626 505.5,255C 501.498,255.563 499.831,253.73 500.5,249.5C 488.654,252.395 477.487,256.061 467,260.5C 466.667,260.167 466.333,259.833 466,259.5C 461.409,261.686 456.576,263.186 451.5,264C 450.874,264.75 450.374,265.584 450,266.5C 449.439,265.978 448.772,265.645 448,265.5C 439.429,268.633 430.929,271.633 422.5,274.5 Z"/></g>
<g><path style="opacity:0.004" fill="#000000" d="M 227.5,243.5 C 228.833,244.167 228.833,244.167 227.5,243.5 Z"/></g>
<g><path style="opacity:0.416" fill="#000000" d="M 107.5,244.5 C 113.555,243.942 114.888,246.109 111.5,251C 109.913,251.862 108.246,252.529 106.5,253C 107.337,254.011 107.67,255.178 107.5,256.5C 97.4511,260.601 87.2844,264.601 77,268.5C 73.569,265.914 74.069,263.914 78.5,262.5C 79.4519,260.955 79.7852,259.288 79.5,257.5C 87.7225,253.92 96.0559,250.42 104.5,247C 105.942,246.623 106.942,245.79 107.5,244.5 Z M 102.5,254.5 C 101.537,255.363 101.537,256.03 102.5,256.5C 103.773,255.743 103.773,255.077 102.5,254.5 Z"/></g>
<g><path style="opacity:0.004" fill="#000000" d="M 417.5,252.5 C 418.833,253.167 418.833,253.167 417.5,252.5 Z"/></g>
<g><path style="opacity:0.652" fill="#000000" d="M 166.5,260.5 C 167.074,261.528 167.407,262.528 167.5,263.5C 171.429,261.353 175.096,259.687 178.5,258.5C 180.798,256.729 183.132,255.729 185.5,255.5C 188.697,255.027 191.863,254.361 195,253.5C 196.235,254.615 197.402,254.615 198.5,253.5C 200.488,254.289 200.821,255.455 199.5,257C 200.218,259.461 200.885,261.961 201.5,264.5C 200.573,270.843 199.573,277.177 198.5,283.5C 198.727,285.671 199.06,287.838 199.5,290C 197.834,292.48 197.001,295.313 197,298.5C 194.797,305.11 190.297,307.277 183.5,305C 178.081,302.024 172.414,299.524 166.5,297.5C 164.307,299.721 161.64,301.054 158.5,301.5C 157.796,298.296 157.13,295.129 156.5,292C 158.403,288.861 160.069,285.528 161.5,282C 160.167,279.667 160.167,277.333 161.5,275C 158.749,269.753 157.749,264.253 158.5,258.5C 161.848,257.003 164.514,257.669 166.5,260.5 Z M 188.5,293.5 C 189.807,291.777 189.807,289.943 188.5,288C 190.725,285.975 191.059,283.642 189.5,281C 190.428,280.612 191.095,279.945 191.5,279C 191.735,273.277 191.735,267.777 191.5,262.5C 189.866,262.968 188.7,263.968 188,265.5C 187.667,265.167 187.333,264.833 187,264.5C 184,266.167 181,267.833 178,269.5C 176.984,268.366 176.317,268.699 176,270.5C 174.098,269.614 172.265,269.947 170.5,271.5C 175.5,272.167 180.5,272.833 185.5,273.5C 188.145,278.356 186.645,281.356 181,282.5C 177.219,280.663 173.385,280.329 169.5,281.5C 169.5,283.5 169.5,285.5 169.5,287.5C 173.856,287.927 177.689,289.594 181,292.5C 181.333,292.167 181.667,291.833 182,291.5C 183.911,293.342 185.911,295.009 188,296.5C 188.483,295.552 188.649,294.552 188.5,293.5 Z"/></g>
<g><path style="opacity:0.441" fill="#000000" d="M 484.5,255.5 C 486.844,255.506 488.178,256.673 488.5,259C 488.612,260.662 487.946,261.829 486.5,262.5C 482.148,261.119 481.482,258.786 484.5,255.5 Z"/></g>
<g><path style="opacity:0.477" fill="#000000" d="M 103.5,260.5 C 105.5,260.5 107.5,260.5 109.5,260.5C 109.66,262.199 109.494,263.866 109,265.5C 103.029,270.118 96.5288,273.951 89.5,277C 85.9137,278.108 82.247,278.608 78.5,278.5C 78.2148,276.712 78.5481,275.045 79.5,273.5C 83.3291,272.448 86.3291,270.281 88.5,267C 93.4675,264.474 98.4675,262.307 103.5,260.5 Z"/></g>
<g><path style="opacity:0.54" fill="#000000" d="M 457.5,264.5 C 461.034,264.032 464.034,265.032 466.5,267.5C 464.432,272.466 461.265,273.466 457,270.5C 456.82,268.512 456.986,266.512 457.5,264.5 Z"/></g>
<g><path style="opacity:0.004" fill="#000000" d="M 29.5,265.5 C 32.0009,265.511 32.1676,266.178 30,267.5C 29.5357,266.906 29.369,266.239 29.5,265.5 Z"/></g>
<g><path style="opacity:0.004" fill="#000000" d="M 517.5,270.5 C 516.833,271.167 516.833,271.167 517.5,270.5 Z"/></g>
<g><path style="opacity:0.617" fill="#000000" d="M 430.5,274.5 C 436.113,273.079 438.28,275.079 437,280.5C 434.419,284.057 431.419,284.39 428,281.5C 427.505,279.527 427.338,277.527 427.5,275.5C 428.791,275.737 429.791,275.404 430.5,274.5 Z"/></g>
<g><path style="opacity:0.579" fill="#000000" d="M 397.5,283.5 C 402.85,284.184 404.684,287.184 403,292.5C 398.023,295.267 394.523,293.934 392.5,288.5C 392.68,287.446 393.013,286.446 393.5,285.5C 394.949,284.828 396.282,284.161 397.5,283.5 Z"/></g>
<g><path style="opacity:0.588" fill="#000000" d="M 231.5,286.5 C 238.503,285.673 241.003,288.673 239,295.5C 235.737,299.224 232.404,299.224 229,295.5C 227.927,291.9 228.76,288.9 231.5,286.5 Z"/></g>
<g><path style="opacity:0.617" fill="#000000" d="M 364.5,292.5 C 371.145,291.977 372.811,294.477 369.5,300C 365.641,302.379 362.975,301.379 361.5,297C 361.957,295.06 362.957,293.56 364.5,292.5 Z"/></g>
<g><path style="opacity:0.649" fill="#000000" d="M 262.5,294.5 C 271.326,293.793 273.993,297.293 270.5,305C 262.238,306.013 259.571,302.513 262.5,294.5 Z"/></g>
<g><path style="opacity:0.004" fill="#000000" d="M 7.5,295.5 C 8.83333,296.167 8.83333,296.167 7.5,295.5 Z"/></g>
<g><path style="opacity:0.66" fill="#000000" d="M 330.5,296.5 C 337.282,295.125 340.448,297.791 340,304.5C 337.032,306.991 333.865,307.157 330.5,305C 329.321,302.204 329.321,299.371 330.5,296.5 Z"/></g>
<g><path style="opacity:0.644" fill="#000000" d="M 297.5,298.5 C 302.745,297.843 305.745,300.176 306.5,305.5C 300.613,311.61 296.946,310.443 295.5,302C 295.862,300.566 296.528,299.399 297.5,298.5 Z"/></g>
<g><path style="opacity:0.004" fill="#000000" d="M 43.5,307.5 C 44.8333,308.167 44.8333,308.167 43.5,307.5 Z"/></g>
<g><path style="opacity:0.004" fill="#000000" d="M 169.5,332.5 C 170.833,333.167 170.833,333.167 169.5,332.5 Z"/></g>
<g><path style="opacity:0.004" fill="#000000" d="M 190.5,332.5 C 189.833,333.167 189.833,333.167 190.5,332.5 Z"/></g>
<g><path style="opacity:0.004" fill="#000000" d="M 416.5,333.5 C 416.833,333.5 417.167,333.5 417.5,333.5C 417.315,334.17 416.981,334.17 416.5,333.5 Z"/></g>
<g><path style="opacity:0.004" fill="#000000" d="M 404.5,339.5 C 405.833,340.167 405.833,340.167 404.5,339.5 Z"/></g>
<g><path style="opacity:0.004" fill="#000000" d="M 236.5,347.5 C 236.833,347.5 237.167,347.5 237.5,347.5C 237.315,348.17 236.981,348.17 236.5,347.5 Z"/></g>
<g><path style="opacity:0.008" fill="#000000" d="M 239.5,348.5 C 238.833,349.167 238.833,349.167 239.5,348.5 Z"/></g>
</svg>
