<?xml version="1.0" standalone="no"?>
<!DOCTYPE svg PUBLIC "-//W3C//DTD SVG 20010904//EN"
 "http://www.w3.org/TR/2001/REC-SVG-20010904/DTD/svg10.dtd">
<svg version="1.0" xmlns="http://www.w3.org/2000/svg"
 width="611.000000pt" height="611.000000pt" viewBox="0 0 611.000000 611.000000"
 preserveAspectRatio="xMidYMid meet">

<g transform="translate(0.000000,611.000000) scale(0.100000,-0.100000)"
fill="#000000" stroke="none">
<path d="M5755 3972 c-36 -17 -98 -86 -146 -161 -15 -24 -20 -25 -110 -23
-145 4 -382 -23 -529 -59 -120 -29 -169 -44 -270 -84 -364 -142 -509 -190
-710 -236 -253 -58 -448 -81 -647 -74 -177 6 -359 21 -376 32 -7 4 -20 9 -29
10 -34 5 -205 91 -211 106 -3 8 -32 27 -63 41 -32 15 -82 42 -110 61 -29 19
-57 35 -62 35 -6 0 -12 3 -14 8 -4 9 -82 60 -128 84 -54 28 -216 77 -306 93
-45 8 -159 18 -254 21 -254 9 -343 -3 -666 -91 -28 -8 -78 -26 -110 -40 -32
-15 -81 -35 -109 -46 -91 -34 -243 -158 -471 -384 -83 -82 -94 -97 -122 -172
-44 -113 -45 -163 -4 -245 52 -106 117 -156 224 -173 87 -13 130 -16 230 -14
176 2 226 0 292 -12 162 -30 387 -9 631 60 217 62 318 77 423 64 97 -13 149
-28 258 -79 41 -19 82 -34 93 -34 17 0 65 -13 106 -30 136 -54 170 -62 410
-101 59 -9 231 -12 330 -4 28 2 104 6 170 9 134 7 250 21 338 42 32 8 68 14
79 14 12 0 53 10 92 21 39 12 81 21 94 21 12 0 25 4 28 9 3 5 16 9 30 9 13 0
24 4 24 9 0 4 24 16 53 25 29 9 98 41 152 71 54 30 108 58 119 61 12 4 37 17
56 29 19 12 71 39 115 60 149 73 305 177 477 319 90 74 110 89 150 108 24 11
63 37 88 58 25 21 77 57 115 80 39 23 97 66 129 94 41 35 61 47 64 37 13 -39
77 -92 128 -107 87 -25 153 -4 185 58 23 45 24 90 4 183 -9 39 -22 99 -29 134
-18 83 -43 109 -116 116 -42 4 -64 1 -95 -13z m127 -59 c9 -10 18 -31 22 -48
4 -16 9 -39 12 -50 2 -11 11 -62 20 -113 15 -86 14 -95 -1 -118 -22 -34 -38
-38 -91 -24 -85 24 -130 83 -59 78 44 -3 75 23 55 46 -9 12 -31 16 -79 16
l-66 0 45 26 c63 36 77 64 42 83 -20 11 -65 -7 -99 -39 -28 -26 -48 -11 -25
19 51 67 105 127 120 133 34 13 89 8 104 -9z m-3953 -147 c79 -5 244 -40 266
-56 6 -4 31 -13 58 -20 26 -7 47 -16 47 -20 0 -4 12 -10 28 -13 15 -3 37 -15
49 -26 12 -12 25 -21 28 -21 3 0 32 -18 64 -40 32 -22 62 -40 66 -40 5 0 16
-7 25 -15 50 -46 329 -188 403 -205 130 -31 513 -48 672 -30 192 22 348 49
405 70 14 5 70 21 125 35 153 42 303 92 390 130 68 31 278 106 361 130 133 39
302 62 514 71 179 8 223 -9 168 -64 -35 -34 -77 -64 -148 -106 -36 -22 -99
-65 -140 -96 -41 -32 -100 -73 -130 -93 -30 -19 -64 -43 -75 -54 -27 -23 -75
-61 -207 -160 -86 -65 -166 -111 -415 -236 -312 -156 -376 -184 -493 -211
-258 -59 -318 -68 -525 -81 -55 -4 -111 -8 -125 -10 -14 -2 -79 -7 -145 -10
-101 -5 -144 -2 -271 19 -186 31 -187 31 -310 72 -55 19 -110 34 -122 34 -11
0 -24 5 -27 10 -3 6 -13 10 -22 10 -8 0 -41 13 -72 28 -116 59 -279 90 -405
77 -39 -4 -81 -8 -93 -9 -12 -1 -25 -5 -29 -9 -4 -4 -16 -7 -26 -7 -11 0 -65
-15 -121 -34 -57 -19 -136 -42 -177 -51 -41 -9 -85 -21 -98 -26 -13 -5 -76
-12 -140 -15 -91 -5 -135 -2 -197 11 -47 10 -141 19 -230 21 -306 8 -377 19
-431 67 -78 67 -101 167 -64 269 31 84 59 120 214 272 152 150 253 233 328
270 113 55 475 153 613 166 90 8 257 7 414 -4z"/>
<path d="M5225 3640 c-44 -10 -150 -42 -235 -70 -85 -29 -182 -60 -215 -70
-33 -10 -187 -61 -342 -114 -284 -96 -345 -112 -743 -182 -109 -19 -421 -28
-490 -14 -25 5 -101 19 -170 31 -260 44 -406 98 -502 185 -22 20 -59 44 -82
55 -44 20 -91 25 -81 9 3 -5 15 -10 25 -10 27 0 88 -35 130 -74 59 -55 220
-137 300 -152 14 -3 95 -19 180 -35 245 -48 254 -49 424 -44 164 5 239 14 496
59 199 34 305 63 560 151 430 148 739 246 853 270 32 6 27 25 -6 24 -12 0 -58
-9 -102 -19z"/>
<path d="M5237 3577 c-8 -20 9 -41 27 -34 23 9 21 47 -3 47 -10 0 -21 -6 -24
-13z"/>
<path d="M1101 3533 c-58 -15 -114 -47 -145 -82 -17 -19 -18 -23 -5 -37 14
-13 20 -11 59 17 97 71 229 85 316 34 46 -27 64 -26 63 3 0 27 -53 61 -110 72
-66 13 -111 11 -178 -7z"/>
<path d="M2125 3530 c-22 -5 -79 -27 -128 -49 -99 -47 -113 -49 -122 -21 -8
25 -37 41 -54 31 -11 -7 -11 -18 -1 -57 24 -98 24 -180 0 -245 -20 -55 -20
-99 -1 -99 5 0 20 9 34 20 14 11 28 20 31 20 3 0 41 -16 83 -36 43 -20 99 -39
124 -41 41 -5 49 -2 62 18 22 36 38 111 51 249 13 129 8 196 -15 211 -8 5 -16
8 -19 8 -3 -1 -23 -5 -45 -9z m23 -142 c-5 -99 -28 -248 -40 -264 -6 -9 -33 1
-96 32 -47 24 -93 44 -100 44 -10 0 -12 10 -8 38 3 20 5 38 6 40 0 2 31 2 70
0 55 -2 74 1 87 14 13 14 14 20 3 32 -9 12 -32 16 -86 16 -65 0 -74 2 -74 18
0 12 17 26 53 41 66 30 169 70 180 70 5 1 7 -36 5 -81z"/>
<path d="M5056 3505 c-6 -17 17 -31 34 -20 8 5 8 11 -1 21 -15 18 -25 18 -33
-1z"/>
<path d="M4804 3415 c-9 -23 3 -45 25 -45 22 0 41 27 34 48 -6 17 -52 15 -59
-3z"/>
<path d="M1162 3393 c-45 -18 -49 -127 -5 -144 37 -14 52 -11 78 16 59 59 3
159 -73 128z"/>
<path d="M4517 3323 c-13 -3 -17 -12 -15 -31 2 -22 9 -28 35 -30 24 -2 34 2
43 18 20 37 -9 57 -63 43z"/>
<path d="M4183 3230 c-33 -13 -31 -58 1 -66 14 -3 32 -4 42 -2 23 4 28 43 8
62 -17 18 -20 18 -51 6z"/>
<path d="M2526 3194 c-30 -30 -13 -74 29 -74 12 0 26 5 33 12 7 7 12 21 12 33
0 42 -44 59 -74 29z"/>
<path d="M3856 3141 c-16 -17 -17 -23 -6 -36 8 -9 25 -15 39 -13 22 2 26 8 26
33 0 37 -32 46 -59 16z"/>
<path d="M2852 3128 c-33 -33 11 -98 58 -83 15 5 20 15 20 40 0 28 -5 35 -31
44 -38 13 -33 13 -47 -1z"/>
<path d="M3529 3097 c-16 -35 -6 -54 31 -62 73 -16 80 63 8 80 -23 6 -29 3
-39 -18z"/>
<path d="M3193 3093 c-18 -7 -16 -44 3 -71 16 -24 50 -22 66 2 11 17 10 21
-17 50 -24 26 -30 28 -52 19z"/>
</g>
</svg>
