<?xml version="1.0" standalone="no"?>
<!DOCTYPE svg PUBLIC "-//W3C//DTD SVG 20010904//EN"
 "http://www.w3.org/TR/2001/REC-SVG-20010904/DTD/svg10.dtd">
<svg version="1.0" xmlns="http://www.w3.org/2000/svg"
 width="611.000000pt" height="611.000000pt" viewBox="0 0 611.000000 611.000000"
 preserveAspectRatio="xMidYMid meet">

<g transform="translate(0.000000,611.000000) scale(0.100000,-0.100000)"
fill="#000000" stroke="none">
<path d="M2258 6103 c7 -3 16 -2 19 1 4 3 -2 6 -13 5 -11 0 -14 -3 -6 -6z"/>
<path d="M5558 4001 c-15 -5 -36 -15 -47 -23 -19 -13 -111 -132 -111 -143 0
-23 -29 -30 -109 -27 -149 6 -518 -41 -616 -78 -11 -4 -56 -19 -100 -33 -44
-14 -127 -45 -185 -67 -58 -23 -136 -55 -175 -70 -67 -27 -154 -54 -320 -100
-165 -46 -360 -84 -500 -97 -170 -15 -524 -3 -625 22 -79 20 -210 79 -245 110
-16 15 -59 43 -95 62 -36 18 -88 48 -116 66 -157 98 -212 128 -263 143 -31 9
-65 20 -76 24 -98 41 -248 57 -505 55 -102 -1 -207 -5 -235 -9 -49 -8 -205
-46 -269 -65 -17 -6 -56 -17 -86 -27 -50 -14 -81 -27 -206 -84 -77 -35 -149
-88 -264 -194 -63 -59 -118 -113 -122 -120 -11 -20 -19 -184 -9 -191 9 -5 124
39 148 57 8 7 14 -1 18 -29 9 -52 24 -91 39 -96 7 -3 37 10 67 29 30 18 59 34
66 34 6 0 24 -22 39 -50 29 -53 45 -60 81 -35 20 14 21 14 13 -21 -5 -20 -11
-38 -14 -42 -3 -3 -34 6 -69 20 -83 35 -91 28 -82 -70 l7 -75 -24 7 c-78 22
-119 29 -128 20 -5 -5 -5 -23 0 -47 6 -20 14 -53 19 -74 14 -52 43 -103 61
-104 21 -1 103 2 153 6 23 1 69 -1 102 -6 198 -29 222 -29 366 -14 79 8 176
24 214 34 291 77 353 91 422 97 107 9 233 -16 342 -67 47 -22 114 -46 150 -54
36 -9 84 -24 106 -34 71 -33 199 -63 365 -87 19 -2 46 -7 60 -10 25 -6 190 -5
285 1 28 1 109 6 180 9 171 9 311 31 502 78 45 11 88 21 95 22 34 7 74 19 83
26 6 4 33 15 60 26 28 10 66 27 85 37 48 27 417 217 458 236 17 8 32 19 32 23
0 4 5 8 11 8 16 0 149 90 149 101 0 5 5 9 11 9 6 0 52 33 102 73 127 101 196
152 237 172 19 10 58 36 86 59 29 23 83 60 121 84 38 23 89 61 113 84 l43 41
21 -29 c39 -54 76 -81 129 -92 91 -19 148 3 180 71 22 48 22 46 -10 215 -33
176 -48 199 -133 207 -30 2 -67 0 -82 -4z m114 -68 c9 -10 19 -36 23 -58 5
-22 10 -47 12 -55 2 -8 6 -31 9 -50 3 -19 9 -54 14 -78 13 -70 -11 -122 -54
-122 -54 1 -154 59 -140 81 3 5 20 9 39 9 18 0 41 7 50 16 27 27 1 43 -73 46
l-67 3 41 22 c59 32 71 49 50 72 -21 23 -49 18 -98 -21 -55 -43 -57 -16 -3 49
25 31 49 62 53 69 19 34 119 45 144 17z m-3996 -142 c78 -1 255 -36 304 -60 8
-4 36 -14 63 -22 26 -7 47 -17 47 -21 0 -4 7 -8 16 -8 8 0 30 -11 48 -25 18
-14 36 -25 40 -25 3 0 49 -29 102 -65 53 -36 99 -65 104 -65 4 0 24 -13 44
-29 21 -17 53 -35 73 -42 20 -6 70 -29 111 -50 90 -46 138 -58 307 -74 126
-13 449 -13 530 -1 22 4 72 11 110 16 81 10 217 40 325 71 41 12 98 27 126 34
28 7 60 18 72 24 12 6 22 10 22 7 0 -5 112 35 260 94 58 23 141 55 185 71 44
16 87 32 95 35 8 4 22 8 30 9 8 1 38 8 65 15 184 44 564 75 629 51 50 -20 5
-71 -144 -160 -30 -18 -82 -53 -115 -78 -245 -180 -368 -272 -417 -312 -32
-25 -72 -57 -89 -70 -17 -13 -182 -99 -367 -191 -355 -176 -357 -177 -637
-239 -122 -27 -133 -28 -350 -46 -375 -30 -391 -30 -585 4 -96 17 -224 47
-285 66 -60 20 -126 41 -145 47 -19 6 -66 25 -105 43 -95 44 -124 52 -237 66
-96 11 -229 5 -278 -14 -8 -3 -32 -8 -54 -12 -21 -3 -46 -10 -55 -15 -20 -12
-95 -34 -241 -71 -149 -38 -295 -47 -400 -26 -41 9 -117 19 -169 23 l-94 7 74
70 c85 81 215 195 282 250 72 59 63 76 -53 97 -60 11 -123 27 -255 66 -27 8
-63 19 -80 23 -101 29 -227 69 -231 74 -3 3 2 16 12 29 22 29 219 202 259 228
43 28 168 79 250 102 342 95 422 108 640 102 72 -2 144 -3 161 -3z m-1341
-491 c4 -6 25 -18 47 -27 l40 -16 -57 -29 c-67 -33 -64 -33 -60 -10 2 9 4 34
4 55 1 36 13 48 26 27z m219 -88 c27 -9 43 -18 35 -20 -8 -3 -31 -18 -52 -35
-32 -24 -41 -28 -48 -16 -5 8 -9 19 -9 25 0 6 -3 26 -7 44 -5 30 -4 33 13 26
10 -4 41 -15 68 -24z m190 -57 c21 -9 25 -14 15 -20 -8 -5 -24 -15 -36 -23
-21 -13 -23 -11 -43 28 l-21 41 28 -7 c15 -4 41 -13 57 -19z m155 -40 l24 -7
-23 -18 c-20 -15 -84 -18 -99 -4 -8 8 45 43 59 39 8 -2 26 -7 39 -10z m-79
-84 c0 -11 -29 -35 -35 -29 -10 9 7 38 21 38 8 0 14 -4 14 -9z m-126 -67 c20
-3 36 -9 36 -13 0 -7 -49 -63 -70 -78 -14 -10 -16 -6 -17 28 -1 22 -5 49 -9
61 -5 16 -3 20 9 15 9 -3 32 -9 51 -13z m-106 -117 c17 1 32 -2 32 -6 0 -8
-86 -83 -101 -89 -5 -2 -9 0 -9 5 0 4 -7 30 -15 57 l-15 48 38 -8 c20 -4 52
-7 70 -7z"/>
<path d="M5045 3668 c-77 -14 -586 -177 -858 -274 -54 -20 -106 -37 -115 -39
-9 -2 -30 -8 -47 -15 -48 -19 -261 -67 -375 -85 -58 -9 -139 -23 -180 -31
-120 -25 -433 -27 -545 -4 -49 10 -133 25 -185 35 -196 34 -354 98 -425 171
-38 38 -78 60 -130 69 -51 9 -36 -6 23 -25 26 -8 61 -31 85 -56 42 -42 191
-126 257 -144 29 -8 196 -43 410 -85 51 -10 314 -13 395 -4 150 16 483 73 585
100 82 22 280 84 320 101 39 16 285 99 490 166 162 54 265 84 363 106 15 4 27
11 27 16 0 12 -26 11 -95 -2z"/>
<path d="M1030 3622 c-239 -112 -239 -112 -217 -131 10 -8 32 -2 85 24 39 19
75 35 79 35 20 0 153 65 157 76 3 8 -2 18 -12 23 -12 6 -39 -2 -92 -27z"/>
<path d="M5027 3597 c-3 -8 -2 -20 3 -27 11 -18 42 -4 38 17 -4 22 -34 29 -41
10z"/>
<path d="M1920 3553 c-14 -3 -71 -25 -126 -49 -56 -24 -107 -44 -112 -44 -6 0
-14 9 -17 20 -8 25 -37 41 -55 30 -11 -7 -11 -21 3 -84 22 -100 21 -144 -3
-208 -22 -59 -24 -76 -10 -98 8 -12 13 -11 39 8 17 12 32 22 35 22 3 0 43 -18
90 -40 121 -57 176 -52 192 18 3 15 10 43 14 62 17 71 33 257 26 303 -5 31
-14 50 -26 57 -10 5 -20 9 -22 9 -2 -1 -14 -4 -28 -6z m16 -125 c-11 -125 -29
-243 -41 -285 -3 -8 -35 4 -92 33 -48 24 -93 44 -100 44 -15 0 -17 43 -4 69 7
13 20 17 48 14 20 -1 43 -5 50 -7 23 -9 63 12 63 33 0 28 -9 31 -89 32 -73 1
-94 11 -70 33 17 15 207 93 233 95 4 1 5 -27 2 -61z"/>
<path d="M4847 3534 c-14 -15 -6 -34 14 -34 14 0 19 5 17 17 -3 18 -20 27 -31
17z"/>
<path d="M1015 3477 c-125 -50 -165 -81 -137 -109 11 -11 159 49 201 81 45 34
1 53 -64 28z"/>
<path d="M4597 3443 c-10 -10 -8 -41 3 -48 20 -12 50 6 50 31 0 18 -5 24 -23
24 -13 0 -27 -3 -30 -7z"/>
<path d="M4296 3334 c-20 -19 -20 -28 -2 -44 32 -26 87 7 73 44 -8 20 -51 21
-71 0z"/>
<path d="M3970 3247 c-34 -17 -37 -44 -6 -58 54 -25 94 12 58 54 -18 20 -20
20 -52 4z"/>
<path d="M2312 3218 c-28 -28 -7 -78 33 -78 27 0 45 18 45 45 0 27 -18 45 -45
45 -12 0 -26 -5 -33 -12z"/>
<path d="M3646 3167 c-26 -19 -17 -51 15 -55 34 -4 54 20 39 47 -12 24 -29 26
-54 8z"/>
<path d="M2642 3148 c-13 -13 -16 -47 -4 -64 12 -19 52 -27 67 -14 18 15 19
54 3 68 -23 17 -54 22 -66 10z"/>
<path d="M3322 3128 c-22 -22 -14 -58 14 -69 57 -21 89 17 49 57 -27 27 -45
30 -63 12z"/>
<path d="M2970 3105 c-26 -31 19 -89 58 -74 28 10 29 42 2 69 -24 24 -43 25
-60 5z"/>
</g>
</svg>
