<?xml version="1.0" standalone="no"?>
<!DOCTYPE svg PUBLIC "-//W3C//DTD SVG 20010904//EN"
 "http://www.w3.org/TR/2001/REC-SVG-20010904/DTD/svg10.dtd">
<svg version="1.0" xmlns="http://www.w3.org/2000/svg"
 width="611.000000pt" height="611.000000pt" viewBox="0 0 611.000000 611.000000"
 preserveAspectRatio="xMidYMid meet">

<g transform="translate(0.000000,611.000000) scale(0.100000,-0.100000)"
fill="#000000" stroke="none">
<path d="M5674 4020 c-17 -5 -42 -21 -55 -34 -27 -27 -89 -109 -104 -139 -9
-18 -20 -20 -115 -18 -156 2 -417 -29 -548 -65 -31 -9 -73 -20 -92 -25 -52
-13 -204 -70 -415 -155 -51 -21 -158 -54 -335 -105 -137 -40 -362 -83 -495
-96 -165 -15 -640 5 -640 27 0 1 -10 3 -22 6 -40 7 -210 92 -216 107 -3 8 -32
27 -63 41 -32 15 -82 42 -110 61 -29 19 -57 35 -62 35 -6 0 -12 3 -14 8 -4 9
-81 60 -128 84 -48 25 -245 86 -299 93 -24 3 -47 8 -51 10 -4 2 -92 7 -196 11
-227 8 -368 -5 -521 -47 -59 -17 -125 -34 -145 -39 -35 -9 -109 -37 -173 -65
-16 -7 -45 -19 -64 -26 -92 -35 -194 -118 -449 -364 -104 -100 -121 -124 -150
-210 -33 -98 -35 -136 -10 -196 60 -146 113 -185 289 -209 76 -11 217 -13 304
-6 22 2 67 0 100 -5 199 -29 222 -29 366 -14 79 8 187 26 239 40 269 72 324
85 392 91 127 11 261 -19 415 -95 23 -12 51 -21 61 -21 21 0 71 -15 117 -35
167 -74 486 -117 730 -101 28 2 102 7 165 11 199 11 299 26 505 76 108 26 126
30 158 36 15 3 27 9 27 13 0 4 19 13 43 20 23 8 62 25 87 38 40 22 389 202
465 240 17 9 32 18 35 22 3 3 21 14 40 23 19 9 85 55 145 102 61 47 144 112
186 145 42 32 98 71 125 86 27 15 72 46 100 68 29 23 78 57 110 76 32 19 84
56 115 83 63 51 69 54 69 34 0 -25 76 -88 124 -102 126 -38 216 32 202 157 -3
29 -16 104 -30 167 -29 139 -45 160 -127 166 -30 2 -68 0 -85 -5z m118 -67 c9
-10 18 -31 22 -48 4 -16 9 -39 11 -50 32 -136 34 -220 6 -248 -19 -20 -24 -20
-68 -9 -53 14 -117 58 -107 73 3 5 21 8 41 7 25 -2 39 3 49 17 23 31 0 45 -75
45 l-66 1 30 16 c40 21 75 53 75 69 0 27 -35 34 -71 13 -61 -34 -79 -42 -85
-36 -9 8 114 155 134 160 42 11 90 6 104 -10z m-3953 -146 c80 -6 245 -41 266
-57 6 -4 24 -10 40 -14 40 -9 155 -67 155 -78 0 -4 5 -8 10 -8 6 0 37 -18 69
-40 32 -22 62 -40 66 -40 4 0 19 -9 33 -21 49 -38 136 -89 171 -100 20 -6 41
-15 46 -20 25 -19 136 -69 176 -79 125 -31 565 -47 714 -26 22 3 72 10 110 15
82 12 220 42 325 72 41 12 98 27 125 34 28 7 82 24 120 38 39 14 93 33 120 42
28 9 65 23 82 31 18 8 51 21 73 29 22 8 55 21 73 29 47 21 204 73 262 86 125
29 389 60 512 60 98 0 143 -11 143 -34 0 -20 -68 -75 -155 -127 -38 -23 -114
-75 -170 -116 -233 -171 -267 -197 -279 -208 -7 -7 -60 -49 -119 -93 -88 -66
-158 -105 -414 -231 -169 -84 -319 -158 -333 -165 -14 -8 -72 -25 -130 -39
-272 -67 -347 -79 -555 -92 -55 -3 -116 -8 -135 -10 -154 -20 -257 -16 -438
15 -111 19 -221 45 -280 65 -53 19 -107 35 -119 35 -12 0 -25 5 -28 10 -3 6
-13 10 -22 10 -8 0 -38 12 -67 26 -119 61 -211 80 -371 78 -91 -2 -138 -6
-165 -17 -8 -3 -32 -8 -54 -12 -21 -3 -46 -10 -55 -15 -20 -12 -96 -34 -239
-71 -151 -38 -280 -46 -397 -24 -49 9 -157 18 -240 21 -310 8 -377 19 -432 67
-36 32 -83 116 -83 150 0 19 11 22 26 8 20 -20 232 -72 319 -77 78 -5 97 -3
139 15 80 35 235 130 246 151 22 41 -40 22 -144 -43 -139 -87 -151 -91 -249
-84 -137 10 -337 69 -337 100 0 7 9 32 20 55 11 22 20 48 20 57 0 21 322 342
408 408 101 78 198 116 497 193 77 20 178 39 225 44 88 8 274 7 419 -3z"/>
<path d="M5155 3685 c-84 -17 -369 -108 -860 -275 -195 -66 -360 -108 -525
-135 -58 -9 -141 -23 -185 -32 -94 -19 -416 -27 -485 -12 -25 5 -99 19 -165
30 -144 25 -287 61 -335 83 -65 30 -125 66 -155 94 -16 15 -39 34 -50 44 -25
20 -125 50 -125 38 0 -5 12 -13 27 -16 40 -10 93 -41 133 -78 99 -91 220 -138
475 -186 94 -18 179 -34 190 -37 34 -9 315 -9 394 -1 119 13 484 76 569 99 94
25 275 83 357 114 33 13 71 26 85 30 14 4 61 20 105 35 221 79 514 168 638
195 32 6 27 26 -6 24 -12 -1 -49 -7 -82 -14z"/>
<path d="M5147 3617 c-8 -20 9 -41 27 -34 23 9 21 47 -3 47 -10 0 -21 -6 -24
-13z"/>
<path d="M2030 3570 c-19 -5 -75 -27 -124 -49 -100 -47 -112 -49 -121 -21 -8
25 -37 41 -54 30 -11 -6 -11 -21 3 -80 21 -97 20 -158 -5 -222 -19 -49 -19
-98 0 -98 4 0 20 9 35 21 l27 21 93 -41 c97 -43 140 -50 169 -28 27 19 55 153
63 295 6 114 5 135 -10 157 -18 27 -22 28 -76 15z m30 -110 c0 -39 -15 -159
-34 -275 -5 -33 -19 -32 -103 11 -48 24 -94 44 -101 44 -10 0 -12 10 -9 34 2
19 7 38 10 43 6 9 79 8 105 -2 21 -8 52 13 52 35 0 27 -9 30 -88 31 -70 1 -97
15 -69 37 16 12 209 91 225 92 8 0 12 -16 12 -50z"/>
<path d="M1045 3546 c-48 -22 -69 -42 -62 -59 5 -14 12 -13 52 9 66 38 102 35
164 -10 37 -28 55 -36 63 -28 17 17 4 36 -48 70 -53 36 -115 42 -169 18z"/>
<path d="M4965 3551 c-8 -15 3 -31 21 -31 9 0 14 7 12 17 -4 20 -24 28 -33 14z"/>
<path d="M4714 3455 c-10 -25 4 -47 28 -43 17 2 24 11 26 31 3 23 0 27 -23 27
-14 0 -28 -7 -31 -15z"/>
<path d="M1040 3433 c-8 -3 -23 -14 -34 -25 -28 -26 -8 -47 29 -30 44 20 74
14 105 -20 34 -36 57 -28 46 15 -11 46 -94 80 -146 60z"/>
<path d="M4427 3363 c-13 -3 -17 -12 -15 -31 2 -22 8 -27 32 -27 32 0 53 23
43 49 -6 16 -24 18 -60 9z"/>
<path d="M4091 3267 c-13 -6 -23 -15 -22 -19 0 -5 1 -15 1 -23 0 -17 40 -29
68 -21 23 8 24 53 1 67 -18 11 -19 11 -48 -4z"/>
<path d="M2428 3224 c-14 -31 -1 -57 31 -62 28 -4 51 14 51 42 0 50 -62 65
-82 20z"/>
<path d="M3765 3184 c-23 -24 -15 -48 19 -52 36 -4 50 10 42 42 -7 30 -36 35
-61 10z"/>
<path d="M2760 3166 c-18 -23 -8 -59 22 -75 33 -19 58 -2 58 39 0 22 -6 30
-31 39 -39 13 -34 14 -49 -3z"/>
<path d="M3440 3146 c-21 -26 -8 -59 27 -70 56 -15 83 24 43 64 -24 24 -53 26
-70 6z"/>
<path d="M3092 3123 c-20 -38 18 -86 56 -72 28 10 29 42 2 69 -25 25 -46 26
-58 3z"/>
</g>
</svg>
