<?xml version="1.0" encoding="UTF-8"?>
<!DOCTYPE svg PUBLIC "-//W3C//DTD SVG 1.1//EN" "http://www.w3.org/Graphics/SVG/1.1/DTD/svg11.dtd">
<svg xmlns="http://www.w3.org/2000/svg" version="1.1" width="611px" height="611px" style="shape-rendering:geometricPrecision; text-rendering:geometricPrecision; image-rendering:optimizeQuality; fill-rule:evenodd; clip-rule:evenodd" xmlns:xlink="http://www.w3.org/1999/xlink">
<g><path style="opacity:0.677" fill="#000000" d="M 260.5,126.5 C 294.776,125.545 328.776,128.045 362.5,134C 370.03,136.097 377.363,138.764 384.5,142C 383.449,158.717 383.449,175.217 384.5,191.5C 382.326,191.08 380.326,191.08 378.5,191.5C 378.527,216.633 378.527,241.966 378.5,267.5C 378.24,269.187 377.573,270.687 376.5,272C 378.303,272.637 379.636,273.803 380.5,275.5C 378.803,276.364 377.637,277.697 377,279.5C 376.698,303.768 376.865,327.768 377.5,351.5C 376.851,358.364 376.184,365.198 375.5,372C 375.957,372.414 376.291,372.914 376.5,373.5C 375.833,388.167 375.167,402.833 374.5,417.5C 374.469,442.14 374.469,466.807 374.5,491.5C 374,492.5 373.5,493.5 373,494.5C 369.284,497.614 365.117,500.114 360.5,502C 331.098,512.759 301.098,516.426 270.5,513C 262.823,512.194 255.323,510.694 248,508.5C 247.586,508.957 247.086,509.291 246.5,509.5C 238.307,506.736 229.973,504.569 221.5,503C 217.37,500.85 213.37,498.517 209.5,496C 207.946,493.776 206.946,491.276 206.5,488.5C 206.929,466.313 207.262,444.646 207.5,423.5C 207.333,421.167 207.167,418.833 207,416.5C 205.294,415.692 204.461,414.359 204.5,412.5C 205.5,412.5 206.5,412.5 207.5,412.5C 206.367,383.961 206.367,356.295 207.5,329.5C 206.833,326.833 206.167,324.167 205.5,321.5C 205.844,282.586 206.177,243.42 206.5,204C 205.7,199.92 205.2,195.753 205,191.5C 203.488,190.743 202.154,189.743 201,188.5C 200.755,186.337 199.755,184.67 198,183.5C 197.754,170.816 197.754,158.149 198,145.5C 205.811,139.343 214.645,134.843 224.5,132C 236.622,130.008 248.622,128.175 260.5,126.5 Z M 262.5,134.5 C 273.303,134.971 283.803,134.971 294,134.5C 299.955,135.207 305.955,135.874 312,136.5C 312.873,136.265 313.707,135.931 314.5,135.5C 333.565,136.955 352.232,140.455 370.5,146C 372.833,147.167 375.167,148.333 377.5,149.5C 377.833,150.667 378.167,151.833 378.5,153C 377.93,162.17 377.264,171.336 376.5,180.5C 368.648,178.435 360.815,177.435 353,177.5C 337.218,175.165 321.051,173.165 304.5,171.5C 280.349,171.617 255.849,172.284 231,173.5C 230.439,172.978 229.772,172.645 229,172.5C 220.939,174.131 212.939,176.131 205,178.5C 204.727,169.983 204.227,161.483 203.5,153C 203.559,151.564 203.892,150.231 204.5,149C 212.203,144.879 220.203,141.546 228.5,139C 239.805,137.876 251.138,136.376 262.5,134.5 Z M 228.5,180.5 C 251.313,181.062 274.313,181.729 297.5,182.5C 301.968,181.927 306.468,181.594 311,181.5C 322.137,182.227 333.47,183.56 345,185.5C 345.873,185.265 346.707,184.931 347.5,184.5C 356.209,185.731 364.875,187.231 373.5,189C 373.002,190.158 372.169,190.991 371,191.5C 356.951,188.631 342.784,186.464 328.5,185C 307.353,184.129 286.02,183.296 264.5,182.5C 256.71,183.471 249.044,183.471 241.5,182.5C 231.075,183.595 220.742,185.261 210.5,187.5C 208.998,186.917 207.665,186.084 206.5,185C 213.712,182.527 221.045,181.027 228.5,180.5 Z M 242.5,188.5 C 258.923,188.987 275.09,188.987 291,188.5C 317.931,189.047 344.764,192.213 371.5,198C 372.204,222.945 372.204,247.778 371.5,272.5C 355.059,274.752 338.559,276.419 322,277.5C 295.371,277.411 268.205,276.744 240.5,275.5C 239.833,275.833 239.167,276.167 238.5,276.5C 229.919,275.024 221.253,274.19 212.5,274C 211.833,271.333 211.167,268.667 210.5,266C 211.649,264.396 211.649,262.73 210.5,261C 211.167,259.667 211.833,258.333 212.5,257C 212.466,236.403 211.799,215.236 210.5,193.5C 212.882,191.929 215.549,191.096 218.5,191C 226.644,190.106 234.644,189.273 242.5,188.5 Z M 211.5,279.5 C 224.848,280.783 238.181,282.116 251.5,283.5C 255.08,282.684 258.58,282.35 262,282.5C 274.366,284.7 286.533,284.7 298.5,282.5C 322.408,284.012 346.575,283.012 371,279.5C 371.603,292.816 371.437,306.149 370.5,319.5C 324.615,327.605 278.781,328.605 233,322.5C 226.321,322.932 219.654,323.265 213,323.5C 212.403,312.691 211.569,301.858 210.5,291C 211.02,287.431 211.353,283.598 211.5,279.5 Z M 366.5,327.5 C 368.017,327.511 369.184,328.177 370,329.5C 370.094,334.817 369.927,340.151 369.5,345.5C 369.302,349.858 369.968,354.025 371.5,358C 370.484,377.865 369.651,397.698 369,417.5C 368.333,418.167 367.667,418.833 367,419.5C 366.667,404.833 366.333,390.167 366,375.5C 365.123,366.674 363.623,358.008 361.5,349.5C 360.5,349.5 359.5,349.5 358.5,349.5C 356.279,340.77 350.945,334.603 342.5,331C 350.746,330.567 358.746,329.401 366.5,327.5 Z M 212.5,329.5 C 218.246,330.373 223.746,330.373 229,329.5C 240.16,330.73 251.326,331.897 262.5,333C 247.771,341.069 235.604,351.902 226,365.5C 216.936,381.414 213.103,398.414 214.5,416.5C 213.914,416.291 213.414,415.957 213,415.5C 213.132,387.209 212.966,358.542 212.5,329.5 Z M 322.5,331.5 C 338.369,329.938 349.702,336.438 356.5,351C 354.629,353.37 352.962,355.87 351.5,358.5C 350.786,355.973 350.12,353.473 349.5,351C 349.833,350.667 350.167,350.333 350.5,350C 348.683,348.2 347.516,346.034 347,343.5C 345.806,342.57 344.473,341.903 343,341.5C 340.004,343.019 337.171,344.685 334.5,346.5C 326.727,344.93 319.06,345.263 311.5,347.5C 309.992,349.507 308.158,351.174 306,352.5C 305.262,355.212 305.929,357.545 308,359.5C 314.372,365.77 321.872,370.103 330.5,372.5C 331.188,377.414 330.021,381.747 327,385.5C 326.682,383.939 325.849,382.772 324.5,382C 319.646,381.063 314.98,379.563 310.5,377.5C 301.693,378.396 295.026,382.562 290.5,390C 276.141,392.338 265.475,399.838 258.5,412.5C 266.298,422.062 276.298,425.229 288.5,422C 289.5,420 290.5,420 291.5,422C 295.167,422.667 298.833,422.667 302.5,422C 303.729,419.381 303.396,416.881 301.5,414.5C 303.867,412.605 306.534,412.105 309.5,413C 313.054,420.424 318.054,426.757 324.5,432C 310.85,435.603 296.85,436.269 282.5,434C 261.069,430.909 240.069,426.076 219.5,419.5C 215.543,398.968 219.709,379.968 232,362.5C 237.5,357.667 242.667,352.5 247.5,347C 256.414,339.209 266.747,334.709 278.5,333.5C 284.928,333.584 291.262,333.917 297.5,334.5C 305.928,333.21 314.261,332.21 322.5,331.5 Z M 345.5,351.5 C 341.926,350.966 340.593,349.133 341.5,346C 342.448,345.517 343.448,345.351 344.5,345.5C 344.833,347.5 345.167,349.5 345.5,351.5 Z M 321.5,349.5 C 328.469,348.807 335.469,350.307 342.5,354C 345.253,356.588 346.92,359.755 347.5,363.5C 352.435,363.231 355.935,360.564 358,355.5C 359.381,370.414 358.047,385.081 354,399.5C 352.063,393.024 349.73,386.691 347,380.5C 346.506,378.866 346.34,377.199 346.5,375.5C 350.211,375.53 350.878,374.53 348.5,372.5C 336.432,372.31 325.099,368.477 314.5,361C 312.259,359.261 310.592,357.094 309.5,354.5C 312.26,351.618 315.593,350.118 319.5,350C 316.876,352.153 315.876,354.987 316.5,358.5C 319.502,359.928 322.335,359.595 325,357.5C 326.222,353.754 325.056,351.087 321.5,349.5 Z M 361.5,371.5 C 362.963,377.434 363.63,383.601 363.5,390C 363.032,400.835 362.532,411.668 362,422.5C 351.865,426.825 341.365,429.825 330.5,431.5C 332.563,421.565 334.396,411.565 336,401.5C 337.149,395.226 338.982,389.226 341.5,383.5C 340.63,381.091 340.63,378.758 341.5,376.5C 342.086,376.709 342.586,377.043 343,377.5C 345.579,387.57 348.746,397.404 352.5,407C 351.224,409.865 350.89,412.699 351.5,415.5C 353.416,414.752 355.416,414.752 357.5,415.5C 357.232,412.26 356.566,409.094 355.5,406C 359.366,394.837 361.366,383.337 361.5,371.5 Z M 333.5,374.5 C 335.564,374.762 336.897,375.929 337.5,378C 336.069,378.465 334.903,379.299 334,380.5C 333.505,378.527 333.338,376.527 333.5,374.5 Z M 305.5,382.5 C 304.341,384.25 302.674,385.25 300.5,385.5C 301.659,383.75 303.326,382.75 305.5,382.5 Z M 316.5,383.5 C 325.004,384.53 325.337,387.364 317.5,392C 311.871,391.479 306.204,390.812 300.5,390C 305.425,386.532 310.759,384.365 316.5,383.5 Z M 300.5,385.5 C 300.217,386.289 299.717,386.956 299,387.5C 298.472,386.184 298.972,385.517 300.5,385.5 Z M 332.5,385.5 C 334.132,385.825 335.132,386.825 335.5,388.5C 332.559,402.482 329.725,416.482 327,430.5C 321.199,424.533 316.366,417.866 312.5,410.5C 309.216,409.343 305.882,409.176 302.5,410C 297.999,412.416 293.666,415.083 289.5,418C 279.322,421.345 270.322,419.512 262.5,412.5C 270.205,399.556 281.705,392.889 297,392.5C 304.638,393.306 312.138,394.473 319.5,396C 323.943,392.47 328.276,388.97 332.5,385.5 Z M 297.5,416.5 C 298.478,416.811 299.145,417.478 299.5,418.5C 297.926,419.631 296.259,419.798 294.5,419C 295.942,418.623 296.942,417.79 297.5,416.5 Z M 212.5,419.5 C 252.572,436.526 293.906,441.359 336.5,434C 347.984,432.229 358.651,428.396 368.5,422.5C 369.113,445.78 369.113,469.113 368.5,492.5C 356.426,496.854 344.093,500.687 331.5,504C 317.83,505.724 304.163,507.224 290.5,508.5C 269.695,506.483 248.695,503.316 227.5,499C 222.388,497.278 217.721,494.778 213.5,491.5C 213.535,488.311 213.868,484.977 214.5,481.5C 213.243,460.355 212.576,439.688 212.5,419.5 Z"/></g>
<g><path style="opacity:0.481" fill="#000000" d="M 349.5,288.5 C 350.583,288.539 351.583,288.873 352.5,289.5C 353.855,297.796 354.355,306.129 354,314.5C 351.67,316.032 349.67,315.698 348,313.5C 346.969,304.974 347.469,296.641 349.5,288.5 Z"/></g>
<g><path style="opacity:0.476" fill="#000000" d="M 249.5,289.5 C 255.701,288.534 258.535,291.2 258,297.5C 259.299,298.09 260.132,299.09 260.5,300.5C 259.131,303.53 258.131,306.697 257.5,310C 261.563,313.035 266.229,314.202 271.5,313.5C 271.5,314.5 271.5,315.5 271.5,316.5C 264.779,316.867 258.112,316.867 251.5,316.5C 246.795,317.036 242.128,317.703 237.5,318.5C 234.803,316.707 234.136,314.374 235.5,311.5C 236.584,312.665 237.417,313.998 238,315.5C 239.356,314.62 240.856,314.286 242.5,314.5C 244.027,309.941 243.027,305.941 239.5,302.5C 240.936,301.066 242.602,299.9 244.5,299C 243.409,296.936 243.242,294.769 244,292.5C 245.876,291.391 247.709,290.391 249.5,289.5 Z"/></g>
<g><path style="opacity:0.005" fill="#000000" d="M 330.5,289.5 C 331.598,290.601 331.765,291.934 331,293.5C 329.232,292.318 329.065,290.985 330.5,289.5 Z"/></g>
<g><path style="opacity:0.483" fill="#000000" d="M 301.5,290.5 C 303.722,290.178 305.556,290.845 307,292.5C 307.333,297.167 307.667,301.833 308,306.5C 311.735,310.793 310.902,313.793 305.5,315.5C 300.209,314.598 294.876,314.265 289.5,314.5C 289.343,313.127 289.51,311.793 290,310.5C 291.399,310.499 292.899,310.165 294.5,309.5C 295.452,307.955 295.785,306.288 295.5,304.5C 297.993,305.229 300.326,306.063 302.5,307C 301.867,303.541 301.2,300.041 300.5,296.5C 297.986,296.517 295.319,297.017 292.5,298C 291.874,298.75 291.374,299.584 291,300.5C 290.751,299.376 290.251,298.376 289.5,297.5C 288.284,298.002 287.117,298.335 286,298.5C 283.519,297.851 283.186,296.851 285,295.5C 287.027,295.986 289.193,295.986 291.5,295.5C 291.5,294.5 291.5,293.5 291.5,292.5C 295.04,292.247 298.373,291.581 301.5,290.5 Z"/></g>
<g><path style="opacity:0.516" fill="#000000" d="M 339.5,291.5 C 342.364,291.064 344.697,291.897 346.5,294C 345.833,299.667 345.167,305.333 344.5,311C 342.888,311.72 341.388,311.554 340,310.5C 339.737,306.165 339.903,301.832 340.5,297.5C 338.167,297.5 335.833,297.5 333.5,297.5C 333.343,296.127 333.51,294.793 334,293.5C 335.948,292.891 337.782,292.224 339.5,291.5 Z"/></g>
<g><path style="opacity:0.008" fill="#000000" d="M 266.5,293.5 C 268.167,293.5 269.833,293.5 271.5,293.5C 271.56,297.327 270.393,297.994 268,295.5C 264.791,296.854 261.624,296.687 258.5,295C 261.365,294.817 264.031,294.317 266.5,293.5 Z"/></g>
<g><path style="opacity:0.004" fill="#000000" d="M 328.5,312.5 C 330.977,312.051 332.977,312.717 334.5,314.5C 331.155,315.559 327.822,315.392 324.5,314C 326.058,313.79 327.391,313.29 328.5,312.5 Z"/></g>
<g><path style="opacity:0.442" fill="#000000" d="M 271.5,404.5 C 276.267,403.597 278.6,405.597 278.5,410.5C 278.471,412.029 277.804,413.196 276.5,414C 274.527,414.495 272.527,414.662 270.5,414.5C 268.885,410.879 269.219,407.546 271.5,404.5 Z"/></g>
</svg>
