<?xml version="1.0" standalone="no"?>
<!DOCTYPE svg PUBLIC "-//W3C//DTD SVG 20010904//EN"
 "http://www.w3.org/TR/2001/REC-SVG-20010904/DTD/svg10.dtd">
<svg version="1.0" xmlns="http://www.w3.org/2000/svg"
 width="611.000000pt" height="611.000000pt" viewBox="0 0 611.000000 611.000000"
 preserveAspectRatio="xMidYMid meet">

<g transform="translate(0.000000,611.000000) scale(0.100000,-0.100000)"
fill="#000000" stroke="none">
<path d="M2435 4393 c-42 -9 -202 -67 -255 -92 -43 -20 -220 -131 -285 -179
-5 -4 -22 -13 -37 -21 -15 -7 -43 -29 -62 -47 -20 -19 -39 -34 -42 -34 -16 0
-145 -146 -164 -185 -18 -38 -26 -45 -51 -45 -16 0 -46 -6 -66 -14 -21 -8 -57
-17 -81 -20 -23 -3 -51 -10 -61 -16 -11 -5 -27 -10 -35 -10 -9 0 -35 -9 -59
-19 -23 -11 -66 -27 -95 -36 -28 -9 -52 -21 -52 -26 0 -5 -8 -9 -19 -9 -39 0
-197 -77 -301 -146 -98 -66 -115 -78 -118 -86 -2 -5 -9 -8 -15 -8 -15 0 -79
-52 -134 -110 -24 -25 -47 -48 -51 -51 -4 -4 -59 -58 -122 -120 -128 -126
-180 -186 -180 -205 0 -39 37 -114 79 -158 25 -27 58 -62 73 -77 15 -16 32
-29 38 -29 5 0 10 -4 10 -9 0 -8 38 -39 100 -81 13 -8 40 -30 62 -48 22 -17
44 -32 50 -32 5 0 16 -6 23 -12 47 -42 245 -168 265 -168 5 0 33 -14 62 -31
29 -17 70 -38 91 -45 20 -7 52 -20 70 -27 17 -8 52 -22 77 -32 25 -10 69 -29
98 -42 29 -13 57 -23 62 -23 6 0 43 -11 83 -25 39 -14 83 -26 97 -27 14 0 44
-7 68 -14 23 -8 67 -14 97 -14 47 0 55 -3 55 -19 0 -20 85 -151 126 -196 13
-14 24 -30 24 -35 0 -6 9 -15 20 -22 11 -7 20 -17 20 -22 0 -30 215 -246 245
-246 3 0 23 -11 43 -25 46 -32 75 -32 104 0 36 38 128 104 165 117 18 7 33 16
33 20 0 4 5 8 12 8 6 0 19 6 27 13 9 7 36 21 61 31 25 10 52 22 60 26 9 4 36
11 60 15 55 9 90 31 90 57 0 10 -9 36 -20 56 -10 20 -21 44 -24 52 -3 8 -13
25 -23 38 l-16 23 119 -2 c151 -3 669 13 669 21 0 0 36 3 80 6 89 5 97 6 210
29 44 8 89 17 100 19 24 5 219 56 325 86 41 12 93 30 115 40 22 10 60 24 85
30 42 11 132 55 209 101 38 23 57 19 70 -13 17 -43 181 -198 249 -236 17 -10
47 -32 68 -50 40 -34 157 -118 274 -198 36 -24 96 -66 134 -93 38 -26 94 -61
125 -77 31 -16 58 -32 61 -36 3 -4 21 -14 40 -23 19 -9 53 -27 75 -40 74 -45
116 -26 95 42 -7 21 -16 42 -21 47 -5 6 -9 18 -9 28 0 10 -4 18 -9 18 -5 0
-11 14 -15 30 -9 48 -54 154 -123 295 -36 72 -80 168 -100 215 -19 47 -43 103
-53 125 -43 96 -68 214 -64 301 3 72 29 142 112 304 41 80 86 168 99 195 40
83 85 169 105 197 10 14 18 31 18 37 0 6 5 11 10 11 6 0 10 5 10 10 0 12 41
73 53 78 4 2 7 10 7 17 0 7 3 15 8 17 12 5 100 141 112 171 15 43 12 75 -7 80
-86 24 -141 16 -197 -28 -40 -32 -46 -37 -76 -56 -14 -9 -36 -26 -49 -38 -13
-11 -28 -21 -33 -21 -5 0 -33 -18 -62 -40 -29 -22 -56 -40 -59 -40 -6 0 -144
-93 -212 -143 -17 -12 -55 -40 -85 -62 -79 -57 -277 -225 -330 -279 -24 -25
-48 -46 -53 -46 -12 0 -112 79 -177 140 -75 72 -135 120 -147 120 -6 0 -13 6
-16 14 -3 7 -27 26 -54 41 -26 15 -50 30 -52 31 -6 5 51 85 106 150 24 28 43
56 43 63 0 6 4 11 10 11 5 0 16 13 25 29 8 16 24 32 35 36 14 4 20 15 20 34 0
23 -13 38 -76 84 -42 32 -82 57 -89 57 -7 0 -15 4 -17 10 -5 15 -301 170 -325
170 -7 0 -13 5 -13 11 0 5 -4 7 -10 4 -5 -3 -10 -2 -10 3 0 5 -39 26 -87 47
-49 21 -110 47 -138 60 -27 12 -71 32 -98 44 -26 11 -53 21 -60 21 -6 0 -66
22 -132 49 -133 54 -266 98 -335 111 -112 22 -158 31 -204 42 -27 6 -60 10
-75 10 -14 0 -30 3 -36 7 -5 4 -32 8 -60 9 -75 2 -308 32 -327 43 -18 9 -29
10 -63 2z m175 -93 c134 -22 264 -39 268 -35 3 3 11 0 19 -6 10 -9 -4 -23 -69
-66 -90 -59 -235 -200 -285 -276 l-32 -49 -198 -4 c-109 -2 -214 -6 -233 -9
-39 -6 -114 -13 -205 -21 -33 -2 -71 -6 -85 -8 -69 -11 -140 -17 -140 -12 0 3
33 38 74 79 84 84 242 196 391 278 22 12 46 26 53 32 19 15 173 77 192 77 9 0
20 3 24 7 30 31 98 35 226 13z m560 -94 c47 -13 101 -27 120 -30 19 -3 48 -13
64 -21 15 -8 37 -15 47 -15 10 0 20 -4 23 -9 3 -4 19 -11 36 -14 27 -6 44 -27
21 -27 -11 0 -139 -96 -187 -139 -17 -16 -45 -36 -61 -44 -38 -20 -93 -85 -93
-110 0 -14 -4 -17 -17 -12 -25 10 -141 35 -183 39 -19 2 -51 6 -70 10 -19 4
-51 9 -70 12 -19 3 -44 7 -55 9 -11 2 -44 4 -72 4 -29 1 -53 5 -53 10 0 28
231 271 258 271 7 0 28 11 45 23 36 27 124 66 147 67 9 0 54 -11 100 -24z
m518 -182 c31 -14 86 -40 122 -56 286 -132 281 -128 223 -143 -64 -15 -191
-98 -248 -160 l-56 -63 -87 35 c-115 45 -252 93 -252 88 0 -3 -17 1 -37 9 -21
8 -59 20 -84 27 -43 12 -45 14 -35 36 6 12 16 23 21 23 6 0 22 12 36 28 44 46
161 138 224 175 69 40 89 40 173 1z m-973 -242 c55 -6 130 -17 166 -25 86 -20
119 -25 202 -33 37 -4 70 -11 73 -15 3 -5 20 -9 39 -9 19 0 36 -4 39 -9 3 -4
24 -11 47 -15 39 -6 228 -66 274 -86 56 -25 115 -47 155 -60 25 -7 52 -20 61
-27 8 -7 19 -13 23 -13 4 0 39 -15 79 -34 40 -18 101 -46 137 -61 36 -16 88
-44 116 -62 28 -18 54 -33 57 -33 7 0 103 -57 122 -72 6 -5 44 -30 85 -57 41
-27 136 -108 210 -180 74 -72 144 -134 156 -137 26 -7 80 15 115 47 62 57 114
101 192 162 15 12 44 37 64 55 20 17 42 32 49 32 6 0 20 11 30 25 10 14 24 25
30 25 6 0 26 14 44 30 18 17 38 30 43 30 5 0 21 9 35 21 36 27 149 99 158 99
9 0 226 130 247 148 11 10 17 11 17 3 0 -11 -28 -60 -40 -71 -13 -10 -100
-157 -100 -167 0 -6 -6 -16 -14 -22 -8 -7 -18 -26 -21 -42 -4 -16 -10 -29 -15
-29 -5 0 -12 -10 -15 -22 -6 -19 -143 -309 -176 -370 -5 -10 -9 -23 -9 -30 0
-7 -14 -40 -30 -72 -26 -51 -30 -71 -31 -140 -1 -166 30 -260 192 -581 115
-228 185 -385 172 -385 -10 0 -99 43 -113 55 -8 6 -40 25 -70 41 -30 16 -83
50 -117 76 -34 27 -67 48 -72 48 -5 0 -11 4 -13 8 -4 11 -159 119 -242 170
-15 9 -45 31 -66 47 -20 17 -54 44 -75 60 -55 44 -135 123 -175 174 -74 94
-78 95 -142 53 -77 -51 -264 -142 -291 -142 -9 0 -19 -4 -22 -10 -3 -6 -16
-10 -29 -10 -12 0 -26 -3 -30 -7 -4 -5 -31 -14 -59 -21 -29 -7 -56 -14 -62
-15 -5 -1 -14 -5 -20 -8 -9 -5 -68 -18 -92 -21 -5 0 -24 -6 -43 -14 -117 -44
-383 -79 -720 -94 -399 -18 -725 -16 -885 4 -16 2 -68 7 -115 11 -46 3 -87 8
-91 11 -3 2 -37 6 -75 9 -110 9 -224 25 -285 41 -31 8 -61 14 -66 12 -19 -5
-229 30 -258 42 -11 5 -45 16 -75 24 -75 19 -163 52 -236 87 -34 16 -65 29
-70 29 -4 0 -35 13 -68 29 -34 16 -72 34 -86 40 -75 34 -335 199 -327 207 3 3
25 0 48 -7 99 -26 417 -8 554 33 22 6 47 12 55 12 8 1 34 11 58 24 29 15 42
29 42 43 0 19 -4 20 -37 16 -21 -3 -97 -22 -169 -41 -209 -56 -421 -64 -569
-21 -33 9 -71 18 -85 18 -36 3 -128 82 -244 212 -44 49 -46 84 -8 119 15 14
79 74 142 134 205 195 244 229 308 276 34 25 64 46 66 46 2 0 31 18 64 40 33
22 64 40 69 40 6 0 21 8 34 18 13 10 40 24 59 32 19 7 76 32 125 55 50 22 110
47 135 54 25 7 54 17 65 21 11 5 49 15 85 24 36 9 81 21 100 26 45 11 118 22
149 21 13 -1 40 3 60 8 54 14 158 26 321 36 47 3 107 9 134 13 71 10 433 7
551 -6z m1516 -16 c27 -14 75 -43 108 -65 33 -23 64 -41 68 -41 5 0 15 -8 24
-17 8 -10 25 -25 38 -33 l22 -15 -48 -51 c-84 -89 -153 -176 -153 -194 0 -16
-18 -12 -59 14 -53 34 -351 176 -369 176 -5 0 -16 8 -25 18 -15 17 -15 20 0
43 27 39 128 119 150 119 5 0 14 5 21 12 6 6 17 13 24 14 7 2 36 12 63 22 66
27 79 26 136 -2z m-2417 -1773 c4 -5 20 -9 34 -10 15 -1 41 -4 57 -7 17 -3 50
-8 75 -11 135 -14 137 -15 132 -41 -3 -17 9 -44 39 -92 24 -37 48 -72 54 -78
5 -6 24 -26 40 -45 41 -45 100 -89 121 -89 13 0 14 -3 4 -15 -7 -8 -18 -15
-25 -15 -7 0 -32 -16 -56 -35 -43 -34 -64 -42 -71 -27 -1 4 -25 22 -53 41 -60
42 -136 108 -150 132 -5 10 -32 40 -58 68 -61 65 -177 210 -177 222 0 11 24
12 34 2z m439 -64 c64 -1 75 -7 108 -56 32 -47 87 -102 102 -103 16 0 67 -44
67 -57 0 -8 -8 -16 -17 -20 -10 -3 -30 -15 -45 -25 -34 -23 -45 -23 -53 2 -3
11 -11 20 -16 20 -15 0 -70 42 -99 74 -63 74 -113 137 -127 163 -12 21 -12 22
13 13 14 -6 45 -11 67 -11z m352 -25 c11 -2 34 -29 53 -60 52 -91 42 -102 -54
-59 -55 24 -127 73 -152 104 -10 13 -10 17 4 21 18 6 113 3 149 -6z"/>
<path d="M2360 3590 c0 -5 26 -36 59 -69 68 -68 92 -123 83 -197 -8 -73 -51
-132 -134 -185 -66 -43 -64 -62 12 -97 96 -44 157 -127 166 -226 4 -41 2 -66
-5 -70 -6 -4 -11 -14 -11 -23 0 -28 -63 -100 -123 -138 -48 -32 -58 -42 -55
-63 2 -19 12 -28 40 -38 128 -44 163 -157 86 -278 -40 -61 -73 -96 -116 -121
-38 -23 -39 -29 -10 -49 41 -29 71 -20 130 38 54 53 94 122 118 203 22 73 -9
157 -82 223 l-39 35 39 42 c125 131 131 312 14 428 -20 21 -54 48 -74 62 -37
25 -49 43 -28 43 11 0 58 46 93 89 29 36 42 132 27 201 -11 52 -21 68 -80 130
-42 45 -74 70 -88 70 -12 0 -22 -4 -22 -10z"/>
<path d="M3010 3512 c0 -5 22 -27 49 -50 55 -47 77 -87 85 -155 7 -68 -10
-105 -73 -162 -95 -86 -93 -83 -81 -105 6 -11 16 -20 22 -20 25 0 95 -71 122
-124 36 -69 38 -125 6 -181 -12 -22 -26 -42 -30 -45 -50 -34 -110 -87 -110
-97 1 -17 27 -39 74 -63 38 -19 52 -33 67 -68 40 -94 16 -159 -108 -294 -57
-61 -64 -81 -33 -98 31 -17 84 19 141 95 68 91 99 164 99 231 0 29 -4 56 -10
59 -5 3 -10 16 -10 27 0 12 -22 42 -48 69 l-49 49 44 45 c23 25 43 53 43 63 0
10 7 27 15 38 16 22 20 90 5 99 -5 3 -10 18 -10 33 0 47 -78 163 -127 191 -16
8 -12 15 34 59 75 72 87 101 80 188 -6 70 -26 121 -66 168 -32 37 -131 73
-131 48z"/>
<path d="M1080 3351 c-76 -25 -200 -118 -200 -151 0 -10 -4 -22 -10 -25 -5 -3
-10 -17 -10 -31 0 -40 60 -31 74 11 10 31 37 57 96 95 48 31 64 35 134 39 117
5 193 -18 258 -80 54 -51 66 -56 99 -39 29 16 24 27 -34 85 -75 73 -141 97
-277 101 -58 2 -116 0 -130 -5z"/>
<path d="M3683 3284 c-3 -8 3 -25 14 -37 39 -45 55 -81 60 -137 8 -89 -4 -144
-43 -195 -43 -57 -44 -85 -1 -122 66 -56 97 -130 97 -230 -1 -91 -18 -133 -92
-226 -23 -28 -23 -29 -4 -43 28 -20 50 -17 84 11 38 32 69 95 83 171 13 65 13
61 5 124 -13 99 -37 156 -92 214 -29 32 -34 43 -26 55 45 64 79 223 54 253 -5
7 -12 27 -15 43 -8 48 -23 78 -52 108 -31 30 -62 35 -72 11z"/>
<path d="M1147 3150 c-43 -13 -97 -59 -97 -81 0 -30 28 -34 56 -8 36 33 134
34 180 2 48 -34 80 -39 94 -13 9 18 8 25 -6 41 -42 46 -166 79 -227 59z"/>
<path d="M4254 2935 c-4 -10 4 -27 23 -48 65 -70 75 -98 71 -205 -3 -89 -6
-101 -34 -142 -17 -26 -33 -56 -36 -68 -6 -20 -2 -22 31 -22 51 0 76 21 100
85 50 133 16 325 -69 386 -38 28 -79 35 -86 14z"/>
</g>
</svg>
