<?xml version="1.0" standalone="no"?>
<!DOCTYPE svg PUBLIC "-//W3C//DTD SVG 20010904//EN"
 "http://www.w3.org/TR/2001/REC-SVG-20010904/DTD/svg10.dtd">
<svg version="1.0" xmlns="http://www.w3.org/2000/svg"
 width="611.000000pt" height="611.000000pt" viewBox="0 0 611.000000 611.000000"
 preserveAspectRatio="xMidYMid meet">

<g transform="translate(0.000000,611.000000) scale(0.100000,-0.100000)"
fill="#000000" stroke="none">
<path d="M2150 3859 c-58 -4 -132 -10 -165 -14 -33 -4 -82 -8 -110 -10 -27 -2
-68 -6 -90 -9 -22 -4 -58 -9 -80 -12 -154 -21 -225 -34 -241 -42 -11 -5 -40
-12 -66 -15 -26 -3 -56 -11 -67 -16 -11 -6 -27 -11 -35 -11 -9 0 -35 -9 -59
-19 -23 -11 -66 -27 -94 -36 -29 -9 -53 -21 -53 -26 0 -5 -8 -9 -19 -9 -39 0
-197 -77 -301 -146 -98 -66 -115 -78 -118 -86 -2 -5 -9 -8 -15 -8 -15 0 -79
-52 -134 -110 -24 -25 -47 -48 -51 -51 -4 -4 -59 -58 -122 -120 -128 -126
-180 -186 -180 -205 0 -39 37 -114 79 -158 25 -27 58 -62 73 -77 15 -16 32
-29 38 -29 5 0 10 -4 10 -9 0 -8 38 -39 100 -81 13 -8 40 -30 62 -47 22 -18
44 -33 50 -33 5 0 16 -6 23 -12 47 -42 245 -168 265 -168 5 0 33 -14 62 -31
29 -17 70 -38 91 -45 20 -7 52 -20 70 -27 17 -8 52 -22 77 -32 25 -10 69 -29
98 -42 29 -13 57 -23 62 -23 6 0 43 -11 83 -26 39 -14 86 -25 102 -26 17 0 39
-5 49 -11 11 -5 56 -13 100 -18 89 -9 143 -17 166 -26 8 -4 26 -7 40 -9 14 -1
39 -5 55 -8 37 -7 78 -12 175 -21 41 -4 89 -11 105 -15 60 -18 327 -33 585
-32 248 0 735 15 735 22 0 0 36 3 80 6 89 5 97 6 210 29 44 8 89 17 100 19 24
5 219 56 325 86 41 12 93 30 115 40 22 10 60 24 85 30 42 11 132 55 209 101
38 23 57 19 70 -13 17 -43 181 -198 249 -236 17 -10 47 -32 68 -50 40 -34 157
-118 274 -198 36 -24 96 -66 134 -93 38 -26 94 -61 125 -77 31 -16 58 -32 61
-36 3 -4 21 -14 40 -23 19 -9 53 -27 75 -40 74 -45 116 -26 95 42 -7 21 -16
42 -21 47 -5 6 -9 18 -9 28 0 10 -4 18 -9 18 -5 0 -11 14 -15 30 -9 48 -54
154 -123 295 -36 72 -80 168 -100 215 -19 47 -43 103 -53 125 -43 96 -68 214
-64 301 3 72 29 142 112 304 41 80 86 168 99 195 40 83 85 169 105 197 10 14
18 31 18 37 0 6 5 11 10 11 6 0 10 5 10 10 0 12 41 73 53 78 4 2 7 10 7 17 0
7 3 15 8 17 12 5 100 141 112 171 15 43 12 75 -7 80 -86 24 -141 16 -197 -28
-40 -32 -46 -37 -76 -56 -14 -9 -36 -26 -49 -38 -13 -11 -28 -21 -33 -21 -5 0
-33 -18 -62 -40 -29 -22 -56 -40 -59 -40 -6 0 -144 -93 -212 -143 -17 -12 -55
-40 -85 -62 -79 -57 -277 -225 -330 -279 -24 -25 -48 -46 -53 -46 -12 0 -112
79 -177 140 -65 62 -135 120 -143 120 -4 0 -17 10 -29 21 -66 62 -310 199
-523 293 -33 15 -76 35 -95 46 -59 31 -440 174 -440 165 0 -3 -12 0 -27 6 -43
17 -91 29 -173 44 -41 7 -106 21 -145 29 -38 9 -86 18 -105 20 -19 2 -51 6
-70 10 -19 4 -51 9 -70 12 -19 2 -46 7 -60 10 -42 8 -478 10 -590 3z m565 -77
c55 -6 130 -17 166 -25 86 -20 119 -25 202 -33 37 -4 70 -11 73 -15 3 -5 20
-9 39 -9 19 0 36 -4 39 -9 3 -4 24 -11 47 -15 39 -6 228 -66 274 -86 56 -25
115 -47 155 -60 25 -7 52 -20 61 -27 8 -7 19 -13 23 -13 4 0 39 -15 79 -34 40
-18 101 -46 137 -61 36 -16 88 -44 116 -62 28 -18 54 -33 57 -33 7 0 103 -57
122 -72 6 -5 44 -30 85 -57 41 -27 136 -108 210 -180 74 -72 144 -134 156
-137 26 -7 80 15 115 47 62 57 114 101 192 162 15 12 44 37 64 55 20 17 42 32
49 32 6 0 20 11 30 25 10 14 24 25 30 25 6 0 26 14 44 30 18 17 38 30 43 30 5
0 21 9 35 21 36 27 149 99 158 99 9 0 226 130 247 148 11 10 17 11 17 3 0 -11
-28 -60 -40 -71 -13 -10 -100 -157 -100 -167 0 -6 -6 -16 -14 -22 -8 -7 -18
-26 -21 -42 -4 -16 -10 -29 -15 -29 -5 0 -12 -10 -15 -22 -6 -19 -143 -309
-176 -370 -5 -10 -9 -23 -9 -30 0 -7 -14 -40 -30 -72 -26 -51 -30 -71 -31
-140 -1 -166 30 -260 192 -581 115 -228 185 -385 172 -385 -10 0 -99 43 -113
55 -8 6 -40 25 -70 41 -30 16 -83 50 -117 76 -34 27 -67 48 -72 48 -5 0 -11 4
-13 8 -4 11 -159 119 -242 170 -15 9 -45 31 -66 47 -20 17 -54 44 -75 60 -55
44 -135 123 -175 174 -74 94 -78 95 -142 53 -77 -51 -264 -142 -291 -142 -9 0
-19 -4 -22 -10 -3 -6 -16 -10 -29 -10 -12 0 -26 -3 -30 -7 -4 -5 -31 -14 -59
-21 -29 -7 -56 -14 -62 -15 -5 -1 -14 -5 -20 -8 -9 -5 -68 -18 -92 -21 -5 0
-24 -6 -43 -14 -117 -44 -383 -79 -720 -94 -399 -18 -725 -16 -885 4 -16 2
-68 7 -115 11 -46 3 -87 8 -91 11 -3 2 -37 6 -75 9 -110 9 -224 25 -285 41
-31 8 -61 14 -66 12 -19 -5 -229 30 -258 42 -11 5 -45 16 -75 24 -75 19 -163
52 -236 87 -34 16 -65 29 -70 29 -4 0 -35 13 -68 29 -34 16 -72 34 -86 40 -45
20 -133 73 -230 137 -151 101 -159 110 -80 92 25 -5 170 -12 323 -15 287 -5
315 -2 287 32 -11 14 -48 15 -284 14 -149 0 -299 2 -332 6 -41 5 -64 4 -68 -4
-13 -21 -134 66 -221 159 -75 80 -105 116 -110 132 -6 17 31 78 46 78 5 0 61
51 126 113 193 186 245 233 311 281 34 25 64 46 66 46 2 0 31 18 64 40 33 22
64 40 69 40 6 0 21 8 34 18 13 10 40 24 59 32 19 7 76 32 125 55 50 22 110 47
135 54 25 7 54 17 65 21 11 5 49 15 85 24 36 9 81 21 100 26 45 11 118 22 149
21 13 -1 40 3 60 8 54 14 158 26 321 36 47 3 107 9 134 13 71 10 433 7 551 -6z"/>
<path d="M1132 3280 c-41 -17 -90 -60 -96 -86 -12 -45 4 -43 53 6 71 71 140
79 219 25 44 -30 62 -32 62 -5 0 32 -86 70 -157 69 -32 0 -68 -4 -81 -9z"/>
<path d="M1183 3088 c-27 -13 -53 -75 -46 -111 11 -55 60 -86 123 -77 23 3 77
47 82 67 8 32 -11 81 -40 102 -35 24 -90 34 -119 19z"/>
</g>
</svg>
