<?xml version="1.0" standalone="no"?>
<!DOCTYPE svg PUBLIC "-//W3C//DTD SVG 20010904//EN"
 "http://www.w3.org/TR/2001/REC-SVG-20010904/DTD/svg10.dtd">
<svg version="1.0" xmlns="http://www.w3.org/2000/svg"
 width="611.000000pt" height="611.000000pt" viewBox="0 0 611.000000 611.000000"
 preserveAspectRatio="xMidYMid meet">

<g transform="translate(0.000000,611.000000) scale(0.100000,-0.100000)"
fill="#000000" stroke="none">
<path d="M2167 4144 c-1 -1 -41 -4 -89 -7 -119 -9 -276 -42 -393 -84 -92 -34
-270 -120 -285 -138 -7 -8 -18 -15 -24 -15 -6 0 -35 -16 -63 -35 -29 -19 -57
-35 -63 -35 -5 0 -10 -4 -10 -10 0 -5 -5 -10 -11 -10 -17 0 -139 -102 -210
-177 -60 -62 -211 -269 -226 -311 -4 -9 -17 -34 -30 -54 -75 -121 -100 -192
-102 -288 0 -47 16 -138 29 -155 4 -5 10 -23 14 -40 13 -54 87 -194 109 -203
4 -2 7 -8 7 -14 0 -20 92 -137 172 -219 85 -87 119 -118 198 -179 25 -19 65
-52 90 -73 25 -21 56 -44 70 -52 70 -40 329 -164 354 -169 15 -4 47 -15 70
-26 22 -10 60 -21 83 -25 24 -4 45 -10 47 -14 3 -4 29 -8 57 -10 29 -1 56 -4
59 -6 14 -8 137 -16 274 -16 109 -1 162 4 236 20 52 12 131 28 175 36 44 8 94
18 112 24 17 5 34 7 37 3 3 -3 6 0 6 6 0 7 6 12 14 12 38 0 294 115 386 174
99 63 239 160 263 181 14 14 30 25 35 25 11 0 198 193 285 295 62 71 118 128
122 123 2 -2 21 -37 42 -79 22 -42 62 -109 89 -149 27 -40 67 -106 89 -146 22
-40 48 -81 58 -92 9 -10 17 -23 17 -28 0 -33 217 -214 255 -214 8 0 39 -9 70
-21 77 -29 172 -29 212 -1 69 49 81 138 33 229 -17 32 -30 69 -28 82 4 30 66
80 170 134 87 46 138 91 178 156 32 52 40 114 19 154 -17 33 -108 117 -143
133 -17 7 -46 26 -65 42 -29 25 -33 32 -26 60 5 26 81 143 104 162 30 24 45
70 46 134 0 66 -1 69 -35 97 -38 32 -86 51 -172 69 -70 14 -72 23 -28 110 71
141 12 241 -138 234 -87 -4 -127 -14 -207 -54 -139 -69 -207 -118 -284 -202
-73 -80 -174 -235 -211 -325 -18 -43 -33 -79 -34 -80 -1 -2 -17 25 -36 60 -73
136 -163 238 -350 398 -115 98 -306 223 -490 320 -25 13 -47 26 -50 29 -8 9
-188 90 -233 106 -23 8 -51 18 -62 24 -11 5 -36 14 -55 19 -19 6 -75 24 -125
41 -49 16 -115 35 -147 40 -50 9 -256 28 -261 24z m243 -86 c112 -23 357 -103
452 -146 37 -17 82 -38 100 -47 85 -39 306 -167 446 -258 81 -53 291 -248 363
-337 20 -25 53 -79 74 -120 20 -41 41 -83 46 -93 6 -10 19 -36 31 -58 22 -42
58 -60 83 -39 8 7 15 21 15 31 0 10 4 28 10 41 5 13 21 55 36 93 15 39 49 103
76 144 26 41 48 78 48 82 0 5 4 9 8 9 4 0 15 12 24 28 46 77 164 170 310 244
62 32 92 41 150 45 139 10 160 -20 104 -145 -62 -137 -47 -178 76 -207 122
-28 135 -34 147 -64 14 -33 4 -64 -36 -106 -77 -82 -128 -165 -135 -220 -8
-71 22 -115 127 -180 87 -54 115 -83 115 -120 0 -57 -54 -111 -170 -170 -79
-41 -156 -101 -181 -143 -17 -30 -20 -47 -15 -86 3 -27 13 -60 21 -73 9 -13
23 -42 30 -64 13 -37 13 -41 -5 -59 -25 -25 -42 -25 -126 1 -139 43 -249 147
-344 325 -17 33 -44 77 -59 99 -35 49 -56 85 -116 195 -30 56 -58 94 -81 109
-18 13 -34 28 -34 33 0 6 -21 -14 -47 -43 -27 -29 -66 -72 -88 -95 -22 -24
-53 -60 -70 -80 -64 -78 -172 -193 -220 -233 -27 -24 -61 -53 -75 -65 -14 -13
-54 -42 -90 -66 -36 -24 -83 -58 -105 -75 -53 -41 -199 -119 -294 -156 -42
-16 -87 -35 -101 -43 -46 -24 -123 -44 -275 -71 -82 -14 -166 -29 -185 -34
-39 -9 -224 -7 -351 4 -128 11 -280 47 -409 98 -108 43 -291 133 -318 157 -9
8 -35 27 -57 42 -22 15 -58 45 -80 65 -22 21 -54 48 -72 61 -18 13 -45 35 -61
50 -15 15 -37 34 -48 43 -125 106 -325 439 -341 573 -5 37 -4 39 18 32 36 -11
438 -22 455 -13 12 7 13 12 3 23 -9 11 -53 14 -232 13 -256 0 -259 0 -238 73
17 59 39 105 72 155 16 23 33 52 39 65 12 27 23 45 67 108 18 25 48 68 67 95
46 66 169 192 237 242 45 33 150 98 297 183 98 57 292 121 442 146 14 2 41 8
60 13 66 17 307 11 410 -11z"/>
<path d="M1143 3590 c-36 -27 -63 -74 -49 -87 2 -3 24 16 49 41 52 55 79 58
144 20 46 -26 60 -26 50 1 -10 26 -70 55 -113 55 -29 0 -51 -8 -81 -30z"/>
<path d="M1706 3491 c-4 -5 -2 -20 3 -34 25 -66 43 -255 38 -397 -7 -174 -53
-410 -106 -542 -18 -47 6 -31 29 20 12 26 28 61 36 77 72 157 96 538 49 789
-7 34 -32 96 -39 96 -3 0 -7 -4 -10 -9z"/>
<path d="M1196 3426 c-52 -51 -25 -146 42 -148 71 -2 108 82 60 136 -35 39
-72 43 -102 12z"/>
</g>
</svg>
