<?xml version="1.0" standalone="no"?>
<!DOCTYPE svg PUBLIC "-//W3C//DTD SVG 20010904//EN"
 "http://www.w3.org/TR/2001/REC-SVG-20010904/DTD/svg10.dtd">
<svg version="1.0" xmlns="http://www.w3.org/2000/svg"
 width="611.000000pt" height="611.000000pt" viewBox="0 0 611.000000 611.000000"
 preserveAspectRatio="xMidYMid meet">

<g transform="translate(0.000000,611.000000) scale(0.100000,-0.100000)"
fill="#000000" stroke="none">
<path d="M1515 4866 c-107 -25 -193 -114 -215 -223 -27 -130 49 -280 167 -330
39 -16 68 -10 59 12 -3 8 -1 17 4 20 5 3 -2 21 -15 41 -49 72 -42 170 16 218
61 51 148 43 234 -22 71 -54 97 -115 120 -282 4 -25 7 -47 7 -50 1 -3 -2 -13
-6 -22 -6 -14 -20 -18 -56 -18 -27 0 -61 -5 -77 -11 -15 -6 -59 -17 -98 -24
-341 -66 -788 -350 -942 -600 -19 -30 -89 -175 -103 -215 -8 -19 -24 -57 -36
-85 -46 -104 -66 -163 -81 -245 -42 -232 -28 -427 41 -576 34 -72 91 -161 146
-229 74 -91 244 -227 335 -269 22 -10 58 -27 80 -38 22 -11 49 -21 60 -23 11
-2 21 -4 23 -5 1 -2 5 -3 10 -4 4 -1 12 -4 17 -7 14 -9 69 -23 79 -20 4 1 28
-6 52 -15 24 -9 49 -14 57 -11 7 3 36 1 63 -4 58 -11 223 -12 619 -4 160 3
382 7 495 8 113 1 210 5 215 8 6 4 66 10 135 13 69 4 148 13 175 21 41 11 111
23 225 39 8 1 20 4 25 8 6 3 30 9 55 12 45 7 159 34 256 62 28 7 57 14 65 14
24 0 184 66 324 135 72 35 157 75 190 90 201 92 337 167 425 237 44 35 80 65
80 69 0 3 15 21 33 41 34 37 92 122 177 258 63 102 134 162 223 192 63 20 91
23 217 22 l145 0 79 -37 c124 -58 216 -46 216 29 0 37 -46 170 -67 195 -7 8
-13 19 -13 22 0 4 -8 15 -18 25 -22 22 -139 112 -146 112 -3 0 -24 13 -48 29
-113 75 -248 110 -352 90 -27 -5 -51 -8 -52 -6 -2 2 -9 39 -15 83 -18 119 -62
189 -154 249 -150 97 -209 111 -258 65 -15 -14 -27 -30 -27 -36 0 -6 -8 -18
-18 -28 -11 -9 -25 -35 -31 -59 -7 -23 -16 -49 -20 -57 -5 -8 -9 -49 -10 -91
-4 -128 46 -244 156 -368 l62 -69 -21 -68 c-32 -103 -97 -179 -207 -241 -79
-43 -164 -59 -233 -43 -142 34 -286 116 -336 192 -13 18 -46 69 -75 114 -106
164 -131 200 -181 259 -28 33 -71 78 -96 100 -126 113 -165 150 -168 156 -10
23 -233 188 -315 233 -26 14 -59 33 -73 43 -78 51 -306 161 -379 183 -22 7
-44 16 -50 20 -5 4 -30 13 -55 20 -25 6 -67 18 -95 25 -56 15 -294 39 -303 31
-3 -3 -11 -1 -18 5 -9 7 -19 7 -30 1 -10 -6 -29 -6 -47 -1 -16 5 -33 7 -36 4
-4 -2 -40 -5 -81 -6 l-75 -2 4 53 c5 77 68 189 154 273 64 61 131 87 180 68
40 -15 111 -85 158 -155 23 -33 43 -62 45 -64 1 -2 13 7 25 19 l23 23 -19 90
c-34 174 -77 247 -166 285 -111 48 -223 24 -322 -67 -50 -48 -57 -59 -87 -146
l-16 -48 -17 61 c-21 76 -67 152 -115 189 -71 57 -183 80 -277 58z m177 -54
c90 -32 149 -112 182 -243 22 -88 21 -90 -13 -37 -16 25 -44 57 -63 71 -42 32
-137 77 -163 77 -79 0 -164 -64 -184 -137 -17 -62 18 -193 51 -193 6 0 9 -3 6
-6 -9 -8 -47 14 -90 54 -80 74 -101 220 -45 309 29 46 94 101 135 113 45 14
134 10 184 -8z m606 -13 c90 -20 139 -85 172 -228 11 -51 19 -95 17 -98 -3 -2
-19 16 -37 42 -46 67 -108 123 -157 141 -37 15 -50 15 -86 4 -77 -23 -171
-103 -227 -194 l-24 -40 -9 28 c-6 19 -4 49 8 99 29 120 74 181 170 230 54 28
103 33 173 16z m117 -686 c11 -6 52 -17 91 -23 39 -6 83 -18 99 -26 15 -8 37
-14 49 -14 12 0 30 -6 41 -13 11 -7 41 -21 67 -31 25 -9 72 -30 104 -47 32
-16 63 -29 70 -29 7 0 17 -6 21 -12 4 -7 22 -20 38 -29 71 -37 120 -64 125
-70 3 -3 34 -23 70 -44 36 -21 81 -53 100 -70 19 -18 46 -39 60 -49 54 -35
422 -391 480 -464 18 -23 51 -79 85 -150 37 -73 136 -173 215 -215 133 -70
196 -89 295 -89 94 1 201 29 218 58 4 8 14 14 22 14 19 0 131 91 160 131 34
47 85 155 85 180 0 11 5 29 11 41 18 33 2 87 -29 101 -49 21 -73 53 -139 184
-44 90 -46 96 -44 179 1 71 5 97 26 141 15 30 33 57 41 60 15 5 154 -70 178
-96 45 -51 59 -96 63 -206 6 -126 18 -155 62 -155 23 0 32 7 43 30 15 35 29
41 95 42 68 1 131 -11 167 -33 17 -10 38 -19 46 -19 8 0 33 -16 55 -35 22 -19
46 -35 52 -35 7 0 20 -11 29 -25 9 -13 24 -27 34 -30 42 -13 128 -180 106
-203 -3 -3 -16 0 -29 6 -140 71 -379 85 -531 30 -115 -42 -199 -120 -291 -273
-86 -143 -183 -253 -285 -320 -71 -47 -432 -233 -575 -297 -133 -59 -201 -64
-945 -73 -267 -3 -498 -8 -515 -10 -16 -2 -70 -7 -120 -11 -49 -3 -106 -8
-125 -10 -115 -13 -762 -8 -1292 10 -96 3 -114 9 -166 50 -24 19 -82 81 -82
87 0 6 31 31 130 102 60 43 261 170 385 243 177 103 286 193 313 257 9 22 9
29 -1 32 -22 7 -289 15 -532 16 -280 2 -468 9 -485 19 -8 5 -7 27 5 86 21 105
48 176 147 384 89 186 158 270 333 401 44 33 88 67 98 75 10 8 46 29 80 45 34
17 71 35 82 41 94 51 287 121 385 138 36 7 72 14 80 17 8 4 42 8 75 10 33 3
62 7 65 10 10 10 485 -3 505 -14z m-1685 -1239 c47 -4 87 -8 89 -10 4 -3 -19
-30 -107 -129 l-44 -50 -24 30 c-24 30 -94 157 -94 170 0 4 21 5 48 1 26 -4
85 -9 132 -12z m399 -14 c22 0 20 -3 -20 -30 -24 -16 -61 -44 -82 -62 l-38
-32 -56 56 c-30 31 -53 60 -49 66 3 6 48 8 113 6 60 -2 119 -3 132 -4z m369
-11 c37 1 25 -13 -40 -50 -110 -63 -121 -65 -172 -35 -40 24 -86 72 -86 92 0
4 62 4 138 -1 75 -4 147 -7 160 -6z m-581 -99 c36 -38 69 -70 72 -70 4 0 38
26 77 58 101 86 101 86 137 45 27 -30 28 -35 14 -51 -8 -9 -27 -43 -42 -74
-14 -32 -27 -58 -28 -58 -11 0 -112 41 -122 50 -23 19 -47 -2 -81 -74 -19 -39
-34 -76 -34 -83 0 -7 -5 -13 -10 -13 -22 0 -93 43 -132 80 -69 64 -83 60 -137
-47 -12 -24 -25 -43 -29 -43 -4 0 -18 20 -31 45 -25 48 -43 195 -31 265 l5 35
24 -45 c27 -53 88 -130 102 -130 10 0 131 124 157 161 7 10 16 19 18 19 3 0
35 -31 71 -70z m404 -60 c13 0 -16 -20 -89 -61 l-33 -19 26 43 c14 23 28 50
31 60 6 17 8 17 28 -2 12 -12 29 -21 37 -21z m-223 -136 c-22 -21 -158 -98
-158 -89 0 3 16 36 35 74 l35 69 50 -21 c40 -17 48 -24 38 -33z m-342 -35 c27
-23 68 -50 92 -60 24 -11 42 -24 40 -29 -2 -6 -41 -37 -88 -70 l-84 -59 -24
22 c-13 12 -35 41 -49 65 -22 38 -24 45 -11 60 8 9 27 38 42 65 15 26 29 47
31 47 2 0 25 -19 51 -41z m2707 -433 c-9 -5 -41 -11 -72 -13 -77 -5 -332 -32
-356 -36 -26 -6 -112 -15 -200 -22 -38 -3 -92 -10 -120 -15 -78 -14 -189 -19
-475 -25 -146 -3 -339 -7 -430 -10 -276 -9 -370 -7 -484 10 -60 8 -132 16
-160 16 -46 1 -97 16 -136 40 -8 5 -30 17 -48 26 -17 9 -32 20 -32 25 0 11
165 0 207 -13 19 -6 245 -11 570 -12 578 -2 663 0 733 15 25 6 223 13 440 17
512 9 582 8 563 -3z m110 7 c-7 -2 -21 -2 -30 0 -10 3 -4 5 12 5 17 0 24 -2
18 -5z m-33 -53 c0 -5 -4 -10 -10 -10 -5 0 -10 5 -10 10 0 6 5 10 10 10 6 0
10 -4 10 -10z m-55 -9 c-6 -5 -39 -14 -75 -21 -36 -6 -85 -16 -110 -20 -25 -5
-70 -14 -100 -20 -30 -5 -75 -14 -100 -19 -25 -5 -83 -12 -130 -16 -47 -4 -89
-9 -94 -12 -9 -6 -565 -22 -911 -27 -110 -2 -234 -7 -275 -10 -41 -4 -91 -9
-110 -10 -71 -7 -230 25 -230 46 0 12 88 10 95 -2 5 -8 11 -8 19 -1 7 6 16 8
19 5 7 -8 68 -8 382 0 143 3 370 9 505 12 135 3 279 10 320 15 82 11 204 25
290 34 30 3 69 8 85 11 17 3 97 12 179 20 82 8 152 16 154 19 3 3 26 5 51 5
26 0 41 -4 36 -9z m-2230 -81 c3 -5 1 -10 -4 -10 -6 0 -11 5 -11 10 0 6 2 10
4 10 3 0 8 -4 11 -10z m72 -16 c-3 -3 -12 -4 -19 -1 -8 3 -5 6 6 6 11 1 17 -2
13 -5z"/>
<path d="M1470 3552 c-36 -27 -100 -70 -142 -96 -93 -57 -163 -117 -157 -135
3 -8 16 -4 41 16 35 27 67 48 195 124 111 66 184 139 140 139 -7 0 -42 -22
-77 -48z"/>
<path d="M1505 3337 c-10 -7 -49 -30 -85 -51 -103 -62 -140 -95 -140 -121 0
-54 40 -48 155 20 22 14 58 34 80 46 56 30 75 49 75 74 0 42 -42 58 -85 32z"/>
<path d="M2190 2719 c-25 -6 -70 -8 -102 -6 -66 5 -81 -2 -76 -34 4 -29 46
-38 151 -35 37 1 67 1 67 -1 0 -13 -33 -62 -57 -86 -40 -37 -80 -47 -137 -34
-55 12 -72 2 -62 -38 9 -34 48 -48 110 -41 70 8 136 55 189 136 89 134 68 170
-83 139z"/>
</g>
</svg>
