<?xml version="1.0" standalone="no"?>
<!DOCTYPE svg PUBLIC "-//W3C//DTD SVG 20010904//EN"
 "http://www.w3.org/TR/2001/REC-SVG-20010904/DTD/svg10.dtd">
<svg version="1.0" xmlns="http://www.w3.org/2000/svg"
 width="611.000000pt" height="611.000000pt" viewBox="0 0 611.000000 611.000000"
 preserveAspectRatio="xMidYMid meet">

<g transform="translate(0.000000,611.000000) scale(0.100000,-0.100000)"
fill="#000000" stroke="none">
<path d="M2075 4233 c-16 -1 -88 -8 -160 -14 -71 -6 -143 -15 -160 -21 -16 -5
-61 -15 -100 -23 -343 -67 -788 -350 -942 -600 -19 -30 -89 -175 -103 -215 -8
-19 -24 -57 -36 -85 -46 -104 -66 -163 -81 -245 -42 -232 -28 -427 41 -576 34
-72 91 -161 146 -229 74 -91 244 -227 335 -269 22 -10 58 -27 80 -38 22 -11
47 -20 55 -21 8 -2 21 -6 28 -10 6 -5 12 -5 12 -1 0 3 6 2 13 -3 14 -12 67
-27 81 -24 4 1 28 -6 52 -15 24 -9 49 -14 57 -11 7 3 36 1 63 -4 58 -11 223
-12 619 -4 160 3 382 7 495 8 113 1 210 5 215 8 6 4 66 10 135 13 69 4 148 13
175 21 41 11 111 23 225 39 8 1 20 4 25 8 6 3 30 9 55 12 45 7 159 34 256 62
28 7 57 14 65 14 24 0 184 66 324 135 72 35 157 75 190 90 201 92 337 167 425
237 44 35 80 65 80 69 0 3 15 21 33 41 34 37 92 122 177 258 63 102 134 162
223 192 63 20 91 23 217 22 l145 0 79 -37 c124 -58 216 -46 216 29 0 37 -46
170 -67 195 -7 8 -13 19 -13 22 0 4 -8 15 -18 25 -22 22 -139 112 -146 112 -3
0 -24 13 -48 29 -113 75 -248 110 -352 90 -27 -5 -51 -8 -52 -6 -2 2 -9 39
-15 83 -18 119 -62 189 -154 249 -150 97 -209 111 -258 65 -15 -14 -27 -30
-27 -36 0 -6 -8 -18 -18 -28 -11 -9 -25 -35 -31 -59 -7 -23 -16 -49 -20 -57
-5 -8 -9 -49 -10 -91 -4 -128 46 -244 156 -368 l62 -69 -21 -68 c-32 -103 -97
-179 -207 -241 -79 -43 -164 -59 -233 -43 -142 34 -286 116 -336 192 -13 18
-46 69 -75 114 -106 164 -131 200 -181 259 -28 33 -71 78 -96 100 -126 113
-165 150 -168 156 -10 23 -233 188 -315 233 -26 14 -59 33 -73 43 -78 51 -306
161 -379 183 -22 7 -44 16 -50 20 -5 4 -30 13 -55 20 -25 6 -67 18 -95 25 -56
15 -294 39 -303 31 -3 -3 -11 -1 -18 5 -9 7 -19 7 -32 0 -11 -6 -21 -9 -23 -7
-8 7 -56 12 -84 9z m340 -120 c11 -6 52 -17 91 -23 39 -6 83 -18 99 -26 15 -8
37 -14 49 -14 12 0 30 -6 41 -13 11 -7 41 -21 67 -31 25 -9 72 -30 104 -47 32
-16 63 -29 70 -29 7 0 17 -6 21 -12 4 -7 22 -20 38 -29 71 -37 120 -64 125
-70 3 -3 34 -23 70 -44 36 -21 81 -53 100 -70 19 -18 46 -39 60 -49 54 -35
422 -391 480 -464 18 -23 51 -79 85 -150 37 -73 136 -173 215 -215 133 -70
196 -89 295 -89 94 1 201 29 218 58 4 8 14 14 22 14 19 0 131 91 160 131 34
47 85 155 85 180 0 11 5 29 11 41 18 33 2 87 -29 101 -49 21 -73 53 -139 184
-44 90 -46 96 -44 179 1 71 5 97 26 141 15 30 33 57 41 60 15 5 154 -70 178
-96 45 -51 59 -96 63 -206 6 -126 18 -155 62 -155 23 0 32 7 43 30 15 35 29
41 95 42 68 1 131 -11 167 -33 17 -10 38 -19 46 -19 8 0 33 -16 55 -35 22 -19
46 -35 52 -35 7 0 20 -11 29 -25 9 -13 24 -27 34 -30 42 -13 128 -180 106
-203 -3 -3 -16 0 -29 6 -140 71 -379 85 -531 30 -115 -42 -199 -120 -291 -273
-86 -143 -183 -253 -285 -320 -71 -47 -432 -233 -575 -297 -133 -59 -201 -64
-945 -73 -267 -3 -498 -8 -515 -10 -16 -2 -70 -7 -120 -11 -49 -3 -106 -8
-125 -10 -71 -8 -663 -9 -925 -1 -503 15 -479 12 -517 50 -7 7 -20 18 -29 23
-27 15 -160 184 -201 254 -38 65 -46 86 -28 75 11 -7 533 -7 570 0 35 7 46 21
30 40 -12 14 -30 16 -134 10 -67 -4 -207 -8 -313 -9 l-191 -3 -6 42 c-9 55 -9
214 -1 290 18 175 45 260 167 515 89 186 158 270 333 401 44 33 88 67 98 75
10 8 46 29 80 45 34 17 71 35 82 41 94 51 287 121 385 138 36 7 72 14 80 17 8
4 42 8 75 10 33 3 62 7 65 10 10 10 485 -3 505 -14z m1048 -2027 c-9 -5 -41
-11 -72 -13 -77 -5 -332 -32 -356 -36 -26 -6 -112 -15 -200 -22 -38 -3 -92
-10 -120 -15 -78 -14 -189 -19 -475 -25 -146 -3 -339 -7 -430 -10 -276 -9
-370 -7 -484 10 -60 8 -132 16 -160 16 -46 1 -97 16 -136 40 -8 5 -30 17 -48
26 -17 9 -32 20 -32 25 0 11 165 0 207 -13 19 -6 245 -11 570 -12 578 -2 663
0 733 15 25 6 223 13 440 17 512 9 582 8 563 -3z m110 7 c-7 -2 -21 -2 -30 0
-10 3 -4 5 12 5 17 0 24 -2 18 -5z m-33 -53 c0 -5 -4 -10 -10 -10 -5 0 -10 5
-10 10 0 6 5 10 10 10 6 0 10 -4 10 -10z m-55 -9 c-6 -5 -39 -14 -75 -21 -36
-6 -85 -16 -110 -20 -25 -5 -70 -14 -100 -20 -30 -5 -75 -14 -100 -19 -25 -5
-83 -12 -130 -16 -47 -4 -89 -9 -94 -12 -9 -6 -565 -22 -911 -27 -110 -2 -234
-7 -275 -10 -41 -4 -91 -9 -110 -10 -71 -7 -230 25 -230 46 0 12 88 10 95 -2
5 -8 11 -8 19 -1 7 6 16 8 19 5 7 -8 68 -8 382 0 143 3 370 9 505 12 135 3
279 10 320 15 82 11 204 25 290 34 30 3 69 8 85 11 17 3 97 12 179 20 82 8
152 16 154 19 3 3 26 5 51 5 26 0 41 -4 36 -9z m-2230 -81 c3 -5 1 -10 -4 -10
-6 0 -11 5 -11 10 0 6 2 10 4 10 3 0 8 -4 11 -10z m72 -16 c-3 -3 -12 -4 -19
-1 -8 3 -5 6 6 6 11 1 17 -2 13 -5z"/>
<path d="M1325 3568 c-60 -22 -125 -92 -125 -135 0 -38 18 -35 39 5 29 56 85
92 146 92 41 0 59 -7 102 -36 50 -34 73 -37 73 -10 0 18 -38 50 -87 75 -45 23
-100 26 -148 9z"/>
<path d="M1365 3329 c-30 -15 -55 -66 -55 -113 0 -90 74 -144 148 -109 97 46
95 165 -4 213 -44 22 -59 23 -89 9z"/>
</g>
</svg>
