<?xml version="1.0" encoding="UTF-8"?>
<svg xmlns="http://www.w3.org/2000/svg" xmlns:xlink="http://www.w3.org/1999/xlink" width="80px" height="80px" viewBox="0 0 80 80" version="1.1">
<g id="surface1">
<path style=" stroke:none;fill-rule:nonzero;fill:rgb(0%,0%,0%);fill-opacity:1;" d="M 19.828125 16.28125 C 18.429688 16.609375 17.304688 17.773438 17.015625 19.203125 C 16.664062 20.902344 17.65625 22.867188 19.203125 23.519531 C 19.710938 23.730469 20.089844 23.652344 19.972656 23.363281 C 19.933594 23.257812 19.960938 23.140625 20.027344 23.101562 C 20.089844 23.0625 20 22.828125 19.828125 22.566406 C 19.1875 21.621094 19.28125 20.339844 20.039062 19.710938 C 20.835938 19.042969 21.976562 19.148438 23.101562 20 C 24.03125 20.707031 24.371094 21.503906 24.671875 23.691406 C 24.726562 24.019531 24.765625 24.304688 24.765625 24.34375 C 24.777344 24.386719 24.738281 24.515625 24.6875 24.632812 C 24.605469 24.816406 24.425781 24.867188 23.953125 24.867188 C 23.597656 24.867188 23.15625 24.933594 22.945312 25.011719 C 22.75 25.089844 22.171875 25.234375 21.664062 25.328125 C 17.199219 26.191406 11.347656 29.910156 9.332031 33.179688 C 9.082031 33.574219 8.167969 35.472656 7.984375 35.996094 C 7.878906 36.242188 7.671875 36.742188 7.511719 37.105469 C 6.910156 38.46875 6.648438 39.242188 6.453125 40.3125 C 5.902344 43.351562 6.085938 45.902344 6.988281 47.851562 C 7.433594 48.796875 8.179688 49.960938 8.902344 50.851562 C 9.867188 52.042969 12.09375 53.820312 13.285156 54.371094 C 13.574219 54.503906 14.042969 54.726562 14.332031 54.867188 C 14.621094 55.011719 14.972656 55.144531 15.117188 55.171875 C 15.261719 55.195312 15.394531 55.222656 15.417969 55.234375 C 15.433594 55.261719 15.484375 55.273438 15.550781 55.289062 C 15.601562 55.300781 15.707031 55.339844 15.773438 55.378906 C 15.957031 55.496094 16.675781 55.679688 16.804688 55.640625 C 16.859375 55.628906 17.171875 55.71875 17.488281 55.835938 C 17.800781 55.957031 18.128906 56.019531 18.234375 55.980469 C 18.324219 55.941406 18.703125 55.96875 19.058594 56.035156 C 19.816406 56.179688 21.976562 56.191406 27.160156 56.085938 C 29.253906 56.046875 32.160156 55.996094 33.640625 55.980469 C 35.117188 55.96875 36.386719 55.917969 36.453125 55.878906 C 36.53125 55.824219 37.316406 55.746094 38.21875 55.707031 C 39.121094 55.65625 40.15625 55.535156 40.511719 55.433594 C 41.046875 55.289062 41.964844 55.132812 43.457031 54.921875 C 43.558594 54.910156 43.71875 54.867188 43.78125 54.816406 C 43.859375 54.777344 44.175781 54.699219 44.503906 54.660156 C 45.089844 54.566406 46.582031 54.214844 47.851562 53.847656 C 48.21875 53.757812 48.597656 53.664062 48.703125 53.664062 C 49.019531 53.664062 51.113281 52.800781 52.945312 51.898438 C 53.886719 51.441406 55 50.917969 55.433594 50.71875 C 58.0625 49.515625 59.84375 48.535156 60.996094 47.617188 C 61.570312 47.160156 62.042969 46.765625 62.042969 46.714844 C 62.042969 46.675781 62.238281 46.441406 62.472656 46.179688 C 62.917969 45.695312 63.679688 44.582031 64.789062 42.800781 C 65.613281 41.464844 66.542969 40.679688 67.710938 40.289062 C 68.535156 40.027344 68.902344 39.988281 70.550781 40 L 72.449219 40 L 73.480469 40.484375 C 75.105469 41.242188 76.308594 41.085938 76.308594 40.105469 C 76.308594 39.621094 75.707031 37.878906 75.433594 37.550781 C 75.339844 37.449219 75.261719 37.304688 75.261719 37.265625 C 75.261719 37.210938 75.15625 37.066406 75.027344 36.9375 C 74.738281 36.648438 73.207031 35.472656 73.113281 35.472656 C 73.074219 35.472656 72.800781 35.300781 72.488281 35.089844 C 71.007812 34.109375 69.242188 33.652344 67.878906 33.914062 C 67.527344 33.980469 67.210938 34.019531 67.199219 33.992188 C 67.171875 33.964844 67.082031 33.480469 67.003906 32.90625 C 66.765625 31.347656 66.191406 30.433594 64.988281 29.648438 C 63.023438 28.378906 62.25 28.195312 61.609375 28.796875 C 61.414062 28.980469 61.257812 29.1875 61.257812 29.265625 C 61.257812 29.34375 61.152344 29.503906 61.019531 29.632812 C 60.878906 29.75 60.695312 30.089844 60.613281 30.40625 C 60.523438 30.707031 60.40625 31.046875 60.351562 31.152344 C 60.289062 31.257812 60.234375 31.792969 60.222656 32.34375 C 60.171875 34.019531 60.824219 35.535156 62.265625 37.160156 L 63.074219 38.0625 L 62.800781 38.953125 C 62.382812 40.300781 61.53125 41.296875 60.089844 42.105469 C 59.058594 42.671875 57.945312 42.878906 57.042969 42.671875 C 55.183594 42.226562 53.296875 41.152344 52.644531 40.15625 C 52.472656 39.921875 52.042969 39.253906 51.664062 38.664062 C 50.273438 36.519531 49.949219 36.046875 49.292969 35.273438 C 48.925781 34.84375 48.363281 34.253906 48.035156 33.964844 C 46.386719 32.488281 45.878906 32.003906 45.835938 31.925781 C 45.707031 31.621094 42.789062 29.464844 41.714844 28.875 C 41.375 28.691406 40.941406 28.441406 40.757812 28.3125 C 39.738281 27.644531 36.753906 26.203125 35.796875 25.917969 C 35.511719 25.824219 35.222656 25.707031 35.144531 25.65625 C 35.078125 25.601562 34.75 25.484375 34.425781 25.394531 C 34.097656 25.3125 33.546875 25.15625 33.179688 25.066406 C 32.449219 24.867188 29.332031 24.554688 29.214844 24.660156 C 29.175781 24.699219 29.070312 24.671875 28.980469 24.59375 C 28.859375 24.503906 28.730469 24.503906 28.585938 24.582031 C 28.457031 24.660156 28.207031 24.660156 27.972656 24.59375 C 27.761719 24.527344 27.539062 24.503906 27.5 24.542969 C 27.449219 24.566406 26.976562 24.605469 26.441406 24.621094 L 25.457031 24.648438 L 25.511719 23.953125 C 25.574219 22.945312 26.402344 21.480469 27.527344 20.378906 C 28.363281 19.582031 29.242188 19.242188 29.882812 19.488281 C 30.40625 19.6875 31.335938 20.601562 31.949219 21.519531 C 32.25 21.949219 32.511719 22.328125 32.539062 22.355469 C 32.550781 22.382812 32.710938 22.265625 32.867188 22.105469 L 33.167969 21.804688 L 32.917969 20.628906 C 32.472656 18.351562 31.910156 17.394531 30.746094 16.898438 C 29.292969 16.269531 27.828125 16.582031 26.53125 17.773438 C 25.878906 18.402344 25.785156 18.546875 25.394531 19.6875 L 25.183594 20.3125 L 24.960938 19.515625 C 24.6875 18.519531 24.082031 17.527344 23.457031 17.042969 C 22.527344 16.296875 21.058594 15.996094 19.828125 16.28125 Z M 22.148438 16.988281 C 23.324219 17.410156 24.097656 18.457031 24.527344 20.171875 C 24.816406 21.320312 24.804688 21.347656 24.359375 20.65625 C 24.148438 20.328125 23.78125 19.910156 23.535156 19.726562 C 22.984375 19.304688 21.742188 18.71875 21.402344 18.71875 C 20.367188 18.71875 19.253906 19.554688 18.992188 20.511719 C 18.769531 21.320312 19.226562 23.035156 19.660156 23.035156 C 19.738281 23.035156 19.777344 23.074219 19.738281 23.113281 C 19.621094 23.21875 19.121094 22.933594 18.558594 22.410156 C 17.511719 21.441406 17.238281 19.527344 17.972656 18.363281 C 18.351562 17.761719 19.203125 17.042969 19.738281 16.886719 C 20.328125 16.703125 21.492188 16.753906 22.148438 16.988281 Z M 30.078125 17.160156 C 31.257812 17.421875 31.898438 18.273438 32.328125 20.144531 C 32.472656 20.8125 32.578125 21.386719 32.550781 21.425781 C 32.511719 21.453125 32.304688 21.21875 32.066406 20.878906 C 31.464844 20 30.65625 19.265625 30.011719 19.03125 C 29.527344 18.835938 29.359375 18.835938 28.886719 18.980469 C 27.878906 19.28125 26.648438 20.328125 25.917969 21.519531 L 25.601562 22.042969 L 25.484375 21.675781 C 25.40625 21.425781 25.433594 21.035156 25.589844 20.378906 C 25.96875 18.808594 26.558594 18.011719 27.8125 17.367188 C 28.519531 17.003906 29.164062 16.9375 30.078125 17.160156 Z M 31.609375 26.140625 C 31.753906 26.21875 32.289062 26.359375 32.800781 26.441406 C 33.3125 26.519531 33.886719 26.675781 34.097656 26.78125 C 34.292969 26.886719 34.582031 26.964844 34.738281 26.964844 C 34.894531 26.964844 35.132812 27.042969 35.273438 27.132812 C 35.417969 27.226562 35.8125 27.410156 36.152344 27.539062 C 36.480469 27.65625 37.09375 27.933594 37.511719 28.15625 C 37.933594 28.363281 38.335938 28.535156 38.429688 28.535156 C 38.519531 28.535156 38.652344 28.613281 38.703125 28.691406 C 38.757812 28.78125 38.992188 28.953125 39.203125 29.070312 C 40.132812 29.554688 40.773438 29.910156 40.835938 29.988281 C 40.878906 30.027344 41.28125 30.289062 41.753906 30.5625 C 42.226562 30.835938 42.8125 31.257812 43.0625 31.480469 C 43.3125 31.714844 43.664062 31.988281 43.847656 32.121094 C 44.554688 32.578125 49.371094 37.238281 50.132812 38.195312 C 50.367188 38.496094 50.796875 39.226562 51.242188 40.15625 C 51.726562 41.113281 53.023438 42.421875 54.058594 42.972656 C 55.796875 43.886719 56.621094 44.136719 57.917969 44.136719 C 59.148438 44.121094 60.550781 43.757812 60.773438 43.378906 C 60.824219 43.273438 60.957031 43.195312 61.058594 43.195312 C 61.308594 43.195312 62.773438 42.003906 63.15625 41.480469 C 63.597656 40.863281 64.265625 39.449219 64.265625 39.121094 C 64.265625 38.980469 64.332031 38.742188 64.410156 38.585938 C 64.648438 38.15625 64.4375 37.449219 64.03125 37.265625 C 63.390625 36.988281 63.074219 36.570312 62.210938 34.855469 C 61.636719 33.679688 61.609375 33.597656 61.636719 32.511719 C 61.648438 31.582031 61.703125 31.242188 61.976562 30.667969 C 62.171875 30.273438 62.410156 29.921875 62.511719 29.882812 C 62.710938 29.816406 64.527344 30.796875 64.84375 31.140625 C 65.433594 31.804688 65.613281 32.394531 65.667969 33.835938 C 65.746094 35.484375 65.902344 35.863281 66.480469 35.863281 C 66.78125 35.863281 66.898438 35.773438 67.042969 35.472656 C 67.238281 35.011719 67.421875 34.933594 68.285156 34.921875 C 69.175781 34.910156 70 35.066406 70.472656 35.351562 C 70.695312 35.484375 70.96875 35.601562 71.074219 35.601562 C 71.179688 35.601562 71.503906 35.8125 71.792969 36.058594 C 72.082031 36.308594 72.394531 36.519531 72.472656 36.519531 C 72.566406 36.519531 72.734375 36.664062 72.851562 36.84375 C 72.972656 37.015625 73.167969 37.199219 73.296875 37.238281 C 73.847656 37.410156 74.972656 39.59375 74.6875 39.894531 C 74.648438 39.933594 74.476562 39.894531 74.304688 39.816406 C 72.472656 38.886719 69.34375 38.703125 67.355469 39.425781 C 65.851562 39.972656 64.75 40.996094 63.546875 42.996094 C 62.421875 44.867188 61.152344 46.308594 59.816406 47.1875 C 58.886719 47.800781 54.164062 50.234375 52.289062 51.074219 C 50.550781 51.84375 49.660156 51.910156 39.921875 52.027344 C 36.425781 52.066406 33.402344 52.132812 33.179688 52.160156 C 32.972656 52.1875 32.265625 52.25 31.609375 52.304688 C 30.96875 52.34375 30.222656 52.410156 29.972656 52.433594 C 28.46875 52.605469 20 52.539062 13.0625 52.304688 C 11.804688 52.265625 11.570312 52.1875 10.890625 51.648438 C 10.574219 51.402344 9.816406 50.589844 9.816406 50.511719 C 9.816406 50.433594 10.222656 50.105469 11.519531 49.175781 C 12.304688 48.613281 14.933594 46.949219 16.558594 45.996094 C 18.875 44.648438 20.300781 43.46875 20.65625 42.632812 C 20.773438 42.34375 20.773438 42.25 20.640625 42.210938 C 20.351562 42.121094 16.859375 42.015625 13.679688 42.003906 C 10.011719 41.976562 7.550781 41.886719 7.328125 41.753906 C 7.226562 41.6875 7.238281 41.402344 7.394531 40.628906 C 7.671875 39.253906 8.023438 38.324219 9.320312 35.601562 C 10.484375 33.167969 11.386719 32.066406 13.679688 30.351562 C 14.253906 29.921875 14.828125 29.476562 14.960938 29.371094 C 15.089844 29.265625 15.5625 28.992188 16.007812 28.78125 C 16.453125 28.558594 16.9375 28.324219 17.082031 28.246094 C 18.3125 27.578125 20.835938 26.664062 22.121094 26.441406 C 22.589844 26.347656 23.0625 26.257812 23.167969 26.21875 C 23.273438 26.164062 23.71875 26.113281 24.148438 26.085938 C 24.582031 26.046875 24.960938 25.996094 25 25.957031 C 25.132812 25.824219 31.347656 25.996094 31.609375 26.140625 Z M 9.554688 42.355469 C 10.171875 42.410156 10.695312 42.460938 10.71875 42.488281 C 10.773438 42.527344 10.472656 42.878906 9.320312 44.175781 L 8.742188 44.828125 L 8.429688 44.4375 C 8.113281 44.042969 7.199219 42.382812 7.199219 42.210938 C 7.199219 42.160156 7.472656 42.148438 7.828125 42.199219 C 8.167969 42.25 8.941406 42.316406 9.554688 42.355469 Z M 14.777344 42.539062 C 15.066406 42.539062 15.039062 42.578125 14.515625 42.933594 C 14.203125 43.140625 13.71875 43.507812 13.441406 43.742188 L 12.945312 44.164062 L 12.210938 43.429688 C 11.820312 43.023438 11.519531 42.644531 11.570312 42.566406 C 11.609375 42.488281 12.199219 42.460938 13.050781 42.488281 C 13.835938 42.511719 14.605469 42.527344 14.777344 42.539062 Z M 19.605469 42.683594 C 20.089844 42.671875 19.933594 42.851562 19.082031 43.335938 C 17.644531 44.164062 17.5 44.1875 16.832031 43.796875 C 16.308594 43.480469 15.707031 42.851562 15.707031 42.589844 C 15.707031 42.539062 16.519531 42.539062 17.511719 42.605469 C 18.496094 42.65625 19.4375 42.695312 19.605469 42.683594 Z M 12.003906 43.980469 C 12.472656 44.476562 12.90625 44.894531 12.945312 44.894531 C 12.996094 44.894531 13.441406 44.554688 13.953125 44.136719 C 15.273438 43.011719 15.273438 43.011719 15.746094 43.546875 C 16.097656 43.941406 16.113281 44.003906 15.929688 44.214844 C 15.824219 44.332031 15.574219 44.777344 15.378906 45.183594 C 15.195312 45.601562 15.027344 45.941406 15.011719 45.941406 C 14.867188 45.941406 13.546875 45.40625 13.417969 45.289062 C 13.113281 45.039062 12.800781 45.3125 12.355469 46.257812 C 12.105469 46.765625 11.910156 47.25 11.910156 47.34375 C 11.910156 47.433594 11.84375 47.511719 11.78125 47.511719 C 11.492188 47.511719 10.5625 46.949219 10.050781 46.464844 C 9.148438 45.628906 8.964844 45.679688 8.257812 47.082031 C 8.101562 47.394531 7.933594 47.644531 7.878906 47.644531 C 7.828125 47.644531 7.644531 47.382812 7.472656 47.054688 C 7.148438 46.425781 6.910156 44.503906 7.066406 43.585938 L 7.132812 43.128906 L 7.449219 43.71875 C 7.800781 44.410156 8.597656 45.417969 8.78125 45.417969 C 8.914062 45.417969 10.496094 43.796875 10.835938 43.3125 C 10.929688 43.179688 11.046875 43.0625 11.074219 43.0625 C 11.113281 43.0625 11.53125 43.46875 12.003906 43.980469 Z M 17.289062 44.765625 C 17.460938 44.765625 17.082031 45.027344 16.125 45.5625 L 15.695312 45.8125 L 16.035156 45.25 C 16.21875 44.949219 16.402344 44.59375 16.441406 44.464844 C 16.519531 44.242188 16.542969 44.242188 16.804688 44.488281 C 16.964844 44.648438 17.1875 44.765625 17.289062 44.765625 Z M 14.371094 46.542969 C 14.082031 46.820312 12.304688 47.828125 12.304688 47.710938 C 12.304688 47.671875 12.511719 47.238281 12.761719 46.742188 L 13.21875 45.835938 L 13.875 46.113281 C 14.398438 46.335938 14.503906 46.425781 14.371094 46.542969 Z M 9.894531 47.003906 C 10.25 47.304688 10.785156 47.65625 11.097656 47.789062 C 11.414062 47.933594 11.648438 48.101562 11.621094 48.167969 C 11.597656 48.246094 11.085938 48.652344 10.472656 49.082031 L 9.371094 49.855469 L 9.058594 49.566406 C 8.886719 49.410156 8.597656 49.03125 8.417969 48.71875 C 8.128906 48.21875 8.101562 48.128906 8.273438 47.933594 C 8.378906 47.8125 8.625 47.433594 8.820312 47.082031 C 9.019531 46.742188 9.203125 46.464844 9.226562 46.464844 C 9.253906 46.464844 9.554688 46.714844 9.894531 47.003906 Z M 45.328125 52.671875 C 45.210938 52.734375 44.789062 52.8125 44.386719 52.839844 C 43.378906 52.90625 40.039062 53.257812 39.726562 53.3125 C 39.386719 53.390625 38.257812 53.507812 37.105469 53.597656 C 36.609375 53.640625 35.902344 53.730469 35.535156 53.796875 C 34.515625 53.980469 33.0625 54.042969 29.320312 54.121094 C 27.410156 54.164062 24.882812 54.214844 23.691406 54.253906 C 20.078125 54.371094 18.847656 54.34375 17.355469 54.121094 C 16.570312 54.019531 15.628906 53.914062 15.261719 53.914062 C 14.660156 53.902344 13.992188 53.703125 13.480469 53.390625 C 13.378906 53.324219 13.089844 53.167969 12.851562 53.050781 C 12.632812 52.933594 12.433594 52.789062 12.433594 52.722656 C 12.433594 52.578125 14.59375 52.722656 15.144531 52.894531 C 15.394531 52.972656 18.351562 53.035156 22.605469 53.050781 C 30.171875 53.074219 31.28125 53.050781 32.199219 52.851562 C 32.527344 52.773438 35.117188 52.683594 37.957031 52.632812 C 44.660156 52.511719 45.574219 52.527344 45.328125 52.671875 Z M 46.765625 52.578125 C 46.675781 52.605469 46.492188 52.605469 46.375 52.578125 C 46.242188 52.539062 46.320312 52.511719 46.53125 52.511719 C 46.753906 52.511719 46.84375 52.539062 46.765625 52.578125 Z M 46.335938 53.273438 C 46.335938 53.335938 46.28125 53.402344 46.203125 53.402344 C 46.140625 53.402344 46.074219 53.335938 46.074219 53.273438 C 46.074219 53.195312 46.140625 53.140625 46.203125 53.140625 C 46.28125 53.140625 46.335938 53.195312 46.335938 53.273438 Z M 45.613281 53.390625 C 45.535156 53.457031 45.105469 53.574219 44.632812 53.664062 C 44.164062 53.742188 43.519531 53.875 43.195312 53.925781 C 42.867188 53.992188 42.277344 54.109375 41.886719 54.1875 C 41.492188 54.253906 40.902344 54.371094 40.574219 54.4375 C 40.25 54.503906 39.488281 54.59375 38.875 54.648438 C 38.257812 54.699219 37.710938 54.765625 37.644531 54.804688 C 37.527344 54.882812 30.25 55.089844 25.71875 55.15625 C 24.28125 55.183594 22.65625 55.25 22.121094 55.289062 C 21.582031 55.339844 20.929688 55.40625 20.679688 55.417969 C 19.75 55.511719 17.671875 55.089844 17.671875 54.816406 C 17.671875 54.660156 18.820312 54.6875 18.914062 54.84375 C 18.980469 54.949219 19.058594 54.949219 19.164062 54.855469 C 19.253906 54.777344 19.371094 54.75 19.410156 54.789062 C 19.503906 54.894531 20.300781 54.894531 24.410156 54.789062 C 26.28125 54.75 29.253906 54.671875 31.019531 54.632812 C 32.789062 54.59375 34.671875 54.503906 35.210938 54.4375 C 36.28125 54.292969 37.878906 54.109375 39.003906 53.992188 C 39.398438 53.953125 39.910156 53.886719 40.117188 53.847656 C 40.339844 53.808594 41.386719 53.691406 42.460938 53.585938 C 43.535156 53.480469 44.449219 53.378906 44.476562 53.335938 C 44.515625 53.296875 44.816406 53.273438 45.144531 53.273438 C 45.484375 53.273438 45.679688 53.324219 45.613281 53.390625 Z M 16.425781 54.449219 C 16.464844 54.515625 16.441406 54.582031 16.375 54.582031 C 16.296875 54.582031 16.230469 54.515625 16.230469 54.449219 C 16.230469 54.371094 16.257812 54.320312 16.28125 54.320312 C 16.320312 54.320312 16.386719 54.371094 16.425781 54.449219 Z M 17.367188 54.660156 C 17.328125 54.699219 17.210938 54.710938 17.121094 54.671875 C 17.015625 54.632812 17.054688 54.59375 17.199219 54.59375 C 17.34375 54.582031 17.421875 54.621094 17.367188 54.660156 Z M 17.367188 54.660156 "/>
<path style=" stroke:none;fill-rule:nonzero;fill:rgb(0%,0%,0%);fill-opacity:1;" d="M 19.242188 33.480469 C 18.769531 33.835938 17.933594 34.398438 17.382812 34.738281 C 16.164062 35.484375 15.25 36.269531 15.328125 36.503906 C 15.367188 36.609375 15.535156 36.558594 15.863281 36.296875 C 16.320312 35.941406 16.742188 35.667969 18.417969 34.671875 C 19.867188 33.808594 20.824219 32.851562 20.25 32.851562 C 20.15625 32.851562 19.699219 33.140625 19.242188 33.480469 Z M 19.242188 33.480469 "/>
<path style=" stroke:none;fill-rule:nonzero;fill:rgb(0%,0%,0%);fill-opacity:1;" d="M 19.699219 36.296875 C 19.566406 36.386719 19.058594 36.6875 18.585938 36.964844 C 17.238281 37.773438 16.753906 38.207031 16.753906 38.546875 C 16.753906 39.253906 17.277344 39.175781 18.78125 38.285156 C 19.070312 38.101562 19.542969 37.839844 19.828125 37.683594 C 20.5625 37.289062 20.8125 37.042969 20.8125 36.714844 C 20.8125 36.164062 20.261719 35.957031 19.699219 36.296875 Z M 19.699219 36.296875 "/>
<path style=" stroke:none;fill-rule:nonzero;fill:rgb(0%,0%,0%);fill-opacity:1;" d="M 28.664062 44.386719 C 28.335938 44.464844 27.75 44.488281 27.328125 44.464844 C 26.464844 44.398438 26.269531 44.488281 26.335938 44.910156 C 26.386719 45.289062 26.9375 45.40625 28.3125 45.367188 C 28.796875 45.351562 29.1875 45.351562 29.1875 45.378906 C 29.1875 45.550781 28.757812 46.191406 28.441406 46.503906 C 27.917969 46.988281 27.394531 47.121094 26.648438 46.949219 C 25.929688 46.792969 25.707031 46.925781 25.835938 47.449219 C 25.957031 47.894531 26.464844 48.074219 27.277344 47.984375 C 28.195312 47.878906 29.058594 47.265625 29.75 46.203125 C 30.917969 44.449219 30.640625 43.980469 28.664062 44.386719 Z M 28.664062 44.386719 "/>
</g>
</svg>
