<?xml version="1.0" encoding="UTF-8"?>
<!DOCTYPE svg PUBLIC "-//W3C//DTD SVG 1.1//EN" "http://www.w3.org/Graphics/SVG/1.1/DTD/svg11.dtd">
<svg xmlns="http://www.w3.org/2000/svg" version="1.1" width="611px" height="611px" style="shape-rendering:geometricPrecision; text-rendering:geometricPrecision; image-rendering:optimizeQuality; fill-rule:evenodd; clip-rule:evenodd" xmlns:xlink="http://www.w3.org/1999/xlink">
<g><path style="opacity:0.004" fill="#000000" d="M 367.5,176.5 C 366.833,175.167 366.833,175.167 367.5,176.5 Z"/></g>
<g><path style="opacity:0.598" fill="#000000" d="M 518.5,218.5 C 522.63,221.775 526.963,224.941 531.5,228C 531.167,228.333 530.833,228.667 530.5,229C 532.35,229.69 533.684,230.856 534.5,232.5C 536.833,235.167 539.167,237.833 541.5,240.5C 542.348,242.093 543.681,243.26 545.5,244C 544.833,244.333 544.167,244.667 543.5,245C 544.623,246.044 545.956,246.71 547.5,247C 546.934,249.361 547.934,251.194 550.5,252.5C 550.291,253.086 549.957,253.586 549.5,254C 554.707,259.004 558.374,264.838 560.5,271.5C 562.942,271.354 563.609,272.187 562.5,274C 563.676,275.674 565.01,277.174 566.5,278.5C 565.948,280.003 565.948,281.669 566.5,283.5C 569.276,283.089 569.943,283.922 568.5,286C 568.808,287.459 569.475,288.626 570.5,289.5C 570.5,289.833 570.5,290.167 570.5,290.5C 569.167,290.833 569.167,291.167 570.5,291.5C 570.137,293.911 571.137,295.411 573.5,296C 572.213,299.269 572.88,302.103 575.5,304.5C 575.351,305.552 575.517,306.552 576,307.5C 576.654,306.304 577.154,306.304 577.5,307.5C 576.552,310.36 576.885,313.026 578.5,315.5C 578.249,318.998 578.249,322.498 578.5,326C 579.167,326.333 579.833,326.667 580.5,327C 580.044,331.469 579.377,336.135 578.5,341C 579.167,341.333 579.833,341.667 580.5,342C 578.473,343.396 578.14,345.062 579.5,347C 578.287,349.687 577.62,352.52 577.5,355.5C 576.167,355.833 576.167,356.167 577.5,356.5C 575.815,366.244 573.648,375.91 571,385.5C 570.667,385.167 570.333,384.833 570,384.5C 569.691,385.766 569.191,386.933 568.5,388C 569.701,388.903 570.535,390.069 571,391.5C 571.333,391.167 571.667,390.833 572,390.5C 571.669,392.019 571.836,393.352 572.5,394.5C 572.141,396.766 572.808,398.599 574.5,400C 573.833,401 573.167,402 572.5,403C 573.337,404.011 573.67,405.178 573.5,406.5C 572.167,406.833 572.167,407.167 573.5,407.5C 572.821,411.22 571.821,414.886 570.5,418.5C 570.624,419.107 570.957,419.44 571.5,419.5C 569.206,426.33 565.206,431.997 559.5,436.5C 558.675,437.386 557.675,437.719 556.5,437.5C 556.719,438.675 556.386,439.675 555.5,440.5C 554.264,439.754 552.93,439.421 551.5,439.5C 551.62,442.205 550.62,442.872 548.5,441.5C 546.505,443.11 544.339,444.443 542,445.5C 536.428,444.928 531.261,444.928 526.5,445.5C 525.348,444.375 524.348,444.375 523.5,445.5C 518.245,445.029 513.079,445.029 508,445.5C 504.617,444.186 501.117,443.353 497.5,443C 498.167,442.667 498.833,442.333 499.5,442C 497,440.833 494.5,439.667 492,438.5C 485.25,438.818 478.083,439.652 470.5,441C 471.34,442.666 470.84,442.833 469,441.5C 468.667,442.167 468.333,442.833 468,443.5C 466.629,443.757 465.129,443.423 463.5,442.5C 461.409,443.449 459.242,444.449 457,445.5C 456.329,444.748 455.496,444.414 454.5,444.5C 454.167,443.167 453.833,443.167 453.5,444.5C 452.883,444.389 452.383,444.056 452,443.5C 445.134,444.697 438.301,446.03 431.5,447.5C 425.5,446.5 419.5,445.5 413.5,444.5C 412.808,445.025 412.308,445.692 412,446.5C 410.604,444.473 408.938,444.14 407,445.5C 396.924,443.887 386.757,443.054 376.5,443C 373.588,444.24 370.921,445.906 368.5,448C 366.866,448.494 365.199,448.66 363.5,448.5C 363.9,451.761 362.733,452.428 360,450.5C 359.167,450.667 358.333,450.833 357.5,451C 358.696,451.654 358.696,452.154 357.5,452.5C 356.313,451.347 355.313,451.347 354.5,452.5C 350.015,451.653 345.348,451.653 340.5,452.5C 338.021,451.377 335.688,451.377 333.5,452.5C 331.278,453.386 329.112,453.386 327,452.5C 325.441,453.029 323.941,453.696 322.5,454.5C 316.083,453.894 309.916,453.561 304,453.5C 303.667,454.167 303.333,454.833 303,455.5C 301.488,453.043 300.154,453.043 299,455.5C 297.488,453.043 296.154,453.043 295,455.5C 292.817,454.898 290.317,454.231 287.5,453.5C 283.461,454.092 279.628,454.092 276,453.5C 274.833,453.667 273.667,453.833 272.5,454C 273.696,454.654 273.696,455.154 272.5,455.5C 268.718,453.266 264.718,452.933 260.5,454.5C 255.552,452.846 250.552,451.346 245.5,450C 241.597,448.466 238.097,446.3 235,443.5C 233.108,443.777 231.775,444.777 231,446.5C 230.275,445.941 229.442,445.608 228.5,445.5C 224.486,446.635 220.986,447.968 218,449.5C 215.569,447.911 212.903,446.911 210,446.5C 204.509,447.226 199.176,447.226 194,446.5C 192.848,448.512 191.682,448.678 190.5,447C 187.475,446.639 184.475,446.139 181.5,445.5C 180.558,445.608 179.725,445.941 179,446.5C 177.184,444.559 175.184,443.892 173,444.5C 162.585,442.216 152.251,439.549 142,436.5C 133.767,432.994 125.767,429.328 118,425.5C 117.195,427.901 116.362,427.734 115.5,425C 103.874,420.464 92.8736,414.797 82.5,408C 82.8333,407.667 83.1667,407.333 83.5,407C 76.7751,404.073 70.7751,401.073 65.5,398C 65.8333,397.667 66.1667,397.333 66.5,397C 64.301,395.303 61.9676,393.803 59.5,392.5C 58.914,392.709 58.414,393.043 58,393.5C 56.8066,391.395 55.1399,389.728 53,388.5C 52.6667,388.833 52.3333,389.167 52,389.5C 51.0267,387.36 49.5267,385.693 47.5,384.5C 46.5713,383.311 46.238,381.978 46.5,380.5C 45.1266,380.657 43.7932,380.49 42.5,380C 36.9416,373.614 31.275,367.447 25.5,361.5C 24.9688,359.376 23.6355,357.876 21.5,357C 21.8333,356.667 22.1667,356.333 22.5,356C 21.9152,354.698 21.2485,353.531 20.5,352.5C 21.9526,351.175 21.6192,350.342 19.5,350C 20.8602,348.062 20.5268,346.396 18.5,345C 18.8333,344.667 19.1667,344.333 19.5,344C 18.7819,341.539 18.1153,339.039 17.5,336.5C 18.2353,332.997 18.2353,329.331 17.5,325.5C 20.0905,316.97 22.7571,308.47 25.5,300C 28.9907,289.604 34.9907,280.437 43.5,272.5C 44.3857,271.675 44.719,270.675 44.5,269.5C 48.9506,266.107 53.9506,263.441 59.5,261.5C 60.6119,260.735 61.2786,259.735 61.5,258.5C 62.8333,258.5 64.1667,258.5 65.5,258.5C 65.3118,256.897 65.8118,255.563 67,254.5C 67.3333,255.167 67.6667,255.833 68,256.5C 70.099,255.534 71.9324,254.2 73.5,252.5C 75.9717,253.42 77.6384,252.42 78.5,249.5C 79.4776,249.977 80.3109,250.643 81,251.5C 81.7724,250.151 82.9391,249.318 84.5,249C 83.1667,248.333 83.1667,247.667 84.5,247C 86.1261,247.195 87.7928,247.195 89.5,247C 90.8333,246.333 90.8333,245.667 89.5,245C 90.549,244.508 91.549,244.674 92.5,245.5C 93.9122,244.194 95.5789,243.36 97.5,243C 96.3044,242.346 96.3044,241.846 97.5,241.5C 99.6225,241.377 101.789,241.377 104,241.5C 104.374,240.584 104.874,239.75 105.5,239C 107.653,238.901 109.319,238.067 110.5,236.5C 114.778,236.066 118.778,234.399 122.5,231.5C 130.319,227.722 138.319,224.222 146.5,221C 148.441,220.257 150.274,220.424 152,221.5C 158.198,219.57 164.532,218.237 171,217.5C 172.868,218.665 174.702,218.332 176.5,216.5C 177.167,216.833 177.833,217.167 178.5,217.5C 178.833,216.833 179.167,216.167 179.5,215.5C 182.706,216.593 185.206,215.593 187,212.5C 187.414,212.957 187.914,213.291 188.5,213.5C 192.676,211.938 196.343,209.604 199.5,206.5C 200.167,206.833 200.833,207.167 201.5,207.5C 203.838,206.384 206.004,205.05 208,203.5C 211.408,203.989 214.741,203.322 218,201.5C 229.59,202.028 240.756,202.361 251.5,202.5C 253.258,201.872 254.758,200.872 256,199.5C 257.085,200.293 258.252,200.96 259.5,201.5C 262.191,200.956 264.857,199.623 267.5,197.5C 268.167,197.833 268.833,198.167 269.5,198.5C 271.672,196.141 274.172,195.475 277,196.5C 280.689,195.348 284.189,194.015 287.5,192.5C 292.254,190.595 296.921,189.262 301.5,188.5C 302.492,188.672 303.158,188.338 303.5,187.5C 305.099,187.768 306.432,187.434 307.5,186.5C 309.564,186.313 311.564,185.813 313.5,185C 313.93,184.08 314.264,183.247 314.5,182.5C 316.098,182.61 317.765,182.943 319.5,183.5C 321.5,182.5 323.5,181.5 325.5,180.5C 326.995,181.705 328.328,181.705 329.5,180.5C 331.575,180.223 333.575,179.89 335.5,179.5C 337.735,179.795 339.735,179.461 341.5,178.5C 343.689,177.592 345.856,177.925 348,179.5C 351.49,178.566 354.99,177.566 358.5,176.5C 361.832,177.44 364.832,177.44 367.5,176.5C 370.14,174.992 372.473,175.326 374.5,177.5C 374.489,176.559 374.989,175.892 376,175.5C 378.077,176.017 380.077,176.684 382,177.5C 385.625,176.362 389.292,176.362 393,177.5C 393.451,175.071 394.285,174.904 395.5,177C 402.395,177.839 408.895,179.006 415,180.5C 415.561,179.978 416.228,179.645 417,179.5C 436.89,184.031 457.057,189.698 477.5,196.5C 478.647,196.182 479.481,195.516 480,194.5C 491.559,199.913 502.726,206.079 513.5,213C 515.402,214.73 517.069,216.563 518.5,218.5 Z M 514.5,224.5 C 517.521,226.601 519.688,228.934 521,231.5C 522.84,230.167 523.34,230.334 522.5,232C 523.416,232.278 524.082,232.778 524.5,233.5C 526.417,234.116 527.584,235.45 528,237.5C 528.333,237.167 528.667,236.833 529,236.5C 532.464,239.881 534.797,243.548 536,247.5C 539.207,248.635 540.541,250.635 540,253.5C 540.333,253.167 540.667,252.833 541,252.5C 544.199,257.023 547.366,261.523 550.5,266C 549.833,266.333 549.167,266.667 548.5,267C 551.492,267.519 552.492,269.019 551.5,271.5C 552.628,272.262 553.795,272.929 555,273.5C 555.937,276.656 557.437,279.489 559.5,282C 557.068,283.087 557.402,283.587 560.5,283.5C 560.714,285.144 560.38,286.644 559.5,288C 560.738,287.923 561.738,288.089 562.5,288.5C 562.623,290.622 562.623,292.789 562.5,295C 564.211,296.435 565.378,298.269 566,300.5C 567.239,305.884 569.072,311.05 571.5,316C 570.994,318.044 570.661,320.044 570.5,322C 571.577,326.288 572.244,330.455 572.5,334.5C 571.127,342.65 569.793,350.816 568.5,359C 568.645,359.772 568.978,360.439 569.5,361C 566.782,370.647 563.449,380.481 559.5,390.5C 560.297,392.132 561.297,393.632 562.5,395C 563.649,396.73 563.649,398.396 562.5,400C 563.578,400.674 564.245,401.674 564.5,403C 565.124,406.466 564.457,409.8 562.5,413C 563.059,413.725 563.392,414.558 563.5,415.5C 562.444,418.613 561.111,421.613 559.5,424.5C 558.15,425.95 556.484,426.617 554.5,426.5C 554.17,429.109 552.67,430.776 550,431.5C 548.187,430.391 547.354,431.058 547.5,433.5C 533.607,436.183 519.941,436.683 506.5,435C 501.98,432.911 497.313,431.078 492.5,429.5C 491.214,429.852 490.381,430.518 490,431.5C 485.244,432.531 480.244,432.531 475,431.5C 472.546,432.198 470.213,433.198 468,434.5C 467.617,433.944 467.117,433.611 466.5,433.5C 465.006,434.399 463.506,434.065 462,432.5C 461.667,433.5 461.333,434.5 461,435.5C 455.372,436.245 449.872,436.245 444.5,435.5C 439.921,437.787 435.421,437.787 431,435.5C 430.667,436.167 430.333,436.833 430,437.5C 428.333,436.833 426.667,436.167 425,435.5C 424.667,436.167 424.333,436.833 424,437.5C 422.667,436.833 421.333,436.167 420,435.5C 416.86,435.704 413.693,436.038 410.5,436.5C 408.161,436.331 405.994,435.664 404,434.5C 402.938,435.097 401.772,435.43 400.5,435.5C 394.553,434.305 388.553,433.472 382.5,433C 385.691,428.288 386.024,423.454 383.5,418.5C 383.45,416.169 383.783,414.003 384.5,412C 382.999,410.748 381.332,409.748 379.5,409C 381.301,408.683 381.634,408.016 380.5,407C 376.511,404.753 372.511,402.42 368.5,400C 366.212,399.178 363.878,398.511 361.5,398C 353.464,397.165 345.63,396.665 338,396.5C 329.443,398.628 321.276,401.628 313.5,405.5C 310.469,408.333 306.969,410.667 303,412.5C 302.667,411.833 302.333,411.167 302,410.5C 300.881,411.552 300.381,412.719 300.5,414C 293.966,416.522 287.466,418.356 281,419.5C 278.889,419.423 276.889,419.089 275,418.5C 270.931,420.688 266.931,423.021 263,425.5C 262.586,425.043 262.086,424.709 261.5,424.5C 259.985,426.082 258.319,427.416 256.5,428.5C 253.187,431.313 250.02,434.313 247,437.5C 242.585,435.345 238.251,435.345 234,437.5C 230.381,437.614 226.714,437.614 223,437.5C 222.667,438.167 222.333,438.833 222,439.5C 214.286,439.535 206.453,439.369 198.5,439C 195.905,438.774 193.405,438.274 191,437.5C 189.221,438.479 187.555,438.146 186,436.5C 185.667,437.167 185.333,437.833 185,438.5C 168.281,434.59 151.781,430.09 135.5,425C 135.833,424.667 136.167,424.333 136.5,424C 131.911,422.704 127.577,420.87 123.5,418.5C 122.914,418.709 122.414,419.043 122,419.5C 120.855,418.364 119.688,417.364 118.5,416.5C 116.847,416.34 115.514,415.674 114.5,414.5C 110.691,413.668 107.357,412.001 104.5,409.5C 100.903,409.303 98.2367,407.637 96.5,404.5C 90.5711,402.726 85.5711,399.559 81.5,395C 67.2778,387.939 54.6111,378.772 43.5,367.5C 41.1217,366.308 39.1217,364.641 37.5,362.5C 35.0144,361.538 35.0144,360.705 37.5,360C 35.3083,358.933 33.6417,357.433 32.5,355.5C 30.7801,354.249 30.4468,352.749 31.5,351C 28.294,349.04 27.294,346.374 28.5,343C 25.2308,337.082 25.2308,331.082 28.5,325C 27.8333,324.667 27.1667,324.333 26.5,324C 31.5261,297.664 44.3594,278.497 65,266.5C 68.3447,265.237 71.8447,263.404 75.5,261C 94.8813,252.324 114.548,243.491 134.5,234.5C 135.086,234.709 135.586,235.043 136,235.5C 136.691,232.734 138.191,232.067 140.5,233.5C 141.696,233.154 141.696,232.654 140.5,232C 141.549,231.508 142.549,231.674 143.5,232.5C 143.489,231.559 143.989,230.892 145,230.5C 145.945,230.905 146.612,231.572 147,232.5C 147.953,230.408 149.286,230.075 151,231.5C 151.667,228.833 152.333,228.833 153,231.5C 153.741,230.359 154.575,230.359 155.5,231.5C 155.489,230.559 155.989,229.892 157,229.5C 157.873,229.735 158.707,230.069 159.5,230.5C 160.696,230.154 160.696,229.654 159.5,229C 162.146,228.503 164.813,228.336 167.5,228.5C 171.189,226.916 175.023,226.582 179,227.5C 179.953,225.408 181.286,225.075 183,226.5C 183.853,224.875 184.853,224.542 186,225.5C 187.487,224.747 187.654,223.914 186.5,223C 187.784,222.316 188.951,222.483 190,223.5C 193.903,222.319 197.069,220.319 199.5,217.5C 200.451,218.326 201.451,218.492 202.5,218C 202.167,217.667 201.833,217.333 201.5,217C 203.234,214.943 205.234,214.443 207.5,215.5C 208.519,214.313 209.686,213.313 211,212.5C 212.616,213.801 214.116,213.801 215.5,212.5C 218.313,210.471 221.313,210.137 224.5,211.5C 225.994,210.601 227.494,210.935 229,212.5C 229.691,210.109 230.691,210.109 232,212.5C 238.082,210.795 244.415,209.795 251,209.5C 254.04,210.232 257.04,209.899 260,208.5C 260.414,208.957 260.914,209.291 261.5,209.5C 265.709,207.063 270.042,206.063 274.5,206.5C 276.979,203.855 279.812,202.855 283,203.5C 285.088,202.692 287.088,201.692 289,200.5C 289.626,202.991 290.459,202.991 291.5,200.5C 292.086,200.709 292.586,201.043 293,201.5C 296.557,199.832 300.223,198.166 304,196.5C 305.796,196.913 307.463,196.913 309,196.5C 311.214,193.706 313.547,193.039 316,194.5C 318.75,191.248 322.083,190.248 326,191.5C 326.991,190.061 328.324,189.061 330,188.5C 335.26,189.696 340.593,189.03 346,186.5C 349.871,187.085 353.871,187.085 358,186.5C 359,185.833 360,185.167 361,184.5C 363.667,185.167 366.333,185.833 369,186.5C 369.667,185.833 370.333,185.167 371,184.5C 377.151,185.361 383.484,185.361 390,184.5C 397.7,185.369 405.2,186.369 412.5,187.5C 415.41,186.991 418.244,187.658 421,189.5C 424,189.5 427,189.5 430,189.5C 431.391,192.203 433.391,192.869 436,191.5C 454.277,196.883 472.777,202.716 491.5,209C 496.805,211.654 501.805,214.821 506.5,218.5C 507.086,218.291 507.586,217.957 508,217.5C 509.694,220.358 511.861,222.691 514.5,224.5 Z M 451.5,226.5 C 453.099,226.232 454.432,226.566 455.5,227.5C 452.833,227.833 452.833,228.167 455.5,228.5C 458.246,229.251 460.913,230.251 463.5,231.5C 462.761,231.369 462.094,231.536 461.5,232C 462.745,232.791 464.078,233.291 465.5,233.5C 465.369,234.376 465.702,235.043 466.5,235.5C 467.687,234.347 468.687,234.347 469.5,235.5C 468.167,235.833 468.167,236.167 469.5,236.5C 469.369,237.239 469.536,237.906 470,238.5C 472.926,239.269 475.093,240.935 476.5,243.5C 483.829,249.996 490.662,256.996 497,264.5C 499.385,272.989 502.052,280.989 505,288.5C 505.7,302.523 505.367,316.523 504,330.5C 502.19,333.536 501.69,336.703 502.5,340C 500.114,340.284 499.448,341.284 500.5,343C 499.771,345.058 498.771,346.891 497.5,348.5C 496.91,349.766 496.41,351.099 496,352.5C 494.16,351.167 493.66,351.334 494.5,353C 493.206,355.087 492.039,357.254 491,359.5C 489.829,360.893 488.329,361.727 486.5,362C 487.167,362.333 487.833,362.667 488.5,363C 485.705,366.469 482.871,369.969 480,373.5C 479.107,372.289 478.274,372.289 477.5,373.5C 476.289,374.72 476.289,375.887 477.5,377C 476.464,378.617 475.297,378.784 474,377.5C 473.5,378 473,378.5 472.5,379C 473.956,379.423 474.456,380.256 474,381.5C 473.333,382.833 472.667,382.833 472,381.5C 471.623,382.942 470.79,383.942 469.5,384.5C 459.722,390.929 448.555,395.596 436,398.5C 424.214,394.35 413.214,388.683 403,381.5C 401.174,382.01 401.007,382.844 402.5,384C 407.462,389.129 413.129,393.296 419.5,396.5C 419.333,396.833 419.167,397.167 419,397.5C 416.777,395.981 414.444,394.647 412,393.5C 411.228,393.645 410.561,393.978 410,394.5C 408.509,392.996 406.676,392.163 404.5,392C 403.833,391 403.167,390 402.5,389C 401.563,388.308 400.897,388.475 400.5,389.5C 398.871,388.375 397.371,387.041 396,385.5C 395.667,385.833 395.333,386.167 395,386.5C 392.944,385.417 391.611,383.75 391,381.5C 390.667,382.167 390.333,382.833 390,383.5C 389.764,381.881 388.931,380.881 387.5,380.5C 387.332,377.949 386.332,377.282 384.5,378.5C 382.172,377.264 381.006,375.264 381,372.5C 379.989,371.663 378.822,371.33 377.5,371.5C 373.713,367.371 370.713,362.705 368.5,357.5C 368.631,356.761 368.464,356.094 368,355.5C 367.107,356.711 366.274,356.711 365.5,355.5C 364.385,354.402 364.385,353.235 365.5,352C 365.164,350.97 364.497,350.47 363.5,350.5C 361.407,347.38 359.407,344.214 357.5,341C 357.833,340.667 358.167,340.333 358.5,340C 356.954,336.612 355.288,333.279 353.5,330C 354.329,318.414 354.329,306.914 353.5,295.5C 353.864,293.267 354.864,291.434 356.5,290C 355.833,289.667 355.167,289.333 354.5,289C 355.176,284.011 356.176,279.177 357.5,274.5C 359.418,269.883 361.084,265.217 362.5,260.5C 364.035,257.705 365.702,254.705 367.5,251.5C 368.376,250.749 369.376,250.249 370.5,250C 370.043,249.586 369.709,249.086 369.5,248.5C 370.85,247.05 372.516,246.383 374.5,246.5C 374.281,245.325 374.614,244.325 375.5,243.5C 377.919,243.086 379.919,242.086 381.5,240.5C 382.167,240.5 382.5,240.167 382.5,239.5C 383.833,238.5 385.167,237.5 386.5,236.5C 387.514,235.326 388.847,234.66 390.5,234.5C 396.257,229.802 402.924,227.469 410.5,227.5C 410.833,228.833 411.167,228.833 411.5,227.5C 412.5,227.5 413.5,227.5 414.5,227.5C 414.833,228.833 415.167,228.833 415.5,227.5C 416.833,227.5 418.167,227.5 419.5,227.5C 423.972,226.356 428.638,225.523 433.5,225C 434,224.5 434.5,224 435,223.5C 440.255,224.604 445.422,225.938 450.5,227.5C 451.107,227.376 451.44,227.043 451.5,226.5 Z M 368.5,409.5 C 370.75,411.244 372.917,413.244 375,415.5C 375.31,419.403 375.81,423.236 376.5,427C 375.336,433.329 371.67,437.162 365.5,438.5C 363.786,437.391 363.119,438.058 363.5,440.5C 360.52,440.62 357.687,441.287 355,442.5C 353.467,442.056 351.967,441.723 350.5,441.5C 349.522,441.977 348.689,442.643 348,443.5C 346.667,442.167 345.333,442.167 344,443.5C 341.803,441.269 339.47,441.269 337,443.5C 332.105,441.299 327.105,441.299 322,443.5C 317.266,442.999 312.599,442.666 308,442.5C 307.667,443.167 307.333,443.833 307,444.5C 301.667,443.833 296.333,443.167 291,442.5C 289.629,442.243 288.129,442.577 286.5,443.5C 284.971,443.471 283.804,442.804 283,441.5C 282.323,443.689 281.156,444.022 279.5,442.5C 273.664,444.266 267.664,444.266 261.5,442.5C 259.392,443.48 257.392,443.146 255.5,441.5C 256.665,440.416 257.998,439.583 259.5,439C 259.167,438.667 258.833,438.333 258.5,438C 262.158,435.731 265.825,433.397 269.5,431C 273.094,430.589 276.76,429.422 280.5,427.5C 281.716,428.002 282.883,428.335 284,428.5C 285.713,426.807 287.713,425.474 290,424.5C 291,424.833 292,425.167 293,425.5C 297.712,424.099 302.212,422.099 306.5,419.5C 307.086,419.709 307.586,420.043 308,420.5C 311.657,417.182 315.824,414.682 320.5,413C 321.126,412.25 321.626,411.416 322,410.5C 322.977,411.774 323.811,411.774 324.5,410.5C 326.953,409.183 329.62,408.35 332.5,408C 332.167,407.667 331.833,407.333 331.5,407C 336.932,405.012 342.598,403.845 348.5,403.5C 351.25,403.559 354.084,404.225 357,405.5C 361.476,404.75 365.31,406.084 368.5,409.5 Z"/></g>
<g><path style="opacity:0.004" fill="#000000" d="M 349.5,176.5 C 350.833,177.167 350.833,177.167 349.5,176.5 Z"/></g>
<g><path style="opacity:0.004" fill="#000000" d="M 351.5,176.5 C 352.833,177.167 352.833,177.167 351.5,176.5 Z"/></g>
<g><path style="opacity:0.004" fill="#000000" d="M 405.5,176.5 C 406.833,177.167 406.833,177.167 405.5,176.5 Z"/></g>
<g><path style="opacity:0.004" fill="#000000" d="M 338.5,177.5 C 339.833,178.167 339.833,178.167 338.5,177.5 Z"/></g>
<g><path style="opacity:0.004" fill="#000000" d="M 341.5,178.5 C 340.833,177.167 340.833,177.167 341.5,178.5 Z"/></g>
<g><path style="opacity:0.004" fill="#000000" d="M 335.5,179.5 C 334.833,178.167 334.833,178.167 335.5,179.5 Z"/></g>
<g><path style="opacity:0.004" fill="#000000" d="M 329.5,180.5 C 328.833,179.167 328.833,179.167 329.5,180.5 Z"/></g>
<g><path style="opacity:0.004" fill="#000000" d="M 308.5,184.5 C 309.833,185.167 309.833,185.167 308.5,184.5 Z"/></g>
<g><path style="opacity:0.004" fill="#000000" d="M 307.5,186.5 C 306.833,185.167 306.833,185.167 307.5,186.5 Z"/></g>
<g><path style="opacity:0.004" fill="#000000" d="M 303.5,187.5 C 302.833,186.167 302.833,186.167 303.5,187.5 Z"/></g>
<g><path style="opacity:0.004" fill="#000000" d="M 301.5,188.5 C 300.761,188.631 300.094,188.464 299.5,188C 300.437,187.308 301.103,187.475 301.5,188.5 Z"/></g>
<g><path style="opacity:0.004" fill="#000000" d="M 287.5,192.5 C 286.833,191.167 286.833,191.167 287.5,192.5 Z"/></g>
<g><path style="opacity:0.005" fill="#000000" d="M 379.5,216.5 C 379.587,212.238 381.754,209.571 386,208.5C 387.726,208.946 389.226,209.779 390.5,211C 386.915,212.981 383.249,214.814 379.5,216.5 Z"/></g>
<g><path style="opacity:0.757" fill="#000000" d="M 445.5,209.5 C 445.833,210.833 446.167,210.833 446.5,209.5C 459.842,210.5 473.175,212 486.5,214C 486.167,214.333 485.833,214.667 485.5,215C 489.356,215.867 493.023,217.2 496.5,219C 496.833,220 497.167,221 497.5,222C 498.833,222.333 500.167,222.667 501.5,223C 500.849,224.308 501.515,225.141 503.5,225.5C 504.64,226.801 505.973,227.968 507.5,229C 506.66,230.666 507.16,230.833 509,229.5C 509.432,233.072 511.265,235.405 514.5,236.5C 514.881,237.931 515.881,238.764 517.5,239C 516.315,241.778 517.315,243.278 520.5,243.5C 519.925,247.155 520.925,250.155 523.5,252.5C 525.791,255.499 527.624,258.832 529,262.5C 529.333,262.167 529.667,261.833 530,261.5C 530.882,264.789 531.548,268.123 532,271.5C 532.383,272.056 532.883,272.389 533.5,272.5C 535.41,273.684 535.743,275.184 534.5,277C 535,277.5 535.5,278 536,278.5C 536.52,284.025 537.353,289.358 538.5,294.5C 540.529,298.555 540.862,302.722 539.5,307C 540.357,307.689 541.023,308.522 541.5,309.5C 541.439,313.741 541.439,317.908 541.5,322C 540.405,326.68 539.405,331.347 538.5,336C 539.022,336.561 539.355,337.228 539.5,338C 537.619,343.802 535.619,349.469 533.5,355C 533.957,355.414 534.291,355.914 534.5,356.5C 533.559,356.489 532.892,356.989 532.5,358C 532.645,358.772 532.978,359.439 533.5,360C 532.049,362.7 530.383,365.2 528.5,367.5C 526.915,368.533 525.581,369.866 524.5,371.5C 523.167,372.833 521.833,374.167 520.5,375.5C 519.599,376.29 518.932,377.29 518.5,378.5C 517.833,378.5 517.5,378.833 517.5,379.5C 516.833,379.5 516.5,379.833 516.5,380.5C 515.839,381.718 515.172,383.051 514.5,384.5C 513.702,384.043 513.369,383.376 513.5,382.5C 510.488,384.923 507.821,387.757 505.5,391C 503.956,391.29 502.623,391.956 501.5,393C 503.301,393.317 503.634,393.984 502.5,395C 500.981,394.669 499.648,394.836 498.5,395.5C 496.534,396.255 496.2,397.421 497.5,399C 496.451,399.492 495.451,399.326 494.5,398.5C 493.712,399.77 492.712,400.77 491.5,401.5C 491.167,400.167 490.833,400.167 490.5,401.5C 487.577,402.542 484.91,403.875 482.5,405.5C 481.833,405.5 481.5,405.833 481.5,406.5C 480.209,406.263 479.209,406.596 478.5,407.5C 476.588,408.799 474.588,409.799 472.5,410.5C 471.129,412.17 469.629,412.836 468,412.5C 468.617,414.095 468.284,415.428 467,416.5C 466.549,414.071 465.715,413.904 464.5,416C 464.833,416.333 465.167,416.667 465.5,417C 461.056,417.968 456.556,418.468 452,418.5C 442.203,417.313 432.37,416.48 422.5,416C 417.738,414.604 413.071,413.104 408.5,411.5C 408.167,410.167 407.833,410.167 407.5,411.5C 406.833,410.833 406.167,410.167 405.5,409.5C 404.486,408.326 403.153,407.66 401.5,407.5C 401.047,406.542 400.381,405.708 399.5,405C 399.833,404.667 400.167,404.333 400.5,404C 398.372,403.345 396.372,402.511 394.5,401.5C 393.486,400.326 392.153,399.66 390.5,399.5C 390.5,398.833 390.167,398.5 389.5,398.5C 387.611,397.678 385.611,396.845 383.5,396C 384.167,395.667 384.833,395.333 385.5,395C 384,393.5 382.5,392 381,390.5C 380.396,392.686 379.23,392.852 377.5,391C 376.289,389.887 376.289,388.72 377.5,387.5C 375.799,387.81 374.132,387.31 372.5,386C 373.451,385.282 373.617,384.449 373,383.5C 371.16,384.833 370.66,384.666 371.5,383C 370.837,381.482 369.837,380.315 368.5,379.5C 365.134,376.862 362.801,373.862 361.5,370.5C 360.271,369.719 358.938,369.219 357.5,369C 359.271,368.465 359.604,367.631 358.5,366.5C 356.114,367.988 355.448,367.655 356.5,365.5C 356.938,365.565 357.272,365.399 357.5,365C 356.934,364.005 356.267,363.172 355.5,362.5C 354.77,360.955 353.437,360.122 351.5,360C 354.018,358.86 354.018,357.694 351.5,356.5C 350.833,355.5 350.167,354.5 349.5,353.5C 350.833,353.167 350.833,352.833 349.5,352.5C 348.702,350.034 347.369,348.034 345.5,346.5C 344.168,342.602 343.001,338.268 342,333.5C 340.334,334.34 340.167,333.84 341.5,332C 340.772,325.886 340.105,319.72 339.5,313.5C 339.633,306.566 339.633,299.733 339.5,293C 341.288,288.358 342.288,283.524 342.5,278.5C 343.283,275.23 344.283,271.897 345.5,268.5C 345.167,267.833 344.833,267.167 344.5,266.5C 345.204,264.899 346.371,263.565 348,262.5C 349.128,260.655 349.628,258.655 349.5,256.5C 350.833,255.833 350.833,255.167 349.5,254.5C 349.263,253.209 349.596,252.209 350.5,251.5C 350.369,250.624 350.702,249.957 351.5,249.5C 352.425,250.641 353.259,250.641 354,249.5C 354.738,246.352 356.238,243.685 358.5,241.5C 361.061,239.36 363.395,237.027 365.5,234.5C 367.698,234.591 368.031,233.925 366.5,232.5C 367.492,232.672 368.158,232.338 368.5,231.5C 369.167,231.5 369.5,231.167 369.5,230.5C 374.103,227.595 378.77,224.595 383.5,221.5C 391.834,217.798 400.001,214.464 408,211.5C 408.414,211.957 408.914,212.291 409.5,212.5C 415.374,211.275 421.208,209.942 427,208.5C 429.055,209.692 431.055,209.692 433,208.5C 433.333,209.167 433.667,209.833 434,210.5C 435.299,209.02 436.966,208.354 439,208.5C 441.44,209.024 443.607,209.358 445.5,209.5 Z M 451.5,226.5 C 453.099,226.232 454.432,226.566 455.5,227.5C 452.833,227.833 452.833,228.167 455.5,228.5C 458.246,229.251 460.913,230.251 463.5,231.5C 462.761,231.369 462.094,231.536 461.5,232C 462.745,232.791 464.078,233.291 465.5,233.5C 465.369,234.376 465.702,235.043 466.5,235.5C 467.687,234.347 468.687,234.347 469.5,235.5C 468.167,235.833 468.167,236.167 469.5,236.5C 469.369,237.239 469.536,237.906 470,238.5C 472.926,239.269 475.093,240.935 476.5,243.5C 483.829,249.996 490.662,256.996 497,264.5C 499.385,272.989 502.052,280.989 505,288.5C 505.7,302.523 505.367,316.523 504,330.5C 502.19,333.536 501.69,336.703 502.5,340C 500.114,340.284 499.448,341.284 500.5,343C 499.771,345.058 498.771,346.891 497.5,348.5C 496.91,349.766 496.41,351.099 496,352.5C 494.16,351.167 493.66,351.334 494.5,353C 493.206,355.087 492.039,357.254 491,359.5C 489.829,360.893 488.329,361.727 486.5,362C 487.167,362.333 487.833,362.667 488.5,363C 485.705,366.469 482.871,369.969 480,373.5C 479.107,372.289 478.274,372.289 477.5,373.5C 476.289,374.72 476.289,375.887 477.5,377C 476.464,378.617 475.297,378.784 474,377.5C 473.5,378 473,378.5 472.5,379C 473.956,379.423 474.456,380.256 474,381.5C 473.333,382.833 472.667,382.833 472,381.5C 471.623,382.942 470.79,383.942 469.5,384.5C 459.722,390.929 448.555,395.596 436,398.5C 424.214,394.35 413.214,388.683 403,381.5C 401.174,382.01 401.007,382.844 402.5,384C 407.462,389.129 413.129,393.296 419.5,396.5C 419.333,396.833 419.167,397.167 419,397.5C 416.777,395.981 414.444,394.647 412,393.5C 411.228,393.645 410.561,393.978 410,394.5C 408.509,392.996 406.676,392.163 404.5,392C 403.833,391 403.167,390 402.5,389C 401.563,388.308 400.897,388.475 400.5,389.5C 398.871,388.375 397.371,387.041 396,385.5C 395.667,385.833 395.333,386.167 395,386.5C 392.944,385.417 391.611,383.75 391,381.5C 390.667,382.167 390.333,382.833 390,383.5C 389.764,381.881 388.931,380.881 387.5,380.5C 387.332,377.949 386.332,377.282 384.5,378.5C 382.172,377.264 381.006,375.264 381,372.5C 379.989,371.663 378.822,371.33 377.5,371.5C 373.713,367.371 370.713,362.705 368.5,357.5C 368.631,356.761 368.464,356.094 368,355.5C 367.107,356.711 366.274,356.711 365.5,355.5C 364.385,354.402 364.385,353.235 365.5,352C 365.164,350.97 364.497,350.47 363.5,350.5C 361.407,347.38 359.407,344.214 357.5,341C 357.833,340.667 358.167,340.333 358.5,340C 356.954,336.612 355.288,333.279 353.5,330C 354.329,318.414 354.329,306.914 353.5,295.5C 353.864,293.267 354.864,291.434 356.5,290C 355.833,289.667 355.167,289.333 354.5,289C 355.176,284.011 356.176,279.177 357.5,274.5C 359.418,269.883 361.084,265.217 362.5,260.5C 364.035,257.705 365.702,254.705 367.5,251.5C 368.376,250.749 369.376,250.249 370.5,250C 370.043,249.586 369.709,249.086 369.5,248.5C 370.85,247.05 372.516,246.383 374.5,246.5C 374.281,245.325 374.614,244.325 375.5,243.5C 377.919,243.086 379.919,242.086 381.5,240.5C 382.167,240.5 382.5,240.167 382.5,239.5C 383.833,238.5 385.167,237.5 386.5,236.5C 387.514,235.326 388.847,234.66 390.5,234.5C 396.257,229.802 402.924,227.469 410.5,227.5C 410.833,228.833 411.167,228.833 411.5,227.5C 412.5,227.5 413.5,227.5 414.5,227.5C 414.833,228.833 415.167,228.833 415.5,227.5C 416.833,227.5 418.167,227.5 419.5,227.5C 423.972,226.356 428.638,225.523 433.5,225C 434,224.5 434.5,224 435,223.5C 440.255,224.604 445.422,225.938 450.5,227.5C 451.107,227.376 451.44,227.043 451.5,226.5 Z"/></g>
<g><path style="opacity:0.004" fill="#000000" d="M 518.5,217.5 C 519.833,218.167 519.833,218.167 518.5,217.5 Z"/></g>
<g><path style="opacity:0.004" fill="#000000" d="M 369.5,230.5 C 368.833,230.5 368.5,230.833 368.5,231.5C 367.833,231.5 367.167,231.5 366.5,231.5C 367.221,229.618 368.221,229.285 369.5,230.5 Z"/></g>
<g><path style="opacity:0.004" fill="#000000" d="M 122.5,231.5 C 121.833,230.167 121.833,230.167 122.5,231.5 Z"/></g>
<g><path style="opacity:0.435" fill="#000000" d="M 278.5,230.5 C 281.465,230.73 282.798,232.397 282.5,235.5C 282.489,237.854 281.656,239.854 280,241.5C 275.501,238.01 275.001,234.343 278.5,230.5 Z"/></g>
<g><path style="opacity:0.008" fill="#000000" d="M 534.5,231.5 C 535.833,232.167 535.833,232.167 534.5,231.5 Z"/></g>
<g><path style="opacity:0.004" fill="#000000" d="M 117.5,232.5 C 118.833,233.167 118.833,233.167 117.5,232.5 Z"/></g>
<g><path style="opacity:0.004" fill="#000000" d="M 110.5,236.5 C 109.833,235.167 109.833,235.167 110.5,236.5 Z"/></g>
<g><path style="opacity:0.004" fill="#000000" d="M 358.5,241.5 C 357.833,241.5 357.167,241.5 356.5,241.5C 357.548,239.067 358.214,239.067 358.5,241.5 Z"/></g>
<g><path style="opacity:0.004" fill="#000000" d="M 541.5,239.5 C 542.833,240.167 542.833,240.167 541.5,239.5 Z"/></g>
<g><path style="opacity:0.009" fill="#000000" d="M 228.5,243.5 C 230.167,243.5 231.833,243.5 233.5,243.5C 234.227,247.938 232.393,250.605 228,251.5C 227.333,250.167 226.667,250.167 226,251.5C 225.833,250.667 225.667,249.833 225.5,249C 226.562,247.159 227.562,245.326 228.5,243.5 Z"/></g>
<g><path style="opacity:0.006" fill="#000000" d="M 179.5,284.5 C 174.095,277.26 167.762,270.76 160.5,265C 159.101,264.405 157.768,264.572 156.5,265.5C 154.672,264.205 152.672,263.205 150.5,262.5C 152.184,261.146 152.684,259.479 152,257.5C 145.789,250.209 138.122,247.542 129,249.5C 118.632,250.926 108.799,254.093 99.5,259C 93.3182,264.013 86.9849,268.846 80.5,273.5C 74.8333,278.833 69.1667,284.167 63.5,289.5C 55.0551,301.154 49.3885,313.987 46.5,328C 46.9343,333.726 48.101,339.559 50,345.5C 53.0542,349.706 56.2209,353.706 59.5,357.5C 57.3032,356.155 54.9698,354.989 52.5,354C 52.9574,353.586 53.2907,353.086 53.5,352.5C 51.6095,351.576 50.1095,350.243 49,348.5C 41.9857,336.322 41.3191,323.655 47,310.5C 52.4504,297.925 60.117,286.925 70,277.5C 72.4033,276.219 74.2367,274.386 75.5,272C 84.8135,266.339 93.8135,260.172 102.5,253.5C 108.846,250.468 115.013,247.802 121,245.5C 125.052,245.623 129.219,245.79 133.5,246C 144.808,248.826 155.141,253.493 164.5,260C 167.544,265.387 171.378,270.22 176,274.5C 176.763,277.47 178.263,279.97 180.5,282C 179.748,282.671 179.414,283.504 179.5,284.5 Z"/></g>
<g><path style="opacity:0.005" fill="#000000" d="M 523.5,252.5 C 522.261,249.118 522.927,248.785 525.5,251.5C 525.043,252.298 524.376,252.631 523.5,252.5 Z"/></g>
<g><path style="opacity:0.004" fill="#000000" d="M 70.5,252.5 C 71.8333,253.167 71.8333,253.167 70.5,252.5 Z"/></g>
<g><path style="opacity:0.004" fill="#000000" d="M 61.5,258.5 C 60.8333,257.167 60.8333,257.167 61.5,258.5 Z"/></g>
<g><path style="opacity:0.004" fill="#000000" d="M 56.5,260.5 C 57.8333,261.167 57.8333,261.167 56.5,260.5 Z"/></g>
<g><path style="opacity:0.005" fill="#000000" d="M 381.5,260.5 C 382.586,260.62 383.253,261.287 383.5,262.5C 382.448,264.223 382.448,265.89 383.5,267.5C 372.767,275.318 367.767,285.984 368.5,299.5C 369.571,304.188 369.571,308.854 368.5,313.5C 366.281,311.685 365.614,309.519 366.5,307C 364.041,303.738 364.041,300.571 366.5,297.5C 366.167,296.833 365.833,296.167 365.5,295.5C 366.841,291.616 367.675,287.616 368,283.5C 371.47,275.226 375.97,267.559 381.5,260.5 Z"/></g>
<g><path style="opacity:0.004" fill="#000000" d="M 334.5,270.5 C 336.339,271.508 337.672,273.008 338.5,275C 337.081,278.586 334.748,281.419 331.5,283.5C 330.682,281.892 330.015,280.225 329.5,278.5C 330.815,275.538 332.482,272.871 334.5,270.5 Z"/></g>
<g><path style="opacity:0.523" fill="#000000" d="M 147.5,278.5 C 153.258,279.678 154.924,283.012 152.5,288.5C 149.183,286.858 146.85,284.358 145.5,281C 146.056,279.989 146.722,279.156 147.5,278.5 Z"/></g>
<g><path style="opacity:0.004" fill="#000000" d="M 570.5,288.5 C 571.833,289.167 571.833,289.167 570.5,288.5 Z"/></g>
<g><path style="opacity:0.008" fill="#000000" d="M 570.5,290.5 C 571.833,291.167 571.833,291.167 570.5,290.5 Z"/></g>
<g><path style="opacity:0.004" fill="#000000" d="M 571.5,292.5 C 572.833,293.167 572.833,293.167 571.5,292.5 Z"/></g>
<g><path style="opacity:0.004" fill="#000000" d="M 573.5,298.5 C 574.833,299.167 574.833,299.167 573.5,298.5 Z"/></g>
<g><path style="opacity:0.004" fill="#000000" d="M 575.5,303.5 C 576.833,304.167 576.833,304.167 575.5,303.5 Z"/></g>
<g><path style="opacity:0.004" fill="#000000" d="M 182.5,312.5 C 182.992,316.095 182.992,319.595 182.5,323C 180.475,326.25 178.975,329.75 178,333.5C 177.333,331.5 177.333,329.5 178,327.5C 179.072,322.253 180.572,317.253 182.5,312.5 Z"/></g>
<g><path style="opacity:0.005" fill="#000000" d="M 559.5,313.5 C 563.644,316.618 563.478,319.618 559,322.5C 558.264,319.408 558.431,316.408 559.5,313.5 Z"/></g>
<g><path style="opacity:0.004" fill="#000000" d="M 578.5,314.5 C 579.833,315.167 579.833,315.167 578.5,314.5 Z"/></g>
<g><path style="opacity:0.463" fill="#000000" d="M 112.5,326.5 C 113.5,326.5 114.5,326.5 115.5,326.5C 118.685,331.205 120.352,336.538 120.5,342.5C 112.868,339.797 110.201,334.464 112.5,326.5 Z"/></g>
<g><path style="opacity:0.008" fill="#000000" d="M 373.5,333.5 C 377.755,338.609 381.921,343.942 386,349.5C 386.598,352.308 387.765,354.808 389.5,357C 389.484,359.606 388.984,362.106 388,364.5C 387.667,363.167 387.333,361.833 387,360.5C 384.239,356.65 381.239,352.983 378,349.5C 375.679,344.798 373.845,340.131 372.5,335.5C 372.863,334.817 373.196,334.15 373.5,333.5 Z"/></g>
<g><path style="opacity:0.004" fill="#000000" d="M 174.5,339.5 C 175.686,333.919 176.186,333.586 176,338.5C 175.617,339.056 175.117,339.389 174.5,339.5 Z"/></g>
<g><path style="opacity:0.56" fill="#000000" d="M 269.5,335.5 C 271.722,335.178 273.556,335.845 275,337.5C 275.497,339.81 275.663,342.143 275.5,344.5C 270.314,343.825 268.314,340.825 269.5,335.5 Z"/></g>
<g><path style="opacity:0.004" fill="#000000" d="M 16.5,338.5 C 17.8333,339.167 17.8333,339.167 16.5,338.5 Z"/></g>
<g><path style="opacity:0.004" fill="#000000" d="M 16.5,340.5 C 17.8333,341.167 17.8333,341.167 16.5,340.5 Z"/></g>
<g><path style="opacity:0.004" fill="#000000" d="M 170.5,341.5 C 172.028,341.517 172.528,342.184 172,343.5C 168.93,345.447 166.43,347.947 164.5,351C 159.751,353.911 155.251,356.411 151,358.5C 151.811,355.859 152.978,353.192 154.5,350.5C 159.632,346.939 164.966,343.939 170.5,341.5 Z"/></g>
<g><path style="opacity:0.009" fill="#000000" d="M 298.5,341.5 C 300.65,340.924 302.65,341.591 304.5,343.5C 303.902,344.795 303.402,346.128 303,347.5C 298.375,351.788 293.709,356.121 289,360.5C 288.5,360 288,359.5 287.5,359C 290.643,352.721 294.31,346.888 298.5,341.5 Z"/></g>
<g><path style="opacity:0.004" fill="#000000" d="M 20.5,352.5 C 19.8333,353.167 19.8333,353.167 20.5,352.5 Z"/></g>
<g><path style="opacity:0.008" fill="#000000" d="M 577.5,355.5 C 578.833,356.167 578.833,356.167 577.5,355.5 Z"/></g>
<g><path style="opacity:0.004" fill="#000000" d="M 59.5,357.5 C 61.0281,357.517 61.5281,358.184 61,359.5C 60.2828,358.956 59.7828,358.289 59.5,357.5 Z"/></g>
<g><path style="opacity:0.004" fill="#000000" d="M 25.5,361.5 C 24.8333,362.167 24.8333,362.167 25.5,361.5 Z"/></g>
<g><path style="opacity:0.004" fill="#000000" d="M 72.5,365.5 C 73.2891,365.783 73.9558,366.283 74.5,367C 73.184,367.528 72.5173,367.028 72.5,365.5 Z"/></g>
<g><path style="opacity:0.294" fill="#000000" d="M 338.5,374.5 C 339.5,374.5 340.5,374.5 341.5,374.5C 341.833,377.5 340.5,378.833 337.5,378.5C 337.433,377.041 337.766,375.708 338.5,374.5 Z"/></g>
<g><path style="opacity:0.004" fill="#000000" d="M 518.5,378.5 C 519.71,380.176 519.21,381.51 517,382.5C 516.536,381.906 516.369,381.239 516.5,380.5C 517.167,380.5 517.5,380.167 517.5,379.5C 518.167,379.5 518.5,379.167 518.5,378.5 Z"/></g>
<g><path style="opacity:0.16" fill="#000000" d="M 198.5,379.5 C 207.418,381.55 208.751,386.05 202.5,393C 200.527,393.495 198.527,393.662 196.5,393.5C 196.719,389.516 196.719,385.682 196.5,382C 197.381,381.292 198.047,380.458 198.5,379.5 Z"/></g>
<g><path style="opacity:0.004" fill="#000000" d="M 469.5,384.5 C 466.999,384.489 466.832,383.822 469,382.5C 469.464,383.094 469.631,383.761 469.5,384.5 Z"/></g>
<g><path style="opacity:0.004" fill="#000000" d="M 572.5,393.5 C 573.833,394.167 573.833,394.167 572.5,393.5 Z"/></g>
<g><path style="opacity:0.016" fill="#000000" d="M 113.5,394.5 C 120.375,395.144 121.042,397.811 115.5,402.5C 110.158,400.608 109.492,397.941 113.5,394.5 Z"/></g>
<g><path style="opacity:0.004" fill="#000000" d="M 63.5,396.5 C 64.8333,397.167 64.8333,397.167 63.5,396.5 Z"/></g>
<g><path style="opacity:0.004" fill="#000000" d="M 389.5,398.5 C 390.167,398.5 390.5,398.833 390.5,399.5C 390.44,400.043 390.107,400.376 389.5,400.5C 388.227,399.743 388.227,399.077 389.5,398.5 Z"/></g>
<g><path style="opacity:0.019" fill="#000000" d="M 526.5,399.5 C 531.608,399.217 532.608,401.05 529.5,405C 516.069,408.251 515.069,406.418 526.5,399.5 Z"/></g>
<g><path style="opacity:0.004" fill="#000000" d="M 573.5,406.5 C 574.833,407.167 574.833,407.167 573.5,406.5 Z"/></g>
<g><path style="opacity:0.004" fill="#000000" d="M 571.5,418.5 C 572.833,419.167 572.833,419.167 571.5,418.5 Z"/></g>
<g><path style="opacity:0.004" fill="#000000" d="M 463.5,443.5 C 464.833,444.167 464.833,444.167 463.5,443.5 Z"/></g>
<g><path style="opacity:0.004" fill="#000000" d="M 453.5,444.5 C 453.833,444.5 454.167,444.5 454.5,444.5C 454.315,445.17 453.981,445.17 453.5,444.5 Z"/></g>
<g><path style="opacity:0.004" fill="#000000" d="M 408.5,445.5 C 409.833,446.167 409.833,446.167 408.5,445.5 Z"/></g>
<g><path style="opacity:0.004" fill="#000000" d="M 517.5,445.5 C 518.833,446.167 518.833,446.167 517.5,445.5 Z"/></g>
<g><path style="opacity:0.004" fill="#000000" d="M 523.5,445.5 C 524.833,446.167 524.833,446.167 523.5,445.5 Z"/></g>
<g><path style="opacity:0.004" fill="#000000" d="M 526.5,445.5 C 527.833,446.167 527.833,446.167 526.5,445.5 Z"/></g>
<g><path style="opacity:0.004" fill="#000000" d="M 228.5,446.5 C 229.833,447.167 229.833,447.167 228.5,446.5 Z"/></g>
<g><path style="opacity:0.004" fill="#000000" d="M 236.5,446.5 C 237.833,447.167 237.833,447.167 236.5,446.5 Z"/></g>
<g><path style="opacity:0.004" fill="#000000" d="M 240.5,448.5 C 241.833,449.167 241.833,449.167 240.5,448.5 Z"/></g>
<g><path style="opacity:0.004" fill="#000000" d="M 333.5,452.5 C 334.833,453.167 334.833,453.167 333.5,452.5 Z"/></g>
<g><path style="opacity:0.004" fill="#000000" d="M 340.5,452.5 C 341.833,453.167 341.833,453.167 340.5,452.5 Z"/></g>
<g><path style="opacity:0.004" fill="#000000" d="M 354.5,452.5 C 355.833,453.167 355.833,453.167 354.5,452.5 Z"/></g>
<g><path style="opacity:0.004" fill="#000000" d="M 267.5,455.5 C 267.897,454.475 268.563,454.308 269.5,455C 268.906,455.464 268.239,455.631 267.5,455.5 Z"/></g>
</svg>
