<?xml version="1.0" encoding="UTF-8"?>
<!DOCTYPE svg PUBLIC "-//W3C//DTD SVG 1.1//EN" "http://www.w3.org/Graphics/SVG/1.1/DTD/svg11.dtd">
<svg xmlns="http://www.w3.org/2000/svg" version="1.1" width="611px" height="611px" style="shape-rendering:geometricPrecision; text-rendering:geometricPrecision; image-rendering:optimizeQuality; fill-rule:evenodd; clip-rule:evenodd" xmlns:xlink="http://www.w3.org/1999/xlink">
<g><path style="opacity:0.793" fill="#000000" d="M 460.5,89.5 C 461.5,89.5 462.5,89.5 463.5,89.5C 463.84,91.9912 464.84,94.1579 466.5,96C 467.078,100.864 467.744,105.698 468.5,110.5C 468.815,162.958 468.482,215.791 467.5,269C 468.214,281.559 468.881,293.893 469.5,306C 468.853,318.043 468.186,330.043 467.5,342C 467.833,342.333 468.167,342.667 468.5,343C 467.833,346.333 467.167,349.667 466.5,353C 467.097,354.889 467.431,356.722 467.5,358.5C 466.708,364.449 466.208,370.449 466,376.5C 463.985,378.478 464.152,380.312 466.5,382C 464.708,387.759 463.375,393.759 462.5,400C 462.735,400.873 463.069,401.707 463.5,402.5C 462.346,417.458 461.846,432.458 462,447.5C 464.896,451.065 467.396,454.898 469.5,459C 474.261,471.306 479.261,483.139 484.5,494.5C 483.702,497.797 481.702,499.964 478.5,501C 468.786,501.192 459.12,501.692 449.5,502.5C 402.148,502.811 353.982,502.478 305,501.5C 296.487,502.152 287.987,502.819 279.5,503.5C 272.256,503.008 265.256,502.674 258.5,502.5C 247.167,503.5 235.833,504.5 224.5,505.5C 192.455,504.182 160.955,504.182 130,505.5C 128.189,504.922 126.355,504.422 124.5,504C 125.816,489.922 127.982,475.755 131,461.5C 132.031,457.107 133.864,453.107 136.5,449.5C 137.5,449 138.5,448.5 139.5,448C 147.216,447.801 154.882,447.301 162.5,446.5C 174.072,447.733 185.406,447.733 196.5,446.5C 142.84,416.428 114.507,370.428 111.5,308.5C 115.737,234.82 152.403,185.32 221.5,160C 289.245,143.139 345.412,161.306 390,214.5C 423.292,261.889 429.959,312.889 410,367.5C 397.049,396.45 377.549,419.95 351.5,438C 348.198,439.651 344.864,441.318 341.5,443C 368.99,442.826 396.324,441.826 423.5,440C 423.043,439.586 422.709,439.086 422.5,438.5C 423.106,428.249 424.44,418.082 426.5,408C 426.641,373.668 428.308,339.168 431.5,304.5C 431.167,303.833 430.833,303.167 430.5,302.5C 431.952,285.556 432.952,268.556 433.5,251.5C 432.309,239.536 431.476,227.536 431,215.5C 403.735,188.558 377.735,160.225 353,130.5C 332.903,133.187 312.737,135.52 292.5,137.5C 286.014,137.122 279.347,137.122 272.5,137.5C 262.925,138.325 253.425,139.658 244,141.5C 243.05,140.978 242.216,140.311 241.5,139.5C 241.037,131.39 240.037,123.39 238.5,115.5C 239.285,111.544 241.619,109.377 245.5,109C 261.062,108.177 276.562,107.344 292,106.5C 345.784,106.117 399.951,101.284 454.5,92C 456.852,91.7599 458.852,90.9265 460.5,89.5 Z M 455.5,100.5 C 457.402,139.09 459.068,177.923 460.5,217C 460.174,260.937 460.174,305.604 460.5,351C 459.801,354.8 459.135,358.633 458.5,362.5C 458.709,363.086 459.043,363.586 459.5,364C 457.276,390.724 455.943,416.891 455.5,442.5C 448.183,440.992 440.849,440.492 433.5,441C 432.167,440.333 431.167,439.333 430.5,438C 433.283,415.4 435.283,392.566 436.5,369.5C 436.665,365.423 436.331,361.589 435.5,358C 436.191,348.376 436.858,338.71 437.5,329C 437.396,316.507 437.396,303.841 437.5,291C 438.274,287.228 438.94,283.395 439.5,279.5C 439.32,278.446 438.987,277.446 438.5,276.5C 439.395,264.178 440.395,251.844 441.5,239.5C 440.766,231.837 440.766,224.337 441.5,217C 441.593,213.158 440.926,209.491 439.5,206C 441.03,193.239 442.364,180.406 443.5,167.5C 443.357,151.013 442.857,134.679 442,118.5C 441.261,117.426 440.261,116.759 439,116.5C 433.277,118.019 427.444,118.853 421.5,119C 387.159,120.334 352.992,123.168 319,127.5C 301.629,128.194 284.129,129.36 266.5,131C 260.003,131.333 253.67,132.5 247.5,134.5C 246.505,128.872 246.171,123.206 246.5,117.5C 253.135,116.562 259.802,115.728 266.5,115C 289.409,114.128 312.243,112.961 335,111.5C 335.725,112.059 336.558,112.392 337.5,112.5C 377.161,109.874 416.494,105.874 455.5,100.5 Z M 430.5,124.5 C 432.086,125.413 433.586,125.413 435,124.5C 435.667,135.167 435.667,145.833 435,156.5C 426.789,147.291 418.956,137.791 411.5,128C 416.109,127.534 420.609,126.7 425,125.5C 426.996,126.341 428.829,126.008 430.5,124.5 Z M 374.5,128.5 C 384.522,128.168 394.522,128.501 404.5,129.5C 408.883,134.391 412.716,139.725 416,145.5C 421.982,152.818 427.982,160.152 434,167.5C 434.402,168.872 434.902,170.205 435.5,171.5C 434.966,176.438 434.299,181.605 433.5,187C 433.585,188.107 433.919,189.107 434.5,190C 433.968,194.597 433.135,199.097 432,203.5C 408.667,179.833 385.333,156.167 362,132.5C 361.568,131.4 362.068,130.733 363.5,130.5C 367.331,129.973 370.998,129.306 374.5,128.5 Z M 320.5,176.5 C 305.56,174.54 290.893,172.04 276.5,169C 271.809,168.396 267.142,168.063 262.5,168C 260.234,169.514 259.068,171.681 259,174.5C 258.333,181.167 258.333,187.833 259,194.5C 259.5,195 260,195.5 260.5,196C 272.484,197.942 284.484,199.775 296.5,201.5C 297.086,201.291 297.586,200.957 298,200.5C 306.615,203.904 315.448,205.737 324.5,206C 326.293,197.271 327.793,188.438 329,179.5C 335.784,183.474 342.618,187.307 349.5,191C 355.474,195.149 360.807,199.982 365.5,205.5C 363.269,204.376 360.936,203.876 358.5,204C 354.654,207.829 350.487,211.329 346,214.5C 344.463,218.244 344.463,221.911 346,225.5C 349.009,228.177 351.676,231.177 354,234.5C 360.666,245.692 368.166,256.192 376.5,266C 384.657,266.451 391.491,263.618 397,257.5C 397.494,255.866 397.66,254.199 397.5,252.5C 412.259,283.676 414.259,315.676 403.5,348.5C 404.285,339.128 405.285,329.794 406.5,320.5C 406.042,314.965 405.876,309.298 406,303.5C 400.295,300.202 394.129,299.035 387.5,300C 386.315,301.353 384.981,302.52 383.5,303.5C 381.774,321.414 379.441,339.247 376.5,357C 377.739,363.653 381.239,365.153 387,361.5C 391.557,362.714 395.724,362.714 399.5,361.5C 393.209,376.606 384.709,390.273 374,402.5C 370.005,396.342 365.172,391.008 359.5,386.5C 343.596,395.37 328.429,405.37 314,416.5C 312.391,420.55 312.724,424.55 315,428.5C 317.524,433.193 321.358,436.193 326.5,437.5C 318.902,442.422 310.569,445.255 301.5,446C 296.319,440.652 290.985,435.485 285.5,430.5C 284.502,422.193 284.169,413.86 284.5,405.5C 319.948,398.697 345.448,379.03 361,346.5C 372.127,319.556 372.294,292.556 361.5,265.5C 362.326,264.549 362.492,263.549 362,262.5C 352.969,249.13 342.803,236.63 331.5,225C 298.479,201.08 262.812,196.413 224.5,211C 207.8,218.271 194.3,229.438 184,244.5C 161.783,276.241 157.783,310.241 172,346.5C 188.754,381.732 216.587,401.732 255.5,406.5C 254.608,414.488 254.941,422.488 256.5,430.5C 251.039,436.132 245.706,441.965 240.5,448C 214.132,444.148 191.132,433.314 171.5,415.5C 173.484,415.383 175.15,416.05 176.5,417.5C 182.714,413.988 188.214,409.655 193,404.5C 193.418,398.864 191.085,394.53 186,391.5C 183,387.167 180,382.833 177,378.5C 168.162,371.084 161.995,362.25 158.5,352C 156.167,351.333 153.833,351.333 151.5,352C 145.972,356.166 140.805,360.666 136,365.5C 114.734,312.093 121.401,262.426 156,216.5C 199.919,168.56 253.085,154.06 315.5,173C 317.346,174.03 319.013,175.196 320.5,176.5 Z M 267.5,176.5 C 284.094,179.988 300.761,183.155 317.5,186C 318.285,188.443 318.119,190.943 317,193.5C 314.376,193.47 311.709,193.803 309,194.5C 303.721,193.411 298.387,192.411 293,191.5C 286.997,191.433 280.997,191.433 275,191.5C 271.871,190.87 268.704,190.204 265.5,189.5C 265.865,185.299 266.532,180.966 267.5,176.5 Z M 211.5,190.5 C 213.019,193.021 214.686,195.521 216.5,198C 203.632,206.023 190.798,214.19 178,222.5C 175.191,220.691 172.691,218.524 170.5,216C 184.645,207.945 198.312,199.445 211.5,190.5 Z M 366.5,206.5 C 380.33,218.181 390.163,232.514 396,249.5C 386.622,234.663 376.789,220.33 366.5,206.5 Z M 360.5,212.5 C 370.544,225.262 379.544,238.929 387.5,253.5C 386.472,255.361 384.972,256.695 383,257.5C 371.642,246.149 361.809,233.649 353.5,220C 356.016,217.651 358.349,215.151 360.5,212.5 Z M 258.5,213.5 C 261.572,213.183 264.572,213.516 267.5,214.5C 266.105,224.979 264.771,235.479 263.5,246C 263.735,246.873 264.069,247.707 264.5,248.5C 263.536,259.057 262.536,269.39 261.5,279.5C 248.459,261.251 235.793,242.751 223.5,224C 234.773,218.771 246.44,215.271 258.5,213.5 Z M 275.5,214.5 C 280.978,214.729 286.311,215.729 291.5,217.5C 290.687,218.814 289.687,219.981 288.5,221C 288.833,221.333 289.167,221.667 289.5,222C 287.585,225.077 286.919,228.244 287.5,231.5C 285.308,240.712 283.642,249.879 282.5,259C 282.645,259.772 282.978,260.439 283.5,261C 281.784,267.15 280.45,273.317 279.5,279.5C 276.833,279.167 274.167,278.833 271.5,278.5C 271.68,268.759 271.68,259.093 271.5,249.5C 272.592,237.735 273.926,226.068 275.5,214.5 Z M 289.5,278.5 C 291.567,270.499 293.234,262.499 294.5,254.5C 294.277,253.033 293.944,251.533 293.5,250C 294.783,245.247 295.783,240.414 296.5,235.5C 296.167,234.833 295.833,234.167 295.5,233.5C 296.378,229.191 297.212,224.858 298,220.5C 298.414,220.043 298.914,219.709 299.5,219.5C 313.132,224.812 324.465,233.145 333.5,244.5C 319.458,256.53 304.791,267.863 289.5,278.5 Z M 217.5,227.5 C 220.75,233.386 223.917,239.386 227,245.5C 235.749,256.67 243.749,268.336 251,280.5C 251.781,281.944 251.614,283.277 250.5,284.5C 249.186,285.313 248.019,286.313 247,287.5C 246.626,286.584 246.126,285.75 245.5,285C 242.833,284 240.167,283 237.5,282C 235.506,279.173 233.172,276.673 230.5,274.5C 221.679,262.836 213.012,251.002 204.5,239C 208.433,234.558 212.767,230.724 217.5,227.5 Z M 198.5,244.5 C 199.376,244.369 200.043,244.702 200.5,245.5C 208.385,257.444 216.385,269.277 224.5,281C 209.883,279.543 195.55,276.543 181.5,272C 185.786,261.917 191.453,252.75 198.5,244.5 Z M 340.5,253.5 C 342.47,255.647 344.303,257.98 346,260.5C 347.187,262.044 347.52,263.711 347,265.5C 340.917,269.459 334.751,273.292 328.5,277C 319.864,284.371 311.03,291.538 302,298.5C 300.392,294.957 298.058,291.957 295,289.5C 294.333,288.833 294.333,288.167 295,287.5C 307.891,277.944 321.057,268.777 334.5,260C 336.907,258.133 338.907,255.966 340.5,253.5 Z M 141.5,264.5 C 143.993,265.774 146.659,266.44 149.5,266.5C 147.492,282.882 145.158,299.215 142.5,315.5C 139.813,315.664 137.146,315.497 134.5,315C 133.484,314.481 132.818,313.647 132.5,312.5C 133.757,305.73 135.424,299.063 137.5,292.5C 137.167,291.833 136.833,291.167 136.5,290.5C 139.648,282.138 141.315,273.471 141.5,264.5 Z M 352.5,274.5 C 356.69,284.314 358.523,294.647 358,305.5C 350.606,304.16 343.106,303.327 335.5,303C 333.798,301.282 331.965,301.115 330,302.5C 324.849,301.125 319.683,300.625 314.5,301C 321.813,297.525 328.146,292.859 333.5,287C 340.265,283.298 346.598,279.131 352.5,274.5 Z M 178.5,281.5 C 189.392,285.091 200.392,288.258 211.5,291C 219.141,292.461 226.808,293.795 234.5,295C 236.513,295.68 237.846,297.013 238.5,299C 237.437,302.153 236.437,305.32 235.5,308.5C 233.459,307.764 231.459,306.931 229.5,306C 223.167,305.761 217.001,305.928 211,306.5C 210.5,306 210,305.5 209.5,305C 198.154,304.1 186.821,303.266 175.5,302.5C 175.958,295.418 176.958,288.418 178.5,281.5 Z M 271.5,289.5 C 282.951,291.788 290.451,298.454 294,309.5C 295.31,317.959 292.81,324.959 286.5,330.5C 285.682,328.892 285.015,327.225 284.5,325.5C 284.62,320.919 284.787,316.252 285,311.5C 286.846,307.525 285.68,304.859 281.5,303.5C 281.649,302.448 281.483,301.448 281,300.5C 277.198,297.211 274.031,293.544 271.5,289.5 Z M 264.5,294.5 C 270.206,299.053 274.873,304.553 278.5,311C 278.011,323.511 278.011,336.178 278.5,349C 277.743,351.944 277.077,354.944 276.5,358C 277.622,381.296 278.288,404.629 278.5,428C 277.196,428.804 276.529,429.971 276.5,431.5C 285.53,441.86 294.863,451.86 304.5,461.5C 308.885,466.55 312.885,471.884 316.5,477.5C 313.973,478.214 311.473,478.88 309,479.5C 305.58,479.65 302.08,479.316 298.5,478.5C 273.809,481.138 248.809,481.971 223.5,481C 235.817,466.203 248.484,451.703 261.5,437.5C 262.557,435.997 263.224,434.33 263.5,432.5C 262.877,426.478 262.21,420.478 261.5,414.5C 262.868,397.203 261.868,379.536 258.5,361.5C 259.046,360.228 259.379,358.894 259.5,357.5C 258.99,340.889 257.99,324.556 256.5,308.5C 259.652,304.038 262.319,299.371 264.5,294.5 Z M 253.5,298.5 C 252.68,300.812 251.847,303.146 251,305.5C 250.667,312.5 250.333,319.5 250,326.5C 245.333,318.167 245.333,309.833 250,301.5C 251.039,300.29 252.206,299.29 253.5,298.5 Z M 390.5,307.5 C 393.167,307.833 395.833,308.167 398.5,308.5C 397.882,323.403 395.882,338.07 392.5,352.5C 390.926,353.631 389.259,353.798 387.5,353C 387.65,349.7 387.65,346.367 387.5,343C 388.171,337.143 389.171,331.31 390.5,325.5C 390.376,319.726 390.376,313.726 390.5,307.5 Z M 305.5,309.5 C 322.696,311.528 340.03,313.861 357.5,316.5C 356.833,320.833 356.167,325.167 355.5,329.5C 351.076,329.288 346.576,329.288 342,329.5C 335.001,325.89 327.668,324.557 320,325.5C 314.996,323.882 309.829,323.215 304.5,323.5C 305.229,318.87 305.563,314.203 305.5,309.5 Z M 266.5,310.5 C 269.001,310.511 269.168,311.178 267,312.5C 266.536,311.906 266.369,311.239 266.5,310.5 Z M 175.5,312.5 C 193.583,314.744 211.583,316.244 229.5,317C 216.523,325.967 203.523,334.967 190.5,344C 188.513,345.319 187.346,347.152 187,349.5C 180.853,337.918 177.019,325.584 175.5,312.5 Z M 236.5,324.5 C 238.709,328.918 240.876,333.251 243,337.5C 228.725,347.614 215.225,358.614 202.5,370.5C 198.266,366.435 194.599,361.935 191.5,357C 206.05,345.627 221.05,334.794 236.5,324.5 Z M 306.5,334.5 C 311.861,334.639 317.361,334.639 323,334.5C 331.954,338.568 341.454,340.734 351.5,341C 345.854,351.973 338.688,361.807 330,370.5C 329.228,370.355 328.561,370.022 328,369.5C 321.376,357.403 314.209,345.736 306.5,334.5 Z M 297.5,335.5 C 305.188,349.19 313.188,362.856 321.5,376.5C 318.373,380.425 314.373,383.425 309.5,385.5C 302.112,374.129 294.279,363.129 286,352.5C 284.301,346.434 286.467,342.601 292.5,341C 294.373,339.296 296.04,337.463 297.5,335.5 Z M 248.5,345.5 C 249.653,349.202 250.653,353.035 251.5,357C 251.043,357.414 250.709,357.914 250.5,358.5C 251.167,361.167 251.833,363.833 252.5,366.5C 252.167,367.167 251.833,367.833 251.5,368.5C 252.644,377.801 253.644,387.134 254.5,396.5C 238.174,393.779 223.507,387.279 210.5,377C 223.199,366.204 235.866,355.704 248.5,345.5 Z M 150.5,363.5 C 152.371,363.859 153.871,364.859 155,366.5C 163.797,378.626 173.297,390.126 183.5,401C 180.973,403.527 178.473,406.027 176,408.5C 165.73,395.873 155.73,382.873 146,369.5C 145.251,368.365 145.417,367.365 146.5,366.5C 147.901,365.479 149.235,364.479 150.5,363.5 Z M 284.5,368.5 C 286.081,370.674 287.581,373.007 289,375.5C 292.883,379.573 296.049,384.24 298.5,389.5C 294.919,391.923 290.919,393.59 286.5,394.5C 285.77,392.659 285.103,390.825 284.5,389C 284.609,382.318 284.609,375.484 284.5,368.5 Z M 142.5,378.5 C 144.104,379.287 144.771,380.62 144.5,382.5C 143.326,381.486 142.66,380.153 142.5,378.5 Z M 144.5,382.5 C 150.638,387.654 155.305,393.987 158.5,401.5C 153.093,395.753 148.427,389.42 144.5,382.5 Z M 357.5,396.5 C 359.605,398.1 361.605,399.933 363.5,402C 362.101,404.206 360.434,406.206 358.5,408C 347.075,414.428 335.909,421.261 325,428.5C 322.543,425.908 322.376,423.408 324.5,421C 329.653,417.178 334.487,413.011 339,408.5C 339.333,408.833 339.667,409.167 340,409.5C 345.169,404.15 351.002,399.816 357.5,396.5 Z M 158.5,401.5 C 159.833,401.5 160.5,402.167 160.5,403.5C 159.5,403.167 158.833,402.5 158.5,401.5 Z M 161.5,404.5 C 162.906,404.973 163.573,405.973 163.5,407.5C 162.094,407.027 161.427,406.027 161.5,404.5 Z M 361.5,415.5 C 351.314,425.098 339.647,432.432 326.5,437.5C 331.98,433.921 337.314,430.088 342.5,426C 348.911,422.465 355.244,418.965 361.5,415.5 Z M 327.5,449.5 C 350.714,451.62 373.88,451.62 397,449.5C 406.953,450.009 417.119,450.676 427.5,451.5C 435.907,450.147 444.241,450.48 452.5,452.5C 453.293,452.069 454.127,451.735 455,451.5C 459.32,459.472 463.654,467.472 468,475.5C 469.575,479.882 470.908,484.216 472,488.5C 449.896,488.587 427.729,488.587 405.5,488.5C 401.633,489.135 397.8,489.801 394,490.5C 387.635,489.745 381.135,489.411 374.5,489.5C 370.633,490.135 366.8,490.801 363,491.5C 346.498,491.622 329.832,491.289 313,490.5C 285.633,491.512 258.133,493.178 230.5,495.5C 209.819,496.717 189.152,496.717 168.5,495.5C 158.547,496.309 148.547,496.809 138.5,497C 136.955,498.369 135.289,498.202 133.5,496.5C 136.12,482.866 138.454,469.533 140.5,456.5C 144.902,456.228 149.235,456.561 153.5,457.5C 175.057,457.032 196.557,456.032 218,454.5C 222.221,455.927 226.387,457.427 230.5,459C 222.905,467.678 215.905,476.845 209.5,486.5C 209.833,487.167 210.167,487.833 210.5,488.5C 213.497,489.248 216.497,489.915 219.5,490.5C 224.698,489.857 229.865,489.19 235,488.5C 239.245,489.604 243.412,490.271 247.5,490.5C 262.097,488.556 276.763,487.223 291.5,486.5C 303.494,486.5 315.494,486.5 327.5,486.5C 328.648,484.577 329.148,482.577 329,480.5C 322.422,472.997 316.589,464.997 311.5,456.5C 317.09,454.534 322.424,452.201 327.5,449.5 Z"/></g>
<g><path style="opacity:0.004" fill="#000000" d="M 473.5,90.5 C 475.372,91.3589 477.038,91.6922 478.5,91.5C 476.401,93.5202 474.067,93.8535 471.5,92.5C 472.243,91.8182 472.909,91.1515 473.5,90.5 Z"/></g>
<g><path style="opacity:0.759" fill="#000000" d="M 213.5,179.5 C 214.496,179.414 215.329,179.748 216,180.5C 217.806,185.446 220.139,190.112 223,194.5C 228.74,197.563 228.907,201.063 223.5,205C 208.194,212.65 193.527,221.317 179.5,231C 177.5,231.667 175.5,231.667 173.5,231C 169.4,226.647 165.9,221.814 163,216.5C 162.333,214.833 162.333,213.167 163,211.5C 172.493,206.011 181.993,200.511 191.5,195C 199.075,190.057 206.409,184.891 213.5,179.5 Z M 211.5,190.5 C 198.312,199.445 184.645,207.945 170.5,216C 172.691,218.524 175.191,220.691 178,222.5C 190.798,214.19 203.632,206.023 216.5,198C 214.686,195.521 213.019,193.021 211.5,190.5 Z"/></g>
<g><path style="opacity:0.8" fill="#000000" d="M 136.5,256.5 C 140.98,256.268 145.313,256.935 149.5,258.5C 150.167,258.167 150.833,257.833 151.5,257.5C 154.896,260.232 157.563,263.565 159.5,267.5C 156.5,282.162 153.5,296.828 150.5,311.5C 151.174,315.362 150.174,318.862 147.5,322C 141.101,322.18 134.767,322.347 128.5,322.5C 127.201,321.91 126.368,320.91 126,319.5C 125.333,315.833 125.333,312.167 126,308.5C 127.906,295.488 129.906,282.488 132,269.5C 132.745,264.828 134.245,260.494 136.5,256.5 Z M 141.5,264.5 C 141.315,273.471 139.648,282.138 136.5,290.5C 136.833,291.167 137.167,291.833 137.5,292.5C 135.424,299.063 133.757,305.73 132.5,312.5C 132.818,313.647 133.484,314.481 134.5,315C 137.146,315.497 139.813,315.664 142.5,315.5C 145.158,299.215 147.492,282.882 149.5,266.5C 146.659,266.44 143.993,265.774 141.5,264.5 Z"/></g>
<g><path style="opacity:0.76" fill="#000000" d="M 264.5,303.5 C 270.492,302.156 274.159,304.49 275.5,310.5C 274.851,315.677 271.851,318.344 266.5,318.5C 260.903,317.474 259.07,314.141 261,308.5C 262.176,306.804 263.343,305.138 264.5,303.5 Z M 266.5,310.5 C 266.369,311.239 266.536,311.906 267,312.5C 269.168,311.178 269.001,310.511 266.5,310.5 Z"/></g>
<g><path style="opacity:0.007" fill="#000000" d="M 244.5,364.5 C 248.587,369.815 248.421,375.149 244,380.5C 243.056,379.737 242.556,378.737 242.5,377.5C 243.493,373.209 244.16,368.876 244.5,364.5 Z"/></g>
<g><path style="opacity:0.005" fill="#000000" d="M 269.5,451.5 C 273.247,451.392 276.914,451.892 280.5,453C 278,454.833 275.5,456.667 273,458.5C 272.383,459.449 272.549,460.282 273.5,461C 270.497,462.31 267.497,462.476 264.5,461.5C 267.862,459.118 268.195,456.451 265.5,453.5C 266.949,452.828 268.282,452.161 269.5,451.5 Z"/></g>
<g><path style="opacity:0.015" fill="#000000" d="M 427.5,455.5 C 428.5,455.5 429.5,455.5 430.5,455.5C 430.5,457.5 430.5,459.5 430.5,461.5C 429.5,461.5 428.5,461.5 427.5,461.5C 427.5,459.5 427.5,457.5 427.5,455.5 Z"/></g>
</svg>
