<?xml version="1.0" encoding="UTF-8"?>
<!DOCTYPE svg PUBLIC "-//W3C//DTD SVG 1.1//EN" "http://www.w3.org/Graphics/SVG/1.1/DTD/svg11.dtd">
<svg xmlns="http://www.w3.org/2000/svg" version="1.1" width="611px" height="611px" style="shape-rendering:geometricPrecision; text-rendering:geometricPrecision; image-rendering:optimizeQuality; fill-rule:evenodd; clip-rule:evenodd" xmlns:xlink="http://www.w3.org/1999/xlink">
<g><path style="opacity:0.578" fill="#000000" d="M 282.5,140.5 C 288.954,141.877 295.62,142.71 302.5,143C 313.527,143.21 324.527,143.71 335.5,144.5C 336.554,144.32 337.554,143.987 338.5,143.5C 346.378,144.066 354.211,145.066 362,146.5C 370.98,146.72 379.98,146.72 389,146.5C 393.254,148.366 397.754,149.866 402.5,151C 410.23,156.487 417.897,162.821 425.5,170C 429.771,171.97 432.771,174.637 434.5,178C 437.658,179.998 440.658,182.165 443.5,184.5C 444.545,185.878 445.878,186.878 447.5,187.5C 449.587,189.441 451.587,191.607 453.5,194C 454.449,194.617 455.282,194.451 456,193.5C 456.617,194.449 456.451,195.282 455.5,196C 456.449,196.617 457.282,196.451 458,195.5C 458.762,198.468 460.595,200.468 463.5,201.5C 474.826,211.33 484.992,222.33 494,234.5C 496.119,234.507 497.953,235.674 499.5,238C 499.167,238.333 498.833,238.667 498.5,239C 499.701,239.903 500.535,241.069 501,242.5C 502.958,242.209 504.458,243.209 505.5,245.5C 502.833,245.833 502.833,246.167 505.5,246.5C 506.907,248.308 508.074,250.308 509,252.5C 509.667,251.167 510.333,251.167 511,252.5C 515.49,259.191 520.657,265.191 526.5,270.5C 529.768,274.394 532.934,278.394 536,282.5C 536.864,285.813 535.698,288.146 532.5,289.5C 532.167,288.167 531.833,288.167 531.5,289.5C 530.833,289.5 530.5,289.833 530.5,290.5C 524.867,296.339 518.2,298.172 510.5,296C 509.107,294.829 508.273,293.329 508,291.5C 504.365,290.198 500.699,290.198 497,291.5C 494.605,299.473 492.439,307.14 490.5,314.5C 490.68,315.554 491.013,316.554 491.5,317.5C 490.273,318.59 489.44,319.924 489,321.5C 485.717,339.493 482.717,357.827 480,376.5C 475.326,392.143 472.16,407.809 470.5,423.5C 467.39,425.079 464.224,425.412 461,424.5C 453.567,425.841 446.067,426.675 438.5,427C 436.757,428.635 434.923,428.802 433,427.5C 428.701,427.78 424.701,428.78 421,430.5C 414.659,429.559 408.159,430.226 401.5,432.5C 400.833,432.167 400.167,431.833 399.5,431.5C 394.887,432.279 390.22,432.779 385.5,433C 383.559,433.304 381.893,434.137 380.5,435.5C 377.445,434.291 374.778,434.957 372.5,437.5C 371.554,437.013 370.554,436.68 369.5,436.5C 361.827,438.641 354.161,439.974 346.5,440.5C 344.456,440.8 342.456,441.133 340.5,441.5C 338.856,441.714 337.356,441.38 336,440.5C 324.739,442.681 313.405,444.681 302,446.5C 299.698,446.4 297.698,445.733 296,444.5C 295.667,444.833 295.333,445.167 295,445.5C 293.419,442.447 291.086,441.78 288,443.5C 286.688,441.342 285.022,441.009 283,442.5C 282.228,441.151 281.061,440.318 279.5,440C 272.595,439.107 265.928,437.273 259.5,434.5C 258.833,434.833 258.167,435.167 257.5,435.5C 256.41,434.273 255.076,433.44 253.5,433C 245.885,432.126 238.719,430.626 232,428.5C 212.546,423.941 192.713,419.441 172.5,415C 166.754,412.45 160.754,410.784 154.5,410C 152.656,408.818 150.823,407.651 149,406.5C 148.127,406.735 147.293,407.069 146.5,407.5C 145.304,407.154 145.304,406.654 146.5,406C 138.504,404.833 130.504,403.667 122.5,402.5C 119.564,400.486 116.397,400.152 113,401.5C 110.975,399.275 108.642,398.941 106,400.5C 103.975,398.275 101.642,397.941 99,399.5C 95.7335,397.899 92.2335,397.066 88.5,397C 87.4495,395.615 86.1161,394.615 84.5,394C 85.0585,393.275 85.3918,392.442 85.5,391.5C 83.3725,385.657 81.8725,379.657 81,373.5C 80.3457,374.696 79.8457,374.696 79.5,373.5C 79.8333,372.833 80.1667,372.167 80.5,371.5C 78.0325,362.729 75.6992,354.396 73.5,346.5C 73.7373,345.209 73.404,344.209 72.5,343.5C 72.4613,339.267 71.7947,335.267 70.5,331.5C 69.3452,321.745 67.6786,313.079 65.5,305.5C 62.6414,305.408 60.1414,305.075 58,304.5C 57.3828,303.551 57.5494,302.718 58.5,302C 56.2635,298.855 54.7635,295.355 54,291.5C 53.5194,287.266 55.0194,283.766 58.5,281C 57.7203,279.927 57.887,278.76 59,277.5C 59.6667,276.167 60.3333,276.167 61,277.5C 62.776,274.059 64.9426,270.892 67.5,268C 67.1667,267.667 66.8333,267.333 66.5,267C 71.1045,262.314 75.6045,257.481 80,252.5C 80.6098,249.978 81.9431,247.978 84,246.5C 84.49,245.207 84.6567,243.873 84.5,242.5C 85.8333,242.5 87.1667,242.5 88.5,242.5C 89.1667,240.167 89.8333,237.833 90.5,235.5C 92.3904,235.703 93.8904,235.037 95,233.5C 101.84,221.66 109.84,210.66 119,200.5C 119.249,197.823 120.249,195.49 122,193.5C 122.333,193.833 122.667,194.167 123,194.5C 123.615,192.884 124.615,191.551 126,190.5C 126.617,189.551 126.451,188.718 125.5,188C 126.552,186.881 127.719,186.381 129,186.5C 130.173,182.663 132.173,179.329 135,176.5C 135.684,175.216 135.517,174.049 134.5,173C 136.303,171.738 137.636,170.071 138.5,168C 138.167,167.667 137.833,167.333 137.5,167C 138.833,165.667 140.167,164.333 141.5,163C 141.167,162.667 140.833,162.333 140.5,162C 142.923,157.315 145.589,152.649 148.5,148C 147.742,146.636 148.242,145.469 150,144.5C 150.392,140.928 152.059,138.261 155,136.5C 156.333,137.167 157.667,137.833 159,138.5C 164.135,137.81 169.302,137.143 174.5,136.5C 195.028,136.727 215.362,136.727 235.5,136.5C 238.702,137.127 241.869,137.794 245,138.5C 249.931,138.194 255.098,138.194 260.5,138.5C 262.833,139.167 265.167,139.833 267.5,140.5C 272.379,140.313 277.379,140.313 282.5,140.5 Z M 336.5,151.5 C 336.833,152.833 337.167,152.833 337.5,151.5C 340.838,152.063 344.338,152.063 348,151.5C 350.625,151.581 352.959,152.248 355,153.5C 356.569,152.878 358.236,152.544 360,152.5C 368.154,153.183 376.32,153.683 384.5,154C 385.938,154.219 387.271,154.719 388.5,155.5C 383.765,162.019 379.265,168.686 375,175.5C 372.926,177.452 370.759,179.285 368.5,181C 369.634,182.016 369.301,182.683 367.5,183C 368.451,183.718 368.617,184.551 368,185.5C 365.908,188.405 363.741,191.072 361.5,193.5C 361.607,195.379 361.107,195.712 360,194.5C 359.119,197.302 357.785,200.302 356,203.5C 354.334,202.66 354.167,203.16 355.5,205C 350.399,211.48 344.899,217.647 339,223.5C 335.27,227.894 331.937,232.561 329,237.5C 328.667,237.167 328.333,236.833 328,236.5C 326.601,240.414 323.768,243.414 319.5,245.5C 319.649,246.552 319.483,247.552 319,248.5C 311.857,256.09 305.357,263.423 299.5,270.5C 291.539,279.719 283.706,289.719 276,300.5C 274.255,301.956 272.422,303.289 270.5,304.5C 270.983,306.917 269.817,308.584 267,309.5C 242.287,305.307 216.787,302.14 190.5,300C 173.602,296.887 156.602,294.553 139.5,293C 140.696,292.346 140.696,291.846 139.5,291.5C 136.34,293.156 133.506,292.823 131,290.5C 129.6,291.116 128.1,291.449 126.5,291.5C 117.145,289.396 107.645,288.063 98,287.5C 97.4387,288.022 96.772,288.355 96,288.5C 84.5334,287.698 73.0334,287.198 61.5,287C 66.3052,279.695 71.3052,272.529 76.5,265.5C 77.325,264.614 78.325,264.281 79.5,264.5C 79.5441,260.91 81.2108,258.41 84.5,257C 84.1667,256.667 83.8333,256.333 83.5,256C 88.1768,251.233 92.3434,246.067 96,240.5C 97.9252,239.12 99.7585,237.62 101.5,236C 101.167,235.667 100.833,235.333 100.5,235C 101.893,233.829 102.727,232.329 103,230.5C 104.364,231.258 105.531,230.758 106.5,229C 106.043,228.586 105.709,228.086 105.5,227.5C 107.093,225.946 108.426,224.279 109.5,222.5C 110.078,223.547 110.744,223.38 111.5,222C 111.272,221.601 110.938,221.435 110.5,221.5C 112.904,216.672 116.237,212.672 120.5,209.5C 126.771,199.14 133.437,188.973 140.5,179C 140.167,178.667 139.833,178.333 139.5,178C 145.021,167.784 150.355,156.951 155.5,145.5C 161.522,144.794 167.522,144.128 173.5,143.5C 190.39,143.525 207.057,143.525 223.5,143.5C 232.881,143.82 242.048,144.82 251,146.5C 255.759,145.139 260.426,145.472 265,147.5C 267.936,147.544 270.936,147.21 274,146.5C 275.904,148.154 277.904,148.487 280,147.5C 293.356,149.039 306.689,150.373 320,151.5C 325.824,151.146 331.324,151.146 336.5,151.5 Z M 409.5,164.5 C 409.062,164.435 408.728,164.601 408.5,165C 409.333,165.833 410.167,166.667 411,167.5C 411.399,167.272 411.565,166.938 411.5,166.5C 413.167,168.167 414.833,169.833 416.5,171.5C 417.492,171.328 418.158,171.662 418.5,172.5C 420.5,172.5 421.5,173.5 421.5,175.5C 436.441,188.102 451.107,201.102 465.5,214.5C 465.833,215.833 466.167,215.833 466.5,214.5C 468.812,216.146 470.812,218.146 472.5,220.5C 471.453,221.078 471.62,221.744 473,222.5C 473.399,222.272 473.565,221.938 473.5,221.5C 475.395,222.973 477.061,224.64 478.5,226.5C 479.338,226.842 479.672,227.508 479.5,228.5C 483.496,233.497 487.496,238.497 491.5,243.5C 491.5,244.167 491.833,244.5 492.5,244.5C 494.771,246.266 496.937,248.266 499,250.5C 505.478,259.478 512.312,268.144 519.5,276.5C 521.36,277.939 523.027,279.605 524.5,281.5C 525.338,281.842 525.672,282.508 525.5,283.5C 524.167,283.833 524.167,284.167 525.5,284.5C 523.328,286.945 520.662,288.945 517.5,290.5C 516.138,288.988 515.804,287.488 516.5,286C 513.951,285.249 512.284,283.582 511.5,281C 511.833,280.667 512.167,280.333 512.5,280C 511.584,279.722 510.918,279.222 510.5,278.5C 505.788,271.717 501.955,265.051 499,258.5C 498.667,258.833 498.333,259.167 498,259.5C 496.487,256.476 494.487,253.809 492,251.5C 491.383,250.551 491.549,249.718 492.5,249C 491.5,248.667 490.5,248.333 489.5,248C 475.311,230 459.311,214 441.5,200C 439.833,198.333 438.167,196.667 436.5,195C 436.833,194.667 437.167,194.333 437.5,194C 433.901,192.695 431.567,190.695 430.5,188C 427.091,186.759 424.425,184.593 422.5,181.5C 421.575,180.359 420.741,180.359 420,181.5C 417.886,180.047 416.552,178.047 416,175.5C 413.056,174.277 410.556,172.444 408.5,170C 405.976,168.487 403.309,167.82 400.5,168C 396.605,172.56 393.105,177.393 390,182.5C 389.667,182.167 389.333,181.833 389,181.5C 388.5,182.667 387.667,183.5 386.5,184C 386.957,184.414 387.291,184.914 387.5,185.5C 386.272,187.321 384.606,188.321 382.5,188.5C 382.762,189.978 382.429,191.311 381.5,192.5C 377.411,197.246 373.744,202.246 370.5,207.5C 369.022,207.238 367.689,207.571 366.5,208.5C 366.709,209.086 367.043,209.586 367.5,210C 365.264,212.343 362.931,214.51 360.5,216.5C 356.399,221.171 352.399,226.004 348.5,231C 348.957,231.414 349.291,231.914 349.5,232.5C 344.256,238.548 338.923,244.382 333.5,250C 333.833,250.333 334.167,250.667 334.5,251C 329.495,256.932 324.661,263.099 320,269.5C 314.934,275.618 310.1,280.618 305.5,284.5C 304.167,284.833 304.167,285.167 305.5,285.5C 303.984,287.391 302.65,289.391 301.5,291.5C 300.922,290.453 300.256,290.62 299.5,292C 299.728,292.399 300.062,292.565 300.5,292.5C 300.672,293.492 300.338,294.158 299.5,294.5C 296.734,299.045 293.734,303.378 290.5,307.5C 289.473,309.194 288.139,310.527 286.5,311.5C 285.398,314.807 283.565,317.807 281,320.5C 278.155,317.901 275.655,315.067 273.5,312C 274.766,311.691 275.933,311.191 277,310.5C 281.73,304.038 286.23,298.038 290.5,292.5C 292.35,291.758 293.016,290.758 292.5,289.5C 301.118,278.878 310.118,268.545 319.5,258.5C 322.91,252.486 326.91,247.819 331.5,244.5C 332.167,244.5 332.5,244.167 332.5,243.5C 333.701,241.091 335.367,239.091 337.5,237.5C 338.833,237.167 338.833,236.833 337.5,236.5C 339.5,234.167 341.5,231.833 343.5,229.5C 343.435,229.938 343.601,230.272 344,230.5C 344.833,229.667 345.667,228.833 346.5,228C 346.272,227.601 345.938,227.435 345.5,227.5C 348.223,223.959 351.223,220.626 354.5,217.5C 363.555,203.15 372.889,189.15 382.5,175.5C 383.924,171.95 386.257,169.284 389.5,167.5C 390.833,167.167 390.833,166.833 389.5,166.5C 390.833,164.167 392.167,161.833 393.5,159.5C 394.833,159.167 394.833,158.833 393.5,158.5C 393.414,157.504 393.748,156.671 394.5,156C 396.5,155.333 398.5,155.333 400.5,156C 403.653,158.166 406.653,160.999 409.5,164.5 Z M 402.5,175.5 C 407.125,180.17 411.792,184.17 416.5,187.5C 419.306,189.475 421.639,191.975 423.5,195C 425.933,196.13 428.266,197.296 430.5,198.5C 430.343,199.873 430.51,201.207 431,202.5C 431.718,201.549 432.551,201.383 433.5,202C 435.611,203.991 436.944,205.991 437.5,208C 438.449,208.617 439.282,208.451 440,207.5C 440.483,208.448 440.649,209.448 440.5,210.5C 441.552,210.351 442.552,210.517 443.5,211C 448.092,215.422 452.425,219.922 456.5,224.5C 459.796,228.79 463.796,232.457 468.5,235.5C 467.167,235.833 467.167,236.167 468.5,236.5C 472.784,239.658 476.117,243.658 478.5,248.5C 481.365,250.031 483.698,252.197 485.5,255C 484.549,255.718 484.383,256.551 485,257.5C 485.667,258.833 486.333,258.833 487,257.5C 487.574,259.492 488.741,260.992 490.5,262C 489.549,262.718 489.383,263.551 490,264.5C 493.669,267.673 496.835,271.34 499.5,275.5C 498.757,276.182 498.091,276.849 497.5,277.5C 493.795,271.286 489.128,265.786 483.5,261C 484.451,260.282 484.617,259.449 484,258.5C 481.222,257.388 479.055,255.555 477.5,253C 477.833,252.667 478.167,252.333 478.5,252C 475.601,249.271 472.934,246.438 470.5,243.5C 471.547,242.922 471.38,242.256 470,241.5C 469.601,241.728 469.435,242.062 469.5,242.5C 468.475,240.485 466.808,239.152 464.5,238.5C 463.873,237.583 463.539,236.583 463.5,235.5C 462.761,235.631 462.094,235.464 461.5,235C 457.968,230.64 454.301,226.473 450.5,222.5C 445.842,218.159 441.175,213.659 436.5,209C 433.379,207.694 430.713,205.86 428.5,203.5C 421.371,199.097 414.371,194.43 407.5,189.5C 407.44,190.043 407.107,190.376 406.5,190.5C 403.131,187.816 399.464,185.649 395.5,184C 396.551,182.615 397.884,181.615 399.5,181C 399.167,180.667 398.833,180.333 398.5,180C 399.92,178.508 401.254,177.008 402.5,175.5 Z M 444.5,228.5 C 448.76,231.041 452.093,234.541 454.5,239C 455.448,239.483 456.448,239.649 457.5,239.5C 457.351,240.552 457.517,241.552 458,242.5C 462.181,246.859 466.014,250.859 469.5,254.5C 468.167,254.833 468.167,255.167 469.5,255.5C 473.725,260.599 478.558,265.933 484,271.5C 485.009,273.025 485.509,274.692 485.5,276.5C 488.411,277.41 490.411,279.41 491.5,282.5C 490.332,283.906 490.665,285.072 492.5,286C 491.806,289.025 490.806,291.858 489.5,294.5C 488.735,297.67 487.735,300.67 486.5,303.5C 484.438,312.893 481.771,322.393 478.5,332C 479.536,335.015 479.202,337.848 477.5,340.5C 477.414,341.496 477.748,342.329 478.5,343C 475.912,353.613 473.745,364.113 472,374.5C 471.346,373.304 470.846,373.304 470.5,374.5C 470.931,375.293 471.265,376.127 471.5,377C 468.98,386.306 466.48,395.14 464,403.5C 463.389,408.496 462.889,413.496 462.5,418.5C 456.394,418.686 450.394,419.186 444.5,420C 446.102,413.063 447.769,406.563 449.5,400.5C 452.062,387.38 454.396,374.213 456.5,361C 456.755,359.674 457.422,358.674 458.5,358C 458.507,356.417 458.174,354.751 457.5,353C 458,352.5 458.5,352 459,351.5C 459.897,335.504 460.231,319.504 460,303.5C 458.34,297.194 456.84,290.86 455.5,284.5C 454.149,280.117 452.483,275.784 450.5,271.5C 444.346,263.765 437.346,256.931 429.5,251C 425.958,251.074 422.292,250.741 418.5,250C 416.598,249.801 415.098,248.967 414,247.5C 407.527,248.323 401.027,247.99 394.5,246.5C 384.811,248.604 375.145,250.771 365.5,253C 362.671,254.247 360.005,255.747 357.5,257.5C 356.914,257.291 356.414,256.957 356,256.5C 355.148,257.571 354.315,258.571 353.5,259.5C 342.696,265.811 334.863,274.811 330,286.5C 328.687,291.634 326.853,296.467 324.5,301C 325.081,301.893 325.415,302.893 325.5,304C 323.682,310.872 322.682,317.872 322.5,325C 322.722,343.751 323.722,363.084 325.5,383C 325.441,384.436 325.108,385.769 324.5,387C 325.704,388.353 326.371,390.019 326.5,392C 327.647,405.48 329.647,418.813 332.5,432C 332.355,432.772 332.022,433.439 331.5,434C 325.723,434.206 320.056,435.039 314.5,436.5C 313.914,436.291 313.414,435.957 313,435.5C 308.707,437.326 304.207,438.326 299.5,438.5C 297.004,398.803 294.837,358.47 293,317.5C 297.87,310.09 302.37,302.923 306.5,296C 308.281,293.763 310.281,291.763 312.5,290C 312.043,289.586 311.709,289.086 311.5,288.5C 314.77,285.267 317.77,281.767 320.5,278C 324.996,274.12 329.163,269.287 333,263.5C 333.333,263.833 333.667,264.167 334,264.5C 333.998,261.164 335.498,258.83 338.5,257.5C 337.145,256.325 337.312,255.325 339,254.5C 339.333,254.833 339.667,255.167 340,255.5C 340.406,252.506 341.906,250.339 344.5,249C 355.223,233.62 367.223,218.12 380.5,202.5C 382.833,199.997 384.999,197.331 387,194.5C 388.666,195.34 388.833,194.84 387.5,193C 388.981,192.02 390.315,190.853 391.5,189.5C 392.795,190.098 394.128,190.598 395.5,191C 402.756,195.009 410.09,199.676 417.5,205C 419.243,206.11 420.576,207.61 421.5,209.5C 422.086,209.291 422.586,208.957 423,208.5C 424.989,210.324 426.823,212.324 428.5,214.5C 430.833,213.5 431.5,214.167 430.5,216.5C 432.962,217.794 435.295,219.294 437.5,221C 437.167,221.333 436.833,221.667 436.5,222C 439.938,223.277 442.605,225.443 444.5,228.5 Z M 341.5,430.5 C 340.232,428.095 339.565,425.428 339.5,422.5C 339.722,418.888 339.056,415.221 337.5,411.5C 335.721,395.309 334.055,378.975 332.5,362.5C 331.687,354.499 331.02,346.332 330.5,338C 330.544,336.236 330.878,334.569 331.5,333C 330.257,331.13 329.59,328.964 329.5,326.5C 330.169,319.149 331.002,311.815 332,304.5C 332.654,305.696 333.154,305.696 333.5,304.5C 331.913,302.554 332.246,301.054 334.5,300C 334.043,299.586 333.709,299.086 333.5,298.5C 335.113,293.697 336.779,289.364 338.5,285.5C 338.427,283.973 339.094,282.973 340.5,282.5C 341.786,279.883 343.453,277.55 345.5,275.5C 345.414,274.504 345.748,273.671 346.5,273C 350.431,270.317 354.264,267.483 358,264.5C 358.333,264.833 358.667,265.167 359,265.5C 361.786,262.19 365.286,260.023 369.5,259C 385.579,254.131 401.746,253.298 418,256.5C 418.414,256.043 418.914,255.709 419.5,255.5C 420.333,256.5 421.167,257.5 422,258.5C 423.604,257.351 425.27,257.351 427,258.5C 440.157,266.178 447.657,277.012 449.5,291C 451.638,298 452.971,305.166 453.5,312.5C 452.792,325.325 452.292,338.325 452,351.5C 448.332,369.138 444.332,386.804 440,404.5C 438.839,410.126 438.006,415.793 437.5,421.5C 430.483,421.919 423.483,422.585 416.5,423.5C 414.571,423.46 412.738,423.127 411,422.5C 409.302,423.733 407.302,424.4 405,424.5C 401.98,424.328 399.313,423.995 397,423.5C 396.395,425.481 395.395,425.815 394,424.5C 383.149,426.226 372.316,428.226 361.5,430.5C 360.558,430.392 359.725,430.059 359,429.5C 357.688,431.658 356.022,431.991 354,430.5C 352.13,431.743 349.964,432.41 347.5,432.5C 345.048,432.461 343.048,431.794 341.5,430.5 Z M 497.5,277.5 C 500.069,278.396 502.069,280.062 503.5,282.5C 502.675,283.386 501.675,283.719 500.5,283.5C 499.956,281.284 498.956,279.284 497.5,277.5 Z M 525.5,284.5 C 525.5,284.167 525.5,283.833 525.5,283.5C 526.376,283.369 527.043,283.702 527.5,284.5C 527.03,285.463 526.363,285.463 525.5,284.5 Z M 155.5,304.5 C 145.163,303.375 134.829,302.375 124.5,301.5C 123.914,301.709 123.414,302.043 123,302.5C 103.216,301.44 83.3826,300.274 63.5,299C 63.8333,298.667 64.1667,298.333 64.5,298C 62.9632,296.89 62.2965,295.39 62.5,293.5C 79.8305,294.509 97.3305,295.509 115,296.5C 116.107,296.415 117.107,296.081 118,295.5C 128.814,297.442 139.647,299.442 150.5,301.5C 165.838,302.503 181.171,304.67 196.5,308C 220.569,310.11 244.236,313.11 267.5,317C 269.183,319.014 271.183,320.68 273.5,322C 265.518,322.436 258.018,320.936 251,317.5C 250.439,318.022 249.772,318.355 249,318.5C 224.426,315.114 200.093,311.114 176,306.5C 173.043,308.077 170.376,307.744 168,305.5C 163.679,306.526 159.512,306.193 155.5,304.5 Z M 279.5,330.5 C 280.919,329.549 282.585,329.216 284.5,329.5C 284.457,325.107 284.957,324.774 286,328.5C 286.302,348.442 287.469,368.275 289.5,388C 288.515,399.147 289.182,410.647 291.5,422.5C 290.446,424.693 290.78,426.193 292.5,427C 292.553,430.083 292.22,433.249 291.5,436.5C 290.808,435.975 290.308,435.308 290,434.5C 286.889,435.293 283.723,435.126 280.5,434C 277.486,433.196 274.653,432.029 272,430.5C 271.586,430.957 271.086,431.291 270.5,431.5C 268.885,430.846 267.218,430.346 265.5,430C 266.696,429.346 266.696,428.846 265.5,428.5C 264.833,428.833 264.167,429.167 263.5,429.5C 251.047,426.142 239.38,423.142 228.5,420.5C 221.867,418.94 215.2,417.44 208.5,416C 209.696,415.346 209.696,414.846 208.5,414.5C 207.554,414.987 206.554,415.32 205.5,415.5C 194.172,412.365 183.505,409.698 173.5,407.5C 165.826,405.331 157.826,402.831 149.5,400C 130.894,396.6 112.727,393.433 95,390.5C 91.2727,378.311 87.9393,365.978 85,353.5C 80.6979,338.795 76.8646,323.629 73.5,308C 73.9358,305.526 75.4358,304.359 78,304.5C 100.21,307.974 122.377,309.807 144.5,310C 162.289,313.161 180.123,315.661 198,317.5C 199.658,317.675 200.991,318.342 202,319.5C 206.034,318.947 209.868,318.947 213.5,319.5C 221.904,320.727 230.07,322.393 238,324.5C 240.022,323.009 241.688,323.342 243,325.5C 244.062,324.903 245.228,324.57 246.5,324.5C 257.318,327.53 268.318,329.53 279.5,330.5 Z"/></g>
<g><path style="opacity:0.004" fill="#000000" d="M 282.5,139.5 C 283.833,140.167 283.833,140.167 282.5,139.5 Z"/></g>
<g><path style="opacity:0.004" fill="#000000" d="M 291.5,140.5 C 292.833,141.167 292.833,141.167 291.5,140.5 Z"/></g>
<g><path style="opacity:0.004" fill="#000000" d="M 132.5,175.5 C 133.833,176.167 133.833,176.167 132.5,175.5 Z"/></g>
<g><path style="opacity:0.004" fill="#000000" d="M 443.5,183.5 C 444.833,184.167 444.833,184.167 443.5,183.5 Z"/></g>
<g><path style="opacity:0.004" fill="#000000" d="M 448.5,187.5 C 447.833,186.167 447.833,186.167 448.5,187.5 Z"/></g>
<g><path style="opacity:0.004" fill="#000000" d="M 448.5,187.5 C 449.833,188.167 449.833,188.167 448.5,187.5 Z"/></g>
<g><path style="opacity:0.004" fill="#000000" d="M 463.5,200.5 C 464.833,201.167 464.833,201.167 463.5,200.5 Z"/></g>
<g><path style="opacity:0.004" fill="#000000" d="M 505.5,245.5 C 506.833,246.167 506.833,246.167 505.5,245.5 Z"/></g>
<g><path style="opacity:0.004" fill="#000000" d="M 531.5,289.5 C 531.833,289.5 532.167,289.5 532.5,289.5C 532.315,290.17 531.981,290.17 531.5,289.5 Z"/></g>
<g><path style="opacity:0.004" fill="#000000" d="M 530.5,290.5 C 530.833,290.5 531.167,290.5 531.5,290.5C 531.315,291.17 530.981,291.17 530.5,290.5 Z"/></g>
<g><path style="opacity:0.004" fill="#000000" d="M 70.5,331.5 C 69.8333,332.167 69.8333,332.167 70.5,331.5 Z"/></g>
<g><path style="opacity:0.004" fill="#000000" d="M 70.5,338.5 C 71.8333,339.167 71.8333,339.167 70.5,338.5 Z"/></g>
<g><path style="opacity:0.004" fill="#000000" d="M 72.5,343.5 C 71.8333,344.167 71.8333,344.167 72.5,343.5 Z"/></g>
<g><path style="opacity:0.004" fill="#000000" d="M 73.5,346.5 C 72.8333,347.167 72.8333,347.167 73.5,346.5 Z"/></g>
<g><path style="opacity:0.004" fill="#000000" d="M 117.5,401.5 C 118.833,402.167 118.833,402.167 117.5,401.5 Z"/></g>
<g><path style="opacity:0.004" fill="#000000" d="M 122.5,402.5 C 121.833,403.167 121.833,403.167 122.5,402.5 Z"/></g>
<g><path style="opacity:0.004" fill="#000000" d="M 346.5,440.5 C 347.833,441.167 347.833,441.167 346.5,440.5 Z"/></g>
<g><path style="opacity:0.004" fill="#000000" d="M 340.5,441.5 C 341.833,442.167 341.833,442.167 340.5,441.5 Z"/></g>
<g><path style="opacity:0.004" fill="#000000" d="M 291.5,443.5 C 292.833,444.167 292.833,444.167 291.5,443.5 Z"/></g>
</svg>
