<?xml version="1.0" encoding="UTF-8"?>
<!DOCTYPE svg PUBLIC "-//W3C//DTD SVG 1.1//EN" "http://www.w3.org/Graphics/SVG/1.1/DTD/svg11.dtd">
<svg xmlns="http://www.w3.org/2000/svg" version="1.1" width="611px" height="611px" style="shape-rendering:geometricPrecision; text-rendering:geometricPrecision; image-rendering:optimizeQuality; fill-rule:evenodd; clip-rule:evenodd" xmlns:xlink="http://www.w3.org/1999/xlink">
<g><path style="opacity:0.664" fill="#000000" d="M 560.5,281.5 C 562.072,282.687 563.739,283.687 565.5,284.5C 564.167,284.833 564.167,285.167 565.5,285.5C 568.174,287.18 570.174,289.513 571.5,292.5C 572.325,293.386 573.325,293.719 574.5,293.5C 574.328,294.492 574.662,295.158 575.5,295.5C 578.507,297.674 581.007,300.341 583,303.5C 583.333,303.167 583.667,302.833 584,302.5C 584.49,303.793 584.657,305.127 584.5,306.5C 585.5,306.5 586.5,306.5 587.5,306.5C 589.137,310.525 588.804,314.358 586.5,318C 584.5,318.5 582.5,319 580.5,319.5C 574.746,319.416 568.913,319.416 563,319.5C 559.328,317.269 554.995,315.602 550,314.5C 548.452,315.684 546.952,315.517 545.5,314C 545.833,313.667 546.167,313.333 546.5,313C 542.07,311.822 538.07,309.822 534.5,307C 532.307,307.57 530.307,307.236 528.5,306C 529.833,305.333 529.833,304.667 528.5,304C 526.919,303.293 525.419,302.46 524,301.5C 523.667,301.833 523.333,302.167 523,302.5C 519.162,298.848 514.995,296.182 510.5,294.5C 509.922,292.557 508.922,292.223 507.5,293.5C 506.749,292.624 506.249,291.624 506,290.5C 505.23,291.598 504.397,291.598 503.5,290.5C 501.678,287.962 499.678,287.962 497.5,290.5C 496.914,290.291 496.414,289.957 496,289.5C 492.833,291.667 489.667,293.833 486.5,296C 485.551,296.617 484.718,296.451 484,295.5C 478.111,303.382 471.278,309.382 463.5,313.5C 462.527,313.987 461.527,314.487 460.5,315C 461.863,317.129 461.529,317.629 459.5,316.5C 457.075,318.145 454.408,319.311 451.5,320C 451.018,321.008 450.852,322.175 451,323.5C 450.439,322.978 449.772,322.645 449,322.5C 446.258,324.432 443.758,326.432 441.5,328.5C 433.074,333.513 425.074,338.013 417.5,342C 418.602,344.391 417.936,344.891 415.5,343.5C 414.478,343.855 413.811,344.522 413.5,345.5C 411.067,345.273 409.401,346.273 408.5,348.5C 407.883,348.389 407.383,348.056 407,347.5C 404.804,349.83 402.47,351.163 400,351.5C 398,352.833 396,354.167 394,355.5C 392.333,355.5 390.667,355.5 389,355.5C 388.492,357.904 387.325,358.571 385.5,357.5C 383.615,358.609 381.615,359.443 379.5,360C 372.135,364.658 364.135,367.991 355.5,370C 356.451,370.718 356.617,371.551 356,372.5C 353.812,371.553 351.478,371.553 349,372.5C 348.683,374.301 348.016,374.634 347,373.5C 328.172,379.889 309.005,385.056 289.5,389C 290.696,389.654 290.696,390.154 289.5,390.5C 288.5,387.833 287.5,387.833 286.5,390.5C 282.888,391.547 279.221,392.38 275.5,393C 275.833,393.333 276.167,393.667 276.5,394C 271.132,395.9 265.799,397.733 260.5,399.5C 257.558,398.292 254.725,398.292 252,399.5C 251.632,400.91 250.799,401.91 249.5,402.5C 243.956,401.815 238.456,401.482 233,401.5C 224.961,403.187 216.794,404.187 208.5,404.5C 208.038,403.12 207.038,402.453 205.5,402.5C 203.541,402.875 201.707,403.541 200,404.5C 197.812,402.903 195.646,402.569 193.5,403.5C 189.859,404.247 186.359,403.581 183,401.5C 180.335,403.595 177.502,403.928 174.5,402.5C 171.491,401.717 168.324,401.05 165,400.5C 163.765,401.615 162.598,401.615 161.5,400.5C 160.808,401.025 160.308,401.692 160,402.5C 159.51,401.207 159.343,399.873 159.5,398.5C 157.473,398.662 155.473,398.495 153.5,398C 150.222,397.081 147.055,395.914 144,394.5C 143.586,394.957 143.086,395.291 142.5,395.5C 139.491,395.144 137.157,394.144 135.5,392.5C 132.877,390.735 129.877,390.068 126.5,390.5C 126.5,389.167 125.833,388.5 124.5,388.5C 122.689,388.208 120.689,388.208 118.5,388.5C 116.749,385.756 113.749,384.09 109.5,383.5C 103.054,381.257 96.8872,378.257 91,374.5C 90.6667,375.167 90.3333,375.833 90,376.5C 89.0975,375.299 87.9308,374.465 86.5,374C 86.8333,373.667 87.1667,373.333 87.5,373C 85.1329,372.626 83.2995,371.459 82,369.5C 80.8382,370.187 79.6716,370.353 78.5,370C 78.9574,369.586 79.2907,369.086 79.5,368.5C 77.7127,367.684 76.0461,366.684 74.5,365.5C 73.914,365.709 73.414,366.043 73,366.5C 72.0878,363.798 70.2545,362.131 67.5,361.5C 67.1667,360.167 66.8333,360.167 66.5,361.5C 62.635,359.975 59.3017,357.642 56.5,354.5C 53.8512,353.799 51.3512,352.133 49,349.5C 48.0862,350.654 47.2529,350.487 46.5,349C 47.1513,347.692 46.4846,346.859 44.5,346.5C 44.1667,345.167 43.8333,345.167 43.5,346.5C 42.7611,346.631 42.0944,346.464 41.5,346C 41.0698,345.08 40.7365,344.247 40.5,343.5C 39.549,344.326 38.549,344.492 37.5,344C 38.566,342.841 38.2327,342.008 36.5,341.5C 34.4319,341.782 32.4319,340.949 30.5,339C 31.172,337.421 30.5053,336.254 28.5,335.5C 28.5,334.833 28.1667,334.5 27.5,334.5C 23.6816,332.667 20.6816,330.667 18.5,328.5C 17.6713,325.531 17.5046,322.531 18,319.5C 20.6295,317.556 22.7961,315.223 24.5,312.5C 26.3588,311.152 28.3588,309.985 30.5,309C 30.1667,308.667 29.8333,308.333 29.5,308C 30.448,307.517 31.448,307.351 32.5,307.5C 32.5,306.5 32.5,305.5 32.5,304.5C 35.2384,304.294 37.5718,303.294 39.5,301.5C 40.7095,301.068 41.7095,300.401 42.5,299.5C 43.7095,299.068 44.7095,298.401 45.5,297.5C 46.9663,296.653 47.7996,295.32 48,293.5C 51.7868,293.664 54.6201,291.831 56.5,288C 58.0609,287.682 59.2276,286.849 60,285.5C 60.3333,285.833 60.6667,286.167 61,286.5C 63.9763,283.572 67.1429,280.906 70.5,278.5C 71.7946,277.902 73.1279,277.402 74.5,277C 73.3463,276.086 73.513,275.253 75,274.5C 75.414,274.957 75.914,275.291 76.5,275.5C 79.153,273.845 81.4864,271.845 83.5,269.5C 86.1668,268.366 88.8334,267.366 91.5,266.5C 91.5,265.5 91.5,264.5 91.5,263.5C 94.0046,263.02 96.3379,262.02 98.5,260.5C 102.21,256.993 106.21,253.993 110.5,251.5C 112.745,251.459 113.412,250.625 112.5,249C 114.447,249.536 116.447,249.202 118.5,248C 122.614,245.479 126.614,242.979 130.5,240.5C 133.522,240.572 135.688,239.238 137,236.5C 137.561,237.022 138.228,237.355 139,237.5C 147.266,235.175 155.1,232.175 162.5,228.5C 164.156,230.022 165.323,229.689 166,227.5C 168,227.5 170,227.5 172,227.5C 177.087,226.083 182.087,224.416 187,222.5C 193.343,222.572 199.677,222.572 206,222.5C 212.939,220.912 219.606,219.246 226,217.5C 229.431,217.88 232.764,217.88 236,217.5C 236.333,216.833 236.667,216.167 237,215.5C 237.388,216.428 238.055,217.095 239,217.5C 242.307,215.211 245.807,214.878 249.5,216.5C 252.188,216.519 254.688,215.852 257,214.5C 258.144,214.911 259.311,215.244 260.5,215.5C 265.803,214.764 271.137,214.264 276.5,214C 277.416,213.626 278.25,213.126 279,212.5C 281.333,213.167 283.667,213.833 286,214.5C 294.088,213.683 302.255,213.183 310.5,213C 311,212.5 311.5,212 312,211.5C 314.068,212.394 316.235,213.06 318.5,213.5C 322.07,213.091 325.736,213.091 329.5,213.5C 331.463,214.168 333.463,214.502 335.5,214.5C 336.748,213.96 337.915,213.293 339,212.5C 339.417,213.756 340.25,214.423 341.5,214.5C 342.172,215.267 343.005,215.934 344,216.5C 347.333,215.833 350.667,215.167 354,214.5C 354.667,217.167 355.333,217.167 356,214.5C 365.848,217.813 376.348,219.646 387.5,220C 388.715,222.096 389.549,221.929 390,219.5C 390.605,221.481 391.605,221.815 393,220.5C 397.074,221.045 400.907,222.379 404.5,224.5C 405.107,224.376 405.44,224.043 405.5,223.5C 410.234,224.383 414.901,225.383 419.5,226.5C 421.017,227.735 422.684,227.735 424.5,226.5C 425.696,226.846 425.696,227.346 424.5,228C 429.79,229.56 435.457,230.726 441.5,231.5C 442.542,232.791 443.708,232.791 445,231.5C 447.93,233.869 451.096,234.869 454.5,234.5C 457.399,235.642 460.399,236.308 463.5,236.5C 465.074,237.928 466.741,238.261 468.5,237.5C 470.78,238.767 473.28,239.767 476,240.5C 477.011,240.108 477.511,239.441 477.5,238.5C 478.386,239.325 478.719,240.325 478.5,241.5C 480.144,241.714 481.644,241.38 483,240.5C 483.308,241.308 483.808,241.975 484.5,242.5C 485.451,241.674 486.451,241.508 487.5,242C 487.167,242.333 486.833,242.667 486.5,243C 488.402,243.199 489.902,244.033 491,245.5C 492.779,244.521 494.445,244.854 496,246.5C 497.635,244.757 497.802,242.923 496.5,241C 499.229,238.751 499.896,236.084 498.5,233C 501.464,232.16 501.797,231.16 499.5,230C 500.167,229.667 500.833,229.333 501.5,229C 500.167,228.333 500.167,227.667 501.5,227C 503.883,226.935 504.55,226.102 503.5,224.5C 504.025,223.808 504.692,223.308 505.5,223C 505.888,221.475 505.888,219.808 505.5,218C 507.998,216.048 508.665,213.715 507.5,211C 508.992,206.047 511.659,201.547 515.5,197.5C 516.593,194.261 518.26,191.261 520.5,188.5C 520.291,187.914 519.957,187.414 519.5,187C 521.101,186.727 522.601,186.227 524,185.5C 525.978,181.919 527.478,178.585 528.5,175.5C 529.5,175.5 530.5,175.5 531.5,175.5C 531.64,173.876 530.973,172.71 529.5,172C 531.883,171.935 532.55,171.102 531.5,169.5C 532.908,168.757 534.241,167.923 535.5,167C 535.167,166.667 534.833,166.333 534.5,166C 535.5,165.667 536.5,165.333 537.5,165C 538.369,162.421 540.035,160.588 542.5,159.5C 543.478,159.977 544.311,160.643 545,161.5C 545.234,165.314 546.068,168.981 547.5,172.5C 545.73,175.931 545.397,179.431 546.5,183C 544.408,183.953 544.075,185.286 545.5,187C 544.833,188.667 544.167,190.333 543.5,192C 543.051,200.456 543.051,208.956 543.5,217.5C 542.5,218.333 541.5,219.167 540.5,220C 541.148,222.847 541.481,225.681 541.5,228.5C 538.956,230.392 538.956,232.225 541.5,234C 540.833,234.333 540.167,234.667 539.5,235C 540.081,238.02 540.415,241.02 540.5,244C 538.184,245.468 537.851,247.301 539.5,249.5C 536.937,254.475 536.937,259.475 539.5,264.5C 546.426,270.436 553.426,276.103 560.5,281.5 Z M 532.5,194.5 C 533.844,196.185 533.677,197.852 532,199.5C 532.019,197.893 532.185,196.226 532.5,194.5 Z M 529.5,200.5 C 531.443,201.291 532.443,202.791 532.5,205C 531.779,212.089 530.779,219.256 529.5,226.5C 528.957,226.56 528.624,226.893 528.5,227.5C 530.984,230.015 530.984,232.349 528.5,234.5C 527.849,237.137 527.849,239.637 528.5,242C 528.299,244.111 527.633,245.945 526.5,247.5C 526.423,248.75 525.756,249.583 524.5,250C 526.619,250.342 526.953,251.175 525.5,252.5C 525.936,259.061 527.269,265.561 529.5,272C 531.173,274.165 533.173,275.998 535.5,277.5C 534.145,278.675 534.312,279.675 536,280.5C 536.333,279.833 536.667,279.167 537,278.5C 539.158,281.399 542.325,283.732 546.5,285.5C 544.352,285.389 544.019,286.056 545.5,287.5C 546.614,288.776 547.614,288.776 548.5,287.5C 553.264,291.762 557.931,296.262 562.5,301C 561.833,301.333 561.167,301.667 560.5,302C 562.119,302.236 563.119,303.069 563.5,304.5C 558.485,303.109 553.818,301.609 549.5,300C 550.696,299.346 550.696,298.846 549.5,298.5C 548.808,299.025 548.308,299.692 548,300.5C 545.222,298.848 542.389,297.514 539.5,296.5C 542.167,296.167 542.167,295.833 539.5,295.5C 538.07,294.463 536.403,293.796 534.5,293.5C 534.167,292.167 533.833,292.167 533.5,293.5C 532.265,293.279 531.265,292.612 530.5,291.5C 529.078,292.777 528.078,292.443 527.5,290.5C 525.589,290.426 524.422,289.426 524,287.5C 522.16,288.833 521.66,288.666 522.5,287C 520.981,287.331 519.648,287.164 518.5,286.5C 516.709,285.517 515.209,284.184 514,282.5C 513,282.5 512,282.5 511,282.5C 510.558,280.321 509.558,279.655 508,280.5C 503.058,276.367 497.558,275.867 491.5,279C 487.481,282.79 482.814,285.457 477.5,287C 477.833,287.333 478.167,287.667 478.5,288C 477.264,289.085 475.931,289.918 474.5,290.5C 473.009,292.282 471.342,293.948 469.5,295.5C 465.737,298.6 461.737,301.433 457.5,304C 456.451,304.492 455.451,304.326 454.5,303.5C 453.289,304.274 453.289,305.107 454.5,306C 453.216,306.684 452.049,306.517 451,305.5C 450.517,306.448 450.351,307.448 450.5,308.5C 449.127,308.343 447.793,308.51 446.5,309C 442.929,312.111 438.929,314.277 434.5,315.5C 434.649,316.552 434.483,317.552 434,318.5C 433.667,318.167 433.333,317.833 433,317.5C 432.751,318.624 432.251,319.624 431.5,320.5C 426.3,322.541 421.466,325.208 417,328.5C 414.679,327.639 413.513,328.639 413.5,331.5C 412.178,331.67 411.011,331.337 410,330.5C 409.383,331.449 409.549,332.282 410.5,333C 403.975,334.684 397.975,337.517 392.5,341.5C 388.094,342.969 383.761,344.636 379.5,346.5C 378.614,347.325 378.281,348.325 378.5,349.5C 373.541,350.018 369.041,351.685 365,354.5C 361.738,353.159 361.238,353.492 363.5,355.5C 355.367,359.276 347.033,362.276 338.5,364.5C 338.167,363.167 337.833,363.167 337.5,364.5C 336.041,364.433 334.708,364.766 333.5,365.5C 325.422,368.442 317.089,370.942 308.5,373C 307.016,373.662 305.683,374.496 304.5,375.5C 301.77,376.817 298.937,376.817 296,375.5C 295.383,376.449 295.549,377.282 296.5,378C 294.236,378.236 292.069,378.736 290,379.5C 288.691,377.109 287.691,377.109 287,379.5C 286.667,379.167 286.333,378.833 286,378.5C 282.231,381.963 277.731,383.63 272.5,383.5C 272.5,384.5 272.5,385.5 272.5,386.5C 264.128,387.976 256.128,389.976 248.5,392.5C 245.449,391.995 242.282,391.995 239,392.5C 234.059,390.399 228.892,390.399 223.5,392.5C 218.651,391.465 213.651,391.465 208.5,392.5C 198.226,393.56 188.226,393.56 178.5,392.5C 174.748,391.348 171.415,390.181 168.5,389C 169.609,387.124 170.609,385.291 171.5,383.5C 171.393,385.379 171.893,385.712 173,384.5C 173.74,383.251 173.573,382.251 172.5,381.5C 172.351,380.448 172.517,379.448 173,378.5C 173.667,379.833 174.333,379.833 175,378.5C 175.74,377.251 175.573,376.251 174.5,375.5C 175.211,373.97 176.211,372.637 177.5,371.5C 178.339,369.219 179.339,366.885 180.5,364.5C 179.128,362.38 179.795,361.38 182.5,361.5C 182.5,360.5 182.5,359.5 182.5,358.5C 183.833,358.167 183.833,357.833 182.5,357.5C 182.48,355.857 183.147,354.524 184.5,353.5C 184.291,352.914 183.957,352.414 183.5,352C 184.249,350.266 184.749,348.433 185,346.5C 186.666,347.34 186.833,346.84 185.5,345C 186.066,344.005 186.733,343.172 187.5,342.5C 187.506,339.482 188.506,336.816 190.5,334.5C 189.651,332.49 190.318,330.823 192.5,329.5C 191.958,325.689 190.958,322.022 189.5,318.5C 182.162,320.321 175.162,322.821 168.5,326C 149.731,334.884 131.065,344.051 112.5,353.5C 109.631,354.268 106.964,355.601 104.5,357.5C 100.086,359.205 95.7527,361.205 91.5,363.5C 88.9048,364.132 86.7382,363.132 85,360.5C 84.586,360.957 84.086,361.291 83.5,361.5C 82.7124,360.23 81.7124,359.23 80.5,358.5C 80.5,357.833 80.1667,357.5 79.5,357.5C 79.0269,356.094 78.0269,355.427 76.5,355.5C 75.8333,354.167 75.1667,354.167 74.5,355.5C 73.7784,355.082 73.2784,354.416 73,353.5C 72.6667,353.833 72.3333,354.167 72,354.5C 71.6667,353.5 71.3333,352.5 71,351.5C 70.0228,352.774 69.1894,352.774 68.5,351.5C 66.6045,350.297 64.6045,349.131 62.5,348C 61.8742,347.25 61.3742,346.416 61,345.5C 59.4419,346.345 58.4419,345.679 58,343.5C 57,343.833 56,344.167 55,344.5C 54.5357,343.906 54.369,343.239 54.5,342.5C 53.2921,341.766 51.9587,341.433 50.5,341.5C 50.7616,338.079 49.4283,337.079 46.5,338.5C 45.3044,338.154 45.3044,337.654 46.5,337C 44.6854,336.243 43.0188,335.41 41.5,334.5C 38.5769,332.691 36.0769,330.358 34,327.5C 32.8382,328.187 31.6716,328.353 30.5,328C 30.8333,327.667 31.1667,327.333 31.5,327C 29.5448,326.047 27.8782,324.713 26.5,323C 29.1667,320.667 31.8333,318.333 34.5,316C 35.4491,315.383 36.2825,315.549 37,316.5C 37.5,315.5 38,314.5 38.5,313.5C 42.0717,311.883 45.0717,309.55 47.5,306.5C 48.6507,305.269 49.8173,305.269 51,306.5C 51.9344,305.142 52.7677,303.808 53.5,302.5C 53.8333,303.833 54.1667,303.833 54.5,302.5C 55.6741,300.559 57.3408,299.059 59.5,298C 60.4491,297.383 61.2825,297.549 62,298.5C 62.4419,296.321 63.4419,295.655 65,296.5C 66.4055,293.591 68.5722,291.591 71.5,290.5C 71.56,291.043 71.8933,291.376 72.5,291.5C 73.7733,290.743 73.7733,290.077 72.5,289.5C 72.8417,288.662 73.5084,288.328 74.5,288.5C 75.0778,289.547 75.7445,289.38 76.5,288C 76.2716,287.601 75.9382,287.435 75.5,287.5C 76.9516,286.698 78.6183,286.198 80.5,286C 79.0072,284.844 79.1739,284.01 81,283.5C 82.1618,284.187 83.3284,284.353 84.5,284C 84.5,283 84.5,282 84.5,281C 86.74,280.023 89.0733,279.523 91.5,279.5C 91.774,277.019 93.1073,275.353 95.5,274.5C 98.5674,272.786 101.567,270.786 104.5,268.5C 106.99,266.917 109.657,265.917 112.5,265.5C 112.351,264.448 112.517,263.448 113,262.5C 113.333,262.833 113.667,263.167 114,263.5C 118,259.603 122.834,257.103 128.5,256C 128.167,255.667 127.833,255.333 127.5,255C 135.418,250.916 143.584,247.416 152,244.5C 154.721,245.661 157.054,244.994 159,242.5C 160.587,243.727 161.921,243.394 163,241.5C 163.333,241.833 163.667,242.167 164,242.5C 168.958,240.988 173.958,239.321 179,237.5C 182.821,236.598 186.821,236.598 191,237.5C 195.346,234.904 200.013,234.237 205,235.5C 214.272,233.628 223.605,231.628 233,229.5C 235.962,229.844 238.796,230.177 241.5,230.5C 242.708,229.766 244.041,229.433 245.5,229.5C 245.833,232.167 246.167,232.167 246.5,229.5C 249.685,229.98 252.519,229.314 255,227.5C 258.163,228.029 261.33,228.362 264.5,228.5C 266.055,228.278 267.389,227.611 268.5,226.5C 280.984,226.827 292.984,226.827 304.5,226.5C 305.552,226.351 306.552,226.517 307.5,227C 306.304,227.654 306.304,228.154 307.5,228.5C 308.417,227.873 309.417,227.539 310.5,227.5C 315.295,225.119 319.795,225.453 324,228.5C 326.607,224.788 329.273,224.788 332,228.5C 333.828,227.248 335.661,227.248 337.5,228.5C 340.723,227.075 343.89,227.408 347,229.5C 348,228.833 349,228.167 350,227.5C 352.124,228.227 354.291,228.894 356.5,229.5C 357.944,228.019 358.611,228.352 358.5,230.5C 358.833,230.5 359.167,230.5 359.5,230.5C 361.5,229.167 363.5,229.167 365.5,230.5C 370.14,230.665 374.807,231.332 379.5,232.5C 380.492,232.328 381.158,232.662 381.5,233.5C 382.496,233.414 383.329,233.748 384,234.5C 384.333,233.833 384.667,233.167 385,232.5C 386.171,233.893 387.671,234.727 389.5,235C 393.036,236.031 396.37,236.531 399.5,236.5C 405.508,236.755 410.508,237.755 414.5,239.5C 419.78,239.992 424.447,241.326 428.5,243.5C 429.967,243.277 431.467,242.944 433,242.5C 438.014,244.176 443.014,245.843 448,247.5C 449.016,246.366 449.683,246.699 450,248.5C 453.308,247.305 456.641,247.972 460,250.5C 462.09,249.209 463.424,249.876 464,252.5C 465.333,249.833 466.667,249.833 468,252.5C 468.333,251.833 468.667,251.167 469,250.5C 473.932,253.943 479.432,255.609 485.5,255.5C 485.351,256.552 485.517,257.552 486,258.5C 488.522,257.719 491.189,257.386 494,257.5C 494.308,258.308 494.808,258.975 495.5,259.5C 497.462,258.366 499.462,258.366 501.5,259.5C 505.223,258.401 507.89,256.067 509.5,252.5C 508.97,250.284 509.637,248.118 511.5,246C 510.434,244.841 510.767,244.008 512.5,243.5C 512.259,241.102 512.926,239.102 514.5,237.5C 514.297,235.61 514.963,234.11 516.5,233C 515.833,232.667 515.167,232.333 514.5,232C 516.189,228.121 518.022,224.288 520,220.5C 520.654,221.696 521.154,221.696 521.5,220.5C 520.242,218.352 520.242,216.185 521.5,214C 522.581,212.629 523.415,211.129 524,209.5C 524.333,209.833 524.667,210.167 525,210.5C 525.645,209.354 526.478,208.354 527.5,207.5C 527.694,205.737 527.694,203.903 527.5,202C 528.044,201.283 528.711,200.783 529.5,200.5 Z M 121.5,306.5 C 122.167,306.5 122.833,306.5 123.5,306.5C 123.167,307.5 122.5,308.167 121.5,308.5C 121.5,307.833 121.5,307.167 121.5,306.5 Z M 183.5,330.5 C 181.027,330.053 180.86,329.053 183,327.5C 183.483,328.448 183.649,329.448 183.5,330.5 Z M 169.5,332.5 C 173.926,332.859 174.593,334.693 171.5,338C 172.476,340.147 172.309,342.314 171,344.5C 170.641,341.456 169.974,341.122 169,343.5C 167.561,341.986 166.061,341.653 164.5,342.5C 163.289,341.726 163.289,340.893 164.5,340C 163.216,339.316 162.049,339.483 161,340.5C 160.5,340 160,339.5 159.5,339C 163.055,336.901 166.389,334.734 169.5,332.5 Z M 182.5,332.5 C 182.617,334.484 181.95,336.15 180.5,337.5C 179.693,335.422 180.359,333.755 182.5,332.5 Z M 144.5,358.5 C 142.529,357.177 140.529,355.844 138.5,354.5C 138.043,352.286 138.043,350.286 138.5,348.5C 141.127,345.524 144.46,344.19 148.5,344.5C 148.389,343.883 148.056,343.383 147.5,343C 151.803,341.764 152.803,342.598 150.5,345.5C 151.902,346.842 151.569,347.676 149.5,348C 150.576,349.726 150.743,351.559 150,353.5C 149.259,352.359 148.425,352.359 147.5,353.5C 146.725,355.396 145.725,357.063 144.5,358.5 Z M 159.5,345.5 C 158.957,345.56 158.624,345.893 158.5,346.5C 159.257,347.773 159.923,347.773 160.5,346.5C 162.287,347.447 163.953,348.613 165.5,350C 164.925,352.935 165.592,355.768 167.5,358.5C 166.855,361.193 166.855,363.693 167.5,366C 166.906,366.464 166.239,366.631 165.5,366.5C 161.807,367.768 157.807,367.768 153.5,366.5C 153.896,361.616 155.396,361.282 158,365.5C 159.008,365.018 160.175,364.852 161.5,365C 160.284,363.26 158.618,362.26 156.5,362C 155.748,361.329 155.414,360.496 155.5,359.5C 154.352,357.085 155.018,355.085 157.5,353.5C 157.007,351.743 156.673,349.909 156.5,348C 157.071,346.795 157.738,345.628 158.5,344.5C 159.107,344.624 159.44,344.957 159.5,345.5 Z M 176.5,351.5 C 176.528,355.612 175.361,359.612 173,363.5C 172.608,359.472 172.108,355.472 171.5,351.5C 173.167,351.5 174.833,351.5 176.5,351.5 Z M 127.5,353.5 C 126.639,356.032 126.305,358.365 126.5,360.5C 126.785,363.829 126.118,366.829 124.5,369.5C 124.249,371.17 123.582,372.67 122.5,374C 123.973,374.71 124.64,375.876 124.5,377.5C 121.513,377.002 118.513,376.502 115.5,376C 114.944,375.617 114.611,375.117 114.5,374.5C 112.901,374.768 111.568,374.434 110.5,373.5C 106.651,373.114 103.318,371.78 100.5,369.5C 100.64,367.876 99.9733,366.71 98.5,366C 100.5,365.667 102.5,365.333 104.5,365C 112.696,361.38 120.363,357.547 127.5,353.5 Z M 133.5,357.5 C 135.322,358.281 135.989,359.448 135.5,361C 143.059,362.437 147.392,366.937 148.5,374.5C 148.33,376.715 147.663,378.715 146.5,380.5C 148.005,381.842 148.672,383.508 148.5,385.5C 146.102,385.741 144.102,385.074 142.5,383.5C 141.25,383.423 140.417,382.756 140,381.5C 136.742,382.555 134.076,381.555 132,378.5C 130.513,379.741 129.68,379.241 129.5,377C 131.388,370.052 132.721,363.552 133.5,357.5 Z M 146.5,359.5 C 148.028,359.517 148.528,360.184 148,361.5C 147.283,360.956 146.783,360.289 146.5,359.5 Z M 155.5,373.5 C 156.817,373.179 158.151,372.846 159.5,372.5C 161.717,374.379 164.217,374.379 167,372.5C 167.755,375.497 166.922,377.997 164.5,380C 164.957,380.414 165.291,380.914 165.5,381.5C 164.833,381.833 164.167,382.167 163.5,382.5C 164.713,384.851 164.047,386.684 161.5,388C 159.432,388.687 157.432,388.52 155.5,387.5C 154.225,382.784 154.225,378.117 155.5,373.5 Z"/></g>
<g><path style="opacity:0.004" fill="#000000" d="M 528.5,175.5 C 527.833,174.167 527.833,174.167 528.5,175.5 Z"/></g>
<g><path style="opacity:0.004" fill="#000000" d="M 522.5,180.5 C 523.833,181.167 523.833,181.167 522.5,180.5 Z"/></g>
<g><path style="opacity:0.008" fill="#000000" d="M 522.5,183.5 C 523.833,184.167 523.833,184.167 522.5,183.5 Z"/></g>
<g><path style="opacity:0.004" fill="#000000" d="M 522.5,184.5 C 522.103,185.525 521.437,185.692 520.5,185C 521.094,184.536 521.761,184.369 522.5,184.5 Z"/></g>
<g><path style="opacity:0.004" fill="#000000" d="M 515.5,197.5 C 514.833,196.167 514.833,196.167 515.5,197.5 Z"/></g>
<g><path style="opacity:0.004" fill="#000000" d="M 329.5,212.5 C 330.833,213.167 330.833,213.167 329.5,212.5 Z"/></g>
<g><path style="opacity:0.004" fill="#000000" d="M 341.5,213.5 C 342.833,214.167 342.833,214.167 341.5,213.5 Z"/></g>
<g><path style="opacity:0.004" fill="#000000" d="M 405.5,223.5 C 404.833,222.167 404.833,222.167 405.5,223.5 Z"/></g>
<g><path style="opacity:0.004" fill="#000000" d="M 419.5,225.5 C 420.833,226.167 420.833,226.167 419.5,225.5 Z"/></g>
<g><path style="opacity:0.004" fill="#000000" d="M 439.5,229.5 C 440.833,230.167 440.833,230.167 439.5,229.5 Z"/></g>
<g><path style="opacity:0.004" fill="#000000" d="M 441.5,230.5 C 442.833,231.167 442.833,231.167 441.5,230.5 Z"/></g>
<g><path style="opacity:0.004" fill="#000000" d="M 449.5,231.5 C 450.833,232.167 450.833,232.167 449.5,231.5 Z"/></g>
<g><path style="opacity:0.004" fill="#000000" d="M 452.5,233.5 C 452.897,232.475 453.563,232.308 454.5,233C 453.906,233.464 453.239,233.631 452.5,233.5 Z"/></g>
<g><path style="opacity:0.004" fill="#000000" d="M 460.5,235.5 C 460.897,234.475 461.563,234.308 462.5,235C 461.906,235.464 461.239,235.631 460.5,235.5 Z"/></g>
<g><path style="opacity:0.004" fill="#000000" d="M 138.5,235.5 C 139.833,236.167 139.833,236.167 138.5,235.5 Z"/></g>
<g><path style="opacity:0.02" fill="#000000" d="M 463.5,235.5 C 464.833,236.167 464.833,236.167 463.5,235.5 Z"/></g>
<g><path style="opacity:0.004" fill="#000000" d="M 466.5,235.5 C 467.833,236.167 467.833,236.167 466.5,235.5 Z"/></g>
<g><path style="opacity:0.004" fill="#000000" d="M 468.5,236.5 C 469.833,237.167 469.833,237.167 468.5,236.5 Z"/></g>
<g><path style="opacity:0.004" fill="#000000" d="M 133.5,237.5 C 134.833,238.167 134.833,238.167 133.5,237.5 Z"/></g>
<g><path style="opacity:0.004" fill="#000000" d="M 473.5,237.5 C 474.833,238.167 474.833,238.167 473.5,237.5 Z"/></g>
<g><path style="opacity:0.004" fill="#000000" d="M 130.5,240.5 C 129.833,239.167 129.833,239.167 130.5,240.5 Z"/></g>
<g><path style="opacity:0.004" fill="#000000" d="M 488.5,242.5 C 488.897,241.475 489.563,241.308 490.5,242C 489.906,242.464 489.239,242.631 488.5,242.5 Z"/></g>
<g><path style="opacity:0.004" fill="#000000" d="M 117.5,245.5 C 118.833,246.167 118.833,246.167 117.5,245.5 Z"/></g>
<g><path style="opacity:0.004" fill="#000000" d="M 110.5,251.5 C 109.833,250.167 109.833,250.167 110.5,251.5 Z"/></g>
<g><path style="opacity:0.004" fill="#000000" d="M 105.5,252.5 C 106.833,253.167 106.833,253.167 105.5,252.5 Z"/></g>
<g><path style="opacity:0.435" fill="#000000" d="M 130.5,273.5 C 129.833,273.5 129.5,273.833 129.5,274.5C 128.897,276.19 127.897,277.69 126.5,279C 126.833,279.333 127.167,279.667 127.5,280C 125.249,280.748 123.916,282.248 123.5,284.5C 122.167,284.833 122.167,285.167 123.5,285.5C 122.992,287.233 122.159,287.566 121,286.5C 119.906,288.078 119.072,289.745 118.5,291.5C 116.367,293.091 114.701,295.091 113.5,297.5C 112.094,297.973 111.427,298.973 111.5,300.5C 110.5,300.833 109.833,301.5 109.5,302.5C 110.339,304.983 109.339,306.816 106.5,308C 106.833,308.333 107.167,308.667 107.5,309C 105.251,309.863 103.418,309.363 102,307.5C 101.893,304.869 101.727,302.369 101.5,300C 103.908,298.885 105.908,297.218 107.5,295C 106.833,294.667 106.167,294.333 105.5,294C 106.552,292.881 107.719,292.381 109,292.5C 109.986,290.222 110.82,287.889 111.5,285.5C 113.184,284.85 114.517,283.85 115.5,282.5C 116.5,282.167 117.167,281.5 117.5,280.5C 116.812,277.98 115.812,275.48 114.5,273C 116.891,272.713 119.224,272.213 121.5,271.5C 122.107,271.624 122.44,271.957 122.5,272.5C 123.653,271.687 123.653,270.687 122.5,269.5C 122.855,268.478 123.522,267.811 124.5,267.5C 124.369,266.761 124.536,266.094 125,265.5C 126.399,265.501 127.899,265.835 129.5,266.5C 130.474,268.743 130.808,271.076 130.5,273.5 Z"/></g>
<g><path style="opacity:0.004" fill="#000000" d="M 560.5,280.5 C 561.833,281.167 561.833,281.167 560.5,280.5 Z"/></g>
<g><path style="opacity:0.005" fill="#000000" d="M 525.5,283.5 C 528.475,283.713 531.142,284.713 533.5,286.5C 529.47,289.506 526.803,288.506 525.5,283.5 Z"/></g>
<g><path style="opacity:0.004" fill="#000000" d="M 565.5,284.5 C 566.833,285.167 566.833,285.167 565.5,284.5 Z"/></g>
<g><path style="opacity:0.006" fill="#000000" d="M 546.5,285.5 C 546.5,286.167 546.833,286.5 547.5,286.5C 547.5,287.167 547.833,287.5 548.5,287.5C 547.614,288.776 546.614,288.776 545.5,287.5C 544.019,286.056 544.352,285.389 546.5,285.5 Z"/></g>
<g><path style="opacity:0.004" fill="#000000" d="M 72.5,289.5 C 73.7733,290.077 73.7733,290.743 72.5,291.5C 71.8933,291.376 71.56,291.043 71.5,290.5C 72.1667,290.5 72.5,290.167 72.5,289.5 Z"/></g>
<g><path style="opacity:0.004" fill="#000000" d="M 571.5,289.5 C 572.833,290.167 572.833,290.167 571.5,289.5 Z"/></g>
<g><path style="opacity:0.004" fill="#000000" d="M 503.5,290.5 C 502.833,291.167 502.833,291.167 503.5,290.5 Z"/></g>
<g><path style="opacity:0.004" fill="#000000" d="M 574.5,293.5 C 574.369,292.761 574.536,292.094 575,291.5C 575.692,292.437 575.525,293.103 574.5,293.5 Z"/></g>
<g><path style="opacity:0.69" fill="#000000" d="M 137.5,292.5 C 137.5,293.167 137.833,293.5 138.5,293.5C 139.458,294.962 140.624,296.295 142,297.5C 141.418,300.395 141.585,302.895 142.5,305C 136.966,310.491 132.133,315.991 128,321.5C 127.517,322.448 127.351,323.448 127.5,324.5C 126.448,324.351 125.448,324.517 124.5,325C 125.451,325.718 125.617,326.551 125,327.5C 122.808,326.601 120.642,325.601 118.5,324.5C 117.304,323.441 116.637,322.107 116.5,320.5C 117.046,318.865 117.38,317.199 117.5,315.5C 118.833,314.833 118.833,314.167 117.5,313.5C 119.412,313.08 120.745,311.413 121.5,308.5C 122.5,308.167 123.167,307.5 123.5,306.5C 124.338,306.158 124.672,305.492 124.5,304.5C 125.338,304.158 125.672,303.492 125.5,302.5C 127.698,302.591 128.031,301.925 126.5,300.5C 127.492,300.672 128.158,300.338 128.5,299.5C 129.862,297.3 131.529,295.3 133.5,293.5C 134.833,293.167 136.167,292.833 137.5,292.5 Z"/></g>
<g><path style="opacity:0.004" fill="#000000" d="M 510.5,294.5 C 509.833,295.167 509.833,295.167 510.5,294.5 Z"/></g>
<g><path style="opacity:0.012" fill="#000000" d="M 575.5,294.5 C 576.833,295.167 576.833,295.167 575.5,294.5 Z"/></g>
<g><path style="opacity:0.004" fill="#000000" d="M 45.5,297.5 C 44.8333,296.167 44.8333,296.167 45.5,297.5 Z"/></g>
<g><path style="opacity:0.004" fill="#000000" d="M 580.5,297.5 C 579.833,296.167 579.833,296.167 580.5,297.5 Z"/></g>
<g><path style="opacity:0.009" fill="#000000" d="M 580.5,297.5 C 582.028,297.517 582.528,298.184 582,299.5C 581.283,298.956 580.783,298.289 580.5,297.5 Z"/></g>
<g><path style="opacity:0.006" fill="#000000" d="M 42.5,299.5 C 41.7611,299.631 41.0944,299.464 40.5,299C 41.4368,298.308 42.1034,298.475 42.5,299.5 Z"/></g>
<g><path style="opacity:0.004" fill="#000000" d="M 39.5,301.5 C 38.8333,300.167 38.8333,300.167 39.5,301.5 Z"/></g>
<g><path style="opacity:0.004" fill="#000000" d="M 125.5,302.5 C 124.662,302.842 124.328,303.508 124.5,304.5C 124.167,304.5 123.833,304.5 123.5,304.5C 123.281,303.325 123.614,302.325 124.5,301.5C 125.107,301.624 125.44,301.957 125.5,302.5 Z"/></g>
<g><path style="opacity:0.004" fill="#000000" d="M 123.5,304.5 C 123.5,305.167 123.5,305.833 123.5,306.5C 122.833,306.5 122.167,306.5 121.5,306.5C 121.833,305.5 122.5,304.833 123.5,304.5 Z"/></g>
<g><path style="opacity:0.004" fill="#000000" d="M 121.5,306.5 C 121.5,307.167 121.5,307.833 121.5,308.5C 119.067,308.214 119.067,307.548 121.5,306.5 Z"/></g>
<g><path style="opacity:0.008" fill="#000000" d="M 90.5,307.5 C 92.1824,309.347 94.1824,310.847 96.5,312C 95.1583,315.542 92.9916,318.375 90,320.5C 85.6478,316.152 85.8145,311.819 90.5,307.5 Z"/></g>
<g><path style="opacity:0.004" fill="#000000" d="M 25.5,309.5 C 26.8333,310.167 26.8333,310.167 25.5,309.5 Z"/></g>
<g><path style="opacity:0.004" fill="#000000" d="M 24.5,312.5 C 23.8333,311.167 23.8333,311.167 24.5,312.5 Z"/></g>
<g><path style="opacity:0.005" fill="#000000" d="M 463.5,313.5 C 466.001,313.511 466.168,314.178 464,315.5C 463.536,314.906 463.369,314.239 463.5,313.5 Z"/></g>
<g><path style="opacity:0.004" fill="#000000" d="M 441.5,328.5 C 442.525,328.897 442.692,329.563 442,330.5C 441.536,329.906 441.369,329.239 441.5,328.5 Z"/></g>
<g><path style="opacity:0.004" fill="#000000" d="M 27.5,334.5 C 28.1667,334.5 28.5,334.833 28.5,335.5C 27.5029,336.713 26.5029,336.546 25.5,335C 26.0944,334.536 26.7611,334.369 27.5,334.5 Z"/></g>
<g><path style="opacity:0.004" fill="#000000" d="M 36.5,341.5 C 35.8333,342.167 35.8333,342.167 36.5,341.5 Z"/></g>
<g><path style="opacity:0.004" fill="#000000" d="M 159.5,345.5 C 159.5,346.167 159.833,346.5 160.5,346.5C 159.923,347.773 159.257,347.773 158.5,346.5C 158.624,345.893 158.957,345.56 159.5,345.5 Z"/></g>
<g><path style="opacity:0.004" fill="#000000" d="M 413.5,345.5 C 414.239,345.369 414.906,345.536 415.5,346C 414.563,346.692 413.897,346.525 413.5,345.5 Z"/></g>
<g><path style="opacity:0.004" fill="#000000" d="M 43.5,346.5 C 43.8333,346.5 44.1667,346.5 44.5,346.5C 44.3147,347.17 43.9813,347.17 43.5,346.5 Z"/></g>
<g><path style="opacity:0.004" fill="#000000" d="M 408.5,348.5 C 409.833,349.167 409.833,349.167 408.5,348.5 Z"/></g>
<g><path style="opacity:0.004" fill="#000000" d="M 406.5,349.5 C 407.833,350.167 407.833,350.167 406.5,349.5 Z"/></g>
<g><path style="opacity:0.004" fill="#000000" d="M 142.5,350.5 C 143.376,350.369 144.043,350.702 144.5,351.5C 142.192,352.873 141.525,352.54 142.5,350.5 Z"/></g>
<g><path style="opacity:0.004" fill="#000000" d="M 56.5,354.5 C 55.8333,355.167 55.8333,355.167 56.5,354.5 Z"/></g>
<g><path style="opacity:0.004" fill="#000000" d="M 76.5,356.5 C 76.5,356.167 76.5,355.833 76.5,355.5C 78.0269,355.427 79.0269,356.094 79.5,357.5C 78.8333,357.5 78.1667,357.5 77.5,357.5C 77.5,356.833 77.1667,356.5 76.5,356.5 Z"/></g>
<g><path style="opacity:0.004" fill="#000000" d="M 66.5,361.5 C 66.8333,361.5 67.1667,361.5 67.5,361.5C 67.3147,362.17 66.9813,362.17 66.5,361.5 Z"/></g>
<g><path style="opacity:0.005" fill="#000000" d="M 172.5,381.5 C 173.573,382.251 173.74,383.251 173,384.5C 171.893,385.712 171.393,385.379 171.5,383.5C 172.338,383.158 172.672,382.492 172.5,381.5 Z"/></g>
<g><path style="opacity:0.004" fill="#000000" d="M 109.5,383.5 C 108.833,384.167 108.833,384.167 109.5,383.5 Z"/></g>
<g><path style="opacity:0.004" fill="#000000" d="M 112.5,385.5 C 113.833,386.167 113.833,386.167 112.5,385.5 Z"/></g>
<g><path style="opacity:0.004" fill="#000000" d="M 124.5,388.5 C 124.631,389.239 124.464,389.906 124,390.5C 123.308,389.563 123.475,388.897 124.5,388.5 Z"/></g>
<g><path style="opacity:0.004" fill="#000000" d="M 126.5,390.5 C 125.833,391.167 125.833,391.167 126.5,390.5 Z"/></g>
<g><path style="opacity:0.004" fill="#000000" d="M 135.5,392.5 C 136.463,393.363 136.463,394.03 135.5,394.5C 134.227,393.743 134.227,393.077 135.5,392.5 Z"/></g>
<g><path style="opacity:0.004" fill="#000000" d="M 155.5,400.5 C 155.897,399.475 156.563,399.308 157.5,400C 156.906,400.464 156.239,400.631 155.5,400.5 Z"/></g>
<g><path style="opacity:0.004" fill="#000000" d="M 170.5,402.5 C 171.833,403.167 171.833,403.167 170.5,402.5 Z"/></g>
<g><path style="opacity:0.004" fill="#000000" d="M 174.5,402.5 C 174.631,403.239 174.464,403.906 174,404.5C 173.308,403.563 173.475,402.897 174.5,402.5 Z"/></g>
<g><path style="opacity:0.008" fill="#000000" d="M 239.5,402.5 C 240.833,403.167 240.833,403.167 239.5,402.5 Z"/></g>
<g><path style="opacity:0.004" fill="#000000" d="M 181.5,403.5 C 182.833,404.167 182.833,404.167 181.5,403.5 Z"/></g>
<g><path style="opacity:0.004" fill="#000000" d="M 184.5,403.5 C 185.833,404.167 185.833,404.167 184.5,403.5 Z"/></g>
<g><path style="opacity:0.004" fill="#000000" d="M 193.5,403.5 C 194.492,403.328 195.158,403.662 195.5,404.5C 194.508,404.672 193.842,404.338 193.5,403.5 Z"/></g>
<g><path style="opacity:0.004" fill="#000000" d="M 206.5,404.5 C 205.833,403.167 205.833,403.167 206.5,404.5 Z"/></g>
<g><path style="opacity:0.004" fill="#000000" d="M 227.5,403.5 C 228.833,404.167 228.833,404.167 227.5,403.5 Z"/></g>
<g><path style="opacity:0.004" fill="#000000" d="M 195.5,404.5 C 196.833,405.167 196.833,405.167 195.5,404.5 Z"/></g>
<g><path style="opacity:0.004" fill="#000000" d="M 206.5,404.5 C 207.167,404.5 207.833,404.5 208.5,404.5C 207.833,405.833 207.167,405.833 206.5,404.5 Z"/></g>
</svg>
