<?xml version="1.0" encoding="UTF-8"?>
<!DOCTYPE svg PUBLIC "-//W3C//DTD SVG 1.1//EN" "http://www.w3.org/Graphics/SVG/1.1/DTD/svg11.dtd">
<svg xmlns="http://www.w3.org/2000/svg" version="1.1" width="611px" height="611px" style="shape-rendering:geometricPrecision; text-rendering:geometricPrecision; image-rendering:optimizeQuality; fill-rule:evenodd; clip-rule:evenodd" xmlns:xlink="http://www.w3.org/1999/xlink">
<g><path style="opacity:0.689" fill="#000000" d="M 580.5,307.5 C 580.393,309.379 580.893,309.712 582,308.5C 583.097,310.053 584.43,311.386 586,312.5C 586.414,312.043 586.914,311.709 587.5,311.5C 588.515,314.544 589.515,317.544 590.5,320.5C 591.5,320.5 592.5,320.5 593.5,320.5C 594.445,324.755 594.445,328.755 593.5,332.5C 590.833,332.833 588.167,333.167 585.5,333.5C 580.761,333.556 575.928,333.223 571,332.5C 568.516,335.259 567.35,334.926 567.5,331.5C 563.657,330.609 559.824,329.609 556,328.5C 555.127,328.735 554.293,329.069 553.5,329.5C 553.662,327.369 552.329,326.369 549.5,326.5C 545.743,324.092 541.743,322.092 537.5,320.5C 530.712,316.268 523.712,312.268 516.5,308.5C 516.167,307.167 515.833,307.167 515.5,308.5C 512.714,306.603 509.714,304.936 506.5,303.5C 505.18,305.27 503.68,305.603 502,304.5C 498.138,307.233 493.971,309.4 489.5,311C 483.436,317.563 477.103,323.063 470.5,327.5C 471.504,329.677 470.838,330.011 468.5,328.5C 467.833,329.5 467.167,330.5 466.5,331.5C 465.914,331.291 465.414,330.957 465,330.5C 462.274,332.188 459.441,333.688 456.5,335C 459.045,337.501 458.545,338.001 455,336.5C 452.258,338.432 449.758,340.432 447.5,342.5C 438.109,348.2 429.442,354.033 421.5,360C 418.609,359.365 416.442,360.532 415,363.5C 413.984,362.366 413.317,362.699 413,364.5C 412.667,364.167 412.333,363.833 412,363.5C 410.004,363.996 408.337,364.996 407,366.5C 406.667,366.167 406.333,365.833 406,365.5C 403.619,366.75 401.619,368.417 400,370.5C 399.125,368.487 397.791,368.487 396,370.5C 395.667,370.167 395.333,369.833 395,369.5C 394.424,372.124 393.09,372.791 391,371.5C 386.612,373.311 382.945,375.977 380,379.5C 379.439,378.978 378.772,378.645 378,378.5C 372.979,380.854 367.812,382.521 362.5,383.5C 362.5,384.5 362.5,385.5 362.5,386.5C 361.167,386.5 359.833,386.5 358.5,386.5C 358.167,385.167 357.833,385.167 357.5,386.5C 337.012,392.215 316.012,397.881 294.5,403.5C 290.412,405.3 286.078,406.466 281.5,407C 282.604,408.131 282.271,408.965 280.5,409.5C 279.199,408.522 278.032,408.855 277,410.5C 270.379,412.926 264.046,414.259 258,414.5C 257.311,415.357 256.478,416.023 255.5,416.5C 250.006,417.022 244.672,417.022 239.5,416.5C 237.618,417.093 235.785,417.76 234,418.5C 233.549,416.071 232.715,415.904 231.5,418C 227.283,417.223 223.283,417.723 219.5,419.5C 217.328,419.324 214.995,419.157 212.5,419C 211.975,418.308 211.308,417.808 210.5,417.5C 207.916,418.393 205.249,418.726 202.5,418.5C 202.167,417.167 201.833,417.167 201.5,418.5C 197.998,418.453 194.498,418.453 191,418.5C 189.691,416.109 188.691,416.109 188,418.5C 185.333,417.167 182.667,417.167 180,418.5C 179.395,416.519 178.395,416.185 177,417.5C 173.452,415.468 169.786,415.134 166,416.5C 165.716,414.114 164.716,413.448 163,414.5C 161.566,412.864 159.733,411.864 157.5,411.5C 156.199,412.478 155.032,412.145 154,410.5C 153.228,410.645 152.561,410.978 152,411.5C 150,410.167 148,408.833 146,407.5C 144.16,408.833 143.66,408.666 144.5,407C 143.552,406.517 142.552,406.351 141.5,406.5C 138.877,404.735 135.877,404.068 132.5,404.5C 132.25,403.078 131.417,402.078 130,401.5C 128.201,401.721 126.368,402.054 124.5,402.5C 123.304,402.154 123.304,401.654 124.5,401C 121.798,399.66 119.131,398.327 116.5,397C 114.888,396.28 113.388,396.446 112,397.5C 108.452,394.949 104.285,392.616 99.5,390.5C 98.7387,389.609 97.7387,388.942 96.5,388.5C 95.3044,388.846 95.3044,389.346 96.5,390C 94.0658,390.333 93.0658,389.166 93.5,386.5C 91.0876,386.756 89.4209,385.756 88.5,383.5C 87.2322,384.428 85.8989,384.595 84.5,384C 84.9574,383.586 85.2907,383.086 85.5,382.5C 83.7127,381.684 82.0461,380.684 80.5,379.5C 79.8076,380.025 79.3076,380.692 79,381.5C 78.7073,379.075 77.5407,377.242 75.5,376C 70.6338,375.293 66.4671,372.793 63,368.5C 62.2825,369.451 61.4491,369.617 60.5,369C 59.2567,367.846 58.2567,366.512 57.5,365C 53.4571,363.31 49.6237,361.143 46,358.5C 45.6667,358.833 45.3333,359.167 45,359.5C 42.6555,356.739 39.8222,354.572 36.5,353C 35.9152,351.698 35.2485,350.531 34.5,349.5C 34.5,348.833 34.1667,348.5 33.5,348.5C 31.7756,346.311 29.4422,345.144 26.5,345C 27.5,344.667 28.5,344.333 29.5,344C 27.9751,342.991 26.3084,342.491 24.5,342.5C 23.6713,339.531 23.5046,336.531 24,333.5C 27.567,330.309 30.4003,327.142 32.5,324C 33.8333,323.667 35.1667,323.333 36.5,323C 36.1667,322.667 35.8333,322.333 35.5,322C 41.4426,318.589 46.7759,315.089 51.5,311.5C 52.9663,310.653 53.7996,309.32 54,307.5C 58.4657,308.08 61.4657,306.08 63,301.5C 63.3333,301.833 63.6667,302.167 64,302.5C 66.1156,301.257 68.2823,300.091 70.5,299C 69.5494,298.282 69.3828,297.449 70,296.5C 71.5026,296.835 72.836,296.835 74,296.5C 74.5,295.333 75.3333,294.5 76.5,294C 76.1667,293.667 75.8333,293.333 75.5,293C 77.744,292.95 79.4107,292.117 80.5,290.5C 85.8941,286.444 91.5608,282.778 97.5,279.5C 99.3415,278.158 100.842,276.491 102,274.5C 102.333,274.833 102.667,275.167 103,275.5C 105.809,272.502 108.976,270.169 112.5,268.5C 114.153,268.34 115.486,267.674 116.5,266.5C 128.981,257.621 143.314,251.121 159.5,247C 160.126,246.25 160.626,245.416 161,244.5C 161.561,245.022 162.228,245.355 163,245.5C 172.254,242.904 181.587,240.571 191,238.5C 191.945,238.095 192.612,237.428 193,236.5C 193.674,237.578 194.674,238.245 196,238.5C 200.333,237.833 204.667,237.167 209,236.5C 210.82,237.484 212.32,237.317 213.5,236C 219.891,236.055 225.891,234.889 231.5,232.5C 232.695,232.678 233.862,233.011 235,233.5C 237.433,232.521 239.933,231.855 242.5,231.5C 242.56,232.043 242.893,232.376 243.5,232.5C 247.836,229.678 252.169,229.344 256.5,231.5C 259.637,230.309 262.803,229.309 266,228.5C 270.302,228.404 274.635,228.738 279,229.5C 283.166,227.646 287.332,226.979 291.5,227.5C 296.623,227.533 302.123,227.866 308,228.5C 311.28,227.754 314.614,227.087 318,226.5C 323.873,226.96 329.873,226.96 336,226.5C 336.388,227.428 337.055,228.095 338,228.5C 341.096,228.214 344.263,228.214 347.5,228.5C 347.842,229.338 348.508,229.672 349.5,229.5C 352.699,230.078 356.032,230.078 359.5,229.5C 361.713,230.279 364.213,230.279 367,229.5C 369.308,230.991 371.808,231.991 374.5,232.5C 384.435,233.826 394.435,235.159 404.5,236.5C 404.842,237.338 405.508,237.672 406.5,237.5C 407.878,238.234 409.378,238.901 411,239.5C 412.533,239.056 414.033,238.723 415.5,238.5C 417.173,240.086 419.173,240.753 421.5,240.5C 422.705,241.686 424.039,241.686 425.5,240.5C 425.611,241.117 425.944,241.617 426.5,242C 431.363,243.013 436.196,244.18 441,245.5C 443.112,244.614 445.278,244.614 447.5,245.5C 448.542,246.791 449.708,246.791 451,245.5C 453.567,247.305 456.401,248.638 459.5,249.5C 462.91,249.872 466.41,249.872 470,249.5C 471.312,251.658 472.978,251.991 475,250.5C 476.738,252.757 479.071,254.091 482,254.5C 483.892,251.61 484.725,251.944 484.5,255.5C 487.28,255.945 489.947,255.945 492.5,255.5C 493.696,255.846 493.696,256.346 492.5,257C 494.402,257.199 495.902,258.033 497,259.5C 498.779,258.521 500.445,258.854 502,260.5C 503.635,258.757 503.802,256.923 502.5,255C 505.229,252.751 505.896,250.084 504.5,247C 507.464,246.16 507.797,245.16 505.5,244C 506.167,243.667 506.833,243.333 507.5,243C 506.167,242.333 506.167,241.667 507.5,241C 508.449,240.383 509.282,240.549 510,241.5C 511.207,239.56 511.374,237.727 510.5,236C 512.394,234.921 512.727,233.587 511.5,232C 513.301,231.683 513.634,231.016 512.5,230C 514.099,228.214 514.933,226.047 515,223.5C 517.168,222.371 517.668,220.871 516.5,219C 519.245,214.02 522.911,208.687 527.5,203C 524.723,200.827 524.89,200.327 528,201.5C 528.717,200.956 529.217,200.289 529.5,199.5C 531.243,196.222 532.91,192.889 534.5,189.5C 535.5,189.5 536.5,189.5 537.5,189.5C 537.5,188.5 537.5,187.5 537.5,186.5C 540.125,185.534 540.125,184.534 537.5,183.5C 539.733,184.016 541.4,183.016 542.5,180.5C 544.054,179.086 545.388,177.419 546.5,175.5C 547.833,174.167 549.167,174.167 550.5,175.5C 551.27,179.394 552.27,183.227 553.5,187C 551.513,190.232 551.18,193.565 552.5,197C 550.246,198.054 549.913,199.554 551.5,201.5C 550.926,203.059 550.26,204.559 549.5,206C 549.051,214.456 549.051,222.956 549.5,231.5C 547.887,234.614 546.887,237.947 546.5,241.5C 547.347,243.061 547.014,244.561 545.5,246C 546.167,246.667 546.833,247.333 547.5,248C 546.504,252.297 545.504,256.63 544.5,261C 543.55,266.325 543.55,271.491 544.5,276.5C 544.919,277.672 545.585,278.672 546.5,279.5C 552.614,283.682 557.947,288.515 562.5,294C 567.932,297.594 572.932,301.76 577.5,306.5C 578.325,307.386 579.325,307.719 580.5,307.5 Z M 535.5,242.5 C 535.33,243.822 535.663,244.989 536.5,246C 535.934,246.995 535.267,247.828 534.5,248.5C 533.763,251.238 533.763,253.905 534.5,256.5C 534.199,258.422 533.533,260.088 532.5,261.5C 531.757,263.696 531.424,265.696 531.5,267.5C 531.975,273.726 533.308,279.893 535.5,286C 537.173,288.165 539.173,289.998 541.5,291.5C 541.376,292.107 541.043,292.44 540.5,292.5C 541.301,294.508 542.634,295.008 544.5,294C 546.809,296.487 549.476,298.487 552.5,300C 557.576,304.396 562.91,309.396 568.5,315C 567.748,315.671 567.414,316.504 567.5,317.5C 565.064,317.683 562.897,317.016 561,315.5C 558.639,316.066 556.806,315.066 555.5,312.5C 554.808,313.025 554.308,313.692 554,314.5C 551.5,313.333 549,312.167 546.5,311C 546.833,310.667 547.167,310.333 547.5,310C 545.257,308.864 542.924,308.03 540.5,307.5C 540.167,306.167 539.833,306.167 539.5,307.5C 538.265,307.279 537.265,306.612 536.5,305.5C 535.078,306.777 534.078,306.443 533.5,304.5C 526.623,303.062 520.623,300.062 515.5,295.5C 516.547,294.922 516.38,294.256 515,293.5C 514.601,293.728 514.435,294.062 514.5,294.5C 512.876,294.64 511.71,293.973 511,292.5C 509.951,293.517 508.784,293.684 507.5,293C 509.901,292.195 509.734,291.362 507,290.5C 505.312,292.045 503.312,293.045 501,293.5C 500.667,293.167 500.333,292.833 500,292.5C 495.771,296.525 490.271,299.358 483.5,301C 484.167,301.333 484.833,301.667 485.5,302C 483.922,303.094 482.255,303.928 480.5,304.5C 479.092,306.132 477.592,307.798 476,309.5C 473.871,308.137 473.371,308.471 474.5,310.5C 472.815,312.017 471.315,313.684 470,315.5C 468.667,315.5 467.333,315.5 466,315.5C 464.54,318.21 462.54,318.876 460,317.5C 459.383,318.449 459.549,319.282 460.5,320C 452.398,323.069 445.065,327.402 438.5,333C 438.833,333.333 439.167,333.667 439.5,334C 433.357,335.654 427.857,338.488 423,342.5C 420.679,341.639 419.513,342.639 419.5,345.5C 413.925,347.638 408.092,350.638 402,354.5C 401.667,354.167 401.333,353.833 401,353.5C 400.626,354.416 400.126,355.25 399.5,356C 393.342,357.372 387.842,359.872 383,363.5C 378.781,364.74 374.781,366.407 371,368.5C 370.586,368.043 370.086,367.709 369.5,367.5C 368.289,368.274 368.289,369.107 369.5,370C 360.956,373.093 352.456,376.259 344,379.5C 343.586,379.043 343.086,378.709 342.5,378.5C 333.368,381.95 324.035,384.784 314.5,387C 313.016,387.662 311.683,388.496 310.5,389.5C 308.777,390.807 306.943,390.807 305,389.5C 303.378,390.099 301.878,390.766 300.5,391.5C 298.481,392.755 296.481,393.089 294.5,392.5C 290.017,395.636 285.017,397.469 279.5,398C 278.91,399.299 277.91,400.132 276.5,400.5C 269.365,402.379 262.365,404.546 255.5,407C 250.309,406.858 245.476,407.025 241,407.5C 239.674,407.245 238.674,406.578 238,405.5C 236.644,406.38 235.144,406.714 233.5,406.5C 229.535,407.623 225.535,407.623 221.5,406.5C 217.563,408.983 213.563,408.983 209.5,406.5C 208.583,407.127 207.583,407.461 206.5,407.5C 206.167,406.167 205.833,406.167 205.5,407.5C 203.533,407.261 201.699,407.594 200,408.5C 198.307,407.816 196.807,406.816 195.5,405.5C 194.304,405.846 194.304,406.346 195.5,407C 192.653,407.944 190.153,407.444 188,405.5C 187,406.167 186,406.833 185,407.5C 182.45,406.676 179.95,405.676 177.5,404.5C 174.001,404.367 170.334,404.2 166.5,404C 166.833,403.667 167.167,403.333 167.5,403C 166.101,402.405 164.768,402.572 163.5,403.5C 162.808,402.975 162.308,402.308 162,401.5C 161.023,402.774 160.189,402.774 159.5,401.5C 155.694,400.413 152.027,399.079 148.5,397.5C 135.169,393.376 122.503,389.376 110.5,385.5C 117.882,377.222 127.048,371.888 138,369.5C 148.471,371.652 157.637,376.319 165.5,383.5C 169.433,382.646 170.266,380.646 168,377.5C 146.734,358.241 126.234,359.075 106.5,380C 105.271,380.781 103.938,381.281 102.5,381.5C 95.5258,378.193 89.1925,374.86 83.5,371.5C 85.7929,370.699 85.4596,370.032 82.5,369.5C 82.5,369.833 82.5,370.167 82.5,370.5C 79.5564,369.212 76.8897,367.546 74.5,365.5C 72.6045,364.297 70.6045,363.131 68.5,362C 67.9647,359.891 66.9647,359.391 65.5,360.5C 64.7492,359.624 64.2492,358.624 64,357.5C 63.5774,358.956 62.7441,359.456 61.5,359C 61.8333,358.667 62.1667,358.333 62.5,358C 61.5842,357.722 60.9175,357.222 60.5,356.5C 59.0222,356.762 57.6888,356.429 56.5,355.5C 55.9984,354.284 55.6651,353.117 55.5,352C 54.5632,351.308 53.8966,351.475 53.5,352.5C 52.1054,353.815 51.1054,353.481 50.5,351.5C 52.8312,351.141 52.6645,350.474 50,349.5C 49.6012,349.728 49.4346,350.062 49.5,350.5C 45.7337,348.57 42.7337,345.736 40.5,342C 39.1667,342 37.8333,342 36.5,342C 36.8333,341.667 37.1667,341.333 37.5,341C 35.5448,340.047 33.8782,338.713 32.5,337C 36.3911,333.157 40.3911,330.323 44.5,328.5C 48.1582,325.886 51.6582,322.886 55,319.5C 55.8732,319.735 56.7065,320.069 57.5,320.5C 58.3886,318.993 59.3886,317.66 60.5,316.5C 66.3475,313.047 72.3475,309.047 78.5,304.5C 84.0692,300.631 89.4026,297.297 94.5,294.5C 95.6085,293.71 96.9419,293.21 98.5,293C 98.0426,292.586 97.7093,292.086 97.5,291.5C 99.3159,290.185 100.983,288.685 102.5,287C 110.264,282.789 117.93,278.622 125.5,274.5C 127.388,272.731 129.721,271.398 132.5,270.5C 134.529,271.629 134.863,271.129 133.5,269C 138.249,267.791 142.582,265.791 146.5,263C 150.602,262.142 154.602,260.975 158.5,259.5C 159.442,259.608 160.275,259.941 161,260.5C 163.366,258.4 166.033,256.734 169,255.5C 170.016,256.634 170.683,256.301 171,254.5C 171.333,254.833 171.667,255.167 172,255.5C 175.598,254.912 179.098,253.912 182.5,252.5C 183.086,252.709 183.586,253.043 184,253.5C 187.944,251.094 192.111,250.428 196.5,251.5C 198.949,251.02 201.115,250.02 203,248.5C 209.604,249.431 216.27,249.431 223,248.5C 224,247.833 225,247.167 226,246.5C 228.771,246.281 231.605,246.281 234.5,246.5C 236.167,245.833 237.833,245.167 239.5,244.5C 243.876,244.632 248.209,244.966 252.5,245.5C 255.508,244.935 258.341,243.935 261,242.5C 269.755,241.412 278.422,241.412 287,242.5C 288,241.833 289,241.167 290,240.5C 293.314,241.289 296.481,241.622 299.5,241.5C 311.606,242.377 323.272,242.377 334.5,241.5C 337.748,241.901 340.915,242.568 344,243.5C 345.482,241.219 347.149,241.219 349,243.5C 351.333,243.167 353.667,242.833 356,242.5C 358.436,243.355 360.936,244.021 363.5,244.5C 367.365,244.413 371.365,245.079 375.5,246.5C 379.974,245.637 384.641,246.304 389.5,248.5C 390.167,248.167 390.833,247.833 391.5,247.5C 395.988,249.044 400.321,250.044 404.5,250.5C 404.833,251.833 405.167,251.833 405.5,250.5C 408.564,250.928 411.564,251.594 414.5,252.5C 415.823,253.608 417.323,253.608 419,252.5C 424.704,253.794 429.871,255.46 434.5,257.5C 439.012,256.773 443.679,257.606 448.5,260C 454.211,260.742 459.878,261.742 465.5,263C 464.304,263.654 464.304,264.154 465.5,264.5C 467.461,262.457 468.961,263.123 470,266.5C 472.737,265.39 475.571,265.223 478.5,266C 482.488,268.328 486.821,269.662 491.5,270C 491.93,270.92 492.264,271.753 492.5,272.5C 495.167,272.167 497.833,271.833 500.5,271.5C 500.833,272.167 501.167,272.833 501.5,273.5C 507.532,274.819 512.198,272.819 515.5,267.5C 516.833,266.833 516.833,266.167 515.5,265.5C 515.603,262.364 516.603,259.698 518.5,257.5C 518.259,255.102 518.926,253.102 520.5,251.5C 520.893,249.716 521.559,248.05 522.5,246.5C 523.833,245.5 523.833,244.5 522.5,243.5C 522.328,242.508 522.662,241.842 523.5,241.5C 523.833,242.833 524.167,242.833 524.5,241.5C 525.338,241.158 525.672,240.492 525.5,239.5C 525.875,238.207 526.208,236.874 526.5,235.5C 526.88,231.219 528.547,227.385 531.5,224C 531.167,223.667 530.833,223.333 530.5,223C 532.883,222.935 533.55,222.102 532.5,220.5C 533.63,219.378 534.297,218.044 534.5,216.5C 537.106,214.912 538.44,215.745 538.5,219C 537.14,224.254 536.64,229.42 537,234.5C 536.625,237 535.792,239.333 534.5,241.5C 534.624,242.107 534.957,242.44 535.5,242.5 Z M 510.5,270.5 C 510.461,269.244 510.961,268.244 512,267.5C 512.585,268.998 512.085,269.998 510.5,270.5 Z M 570.5,317.5 C 569.833,317.5 569.5,317.833 569.5,318.5C 568.508,318.672 567.842,318.338 567.5,317.5C 568.652,316.375 569.652,316.375 570.5,317.5 Z M 129.5,329.5 C 129.5,330.167 129.5,330.833 129.5,331.5C 127.656,330.796 127.156,329.463 128,327.5C 128.278,328.416 128.778,329.082 129.5,329.5 Z"/></g>
<g><path style="opacity:0.004" fill="#000000" d="M 540.5,180.5 C 541.167,179.167 541.833,179.167 542.5,180.5C 541.833,180.5 541.167,180.5 540.5,180.5 Z"/></g>
<g><path style="opacity:0.004" fill="#000000" d="M 540.5,180.5 C 539.833,181.167 539.833,181.167 540.5,180.5 Z"/></g>
<g><path style="opacity:0.004" fill="#000000" d="M 537.5,186.5 C 536.761,186.631 536.094,186.464 535.5,186C 536.437,185.308 537.103,185.475 537.5,186.5 Z"/></g>
<g><path style="opacity:0.004" fill="#000000" d="M 534.5,189.5 C 533.833,188.167 533.833,188.167 534.5,189.5 Z"/></g>
<g><path style="opacity:0.004" fill="#000000" d="M 528.5,194.5 C 529.833,195.167 529.833,195.167 528.5,194.5 Z"/></g>
<g><path style="opacity:0.004" fill="#000000" d="M 529.5,199.5 C 525.757,199.541 525.59,198.874 529,197.5C 529.464,198.094 529.631,198.761 529.5,199.5 Z"/></g>
<g><path style="opacity:0.008" fill="#000000" d="M 291.5,226.5 C 292.833,227.167 292.833,227.167 291.5,226.5 Z"/></g>
<g><path style="opacity:0.004" fill="#000000" d="M 347.5,227.5 C 348.833,228.167 348.833,228.167 347.5,227.5 Z"/></g>
<g><path style="opacity:0.004" fill="#000000" d="M 349.5,228.5 C 350.833,229.167 350.833,229.167 349.5,228.5 Z"/></g>
<g><path style="opacity:0.004" fill="#000000" d="M 359.5,228.5 C 360.833,229.167 360.833,229.167 359.5,228.5 Z"/></g>
<g><path style="opacity:0.008" fill="#000000" d="M 242.5,230.5 C 243.833,231.167 243.833,231.167 242.5,230.5 Z"/></g>
<g><path style="opacity:0.004" fill="#000000" d="M 231.5,232.5 C 230.833,231.167 230.833,231.167 231.5,232.5 Z"/></g>
<g><path style="opacity:0.004" fill="#000000" d="M 374.5,231.5 C 375.833,232.167 375.833,232.167 374.5,231.5 Z"/></g>
<g><path style="opacity:0.004" fill="#000000" d="M 379.5,231.5 C 380.833,232.167 380.833,232.167 379.5,231.5 Z"/></g>
<g><path style="opacity:0.004" fill="#000000" d="M 383.5,231.5 C 384.833,232.167 384.833,232.167 383.5,231.5 Z"/></g>
<g><path style="opacity:0.004" fill="#000000" d="M 386.5,232.5 C 387.833,233.167 387.833,233.167 386.5,232.5 Z"/></g>
<g><path style="opacity:0.004" fill="#000000" d="M 222.5,233.5 C 223.833,234.167 223.833,234.167 222.5,233.5 Z"/></g>
<g><path style="opacity:0.004" fill="#000000" d="M 395.5,233.5 C 396.525,233.897 396.692,234.563 396,235.5C 395.536,234.906 395.369,234.239 395.5,233.5 Z"/></g>
<g><path style="opacity:0.004" fill="#000000" d="M 211.5,234.5 C 212.833,235.167 212.833,235.167 211.5,234.5 Z"/></g>
<g><path style="opacity:0.008" fill="#000000" d="M 398.5,234.5 C 399.833,235.167 399.833,235.167 398.5,234.5 Z"/></g>
<g><path style="opacity:0.004" fill="#000000" d="M 404.5,235.5 C 405.833,236.167 405.833,236.167 404.5,235.5 Z"/></g>
<g><path style="opacity:0.004" fill="#000000" d="M 406.5,236.5 C 407.833,237.167 407.833,237.167 406.5,236.5 Z"/></g>
<g><path style="opacity:0.004" fill="#000000" d="M 410.5,236.5 C 411.833,237.167 411.833,237.167 410.5,236.5 Z"/></g>
<g><path style="opacity:0.004" fill="#000000" d="M 418.5,238.5 C 419.833,239.167 419.833,239.167 418.5,238.5 Z"/></g>
<g><path style="opacity:0.004" fill="#000000" d="M 421.5,239.5 C 422.833,240.167 422.833,240.167 421.5,239.5 Z"/></g>
<g><path style="opacity:0.004" fill="#000000" d="M 425.5,239.5 C 426.833,240.167 426.833,240.167 425.5,239.5 Z"/></g>
<g><path style="opacity:0.004" fill="#000000" d="M 429.5,241.5 C 429.897,240.475 430.563,240.308 431.5,241C 430.906,241.464 430.239,241.631 429.5,241.5 Z"/></g>
<g><path style="opacity:0.004" fill="#000000" d="M 171.5,241.5 C 172.833,242.167 172.833,242.167 171.5,241.5 Z"/></g>
<g><path style="opacity:0.004" fill="#000000" d="M 167.5,243.5 C 167.897,242.475 168.563,242.308 169.5,243C 168.906,243.464 168.239,243.631 167.5,243.5 Z"/></g>
<g><path style="opacity:0.004" fill="#000000" d="M 445.5,243.5 C 446.833,244.167 446.833,244.167 445.5,243.5 Z"/></g>
<g><path style="opacity:0.004" fill="#000000" d="M 447.5,244.5 C 448.833,245.167 448.833,245.167 447.5,244.5 Z"/></g>
<g><path style="opacity:0.004" fill="#000000" d="M 455.5,245.5 C 456.833,246.167 456.833,246.167 455.5,245.5 Z"/></g>
<g><path style="opacity:0.004" fill="#000000" d="M 458.5,247.5 C 458.897,246.475 459.563,246.308 460.5,247C 459.906,247.464 459.239,247.631 458.5,247.5 Z"/></g>
<g><path style="opacity:0.004" fill="#000000" d="M 466.5,249.5 C 466.897,248.475 467.563,248.308 468.5,249C 467.906,249.464 467.239,249.631 466.5,249.5 Z"/></g>
<g><path style="opacity:0.004" fill="#000000" d="M 472.5,249.5 C 473.833,250.167 473.833,250.167 472.5,249.5 Z"/></g>
<g><path style="opacity:0.004" fill="#000000" d="M 494.5,256.5 C 494.897,255.475 495.563,255.308 496.5,256C 495.906,256.464 495.239,256.631 494.5,256.5 Z"/></g>
<g><path style="opacity:0.004" fill="#000000" d="M 116.5,266.5 C 115.833,265.167 115.833,265.167 116.5,266.5 Z"/></g>
<g><path style="opacity:0.004" fill="#000000" d="M 112.5,268.5 C 111.833,267.167 111.833,267.167 112.5,268.5 Z"/></g>
<g><path style="opacity:0.004" fill="#000000" d="M 80.5,288.5 C 81.8333,289.167 81.8333,289.167 80.5,288.5 Z"/></g>
<g><path style="opacity:0.004" fill="#000000" d="M 80.5,289.5 C 80.5,289.833 80.5,290.167 80.5,290.5C 79.8299,290.019 79.8299,289.685 80.5,289.5 Z"/></g>
<g><path style="opacity:0.516" fill="#000000" d="M 116.5,316.5 C 116.167,315.167 115.833,315.167 115.5,316.5C 114.279,315.972 113.113,315.305 112,314.5C 110.612,315.554 109.112,315.72 107.5,315C 106.024,312.357 104.024,310.19 101.5,308.5C 99.1298,300.263 100.963,299.263 107,305.5C 107.464,304.906 107.631,304.239 107.5,303.5C 109.233,304.008 109.566,304.841 108.5,306C 111.5,308.003 114.833,308.836 118.5,308.5C 118.281,307.325 118.614,306.325 119.5,305.5C 120.107,305.624 120.44,305.957 120.5,306.5C 122.723,303.198 124.39,299.532 125.5,295.5C 126.5,295.167 127.167,294.5 127.5,293.5C 128.847,292.829 130.014,292.829 131,293.5C 131.236,295.764 131.736,297.931 132.5,300C 130.93,303.433 129.43,307.266 128,311.5C 125.458,312.216 122.958,313.716 120.5,316C 119.207,316.49 117.873,316.657 116.5,316.5 Z"/></g>
<g><path style="opacity:0.004" fill="#000000" d="M 563.5,292.5 C 564.833,293.167 564.833,293.167 563.5,292.5 Z"/></g>
<g><path style="opacity:0.004" fill="#000000" d="M 125.5,295.5 C 123.972,295.483 123.472,294.816 124,293.5C 124.717,294.044 125.217,294.711 125.5,295.5 Z"/></g>
<g><path style="opacity:0.004" fill="#000000" d="M 566.5,294.5 C 567.833,295.167 567.833,295.167 566.5,294.5 Z"/></g>
<g><path style="opacity:0.005" fill="#000000" d="M 531.5,297.5 C 534.475,297.713 537.142,298.713 539.5,300.5C 535.443,303.469 532.776,302.469 531.5,297.5 Z"/></g>
<g><path style="opacity:0.004" fill="#000000" d="M 571.5,298.5 C 570.833,297.167 570.833,297.167 571.5,298.5 Z"/></g>
<g><path style="opacity:0.004" fill="#000000" d="M 571.5,298.5 C 572.833,299.167 572.833,299.167 571.5,298.5 Z"/></g>
<g><path style="opacity:0.004" fill="#000000" d="M 65.5,299.5 C 66.8333,300.167 66.8333,300.167 65.5,299.5 Z"/></g>
<g><path style="opacity:0.004" fill="#000000" d="M 59.5,303.5 C 60.8333,304.167 60.8333,304.167 59.5,303.5 Z"/></g>
<g><path style="opacity:0.004" fill="#000000" d="M 577.5,303.5 C 578.833,304.167 578.833,304.167 577.5,303.5 Z"/></g>
<g><path style="opacity:0.004" fill="#000000" d="M 59.5,304.5 C 58.8333,305.167 58.8333,305.167 59.5,304.5 Z"/></g>
<g><path style="opacity:0.004" fill="#000000" d="M 580.5,307.5 C 580.369,306.761 580.536,306.094 581,305.5C 581.692,306.437 581.525,307.103 580.5,307.5 Z"/></g>
<g><path style="opacity:0.004" fill="#000000" d="M 515.5,308.5 C 515.833,308.5 516.167,308.5 516.5,308.5C 516.315,309.17 515.981,309.17 515.5,308.5 Z"/></g>
<g><path style="opacity:0.004" fill="#000000" d="M 51.5,311.5 C 50.8333,310.167 50.8333,310.167 51.5,311.5 Z"/></g>
<g><path style="opacity:0.557" fill="#000000" d="M 131.5,317.5 C 132.674,319.441 134.341,320.941 136.5,322C 136.167,322.333 135.833,322.667 135.5,323C 137.204,326.482 138.537,330.148 139.5,334C 138.167,335 138.167,336 139.5,337C 138.906,337.464 138.239,337.631 137.5,337.5C 137.631,338.239 137.464,338.906 137,339.5C 136.08,339.93 135.247,340.264 134.5,340.5C 134.709,341.086 135.043,341.586 135.5,342C 134.207,342.49 132.873,342.657 131.5,342.5C 130.207,341.355 129.041,341.689 128,343.5C 128.833,340.783 127.666,339.116 124.5,338.5C 120.653,334.155 119.153,329.155 120,323.5C 119.346,324.696 118.846,324.696 118.5,323.5C 120.664,322.845 122.497,321.178 124,318.5C 126.681,317.717 129.181,317.384 131.5,317.5 Z M 129.5,329.5 C 129.5,330.167 129.5,330.833 129.5,331.5C 127.656,330.796 127.156,329.463 128,327.5C 128.278,328.416 128.778,329.082 129.5,329.5 Z"/></g>
<g><path style="opacity:0.004" fill="#000000" d="M 537.5,320.5 C 537.103,321.525 536.437,321.692 535.5,321C 536.094,320.536 536.761,320.369 537.5,320.5 Z"/></g>
<g><path style="opacity:0.004" fill="#000000" d="M 549.5,326.5 C 549.103,327.525 548.437,327.692 547.5,327C 548.094,326.536 548.761,326.369 549.5,326.5 Z"/></g>
<g><path style="opacity:0.004" fill="#000000" d="M 564.5,333.5 C 564.897,332.475 565.563,332.308 566.5,333C 565.906,333.464 565.239,333.631 564.5,333.5 Z"/></g>
<g><path style="opacity:0.004" fill="#000000" d="M 585.5,333.5 C 584.833,334.167 584.833,334.167 585.5,333.5 Z"/></g>
<g><path style="opacity:0.004" fill="#000000" d="M 454.5,337.5 C 455.833,338.167 455.833,338.167 454.5,337.5 Z"/></g>
<g><path style="opacity:0.004" fill="#000000" d="M 24.5,342.5 C 23.8333,343.167 23.8333,343.167 24.5,342.5 Z"/></g>
<g><path style="opacity:0.004" fill="#000000" d="M 447.5,342.5 C 449.646,342.696 449.812,343.696 448,345.5C 447.517,344.552 447.351,343.552 447.5,342.5 Z"/></g>
<g><path style="opacity:0.004" fill="#000000" d="M 33.5,348.5 C 34.1667,348.5 34.5,348.833 34.5,349.5C 33.9467,351.657 32.9467,351.49 31.5,349C 32.0944,348.536 32.7611,348.369 33.5,348.5 Z"/></g>
<g><path style="opacity:0.004" fill="#000000" d="M 437.5,349.5 C 438.833,350.167 438.833,350.167 437.5,349.5 Z"/></g>
<g><path style="opacity:0.004" fill="#000000" d="M 82.5,370.5 C 82.5,370.167 82.5,369.833 82.5,369.5C 85.4596,370.032 85.7929,370.699 83.5,371.5C 83.5,370.833 83.1667,370.5 82.5,370.5 Z"/></g>
<g><path style="opacity:0.004" fill="#000000" d="M 357.5,386.5 C 357.833,386.5 358.167,386.5 358.5,386.5C 358.315,387.17 357.981,387.17 357.5,386.5 Z"/></g>
<g><path style="opacity:0.004" fill="#000000" d="M 99.5,390.5 C 98.8333,391.167 98.8333,391.167 99.5,390.5 Z"/></g>
<g><path style="opacity:0.004" fill="#000000" d="M 114.5,397.5 C 115.833,398.167 115.833,398.167 114.5,397.5 Z"/></g>
<g><path style="opacity:0.004" fill="#000000" d="M 118.5,399.5 C 119.833,400.167 119.833,400.167 118.5,399.5 Z"/></g>
<g><path style="opacity:0.004" fill="#000000" d="M 129.5,403.5 C 130.833,404.167 130.833,404.167 129.5,403.5 Z"/></g>
<g><path style="opacity:0.008" fill="#000000" d="M 294.5,403.5 C 295.239,403.369 295.906,403.536 296.5,404C 295.563,404.692 294.897,404.525 294.5,403.5 Z"/></g>
<g><path style="opacity:0.004" fill="#000000" d="M 132.5,404.5 C 131.833,405.167 131.833,405.167 132.5,404.5 Z"/></g>
<g><path style="opacity:0.004" fill="#000000" d="M 141.5,406.5 C 142.463,407.363 142.463,408.03 141.5,408.5C 140.227,407.743 140.227,407.077 141.5,406.5 Z"/></g>
<g><path style="opacity:0.004" fill="#000000" d="M 201.5,418.5 C 201.833,418.5 202.167,418.5 202.5,418.5C 202.315,419.17 201.981,419.17 201.5,418.5 Z"/></g>
</svg>
