<?xml version="1.0" encoding="UTF-8"?>
<!DOCTYPE svg PUBLIC "-//W3C//DTD SVG 1.1//EN" "http://www.w3.org/Graphics/SVG/1.1/DTD/svg11.dtd">
<svg xmlns="http://www.w3.org/2000/svg" version="1.1" width="611px" height="611px" style="shape-rendering:geometricPrecision; text-rendering:geometricPrecision; image-rendering:optimizeQuality; fill-rule:evenodd; clip-rule:evenodd" xmlns:xlink="http://www.w3.org/1999/xlink">
<g><path style="opacity:0.004" fill="#000000" d="M 288.5,138.5 C 289.833,139.167 289.833,139.167 288.5,138.5 Z"/></g>
<g><path style="opacity:0.693" fill="#000000" d="M 294.5,141.5 C 296.056,144.057 297.056,146.89 297.5,150C 296.978,150.95 296.311,151.784 295.5,152.5C 296.777,153.922 296.443,154.922 294.5,155.5C 294.167,154.167 293.833,154.167 293.5,155.5C 292.662,155.842 292.328,156.508 292.5,157.5C 291.522,157.811 290.855,158.478 290.5,159.5C 291.167,159.833 291.833,160.167 292.5,160.5C 291.817,163.461 290.984,163.795 290,161.5C 288.61,166.375 287.11,171.541 285.5,177C 285.578,181.686 285.744,186.519 286,191.5C 287.272,197.312 288.938,202.979 291,208.5C 292.585,209.376 293.585,210.709 294,212.5C 294.333,211.833 294.667,211.167 295,210.5C 299.023,215.733 303.523,220.4 308.5,224.5C 315.546,224.642 322.713,224.309 330,223.5C 330.388,224.428 331.055,225.095 332,225.5C 335.096,225.214 338.263,225.214 341.5,225.5C 341.842,226.338 342.508,226.672 343.5,226.5C 346.699,227.078 350.032,227.078 353.5,226.5C 355.713,227.279 358.213,227.279 361,226.5C 367.443,229.06 373.943,230.394 380.5,230.5C 383.167,231.106 385.834,231.939 388.5,233C 391.999,233.159 395.333,233.325 398.5,233.5C 398.842,234.338 399.508,234.672 400.5,234.5C 403.411,236.495 406.411,236.828 409.5,235.5C 411.173,237.086 413.173,237.753 415.5,237.5C 416.705,238.686 418.039,238.686 419.5,237.5C 419.611,238.117 419.944,238.617 420.5,239C 423.207,239.395 425.873,239.895 428.5,240.5C 432.647,242.439 436.98,243.106 441.5,242.5C 442.542,243.791 443.708,243.791 445,242.5C 447.567,244.305 450.401,245.638 453.5,246.5C 456.91,246.872 460.41,246.872 464,246.5C 465.062,248.795 466.562,249.461 468.5,248.5C 470.78,249.767 473.28,250.767 476,251.5C 477.011,251.108 477.511,250.441 477.5,249.5C 478.386,250.325 478.719,251.325 478.5,252.5C 481.146,252.892 483.646,252.892 486,252.5C 487.667,253.833 489.333,255.167 491,256.5C 492.779,255.521 494.445,255.854 496,257.5C 497.635,255.757 497.802,253.923 496.5,252C 499.229,249.751 499.896,247.084 498.5,244C 501.464,243.16 501.797,242.16 499.5,241C 500.167,240.667 500.833,240.333 501.5,240C 500.167,239.333 500.167,238.667 501.5,238C 502.738,238.077 503.738,237.911 504.5,237.5C 502.978,235.844 503.311,234.677 505.5,234C 505.888,232.475 505.888,230.808 505.5,229C 507.301,228.683 507.634,228.016 506.5,227C 508.658,225.688 508.991,224.022 507.5,222C 510.341,220.418 511.341,218.251 510.5,215.5C 511.09,214.201 512.09,213.368 513.5,213C 513.167,212.667 512.833,212.333 512.5,212C 514.679,211.558 515.345,210.558 514.5,209C 516.55,207.364 517.55,205.198 517.5,202.5C 519.946,201.608 520.612,200.108 519.5,198C 521.058,197.79 522.391,197.29 523.5,196.5C 525.243,193.222 526.91,189.889 528.5,186.5C 529.5,186.5 530.5,186.5 531.5,186.5C 531.5,185.5 531.5,184.5 531.5,183.5C 532.906,183.027 533.573,182.027 533.5,180.5C 534.833,179.833 535.833,178.833 536.5,177.5C 538.179,176 539.512,174.167 540.5,172C 541.899,171.405 543.232,171.572 544.5,172.5C 545.27,176.394 546.27,180.227 547.5,184C 545.513,187.232 545.18,190.565 546.5,194C 544.246,195.054 543.913,196.554 545.5,198.5C 544.926,200.059 544.26,201.559 543.5,203C 543.072,211.403 543.072,219.903 543.5,228.5C 542.5,229.333 541.5,230.167 540.5,231C 541.285,233.908 541.619,236.742 541.5,239.5C 539.411,241.595 539.411,243.428 541.5,245C 540.504,249.297 539.504,253.63 538.5,258C 538.833,259 539.167,260 539.5,261C 536.811,266.364 537.144,271.531 540.5,276.5C 546.432,280.945 551.766,285.778 556.5,291C 559.098,293.528 562.098,295.028 565.5,295.5C 564.761,295.369 564.094,295.536 563.5,296C 566.645,297.978 569.312,300.478 571.5,303.5C 572.325,304.386 573.325,304.719 574.5,304.5C 575.952,306.033 577.785,308.033 580,310.5C 580.464,309.906 580.631,309.239 580.5,308.5C 582.164,309.949 582.998,311.949 583,314.5C 583.333,314.167 583.667,313.833 584,313.5C 584.49,314.793 584.657,316.127 584.5,317.5C 585.5,317.5 586.5,317.5 587.5,317.5C 588.064,320.541 588.397,323.375 588.5,326C 587.874,326.75 587.374,327.584 587,328.5C 584.282,329.347 581.616,330.347 579,331.5C 578.667,330.833 578.333,330.167 578,329.5C 573.008,330.231 568.008,330.564 563,330.5C 558.253,327.544 553.087,325.877 547.5,325.5C 546.713,323.896 545.38,323.229 543.5,323.5C 540.298,322.138 537.298,320.304 534.5,318C 533.216,317.316 532.049,317.483 531,318.5C 529.191,314.95 526.524,313.283 523,313.5C 519.162,309.848 514.995,307.182 510.5,305.5C 510.167,304.167 509.833,304.167 509.5,305.5C 506.714,303.603 503.714,301.936 500.5,300.5C 499.18,302.27 497.68,302.603 496,301.5C 492.138,304.233 487.971,306.4 483.5,308C 477.203,314.939 470.537,320.439 463.5,324.5C 462.527,324.987 461.527,325.487 460.5,326C 461.711,326.893 461.711,327.726 460.5,328.5C 459.914,328.291 459.414,327.957 459,327.5C 456.274,329.188 453.441,330.688 450.5,332C 453.045,334.501 452.545,335.001 449,333.5C 446.258,335.432 443.758,337.432 441.5,339.5C 438.861,341.156 436.195,342.822 433.5,344.5C 435.113,345.427 436.779,346.261 438.5,347C 438.684,349.711 440.351,351.544 443.5,352.5C 443.5,353.167 443.833,353.5 444.5,353.5C 448.073,355.25 450.24,358.25 451,362.5C 451.333,361.833 451.667,361.167 452,360.5C 452.311,362.556 452.811,364.556 453.5,366.5C 452.965,368.271 452.131,368.604 451,367.5C 450.517,368.448 450.351,369.448 450.5,370.5C 447.445,371.524 444.445,372.857 441.5,374.5C 439.356,373.047 437.523,373.38 436,375.5C 433.679,372.788 431.345,372.455 429,374.5C 428.626,373.584 428.126,372.75 427.5,372C 424.748,371.788 422.248,370.955 420,369.5C 419.228,369.645 418.561,369.978 418,370.5C 414.913,368.901 412.413,366.234 410.5,362.5C 410.631,361.761 410.464,361.094 410,360.5C 408.883,360.264 407.716,360.264 406.5,360.5C 404.295,360.852 402.462,361.852 401,363.5C 400.667,363.167 400.333,362.833 400,362.5C 398.116,363.977 396.116,365.31 394,366.5C 392.333,366.5 390.667,366.5 389,366.5C 388.424,369.124 387.09,369.791 385,368.5C 380.561,370.457 376.728,373.124 373.5,376.5C 372.833,376.167 372.167,375.833 371.5,375.5C 366.672,377.905 361.672,379.571 356.5,380.5C 356.5,381.5 356.5,382.5 356.5,383.5C 355.167,383.5 353.833,383.5 352.5,383.5C 352.167,382.167 351.833,382.167 351.5,383.5C 326.892,390.608 301.558,397.442 275.5,404C 275.833,404.333 276.167,404.667 276.5,405C 272.517,405.23 271.851,406.563 274.5,409C 273.833,409.333 273.167,409.667 272.5,410C 273.479,412.403 274.979,413.236 277,412.5C 277.333,414.167 277.667,415.833 278,417.5C 279,418.833 280,418.833 281,417.5C 282.852,419.23 282.686,420.396 280.5,421C 284.076,423.679 287.076,426.846 289.5,430.5C 291.255,431.792 293.255,432.792 295.5,433.5C 295.533,434.989 296.033,436.322 297,437.5C 297.333,437.167 297.667,436.833 298,436.5C 303.007,440.841 308.007,445.174 313,449.5C 315.31,453.177 315.81,457.011 314.5,461C 312.899,461.273 311.399,461.773 310,462.5C 308.542,461.253 307.042,461.253 305.5,462.5C 301.472,460.28 297.472,458.947 293.5,458.5C 291.37,456.56 289.036,455.894 286.5,456.5C 286.027,455.094 285.027,454.427 283.5,454.5C 282.791,453.596 281.791,453.263 280.5,453.5C 276.686,450.28 272.686,447.614 268.5,445.5C 267.391,444.71 266.058,444.21 264.5,444C 265.167,443.667 265.833,443.333 266.5,443C 263.377,441.118 260.711,438.785 258.5,436C 257.551,435.383 256.718,435.549 256,436.5C 253.076,430.677 248.909,425.344 243.5,420.5C 243.672,419.508 243.338,418.842 242.5,418.5C 242.294,415.958 240.961,414.291 238.5,413.5C 234.898,413.017 231.398,413.684 228,415.5C 227.549,413.071 226.715,412.904 225.5,415C 221.283,414.223 217.283,414.723 213.5,416.5C 210.998,416.379 208.332,416.212 205.5,416C 205,415.5 204.5,415 204,414.5C 201.619,415.435 199.119,415.768 196.5,415.5C 196.167,414.167 195.833,414.167 195.5,415.5C 191.788,415.342 188.288,415.342 185,415.5C 183.959,413.689 182.793,413.355 181.5,414.5C 178.881,414.232 176.381,414.565 174,415.5C 173.395,413.519 172.395,413.185 171,414.5C 167.303,411.885 163.637,411.552 160,413.5C 159.685,410.853 158.518,410.187 156.5,411.5C 155.304,411.154 155.304,410.654 156.5,410C 154.782,409.654 153.115,409.154 151.5,408.5C 150.914,408.709 150.414,409.043 150,409.5C 149.29,408.027 148.124,407.36 146.5,407.5C 145.365,405.912 144.031,405.579 142.5,406.5C 139.491,406.144 137.157,405.144 135.5,403.5C 132.877,401.735 129.877,401.068 126.5,401.5C 126.25,400.078 125.417,399.078 124,398.5C 122.201,398.721 120.368,399.054 118.5,399.5C 118.15,397.433 116.483,396.433 113.5,396.5C 112.486,395.326 111.153,394.66 109.5,394.5C 108.458,393.209 107.292,393.209 106,394.5C 105.395,392.519 104.395,392.185 103,393.5C 102.167,392 101,390.833 99.5,390C 96.1161,389.242 93.1161,387.742 90.5,385.5C 89.9938,388.25 88.6605,388.084 86.5,385C 86.8333,384.667 87.1667,384.333 87.5,384C 85.1329,383.626 83.2995,382.459 82,380.5C 80.8382,381.187 79.6716,381.353 78.5,381C 78.9574,380.586 79.2907,380.086 79.5,379.5C 77.7127,378.684 76.0461,377.684 74.5,376.5C 73.8076,377.025 73.3076,377.692 73,378.5C 72.7073,376.075 71.5407,374.242 69.5,373C 64.6338,372.293 60.4671,369.793 57,365.5C 54.5179,366.269 52.6846,365.269 51.5,362.5C 45.5234,359.849 40.6901,356.516 37,352.5C 35.9399,352.254 34.7732,352.254 33.5,352.5C 31.877,350.46 30.2104,348.46 28.5,346.5C 28.5,345.833 28.1667,345.5 27.5,345.5C 25.7756,343.311 23.4422,342.144 20.5,342C 21.5,341.667 22.5,341.333 23.5,341C 21.9751,339.991 20.3084,339.491 18.5,339.5C 17.6713,336.531 17.5046,333.531 18,330.5C 20.6295,328.556 22.7961,326.223 24.5,323.5C 28.7818,319.908 33.7818,316.408 39.5,313C 41.1247,312.147 41.4581,311.147 40.5,310C 41.4491,309.383 42.2825,309.549 43,310.5C 43.9947,309.934 44.828,309.267 45.5,308.5C 46.9663,307.653 47.7996,306.32 48,304.5C 52.0493,304.611 55.0493,302.611 57,298.5C 57.3333,298.833 57.6667,299.167 58,299.5C 60.1156,298.257 62.2823,297.091 64.5,296C 63.5494,295.282 63.3828,294.449 64,293.5C 65.5026,293.835 66.836,293.835 68,293.5C 68.5,292.333 69.3333,291.5 70.5,291C 70.1667,290.667 69.8333,290.333 69.5,290C 76.9765,285.681 84.3098,281.181 91.5,276.5C 95.3108,273.75 98.9775,270.75 102.5,267.5C 106.792,266.351 110.459,264.185 113.5,261C 113.167,260.667 112.833,260.333 112.5,260C 114.447,260.536 116.447,260.202 118.5,259C 122.614,256.479 126.614,253.979 130.5,251.5C 137.923,248.466 145.59,245.966 153.5,244C 154.126,243.25 154.626,242.416 155,241.5C 155.561,242.022 156.228,242.355 157,242.5C 159.346,242.01 161.513,241.343 163.5,240.5C 169.155,240.122 174.821,238.955 180.5,237C 183.133,236.577 185.299,235.41 187,233.5C 187.674,234.578 188.674,235.245 190,235.5C 194.333,234.833 198.667,234.167 203,233.5C 205.345,235.189 207.178,234.689 208.5,232C 207.944,227.593 207.278,222.926 206.5,218C 207.567,210.453 209.734,202.619 213,194.5C 215.208,191.658 218.041,188.825 221.5,186C 220.167,184.16 220.334,183.66 222,184.5C 223.204,183.529 223.704,182.529 223.5,181.5C 224.086,181.709 224.586,182.043 225,182.5C 225.41,181.099 225.91,179.766 226.5,178.5C 230.105,175.9 233.438,172.9 236.5,169.5C 238.233,168.992 238.566,168.159 237.5,167C 238.448,166.517 239.448,166.351 240.5,166.5C 240.351,165.448 240.517,164.448 241,163.5C 241.333,163.833 241.667,164.167 242,164.5C 242.903,163.299 244.069,162.465 245.5,162C 244.549,161.282 244.383,160.449 245,159.5C 246.292,160.791 247.458,160.791 248.5,159.5C 251.711,155.861 255.711,153.361 260.5,152C 261.167,151 261.833,150 262.5,149C 269.657,146.045 276.991,143.712 284.5,142C 285.126,141.25 285.626,140.416 286,139.5C 288.33,141.032 290.33,140.698 292,138.5C 292.236,140.119 293.069,141.119 294.5,141.5 Z M 278.5,157.5 C 278.576,159.304 278.243,161.304 277.5,163.5C 274.795,163.38 274.128,164.38 275.5,166.5C 273.009,167.541 273.009,168.374 275.5,169C 274.833,170.667 274.167,172.333 273.5,174C 273.978,179.761 273.978,185.428 273.5,191C 275.379,196.061 276.879,201.228 278,206.5C 279.459,208.432 280.625,210.432 281.5,212.5C 282.64,213.801 283.973,214.968 285.5,216C 285.167,216.333 284.833,216.667 284.5,217C 286.233,218.189 287.9,219.356 289.5,220.5C 292.968,222.044 293.135,223.71 290,225.5C 288.397,225.129 286.897,224.795 285.5,224.5C 277.138,223.883 268.805,224.55 260.5,226.5C 259.228,226.43 258.062,226.097 257,225.5C 252.747,228.517 248.414,228.85 244,226.5C 242.333,227.167 240.667,227.833 239,228.5C 234.695,228.704 230.028,228.704 225,228.5C 220.58,232.709 217.08,232.209 214.5,227C 215.117,224.723 215.784,222.556 216.5,220.5C 216.511,218.983 217.177,217.816 218.5,217C 216.505,216.076 216.172,214.91 217.5,213.5C 219.723,210.025 221.556,205.692 223,200.5C 224.353,199.315 225.52,197.981 226.5,196.5C 227.425,195.359 228.259,195.359 229,196.5C 229.464,195.906 229.631,195.239 229.5,194.5C 231.048,194.179 231.715,193.179 231.5,191.5C 232.833,191.167 232.833,190.833 231.5,190.5C 232.189,189.226 233.023,189.226 234,190.5C 235.65,189.109 236.15,187.609 235.5,186C 238.167,184.333 240.833,182.667 243.5,181C 242.833,180.667 242.167,180.333 241.5,180C 242.833,179.667 244.167,179.333 245.5,179C 245.167,178.667 244.833,178.333 244.5,178C 245.5,177.667 246.5,177.333 247.5,177C 247.167,176.667 246.833,176.333 246.5,176C 248.833,175 251.167,174 253.5,173C 252.226,172.023 252.226,171.189 253.5,170.5C 254.585,168.418 256.085,168.084 258,169.5C 258.617,168.551 258.451,167.718 257.5,167C 259.167,166.667 260.833,166.333 262.5,166C 265.46,161.839 269.294,160.005 274,160.5C 274.483,159.552 274.649,158.552 274.5,157.5C 275.833,157.5 277.167,157.5 278.5,157.5 Z M 531.5,210.5 C 532.686,204.919 533.186,204.586 533,209.5C 532.617,210.056 532.117,210.389 531.5,210.5 Z M 529.5,239.5 C 529.33,240.822 529.663,241.989 530.5,243C 529.934,243.995 529.267,244.828 528.5,245.5C 527.763,248.238 527.763,250.905 528.5,253.5C 528.199,255.422 527.533,257.088 526.5,258.5C 525.68,260.614 525.347,262.614 525.5,264.5C 525.975,270.726 527.308,276.893 529.5,283C 531.406,285.359 533.406,287.526 535.5,289.5C 539.248,291.68 542.581,294.347 545.5,297.5C 551.767,301.348 557.434,306.182 562.5,312C 561.748,312.671 561.414,313.504 561.5,314.5C 559.064,314.683 556.897,314.016 555,312.5C 554.667,312.833 554.333,313.167 554,313.5C 552.581,312.54 551.081,311.707 549.5,311C 550.696,310.346 550.696,309.846 549.5,309.5C 548.808,310.025 548.308,310.692 548,311.5C 544.458,309.844 541.625,308.177 539.5,306.5C 538.07,305.463 536.403,304.796 534.5,304.5C 534.167,303.167 533.833,303.167 533.5,304.5C 532.265,304.279 531.265,303.612 530.5,302.5C 529.078,303.777 528.078,303.443 527.5,301.5C 520.634,300.067 514.634,297.067 509.5,292.5C 510.547,291.922 510.38,291.256 509,290.5C 508.601,290.728 508.435,291.062 508.5,291.5C 506.678,291.169 505.011,290.502 503.5,289.5C 502.828,288.733 501.995,288.066 501,287.5C 497.138,288.453 493.305,289.62 489.5,291C 490.167,291.333 490.833,291.667 491.5,292C 487.348,294.008 483.348,296.175 479.5,298.5C 478.101,299.89 476.434,300.89 474.5,301.5C 473.092,303.132 471.592,304.798 470,306.5C 467.871,305.137 467.371,305.471 468.5,307.5C 464.955,310.217 461.289,312.717 457.5,315C 456.216,315.684 455.049,315.517 454,314.5C 453.383,315.449 453.549,316.282 454.5,317C 447.661,318.843 441.827,322.343 437,327.5C 435.442,326.655 434.442,327.321 434,329.5C 432.334,328.66 432.167,329.16 433.5,331C 427.357,332.654 421.857,335.488 417,339.5C 414.679,338.639 413.513,339.639 413.5,342.5C 407.601,344.037 401.767,347.037 396,351.5C 395.667,351.167 395.333,350.833 395,350.5C 394.626,351.416 394.126,352.25 393.5,353C 387.394,354.36 381.894,356.86 377,360.5C 372.781,361.74 368.781,363.407 365,365.5C 361.526,364.072 361.026,364.572 363.5,367C 357.01,369.545 350.343,371.545 343.5,373C 332.597,377.887 320.93,381.554 308.5,384C 307.016,384.662 305.683,385.496 304.5,386.5C 302.777,387.807 300.943,387.807 299,386.5C 297.378,387.099 295.878,387.766 294.5,388.5C 292.97,389.067 291.47,389.733 290,390.5C 288.602,389.949 287.268,389.616 286,389.5C 285.221,390.728 284.221,391.728 283,392.5C 279.009,393.164 275.176,394.331 271.5,396C 271.833,396.333 272.167,396.667 272.5,397C 264.311,398.855 256.477,401.022 249,403.5C 235.25,402.999 222.084,402.999 209.5,403.5C 209.167,402.167 208.833,402.167 208.5,403.5C 203.292,404.387 198.126,404.72 193,404.5C 191.635,404.156 190.468,403.489 189.5,402.5C 185.904,403.114 182.237,403.447 178.5,403.5C 176.018,402.933 173.684,402.266 171.5,401.5C 168.001,401.367 164.334,401.2 160.5,401C 161.888,400.111 161.722,399.611 160,399.5C 158.351,400.898 157.018,400.564 156,398.5C 155.282,399.451 154.449,399.617 153.5,399C 154.696,398.346 154.696,397.846 153.5,397.5C 152.833,397.833 152.167,398.167 151.5,398.5C 148.427,397.167 145.427,395.834 142.5,394.5C 134.573,391.848 126.907,389.515 119.5,387.5C 119.167,386.167 118.833,386.167 118.5,387.5C 116.202,386.69 113.868,385.856 111.5,385C 124.242,381.609 136.909,378.275 149.5,375C 147.436,373.982 147.102,372.649 148.5,371C 147.202,367.795 144.868,366.795 141.5,368C 128.496,371.717 115.496,375.217 102.5,378.5C 99.9278,377.839 97.2611,377.673 94.5,378C 89.2991,375.37 84.7991,372.537 81,369.5C 79.687,370.287 78.5203,369.954 77.5,368.5C 79.7929,367.699 79.4596,367.032 76.5,366.5C 76.5,366.833 76.5,367.167 76.5,367.5C 74.5891,367.426 73.4224,366.426 73,364.5C 72.6667,364.833 72.3333,365.167 72,365.5C 71.6667,364.5 71.3333,363.5 71,362.5C 70.0228,363.774 69.1894,363.774 68.5,362.5C 66.5034,361.192 64.5034,359.859 62.5,358.5C 61.5084,358.672 60.8417,358.338 60.5,357.5C 59.0689,357.119 58.2355,356.119 58,354.5C 57.6121,355.428 56.9454,356.095 56,356.5C 54.6,354.604 52.7666,353.271 50.5,352.5C 49.9984,351.284 49.6651,350.117 49.5,349C 48.5632,348.308 47.8966,348.475 47.5,349.5C 46.3523,350.895 45.3523,350.728 44.5,349C 45.1667,348.667 45.8333,348.333 46.5,348C 44.6854,347.243 43.0188,346.41 41.5,345.5C 38.6393,343.992 36.306,341.826 34.5,339C 33.1667,339 31.8333,339 30.5,339C 30.8333,338.667 31.1667,338.333 31.5,338C 29.5448,337.047 27.8782,335.713 26.5,334C 29.4464,330.874 32.7797,328.374 36.5,326.5C 40.8921,323.541 45.0588,320.207 49,316.5C 49.8732,316.735 50.7065,317.069 51.5,317.5C 52.3886,315.993 53.3886,314.66 54.5,313.5C 55.6741,311.559 57.3408,310.059 59.5,309C 60.4491,308.383 61.2825,308.549 62,309.5C 63.9993,308.169 65.8326,306.335 67.5,304C 75.8022,300.151 82.4689,295.984 87.5,291.5C 89.0777,290.702 90.7444,290.202 92.5,290C 92.0426,289.586 91.7093,289.086 91.5,288.5C 92.8518,287.476 94.1851,286.476 95.5,285.5C 98.5674,283.786 101.567,281.786 104.5,279.5C 106.99,277.917 109.657,276.917 112.5,276.5C 112.351,275.448 112.517,274.448 113,273.5C 114.131,274.604 114.965,274.271 115.5,272.5C 116.689,271.571 118.022,271.238 119.5,271.5C 121.388,269.731 123.721,268.398 126.5,267.5C 128.529,268.629 128.863,268.129 127.5,266C 132.249,264.791 136.582,262.791 140.5,260C 144.53,258.935 148.53,257.768 152.5,256.5C 153.442,256.608 154.275,256.941 155,257.5C 157.366,255.4 160.033,253.734 163,252.5C 164.016,253.634 164.683,253.301 165,251.5C 168.651,251.945 172.318,251.278 176,249.5C 177.646,251.141 178.646,250.807 179,248.5C 182.702,247.819 186.535,247.819 190.5,248.5C 192.949,248.02 195.115,247.02 197,245.5C 203.604,246.431 210.27,246.431 217,245.5C 218.324,244.12 219.657,243.786 221,244.5C 225.308,243.969 229.474,242.969 233.5,241.5C 237.793,241.569 241.96,241.902 246,242.5C 249.139,241.921 252.139,240.921 255,239.5C 258.428,239.407 261.595,239.741 264.5,240.5C 265.833,239.833 267.167,239.167 268.5,238.5C 277.104,239.294 285.437,239.294 293.5,238.5C 305.072,239.405 316.738,239.405 328.5,238.5C 331.748,238.901 334.915,239.568 338,240.5C 339.482,238.219 341.149,238.219 343,240.5C 345.333,240.167 347.667,239.833 350,239.5C 353.091,240.541 355.925,241.208 358.5,241.5C 360.675,241.605 362.842,241.605 365,241.5C 367.902,243.211 370.902,243.544 374,242.5C 377.197,243.309 380.363,244.309 383.5,245.5C 384.167,245.167 384.833,244.833 385.5,244.5C 389.731,245.974 394.064,246.974 398.5,247.5C 398.833,248.833 399.167,248.833 399.5,247.5C 402.5,248.167 405.5,248.833 408.5,249.5C 410.5,249.833 412.5,250.167 414.5,250.5C 419.763,251.159 424.43,252.493 428.5,254.5C 429.967,254.277 431.467,253.944 433,253.5C 441.768,256.288 450.601,258.955 459.5,261.5C 461.809,260.067 463.309,260.734 464,263.5C 465.667,262.833 467.333,262.167 469,261.5C 474.01,264.669 479.51,266.336 485.5,266.5C 485.351,267.552 485.517,268.552 486,269.5C 487.292,268.209 488.458,268.209 489.5,269.5C 491.144,269.714 492.644,269.38 494,268.5C 494.308,269.308 494.808,269.975 495.5,270.5C 498.105,269.964 500.772,269.798 503.5,270C 506.109,267.929 508.109,265.429 509.5,262.5C 509.603,259.364 510.603,256.698 512.5,254.5C 512.259,252.102 512.926,250.102 514.5,248.5C 516.108,245.765 516.775,243.098 516.5,240.5C 516.328,239.508 516.662,238.842 517.5,238.5C 517.81,239.738 518.31,239.738 519,238.5C 519.692,237.563 519.525,236.897 518.5,236.5C 518.433,233.517 519.433,231.85 521.5,231.5C 520.26,227.22 521.26,223.553 524.5,220.5C 525.398,219.842 526.398,219.176 527.5,218.5C 527.291,217.914 526.957,217.414 526.5,217C 527.823,216.184 528.489,215.017 528.5,213.5C 531.106,211.912 532.44,212.745 532.5,216C 531.14,221.254 530.64,226.42 531,231.5C 530.625,234 529.792,236.333 528.5,238.5C 528.624,239.107 528.957,239.44 529.5,239.5 Z M 104.5,293.5 C 105.719,291.699 107.552,290.699 110,290.5C 112.036,291.4 113.869,291.733 115.5,291.5C 112.015,293.094 108.348,293.76 104.5,293.5 Z M 564.5,314.5 C 563.833,314.5 563.5,314.833 563.5,315.5C 562.508,315.672 561.842,315.338 561.5,314.5C 562.652,313.375 563.652,313.375 564.5,314.5 Z M 114.5,333.5 C 116.028,333.517 116.528,334.184 116,335.5C 115.283,334.956 114.783,334.289 114.5,333.5 Z M 424.5,352.5 C 425.591,354.745 427.258,356.578 429.5,358C 426.888,357.901 424.221,357.568 421.5,357C 422.412,355.375 421.745,354.541 419.5,354.5C 420.458,353.038 421.624,351.705 423,350.5C 423.717,351.044 424.217,351.711 424.5,352.5 Z M 283.5,441.5 C 280.598,440.299 278.431,438.299 277,435.5C 276.667,435.833 276.333,436.167 276,436.5C 275.395,434.519 274.395,434.185 273,435.5C 272.005,434.934 271.172,434.267 270.5,433.5C 271.043,433.44 271.376,433.107 271.5,432.5C 270.743,431.227 270.077,431.227 269.5,432.5C 266.57,429.277 263.237,426.61 259.5,424.5C 260.239,424.631 260.906,424.464 261.5,424C 260.069,423.535 258.903,422.701 258,421.5C 257.601,421.728 257.435,422.062 257.5,422.5C 256.167,421.833 255.167,420.833 254.5,419.5C 254.938,419.565 255.272,419.399 255.5,419C 254.667,418.167 253.833,417.333 253,416.5C 252.601,416.728 252.435,417.062 252.5,417.5C 250.076,415.772 249.91,413.772 252,411.5C 252.333,411.833 252.667,412.167 253,412.5C 255.861,411.079 258.861,410.079 262,409.5C 267.114,416.171 271.78,423.171 276,430.5C 278.806,433.306 281.64,436.14 284.5,439C 283.748,439.671 283.414,440.504 283.5,441.5 Z M 286.5,442.5 C 285.209,442.737 284.209,442.404 283.5,441.5C 284.895,440.185 285.895,440.519 286.5,442.5 Z"/></g>
<g><path style="opacity:0.004" fill="#000000" d="M 294.5,140.5 C 295.833,141.167 295.833,141.167 294.5,140.5 Z"/></g>
<g><path style="opacity:0.004" fill="#000000" d="M 293.5,155.5 C 293.833,155.5 294.167,155.5 294.5,155.5C 294.315,156.17 293.981,156.17 293.5,155.5 Z"/></g>
<g><path style="opacity:0.004" fill="#000000" d="M 292.5,157.5 C 293.833,158.167 293.833,158.167 292.5,157.5 Z"/></g>
<g><path style="opacity:0.004" fill="#000000" d="M 248.5,159.5 C 247.833,158.167 247.833,158.167 248.5,159.5 Z"/></g>
<g><path style="opacity:0.008" fill="#000000" d="M 236.5,169.5 C 235.833,168.167 235.833,168.167 236.5,169.5 Z"/></g>
<g><path style="opacity:0.004" fill="#000000" d="M 287.5,173.5 C 288.833,174.167 288.833,174.167 287.5,173.5 Z"/></g>
<g><path style="opacity:0.008" fill="#000000" d="M 286.5,176.5 C 287.833,177.167 287.833,177.167 286.5,176.5 Z"/></g>
<g><path style="opacity:0.004" fill="#000000" d="M 534.5,177.5 C 535.167,176.167 535.833,176.167 536.5,177.5C 535.833,177.5 535.167,177.5 534.5,177.5 Z"/></g>
<g><path style="opacity:0.004" fill="#000000" d="M 226.5,178.5 C 225.833,177.167 225.833,177.167 226.5,178.5 Z"/></g>
<g><path style="opacity:0.004" fill="#000000" d="M 534.5,177.5 C 533.833,178.167 533.833,178.167 534.5,177.5 Z"/></g>
<g><path style="opacity:0.005" fill="#000000" d="M 533.5,180.5 C 532.637,181.463 531.97,181.463 531.5,180.5C 532.257,179.227 532.923,179.227 533.5,180.5 Z"/></g>
<g><path style="opacity:0.006" fill="#000000" d="M 531.5,183.5 C 530.761,183.631 530.094,183.464 529.5,183C 530.437,182.308 531.103,182.475 531.5,183.5 Z"/></g>
<g><path style="opacity:0.004" fill="#000000" d="M 286.5,183.5 C 287.833,184.167 287.833,184.167 286.5,183.5 Z"/></g>
<g><path style="opacity:0.004" fill="#000000" d="M 528.5,186.5 C 527.833,185.167 527.833,185.167 528.5,186.5 Z"/></g>
<g><path style="opacity:0.004" fill="#000000" d="M 522.5,191.5 C 523.833,192.167 523.833,192.167 522.5,191.5 Z"/></g>
<g><path style="opacity:0.004" fill="#000000" d="M 523.5,196.5 C 519.757,196.541 519.59,195.874 523,194.5C 523.464,195.094 523.631,195.761 523.5,196.5 Z"/></g>
<g><path style="opacity:0.004" fill="#000000" d="M 517.5,202.5 C 516.833,201.167 516.833,201.167 517.5,202.5 Z"/></g>
<g><path style="opacity:0.004" fill="#000000" d="M 217.5,213.5 C 219.892,212.632 220.059,213.299 218,215.5C 217.536,214.906 217.369,214.239 217.5,213.5 Z"/></g>
<g><path style="opacity:0.004" fill="#000000" d="M 289.5,220.5 C 289.489,223.001 288.822,223.168 287.5,221C 288.094,220.536 288.761,220.369 289.5,220.5 Z"/></g>
<g><path style="opacity:0.004" fill="#000000" d="M 341.5,224.5 C 342.833,225.167 342.833,225.167 341.5,224.5 Z"/></g>
<g><path style="opacity:0.004" fill="#000000" d="M 343.5,225.5 C 344.833,226.167 344.833,226.167 343.5,225.5 Z"/></g>
<g><path style="opacity:0.004" fill="#000000" d="M 353.5,225.5 C 354.833,226.167 354.833,226.167 353.5,225.5 Z"/></g>
<g><path style="opacity:0.004" fill="#000000" d="M 380.5,229.5 C 381.833,230.167 381.833,230.167 380.5,229.5 Z"/></g>
<g><path style="opacity:0.004" fill="#000000" d="M 389.5,230.5 C 390.525,230.897 390.692,231.563 390,232.5C 389.536,231.906 389.369,231.239 389.5,230.5 Z"/></g>
<g><path style="opacity:0.004" fill="#000000" d="M 205.5,231.5 C 206.833,232.167 206.833,232.167 205.5,231.5 Z"/></g>
<g><path style="opacity:0.006" fill="#000000" d="M 391.5,232.5 C 391.897,231.475 392.563,231.308 393.5,232C 392.906,232.464 392.239,232.631 391.5,232.5 Z"/></g>
<g><path style="opacity:0.004" fill="#000000" d="M 398.5,232.5 C 399.833,233.167 399.833,233.167 398.5,232.5 Z"/></g>
<g><path style="opacity:0.004" fill="#000000" d="M 400.5,233.5 C 401.833,234.167 401.833,234.167 400.5,233.5 Z"/></g>
<g><path style="opacity:0.004" fill="#000000" d="M 404.5,233.5 C 405.833,234.167 405.833,234.167 404.5,233.5 Z"/></g>
<g><path style="opacity:0.004" fill="#000000" d="M 412.5,235.5 C 413.833,236.167 413.833,236.167 412.5,235.5 Z"/></g>
<g><path style="opacity:0.004" fill="#000000" d="M 415.5,236.5 C 416.833,237.167 416.833,237.167 415.5,236.5 Z"/></g>
<g><path style="opacity:0.004" fill="#000000" d="M 419.5,236.5 C 420.833,237.167 420.833,237.167 419.5,236.5 Z"/></g>
<g><path style="opacity:0.004" fill="#000000" d="M 423.5,238.5 C 423.897,237.475 424.563,237.308 425.5,238C 424.906,238.464 424.239,238.631 423.5,238.5 Z"/></g>
<g><path style="opacity:0.004" fill="#000000" d="M 165.5,238.5 C 166.833,239.167 166.833,239.167 165.5,238.5 Z"/></g>
<g><path style="opacity:0.004" fill="#000000" d="M 163.5,240.5 C 162.761,240.631 162.094,240.464 161.5,240C 162.437,239.308 163.103,239.475 163.5,240.5 Z"/></g>
<g><path style="opacity:0.004" fill="#000000" d="M 428.5,239.5 C 429.833,240.167 429.833,240.167 428.5,239.5 Z"/></g>
<g><path style="opacity:0.004" fill="#000000" d="M 441.5,241.5 C 442.833,242.167 442.833,242.167 441.5,241.5 Z"/></g>
<g><path style="opacity:0.004" fill="#000000" d="M 449.5,242.5 C 450.833,243.167 450.833,243.167 449.5,242.5 Z"/></g>
<g><path style="opacity:0.004" fill="#000000" d="M 452.5,244.5 C 452.897,243.475 453.563,243.308 454.5,244C 453.906,244.464 453.239,244.631 452.5,244.5 Z"/></g>
<g><path style="opacity:0.004" fill="#000000" d="M 460.5,246.5 C 460.897,245.475 461.563,245.308 462.5,246C 461.906,246.464 461.239,246.631 460.5,246.5 Z"/></g>
<g><path style="opacity:0.004" fill="#000000" d="M 466.5,246.5 C 467.833,247.167 467.833,247.167 466.5,246.5 Z"/></g>
<g><path style="opacity:0.004" fill="#000000" d="M 468.5,247.5 C 469.833,248.167 469.833,248.167 468.5,247.5 Z"/></g>
<g><path style="opacity:0.004" fill="#000000" d="M 473.5,248.5 C 474.833,249.167 474.833,249.167 473.5,248.5 Z"/></g>
<g><path style="opacity:0.004" fill="#000000" d="M 130.5,251.5 C 129.833,250.167 129.833,250.167 130.5,251.5 Z"/></g>
<g><path style="opacity:0.004" fill="#000000" d="M 488.5,253.5 C 488.897,252.475 489.563,252.308 490.5,253C 489.906,253.464 489.239,253.631 488.5,253.5 Z"/></g>
<g><path style="opacity:0.004" fill="#000000" d="M 117.5,256.5 C 118.833,257.167 118.833,257.167 117.5,256.5 Z"/></g>
<g><path style="opacity:0.267" fill="#000000" d="M 119.5,301.5 C 115.475,298.884 111.475,299.05 107.5,302C 108.167,302.333 108.833,302.667 109.5,303C 107.881,303.236 106.881,304.069 106.5,305.5C 105.113,307.877 104.279,310.543 104,313.5C 102.951,314.517 101.784,314.684 100.5,314C 99.6766,311.241 99.0099,308.407 98.5,305.5C 100.376,304.01 101.043,302.343 100.5,300.5C 100.328,299.508 100.662,298.842 101.5,298.5C 101.833,299.833 102.167,299.833 102.5,298.5C 103.186,297.152 104.186,295.985 105.5,295C 104.944,294.617 104.611,294.117 104.5,293.5C 102.099,294.049 99.7654,294.882 97.5,296C 92.9746,300.903 90.3079,306.403 89.5,312.5C 90.3677,315.066 91.3677,317.566 92.5,320C 91.8903,321.947 91.0569,323.781 90,325.5C 87.4252,323.353 85.5919,320.686 84.5,317.5C 84.76,314.89 84.76,312.39 84.5,310C 90.3777,297.409 99.8777,289.909 113,287.5C 116.676,289.787 120.51,290.954 124.5,291C 125.167,291.333 125.833,291.667 126.5,292C 125.09,292.368 124.09,293.201 123.5,294.5C 124.906,296.026 126.072,297.693 127,299.5C 127.667,300.5 127.667,301.5 127,302.5C 124.568,303.293 122.234,303.626 120,303.5C 119.536,302.906 119.369,302.239 119.5,301.5 Z M 104.5,293.5 C 108.348,293.76 112.015,293.094 115.5,291.5C 113.869,291.733 112.036,291.4 110,290.5C 107.552,290.699 105.719,291.699 104.5,293.5 Z"/></g>
<g><path style="opacity:0.004" fill="#000000" d="M 557.5,289.5 C 558.833,290.167 558.833,290.167 557.5,289.5 Z"/></g>
<g><path style="opacity:0.004" fill="#000000" d="M 560.5,291.5 C 561.833,292.167 561.833,292.167 560.5,291.5 Z"/></g>
<g><path style="opacity:0.004" fill="#000000" d="M 129.5,294.5 C 135.206,294.517 136.539,296.85 133.5,301.5C 132.021,299.289 130.688,296.956 129.5,294.5 Z"/></g>
<g><path style="opacity:0.005" fill="#000000" d="M 525.5,294.5 C 528.475,294.713 531.142,295.713 533.5,297.5C 529.47,300.506 526.803,299.506 525.5,294.5 Z"/></g>
<g><path style="opacity:0.004" fill="#000000" d="M 565.5,295.5 C 566.833,296.167 566.833,296.167 565.5,295.5 Z"/></g>
<g><path style="opacity:0.004" fill="#000000" d="M 59.5,296.5 C 60.8333,297.167 60.8333,297.167 59.5,296.5 Z"/></g>
<g><path style="opacity:0.004" fill="#000000" d="M 571.5,300.5 C 572.833,301.167 572.833,301.167 571.5,300.5 Z"/></g>
<g><path style="opacity:0.004" fill="#000000" d="M 574.5,304.5 C 574.369,303.761 574.536,303.094 575,302.5C 575.692,303.437 575.525,304.103 574.5,304.5 Z"/></g>
<g><path style="opacity:0.004" fill="#000000" d="M 509.5,305.5 C 509.833,305.5 510.167,305.5 510.5,305.5C 510.315,306.17 509.981,306.17 509.5,305.5 Z"/></g>
<g><path style="opacity:0.004" fill="#000000" d="M 45.5,308.5 C 44.8333,307.167 44.8333,307.167 45.5,308.5 Z"/></g>
<g><path style="opacity:0.004" fill="#000000" d="M 580.5,308.5 C 579.833,307.167 579.833,307.167 580.5,308.5 Z"/></g>
<g><path style="opacity:0.555" fill="#000000" d="M 122.5,338.5 C 121.791,337.596 120.791,337.263 119.5,337.5C 117.034,338.634 114.367,338.801 111.5,338C 108.033,334.566 106.033,330.399 105.5,325.5C 105.981,322.686 107.648,321.352 110.5,321.5C 110.351,322.552 110.517,323.552 111,324.5C 111.315,321.628 111.815,318.795 112.5,316C 112.836,314.97 113.503,314.47 114.5,314.5C 114.369,313.761 114.536,313.094 115,312.5C 117.543,312.635 120.21,313.302 123,314.5C 124.011,313.663 125.178,313.33 126.5,313.5C 126.22,316.388 127.553,317.888 130.5,318C 130.043,318.414 129.709,318.914 129.5,319.5C 130.972,322.149 131.972,324.982 132.5,328C 131.379,330.665 130.712,333.165 130.5,335.5C 128.204,337.552 125.537,338.552 122.5,338.5 Z M 114.5,333.5 C 114.783,334.289 115.283,334.956 116,335.5C 116.528,334.184 116.028,333.517 114.5,333.5 Z"/></g>
<g><path style="opacity:0.004" fill="#000000" d="M 25.5,320.5 C 26.8333,321.167 26.8333,321.167 25.5,320.5 Z"/></g>
<g><path style="opacity:0.004" fill="#000000" d="M 24.5,323.5 C 23.8333,322.167 23.8333,322.167 24.5,323.5 Z"/></g>
<g><path style="opacity:0.004" fill="#000000" d="M 543.5,323.5 C 543.103,324.525 542.437,324.692 541.5,324C 542.094,323.536 542.761,323.369 543.5,323.5 Z"/></g>
<g><path style="opacity:0.005" fill="#000000" d="M 463.5,324.5 C 464.289,324.783 464.956,325.283 465.5,326C 464.184,326.528 463.517,326.028 463.5,324.5 Z"/></g>
<g><path style="opacity:0.004" fill="#000000" d="M 547.5,325.5 C 546.833,326.167 546.833,326.167 547.5,325.5 Z"/></g>
<g><path style="opacity:0.004" fill="#000000" d="M 558.5,329.5 C 559.833,330.167 559.833,330.167 558.5,329.5 Z"/></g>
<g><path style="opacity:0.004" fill="#000000" d="M 15.5,331.5 C 16.8333,332.167 16.8333,332.167 15.5,331.5 Z"/></g>
<g><path style="opacity:0.004" fill="#000000" d="M 448.5,334.5 C 449.833,335.167 449.833,335.167 448.5,334.5 Z"/></g>
<g><path style="opacity:0.004" fill="#000000" d="M 18.5,339.5 C 17.8333,340.167 17.8333,340.167 18.5,339.5 Z"/></g>
<g><path style="opacity:0.004" fill="#000000" d="M 441.5,339.5 C 443.646,339.696 443.812,340.696 442,342.5C 441.517,341.552 441.351,340.552 441.5,339.5 Z"/></g>
<g><path style="opacity:0.004" fill="#000000" d="M 27.5,345.5 C 28.1667,345.5 28.5,345.833 28.5,346.5C 27.3416,349.134 26.3416,348.967 25.5,346C 26.0944,345.536 26.7611,345.369 27.5,345.5 Z"/></g>
<g><path style="opacity:0.004" fill="#000000" d="M 441.5,349.5 C 440.833,348.167 440.833,348.167 441.5,349.5 Z"/></g>
<g><path style="opacity:0.004" fill="#000000" d="M 441.5,349.5 C 442.833,350.167 442.833,350.167 441.5,349.5 Z"/></g>
<g><path style="opacity:0.004" fill="#000000" d="M 444.5,353.5 C 443.833,353.5 443.5,353.167 443.5,352.5C 443.612,348.661 444.279,348.661 445.5,352.5C 445.376,353.107 445.043,353.44 444.5,353.5 Z"/></g>
<g><path style="opacity:0.004" fill="#000000" d="M 449.5,355.5 C 450.833,356.167 450.833,356.167 449.5,355.5 Z"/></g>
<g><path style="opacity:0.004" fill="#000000" d="M 62.5,358.5 C 62.7828,357.711 63.2828,357.044 64,356.5C 64.5281,357.816 64.0281,358.483 62.5,358.5 Z"/></g>
<g><path style="opacity:0.004" fill="#000000" d="M 406.5,360.5 C 407.833,361.167 407.833,361.167 406.5,360.5 Z"/></g>
<g><path style="opacity:0.004" fill="#000000" d="M 410.5,362.5 C 409.833,363.167 409.833,363.167 410.5,362.5 Z"/></g>
<g><path style="opacity:0.004" fill="#000000" d="M 76.5,367.5 C 76.5,367.167 76.5,366.833 76.5,366.5C 79.4596,367.032 79.7929,367.699 77.5,368.5C 77.5,367.833 77.1667,367.5 76.5,367.5 Z"/></g>
<g><path style="opacity:0.004" fill="#000000" d="M 351.5,383.5 C 351.833,383.5 352.167,383.5 352.5,383.5C 352.315,384.17 351.981,384.17 351.5,383.5 Z"/></g>
<g><path style="opacity:0.004" fill="#000000" d="M 304.5,386.5 C 301.999,386.489 301.832,385.822 304,384.5C 304.464,385.094 304.631,385.761 304.5,386.5 Z"/></g>
<g><path style="opacity:0.004" fill="#000000" d="M 109.5,394.5 C 108.833,395.167 108.833,395.167 109.5,394.5 Z"/></g>
<g><path style="opacity:0.004" fill="#000000" d="M 113.5,396.5 C 112.833,397.167 112.833,397.167 113.5,396.5 Z"/></g>
<g><path style="opacity:0.008" fill="#000000" d="M 123.5,400.5 C 124.833,401.167 124.833,401.167 123.5,400.5 Z"/></g>
<g><path style="opacity:0.008" fill="#000000" d="M 288.5,401.5 C 288.897,400.475 289.563,400.308 290.5,401C 289.906,401.464 289.239,401.631 288.5,401.5 Z"/></g>
<g><path style="opacity:0.004" fill="#000000" d="M 126.5,401.5 C 125.833,402.167 125.833,402.167 126.5,401.5 Z"/></g>
<g><path style="opacity:0.004" fill="#000000" d="M 135.5,403.5 C 136.463,404.363 136.463,405.03 135.5,405.5C 134.227,404.743 134.227,404.077 135.5,403.5 Z"/></g>
<g><path style="opacity:0.004" fill="#000000" d="M 146.5,407.5 C 145.833,408.167 145.833,408.167 146.5,407.5 Z"/></g>
<g><path style="opacity:0.004" fill="#000000" d="M 181.5,414.5 C 182.833,415.167 182.833,415.167 181.5,414.5 Z"/></g>
<g><path style="opacity:0.004" fill="#000000" d="M 195.5,415.5 C 195.833,415.5 196.167,415.5 196.5,415.5C 196.315,416.17 195.981,416.17 195.5,415.5 Z"/></g>
<g><path style="opacity:0.004" fill="#000000" d="M 242.5,418.5 C 241.833,419.167 241.833,419.167 242.5,418.5 Z"/></g>
<g><path style="opacity:0.004" fill="#000000" d="M 243.5,420.5 C 242.833,421.167 242.833,421.167 243.5,420.5 Z"/></g>
<g><path style="opacity:0.004" fill="#000000" d="M 289.5,428.5 C 288.833,427.167 288.833,427.167 289.5,428.5 Z"/></g>
<g><path style="opacity:0.006" fill="#000000" d="M 289.5,428.5 C 290.833,429.167 290.833,429.833 289.5,430.5C 289.5,429.833 289.5,429.167 289.5,428.5 Z"/></g>
<g><path style="opacity:0.004" fill="#000000" d="M 226.5,429.5 C 228.736,432.759 228.57,436.092 226,439.5C 224.257,437.679 222.757,435.679 221.5,433.5C 222.654,431.435 224.32,430.102 226.5,429.5 Z"/></g>
<g><path style="opacity:0.004" fill="#000000" d="M 292.5,430.5 C 293.833,431.167 293.833,431.167 292.5,430.5 Z"/></g>
<g><path style="opacity:0.004" fill="#000000" d="M 269.5,432.5 C 270.077,431.227 270.743,431.227 271.5,432.5C 271.376,433.107 271.043,433.44 270.5,433.5C 270.5,432.833 270.167,432.5 269.5,432.5 Z"/></g>
<g><path style="opacity:0.004" fill="#000000" d="M 268.5,445.5 C 267.833,446.167 267.833,446.167 268.5,445.5 Z"/></g>
<g><path style="opacity:0.004" fill="#000000" d="M 247.5,450.5 C 250.315,453.286 249.815,455.619 246,457.5C 245.5,457 245,456.5 244.5,456C 246.607,454.736 247.607,452.903 247.5,450.5 Z"/></g>
<g><path style="opacity:0.004" fill="#000000" d="M 280.5,453.5 C 279.833,454.167 279.833,454.167 280.5,453.5 Z"/></g>
<g><path style="opacity:0.004" fill="#000000" d="M 283.5,454.5 C 283.5,454.833 283.5,455.167 283.5,455.5C 282.83,455.019 282.83,454.685 283.5,454.5 Z"/></g>
<g><path style="opacity:0.004" fill="#000000" d="M 283.5,455.5 C 284.833,456.167 284.833,456.167 283.5,455.5 Z"/></g>
<g><path style="opacity:0.004" fill="#000000" d="M 286.5,456.5 C 285.833,457.167 285.833,457.167 286.5,456.5 Z"/></g>
<g><path style="opacity:0.008" fill="#000000" d="M 293.5,458.5 C 293.5,458.833 293.5,459.167 293.5,459.5C 292.83,459.019 292.83,458.685 293.5,458.5 Z"/></g>
<g><path style="opacity:0.004" fill="#000000" d="M 293.5,459.5 C 294.833,460.167 294.833,460.167 293.5,459.5 Z"/></g>
</svg>
