<?xml version="1.0" encoding="UTF-8"?>
<!DOCTYPE svg PUBLIC "-//W3C//DTD SVG 1.1//EN" "http://www.w3.org/Graphics/SVG/1.1/DTD/svg11.dtd">
<svg xmlns="http://www.w3.org/2000/svg" version="1.1" width="611px" height="611px" style="shape-rendering:geometricPrecision; text-rendering:geometricPrecision; image-rendering:optimizeQuality; fill-rule:evenodd; clip-rule:evenodd" xmlns:xlink="http://www.w3.org/1999/xlink">
<g><path style="opacity:0.787" fill="#000000" d="M 247.5,170.5 C 255.107,170.697 262.774,171.53 270.5,173C 273.614,175.89 277.28,177.724 281.5,178.5C 298.798,170.925 315.798,172.091 332.5,182C 337.359,186.27 342.025,190.77 346.5,195.5C 357.241,192.733 367.574,193.899 377.5,199C 381.667,201.833 385.167,205.333 388,209.5C 389.111,214.201 390.611,218.701 392.5,223C 414.161,226.045 424.495,238.212 423.5,259.5C 434.933,259.074 443.933,263.407 450.5,272.5C 456.611,284.866 457.778,297.866 454,311.5C 445.899,334.101 434.733,354.767 420.5,373.5C 404.363,391.465 385.697,406.298 364.5,418C 371.525,423.215 376.192,430.048 378.5,438.5C 379.978,438.238 381.311,438.571 382.5,439.5C 380.921,442.305 379.254,445.138 377.5,448C 369.449,452.806 360.949,455.639 352,456.5C 310.425,465.772 269.258,466.938 228.5,460C 215.981,458.92 204.314,455.42 193.5,449.5C 184.117,443.191 182.283,435.191 188,425.5C 190.557,422.608 192.724,419.441 194.5,416C 171.894,404.024 150.561,390.024 130.5,374C 124.699,367.198 118.532,360.698 112,354.5C 105.383,343.372 101.216,331.372 99.5,318.5C 102.522,296.003 113.188,278.17 131.5,265C 133.025,263.991 134.692,263.491 136.5,263.5C 138.307,241.397 148.307,223.563 166.5,210C 176.518,204.327 187.185,201.827 198.5,202.5C 210.917,184.952 227.25,174.285 247.5,170.5 Z M 255.5,179.5 C 264.731,180.198 272.897,183.531 280,189.5C 283,198.167 286,206.833 289,215.5C 289.827,216.662 290.66,217.829 291.5,219C 297.822,239.437 301.822,260.27 303.5,281.5C 306.749,301.431 305.915,321.098 301,340.5C 298.083,350.683 295.583,360.683 293.5,370.5C 293.866,372.84 295.033,374.507 297,375.5C 299.621,372.737 301.954,369.737 304,366.5C 316.676,330.097 317.843,293.597 307.5,257C 304.666,234.863 298.166,213.696 288,193.5C 287.502,190.518 287.335,187.518 287.5,184.5C 302.433,180.716 316.433,183.216 329.5,192C 331.802,194.792 333.969,197.625 336,200.5C 338.488,201.647 340.488,203.314 342,205.5C 342.211,214.445 343.044,223.278 344.5,232C 344.47,252.849 344.47,273.683 344.5,294.5C 342.471,315.963 338.471,337.297 332.5,358.5C 332.987,359.446 333.32,360.446 333.5,361.5C 332.021,366.603 330.354,371.603 328.5,376.5C 331.887,374.488 334.387,371.488 336,367.5C 341.374,363.056 344.707,357.39 346,350.5C 348.293,341.315 350.293,331.982 352,322.5C 352.713,313.322 353.546,304.156 354.5,295C 353.398,284.899 353.398,274.565 354.5,264C 353.979,256.265 353.313,248.598 352.5,241C 353.019,238.974 353.353,236.974 353.5,235C 352.072,224.012 350.739,213.012 349.5,202C 357.935,201.12 365.935,202.62 373.5,206.5C 380.504,212.093 383.671,219.426 383,228.5C 384.02,229.891 384.853,231.391 385.5,233C 382.874,255.694 379.374,278.528 375,301.5C 372.343,309.486 369.676,317.486 367,325.5C 359.837,337.822 354.337,350.822 350.5,364.5C 347.396,366.523 346.062,369.856 346.5,374.5C 352.334,374.503 355.501,371.503 356,365.5C 358.706,363.129 361.039,360.463 363,357.5C 373.937,336.621 381.771,314.621 386.5,291.5C 386.167,290.833 385.833,290.167 385.5,289.5C 388.76,269.817 391.26,249.817 393,229.5C 398.583,232.708 404.083,236.041 409.5,239.5C 410.41,241.655 411.577,243.655 413,245.5C 413.812,253.076 414.979,260.576 416.5,268C 414.738,276.878 412.904,285.711 411,294.5C 397.468,330.223 381.302,364.556 362.5,397.5C 363.552,397.649 364.552,397.483 365.5,397C 370.709,392.122 376.209,387.622 382,383.5C 389.602,371.627 395.602,358.961 400,345.5C 413.926,321.201 421.759,294.867 423.5,266.5C 432.962,267.143 440.128,271.476 445,279.5C 446.625,285.132 447.791,290.632 448.5,296C 437.947,334.995 417.28,367.495 386.5,393.5C 378.968,398.681 371.302,403.681 363.5,408.5C 355.839,410.248 348.172,411.915 340.5,413.5C 339.833,413.167 339.167,412.833 338.5,412.5C 328.358,413.203 318.191,413.87 308,414.5C 288.799,413.543 269.632,413.543 250.5,414.5C 227.028,413.881 204.695,408.714 183.5,399C 165.837,388.179 148.837,376.346 132.5,363.5C 125.764,356.267 119.597,348.6 114,340.5C 107.777,327.398 107.11,314.065 112,300.5C 116.274,293.228 120.941,286.228 126,279.5C 131.986,275.013 137.82,270.346 143.5,265.5C 176.575,287.11 198.409,317.11 209,355.5C 212.155,363.318 215.489,370.984 219,378.5C 222.682,382.015 226.182,385.682 229.5,389.5C 230.423,386.282 229.757,383.282 227.5,380.5C 228.392,377.619 228.059,374.786 226.5,372C 219.412,357.979 213.245,343.479 208,328.5C 196.987,306.97 182.487,288.137 164.5,272C 157.619,267.399 150.952,262.566 144.5,257.5C 145.756,251.124 147.923,245.124 151,239.5C 158.697,225.461 170.197,216.294 185.5,212C 191.706,210.529 197.873,210.029 204,210.5C 209.09,216.713 214.423,222.713 220,228.5C 223.228,236.216 227.895,242.883 234,248.5C 241.166,261.342 247.166,274.675 252,288.5C 259.305,312.356 264.305,336.689 267,361.5C 270.13,366.723 271.963,372.389 272.5,378.5C 273.5,378.5 274.5,378.5 275.5,378.5C 275.128,336.315 265.961,295.981 248,257.5C 243.831,251.834 240.165,245.834 237,239.5C 227.606,227.093 217.773,214.926 207.5,203C 209.394,201.225 211.061,199.225 212.5,197C 217.889,192.611 223.556,188.611 229.5,185C 238.146,182.398 246.813,180.565 255.5,179.5 Z M 203.5,417.5 C 206.553,418.454 209.386,418.454 212,417.5C 212.674,418.578 213.674,419.245 215,419.5C 220.351,420.757 225.684,421.09 231,420.5C 236.648,421.298 242.315,421.965 248,422.5C 267.926,421.891 287.426,421.891 306.5,422.5C 320.184,421.521 333.851,420.187 347.5,418.5C 349.349,420.326 351.349,420.659 353.5,419.5C 354.5,421.5 355.5,423.5 356.5,425.5C 362.368,428.691 366.368,433.358 368.5,439.5C 326.955,451.245 284.622,455.412 241.5,452C 230.273,450.669 218.939,448.669 207.5,446C 201.335,444.161 196.668,440.494 193.5,435C 196.445,428.943 199.778,423.11 203.5,417.5 Z"/></g>
</svg>
