<?xml version="1.0" encoding="UTF-8"?>
<!DOCTYPE svg PUBLIC "-//W3C//DTD SVG 1.1//EN" "http://www.w3.org/Graphics/SVG/1.1/DTD/svg11.dtd">
<svg xmlns="http://www.w3.org/2000/svg" version="1.1" width="611px" height="611px" style="shape-rendering:geometricPrecision; text-rendering:geometricPrecision; image-rendering:optimizeQuality; fill-rule:evenodd; clip-rule:evenodd" xmlns:xlink="http://www.w3.org/1999/xlink">
<g><path style="opacity:0.016" fill="#000000" d="M 311.5,-0.5 C 313.833,-0.5 316.167,-0.5 318.5,-0.5C 327.167,4.83333 335.833,4.83333 344.5,-0.5C 346.5,-0.5 348.5,-0.5 350.5,-0.5C 342.232,7.39341 332.565,9.56008 321.5,6C 317.589,4.55578 314.256,2.38911 311.5,-0.5 Z"/></g>
<g><path style="opacity:0.473" fill="#000000" d="M 116.5,224.5 C 110.995,227.955 105.328,228.288 99.5,225.5C 93.8498,221.673 92.0165,216.34 94,209.5C 102.779,196.911 111.445,196.578 120,208.5C 121.791,213.583 121.457,218.583 119,223.5C 117.841,222.434 117.008,222.767 116.5,224.5 Z M 112.5,208.5 C 109.978,208.128 107.978,208.961 106.5,211C 107.747,212.952 109.081,214.785 110.5,216.5C 113.142,216.512 114.475,215.179 114.5,212.5C 115.735,214.017 115.735,215.684 114.5,217.5C 112.684,218.815 111.017,220.315 109.5,222C 106.861,222.588 104.527,222.088 102.5,220.5C 97.3268,215.873 97.6602,211.373 103.5,207C 106.863,206.073 109.863,206.573 112.5,208.5 Z"/></g>
<g><path style="opacity:0.45" fill="#000000" d="M 184.5,218.5 C 184.167,217.167 183.833,217.167 183.5,218.5C 180.032,219.078 176.699,219.078 173.5,218.5C 166.891,212.378 166.891,206.211 173.5,200C 186.411,197.668 191.245,202.835 188,215.5C 186.961,216.71 185.794,217.71 184.5,218.5 Z M 176.5,204.5 C 179.073,204.148 181.406,204.648 183.5,206C 180.307,207.026 178.974,209.192 179.5,212.5C 174.208,211.636 173.208,208.97 176.5,204.5 Z"/></g>
<g><path style="opacity:0.342" fill="#000000" d="M 112.5,208.5 C 112.328,209.492 112.662,210.158 113.5,210.5C 113.328,211.492 113.662,212.158 114.5,212.5C 114.475,215.179 113.142,216.512 110.5,216.5C 109.081,214.785 107.747,212.952 106.5,211C 107.978,208.961 109.978,208.128 112.5,208.5 Z"/></g>
<g><path style="opacity:0.004" fill="#000000" d="M 173.5,218.5 C 174.833,219.167 174.833,219.167 173.5,218.5 Z"/></g>
<g><path style="opacity:0.004" fill="#000000" d="M 183.5,218.5 C 183.833,218.5 184.167,218.5 184.5,218.5C 184.315,219.17 183.981,219.17 183.5,218.5 Z"/></g>
<g><path style="opacity:0.575" fill="#000000" d="M 270.5,406.5 C 270.5,412.167 270.5,417.833 270.5,423.5C 247.498,423.667 224.498,423.5 201.5,423C 201,422.5 200.5,422 200,421.5C 198.98,413.873 198.48,406.206 198.5,398.5C 199.025,390.108 199.025,381.775 198.5,373.5C 199.66,367.072 200.326,360.572 200.5,354C 199.415,335.28 199.248,316.446 200,297.5C 197.225,307.482 190.225,312.815 179,313.5C 176.112,313.023 173.279,312.356 170.5,311.5C 169.676,314.785 169.176,318.118 169,321.5C 168.011,323.97 166.845,326.303 165.5,328.5C 161.356,331.568 156.689,333.568 151.5,334.5C 149.556,333.811 147.556,333.311 145.5,333C 142.851,330.465 140.017,328.965 137,328.5C 136.383,327.551 136.549,326.718 137.5,326C 131.364,316.019 133.031,307.352 142.5,300C 147.076,298.067 151.743,297.567 156.5,298.5C 154.052,286.297 158.052,277.13 168.5,271C 184.412,265.874 195.245,271.041 201,286.5C 201.5,286 202,285.5 202.5,285C 226.028,284.652 248.862,283.819 271,282.5C 273.287,284.237 273.787,286.57 272.5,289.5C 271.351,289.791 270.684,290.624 270.5,292C 270.264,303.031 270.597,313.864 271.5,324.5C 279.134,325.52 286.801,326.187 294.5,326.5C 304.562,325.244 314.062,325.244 323,326.5C 324.205,325.929 325.372,325.262 326.5,324.5C 325.995,318.706 325.329,312.706 324.5,306.5C 324.191,281.066 324.858,255.566 326.5,230C 325.833,229.667 325.167,229.333 324.5,229C 325.872,226.467 326.872,223.8 327.5,221C 332.22,220.779 336.887,220.279 341.5,219.5C 384.149,220.734 426.816,221.734 469.5,222.5C 491.552,221.996 513.552,221.83 535.5,222C 536.43,223.194 537.097,224.527 537.5,226C 537.798,229.283 537.464,232.283 536.5,235C 538.038,245.049 538.704,255.215 538.5,265.5C 538.482,273.235 537.815,280.735 536.5,288C 526.258,288.128 515.758,287.962 505,287.5C 496.247,288.778 487.414,289.778 478.5,290.5C 448.029,289.77 418.029,289.27 388.5,289C 389.167,291.333 389.833,293.667 390.5,296C 389.78,301.947 389.447,308.113 389.5,314.5C 390.156,325.03 390.822,335.53 391.5,346C 391.411,355.242 391.411,364.742 391.5,374.5C 391.534,379.798 389.201,383.464 384.5,385.5C 383.707,385.069 382.873,384.735 382,384.5C 366.638,387.17 351.305,386.836 336,383.5C 330.633,385.038 325.133,385.705 319.5,385.5C 313.838,385.706 308.338,385.039 303,383.5C 297.609,384.115 291.942,384.449 286,384.5C 282.45,383.408 278.783,382.741 275,382.5C 273.019,382.629 271.353,383.296 270,384.5C 269.178,392.012 269.345,399.345 270.5,406.5 Z M 478.5,229.5 C 478.833,230.833 479.167,230.833 479.5,229.5C 492.425,229.935 505.425,229.935 518.5,229.5C 522.293,229.115 526.293,229.115 530.5,229.5C 531.136,246.493 531.469,263.493 531.5,280.5C 523.828,280.328 516.328,279.994 509,279.5C 502.742,280.68 496.409,281.68 490,282.5C 486.388,281.739 482.722,282.072 479,283.5C 447.172,282.665 415.006,282.498 382.5,283C 381.833,284.333 381.167,285.667 380.5,287C 382.476,298.282 383.809,309.782 384.5,321.5C 383.264,323.311 383.264,325.144 384.5,327C 384.241,328.261 383.574,329.261 382.5,330C 383.167,334.333 383.833,338.667 384.5,343C 384.099,350.935 384.099,358.602 384.5,366C 381.833,366.667 381.833,367.333 384.5,368C 383.556,370.719 383.223,373.552 383.5,376.5C 372.084,376.752 360.75,377.419 349.5,378.5C 345.111,378.077 340.778,377.41 336.5,376.5C 330.865,376.562 325.198,376.895 319.5,377.5C 302.868,375.335 286.201,374.668 269.5,375.5C 269.609,368.516 269.609,361.682 269.5,355C 270.167,354 270.833,353 271.5,352C 270.18,348.399 270.18,344.899 271.5,341.5C 270.597,338.609 270.264,335.609 270.5,332.5C 278.692,332.849 287.025,333.515 295.5,334.5C 307.48,333.887 319.48,333.554 331.5,333.5C 332.133,329.749 332.467,325.915 332.5,322C 331.393,308.814 330.726,295.98 330.5,283.5C 331.973,264.369 332.639,245.369 332.5,226.5C 347.087,227.754 361.587,227.754 376,226.5C 377.895,226.615 379.562,227.282 381,228.5C 387.037,227.654 393.037,227.32 399,227.5C 425.442,228.227 451.942,228.893 478.5,229.5 Z M 188.5,293.5 C 188.44,292.957 188.107,292.624 187.5,292.5C 186.227,293.257 186.227,293.923 187.5,294.5C 187.715,296.179 187.048,297.179 185.5,297.5C 183.972,298.309 182.306,298.976 180.5,299.5C 180.227,301.958 181.227,303.625 183.5,304.5C 185.55,304.256 187.55,303.923 189.5,303.5C 180.907,310.332 172.74,309.666 165,301.5C 159.814,292.429 160.981,284.262 168.5,277C 175.167,273.667 181.833,273.667 188.5,277C 187.833,277.333 187.167,277.667 186.5,278C 188.286,278.785 189.786,279.951 191,281.5C 191.333,281.167 191.667,280.833 192,280.5C 193.244,283.622 194.411,287.122 195.5,291C 195.197,293.724 194.364,296.224 193,298.5C 193.359,295.664 191.859,293.997 188.5,293.5 Z M 206.5,411.5 C 205.202,388.748 205.535,365.914 207.5,343C 206.874,342.25 206.374,341.416 206,340.5C 205.085,325.77 205.585,311.103 207.5,296.5C 206.904,295.065 206.904,293.398 207.5,291.5C 218.44,291.354 228.94,291.687 239,292.5C 247.73,290.01 256.563,289.343 265.5,290.5C 264.324,305.312 264.324,320.145 265.5,335C 263.799,354.9 262.465,374.733 261.5,394.5C 262.465,401.776 262.799,409.109 262.5,416.5C 249.769,415.865 236.936,415.532 224,415.5C 218.21,415.516 212.544,416.182 207,417.5C 206.505,415.527 206.338,413.527 206.5,411.5 Z M 190.5,302.5 C 190.461,301.244 190.961,300.244 192,299.5C 192.585,300.998 192.085,301.998 190.5,302.5 Z M 158.5,307.5 C 156.958,306.699 155.292,306.366 153.5,306.5C 153.343,307.873 153.51,309.207 154,310.5C 156.167,311.333 157.667,312.833 158.5,315C 159.766,315.309 160.933,315.809 162,316.5C 163.259,311.829 164.093,311.663 164.5,316C 163.658,323.674 159.325,327.84 151.5,328.5C 140.51,325.521 137.343,318.854 142,308.5C 145.788,303.847 150.622,302.347 156.5,304C 157.823,304.816 158.489,305.983 158.5,307.5 Z"/></g>
<g><path style="opacity:0.004" fill="#000000" d="M 116.5,224.5 C 117.833,225.167 117.833,225.167 116.5,224.5 Z"/></g>
<g><path style="opacity:0.004" fill="#000000" d="M 99.5,225.5 C 98.8333,226.167 98.8333,226.167 99.5,225.5 Z"/></g>
<g><path style="opacity:0.458" fill="#000000" d="M 187.5,233.5 C 186.167,233.833 186.167,234.167 187.5,234.5C 195.833,243.105 195.166,251.271 185.5,259C 175.837,262.759 168.67,259.925 164,250.5C 162.079,243.486 163.912,237.819 169.5,233.5C 172.244,231.919 175.244,230.919 178.5,230.5C 181.921,231.508 184.921,232.508 187.5,233.5 Z M 185.5,240.5 C 187.238,242.119 187.738,244.119 187,246.5C 186.309,244.109 185.309,244.109 184,246.5C 183.667,245.833 183.333,245.167 183,244.5C 181.158,247.339 179.325,250.173 177.5,253C 179.929,253.451 180.096,254.285 178,255.5C 169.46,253.254 166.96,248.087 170.5,240C 172.879,238.581 175.379,237.414 178,236.5C 180.867,237.381 183.367,238.714 185.5,240.5 Z"/></g>
<g><path style="opacity:0.004" fill="#000000" d="M 169.5,233.5 C 168.833,232.167 168.833,232.167 169.5,233.5 Z"/></g>
<g><path style="opacity:0.004" fill="#000000" d="M 187.5,233.5 C 188.833,234.167 188.833,234.167 187.5,233.5 Z"/></g>
<g><path style="opacity:0.004" fill="#000000" d="M 123.5,244.5 C 124.833,245.167 124.833,245.167 123.5,244.5 Z"/></g>
<g><path style="opacity:0.004" fill="#000000" d="M 123.5,245.5 C 123.103,246.525 122.437,246.692 121.5,246C 122.094,245.536 122.761,245.369 123.5,245.5 Z"/></g>
<g><path style="opacity:0.462" fill="#000000" d="M 136.5,279.5 C 129.81,281.27 123.81,279.937 118.5,275.5C 110.297,266.447 110.63,257.613 119.5,249C 119.167,248.667 118.833,248.333 118.5,248C 124.534,245.953 130.868,245.12 137.5,245.5C 138.696,245.846 138.696,246.346 137.5,247C 141.016,248.256 144.016,250.256 146.5,253C 146.043,253.414 145.709,253.914 145.5,254.5C 150.027,265.746 147.027,274.079 136.5,279.5 Z M 137.5,254.5 C 136.167,254.5 134.833,254.5 133.5,254.5C 133.527,260.709 136.36,263.375 142,262.5C 142.494,264.134 142.66,265.801 142.5,267.5C 140.821,267.285 139.821,267.952 139.5,269.5C 138.5,269.833 137.833,270.5 137.5,271.5C 130.956,275.981 125.123,274.981 120,268.5C 117.125,260.412 119.625,254.579 127.5,251C 130.999,249.88 133.833,250.713 136,253.5C 137.107,252.288 137.607,252.621 137.5,254.5 Z M 138.5,255.5 C 140.5,255.5 141.5,256.5 141.5,258.5C 140.167,257.833 139.167,256.833 138.5,255.5 Z"/></g>
<g><path style="opacity:0.004" fill="#000000" d="M 147.5,255.5 C 148.833,256.167 148.833,256.167 147.5,255.5 Z"/></g>
<g><path style="opacity:0.004" fill="#000000" d="M 118.5,275.5 C 118.103,276.525 117.437,276.692 116.5,276C 117.094,275.536 117.761,275.369 118.5,275.5 Z"/></g>
<g><path style="opacity:0.004" fill="#000000" d="M 136.5,279.5 C 137.833,280.167 137.833,280.167 136.5,279.5 Z"/></g>
<g><path style="opacity:0.004" fill="#000000" d="M 272.5,289.5 C 273.833,290.167 273.833,290.167 272.5,289.5 Z"/></g>
<g><path style="opacity:0.004" fill="#000000" d="M 188.5,293.5 C 187.833,293.5 187.5,293.833 187.5,294.5C 186.227,293.923 186.227,293.257 187.5,292.5C 188.107,292.624 188.44,292.957 188.5,293.5 Z"/></g>
<g><path style="opacity:0.004" fill="#000000" d="M 271.5,292.5 C 272.833,293.167 272.833,293.167 271.5,292.5 Z"/></g>
<g><path style="opacity:0.004" fill="#000000" d="M 137.5,301.5 C 138.833,302.167 138.833,302.167 137.5,301.5 Z"/></g>
<g><path style="opacity:0.004" fill="#000000" d="M 137.5,302.5 C 136.833,303.167 136.833,303.167 137.5,302.5 Z"/></g>
<g><path style="opacity:0.004" fill="#000000" d="M 271.5,304.5 C 272.833,305.167 272.833,305.167 271.5,304.5 Z"/></g>
<g><path style="opacity:0.004" fill="#000000" d="M 166.5,327.5 C 167.833,328.167 167.833,328.167 166.5,327.5 Z"/></g>
<g><path style="opacity:0.004" fill="#000000" d="M 165.5,328.5 C 165.833,328.5 166.167,328.5 166.5,328.5C 166.315,329.17 165.981,329.17 165.5,328.5 Z"/></g>
<g><path style="opacity:0.004" fill="#000000" d="M 165.5,329.5 C 164.833,330.167 164.833,330.167 165.5,329.5 Z"/></g>
<g><path style="opacity:0.004" fill="#000000" d="M 158.5,333.5 C 159.833,334.167 159.833,334.167 158.5,333.5 Z"/></g>
<g><path style="opacity:0.464" fill="#000000" d="M 183.5,354.5 C 189.602,360.973 191.102,368.973 188,378.5C 185.999,381.331 183.833,383.997 181.5,386.5C 180.833,387.167 180.167,387.833 179.5,388.5C 179.167,387.167 178.833,387.167 178.5,388.5C 169.329,392 160.995,390.667 153.5,384.5C 146.398,376.118 145.732,367.284 151.5,358C 151.043,357.586 150.709,357.086 150.5,356.5C 161.057,346.741 172.057,346.074 183.5,354.5 Z M 179.5,360.5 C 176.888,359.629 174.221,358.963 171.5,358.5C 170.261,359.212 169.761,360.212 170,361.5C 171.719,362.869 173.552,363.869 175.5,364.5C 177.582,365.585 177.916,367.085 176.5,369C 180.836,369.833 182.836,368 182.5,363.5C 185.1,369.142 184.433,374.475 180.5,379.5C 179.746,381.505 178.579,382.172 177,381.5C 176.5,382.667 175.667,383.5 174.5,384C 168.151,385.964 162.485,384.797 157.5,380.5C 158.547,379.922 158.38,379.256 157,378.5C 156.601,378.728 156.435,379.062 156.5,379.5C 151.581,372.097 152.081,364.764 158,357.5C 160.09,358.791 161.424,358.124 162,355.5C 162.333,355.833 162.667,356.167 163,356.5C 164.698,355.267 166.698,354.6 169,354.5C 171.302,354.6 173.302,355.267 175,356.5C 175.333,356.167 175.667,355.833 176,355.5C 177.802,356.789 178.969,358.456 179.5,360.5 Z"/></g>
<g><path style="opacity:0.004" fill="#000000" d="M 183.5,353.5 C 184.833,354.167 184.833,354.167 183.5,353.5 Z"/></g>
<g><path style="opacity:0.004" fill="#000000" d="M 153.5,384.5 C 152.833,385.167 152.833,385.167 153.5,384.5 Z"/></g>
<g><path style="opacity:0.004" fill="#000000" d="M 181.5,386.5 C 182.833,387.167 182.833,387.167 181.5,386.5 Z"/></g>
<g><path style="opacity:0.004" fill="#000000" d="M 178.5,388.5 C 178.833,388.5 179.167,388.5 179.5,388.5C 179.315,389.17 178.981,389.17 178.5,388.5 Z"/></g>
<g><path style="opacity:0.004" fill="#000000" d="M 270.5,406.5 C 270.369,405.761 270.536,405.094 271,404.5C 271.692,405.437 271.525,406.103 270.5,406.5 Z"/></g>
<g><path style="opacity:0.004" fill="#000000" d="M 271.5,417.5 C 272.525,417.897 272.692,418.563 272,419.5C 271.536,418.906 271.369,418.239 271.5,417.5 Z"/></g>
</svg>
