<?xml version="1.0" standalone="no"?>
<!DOCTYPE svg PUBLIC "-//W3C//DTD SVG 20010904//EN"
 "http://www.w3.org/TR/2001/REC-SVG-20010904/DTD/svg10.dtd">
<svg version="1.0" xmlns="http://www.w3.org/2000/svg"
 width="1699.000000pt" height="229.000000pt" viewBox="0 0 1699.000000 229.000000"
 preserveAspectRatio="xMidYMid meet">

<g transform="translate(0.000000,229.000000) scale(0.100000,-0.100000)"
fill="#000000" stroke="none">
<path d="M316 2233 c-6 -30 0 -875 9 -1243 3 -124 6 -352 7 -508 1 -194 5
-288 13 -299 14 -19 98 -21 723 -23 273 0 429 3 442 10 18 10 19 21 14 283 -9
559 -10 582 -23 605 -7 13 -11 25 -9 27 3 3 3346 8 3843 6 94 0 393 -1 665 0
272 0 657 0 855 -1 440 -1 6591 8 7732 11 452 2 824 1 827 -2 9 -9 17 -275 18
-587 0 -336 0 -333 52 -351 36 -13 1062 -14 1086 -1 l21 11 -4 542 c-2 298 -1
612 4 697 11 218 12 241 3 465 -4 110 -7 232 -5 271 2 79 -6 93 -55 94 -16 0
-209 0 -429 0 -220 -1 -2265 1 -4545 5 -2280 3 -5741 9 -7692 11 l-3546 5 -6
-28z m16175 -97 c2 -62 7 -294 9 -421 1 -71 -1 -272 -5 -447 -4 -221 -3 -318
5 -323 5 -3 8 -11 4 -16 -3 -5 -8 -141 -10 -302 -5 -309 -8 -374 -15 -381 -3
-3 -209 -6 -459 -7 l-455 -1 -2 123 c-1 68 -2 138 -2 154 -1 17 1 75 4 130 3
55 7 186 9 292 l3 192 -53 16 c-29 8 -67 14 -86 13 -18 0 -951 2 -2073 6
-2804 10 -6873 15 -6880 8 -3 -3 -87 -4 -188 -3 -237 3 -1054 5 -1317 3 -113
-1 -952 1 -1864 3 -1158 2 -1666 0 -1682 -7 -48 -22 -52 -40 -48 -238 4 -188
11 -349 18 -430 3 -25 8 -95 12 -157 l7 -112 -389 -1 c-214 -1 -435 -2 -492
-4 l-102 -4 -1 97 c-1 203 -9 473 -25 876 -7 186 -7 193 -7 555 0 151 -1 302
-1 335 l-1 60 900 2 c1296 3 1457 3 2200 3 369 0 2115 2 3880 5 1766 3 4526 7
6134 10 1608 2 2925 6 2928 8 2 3 13 3 24 0 13 -4 19 -15 20 -37z"/>
</g>
</svg>
