<?xml version="1.0" standalone="no"?>
<!DOCTYPE svg PUBLIC "-//W3C//DTD SVG 20010904//EN"
 "http://www.w3.org/TR/2001/REC-SVG-20010904/DTD/svg10.dtd">
<svg version="1.0" xmlns="http://www.w3.org/2000/svg"
 width="1699.000000pt" height="1180.000000pt" viewBox="0 0 1699.000000 1180.000000"
 preserveAspectRatio="xMidYMid meet">

<g transform="translate(0.000000,1180.000000) scale(0.100000,-0.100000)"
fill="#000000" stroke="none">
<path d="M2460 6643 c-19 -2 -39 -9 -44 -14 -6 -5 -24 -9 -41 -9 -60 0 -256
-63 -295 -94 -8 -7 -33 -22 -55 -33 -36 -18 -147 -77 -210 -110 -27 -15 -146
-131 -193 -188 -81 -99 -92 -113 -92 -121 0 -5 -11 -25 -24 -44 -13 -19 -27
-46 -31 -60 -4 -14 -17 -45 -28 -70 -11 -25 -22 -54 -24 -65 -2 -11 -13 -45
-24 -75 -11 -30 -21 -67 -21 -83 -1 -15 -5 -30 -10 -33 -4 -3 -8 -22 -8 -43 0
-20 -4 -41 -8 -46 -16 -19 -36 -147 -34 -225 1 -14 2 -65 3 -115 2 -100 14
-209 28 -240 4 -11 16 -51 25 -90 20 -83 107 -268 162 -346 59 -85 97 -133
112 -142 7 -5 25 -22 39 -37 57 -65 154 -118 384 -211 87 -35 265 -59 431 -59
208 1 441 24 503 50 11 5 41 11 67 15 l46 6 -24 62 c-13 34 -35 78 -48 98 -14
20 -35 66 -48 103 -21 61 -22 66 -6 78 37 27 -20 101 -60 79 -33 -18 -303 -30
-362 -16 -14 3 -80 14 -148 25 -140 21 -216 51 -315 126 -68 51 -138 122 -155
157 -50 100 -61 135 -88 272 -21 104 -21 279 0 326 4 9 9 36 11 60 2 24 10 69
19 100 19 69 103 241 122 252 8 4 14 15 14 22 0 8 7 23 15 33 9 9 32 37 53 61
60 70 110 121 119 121 4 0 21 11 37 25 63 54 129 77 284 96 138 17 239 18 387
3 22 -2 50 -4 62 -4 12 0 40 -7 63 -15 24 -8 46 -15 50 -15 10 0 30 47 30 71
0 10 4 27 9 37 6 9 26 51 46 92 20 41 48 87 62 102 57 60 1 86 -222 103 -44 4
-107 11 -140 16 -66 11 -370 20 -425 12z m335 -78 c17 -3 68 -7 115 -9 139 -8
253 -17 260 -21 4 -3 -17 -53 -46 -111 -30 -59 -54 -114 -54 -122 0 -14 -4
-14 -75 5 -38 10 -270 23 -335 18 -65 -5 -176 -19 -261 -34 -26 -4 -71 -20
-101 -34 -30 -15 -60 -27 -66 -27 -14 0 -109 -79 -180 -149 -53 -53 -117 -142
-154 -215 -11 -23 -23 -43 -27 -46 -3 -3 -11 -16 -17 -30 -32 -71 -38 -86 -39
-95 0 -5 -5 -23 -12 -40 -13 -34 -33 -126 -38 -170 -1 -16 -4 -30 -5 -30 -3 0
-8 -90 -10 -180 -2 -122 10 -247 26 -269 8 -11 14 -29 14 -39 0 -10 5 -28 12
-40 7 -12 13 -27 14 -32 2 -12 60 -110 83 -141 19 -24 157 -144 167 -144 3 0
26 -13 50 -30 60 -40 172 -79 279 -97 50 -8 113 -18 140 -23 105 -18 238 -7
358 30 18 6 27 5 27 -3 0 -17 48 -144 81 -212 l29 -60 -53 -7 c-28 -3 -83 -10
-122 -14 -109 -13 -503 -11 -550 3 -375 111 -474 164 -606 326 -27 34 -55 69
-61 76 -23 28 -96 178 -103 212 -4 19 -13 43 -19 54 -7 11 -19 38 -26 60 -7
22 -17 45 -22 52 -5 7 -7 17 -3 23 4 6 2 17 -4 24 -32 38 -33 532 -2 570 6 7
8 16 4 19 -3 4 -1 13 6 20 11 14 49 147 56 195 3 21 37 102 56 132 5 8 14 25
19 38 6 13 22 39 36 58 15 19 24 34 21 34 -3 0 7 15 21 32 41 49 176 188 184
188 3 0 37 17 75 39 251 141 268 149 388 182 148 41 342 55 470 34z"/>
<path d="M14148 6624 c-43 -7 -112 -15 -155 -18 -43 -3 -94 -8 -113 -11 -19
-3 -75 -7 -125 -8 -90 -3 -140 -12 -161 -29 -9 -6 8 -48 56 -146 38 -75 73
-155 79 -177 6 -22 17 -49 24 -59 12 -16 17 -17 38 -6 23 13 42 17 105 25 18
2 41 8 53 14 27 15 138 28 293 35 94 5 349 -24 408 -45 19 -7 55 -26 79 -43
24 -17 51 -36 61 -41 37 -22 190 -191 190 -210 0 -3 11 -21 24 -38 37 -50 114
-221 121 -272 1 -5 5 -18 10 -27 4 -10 5 -25 1 -33 -3 -8 -1 -27 4 -41 25 -64
31 -248 11 -344 -6 -30 -12 -64 -14 -75 -12 -64 -28 -107 -80 -213 -37 -75
-152 -171 -275 -231 -56 -27 -160 -52 -277 -66 -16 -2 -46 -7 -65 -10 -62 -12
-328 -3 -352 11 -3 2 -40 5 -82 6 -90 2 -110 -11 -120 -75 -4 -23 -25 -96 -47
-162 -51 -153 -49 -164 45 -189 36 -10 77 -16 89 -12 13 3 27 2 31 -2 23 -23
299 -51 507 -52 246 0 424 40 632 145 79 40 186 115 187 131 0 6 10 16 23 23
12 7 42 40 67 72 25 33 53 69 63 81 27 33 147 284 147 307 0 7 9 37 19 69 23
69 50 243 44 292 -2 19 -3 49 -2 65 6 81 -3 170 -26 270 -14 61 -27 123 -30
139 -5 32 -24 95 -34 111 -3 6 -7 21 -9 35 -2 14 -10 35 -18 47 -8 12 -14 27
-14 32 0 9 -38 91 -79 170 -10 18 -25 38 -34 43 -9 5 -17 15 -17 23 0 18 -200
221 -231 235 -24 10 -60 31 -69 40 -3 3 -41 23 -85 45 -44 22 -93 50 -110 62
-16 12 -43 25 -60 29 -16 4 -35 10 -40 15 -16 12 -166 49 -200 49 -17 0 -37 6
-43 13 -17 17 -341 18 -444 1z m357 -69 c200 -27 275 -52 475 -162 30 -17 82
-45 115 -63 33 -19 80 -52 105 -76 25 -23 57 -53 73 -66 15 -14 27 -29 27 -34
0 -5 14 -22 30 -38 16 -16 28 -32 25 -36 -2 -3 7 -19 20 -34 14 -16 27 -38 31
-50 3 -11 16 -31 27 -43 11 -13 17 -26 14 -30 -4 -3 -1 -13 7 -22 15 -17 43
-103 52 -161 3 -19 13 -53 21 -75 8 -22 16 -47 17 -55 2 -8 6 -22 9 -30 3 -8
8 -24 12 -35 17 -48 23 -237 11 -365 -12 -137 -33 -227 -75 -320 -4 -8 -16
-42 -26 -75 -11 -33 -23 -62 -27 -65 -3 -3 -19 -30 -34 -60 -42 -84 -164 -229
-239 -285 -37 -27 -163 -93 -200 -105 -16 -5 -61 -20 -100 -34 -38 -13 -88
-28 -110 -32 -22 -3 -46 -12 -54 -18 -16 -12 -454 -16 -531 -4 -25 4 -79 10
-120 14 -41 3 -79 10 -85 14 -5 4 -23 10 -39 14 -50 12 -59 29 -40 73 9 21 25
74 34 118 13 58 21 79 31 76 8 -3 43 -6 79 -7 62 -3 119 -12 205 -33 48 -13
161 -13 230 -1 28 5 93 15 145 24 141 22 281 83 373 162 18 16 45 38 60 49 59
43 141 170 162 253 8 30 19 60 25 68 7 7 11 38 11 68 0 31 4 58 9 61 18 11
-10 387 -31 427 -5 9 -9 28 -9 42 0 14 -5 38 -11 53 -6 15 -15 37 -19 48 -21
55 -63 136 -96 185 -20 30 -43 68 -51 84 -9 17 -59 72 -112 124 -79 77 -111
101 -181 133 -86 41 -121 50 -290 73 -91 13 -342 12 -400 -1 -14 -3 -65 -12
-114 -19 -48 -8 -96 -19 -106 -24 -45 -24 -55 -15 -122 120 -69 139 -69 137
-3 131 10 -1 69 5 130 13 60 8 117 14 125 14 48 0 321 21 327 26 9 7 119 2
208 -9z"/>
</g>
</svg>
