<?xml version="1.0" encoding="UTF-8"?>
<!DOCTYPE svg PUBLIC "-//W3C//DTD SVG 1.1//EN" "http://www.w3.org/Graphics/SVG/1.1/DTD/svg11.dtd">
<svg xmlns="http://www.w3.org/2000/svg" version="1.1" width="1699px" height="1180px" style="shape-rendering:geometricPrecision; text-rendering:geometricPrecision; image-rendering:optimizeQuality; fill-rule:evenodd; clip-rule:evenodd" xmlns:xlink="http://www.w3.org/1999/xlink">
<g><path style="opacity:1" fill="#fefefe" d="M -0.5,-0.5 C 565.833,-0.5 1132.17,-0.5 1698.5,-0.5C 1698.5,392.833 1698.5,786.167 1698.5,1179.5C 1132.17,1179.5 565.833,1179.5 -0.5,1179.5C -0.5,786.167 -0.5,392.833 -0.5,-0.5 Z"/></g>
<g><path style="opacity:1" fill="#fbfbfb" d="M 253.5,733.5 C 260.167,734.833 266.833,734.833 273.5,733.5C 276.059,733.802 278.393,733.468 280.5,732.5C 283.655,732.01 286.655,731.344 289.5,730.5C 291.284,731.574 292.451,733.24 293,735.5C 295.388,743.426 298.222,751.093 301.5,758.5C 278.248,761.522 254.914,762.189 231.5,760.5C 229.118,758.954 226.451,758.287 223.5,758.5C 211.595,754.915 199.929,750.415 188.5,745C 178.279,737.446 169.446,728.612 162,718.5C 155.285,704.97 149.785,690.97 145.5,676.5C 145.371,664.945 144.371,653.611 142.5,642.5C 143.43,638.6 143.763,634.6 143.5,630.5C 143.968,622.616 145.968,615.282 149.5,608.5C 151.011,605.456 151.678,602.122 151.5,598.5C 152.53,592.736 154.53,587.402 157.5,582.5C 161.909,575.441 166.409,568.441 171,561.5C 176.161,557.339 180.994,552.839 185.5,548C 195.512,543.224 205.179,537.891 214.5,532C 237.927,522.402 261.927,519.902 286.5,524.5C 287.772,523.954 289.106,523.621 290.5,523.5C 297.147,524.215 303.813,524.715 310.5,525C 312.715,525.17 314.715,525.837 316.5,527C 312.672,534.83 308.839,542.663 305,550.5C 294.83,547.646 284.33,546.313 273.5,546.5C 261.83,547.645 250.163,548.812 238.5,550C 234.447,550.861 230.78,552.527 227.5,555C 225.5,555.333 223.5,555.667 221.5,556C 214.308,562.528 207.141,569.028 200,575.5C 192.184,586.579 185.684,598.245 180.5,610.5C 174.437,632.098 173.104,654.431 176.5,677.5C 179.836,688.671 185.17,698.837 192.5,708C 204.599,718.547 218.265,726.214 233.5,731C 240.244,731.416 246.911,732.25 253.5,733.5 Z"/></g>
<g><path style="opacity:1" fill="#1d1d1d" d="M 1506.5,760.5 C 1505.87,759.053 1504.7,758.387 1503,758.5C 1498.18,759.6 1493.35,759.6 1488.5,758.5C 1482.49,759.647 1476.49,760.647 1470.5,761.5C 1465.63,763.249 1464.3,766.583 1466.5,771.5C 1443.14,772.846 1420.14,770.846 1397.5,765.5C 1396.01,765.897 1394.51,766.23 1393,766.5C 1389.2,765.259 1385.37,764.092 1381.5,763C 1380.64,761.43 1379.98,759.763 1379.5,758C 1383.54,747.043 1386.87,735.876 1389.5,724.5C 1390.03,723.808 1390.69,723.308 1391.5,723C 1395.15,722.501 1398.82,722.335 1402.5,722.5C 1409.62,723.928 1416.95,724.594 1424.5,724.5C 1428.37,725.726 1432.37,725.726 1436.5,724.5C 1446.01,722.937 1455.67,721.77 1465.5,721C 1480.44,716.037 1493.28,707.87 1504,696.5C 1506.02,691.996 1508.19,687.663 1510.5,683.5C 1510.98,679.564 1511.98,675.897 1513.5,672.5C 1516.58,664.035 1517.24,655.368 1515.5,646.5C 1516.19,640.071 1515.19,633.738 1512.5,627.5C 1512.93,626.707 1513.26,625.873 1513.5,625C 1509.48,609.217 1502.65,594.717 1493,581.5C 1491.99,580.663 1490.82,580.33 1489.5,580.5C 1489.62,578.516 1488.95,576.85 1487.5,575.5C 1481.11,570.403 1474.44,565.57 1467.5,561C 1458.54,558.357 1449.37,556.524 1440,555.5C 1434.13,554.393 1428.3,554.393 1422.5,555.5C 1422.08,554.876 1421.42,554.543 1420.5,554.5C 1415.01,555.075 1409.68,555.742 1404.5,556.5C 1401.81,556.336 1399.15,556.503 1396.5,557C 1395.58,557.278 1394.92,557.778 1394.5,558.5C 1390.11,560.428 1385.61,561.095 1381,560.5C 1379.47,561.217 1378.14,562.217 1377,563.5C 1376.5,563.333 1376,563.167 1375.5,563C 1371.06,549.968 1365.23,537.801 1358,526.5C 1357.25,525.365 1357.42,524.365 1358.5,523.5C 1365.42,520.437 1372.58,519.771 1380,521.5C 1384.67,520.306 1389.34,519.306 1394,518.5C 1394.77,518.645 1395.44,518.978 1396,519.5C 1414.66,516.347 1433.5,515.181 1452.5,516C 1462,517.893 1471.5,520.06 1481,522.5C 1489.84,526.674 1498.67,530.841 1507.5,535C 1513.84,539.346 1520.18,543.679 1526.5,548C 1532.8,556.288 1539.64,563.788 1547,570.5C 1561.56,598.253 1569.06,628.087 1569.5,660C 1567.35,694.951 1553.68,724.284 1528.5,748C 1521.57,752.964 1514.23,757.13 1506.5,760.5 Z"/></g>
<g><path style="opacity:1" fill="#fbfbfb" d="M 1552.5,614.5 C 1552.72,617.067 1553.39,619.401 1554.5,621.5C 1555.53,623.961 1556.2,626.627 1556.5,629.5C 1556.37,635.203 1556.71,640.87 1557.5,646.5C 1556.09,650.921 1555.42,655.588 1555.5,660.5C 1555.5,663.355 1555.84,666.022 1556.5,668.5C 1555.72,673.154 1554.88,677.821 1554,682.5C 1547.53,707.629 1534.2,728.296 1514,744.5C 1509.69,746.484 1505.53,748.651 1501.5,751C 1490.96,754.457 1480.63,757.957 1470.5,761.5C 1446.04,763.4 1421.71,762.567 1397.5,759C 1395.52,757.792 1393.35,756.959 1391,756.5C 1389.68,755.681 1388.51,754.681 1387.5,753.5C 1391.01,746.284 1393.01,738.617 1393.5,730.5C 1399.12,731.354 1404.79,731.687 1410.5,731.5C 1415.65,732.827 1420.99,733.827 1426.5,734.5C 1432.99,735.654 1439.65,735.821 1446.5,735C 1454.33,732.688 1462.33,731.355 1470.5,731C 1512.51,715.988 1530.51,686.322 1524.5,642C 1525.99,638.786 1525.66,635.786 1523.5,633C 1523.83,632.667 1524.17,632.333 1524.5,632C 1523.87,628.73 1523.2,625.563 1522.5,622.5C 1522.66,620.143 1522.5,617.81 1522,615.5C 1521.62,614.944 1521.12,614.611 1520.5,614.5C 1512.71,592.115 1499.38,573.615 1480.5,559C 1476.02,557.843 1471.85,556.01 1468,553.5C 1463.18,552.336 1458.35,551.336 1453.5,550.5C 1448.94,548.558 1443.94,547.892 1438.5,548.5C 1434.51,547.834 1430.35,547.501 1426,547.5C 1418.29,547.435 1410.79,548.101 1403.5,549.5C 1397.58,550.793 1391.58,551.626 1385.5,552C 1383.18,554.106 1380.52,554.772 1377.5,554C 1374.17,545.511 1370.17,537.344 1365.5,529.5C 1367.83,527.551 1370.33,527.218 1373,528.5C 1380.02,527.632 1387.02,526.632 1394,525.5C 1400.45,525.251 1406.95,525.251 1413.5,525.5C 1428.65,522.04 1443.98,521.873 1459.5,525C 1464.7,526.841 1470.04,528.174 1475.5,529C 1490.41,536.617 1505.07,544.45 1519.5,552.5C 1519.28,553.675 1519.61,554.675 1520.5,555.5C 1534.91,568.329 1544.74,583.996 1550,602.5C 1550.33,606.646 1551.16,610.646 1552.5,614.5 Z"/></g>
<g><path style="opacity:1" fill="#7e7e7e" d="M 1438.5,548.5 C 1426.82,548.473 1415.15,548.806 1403.5,549.5C 1410.79,548.101 1418.29,547.435 1426,547.5C 1430.35,547.501 1434.51,547.834 1438.5,548.5 Z"/></g>
<g><path style="opacity:1" fill="#777777" d="M 1438.5,548.5 C 1443.94,547.892 1448.94,548.558 1453.5,550.5C 1448.33,550.066 1443.33,549.4 1438.5,548.5 Z"/></g>
<g><path style="opacity:1" fill="#999999" d="M 1422.5,555.5 C 1416.55,556.363 1410.55,556.697 1404.5,556.5C 1409.68,555.742 1415.01,555.075 1420.5,554.5C 1421.42,554.543 1422.08,554.876 1422.5,555.5 Z"/></g>
<g><path style="opacity:1" fill="#1f1f1f" d="M 306.5,557.5 C 303.155,555.783 299.489,555.116 295.5,555.5C 287.334,554.67 279.001,554.004 270.5,553.5C 268.631,553.507 266.964,553.84 265.5,554.5C 257.47,554.478 249.47,554.978 241.5,556C 240.263,556.232 239.263,556.732 238.5,557.5C 231.839,560.31 225.505,563.81 219.5,568C 203.171,583.294 192.171,601.961 186.5,624C 186.735,624.873 187.069,625.707 187.5,626.5C 185.671,631.571 184.337,636.738 183.5,642C 183.724,660.827 187.89,678.66 196,695.5C 206.185,706.503 218.352,714.337 232.5,719C 242.825,720.582 253.159,722.082 263.5,723.5C 260.359,724.321 257.025,724.821 253.5,725C 252.5,726 251.5,727 250.5,728C 251.971,729.583 252.971,731.417 253.5,733.5C 246.911,732.25 240.244,731.416 233.5,731C 218.265,726.214 204.599,718.547 192.5,708C 185.17,698.837 179.836,688.671 176.5,677.5C 173.104,654.431 174.437,632.098 180.5,610.5C 185.684,598.245 192.184,586.579 200,575.5C 207.141,569.028 214.308,562.528 221.5,556C 223.5,555.667 225.5,555.333 227.5,555C 230.78,552.527 234.447,550.861 238.5,550C 250.163,548.812 261.83,547.645 273.5,546.5C 284.33,546.313 294.83,547.646 305,550.5C 308.839,542.663 312.672,534.83 316.5,527C 314.715,525.837 312.715,525.17 310.5,525C 303.813,524.715 297.147,524.215 290.5,523.5C 289.106,523.621 287.772,523.954 286.5,524.5C 261.927,519.902 237.927,522.402 214.5,532C 205.179,537.891 195.512,543.224 185.5,548C 180.994,552.839 176.161,557.339 171,561.5C 166.409,568.441 161.909,575.441 157.5,582.5C 154.53,587.402 152.53,592.736 151.5,598.5C 149.825,601.507 149.159,604.84 149.5,608.5C 145.968,615.282 143.968,622.616 143.5,630.5C 141.551,637.783 141.217,645.116 142.5,652.5C 143.111,660.544 144.111,668.544 145.5,676.5C 149.785,690.97 155.285,704.97 162,718.5C 169.446,728.612 178.279,737.446 188.5,745C 199.929,750.415 211.595,754.915 223.5,758.5C 216.82,757.534 210.153,757.534 203.5,758.5C 202.5,758.833 201.5,759.167 200.5,759.5C 201.127,760.417 201.461,761.417 201.5,762.5C 180.737,755.701 164.404,743.367 152.5,725.5C 149.459,719.31 146.126,713.31 142.5,707.5C 139.05,699.348 136.383,691.014 134.5,682.5C 134.57,678.575 133.903,674.909 132.5,671.5C 131.484,658.85 131.318,646.183 132,633.5C 132.66,630.322 133.493,627.322 134.5,624.5C 136.402,621.663 137.069,618.329 136.5,614.5C 136.635,609.435 137.969,604.768 140.5,600.5C 141.117,600.389 141.617,600.056 142,599.5C 142.497,597.19 142.663,594.857 142.5,592.5C 145.704,584.73 149.204,577.063 153,569.5C 156.518,567.484 158.851,564.484 160,560.5C 165.694,554.806 171.527,548.973 177.5,543C 181.193,541.286 184.859,539.619 188.5,538C 189.833,536.667 191.167,535.333 192.5,534C 196.5,532.333 200.5,530.667 204.5,529C 205.984,527.426 207.651,526.093 209.5,525C 220.049,521.362 230.716,518.362 241.5,516C 251.788,514.495 262.122,514.162 272.5,515C 284.137,516.328 295.803,517.328 307.5,518C 309.57,519.694 311.736,519.861 314,518.5C 317.707,520.052 321.54,521.219 325.5,522C 326.554,523.388 326.72,524.888 326,526.5C 321.102,531.278 317.435,536.945 315,543.5C 313.394,548.145 311.894,552.811 310.5,557.5C 309.042,558.782 307.708,558.782 306.5,557.5 Z"/></g>
<g><path style="opacity:1" fill="#959595" d="M 265.5,554.5 C 256.659,555.67 247.659,556.67 238.5,557.5C 239.263,556.732 240.263,556.232 241.5,556C 249.47,554.978 257.47,554.478 265.5,554.5 Z"/></g>
<g><path style="opacity:1" fill="#898989" d="M 295.5,555.5 C 299.489,555.116 303.155,555.783 306.5,557.5C 302.64,557.192 298.974,556.525 295.5,555.5 Z"/></g>
<g><path style="opacity:1" fill="#8f8f8f" d="M 1404.5,556.5 C 1401.34,557.434 1398.01,558.101 1394.5,558.5C 1394.92,557.778 1395.58,557.278 1396.5,557C 1399.15,556.503 1401.81,556.336 1404.5,556.5 Z"/></g>
<g><path style="opacity:1" fill="#6a6a6a" d="M 142.5,592.5 C 142.663,594.857 142.497,597.19 142,599.5C 141.617,600.056 141.117,600.389 140.5,600.5C 140.294,597.505 140.96,594.838 142.5,592.5 Z"/></g>
<g><path style="opacity:1" fill="#949494" d="M 151.5,598.5 C 151.678,602.122 151.011,605.456 149.5,608.5C 149.159,604.84 149.825,601.507 151.5,598.5 Z"/></g>
<g><path style="opacity:1" fill="#939393" d="M 1520.5,614.5 C 1521.12,614.611 1521.62,614.944 1522,615.5C 1522.5,617.81 1522.66,620.143 1522.5,622.5C 1521.47,620.039 1520.8,617.373 1520.5,614.5 Z"/></g>
<g><path style="opacity:1" fill="#9c9c9c" d="M 1552.5,614.5 C 1554.16,616.438 1554.83,618.772 1554.5,621.5C 1553.39,619.401 1552.72,617.067 1552.5,614.5 Z"/></g>
<g><path style="opacity:1" fill="#515151" d="M 136.5,614.5 C 137.069,618.329 136.402,621.663 134.5,624.5C 134.322,620.878 134.989,617.544 136.5,614.5 Z"/></g>
<g><path style="opacity:1" fill="#646464" d="M 143.5,630.5 C 143.763,634.6 143.43,638.6 142.5,642.5C 142.5,645.833 142.5,649.167 142.5,652.5C 141.217,645.116 141.551,637.783 143.5,630.5 Z"/></g>
<g><path style="opacity:1" fill="#818181" d="M 1556.5,629.5 C 1558.36,637.46 1558.69,645.46 1557.5,653.5C 1557.5,651.167 1557.5,648.833 1557.5,646.5C 1556.71,640.87 1556.37,635.203 1556.5,629.5 Z"/></g>
<g><path style="opacity:1" fill="#c4c4c4" d="M 1557.5,646.5 C 1557.5,648.833 1557.5,651.167 1557.5,653.5C 1557.59,658.537 1557.25,663.537 1556.5,668.5C 1555.84,666.022 1555.5,663.355 1555.5,660.5C 1555.42,655.588 1556.09,650.921 1557.5,646.5 Z"/></g>
<g><path style="opacity:1" fill="#424242" d="M 1515.5,646.5 C 1517.24,655.368 1516.58,664.035 1513.5,672.5C 1514.66,663.88 1515.33,655.213 1515.5,646.5 Z"/></g>
<g><path style="opacity:1" fill="#c7c7c7" d="M 142.5,642.5 C 144.371,653.611 145.371,664.945 145.5,676.5C 144.111,668.544 143.111,660.544 142.5,652.5C 142.5,649.167 142.5,645.833 142.5,642.5 Z"/></g>
<g><path style="opacity:1" fill="#686868" d="M 132.5,671.5 C 133.903,674.909 134.57,678.575 134.5,682.5C 133.097,679.091 132.43,675.425 132.5,671.5 Z"/></g>
<g><path style="opacity:1" fill="#797979" d="M 283.5,722.5 C 280.003,723.402 276.337,724.069 272.5,724.5C 270.265,724.795 268.265,724.461 266.5,723.5C 272.145,722.866 277.811,722.532 283.5,722.5 Z"/></g>
<g><path style="opacity:1" fill="#818181" d="M 1402.5,722.5 C 1410.06,722.228 1417.4,722.895 1424.5,724.5C 1416.95,724.594 1409.62,723.928 1402.5,722.5 Z"/></g>
<g><path style="opacity:1" fill="#101010" d="M 263.5,723.5 C 264.5,723.5 265.5,723.5 266.5,723.5C 268.265,724.461 270.265,724.795 272.5,724.5C 275.617,725.741 277.95,727.908 279.5,731C 277.277,731.566 275.277,732.4 273.5,733.5C 266.833,734.833 260.167,734.833 253.5,733.5C 252.971,731.417 251.971,729.583 250.5,728C 251.5,727 252.5,726 253.5,725C 257.025,724.821 260.359,724.321 263.5,723.5 Z"/></g>
<g><path style="opacity:1" fill="#7a7a7a" d="M 1436.5,724.5 C 1432.37,725.726 1428.37,725.726 1424.5,724.5C 1428.72,724.228 1432.72,724.228 1436.5,724.5 Z"/></g>
<g><path style="opacity:1" fill="#4f4f4f" d="M 1410.5,731.5 C 1416.32,730.933 1421.66,731.933 1426.5,734.5C 1420.99,733.827 1415.65,732.827 1410.5,731.5 Z"/></g>
<g><path style="opacity:1" fill="#070707" d="M 223.5,758.5 C 226.451,758.287 229.118,758.954 231.5,760.5C 232.209,761.404 233.209,761.737 234.5,761.5C 234.292,763.92 234.626,766.253 235.5,768.5C 234.311,769.429 232.978,769.762 231.5,769.5C 221.029,768.871 211.029,766.537 201.5,762.5C 201.461,761.417 201.127,760.417 200.5,759.5C 201.5,759.167 202.5,758.833 203.5,758.5C 210.153,757.534 216.82,757.534 223.5,758.5 Z"/></g>
<g><path style="opacity:1" fill="#1f1f1f" d="M 231.5,769.5 C 232.978,769.762 234.311,769.429 235.5,768.5C 234.626,766.253 234.292,763.92 234.5,761.5C 233.209,761.737 232.209,761.404 231.5,760.5C 254.914,762.189 278.248,761.522 301.5,758.5C 298.222,751.093 295.388,743.426 293,735.5C 292.451,733.24 291.284,731.574 289.5,730.5C 286.813,730.336 284.146,730.503 281.5,731C 280.944,731.383 280.611,731.883 280.5,732.5C 278.393,733.468 276.059,733.802 273.5,733.5C 275.277,732.4 277.277,731.566 279.5,731C 277.95,727.908 275.617,725.741 272.5,724.5C 276.337,724.069 280.003,723.402 283.5,722.5C 287.059,722.716 290.559,722.382 294,721.5C 297.939,721.606 300.106,723.606 300.5,727.5C 299.509,728.665 298.509,729.832 297.5,731C 298.078,732.811 298.578,734.645 299,736.5C 303.552,745.106 307.719,753.939 311.5,763C 285.095,769.861 258.429,772.028 231.5,769.5 Z"/></g>
<g><path style="opacity:1" fill="#777777" d="M 289.5,730.5 C 286.655,731.344 283.655,732.01 280.5,732.5C 280.611,731.883 280.944,731.383 281.5,731C 284.146,730.503 286.813,730.336 289.5,730.5 Z"/></g>
<g><path style="opacity:1" fill="#070707" d="M 1506.5,760.5 C 1493.79,766.178 1480.46,769.844 1466.5,771.5C 1464.3,766.583 1465.63,763.249 1470.5,761.5C 1476.49,760.647 1482.49,759.647 1488.5,758.5C 1493.35,759.6 1498.18,759.6 1503,758.5C 1504.7,758.387 1505.87,759.053 1506.5,760.5 Z"/></g>
</svg>
