<?xml version="1.0" standalone="no"?>
<!DOCTYPE svg PUBLIC "-//W3C//DTD SVG 20010904//EN"
 "http://www.w3.org/TR/2001/REC-SVG-20010904/DTD/svg10.dtd">
<svg version="1.0" xmlns="http://www.w3.org/2000/svg"
 width="1699.000000pt" height="271.000000pt" viewBox="0 0 1699.000000 271.000000"
 preserveAspectRatio="xMidYMid meet">

<g transform="translate(0.000000,271.000000) scale(0.100000,-0.100000)"
fill="#000000" stroke="none">
<path d="M2445 2619 c-22 -5 -77 -16 -122 -24 -94 -17 -203 -57 -250 -91 -17
-13 -38 -24 -47 -24 -8 0 -17 -4 -20 -8 -3 -4 -31 -21 -63 -37 -32 -15 -72
-39 -90 -52 -17 -13 -37 -23 -44 -23 -17 0 -229 -219 -229 -236 0 -7 -9 -18
-19 -23 -10 -6 -24 -23 -30 -38 -6 -16 -19 -41 -29 -58 -10 -16 -26 -52 -36
-80 -11 -27 -23 -56 -29 -63 -5 -7 -13 -29 -18 -50 -4 -20 -15 -57 -24 -82 -9
-24 -17 -57 -17 -73 -1 -15 -5 -30 -10 -33 -4 -3 -8 -22 -8 -43 0 -20 -4 -41
-8 -46 -16 -18 -33 -120 -33 -196 0 -137 11 -314 21 -354 6 -22 15 -56 19 -75
25 -110 121 -328 176 -397 6 -7 24 -31 40 -54 48 -67 139 -154 213 -202 59
-39 111 -63 293 -138 92 -37 250 -57 439 -54 182 2 380 19 410 35 9 5 25 9 36
9 10 -1 47 5 82 11 49 10 62 16 62 30 0 10 -24 65 -53 122 -72 141 -93 208
-67 208 12 0 13 40 2 56 -14 21 -42 23 -160 9 -153 -18 -216 -14 -456 26 -121
20 -274 106 -367 206 -42 46 -51 60 -98 163 -35 78 -62 234 -62 355 0 111 1
122 20 184 6 19 8 38 5 42 -16 26 107 322 142 342 8 4 14 15 14 23 0 21 30 59
117 146 120 122 205 172 310 182 26 3 93 10 148 16 137 14 336 4 449 -23 43
-10 49 -10 62 8 8 10 14 30 14 43 0 32 80 198 114 239 30 35 26 61 -10 68 -13
3 -36 8 -51 12 -33 8 -43 9 -188 22 -60 5 -132 14 -160 19 -64 13 -338 13
-390 1z m364 -73 c6 -4 32 -7 58 -7 74 0 294 -18 304 -25 5 -3 2 -17 -8 -32
-21 -32 -55 -99 -83 -166 -14 -33 -25 -46 -34 -43 -54 21 -117 28 -264 30
-286 3 -427 -22 -578 -106 -51 -28 -198 -181 -247 -256 -92 -141 -108 -170
-118 -206 -5 -19 -14 -37 -19 -40 -6 -4 -10 -17 -10 -30 0 -13 -4 -27 -10 -30
-5 -3 -10 -20 -10 -36 0 -17 -4 -38 -10 -48 -5 -10 -10 -38 -11 -62 -1 -24 -5
-48 -9 -54 -4 -5 -7 -28 -8 -50 0 -22 -1 -78 -2 -125 -2 -112 9 -252 21 -266
5 -7 16 -36 24 -66 31 -120 144 -261 274 -343 9 -5 34 -22 56 -36 62 -40 251
-98 315 -97 8 0 38 -5 66 -10 95 -20 220 -17 309 8 17 4 46 10 66 13 l37 5 17
-56 c16 -53 53 -143 76 -184 14 -28 11 -35 -18 -42 -134 -30 -605 -42 -673
-17 -19 7 -48 15 -63 17 -48 6 -238 75 -312 112 -144 71 -232 161 -353 357
-22 37 -49 99 -82 195 -18 52 -38 101 -43 108 -5 7 -7 15 -4 19 4 3 2 13 -3
22 -9 18 -15 68 -26 223 -8 110 -8 93 0 198 8 105 16 149 27 156 5 3 7 10 3
15 -3 5 -1 15 4 22 9 11 47 144 59 207 2 13 13 40 23 60 10 19 21 42 24 50 4
8 17 33 31 55 13 22 31 54 39 70 8 17 26 42 40 57 14 15 26 31 26 35 0 11 135
133 169 154 14 8 60 34 101 56 41 22 98 53 125 69 58 34 143 69 200 83 22 5
60 15 85 21 25 7 77 16 115 20 76 9 288 6 304 -4z"/>
<path d="M14165 2608 c-22 -5 -89 -13 -150 -19 -60 -5 -128 -11 -150 -14 -22
-3 -53 -6 -70 -5 -107 0 -134 -2 -165 -13 -19 -6 -39 -14 -44 -19 -5 -4 17
-61 51 -130 34 -68 68 -145 77 -173 10 -27 24 -60 32 -73 14 -21 17 -22 37 -9
13 8 47 18 77 22 30 4 71 13 90 20 120 42 526 38 670 -6 36 -12 110 -51 139
-75 85 -69 108 -89 120 -108 8 -11 20 -26 27 -32 13 -11 124 -171 124 -179 0
-2 16 -37 35 -77 20 -40 41 -93 47 -118 6 -25 15 -51 21 -57 6 -9 6 -18 -2
-27 -8 -9 -8 -16 -2 -20 5 -4 13 -30 16 -59 19 -149 10 -297 -26 -427 -41
-149 -93 -230 -202 -311 -118 -89 -194 -123 -317 -143 -258 -40 -229 -39 -385
-26 -60 6 -153 12 -206 15 -94 6 -96 6 -112 -19 -10 -14 -17 -35 -17 -46 0
-12 -20 -82 -45 -156 -54 -163 -52 -175 29 -199 30 -9 75 -18 98 -20 24 -2 57
-6 73 -9 17 -3 66 -10 110 -16 44 -6 105 -15 135 -20 30 -5 138 -7 240 -6 145
2 208 8 290 25 57 12 109 26 115 30 5 4 33 16 60 26 193 70 289 137 442 307
50 56 193 329 193 370 0 9 6 31 14 49 8 19 23 90 34 159 22 137 24 361 4 435
-6 22 -21 85 -32 140 -25 117 -53 210 -86 282 -13 28 -24 56 -24 62 0 6 -13
33 -30 61 -16 28 -30 54 -30 59 0 4 -11 18 -25 31 -14 13 -25 28 -25 34 0 6
-13 24 -29 41 -97 99 -140 142 -157 155 -30 24 -123 79 -209 123 -44 22 -87
46 -95 53 -30 24 -173 75 -243 85 -40 6 -81 16 -92 22 -25 15 -374 19 -430 5z
m420 -82 c123 -29 185 -46 202 -56 10 -5 34 -16 53 -24 19 -9 53 -26 75 -38
69 -40 179 -101 202 -113 58 -30 233 -211 233 -240 0 -3 10 -21 23 -38 40 -58
45 -67 78 -142 19 -43 49 -139 49 -157 0 -20 36 -133 51 -161 11 -20 24 -165
22 -252 -3 -210 -15 -302 -50 -385 -8 -19 -21 -55 -29 -80 -8 -25 -19 -54 -24
-65 -5 -11 -11 -30 -15 -42 -7 -24 -65 -129 -109 -194 -28 -42 -135 -153 -186
-194 -60 -48 -310 -151 -408 -169 -15 -3 -45 -10 -67 -17 -51 -16 -412 -17
-550 -1 -121 13 -223 38 -246 58 -15 13 -14 20 8 87 14 39 28 92 32 117 l6 45
80 -4 c80 -3 127 -10 220 -31 60 -14 177 -14 260 1 33 6 74 12 90 14 92 10
251 60 283 88 9 8 31 22 49 31 18 9 43 26 57 38 13 13 44 39 69 58 24 19 58
55 75 80 40 57 102 182 102 205 0 9 5 25 11 36 5 11 12 41 14 67 2 26 6 55 10
64 10 26 -1 291 -13 314 -6 12 -9 24 -6 27 7 7 -14 124 -31 167 -50 132 -61
158 -76 180 -9 14 -36 59 -59 100 -50 86 -232 274 -290 297 -19 8 -57 25 -85
38 -47 21 -116 36 -238 53 -95 13 -387 5 -454 -12 -33 -9 -77 -16 -98 -16 -20
0 -44 -4 -53 -9 -9 -5 -30 -11 -47 -12 -29 -4 -32 -1 -92 121 -34 68 -60 126
-58 128 2 2 36 6 75 8 39 2 97 8 128 13 31 6 116 13 187 16 72 4 146 10 165
14 52 12 306 3 375 -13z"/>
</g>
</svg>
