<?xml version="1.0" standalone="no"?>
<!DOCTYPE svg PUBLIC "-//W3C//DTD SVG 20010904//EN"
 "http://www.w3.org/TR/2001/REC-SVG-20010904/DTD/svg10.dtd">
<svg version="1.0" xmlns="http://www.w3.org/2000/svg"
 width="1699.000000pt" height="1180.000000pt" viewBox="0 0 1699.000000 1180.000000"
 preserveAspectRatio="xMidYMid meet">

<g transform="translate(0.000000,1180.000000) scale(0.100000,-0.100000)"
fill="#000000" stroke="none">
<path d="M300 2251 c-5 -11 -7 -111 -4 -247 2 -126 4 -313 4 -416 -1 -273 -2
-269 4 -440 2 -87 8 -162 11 -168 4 -6 1 -17 -5 -25 -6 -8 -9 -23 -5 -34 3
-12 8 -188 10 -392 2 -204 6 -373 9 -377 9 -9 107 -11 606 -13 530 -2 551 -1
569 10 11 7 13 54 13 237 -1 126 -3 247 -6 269 -3 22 -5 114 -6 205 -1 121 -6
172 -16 192 l-15 28 43 0 c24 0 855 0 1848 1 993 1 1882 1 1975 1 94 -1 393
-1 665 0 272 0 657 -1 855 -1 385 -1 6205 7 7693 12 887 2 892 2 892 -18 1
-11 3 -65 6 -120 2 -55 5 -251 6 -437 0 -185 3 -340 7 -345 3 -5 17 -17 30
-26 22 -14 71 -16 440 -18 521 -2 619 -1 653 6 24 6 27 11 30 68 3 34 3 260 1
502 -5 545 -5 547 4 730 13 255 3 779 -16 798 -12 12 -659 14 -6556 22 -1881
3 -4841 7 -6578 9 -3015 4 -3158 4 -3167 -13z m16221 -300 c1 -124 1 -287 1
-361 -1 -74 -2 -251 -2 -392 -1 -141 1 -261 4 -267 4 -5 1 -13 -5 -16 -5 -4
-7 -14 -4 -24 8 -20 8 -253 -1 -493 l-7 -178 -211 0 c-116 0 -323 -1 -461 -2
l-250 -3 0 142 c-1 78 -4 145 -7 149 -4 3 -3 17 3 30 5 14 11 153 13 309 l5
285 -28 0 c-15 0 -32 5 -38 11 -14 14 -723 18 -4773 24 -1669 3 -3310 6 -3645
7 -336 1 -615 -1 -621 -5 -7 -4 -202 -4 -435 -2 -233 3 -527 4 -654 3 -126 -1
-585 0 -1020 1 -2058 5 -2945 2 -2968 -10 -47 -26 -47 -28 -42 -309 3 -146 11
-310 17 -365 5 -55 12 -139 14 -187 l3 -87 -387 -1 c-213 -1 -434 -2 -492 -4
l-105 -2 -2 170 c-1 94 -5 263 -8 376 -4 113 -8 248 -10 300 -1 52 -5 151 -9
220 -3 69 -5 148 -4 175 1 28 2 197 2 378 l0 327 56 2 c30 0 62 1 70 0 37 -3
441 -3 3805 2 1964 3 5286 8 7384 11 2098 3 3816 6 3817 8 1 1 225 2 498 3
l495 1 2 -226z"/>
</g>
</svg>
