<?xml version="1.0" encoding="UTF-8"?>
<!DOCTYPE svg PUBLIC "-//W3C//DTD SVG 1.1//EN" "http://www.w3.org/Graphics/SVG/1.1/DTD/svg11.dtd">
<svg xmlns="http://www.w3.org/2000/svg" version="1.1" width="611px" height="611px" style="shape-rendering:geometricPrecision; text-rendering:geometricPrecision; image-rendering:optimizeQuality; fill-rule:evenodd; clip-rule:evenodd" xmlns:xlink="http://www.w3.org/1999/xlink">
<g><path style="opacity:0.704" fill="#000000" d="M 278.5,157.5 C 280.815,158.968 283.149,159.968 285.5,160.5C 286.086,160.291 286.586,159.957 287,159.5C 288.07,161.114 289.57,162.448 291.5,163.5C 293.705,162.626 295.538,163.292 297,165.5C 297.77,164.402 298.603,164.402 299.5,165.5C 302.558,167.132 305.891,168.299 309.5,169C 308.833,169.333 308.167,169.667 307.5,170C 309.392,170.973 311.392,171.64 313.5,172C 312.742,173.364 313.242,174.531 315,175.5C 315.333,174.833 315.667,174.167 316,173.5C 317.932,175.038 320.099,176.205 322.5,177C 321.398,180.06 322.398,180.893 325.5,179.5C 325.833,180.167 326.167,180.833 326.5,181.5C 327.167,181.167 327.833,180.833 328.5,180.5C 328.669,181.397 329.002,182.397 329.5,183.5C 331.075,184.456 332.742,185.123 334.5,185.5C 335.211,187.201 336.545,188.201 338.5,188.5C 339.209,189.404 340.209,189.737 341.5,189.5C 341.685,191.196 342.519,192.529 344,193.5C 344.667,190.833 345.333,190.833 346,193.5C 347.666,192.66 347.833,193.16 346.5,195C 350.529,197.99 354.529,200.323 358.5,202C 358.167,202.333 357.833,202.667 357.5,203C 360.066,205.96 363.066,208.46 366.5,210.5C 367.386,211.325 367.719,212.325 367.5,213.5C 368.873,213.343 370.207,213.51 371.5,214C 370.378,215.613 370.878,216.78 373,217.5C 373.333,217.167 373.667,216.833 374,216.5C 376.034,217.743 376.867,219.243 376.5,221C 377.833,221.333 379.167,221.667 380.5,222C 380.043,222.414 379.709,222.914 379.5,223.5C 380.729,224.281 382.062,224.781 383.5,225C 383.5,226 383.5,227 383.5,228C 384.244,229.039 385.244,229.539 386.5,229.5C 386.36,231.124 387.027,232.29 388.5,233C 388.167,233.333 387.833,233.667 387.5,234C 389.346,235.03 391.013,236.196 392.5,237.5C 391.957,237.56 391.624,237.893 391.5,238.5C 393.708,240.488 395.375,242.822 396.5,245.5C 397.421,247.269 398.588,248.935 400,250.5C 400.977,249.226 401.811,249.226 402.5,250.5C 401.711,250.783 401.044,251.283 400.5,252C 401.667,252.5 402.5,253.333 403,254.5C 403.333,254.167 403.667,253.833 404,253.5C 403.669,255.019 403.836,256.352 404.5,257.5C 408.127,263.333 411.793,268.333 415.5,272.5C 416.681,274.067 418.347,274.901 420.5,275C 421.833,275.667 421.833,276.333 420.5,277C 421.76,278.113 422.927,278.28 424,277.5C 424.956,278.579 425.789,279.745 426.5,281C 430.211,281.844 433.877,282.844 437.5,284C 437.167,284.333 436.833,284.667 436.5,285C 437.5,285.333 438.5,285.667 439.5,286C 445.171,286.745 450.671,287.245 456,287.5C 458.03,287.046 459.863,286.38 461.5,285.5C 464.6,283.564 467.6,281.897 470.5,280.5C 471.728,279.694 472.728,278.694 473.5,277.5C 473.897,278.525 474.563,278.692 475.5,278C 477.017,276.315 478.684,274.815 480.5,273.5C 479.975,272.808 479.308,272.308 478.5,272C 480.548,270.725 482.548,269.392 484.5,268C 482.071,267.549 481.904,266.715 484,265.5C 484.333,265.833 484.667,266.167 485,266.5C 485.519,261.954 487.019,257.787 489.5,254C 488.062,252.759 486.562,252.259 485,252.5C 485.96,249.755 484.793,248.255 481.5,248C 481.915,244.711 480.248,242.711 476.5,242C 476.833,241.667 477.167,241.333 477.5,241C 476.606,239.896 475.606,238.73 474.5,237.5C 474.672,236.508 474.338,235.842 473.5,235.5C 474.084,232.715 473.084,231.048 470.5,230.5C 468.935,228.515 468.268,225.848 468.5,222.5C 469.01,219.612 468.344,217.279 466.5,215.5C 467.288,212.566 467.954,209.566 468.5,206.5C 468.428,204.44 468.095,202.44 467.5,200.5C 467.846,199.304 468.346,199.304 469,200.5C 469.311,198.444 469.811,196.444 470.5,194.5C 470.376,193.893 470.043,193.56 469.5,193.5C 470.999,193.04 471.999,191.707 472.5,189.5C 474.788,188.285 475.455,186.619 474.5,184.5C 477.634,184.293 478.634,182.96 477.5,180.5C 478.833,180.167 480.167,179.833 481.5,179.5C 484.167,179.5 486.833,179.5 489.5,179.5C 490.209,180.404 491.209,180.737 492.5,180.5C 494.447,181.15 496.113,182.317 497.5,184C 498.793,184.49 500.127,184.657 501.5,184.5C 501.5,185.167 501.833,185.5 502.5,185.5C 503.755,187.641 505.422,188.307 507.5,187.5C 509.548,190.215 511.882,192.548 514.5,194.5C 515.768,197.606 517.268,200.606 519,203.5C 521.209,204.679 521.709,206.679 520.5,209.5C 520.667,210.833 520.833,212.167 521,213.5C 521.383,214.056 521.883,214.389 522.5,214.5C 522.423,215.75 521.756,216.583 520.5,217C 521.967,218.098 522.801,219.598 523,221.5C 527.642,218.113 532.475,217.78 537.5,220.5C 538.216,219.689 539.05,219.022 540,218.5C 545.921,220.296 551.588,222.63 557,225.5C 557.333,225.167 557.667,224.833 558,224.5C 558.278,225.416 558.778,226.082 559.5,226.5C 560.643,228.5 562.143,229.167 564,228.5C 564.75,229.126 565.584,229.626 566.5,230C 565.167,231 565.167,232 566.5,233C 568.019,232.669 569.352,232.836 570.5,233.5C 569.167,233.833 569.167,234.167 570.5,234.5C 571.209,235.404 572.209,235.737 573.5,235.5C 573.328,236.492 573.662,237.158 574.5,237.5C 575.209,238.404 576.209,238.737 577.5,238.5C 577.942,241.332 579.275,242.332 581.5,241.5C 582.222,242.551 583.222,243.218 584.5,243.5C 585.179,246.707 586.346,249.707 588,252.5C 588.75,253.126 589.584,253.626 590.5,254C 590.167,254.333 589.833,254.667 589.5,255C 592.43,261.585 593.097,268.418 591.5,275.5C 589.742,276.128 588.242,277.128 587,278.5C 586.692,277.692 586.192,277.025 585.5,276.5C 584.15,277.95 582.484,278.617 580.5,278.5C 579.01,276.72 577.01,276.054 574.5,276.5C 573.811,275.226 572.977,275.226 572,276.5C 570.974,273.307 568.808,271.974 565.5,272.5C 559.674,271.071 553.674,269.738 547.5,268.5C 545.616,268.716 543.949,269.383 542.5,270.5C 541.833,269.833 541.167,269.167 540.5,268.5C 537.571,269.756 534.738,271.09 532,272.5C 529.978,271.009 528.312,271.342 527,273.5C 523.106,271.705 520.273,272.705 518.5,276.5C 516.62,276.229 515.287,276.896 514.5,278.5C 513.833,278.5 513.5,278.833 513.5,279.5C 512.833,279.5 512.5,279.833 512.5,280.5C 511.5,280.833 510.833,281.5 510.5,282.5C 509.833,282.5 509.5,282.833 509.5,283.5C 508.833,283.5 508.5,283.833 508.5,284.5C 507.599,285.29 506.932,286.29 506.5,287.5C 505.833,287.5 505.5,287.833 505.5,288.5C 503.78,289.751 503.447,291.251 504.5,293C 502.519,293.605 502.185,294.605 503.5,296C 502.376,296.249 501.376,296.749 500.5,297.5C 500.475,299.63 499.975,301.63 499,303.5C 497.387,302.378 496.22,302.878 495.5,305C 495.64,306.597 495.64,308.097 495.5,309.5C 494.726,310.711 493.893,310.711 493,309.5C 491.887,310.76 491.72,311.927 492.5,313C 490.862,313.242 489.362,314.075 488,315.5C 487,317.5 486,319.5 485,321.5C 484.667,320.833 484.333,320.167 484,319.5C 483.667,320.833 483.333,322.167 483,323.5C 482.667,323.167 482.333,322.833 482,322.5C 481.5,323.667 480.667,324.5 479.5,325C 479.833,325.333 480.167,325.667 480.5,326C 479.24,327.113 478.073,327.28 477,326.5C 475.955,327.373 475.122,328.373 474.5,329.5C 473.778,329.918 473.278,330.584 473,331.5C 472.667,331.167 472.333,330.833 472,330.5C 471.71,332.111 470.877,333.444 469.5,334.5C 466.632,333.691 464.298,334.691 462.5,337.5C 459.966,337.259 458.3,338.259 457.5,340.5C 453.835,340.502 450.835,341.835 448.5,344.5C 447.833,344.5 447.5,344.833 447.5,345.5C 445.901,345.232 444.568,345.566 443.5,346.5C 441.451,346.706 441.117,347.539 442.5,349C 441.906,349.464 441.239,349.631 440.5,349.5C 440.44,348.957 440.107,348.624 439.5,348.5C 437.482,350.499 435.148,351.833 432.5,352.5C 431.508,352.328 430.842,352.662 430.5,353.5C 428.363,354.787 426.03,355.621 423.5,356C 424.833,356.667 424.833,357.333 423.5,358C 418.925,357.698 415.092,359.531 412,363.5C 410.403,363.36 408.903,363.36 407.5,363.5C 405.57,364.552 404.07,365.886 403,367.5C 400.226,366.809 397.726,367.475 395.5,369.5C 393.887,369.944 392.72,370.944 392,372.5C 389.502,371.402 387.002,371.568 384.5,373C 384.833,373.333 385.167,373.667 385.5,374C 379.969,374.449 374.302,375.449 368.5,377C 366.423,377.807 364.589,378.974 363,380.5C 358.928,379.949 354.761,379.949 350.5,380.5C 350.935,383.613 349.935,384.279 347.5,382.5C 346.353,382.818 345.519,383.484 345,384.5C 344.667,383.833 344.333,383.167 344,382.5C 331.461,385.675 318.627,387.842 305.5,389C 304.944,389.383 304.611,389.883 304.5,390.5C 298.697,389.913 293.197,390.58 288,392.5C 279.242,391.84 270.409,391.507 261.5,391.5C 252.436,391.515 243.602,392.182 235,393.5C 233,392.833 231,392.167 229,391.5C 215.579,392.49 202.079,392.823 188.5,392.5C 188.65,395.926 187.484,396.259 185,393.5C 183.286,394.925 181.953,394.592 181,392.5C 180.667,393.5 180.333,394.5 180,395.5C 178.27,394.26 176.437,393.26 174.5,392.5C 173.287,392.747 172.62,393.414 172.5,394.5C 171.167,394.5 169.833,394.5 168.5,394.5C 161.909,392.628 154.909,391.628 147.5,391.5C 145.44,391.572 143.44,391.905 141.5,392.5C 140.304,392.154 140.304,391.654 141.5,391C 139.19,390.503 136.857,390.337 134.5,390.5C 134.423,389.25 133.756,388.417 132.5,388C 130.05,386.94 127.717,386.773 125.5,387.5C 124.458,386.209 123.292,386.209 122,387.5C 121.383,386.551 121.549,385.718 122.5,385C 120.754,384.529 119.087,383.862 117.5,383C 116.216,382.316 115.049,382.483 114,383.5C 113.517,382.552 113.351,381.552 113.5,380.5C 112.5,380.5 111.5,380.5 110.5,380.5C 109.687,379.347 108.687,379.347 107.5,380.5C 106.808,379.975 106.308,379.308 106,378.5C 105.667,378.833 105.333,379.167 105,379.5C 104.481,376.508 102.981,375.508 100.5,376.5C 98.8752,373.933 96.7085,371.933 94,370.5C 93.6667,370.833 93.3333,371.167 93,371.5C 92.3333,370.167 91.6667,368.833 91,367.5C 90.6667,367.833 90.3333,368.167 90,368.5C 88.413,365.244 85.913,363.077 82.5,362C 83.8333,361.333 83.8333,360.667 82.5,360C 81.5509,359.383 80.7175,359.549 80,360.5C 78.887,359.24 78.7203,358.073 79.5,357C 78.6266,355.955 77.6266,355.122 76.5,354.5C 76.6716,353.508 76.3382,352.842 75.5,352.5C 74.1667,351.5 72.8333,350.5 71.5,349.5C 72.2389,349.631 72.9056,349.464 73.5,349C 70.197,345.646 67.8637,342.146 66.5,338.5C 65.011,338.467 63.6776,337.967 62.5,337C 63.1667,336.667 63.8333,336.333 64.5,336C 63.5984,333.798 62.5984,331.632 61.5,329.5C 59.3227,330.504 58.9893,329.838 60.5,327.5C 60.1543,326.304 59.6543,326.304 59,327.5C 58.5357,326.906 58.369,326.239 58.5,325.5C 59.229,323.457 58.729,321.457 57,319.5C 56.6667,320.167 56.3333,320.833 56,321.5C 52.7741,303.758 52.9407,286.092 56.5,268.5C 57.1174,268.389 57.6174,268.056 58,267.5C 58.2868,265.109 58.7868,262.776 59.5,260.5C 59.1667,259.833 58.8333,259.167 58.5,258.5C 59.4415,258.511 60.1081,258.011 60.5,257C 60.2645,256.127 59.9312,255.293 59.5,254.5C 60.6161,254.598 61.6161,254.098 62.5,253C 64.7401,246.446 67.4068,240.113 70.5,234C 70.1667,233.667 69.8333,233.333 69.5,233C 71.5922,232.047 71.9255,230.714 70.5,229C 71.9733,228.29 72.6399,227.124 72.5,225.5C 74.7081,223.875 75.5414,221.875 75,219.5C 75.6543,220.696 76.1543,220.696 76.5,219.5C 75.6744,218.549 75.5078,217.549 76,216.5C 77,217.833 78,217.833 79,216.5C 79.1953,214.793 79.1953,213.126 79,211.5C 79.3333,211.833 79.6667,212.167 80,212.5C 81.3333,211.167 82.6667,209.833 84,208.5C 84,207.167 84,205.833 84,204.5C 85.0084,204.018 86.175,203.852 87.5,204C 88.6405,203.259 88.6405,202.425 87.5,201.5C 88.2739,200.289 89.1072,200.289 90,201.5C 91.0591,199.341 92.5591,197.674 94.5,196.5C 96.4435,195.922 96.7768,194.922 95.5,193.5C 98.2314,193.774 100.231,192.441 101.5,189.5C 103.776,189.244 104.943,187.91 105,185.5C 106.749,186.299 108.082,185.632 109,183.5C 109.333,183.833 109.667,184.167 110,184.5C 111.397,182.93 112.897,181.596 114.5,180.5C 115.552,180.649 116.552,180.483 117.5,180C 118.591,178.45 119.924,177.283 121.5,176.5C 124.204,176.33 125.871,174.997 126.5,172.5C 127.458,172.047 128.292,171.381 129,170.5C 129.333,170.833 129.667,171.167 130,171.5C 131.667,170.5 133,169.167 134,167.5C 135.667,167.5 137.333,167.5 139,167.5C 139.75,166.874 140.584,166.374 141.5,166C 141.167,165.667 140.833,165.333 140.5,165C 143.83,163.184 147.164,162.184 150.5,162C 150.167,161.667 149.833,161.333 149.5,161C 151.676,160.837 153.509,160.004 155,158.5C 156.714,159.925 158.047,159.592 159,157.5C 160.388,158.554 161.888,158.72 163.5,158C 162.137,155.871 162.471,155.371 164.5,156.5C 169.095,155.345 173.762,154.512 178.5,154C 180.577,153.193 182.411,152.026 184,150.5C 184.333,151.167 184.667,151.833 185,152.5C 210.189,148.695 235.689,148.529 261.5,152C 266.296,153.727 271.129,155.227 276,156.5C 276.333,156.167 276.667,155.833 277,155.5C 277.278,156.416 277.778,157.082 278.5,157.5 Z M 237.5,163.5 C 245.9,163.297 253.9,164.297 261.5,166.5C 260.494,167.396 260.494,168.062 261.5,168.5C 263.316,167.265 264.983,167.265 266.5,168.5C 267.552,168.351 268.552,168.517 269.5,169C 268.304,169.654 268.304,170.154 269.5,170.5C 272.048,168.815 274.048,169.148 275.5,171.5C 276.75,171.577 277.583,172.244 278,173.5C 280.796,172.266 282.963,172.933 284.5,175.5C 285.791,175.263 286.791,175.596 287.5,176.5C 288.167,176.833 288.833,177.167 289.5,177.5C 292.365,177.992 294.365,178.992 295.5,180.5C 295.833,181.833 296.167,181.833 296.5,180.5C 298.721,181.224 301.054,182.224 303.5,183.5C 303.291,184.086 302.957,184.586 302.5,185C 305.5,186 308.5,187 311.5,188C 310.167,188.667 310.167,189.333 311.5,190C 313.653,190.099 315.319,190.933 316.5,192.5C 318.972,193.962 321.639,195.128 324.5,196C 323.289,196.893 323.289,197.726 324.5,198.5C 326.064,197.814 327.731,197.981 329.5,199C 333.035,201.201 335.868,204.035 338,207.5C 338.333,207.167 338.667,206.833 339,206.5C 339.333,207.833 339.667,209.167 340,210.5C 341.049,209.483 342.216,209.316 343.5,210C 344.085,211.302 344.751,212.469 345.5,213.5C 345.369,212.761 345.536,212.094 346,211.5C 346.934,212.858 347.768,214.192 348.5,215.5C 349.032,218.46 349.699,218.793 350.5,216.5C 353.324,216.989 354.657,218.656 354.5,221.5C 358.098,223.279 360.598,225.612 362,228.5C 363.184,226.346 364.35,226.68 365.5,229.5C 364.145,230.675 364.312,231.675 366,232.5C 367.184,230.346 368.35,230.68 369.5,233.5C 369.291,234.086 368.957,234.586 368.5,235C 370.074,235.353 371.741,236.02 373.5,237C 373.5,238 373.5,239 373.5,240C 374.938,240.219 376.271,240.719 377.5,241.5C 376.145,242.675 376.312,243.675 378,244.5C 378.333,244.167 378.667,243.833 379,243.5C 380.562,246.063 382.728,247.896 385.5,249C 385.167,249.333 384.833,249.667 384.5,250C 387.883,251.38 389.716,253.88 390,257.5C 390.333,257.167 390.667,256.833 391,256.5C 392.544,258.468 393.711,260.635 394.5,263C 393.346,263.914 393.513,264.747 395,265.5C 395.333,265.167 395.667,264.833 396,264.5C 397.41,268.236 398.91,271.902 400.5,275.5C 401.492,275.328 402.158,275.662 402.5,276.5C 403.338,276.842 403.672,277.508 403.5,278.5C 407.791,281.123 411.457,284.456 414.5,288.5C 416.632,288.554 417.965,289.554 418.5,291.5C 420.478,291.738 422.145,293.071 423.5,295.5C 423.897,294.475 424.563,294.308 425.5,295C 427.369,296.501 429.203,298.001 431,299.5C 431.725,298.941 432.558,298.608 433.5,298.5C 434.068,300.042 435.735,300.875 438.5,301C 442.373,301.27 446.206,301.77 450,302.5C 451.646,300.859 452.646,301.193 453,303.5C 456.549,301.817 460.383,300.817 464.5,300.5C 466.529,301.629 466.863,301.129 465.5,299C 468.478,298.304 471.478,297.804 474.5,297.5C 474.5,296.5 474.5,295.5 474.5,294.5C 475.822,294.33 476.989,294.663 478,295.5C 478.962,292.039 481.128,289.705 484.5,288.5C 484.897,289.525 485.563,289.692 486.5,289C 487.774,288.023 487.774,287.189 486.5,286.5C 487.37,284.401 488.703,284.068 490.5,285.5C 491.711,284.726 491.711,283.893 490.5,283C 491.163,281.482 492.163,280.315 493.5,279.5C 493.56,280.043 493.893,280.376 494.5,280.5C 495.773,279.743 495.773,279.077 494.5,278.5C 495.469,274.564 497.469,271.231 500.5,268.5C 500.291,267.914 499.957,267.414 499.5,267C 502.415,260.773 503.082,254.273 501.5,247.5C 502.043,247.44 502.376,247.107 502.5,246.5C 501.743,245.227 501.077,245.227 500.5,246.5C 498.304,246.435 496.304,245.768 494.5,244.5C 495.891,242.064 495.391,241.398 493,242.5C 490.724,240.693 490.557,239.193 492.5,238C 491.756,236.961 490.756,236.461 489.5,236.5C 489.167,235.833 488.833,235.167 488.5,234.5C 486.566,232.762 486.233,230.929 487.5,229C 486.151,228.228 485.318,227.061 485,225.5C 484.667,225.833 484.333,226.167 484,226.5C 481.149,217.593 480.816,208.593 483,199.5C 484.909,198.436 486.409,196.436 487.5,193.5C 491.377,194.69 495.377,196.524 499.5,199C 506.024,204.345 508.691,210.679 507.5,218C 509.732,223.566 510.065,229.233 508.5,235C 509.973,235.71 510.64,236.876 510.5,238.5C 513.885,239.628 517.219,239.628 520.5,238.5C 520.285,236.821 520.952,235.821 522.5,235.5C 522.238,234.022 522.571,232.689 523.5,231.5C 529.188,230.254 535.188,230.254 541.5,231.5C 543.569,231.824 543.902,232.658 542.5,234C 543.449,234.617 544.282,234.451 545,233.5C 545.317,235.301 545.984,235.634 547,234.5C 550.477,235.966 553.31,237.466 555.5,239C 555.167,239.333 554.833,239.667 554.5,240C 557.431,241.027 560.098,242.527 562.5,244.5C 563.262,245.628 563.929,246.795 564.5,248C 566.058,248.21 567.391,248.71 568.5,249.5C 570.233,250.008 570.566,250.841 569.5,252C 570.5,252.333 571.5,252.667 572.5,253C 571.549,253.718 571.383,254.551 572,255.5C 573,255.833 574,256.167 575,256.5C 576.079,259.063 576.579,261.729 576.5,264.5C 571.27,263.457 566.27,261.79 561.5,259.5C 560.914,259.709 560.414,260.043 560,260.5C 556.003,260.068 552.17,259.068 548.5,257.5C 546.941,258.074 545.441,258.74 544,259.5C 543.667,258.833 543.333,258.167 543,257.5C 539.795,259.181 536.295,260.181 532.5,260.5C 531.914,260.291 531.414,259.957 531,259.5C 529.312,261.045 527.312,262.045 525,262.5C 524.667,261.833 524.333,261.167 524,260.5C 522.584,263.195 520.584,263.861 518,262.5C 517.517,263.448 517.351,264.448 517.5,265.5C 515.194,265.993 512.861,266.326 510.5,266.5C 510.649,267.552 510.483,268.552 510,269.5C 507.791,270.92 505.791,272.587 504,274.5C 503.667,274.167 503.333,273.833 503,273.5C 502.033,274.678 501.533,276.011 501.5,277.5C 500.092,278.243 498.759,279.077 497.5,280C 497.734,283.485 496.067,286.152 492.5,288C 493.841,291.64 492.507,293.974 488.5,295C 489.535,296.507 489.368,298.007 488,299.5C 486.703,298.216 485.536,298.383 484.5,300C 485.167,300.333 485.833,300.667 486.5,301C 484.266,301.969 482.266,303.302 480.5,305C 481.094,305.464 481.761,305.631 482.5,305.5C 482.167,306.5 481.5,307.167 480.5,307.5C 479.106,309.708 477.106,311.208 474.5,312C 473.748,312.671 473.414,313.504 473.5,314.5C 471.265,315.227 469.931,316.227 469.5,317.5C 470.679,319.507 470.179,319.84 468,318.5C 467.641,321.544 466.974,321.878 466,319.5C 465.5,320.667 464.667,321.5 463.5,322C 463.833,322.333 464.167,322.667 464.5,323C 462.324,323.163 460.491,323.996 459,325.5C 458.086,324.346 457.253,324.513 456.5,326C 456.833,326.333 457.167,326.667 457.5,327C 453.138,327.958 449.138,329.791 445.5,332.5C 444.914,332.291 444.414,331.957 444,331.5C 442.406,332.716 440.906,334.049 439.5,335.5C 426.8,341.568 414.133,347.735 401.5,354C 391.687,357.351 381.687,358.518 371.5,357.5C 370.833,356.167 370.167,356.167 369.5,357.5C 351.303,358.148 333.137,358.814 315,359.5C 304.19,357.601 293.523,357.601 283,359.5C 282.329,358.748 281.496,358.414 280.5,358.5C 280.389,359.117 280.056,359.617 279.5,360C 272.508,360.5 265.508,360.666 258.5,360.5C 252.69,361.49 246.69,361.823 240.5,361.5C 231.271,362.032 221.771,362.699 212,363.5C 210.318,363.193 208.652,362.86 207,362.5C 205.715,362.95 204.548,363.617 203.5,364.5C 176.153,362.85 148.82,361.85 121.5,361.5C 114.385,360.981 107.552,360.981 101,361.5C 97.8345,360.723 95.3345,359.056 93.5,356.5C 94.8333,355.833 94.8333,355.167 93.5,354.5C 92.8333,353.167 92.1667,353.167 91.5,354.5C 89.413,353.224 87.413,351.724 85.5,350C 86.5738,347.03 85.4072,345.197 82,344.5C 82.6526,341.3 81.1526,339.634 77.5,339.5C 77.67,338.178 77.3366,337.011 76.5,336C 84.4641,327.563 94.2975,323.397 106,323.5C 116.959,325.03 127.459,328.03 137.5,332.5C 141.17,332.167 142.67,330.167 142,326.5C 123.308,315.658 103.808,313.825 83.5,321C 79.5422,323.234 76.0422,326.067 73,329.5C 72.2904,328.027 71.1238,327.36 69.5,327.5C 69.2785,324.933 68.6118,322.599 67.5,320.5C 66.4253,319.287 65.7586,317.787 65.5,316C 64.9355,311.018 64.6022,306.018 64.5,301C 64.9733,295.558 64.9733,290.225 64.5,285C 65.4614,280.062 66.4614,275.229 67.5,270.5C 68.35,266.438 69.5167,262.438 71,258.5C 71.3333,258.833 71.6667,259.167 72,259.5C 72.0604,256.125 73.2271,253.292 75.5,251C 75.0426,250.586 74.7093,250.086 74.5,249.5C 75.9242,247.709 77.2576,245.875 78.5,244C 77.359,241.298 78.359,239.631 81.5,239C 81.0426,238.586 80.7093,238.086 80.5,237.5C 81.5622,236.23 82.5622,235.063 83.5,234C 81.3143,233.396 81.1476,232.23 83,230.5C 84.8402,231.833 85.3402,231.666 84.5,230C 86.1981,228.597 86.6981,226.764 86,224.5C 86.3333,223.833 86.6667,223.167 87,222.5C 89.3909,223.602 89.8909,222.936 88.5,220.5C 89.548,219.452 90.548,218.452 91.5,217.5C 92.6226,218.757 93.2893,218.424 93.5,216.5C 94.8333,216.167 94.8333,215.833 93.5,215.5C 93.5394,214.417 93.8728,213.417 94.5,212.5C 98.1899,210.129 101.523,207.462 104.5,204.5C 104.833,207.167 105.167,207.167 105.5,204.5C 106.857,203.41 107.857,202.076 108.5,200.5C 109.262,198.738 110.596,197.738 112.5,197.5C 113.623,198.757 114.289,198.424 114.5,196.5C 115.833,196.167 115.833,195.833 114.5,195.5C 115.635,193.912 116.969,193.579 118.5,194.5C 120.043,191.721 122.377,189.887 125.5,189C 125.167,188.667 124.833,188.333 124.5,188C 130.484,185.394 136.151,182.561 141.5,179.5C 143.679,178.323 146.013,177.323 148.5,176.5C 149.209,175.596 150.209,175.263 151.5,175.5C 154.298,172.286 157.965,170.953 162.5,171.5C 162.389,170.883 162.056,170.383 161.5,170C 166.292,168.079 171.125,167.579 176,168.5C 176.483,167.552 176.649,166.552 176.5,165.5C 178.144,165.286 179.644,165.62 181,166.5C 183.804,164.656 186.97,163.989 190.5,164.5C 198.912,162.591 207.578,161.591 216.5,161.5C 222.468,161.568 228.301,162.234 234,163.5C 235.261,163.241 236.261,162.574 237,161.5C 237.464,162.094 237.631,162.761 237.5,163.5 Z M 473.5,314.5 C 476.603,313.203 476.937,313.536 474.5,315.5C 473.893,315.376 473.56,315.043 473.5,314.5 Z M 91.5,354.5 C 92.1667,354.5 92.8333,354.5 93.5,354.5C 93.5,355.167 93.5,355.833 93.5,356.5C 92.5,356.167 91.8333,355.5 91.5,354.5 Z M 302.5,369.5 C 298.353,370.325 294.019,370.825 289.5,371C 288.166,372.166 286.5,372.333 284.5,371.5C 277.921,372.968 271.254,373.801 264.5,374C 251.513,374.23 238.846,374.73 226.5,375.5C 224.618,374.907 222.785,374.24 221,373.5C 202.826,375.163 184.493,376.163 166,376.5C 163.084,374.987 160.418,375.32 158,377.5C 156.921,375.606 155.587,375.273 154,376.5C 150.33,376.055 146.83,375.055 143.5,373.5C 137,372.943 129.666,372.943 121.5,373.5C 119.578,373.199 117.912,372.533 116.5,371.5C 113.14,371.045 110.806,369.879 109.5,368C 122.829,367.974 136.163,368.307 149.5,369C 149.167,369.333 148.833,369.667 148.5,370C 150.101,370.273 151.601,370.773 153,371.5C 179,370.167 205,370.167 231,371.5C 232.815,370.756 234.648,370.089 236.5,369.5C 264.428,366.899 292.762,366.066 321.5,367C 315.402,368.997 309.069,369.83 302.5,369.5 Z M 320.5,374.5 C 323.85,374.335 327.183,374.502 330.5,375C 320.373,377.375 310.04,378.875 299.5,379.5C 299.5,378.5 299.5,377.5 299.5,376.5C 306.711,376.542 313.711,375.875 320.5,374.5 Z M 286.5,379.5 C 290.311,378.355 294.311,378.188 298.5,379C 294.407,379.855 290.407,380.022 286.5,379.5 Z M 286.5,379.5 C 286.389,380.117 286.056,380.617 285.5,381C 275.5,381.667 265.5,381.667 255.5,381C 266.051,380.4 276.385,379.9 286.5,379.5 Z M 165.5,383.5 C 168.001,383.511 168.168,384.178 166,385.5C 165.536,384.906 165.369,384.239 165.5,383.5 Z"/></g>
<g><path style="opacity:0.004" fill="#000000" d="M 278.5,157.5 C 278.369,156.761 278.536,156.094 279,155.5C 279.692,156.437 279.525,157.103 278.5,157.5 Z"/></g>
<g><path style="opacity:0.004" fill="#000000" d="M 299.5,164.5 C 300.833,165.167 300.833,165.167 299.5,164.5 Z"/></g>
<g><path style="opacity:0.004" fill="#000000" d="M 130.5,168.5 C 131.833,169.167 131.833,169.167 130.5,168.5 Z"/></g>
<g><path style="opacity:0.008" fill="#000000" d="M 126.5,172.5 C 125.833,171.167 125.833,171.167 126.5,172.5 Z"/></g>
<g><path style="opacity:0.008" fill="#000000" d="M 125.5,172.5 C 124.833,173.167 124.833,173.167 125.5,172.5 Z"/></g>
<g><path style="opacity:0.016" fill="#000000" d="M 121.5,176.5 C 120.833,175.167 120.833,175.167 121.5,176.5 Z"/></g>
<g><path style="opacity:0.004" fill="#000000" d="M 481.5,179.5 C 480.475,179.103 480.308,178.437 481,177.5C 481.464,178.094 481.631,178.761 481.5,179.5 Z"/></g>
<g><path style="opacity:0.004" fill="#000000" d="M 489.5,178.5 C 490.833,179.167 490.833,179.167 489.5,178.5 Z"/></g>
<g><path style="opacity:0.008" fill="#000000" d="M 114.5,180.5 C 113.833,179.167 113.833,179.167 114.5,180.5 Z"/></g>
<g><path style="opacity:0.004" fill="#000000" d="M 492.5,180.5 C 492.897,179.475 493.563,179.308 494.5,180C 493.906,180.464 493.239,180.631 492.5,180.5 Z"/></g>
<g><path style="opacity:0.004" fill="#000000" d="M 477.5,180.5 C 476.833,181.167 476.833,181.167 477.5,180.5 Z"/></g>
<g><path style="opacity:0.004" fill="#000000" d="M 498.5,181.5 C 497.833,180.167 497.833,180.167 498.5,181.5 Z"/></g>
<g><path style="opacity:0.004" fill="#000000" d="M 109.5,181.5 C 110.833,182.167 110.833,182.167 109.5,181.5 Z"/></g>
<g><path style="opacity:0.004" fill="#000000" d="M 498.5,181.5 C 499.525,181.897 499.692,182.563 499,183.5C 498.536,182.906 498.369,182.239 498.5,181.5 Z"/></g>
<g><path style="opacity:0.004" fill="#000000" d="M 334.5,184.5 C 333.833,183.167 333.833,183.167 334.5,184.5 Z"/></g>
<g><path style="opacity:0.004" fill="#000000" d="M 474.5,184.5 C 473.833,183.167 473.833,183.167 474.5,184.5 Z"/></g>
<g><path style="opacity:0.004" fill="#000000" d="M 501.5,184.5 C 502.497,183.287 503.497,183.454 504.5,185C 503.906,185.464 503.239,185.631 502.5,185.5C 501.833,185.5 501.5,185.167 501.5,184.5 Z"/></g>
<g><path style="opacity:0.004" fill="#000000" d="M 334.5,184.5 C 335.833,185.167 335.833,185.167 334.5,184.5 Z"/></g>
<g><path style="opacity:0.004" fill="#000000" d="M 472.5,185.5 C 473.833,186.167 473.833,186.167 472.5,185.5 Z"/></g>
<g><path style="opacity:0.004" fill="#000000" d="M 506.5,185.5 C 507.833,186.167 507.833,186.167 506.5,185.5 Z"/></g>
<g><path style="opacity:0.004" fill="#000000" d="M 101.5,187.5 C 102.833,188.167 102.833,188.167 101.5,187.5 Z"/></g>
<g><path style="opacity:0.004" fill="#000000" d="M 338.5,187.5 C 339.833,188.167 339.833,188.167 338.5,187.5 Z"/></g>
<g><path style="opacity:0.004" fill="#000000" d="M 101.5,188.5 C 101.5,188.833 101.5,189.167 101.5,189.5C 100.83,189.019 100.83,188.685 101.5,188.5 Z"/></g>
<g><path style="opacity:0.004" fill="#000000" d="M 341.5,188.5 C 342.833,189.167 342.833,189.167 341.5,188.5 Z"/></g>
<g><path style="opacity:0.004" fill="#000000" d="M 472.5,189.5 C 471.833,188.167 471.833,188.167 472.5,189.5 Z"/></g>
<g><path style="opacity:0.004" fill="#000000" d="M 511.5,189.5 C 510.833,188.167 510.833,188.167 511.5,189.5 Z"/></g>
<g><path style="opacity:0.004" fill="#000000" d="M 511.5,189.5 C 512.833,190.167 512.833,190.167 511.5,189.5 Z"/></g>
<g><path style="opacity:0.004" fill="#000000" d="M 514.5,194.5 C 514.511,191.999 515.178,191.832 516.5,194C 515.906,194.464 515.239,194.631 514.5,194.5 Z"/></g>
<g><path style="opacity:0.004" fill="#000000" d="M 348.5,193.5 C 349.833,194.167 349.833,194.167 348.5,193.5 Z"/></g>
<g><path style="opacity:0.004" fill="#000000" d="M 469.5,193.5 C 468.833,194.167 468.833,194.167 469.5,193.5 Z"/></g>
<g><path style="opacity:0.004" fill="#000000" d="M 94.5,196.5 C 93.7611,196.631 93.0944,196.464 92.5,196C 93.4368,195.308 94.1034,195.475 94.5,196.5 Z"/></g>
<g><path style="opacity:0.004" fill="#000000" d="M 349.5,195.5 C 350.833,196.167 350.833,196.167 349.5,195.5 Z"/></g>
<g><path style="opacity:0.004" fill="#000000" d="M 113.5,196.5 C 113.833,196.5 114.167,196.5 114.5,196.5C 114.289,198.424 113.623,198.757 112.5,197.5C 113.167,197.5 113.5,197.167 113.5,196.5 Z"/></g>
<g><path style="opacity:0.004" fill="#000000" d="M 353.5,197.5 C 352.833,196.167 352.833,196.167 353.5,197.5 Z"/></g>
<g><path style="opacity:0.004" fill="#000000" d="M 516.5,196.5 C 517.833,197.167 517.833,197.167 516.5,196.5 Z"/></g>
<g><path style="opacity:0.004" fill="#000000" d="M 353.5,197.5 C 354.833,198.167 354.833,198.167 353.5,197.5 Z"/></g>
<g><path style="opacity:0.638" fill="#000000" d="M 133.5,212.5 C 135.199,212.34 136.866,212.506 138.5,213C 147.277,224.056 158.611,229.722 172.5,230C 173.78,232.132 173.78,234.298 172.5,236.5C 165.249,237.609 158.249,236.609 151.5,233.5C 145.39,229.674 139.89,225.008 135,219.5C 133.798,217.323 133.298,214.989 133.5,212.5 Z"/></g>
<g><path style="opacity:0.004" fill="#000000" d="M 522.5,213.5 C 523.833,214.167 523.833,214.167 522.5,213.5 Z"/></g>
<g><path style="opacity:0.004" fill="#000000" d="M 348.5,215.5 C 348.833,215.5 349.167,215.5 349.5,215.5C 349.5,216.167 349.833,216.5 350.5,216.5C 349.699,218.793 349.032,218.46 348.5,215.5 Z"/></g>
<g><path style="opacity:0.004" fill="#000000" d="M 466.5,215.5 C 465.833,216.167 465.833,216.167 466.5,215.5 Z"/></g>
<g><path style="opacity:0.004" fill="#000000" d="M 92.5,216.5 C 92.8333,216.5 93.1667,216.5 93.5,216.5C 93.2893,218.424 92.6226,218.757 91.5,217.5C 92.1667,217.5 92.5,217.167 92.5,216.5 Z"/></g>
<g><path style="opacity:0.004" fill="#000000" d="M 72.5,221.5 C 73.8333,222.167 73.8333,222.167 72.5,221.5 Z"/></g>
<g><path style="opacity:0.008" fill="#000000" d="M 468.5,222.5 C 467.833,223.167 467.833,223.167 468.5,222.5 Z"/></g>
<g><path style="opacity:0.004" fill="#000000" d="M 72.5,225.5 C 71.8333,224.167 71.8333,224.167 72.5,225.5 Z"/></g>
<g><path style="opacity:0.004" fill="#000000" d="M 559.5,225.5 C 560.833,226.167 560.833,226.167 559.5,225.5 Z"/></g>
<g><path style="opacity:0.004" fill="#000000" d="M 561.5,226.5 C 562.833,227.167 562.833,227.167 561.5,226.5 Z"/></g>
<g><path style="opacity:0.004" fill="#000000" d="M 386.5,228.5 C 387.833,229.167 387.833,229.167 386.5,228.5 Z"/></g>
<g><path style="opacity:0.004" fill="#000000" d="M 470.5,230.5 C 469.833,231.167 469.833,231.167 470.5,230.5 Z"/></g>
<g><path style="opacity:0.004" fill="#000000" d="M 567.5,230.5 C 568.833,231.167 568.833,231.167 567.5,230.5 Z"/></g>
<g><path style="opacity:0.004" fill="#000000" d="M 67.5,233.5 C 68.8333,234.167 68.8333,234.167 67.5,233.5 Z"/></g>
<g><path style="opacity:0.004" fill="#000000" d="M 390.5,233.5 C 391.833,234.167 391.833,234.167 390.5,233.5 Z"/></g>
<g><path style="opacity:0.004" fill="#000000" d="M 471.5,233.5 C 472.833,234.167 472.833,234.167 471.5,233.5 Z"/></g>
<g><path style="opacity:0.004" fill="#000000" d="M 570.5,234.5 C 570.5,234.167 570.5,233.833 570.5,233.5C 573.167,233.833 573.167,234.167 570.5,234.5 Z"/></g>
<g><path style="opacity:0.012" fill="#000000" d="M 573.5,234.5 C 574.833,235.167 574.833,235.167 573.5,234.5 Z"/></g>
<g><path style="opacity:0.004" fill="#000000" d="M 473.5,235.5 C 472.833,236.167 472.833,236.167 473.5,235.5 Z"/></g>
<g><path style="opacity:0.004" fill="#000000" d="M 66.5,236.5 C 67.8333,237.167 67.8333,237.167 66.5,236.5 Z"/></g>
<g><path style="opacity:0.004" fill="#000000" d="M 574.5,236.5 C 575.833,237.167 575.833,237.167 574.5,236.5 Z"/></g>
<g><path style="opacity:0.004" fill="#000000" d="M 392.5,237.5 C 393.833,238.167 393.833,238.167 392.5,237.5 Z"/></g>
<g><path style="opacity:0.008" fill="#000000" d="M 474.5,237.5 C 473.833,238.167 473.833,238.167 474.5,237.5 Z"/></g>
<g><path style="opacity:0.012" fill="#000000" d="M 578.5,238.5 C 577.833,237.167 577.833,237.167 578.5,238.5 Z"/></g>
<g><path style="opacity:0.004" fill="#000000" d="M 394.5,238.5 C 395.833,239.167 395.833,239.167 394.5,238.5 Z"/></g>
<g><path style="opacity:0.004" fill="#000000" d="M 578.5,238.5 C 579.833,239.167 579.833,239.167 578.5,238.5 Z"/></g>
<g><path style="opacity:0.68" fill="#000000" d="M 139.5,239.5 C 140.922,239.709 142.255,240.209 143.5,241C 145.167,244 147.5,246.333 150.5,248C 155.042,246.743 159.708,246.077 164.5,246C 165.769,248.139 165.769,250.305 164.5,252.5C 152.693,259.619 143.859,256.953 138,244.5C 137.387,242.505 137.887,240.838 139.5,239.5 Z"/></g>
<g><path style="opacity:0.008" fill="#000000" d="M 581.5,241.5 C 580.833,240.167 580.833,240.167 581.5,241.5 Z"/></g>
<g><path style="opacity:0.004" fill="#000000" d="M 395.5,241.5 C 396.833,242.167 396.833,242.167 395.5,241.5 Z"/></g>
<g><path style="opacity:0.004" fill="#000000" d="M 63.5,242.5 C 64.8333,243.167 64.8333,243.167 63.5,242.5 Z"/></g>
<g><path style="opacity:0.004" fill="#000000" d="M 584.5,242.5 C 585.833,243.167 585.833,243.167 584.5,242.5 Z"/></g>
<g><path style="opacity:0.004" fill="#000000" d="M 477.5,243.5 C 478.833,244.167 478.833,244.167 477.5,243.5 Z"/></g>
<g><path style="opacity:0.004" fill="#000000" d="M 396.5,244.5 C 397.833,245.167 397.833,245.167 396.5,244.5 Z"/></g>
<g><path style="opacity:0.004" fill="#000000" d="M 62.5,245.5 C 63.8333,246.167 63.8333,246.167 62.5,245.5 Z"/></g>
<g><path style="opacity:0.004" fill="#000000" d="M 399.5,246.5 C 398.833,245.167 398.833,245.167 399.5,246.5 Z"/></g>
<g><path style="opacity:0.004" fill="#000000" d="M 500.5,246.5 C 501.077,245.227 501.743,245.227 502.5,246.5C 502.376,247.107 502.043,247.44 501.5,247.5C 501.5,246.833 501.167,246.5 500.5,246.5 Z"/></g>
<g><path style="opacity:0.004" fill="#000000" d="M 399.5,246.5 C 400.833,247.167 400.833,247.167 399.5,246.5 Z"/></g>
<g><path style="opacity:0.004" fill="#000000" d="M 586.5,246.5 C 587.833,247.167 587.833,247.167 586.5,246.5 Z"/></g>
<g><path style="opacity:0.004" fill="#000000" d="M 60.5,249.5 C 61.8333,250.167 61.8333,250.167 60.5,249.5 Z"/></g>
<g><path style="opacity:0.004" fill="#000000" d="M 402.5,250.5 C 403.833,251.167 403.833,251.167 402.5,250.5 Z"/></g>
<g><path style="opacity:0.004" fill="#000000" d="M 588.5,250.5 C 589.833,251.167 589.833,251.167 588.5,250.5 Z"/></g>
<g><path style="opacity:0.004" fill="#000000" d="M 404.5,256.5 C 405.833,257.167 405.833,257.167 404.5,256.5 Z"/></g>
<g><path style="opacity:0.004" fill="#000000" d="M 407.5,258.5 C 406.833,257.167 406.833,257.167 407.5,258.5 Z"/></g>
<g><path style="opacity:0.004" fill="#000000" d="M 407.5,258.5 C 408.833,259.167 408.833,259.167 407.5,258.5 Z"/></g>
<g><path style="opacity:0.004" fill="#000000" d="M 56.5,268.5 C 55.475,268.103 55.3083,267.437 56,266.5C 56.4643,267.094 56.631,267.761 56.5,268.5 Z"/></g>
<g><path style="opacity:0.004" fill="#000000" d="M 415.5,271.5 C 416.833,272.167 416.833,272.167 415.5,271.5 Z"/></g>
<g><path style="opacity:0.004" fill="#000000" d="M 565.5,272.5 C 564.833,273.167 564.833,273.167 565.5,272.5 Z"/></g>
<g><path style="opacity:0.004" fill="#000000" d="M 522.5,274.5 C 523.833,275.167 523.833,275.167 522.5,274.5 Z"/></g>
<g><path style="opacity:0.004" fill="#000000" d="M 568.5,274.5 C 569.833,275.167 569.833,275.167 568.5,274.5 Z"/></g>
<g><path style="opacity:0.004" fill="#000000" d="M 520.5,275.5 C 521.833,276.167 521.833,276.167 520.5,275.5 Z"/></g>
<g><path style="opacity:0.004" fill="#000000" d="M 473.5,276.5 C 474.833,277.167 474.833,277.167 473.5,276.5 Z"/></g>
<g><path style="opacity:0.004" fill="#000000" d="M 518.5,276.5 C 519.833,277.167 519.833,277.167 518.5,276.5 Z"/></g>
<g><path style="opacity:0.004" fill="#000000" d="M 574.5,276.5 C 573.833,277.167 573.833,277.167 574.5,276.5 Z"/></g>
<g><path style="opacity:0.004" fill="#000000" d="M 494.5,278.5 C 495.773,279.077 495.773,279.743 494.5,280.5C 493.893,280.376 493.56,280.043 493.5,279.5C 494.167,279.5 494.5,279.167 494.5,278.5 Z"/></g>
<g><path style="opacity:0.005" fill="#000000" d="M 514.5,278.5 C 516.592,279.286 516.259,280.286 513.5,281.5C 512.893,281.376 512.56,281.043 512.5,280.5C 513.167,280.5 513.5,280.167 513.5,279.5C 514.167,279.5 514.5,279.167 514.5,278.5 Z"/></g>
<g><path style="opacity:0.004" fill="#000000" d="M 580.5,278.5 C 579.833,279.167 579.833,279.167 580.5,278.5 Z"/></g>
<g><path style="opacity:0.004" fill="#000000" d="M 584.5,278.5 C 585.833,279.167 585.833,279.167 584.5,278.5 Z"/></g>
<g><path style="opacity:0.004" fill="#000000" d="M 470.5,280.5 C 469.833,279.167 469.833,279.167 470.5,280.5 Z"/></g>
<g><path style="opacity:0.005" fill="#000000" d="M 510.5,282.5 C 512.592,283.286 512.259,284.286 509.5,285.5C 508.893,285.376 508.56,285.043 508.5,284.5C 509.167,284.5 509.5,284.167 509.5,283.5C 510.167,283.5 510.5,283.167 510.5,282.5 Z"/></g>
<g><path style="opacity:0.004" fill="#000000" d="M 440.5,284.5 C 441.833,285.167 441.833,285.167 440.5,284.5 Z"/></g>
<g><path style="opacity:0.004" fill="#000000" d="M 461.5,285.5 C 460.833,284.167 460.833,284.167 461.5,285.5 Z"/></g>
<g><path style="opacity:0.005" fill="#000000" d="M 486.5,286.5 C 487.774,287.189 487.774,288.023 486.5,289C 485.563,289.692 484.897,289.525 484.5,288.5C 485.167,288.5 485.5,288.167 485.5,287.5C 486.167,287.5 486.5,287.167 486.5,286.5 Z"/></g>
<g><path style="opacity:0.008" fill="#000000" d="M 506.5,287.5 C 508.975,287.747 508.975,288.413 506.5,289.5C 505.893,289.376 505.56,289.043 505.5,288.5C 506.167,288.5 506.5,288.167 506.5,287.5 Z"/></g>
<g><path style="opacity:0.004" fill="#000000" d="M 505.5,291.5 C 506.833,292.167 506.833,292.167 505.5,291.5 Z"/></g>
<g><path style="opacity:0.004" fill="#000000" d="M 58.5,325.5 C 57.8333,324.167 57.8333,324.167 58.5,325.5 Z"/></g>
<g><path style="opacity:0.004" fill="#000000" d="M 476.5,328.5 C 477.833,329.167 477.833,329.167 476.5,328.5 Z"/></g>
<g><path style="opacity:0.004" fill="#000000" d="M 474.5,329.5 C 475.833,330.167 475.833,330.167 474.5,329.5 Z"/></g>
<g><path style="opacity:0.004" fill="#000000" d="M 60.5,333.5 C 61.8333,334.167 61.8333,334.167 60.5,333.5 Z"/></g>
<g><path style="opacity:0.004" fill="#000000" d="M 469.5,334.5 C 468.833,335.167 468.833,335.167 469.5,334.5 Z"/></g>
<g><path style="opacity:0.008" fill="#000000" d="M 464.5,336.5 C 465.833,337.167 465.833,337.167 464.5,336.5 Z"/></g>
<g><path style="opacity:0.008" fill="#000000" d="M 462.5,337.5 C 463.833,338.167 463.833,338.167 462.5,337.5 Z"/></g>
<g><path style="opacity:0.004" fill="#000000" d="M 460.5,338.5 C 461.833,339.167 461.833,339.167 460.5,338.5 Z"/></g>
<g><path style="opacity:0.004" fill="#000000" d="M 64.5,340.5 C 65.8333,341.167 65.8333,341.167 64.5,340.5 Z"/></g>
<g><path style="opacity:0.008" fill="#000000" d="M 457.5,340.5 C 458.833,341.167 458.833,341.167 457.5,340.5 Z"/></g>
<g><path style="opacity:0.004" fill="#000000" d="M 454.5,341.5 C 455.833,342.167 455.833,342.167 454.5,341.5 Z"/></g>
<g><path style="opacity:0.004" fill="#000000" d="M 452.5,342.5 C 453.833,343.167 453.833,343.167 452.5,342.5 Z"/></g>
<g><path style="opacity:0.004" fill="#000000" d="M 68.5,345.5 C 67.8333,344.167 67.8333,344.167 68.5,345.5 Z"/></g>
<g><path style="opacity:0.004" fill="#000000" d="M 448.5,344.5 C 450.975,344.747 450.975,345.413 448.5,346.5C 447.893,346.376 447.56,346.043 447.5,345.5C 448.167,345.5 448.5,345.167 448.5,344.5 Z"/></g>
<g><path style="opacity:0.008" fill="#000000" d="M 68.5,345.5 C 69.8333,346.167 69.8333,346.167 68.5,345.5 Z"/></g>
<g><path style="opacity:0.006" fill="#000000" d="M 443.5,346.5 C 444.239,346.369 444.906,346.536 445.5,347C 444.563,347.692 443.897,347.525 443.5,346.5 Z"/></g>
<g><path style="opacity:0.004" fill="#000000" d="M 71.5,349.5 C 70.8333,348.167 70.8333,348.167 71.5,349.5 Z"/></g>
<g><path style="opacity:0.004" fill="#000000" d="M 440.5,349.5 C 439.833,350.167 439.833,350.167 440.5,349.5 Z"/></g>
<g><path style="opacity:0.004" fill="#000000" d="M 75.5,352.5 C 74.8333,353.167 74.8333,353.167 75.5,352.5 Z"/></g>
<g><path style="opacity:0.004" fill="#000000" d="M 432.5,352.5 C 433.833,353.167 433.833,353.167 432.5,352.5 Z"/></g>
<g><path style="opacity:0.004" fill="#000000" d="M 430.5,353.5 C 431.833,354.167 431.833,354.167 430.5,353.5 Z"/></g>
<g><path style="opacity:0.004" fill="#000000" d="M 76.5,354.5 C 75.8333,355.167 75.8333,355.167 76.5,354.5 Z"/></g>
<g><path style="opacity:0.004" fill="#000000" d="M 76.5,356.5 C 77.8333,357.167 77.8333,357.167 76.5,356.5 Z"/></g>
<g><path style="opacity:0.004" fill="#000000" d="M 398.5,368.5 C 399.833,369.167 399.833,369.167 398.5,368.5 Z"/></g>
<g><path style="opacity:0.004" fill="#000000" d="M 395.5,369.5 C 396.525,369.897 396.692,370.563 396,371.5C 395.536,370.906 395.369,370.239 395.5,369.5 Z"/></g>
<g><path style="opacity:0.004" fill="#000000" d="M 110.5,380.5 C 110.631,381.239 110.464,381.906 110,382.5C 109.308,381.563 109.475,380.897 110.5,380.5 Z"/></g>
<g><path style="opacity:0.004" fill="#000000" d="M 336.5,384.5 C 337.525,384.897 337.692,385.563 337,386.5C 336.536,385.906 336.369,385.239 336.5,384.5 Z"/></g>
<g><path style="opacity:0.004" fill="#000000" d="M 329.5,386.5 C 330.833,387.167 330.833,387.167 329.5,386.5 Z"/></g>
<g><path style="opacity:0.004" fill="#000000" d="M 125.5,387.5 C 124.833,388.167 124.833,388.167 125.5,387.5 Z"/></g>
<g><path style="opacity:0.004" fill="#000000" d="M 134.5,390.5 C 133.833,391.167 133.833,391.167 134.5,390.5 Z"/></g>
<g><path style="opacity:0.004" fill="#000000" d="M 304.5,390.5 C 305.833,391.167 305.833,391.167 304.5,390.5 Z"/></g>
<g><path style="opacity:0.004" fill="#000000" d="M 168.5,394.5 C 167.833,395.167 167.833,395.167 168.5,394.5 Z"/></g>
<g><path style="opacity:0.008" fill="#000000" d="M 172.5,394.5 C 173.833,395.167 173.833,395.167 172.5,394.5 Z"/></g>
<g><path style="opacity:0.008" fill="#000000" d="M 175.5,394.5 C 176.833,395.167 176.833,395.167 175.5,394.5 Z"/></g>
<g><path style="opacity:0.02" fill="#000000" d="M 158.5,401.5 C 160.346,401.222 161.68,401.889 162.5,403.5C 160.833,404.833 159.167,404.833 157.5,403.5C 157.863,402.817 158.196,402.15 158.5,401.5 Z"/></g>
<g><path style="opacity:0.004" fill="#000000" d="M 151.5,410.5 C 152.404,411.209 152.737,412.209 152.5,413.5C 151.448,413.649 150.448,413.483 149.5,413C 150.381,412.292 151.047,411.458 151.5,410.5 Z"/></g>
</svg>
