<?xml version="1.0" encoding="UTF-8"?>
<!DOCTYPE svg PUBLIC "-//W3C//DTD SVG 1.1//EN" "http://www.w3.org/Graphics/SVG/1.1/DTD/svg11.dtd">
<svg xmlns="http://www.w3.org/2000/svg" version="1.1" width="611px" height="611px" style="shape-rendering:geometricPrecision; text-rendering:geometricPrecision; image-rendering:optimizeQuality; fill-rule:evenodd; clip-rule:evenodd" xmlns:xlink="http://www.w3.org/1999/xlink">
<g><path style="opacity:0.689" fill="#000000" d="M 541.5,174.5 C 540.167,174.833 540.167,175.167 541.5,175.5C 541.991,180.765 541.325,186.265 539.5,192C 539.429,194.936 539.763,197.936 540.5,201C 540,201.5 539.5,202 539,202.5C 538.73,205.224 538.23,207.891 537.5,210.5C 538.223,212.164 537.89,213.831 536.5,215.5C 536.977,216.478 537.643,217.311 538.5,218C 537.833,218.333 537.167,218.667 536.5,219C 537.081,222.02 537.415,225.02 537.5,228C 535.304,229.369 534.97,231.202 536.5,233.5C 533.529,239.498 534.196,244.998 538.5,250C 546.484,255.842 554.151,262.008 561.5,268.5C 563.853,270.523 566.186,272.523 568.5,274.5C 569.077,276.652 570.244,276.985 572,275.5C 572.935,278.595 574.769,280.929 577.5,282.5C 577.5,283.167 577.833,283.5 578.5,283.5C 578.351,284.552 578.517,285.552 579,286.5C 579.667,287.833 580.333,287.833 581,286.5C 581.572,288.892 582.738,290.892 584.5,292.5C 585.443,294.472 585.776,296.305 585.5,298C 584.833,299.333 584.167,300.667 583.5,302C 581.5,302.5 579.5,303 577.5,303.5C 571.394,303.345 565.227,303.345 559,303.5C 558.395,301.519 557.395,301.185 556,302.5C 552.838,299.443 549.171,298.443 545,299.5C 542.932,297.438 540.432,296.272 537.5,296C 539.929,295.549 540.096,294.715 538,293.5C 537.439,294.022 536.772,294.355 536,294.5C 534.133,291.786 531.633,290.119 528.5,289.5C 526.421,287.127 523.754,285.794 520.5,285.5C 518.382,282.765 515.716,281.765 512.5,282.5C 510.668,281.153 509.001,279.32 507.5,277C 506.563,276.308 505.897,276.475 505.5,277.5C 503.952,277.179 503.285,276.179 503.5,274.5C 502.041,274.567 500.708,274.234 499.5,273.5C 497.336,273.161 495.17,273.161 493,273.5C 489.19,276.322 485.023,278.489 480.5,280C 479.29,281.039 478.29,282.206 477.5,283.5C 476.833,283.5 476.5,283.833 476.5,284.5C 475.034,285.347 474.2,286.68 474,288.5C 473.667,288.167 473.333,287.833 473,287.5C 469.543,290.993 465.376,294.326 460.5,297.5C 458.515,297.859 457.849,298.692 458.5,300C 455.233,301.591 451.9,303.091 448.5,304.5C 448.709,305.086 449.043,305.586 449.5,306C 445.623,307.212 441.956,308.879 438.5,311C 439.517,312.049 439.684,313.216 439,314.5C 438.667,313.833 438.333,313.167 438,312.5C 430.365,317.399 422.531,321.899 414.5,326C 415.602,328.391 414.936,328.891 412.5,327.5C 410.615,328.609 408.615,329.443 406.5,330C 405.748,330.671 405.414,331.504 405.5,332.5C 404.883,332.389 404.383,332.056 404,331.5C 399.191,334.438 394.024,336.771 388.5,338.5C 387.459,340.991 386.626,340.991 386,338.5C 385.517,339.448 385.351,340.448 385.5,341.5C 384.178,341.67 383.011,341.337 382,340.5C 378.373,342.75 374.54,344.584 370.5,346C 373.028,346.669 373.028,347.502 370.5,348.5C 367.589,347.416 365.255,348.249 363.5,351C 339.761,359.281 314.428,366.614 287.5,373C 286.285,375.096 285.451,374.929 285,372.5C 284.308,373.025 283.808,373.692 283.5,374.5C 274.324,377.221 265.657,380.221 257.5,383.5C 256.033,383.277 254.533,382.944 253,382.5C 251.921,384.394 250.587,384.727 249,383.5C 247.222,386.612 244.722,387.278 241.5,385.5C 239.68,385.649 238.18,386.316 237,387.5C 236.667,386.833 236.333,386.167 236,385.5C 226.094,386.787 215.928,387.787 205.5,388.5C 205.038,387.12 204.038,386.453 202.5,386.5C 198.992,387.788 195.492,387.788 192,386.5C 187.968,388.638 183.968,388.304 180,385.5C 177.771,387.146 175.437,387.479 173,386.5C 171.108,389.39 170.275,389.056 170.5,385.5C 165.914,384.856 161.414,384.856 157,385.5C 156.418,382.332 155.418,381.999 154,384.5C 152.565,382.789 150.731,381.622 148.5,381C 145.766,380.79 143.266,379.956 141,378.5C 139.413,379.727 138.079,379.394 137,377.5C 136.586,377.957 136.086,378.291 135.5,378.5C 134.735,377.388 133.735,376.721 132.5,376.5C 129.512,374.86 126.179,374.026 122.5,374C 123.712,372.893 123.379,372.393 121.5,372.5C 117.939,372.344 114.439,371.011 111,368.5C 102.947,367.068 95.4469,363.734 88.5,358.5C 87.8333,358.833 87.1667,359.167 86.5,359.5C 84.9842,357.507 82.8176,355.507 80,353.5C 78.7318,353.616 77.3985,353.949 76,354.5C 75.3828,353.551 75.5494,352.718 76.5,352C 71.6445,348.652 66.6445,345.486 61.5,342.5C 61.1667,341.5 60.5,340.833 59.5,340.5C 59.5,341.167 59.5,341.833 59.5,342.5C 57.1868,341.5 55.1868,340.166 53.5,338.5C 52.6993,336.492 51.366,335.992 49.5,337C 48.6634,335.989 48.33,334.822 48.5,333.5C 47.1779,333.33 46.0113,333.663 45,334.5C 43.513,333.747 43.3463,332.914 44.5,332C 43.0692,331.535 41.9025,330.701 41,329.5C 40.2825,330.451 39.4491,330.617 38.5,330C 38.0698,329.08 37.7365,328.247 37.5,327.5C 36.8333,327.833 36.1667,328.167 35.5,328.5C 34.7379,327.372 34.0712,326.205 33.5,325C 31.3921,324.64 29.3921,323.973 27.5,323C 28.2583,321.636 27.7583,320.469 26,319.5C 25.2825,320.451 24.4491,320.617 23.5,320C 22.7109,317.635 21.5442,315.468 20,313.5C 19.6924,314.308 19.1924,314.975 18.5,315.5C 17.2888,314.726 17.2888,313.893 18.5,313C 17.552,312.517 16.552,312.351 15.5,312.5C 14.6713,309.531 14.5046,306.531 15,303.5C 17.6389,301.515 19.8056,299.181 21.5,296.5C 23.3588,295.152 25.3588,293.985 27.5,293C 26.944,292.617 26.6107,292.117 26.5,291.5C 27.552,291.649 28.552,291.483 29.5,291C 32.9361,286.65 37.6028,282.983 43.5,280C 47.6498,276.2 52.1498,272.7 57,269.5C 57.3333,269.833 57.6667,270.167 58,270.5C 59.7515,268.226 61.7515,266.226 64,264.5C 64.3333,264.833 64.6667,265.167 65,265.5C 70.2736,261.263 75.7736,257.43 81.5,254C 81.1667,253.667 80.8333,253.333 80.5,253C 83.26,252.326 85.9267,251.493 88.5,250.5C 88.5,249.5 88.5,248.5 88.5,247.5C 91.0046,247.02 93.3379,246.02 95.5,244.5C 99.2104,240.993 103.21,237.993 107.5,235.5C 109.745,235.459 110.412,234.625 109.5,233C 111.974,232.963 113.974,232.13 115.5,230.5C 122.414,226.285 129.247,222.618 136,219.5C 136.333,219.833 136.667,220.167 137,220.5C 144.475,217.886 151.975,215.219 159.5,212.5C 160.906,213.668 162.072,213.335 163,211.5C 164.902,211.185 166.902,211.185 169,211.5C 174.075,210.084 179.075,208.417 184,206.5C 190.333,206.5 196.667,206.5 203,206.5C 203.5,206 204,205.5 204.5,205C 210.916,205.025 217.083,203.858 223,201.5C 226.431,201.88 229.764,201.88 233,201.5C 233.333,200.833 233.667,200.167 234,199.5C 234.388,200.428 235.055,201.095 236,201.5C 239.307,199.211 242.807,198.878 246.5,200.5C 249.188,200.519 251.688,199.852 254,198.5C 255.144,198.911 256.311,199.244 257.5,199.5C 262.803,198.764 268.137,198.264 273.5,198C 274.025,197.308 274.692,196.808 275.5,196.5C 278.039,197.115 280.539,197.782 283,198.5C 291.088,197.683 299.255,197.183 307.5,197C 308.91,195.733 310.576,195.733 312.5,197C 317.155,197.499 321.821,197.666 326.5,197.5C 329.723,198.925 332.89,198.592 336,196.5C 337.262,198.303 338.929,199.636 341,200.5C 343.667,199.833 346.333,199.167 349,198.5C 350.791,200.513 352.125,200.513 353,198.5C 354.18,199.684 355.68,200.351 357.5,200.5C 367.62,202.011 377.62,203.678 387.5,205.5C 388.647,205.182 389.481,204.516 390,203.5C 393.412,205.098 397.245,206.765 401.5,208.5C 402.107,208.376 402.44,208.043 402.5,207.5C 406.564,208.689 410.731,209.689 415,210.5C 415.772,210.355 416.439,210.022 417,209.5C 418.333,212.167 419.667,212.167 421,209.5C 421.652,211.723 423.152,212.89 425.5,213C 429.407,213.677 433.241,214.51 437,215.5C 441.532,215.263 446.032,216.263 450.5,218.5C 454.215,219.024 457.715,219.024 461,218.5C 462.03,220.776 463.53,221.443 465.5,220.5C 466.85,221.95 468.516,222.617 470.5,222.5C 471.672,223.705 473.005,223.705 474.5,222.5C 477.82,224.266 481.32,225.6 485,226.5C 485.414,226.043 485.914,225.709 486.5,225.5C 486.736,226.247 487.07,227.08 487.5,228C 489.486,227.206 491.319,227.706 493,229.5C 494.495,227.89 494.661,226.224 493.5,224.5C 494.935,223.071 495.935,221.405 496.5,219.5C 496.392,218.558 496.059,217.725 495.5,217C 496.756,216.583 497.423,215.75 497.5,214.5C 498.774,213.811 498.774,212.977 497.5,212C 498.711,210.156 500.044,209.322 501.5,209.5C 501.291,208.914 500.957,208.414 500.5,208C 502.583,204.565 504.249,200.899 505.5,197C 505.355,196.228 505.022,195.561 504.5,195C 507.559,191.674 509.559,188.174 510.5,184.5C 510.858,182.033 512.191,179.866 514.5,178C 514.167,177.667 513.833,177.333 513.5,177C 515.019,175.649 516.352,174.149 517.5,172.5C 516.45,170.898 517.117,170.065 519.5,170C 518.833,169.667 518.167,169.333 517.5,169C 519.426,168.578 520.426,167.411 520.5,165.5C 522.485,165.141 523.151,164.308 522.5,163C 524.394,161.899 525.061,160.566 524.5,159C 525.938,158.781 527.271,158.281 528.5,157.5C 527.975,156.808 527.308,156.308 526.5,156C 527.701,155.097 528.535,153.931 529,152.5C 529.667,151.167 530.333,151.167 531,152.5C 532.487,151.747 532.654,150.914 531.5,150C 532.5,149.667 533.5,149.333 534.5,149C 535.369,146.421 537.035,144.588 539.5,143.5C 540.478,143.977 541.311,144.643 542,145.5C 542.406,149.272 543.239,152.939 544.5,156.5C 543.96,157.748 543.293,158.915 542.5,160C 542.493,161.583 542.826,163.249 543.5,165C 540.833,165.667 540.833,166.333 543.5,167C 542.572,167.388 541.905,168.055 541.5,169C 542.149,170.69 542.149,172.523 541.5,174.5 Z M 530.5,177.5 C 531.401,181.241 530.068,183.241 526.5,183.5C 527.225,181.581 528.559,179.581 530.5,177.5 Z M 526.5,210.5 C 525.601,211.994 525.935,213.494 527.5,215C 526.635,216.359 525.635,217.526 524.5,218.5C 524.666,220.7 524.999,223.033 525.5,225.5C 525.06,227.765 524.394,229.932 523.5,232C 523.833,232.333 524.167,232.667 524.5,233C 521.456,233.359 521.122,234.026 523.5,235C 522.944,235.383 522.611,235.883 522.5,236.5C 523.324,240.312 523.824,244.312 524,248.5C 525.249,253.611 527.249,258.278 530,262.5C 530.308,261.692 530.808,261.025 531.5,260.5C 531.669,261.397 532.002,262.397 532.5,263.5C 533.167,263.167 533.833,262.833 534.5,262.5C 535.524,263.853 536.857,264.52 538.5,264.5C 538.5,265.5 538.5,266.5 538.5,267.5C 540.308,267.491 541.975,267.991 543.5,269C 542.167,270 542.167,271 543.5,272C 544.437,272.692 545.103,272.525 545.5,271.5C 548.22,274.38 551.22,277.046 554.5,279.5C 553.453,280.078 553.62,280.744 555,281.5C 555.399,281.272 555.565,280.938 555.5,280.5C 558.858,281.866 559.525,283.699 557.5,286C 555.433,286.536 553.599,286.036 552,284.5C 551.667,284.833 551.333,285.167 551,285.5C 549.887,284.695 548.721,284.028 547.5,283.5C 544.069,282.735 540.403,281.402 536.5,279.5C 535.538,277.014 534.705,277.014 534,279.5C 533.424,276.876 532.09,276.209 530,277.5C 529,276.5 528,275.5 527,274.5C 526.023,275.774 525.189,275.774 524.5,274.5C 522.583,273.884 521.416,272.55 521,270.5C 520.692,271.308 520.192,271.975 519.5,272.5C 519.167,271.833 518.833,271.167 518.5,270.5C 517.158,271.902 516.324,271.569 516,269.5C 515.667,269.833 515.333,270.167 515,270.5C 512.944,269.417 511.611,267.75 511,265.5C 510.667,266.167 510.333,266.833 510,267.5C 506.677,264.669 503.01,262.336 499,260.5C 496.031,261.294 493.031,261.961 490,262.5C 485.751,265.354 481.418,268.021 477,270.5C 476.667,270.167 476.333,269.833 476,269.5C 475,270.833 474,272.167 473,273.5C 472.086,272.346 471.253,272.513 470.5,274C 470.833,274.333 471.167,274.667 471.5,275C 469.479,275.513 467.979,276.68 467,278.5C 466.086,277.346 465.253,277.513 464.5,279C 465.151,280.308 464.485,281.141 462.5,281.5C 458.248,284.876 453.748,287.876 449,290.5C 448.667,290.167 448.333,289.833 448,289.5C 447.517,290.448 447.351,291.448 447.5,292.5C 445.459,292.854 443.626,292.854 442,292.5C 441.716,294.886 440.716,295.552 439,294.5C 438.517,295.448 438.351,296.448 438.5,297.5C 433.87,298.174 430.87,300.341 429.5,304C 426.326,305.725 422.993,307.058 419.5,308C 419.833,308.333 420.167,308.667 420.5,309C 417.469,311.015 414.136,312.181 410.5,312.5C 410.5,313.5 410.5,314.5 410.5,315.5C 409.178,315.67 408.011,315.337 407,314.5C 406.383,315.449 406.549,316.282 407.5,317C 402.104,317.949 397.271,320.115 393,323.5C 392.667,323.167 392.333,322.833 392,322.5C 391.626,323.416 391.126,324.25 390.5,325C 380.601,328.636 370.934,332.803 361.5,337.5C 360.325,336.145 359.325,336.312 358.5,338C 359.167,338.333 359.833,338.667 360.5,339C 352.142,342.01 343.808,345.177 335.5,348.5C 335.167,347.167 334.833,347.167 334.5,348.5C 333.041,348.433 331.708,348.766 330.5,349.5C 322.126,352.598 313.46,355.098 304.5,357C 302.063,360.396 299.063,361.229 295.5,359.5C 294.126,359.792 292.793,360.125 291.5,360.5C 292.289,360.783 292.956,361.283 293.5,362C 290.812,362.392 288.145,362.892 285.5,363.5C 284.558,363.392 283.725,363.059 283,362.5C 279.231,365.963 274.731,367.63 269.5,367.5C 269.5,368.5 269.5,369.5 269.5,370.5C 263.101,370.421 257.268,372.087 252,375.5C 249.618,374.134 247.452,374.467 245.5,376.5C 244.833,375.833 244.167,375.167 243.5,374.5C 242.216,375.585 240.716,376.252 239,376.5C 233.416,376.488 228.083,375.821 223,374.5C 222.044,375.894 220.711,376.561 219,376.5C 214.926,375.706 210.926,376.039 207,377.5C 204.6,376.956 202.267,376.289 200,375.5C 199,376.167 198,376.833 197,377.5C 195,376.167 193,376.167 191,377.5C 189.324,376.939 187.991,375.939 187,374.5C 185.667,377.167 184.333,377.167 183,374.5C 181.667,377.167 180.333,377.167 179,374.5C 177.915,375.293 176.748,375.96 175.5,376.5C 171.98,375.74 168.647,374.74 165.5,373.5C 155.849,373.163 146.515,370.996 137.5,367C 138.696,366.346 138.696,365.846 137.5,365.5C 136.005,366.705 134.672,366.705 133.5,365.5C 130.049,362.949 126.382,361.615 122.5,361.5C 122.167,360.167 121.833,360.167 121.5,361.5C 120.761,361.631 120.094,361.464 119.5,361C 127.265,354.964 136.099,351.464 146,350.5C 151.356,350.884 156.856,351.384 162.5,352C 166.124,354.648 170.124,355.648 174.5,355C 176.444,352.847 176.944,350.347 176,347.5C 168.062,343.224 159.562,341.224 150.5,341.5C 140.94,341.211 131.94,343.211 123.5,347.5C 119.427,351.183 115.427,354.85 111.5,358.5C 109.901,358.768 108.568,358.434 107.5,357.5C 103.274,357.331 99.9411,355.665 97.5,352.5C 96.7611,352.631 96.0944,352.464 95.5,352C 96.6956,351.346 96.6956,350.846 95.5,350.5C 93.4248,351.762 91.4248,351.595 89.5,350C 88.1667,349.333 88.1667,348.667 89.5,348C 86.0273,347.681 83.194,346.181 81,343.5C 80.6667,343.833 80.3333,344.167 80,344.5C 77.4125,340.79 73.9125,338.457 69.5,337.5C 68.094,336.049 66.594,334.716 65,333.5C 64.586,333.957 64.086,334.291 63.5,334.5C 60.6956,332.182 57.8623,329.849 55,327.5C 54,327.833 53,328.167 52,328.5C 51.5357,327.906 51.369,327.239 51.5,326.5C 48.6791,325.84 46.6791,324.173 45.5,321.5C 43.1625,323.011 42.4958,322.677 43.5,320.5C 38.3146,319.58 34.6479,316.747 32.5,312C 30.8876,311.28 29.3876,311.446 28,312.5C 25.9045,311.285 26.0712,310.451 28.5,310C 26.3825,309.74 24.7158,308.74 23.5,307C 26.9098,303.652 30.5764,300.819 34.5,298.5C 35.5,297.833 36.5,297.167 37.5,296.5C 40.4588,294.044 43.2921,291.377 46,288.5C 47.3004,289.452 48.467,289.452 49.5,288.5C 46.8694,286.995 47.2027,286.329 50.5,286.5C 51.4458,285.069 52.6125,283.736 54,282.5C 54.3333,282.833 54.6667,283.167 55,283.5C 55.4828,282.552 55.6495,281.552 55.5,280.5C 56.5,280.5 57.5,280.5 58.5,280.5C 59.5417,279.209 60.7083,279.209 62,280.5C 62.6172,279.551 62.4506,278.718 61.5,278C 63.7389,276.582 66.0722,275.415 68.5,274.5C 68.56,275.043 68.8933,275.376 69.5,275.5C 70.7733,274.743 70.7733,274.077 69.5,273.5C 69.8417,272.662 70.5084,272.328 71.5,272.5C 72.0778,273.547 72.7445,273.38 73.5,272C 73.2716,271.601 72.9382,271.435 72.5,271.5C 73.5676,270.566 74.901,270.232 76.5,270.5C 76.5,269.5 76.5,268.5 76.5,267.5C 77.9305,267.421 79.2638,267.754 80.5,268.5C 81.2209,264.797 83.8876,263.131 88.5,263.5C 89.3163,260.893 90.9829,258.893 93.5,257.5C 101.086,253.365 108.42,248.699 115.5,243.5C 118.524,241.478 121.857,240.478 125.5,240.5C 125.089,237.724 125.922,237.057 128,238.5C 130.649,236.429 133.482,234.762 136.5,233.5C 137.078,234.547 137.744,234.38 138.5,233C 138.272,232.601 137.938,232.435 137.5,232.5C 141.386,231.186 145.386,229.853 149.5,228.5C 150.167,228.833 150.833,229.167 151.5,229.5C 152.696,229.154 152.696,228.654 151.5,228C 153.52,226.783 155.52,226.617 157.5,227.5C 158.826,226.01 160.326,224.676 162,223.5C 163.907,223.421 165.907,223.754 168,224.5C 169.946,222.006 172.279,221.339 175,222.5C 177.985,221.503 180.985,220.503 184,219.5C 185.711,219.439 187.044,220.106 188,221.5C 189.884,220.023 191.884,218.69 194,217.5C 197.003,218.09 200.003,218.423 203,218.5C 206.563,216.583 210.23,216.25 214,217.5C 219.333,216.167 224.667,214.833 230,213.5C 232.962,213.844 235.796,214.177 238.5,214.5C 239.708,213.766 241.041,213.433 242.5,213.5C 242.833,216.167 243.167,216.167 243.5,213.5C 246.602,213.846 249.435,213.179 252,211.5C 255.052,212.066 258.052,212.399 261,212.5C 262.812,212.507 264.312,211.84 265.5,210.5C 277.984,210.827 289.984,210.827 301.5,210.5C 302.75,210.577 303.583,211.244 304,212.5C 309.677,209.868 315.344,209.535 321,211.5C 322.285,211.05 323.452,210.383 324.5,209.5C 327.792,210.755 331.125,211.755 334.5,212.5C 337.723,211.075 340.89,211.408 344,213.5C 345,212.833 346,212.167 347,211.5C 349.124,212.227 351.291,212.894 353.5,213.5C 354.944,212.019 355.611,212.352 355.5,214.5C 355.833,214.5 356.167,214.5 356.5,214.5C 358.23,213.088 359.73,213.422 361,215.5C 361.333,214.833 361.667,214.167 362,213.5C 367.797,214.582 373.797,215.915 380,217.5C 382.46,216.722 384.96,216.889 387.5,218C 386.304,218.654 386.304,219.154 387.5,219.5C 389.398,218.266 391.065,218.599 392.5,220.5C 395.103,219.438 397.77,219.272 400.5,220C 401.126,220.75 401.626,221.584 402,222.5C 403.616,221.199 405.116,221.199 406.5,222.5C 407.695,222.322 408.862,221.989 410,221.5C 413.586,222.666 417.086,223.666 420.5,224.5C 422.582,224.624 424.082,225.624 425,227.5C 426,226.167 427,226.167 428,227.5C 428.667,226.833 429.333,226.167 430,225.5C 436.618,228.423 443.452,230.423 450.5,231.5C 453.059,231.198 455.393,231.532 457.5,232.5C 459.113,232.944 460.28,233.944 461,235.5C 462.726,234.424 464.559,234.257 466.5,235C 470.078,236.847 473.578,238.68 477,240.5C 477.893,239.919 478.893,239.585 480,239.5C 481.607,240.074 483.107,240.74 484.5,241.5C 487.468,242.527 490.635,242.527 494,241.5C 495.194,242.43 496.527,243.097 498,243.5C 501.594,242.071 504.427,239.738 506.5,236.5C 507.833,235.833 507.833,235.167 506.5,234.5C 507.009,230.574 508.009,226.574 509.5,222.5C 511.103,222.688 512.437,222.188 513.5,221C 512.906,220.536 512.239,220.369 511.5,220.5C 511.511,218.983 512.177,217.816 513.5,217C 512.858,211.925 514.524,207.591 518.5,204C 517.446,202.612 517.28,201.112 518,199.5C 519.211,197.079 520.377,194.745 521.5,192.5C 521.833,195.167 522.167,195.167 522.5,192.5C 524.758,192.225 525.092,191.225 523.5,189.5C 524.541,187.415 526.041,185.748 528,184.5C 528.333,185.167 528.667,185.833 529,186.5C 528.669,194.409 527.836,202.409 526.5,210.5 Z M 506.5,234.5 C 506.5,235.167 506.5,235.833 506.5,236.5C 504.067,235.452 504.067,234.786 506.5,234.5 Z M 59.5,340.5 C 60.5,340.833 61.1667,341.5 61.5,342.5C 60.8333,342.5 60.1667,342.5 59.5,342.5C 59.5,341.833 59.5,341.167 59.5,340.5 Z"/></g>
<g><path style="opacity:0.004" fill="#000000" d="M 520.5,165.5 C 519.833,164.167 519.833,164.167 520.5,165.5 Z"/></g>
<g><path style="opacity:0.004" fill="#000000" d="M 541.5,174.5 C 542.833,175.167 542.833,175.167 541.5,174.5 Z"/></g>
<g><path style="opacity:0.004" fill="#000000" d="M 510.5,184.5 C 509.833,183.167 509.833,183.167 510.5,184.5 Z"/></g>
<g><path style="opacity:0.004" fill="#000000" d="M 317.5,196.5 C 317.897,195.475 318.563,195.308 319.5,196C 318.906,196.464 318.239,196.631 317.5,196.5 Z"/></g>
<g><path style="opacity:0.004" fill="#000000" d="M 326.5,196.5 C 327.833,197.167 327.833,197.167 326.5,196.5 Z"/></g>
<g><path style="opacity:0.004" fill="#000000" d="M 338.5,196.5 C 339.833,197.167 339.833,197.167 338.5,196.5 Z"/></g>
<g><path style="opacity:0.004" fill="#000000" d="M 340.5,197.5 C 341.833,198.167 341.833,198.167 340.5,197.5 Z"/></g>
<g><path style="opacity:0.004" fill="#000000" d="M 350.5,197.5 C 351.833,198.167 351.833,198.167 350.5,197.5 Z"/></g>
<g><path style="opacity:0.004" fill="#000000" d="M 386.5,203.5 C 387.833,204.167 387.833,204.167 386.5,203.5 Z"/></g>
<g><path style="opacity:0.004" fill="#000000" d="M 402.5,207.5 C 401.833,206.167 401.833,206.167 402.5,207.5 Z"/></g>
<g><path style="opacity:0.004" fill="#000000" d="M 497.5,214.5 C 496.833,213.167 496.833,213.167 497.5,214.5 Z"/></g>
<g><path style="opacity:0.004" fill="#000000" d="M 470.5,221.5 C 471.833,222.167 471.833,222.167 470.5,221.5 Z"/></g>
<g><path style="opacity:0.004" fill="#000000" d="M 115.5,230.5 C 114.833,229.167 114.833,229.167 115.5,230.5 Z"/></g>
<g><path style="opacity:0.004" fill="#000000" d="M 107.5,235.5 C 106.833,234.167 106.833,234.167 107.5,235.5 Z"/></g>
<g><path style="opacity:0.004" fill="#000000" d="M 102.5,236.5 C 103.833,237.167 103.833,237.167 102.5,236.5 Z"/></g>
<g><path style="opacity:0.663" fill="#000000" d="M 148.5,255.5 C 149.552,255.351 150.552,255.517 151.5,256C 160.266,266.96 171.099,275.127 184,280.5C 185.261,286.08 183.094,287.913 177.5,286C 173.63,284.713 169.964,283.047 166.5,281C 161.53,276.607 156.697,272.107 152,267.5C 148.703,263.961 147.536,259.961 148.5,255.5 Z"/></g>
<g><path style="opacity:0.004" fill="#000000" d="M 561.5,268.5 C 561.369,267.761 561.536,267.094 562,266.5C 562.692,267.437 562.525,268.103 561.5,268.5 Z"/></g>
<g><path style="opacity:0.005" fill="#000000" d="M 522.5,267.5 C 525.686,267.337 528.353,268.337 530.5,270.5C 526.47,273.506 523.803,272.506 522.5,267.5 Z"/></g>
<g><path style="opacity:0.004" fill="#000000" d="M 69.5,273.5 C 70.7733,274.077 70.7733,274.743 69.5,275.5C 68.8933,275.376 68.56,275.043 68.5,274.5C 69.1667,274.5 69.5,274.167 69.5,273.5 Z"/></g>
<g><path style="opacity:0.004" fill="#000000" d="M 499.5,273.5 C 498.833,274.167 498.833,274.167 499.5,273.5 Z"/></g>
<g><path style="opacity:0.004" fill="#000000" d="M 568.5,273.5 C 569.833,274.167 569.833,274.167 568.5,273.5 Z"/></g>
<g><path style="opacity:0.004" fill="#000000" d="M 505.5,277.5 C 506.167,277.5 506.5,277.833 506.5,278.5C 506.167,278.167 505.833,277.833 505.5,277.5 Z"/></g>
<g><path style="opacity:0.004" fill="#000000" d="M 506.5,278.5 C 507.833,279.167 507.833,279.167 506.5,278.5 Z"/></g>
<g><path style="opacity:0.007" fill="#000000" d="M 577.5,282.5 C 577.56,281.957 577.893,281.624 578.5,281.5C 579.773,282.257 579.773,282.923 578.5,283.5C 577.833,283.5 577.5,283.167 577.5,282.5 Z"/></g>
<g><path style="opacity:0.004" fill="#000000" d="M 477.5,283.5 C 478.833,284.167 478.833,284.167 477.5,283.5 Z"/></g>
<g><path style="opacity:0.657" fill="#000000" d="M 149.5,284.5 C 153.303,285.743 155.47,288.41 156,292.5C 158.216,295.723 161.216,297.723 165,298.5C 168.727,296.854 172.561,296.021 176.5,296C 177.476,298.147 177.309,300.314 176,302.5C 167.572,308.83 159.572,308.164 152,300.5C 150.5,297.5 149,294.5 147.5,291.5C 147.157,289.1 147.824,286.767 149.5,284.5 Z"/></g>
<g><path style="opacity:0.004" fill="#000000" d="M 476.5,284.5 C 476.833,284.5 477.167,284.5 477.5,284.5C 477.315,285.17 476.981,285.17 476.5,284.5 Z"/></g>
<g><path style="opacity:0.004" fill="#000000" d="M 520.5,285.5 C 519.833,286.167 519.833,286.167 520.5,285.5 Z"/></g>
<g><path style="opacity:0.004" fill="#000000" d="M 528.5,289.5 C 528.304,291.646 527.304,291.812 525.5,290C 526.448,289.517 527.448,289.351 528.5,289.5 Z"/></g>
<g><path style="opacity:0.004" fill="#000000" d="M 26.5,291.5 C 25.8333,290.167 25.8333,290.167 26.5,291.5 Z"/></g>
<g><path style="opacity:0.004" fill="#000000" d="M 22.5,292.5 C 23.525,292.897 23.6917,293.563 23,294.5C 22.5357,293.906 22.369,293.239 22.5,292.5 Z"/></g>
<g><path style="opacity:0.004" fill="#000000" d="M 21.5,296.5 C 20.475,296.103 20.3083,295.437 21,294.5C 21.4643,295.094 21.631,295.761 21.5,296.5 Z"/></g>
<g><path style="opacity:0.004" fill="#000000" d="M 17.5,297.5 C 18.8333,298.167 18.8333,298.167 17.5,297.5 Z"/></g>
<g><path style="opacity:0.008" fill="#000000" d="M 460.5,297.5 C 461.239,297.369 461.906,297.536 462.5,298C 461.563,298.692 460.897,298.525 460.5,297.5 Z"/></g>
<g><path style="opacity:0.004" fill="#000000" d="M 12.5,303.5 C 13.8333,304.167 13.8333,304.167 12.5,303.5 Z"/></g>
<g><path style="opacity:0.004" fill="#000000" d="M 410.5,330.5 C 410.897,329.475 411.563,329.308 412.5,330C 411.906,330.464 411.239,330.631 410.5,330.5 Z"/></g>
<g><path style="opacity:0.004" fill="#000000" d="M 405.5,332.5 C 406.833,333.167 406.833,333.167 405.5,332.5 Z"/></g>
<g><path style="opacity:0.004" fill="#000000" d="M 403.5,333.5 C 404.833,334.167 404.833,334.167 403.5,333.5 Z"/></g>
<g><path style="opacity:0.004" fill="#000000" d="M 397.5,335.5 C 398.833,336.167 398.833,336.167 397.5,335.5 Z"/></g>
<g><path style="opacity:0.004" fill="#000000" d="M 53.5,338.5 C 52.8333,339.167 52.8333,339.167 53.5,338.5 Z"/></g>
<g><path style="opacity:0.004" fill="#000000" d="M 390.5,338.5 C 391.833,339.167 391.833,339.167 390.5,338.5 Z"/></g>
<g><path style="opacity:0.008" fill="#000000" d="M 69.5,349.5 C 70.8333,350.167 70.8333,350.167 69.5,349.5 Z"/></g>
<g><path style="opacity:0.004" fill="#000000" d="M 121.5,372.5 C 121.631,373.239 121.464,373.906 121,374.5C 120.308,373.563 120.475,372.897 121.5,372.5 Z"/></g>
<g><path style="opacity:0.004" fill="#000000" d="M 132.5,376.5 C 132.631,377.239 132.464,377.906 132,378.5C 131.308,377.563 131.475,376.897 132.5,376.5 Z"/></g>
<g><path style="opacity:0.004" fill="#000000" d="M 167.5,386.5 C 168.833,387.167 168.833,387.167 167.5,386.5 Z"/></g>
<g><path style="opacity:0.004" fill="#000000" d="M 178.5,387.5 C 179.833,388.167 179.833,388.167 178.5,387.5 Z"/></g>
<g><path style="opacity:0.004" fill="#000000" d="M 181.5,387.5 C 182.833,388.167 182.833,388.167 181.5,387.5 Z"/></g>
<g><path style="opacity:0.004" fill="#000000" d="M 191.5,387.5 C 192.833,388.167 192.833,388.167 191.5,387.5 Z"/></g>
<g><path style="opacity:0.004" fill="#000000" d="M 224.5,387.5 C 225.833,388.167 225.833,388.167 224.5,387.5 Z"/></g>
<g><path style="opacity:0.004" fill="#000000" d="M 205.5,388.5 C 205.103,389.525 204.437,389.692 203.5,389C 204.094,388.536 204.761,388.369 205.5,388.5 Z"/></g>
</svg>
