<?xml version="1.0" encoding="UTF-8"?>
<!DOCTYPE svg PUBLIC "-//W3C//DTD SVG 1.1//EN" "http://www.w3.org/Graphics/SVG/1.1/DTD/svg11.dtd">
<svg xmlns="http://www.w3.org/2000/svg" version="1.1" width="1699px" height="1180px" style="shape-rendering:geometricPrecision; text-rendering:geometricPrecision; image-rendering:optimizeQuality; fill-rule:evenodd; clip-rule:evenodd" xmlns:xlink="http://www.w3.org/1999/xlink">
<g><path style="opacity:0.76" fill="#050404" d="M 835.5,136.5 C 847.59,136.442 859.59,137.442 871.5,139.5C 872.689,139.244 873.856,138.911 875,138.5C 883.022,140.001 891.189,141.501 899.5,143C 904.735,144.745 910.068,146.079 915.5,147C 946.256,158.544 977.256,169.21 1008.5,179C 1022.85,182.752 1037.35,185.586 1052,187.5C 1056.73,188.099 1061.39,187.432 1066,185.5C 1073,185.766 1080.17,185.766 1087.5,185.5C 1100.89,184.134 1114.39,182.134 1128,179.5C 1128.77,179.645 1129.44,179.978 1130,180.5C 1133.66,177.75 1137.66,176.75 1142,177.5C 1143.72,176.15 1145.55,174.983 1147.5,174C 1173.39,165.859 1199.39,158.026 1225.5,150.5C 1226.09,150.709 1226.59,151.043 1227,151.5C 1234.7,150.323 1242.7,149.323 1251,148.5C 1256.94,148.568 1262.94,148.568 1269,148.5C 1273.55,148.986 1278.05,149.653 1282.5,150.5C 1290.49,150.134 1298.49,150.801 1306.5,152.5C 1307.55,152.32 1308.55,151.987 1309.5,151.5C 1316.15,153.828 1322.82,154.828 1329.5,154.5C 1332.06,155.051 1334.39,156.051 1336.5,157.5C 1337.17,157.167 1337.83,156.833 1338.5,156.5C 1351.42,160.563 1364.09,165.396 1376.5,171C 1378.83,173.142 1380.49,175.642 1381.5,178.5C 1385.23,178.78 1386.39,180.78 1385,184.5C 1384.1,185.701 1382.93,186.535 1381.5,187C 1361.63,191.217 1341.97,196.217 1322.5,202C 1302.28,210.229 1282.28,218.895 1262.5,228C 1253.82,234.012 1244.48,239.012 1234.5,243C 1227.02,249.148 1219.02,254.481 1210.5,259C 1207.23,262.949 1203.39,266.116 1199,268.5C 1193.48,275.033 1188.31,281.867 1183.5,289C 1181.63,294.183 1179.8,299.35 1178,304.5C 1177.33,309.833 1177.33,315.167 1178,320.5C 1180.45,328.076 1184.12,335.41 1189,342.5C 1195.97,349.473 1202.97,356.473 1210,363.5C 1210.48,364.448 1210.65,365.448 1210.5,366.5C 1214.47,367.949 1217.81,370.449 1220.5,374C 1221.5,374.333 1222.5,374.667 1223.5,375C 1240.89,390.402 1258.23,405.735 1275.5,421C 1277.25,421.471 1278.91,422.138 1280.5,423C 1284.55,426.716 1288.88,430.05 1293.5,433C 1306.17,446.222 1318.01,460.055 1329,474.5C 1336.42,482.598 1343.75,490.932 1351,499.5C 1370.61,528.924 1384.45,561.091 1392.5,596C 1392.36,596.772 1392.02,597.439 1391.5,598C 1397.03,611.765 1401.03,626.099 1403.5,641C 1404.41,644.838 1404.41,648.838 1403.5,653C 1404.29,654.085 1404.96,655.252 1405.5,656.5C 1404.5,666.573 1404.33,676.907 1405,687.5C 1403.12,697.361 1401.45,707.694 1400,718.5C 1394.8,733.245 1390.46,748.245 1387,763.5C 1383.84,769.918 1381.18,776.585 1379,783.5C 1370.74,798.974 1363.24,814.808 1356.5,831C 1350.26,841.729 1344.26,852.562 1338.5,863.5C 1337.32,863.281 1336.32,863.614 1335.5,864.5C 1330.23,874.583 1324.39,884.25 1318,893.5C 1309.84,903.324 1301.34,912.824 1292.5,922C 1264.75,946.965 1234.75,968.798 1202.5,987.5C 1201.61,988.325 1201.28,989.325 1201.5,990.5C 1158.59,1010.96 1114.59,1028.62 1069.5,1043.5C 1068.83,1043.17 1068.17,1042.83 1067.5,1042.5C 1061.02,1045.34 1054.85,1048.01 1049,1050.5C 1048.59,1050.04 1048.09,1049.71 1047.5,1049.5C 1039.93,1052.42 1032.26,1055.08 1024.5,1057.5C 1023.83,1057.17 1023.17,1056.83 1022.5,1056.5C 1019.32,1059.17 1015.82,1060.17 1012,1059.5C 1011.5,1060 1011,1060.5 1010.5,1061C 1001.43,1063.22 992.434,1064.72 983.5,1065.5C 981.878,1067.44 980.044,1067.77 978,1066.5C 972.102,1067.86 966.102,1068.86 960,1069.5C 958.893,1069.41 957.893,1069.08 957,1068.5C 947.09,1069.92 937.256,1070.92 927.5,1071.5C 926.914,1071.29 926.414,1070.96 926,1070.5C 907.544,1071.81 889.044,1072.81 870.5,1073.5C 866.046,1073.36 861.546,1072.7 857,1071.5C 844.093,1071.6 830.76,1072.26 817,1073.5C 779.781,1072.5 742.614,1070.33 705.5,1067C 704.579,1065.24 703.412,1065.08 702,1066.5C 673.406,1061.27 645.739,1053.27 619,1042.5C 618.439,1043.02 617.772,1043.36 617,1043.5C 571.399,1028.55 527.233,1010.89 484.5,990.5C 484.719,989.325 484.386,988.325 483.5,987.5C 455.979,971.8 429.979,953.966 405.5,934C 395.694,924.194 385.86,914.36 376,904.5C 369.172,896.168 362.838,887.502 357,878.5C 347.121,862.929 337.621,847.096 328.5,831C 322.939,817.044 316.439,803.544 309,790.5C 305.776,781.272 302.109,772.272 298,763.5C 294.361,747.957 290.027,732.957 285,718.5C 283.007,705.764 281.173,693.097 279.5,680.5C 279.656,672.303 279.656,664.303 279.5,656.5C 280.04,655.252 280.707,654.085 281.5,653C 280.593,648.838 280.593,644.838 281.5,641C 283.627,630.062 286.127,619.229 289,608.5C 290.516,604.935 292.016,601.435 293.5,598C 292.978,597.439 292.645,596.772 292.5,596C 299.144,568.561 308.978,542.394 322,517.5C 329.27,505.955 337.27,494.955 346,484.5C 347.512,483.743 348.846,482.743 350,481.5C 362.755,464.546 376.588,448.38 391.5,433C 413.829,417.509 434.829,400.342 454.5,381.5C 460.83,377.106 466.83,372.272 472.5,367C 473.448,366.517 474.448,366.351 475.5,366.5C 475.351,365.448 475.517,364.448 476,363.5C 483.027,356.473 490.027,349.473 497,342.5C 501.879,335.41 505.546,328.076 508,320.5C 509.032,312.669 508.365,305.002 506,297.5C 504.451,294.862 503.285,292.029 502.5,289C 497.688,281.867 492.522,275.033 487,268.5C 480.855,263.695 474.689,258.861 468.5,254C 434.554,234.028 399.221,216.695 362.5,202C 343.034,196.217 323.367,191.217 303.5,187C 299.646,185.392 298.646,182.726 300.5,179C 301.448,178.517 302.448,178.351 303.5,178.5C 304.866,175.936 306.533,173.436 308.5,171C 315.636,168.264 322.636,165.264 329.5,162C 335.306,160.254 341.139,158.42 347,156.5C 347.772,156.645 348.439,156.978 349,157.5C 350.491,155.996 352.324,155.163 354.5,155C 361.836,154.849 369.002,153.682 376,151.5C 377,151.833 378,152.167 379,152.5C 387.02,150.74 395.02,150.073 403,150.5C 412.007,148.521 421.007,147.855 430,148.5C 439.994,148.998 449.661,149.998 459,151.5C 459.414,151.043 459.914,150.709 460.5,150.5C 488.23,157.864 515.897,166.364 543.5,176C 562.676,181.144 582.009,183.977 601.5,184.5C 621.546,187.563 641.879,187.063 662.5,183C 699.426,172.878 735.759,160.878 771.5,147C 785.143,143.271 798.976,140.438 813,138.5C 814.226,138.645 815.393,138.978 816.5,139.5C 822.95,138.429 829.284,137.429 835.5,136.5 Z M 1287.5,447.5 C 1278.16,448.047 1268.82,448.047 1259.5,447.5C 1256.63,448.122 1253.8,448.789 1251,449.5C 1225.97,448.561 1200.81,449.228 1175.5,451.5C 1170.92,450.362 1166.42,450.695 1162,452.5C 1156.86,452.035 1151.69,451.702 1146.5,451.5C 1143.95,451.442 1141.62,452.109 1139.5,453.5C 1137.07,452.75 1134.74,452.417 1132.5,452.5C 1118.37,453.649 1104.2,454.649 1090,455.5C 1088.44,455.397 1086.94,455.063 1085.5,454.5C 1076.95,455.288 1068.45,456.288 1060,457.5C 1044.39,456.903 1028.56,455.903 1012.5,454.5C 1009.83,455.181 1007.16,454.848 1004.5,453.5C 1003.03,453.723 1001.53,454.056 1000,454.5C 993.198,453.816 986.364,453.149 979.5,452.5C 975.833,453.167 972.167,453.833 968.5,454.5C 951.609,454.468 934.776,454.468 918,454.5C 916.215,453.76 914.382,453.093 912.5,452.5C 873.666,452.593 835.666,452.593 798.5,452.5C 787.303,453.156 776.137,453.823 765,454.5C 749.897,453.246 734.564,453.246 719,454.5C 718.311,453.643 717.478,452.977 716.5,452.5C 714.139,453.021 711.806,453.354 709.5,453.5C 705.3,452.863 701.134,452.196 697,451.5C 676.323,451.74 656.156,451.74 636.5,451.5C 614.684,452.664 592.85,453.997 571,455.5C 557.018,454.747 543.185,454.414 529.5,454.5C 516.86,455.206 504.194,455.872 491.5,456.5C 481.487,455.75 471.487,456.083 461.5,457.5C 438.428,457.369 415.762,457.202 393.5,457C 391.833,456.667 390.167,456.333 388.5,456C 403.894,439.943 420.561,425.276 438.5,412C 441.266,408.478 444.266,405.145 447.5,402C 458.672,393.577 469.672,384.911 480.5,376C 485.654,371.012 490.654,365.845 495.5,360.5C 496.325,359.614 497.325,359.281 498.5,359.5C 498.351,358.448 498.517,357.448 499,356.5C 501.292,355.21 503.292,353.543 505,351.5C 514.113,340.073 519.28,326.906 520.5,312C 519.468,301.714 516.635,291.881 512,282.5C 502.527,268.362 491.027,256.195 477.5,246C 462.493,237.656 447.493,229.322 432.5,221C 410.291,212.162 388.291,203.162 366.5,194C 352.902,189.52 339.236,185.52 325.5,182C 331.902,180.094 337.902,177.427 343.5,174C 358.158,170.049 372.991,167.882 388,167.5C 392.851,165.952 397.851,164.952 403,164.5C 404.569,165.122 406.236,165.456 408,165.5C 426.901,163.027 445.734,163.86 464.5,168C 471.22,169.68 477.887,171.347 484.5,173C 485.973,173.71 486.64,174.876 486.5,176.5C 487.822,176.67 488.989,176.337 490,175.5C 491.684,177.701 493.684,178.367 496,177.5C 535.116,191.346 575.116,199.012 616,200.5C 622.711,199.87 629.378,199.203 636,198.5C 636.893,199.081 637.893,199.415 639,199.5C 643.689,198.004 648.356,197.004 653,196.5C 654.144,196.911 655.311,197.244 656.5,197.5C 686.709,190.745 716.043,181.412 744.5,169.5C 749.071,168.178 753.738,167.345 758.5,167C 769.185,161.862 780.518,158.195 792.5,156C 799.561,154.73 806.561,153.23 813.5,151.5C 827.529,152.04 841.362,152.374 855,152.5C 860.776,150.29 866.442,150.29 872,152.5C 872.873,152.265 873.707,151.931 874.5,151.5C 888.55,154.345 902.55,157.512 916.5,161C 919.932,162.544 923.266,164.211 926.5,166C 935.345,167.448 944.012,169.615 952.5,172.5C 954.229,173.597 955.896,174.763 957.5,176C 981.656,183.743 1005.99,190.91 1030.5,197.5C 1033.35,196.109 1036.01,196.443 1038.5,198.5C 1039.17,198.167 1039.83,197.833 1040.5,197.5C 1044,198.976 1047.5,199.31 1051,198.5C 1062.09,200.361 1073.09,200.361 1084,198.5C 1087.46,198.657 1090.96,198.991 1094.5,199.5C 1096.17,198.11 1097.84,197.777 1099.5,198.5C 1130.51,194.653 1160.68,187.653 1190,177.5C 1192.32,178.367 1194.32,177.701 1196,175.5C 1197.01,176.337 1198.18,176.67 1199.5,176.5C 1199.28,175.325 1199.61,174.325 1200.5,173.5C 1217.57,168.119 1235.41,164.786 1254,163.5C 1261.81,164.258 1269.64,164.925 1277.5,165.5C 1279.23,165.41 1280.89,165.077 1282.5,164.5C 1299.93,166.853 1317.59,169.353 1335.5,172C 1343.93,175.141 1352.26,178.474 1360.5,182C 1346.76,185.52 1333.1,189.52 1319.5,194C 1297.71,203.162 1275.71,212.162 1253.5,221C 1238.6,228.899 1223.93,237.232 1209.5,246C 1193.87,257.97 1181.03,272.47 1171,289.5C 1163.48,312.104 1167.15,332.771 1182,351.5C 1183.71,353.543 1185.71,355.21 1188,356.5C 1188.48,357.448 1188.65,358.448 1188.5,359.5C 1190.91,360.687 1193.24,362.187 1195.5,364C 1202.15,371.914 1209.48,379.248 1217.5,386C 1224.29,391.567 1231.29,396.901 1238.5,402C 1241.73,405.145 1244.73,408.478 1247.5,412C 1257.44,419.605 1267.11,427.605 1276.5,436C 1280.96,438.966 1284.63,442.799 1287.5,447.5 Z M 1269.5,457.5 C 1278.13,458.662 1286.63,458.662 1295,457.5C 1296.73,458.249 1298.57,458.749 1300.5,459C 1313.67,474.84 1326.84,490.673 1340,506.5C 1362.55,539.805 1376.71,576.138 1382.5,615.5C 1384.26,621.615 1385.93,627.782 1387.5,634C 1386,636.006 1386.33,637.672 1388.5,639C 1388.04,639.414 1387.71,639.914 1387.5,640.5C 1389.56,642.987 1389.89,645.653 1388.5,648.5C 1392.58,676.462 1390.75,704.128 1383,731.5C 1373.03,758.607 1363.2,785.774 1353.5,813C 1347.9,822.938 1342.73,833.105 1338,843.5C 1336.79,844.071 1335.63,844.738 1334.5,845.5C 1321.35,870.127 1305.35,892.627 1286.5,913C 1271.11,926.39 1255.11,939.056 1238.5,951C 1212.46,967.429 1185.8,982.429 1158.5,996C 1139.66,1002.49 1121,1009.49 1102.5,1017C 1091.07,1020.48 1079.73,1024.14 1068.5,1028C 1067.83,1029 1067.17,1030 1066.5,1031C 1051.32,1036.16 1035.66,1040.83 1019.5,1045C 1018,1046.17 1016.5,1047.33 1015,1048.5C 1014.59,1048.04 1014.09,1047.71 1013.5,1047.5C 1006.91,1049.32 1000.41,1051.32 994,1053.5C 976.075,1055.95 957.909,1057.95 939.5,1059.5C 930.553,1059.65 921.553,1059.65 912.5,1059.5C 907.968,1060.14 903.468,1060.81 899,1061.5C 865.366,1060.84 831.366,1060.84 797,1061.5C 789.711,1060.8 782.377,1060.13 775,1059.5C 739.804,1060.33 704.971,1056.16 670.5,1047C 660.138,1042.88 649.471,1039.55 638.5,1037C 632.619,1034.7 626.619,1032.7 620.5,1031C 619.833,1030 619.167,1029 618.5,1028C 585.479,1016.98 552.812,1005.15 520.5,992.5C 495.683,979.689 471.35,965.856 447.5,951C 424.417,934.576 403.25,916.076 384,895.5C 372.487,881.137 362.487,865.804 354,849.5C 352.439,847.027 350.439,845.027 348,843.5C 345.128,836.09 341.461,829.09 337,822.5C 329.234,806.873 323.234,790.54 319,773.5C 318,772.167 317,770.833 316,769.5C 311.576,755.674 306.91,742.008 302,728.5C 299.951,718.093 297.784,707.427 295.5,696.5C 295.432,692.002 295.765,687.502 296.5,683C 295.57,681.806 294.903,680.473 294.5,679C 295.229,673.874 295.229,668.874 294.5,664C 295.771,656.152 297.105,648.319 298.5,640.5C 297.332,639.094 297.665,637.928 299.5,637C 303.801,595.217 316.635,555.384 338,517.5C 350.614,501.242 363.447,485.242 376.5,469.5C 380.999,468.751 385.499,468.084 390,467.5C 409.458,468.226 428.958,468.226 448.5,467.5C 454.559,465.655 460.393,465.322 466,466.5C 469.964,465.102 474.131,464.436 478.5,464.5C 481.287,464.574 483.787,465.24 486,466.5C 488.333,463.833 490.667,463.833 493,466.5C 494.851,463.936 496.684,463.936 498.5,466.5C 511.703,464.838 525.036,463.838 538.5,463.5C 558.864,463.103 578.864,463.103 598.5,463.5C 614.401,462.006 630.235,461.006 646,460.5C 657.547,461.53 669.213,461.53 681,460.5C 694.909,461.427 708.909,462.427 723,463.5C 780.588,462.832 838.588,462.165 897,461.5C 897.689,462.357 898.522,463.023 899.5,463.5C 908.698,463.566 918.198,463.566 928,463.5C 934.536,463.851 940.869,464.851 947,466.5C 949.398,463.946 951.731,463.946 954,466.5C 954.5,466 955,465.5 955.5,465C 961.835,464.525 968.169,464.025 974.5,463.5C 981.944,464.187 989.444,464.187 997,463.5C 1000.34,463.961 1003.51,464.961 1006.5,466.5C 1007.48,466.023 1008.31,465.357 1009,464.5C 1009.5,465.667 1010.33,466.5 1011.5,467C 1018,467.5 1024.5,468 1031,468.5C 1049.42,467.856 1067.92,467.856 1086.5,468.5C 1097.38,467.478 1108.21,466.478 1119,465.5C 1119.56,466.022 1120.23,466.355 1121,466.5C 1127.36,465.125 1133.69,463.792 1140,462.5C 1141.57,463.122 1143.24,463.456 1145,463.5C 1160.2,462.263 1175.37,460.929 1190.5,459.5C 1208.41,459.033 1226.07,459.033 1243.5,459.5C 1252.32,458.888 1260.98,458.221 1269.5,457.5 Z"/></g>
<g><path style="opacity:0.099" fill="#050504" d="M 269.5,139.5 C 273.05,139.133 276.05,140.133 278.5,142.5C 275.527,143.509 272.527,143.509 269.5,142.5C 269.5,141.5 269.5,140.5 269.5,139.5 Z"/></g>
<g><path style="opacity:0.098" fill="#050504" d="M 1410.5,139.5 C 1412.17,139.5 1413.83,139.5 1415.5,139.5C 1415.5,140.5 1415.5,141.5 1415.5,142.5C 1412.47,143.509 1409.47,143.509 1406.5,142.5C 1407.62,141.141 1408.96,140.141 1410.5,139.5 Z"/></g>
</svg>
