<?xml version="1.0" standalone="no"?>
<!DOCTYPE svg PUBLIC "-//W3C//DTD SVG 20010904//EN"
 "http://www.w3.org/TR/2001/REC-SVG-20010904/DTD/svg10.dtd">
<svg version="1.0" xmlns="http://www.w3.org/2000/svg"
 width="1699.000000pt" height="1180.000000pt" viewBox="0 0 1699.000000 1180.000000"
 preserveAspectRatio="xMidYMid meet">

<g transform="translate(0.000000,1180.000000) scale(0.100000,-0.100000)"
fill="#000000" stroke="none">
<path d="M8355 10415 c-5 -3 -68 -9 -140 -14 -71 -6 -141 -13 -155 -16 -14 -3
-37 -8 -52 -10 -77 -11 -152 -27 -189 -40 -23 -8 -50 -15 -61 -15 -11 0 -43
-11 -71 -23 -84 -38 -130 -55 -166 -63 -19 -3 -65 -19 -102 -35 -37 -16 -75
-29 -84 -29 -8 0 -23 -4 -33 -9 -25 -13 -119 -46 -187 -66 -33 -10 -69 -21
-80 -26 -11 -4 -46 -13 -78 -19 -33 -7 -74 -18 -93 -26 -18 -8 -57 -19 -86
-25 -29 -6 -83 -20 -119 -30 -66 -20 -83 -23 -224 -38 -133 -14 -535 8 -700
39 -27 5 -77 12 -110 16 -33 3 -64 10 -70 14 -5 4 -32 11 -60 14 -27 4 -65 14
-83 22 -19 9 -36 14 -38 11 -3 -3 -49 11 -102 30 -53 18 -112 38 -129 43 -18
6 -48 14 -65 20 -18 5 -58 17 -88 26 -30 9 -70 19 -87 21 -18 3 -33 9 -33 14
0 5 -14 9 -31 9 -17 0 -40 5 -51 11 -74 40 -351 77 -538 74 -119 -3 -284 -13
-310 -20 -8 -2 -53 -7 -100 -10 -73 -6 -237 -29 -360 -51 -19 -3 -54 -14 -77
-25 -24 -10 -54 -19 -67 -19 -14 0 -31 -6 -38 -13 -7 -8 -31 -20 -53 -27 -22
-7 -53 -21 -70 -31 -16 -11 -38 -19 -47 -19 -21 0 -78 -48 -78 -66 0 -8 -9
-14 -20 -14 -13 0 -20 -7 -20 -19 0 -26 23 -48 57 -55 16 -3 91 -17 168 -32
77 -14 149 -29 160 -33 11 -4 61 -21 110 -36 133 -42 244 -84 296 -111 26 -13
54 -24 62 -24 8 0 69 -27 134 -59 65 -33 141 -69 168 -81 28 -12 87 -40 131
-61 45 -21 84 -39 88 -39 4 0 14 -6 22 -14 7 -8 35 -22 61 -32 27 -9 60 -29
76 -43 15 -13 27 -21 27 -17 0 4 6 2 13 -4 38 -32 91 -70 97 -70 7 0 49 -32
143 -110 45 -37 147 -146 147 -158 0 -7 7 -15 15 -18 8 -4 15 -12 15 -20 0 -8
4 -14 8 -14 11 0 42 -54 70 -120 29 -68 36 -200 15 -264 -15 -46 -40 -105 -51
-122 -38 -59 -74 -105 -112 -138 -25 -23 -76 -73 -115 -112 -38 -39 -110 -106
-160 -149 -49 -43 -99 -86 -110 -96 -18 -16 -221 -188 -283 -240 -13 -10 -27
-19 -31 -19 -3 0 -14 -8 -22 -17 -22 -25 -102 -91 -112 -92 -30 -2 -260 -222
-367 -350 -19 -23 -50 -59 -68 -79 -75 -83 -178 -206 -198 -236 -12 -17 -31
-40 -43 -50 -11 -11 -21 -24 -21 -31 0 -7 -9 -20 -21 -31 -12 -10 -27 -31 -35
-46 -7 -14 -20 -32 -27 -40 -8 -7 -26 -34 -42 -58 -15 -25 -31 -47 -34 -50
-14 -11 -165 -332 -181 -385 -7 -22 -21 -62 -32 -90 -30 -76 -58 -171 -78
-260 -9 -44 -31 -134 -47 -200 -27 -105 -38 -156 -49 -215 -1 -8 -7 -42 -13
-75 -23 -125 -34 -426 -19 -496 9 -41 16 -84 37 -214 11 -64 47 -203 72 -280
12 -33 23 -71 25 -85 9 -58 36 -140 70 -217 13 -29 27 -65 30 -80 6 -24 21
-55 63 -133 36 -69 51 -101 51 -113 0 -8 9 -22 20 -32 11 -10 20 -22 20 -27 0
-5 20 -52 45 -104 25 -51 45 -96 45 -98 0 -10 96 -173 111 -189 10 -11 20 -30
24 -44 3 -14 17 -40 31 -58 13 -17 24 -37 24 -43 0 -6 4 -12 8 -14 5 -1 34
-46 66 -98 32 -52 64 -99 72 -103 8 -4 14 -14 14 -22 0 -7 4 -15 8 -17 4 -1
17 -17 27 -34 38 -60 162 -204 221 -256 10 -9 35 -33 54 -54 46 -48 247 -214
345 -284 42 -30 89 -64 103 -76 55 -43 132 -94 142 -94 5 0 10 -4 10 -10 0 -5
17 -19 37 -30 40 -21 126 -81 155 -107 9 -8 23 -16 32 -17 8 -1 23 -9 33 -17
44 -37 237 -141 246 -133 3 4 43 -12 89 -34 136 -65 220 -103 278 -124 30 -11
73 -28 95 -39 22 -10 83 -34 135 -53 52 -19 109 -42 125 -50 17 -9 45 -19 63
-22 18 -3 49 -15 69 -25 21 -11 44 -19 53 -19 8 0 29 -7 45 -16 35 -19 146
-51 190 -55 17 -2 35 -6 40 -10 6 -3 44 -16 85 -28 41 -12 94 -29 116 -37 23
-8 50 -17 60 -19 11 -2 37 -11 59 -19 22 -8 54 -15 72 -16 17 0 34 -4 38 -9 3
-6 27 -13 53 -17 26 -3 52 -9 57 -12 15 -9 94 -26 174 -38 19 -2 38 -7 44 -11
6 -3 22 -7 36 -8 14 -1 60 -7 101 -14 41 -6 120 -14 175 -17 55 -3 125 -7 155
-9 260 -16 435 -20 970 -20 532 0 740 4 975 20 28 2 100 6 161 9 62 3 149 13
195 21 46 8 85 12 88 10 2 -3 9 -1 15 4 11 9 45 16 136 28 25 3 50 9 55 13 6
5 38 14 73 20 34 7 65 17 68 21 3 5 20 9 37 9 18 1 50 8 72 16 22 8 48 17 59
19 10 2 37 11 60 19 22 8 73 24 111 36 39 12 77 24 85 27 8 3 26 8 40 10 43 6
144 35 170 48 14 8 50 21 80 31 30 9 60 20 65 24 6 4 25 10 42 13 18 4 61 19
95 35 35 16 99 42 143 57 44 15 87 33 96 41 8 8 25 14 37 14 11 0 23 4 26 9 3
5 17 12 31 15 14 4 59 22 100 41 41 19 76 35 79 35 3 0 42 18 87 40 45 22 84
38 87 35 9 -9 191 90 245 134 10 8 25 16 34 17 8 2 25 12 37 23 12 12 26 21
30 21 4 0 26 15 49 34 23 18 57 41 75 50 17 9 32 21 32 26 0 6 5 10 10 10 6 0
48 27 93 60 45 33 115 83 155 112 41 29 104 78 140 108 37 30 76 62 87 70 35
27 289 284 330 334 44 55 82 112 91 139 4 9 11 17 18 17 6 1 31 35 56 76 25
42 53 88 62 102 21 33 43 72 65 115 9 17 33 57 53 87 19 30 45 74 55 97 11 24
23 43 28 43 4 0 7 5 7 11 0 14 40 108 59 139 5 8 19 35 31 60 11 25 25 52 29
60 5 8 14 26 20 40 6 14 15 32 20 40 5 8 14 26 20 40 6 14 15 32 20 40 27 45
114 272 136 355 9 33 24 87 34 120 11 33 22 76 26 95 4 19 15 62 25 96 10 33
24 105 30 160 7 54 17 105 23 113 22 26 12 397 -14 536 -12 65 -13 70 -23 130
-4 22 -13 65 -21 95 -7 30 -23 91 -34 135 -11 44 -23 96 -26 115 -10 56 -43
169 -75 250 -15 41 -31 87 -34 102 -3 15 -22 62 -42 105 -20 43 -45 100 -56
127 -10 27 -27 61 -37 75 -10 14 -23 40 -30 58 -7 17 -21 39 -32 49 -10 9 -19
22 -19 28 0 7 -13 27 -30 46 -16 19 -29 40 -30 47 0 6 -16 28 -35 49 -19 20
-35 40 -35 43 0 3 -16 24 -35 46 -19 22 -35 43 -35 47 0 4 -16 22 -35 41 -19
19 -35 37 -35 42 0 9 -35 51 -109 131 -31 34 -81 90 -111 124 -135 154 -292
301 -328 306 -8 2 -18 7 -21 12 -6 10 -61 57 -126 107 -57 44 -183 150 -235
197 -25 22 -54 48 -65 57 -185 160 -465 431 -465 450 0 5 -6 16 -13 23 -36 36
-75 150 -80 233 -4 55 20 177 41 209 4 6 7 14 7 18 0 4 8 17 18 28 9 11 17 25
17 30 0 6 5 10 10 10 6 0 10 5 10 10 0 6 8 18 18 29 9 10 41 48 71 85 29 36
57 66 62 66 4 0 36 25 71 56 35 30 77 62 93 71 26 14 54 34 103 74 6 5 12 7
12 3 0 -4 12 4 28 18 15 14 53 35 85 48 31 12 57 26 57 31 0 5 5 9 11 9 7 0
48 18 93 39 88 43 154 72 172 76 6 2 31 14 55 28 65 38 187 97 199 97 6 0 30
9 53 21 23 11 62 27 87 36 25 8 59 21 75 28 17 7 75 28 130 45 55 18 109 36
120 40 11 4 85 20 165 35 196 36 206 40 219 76 9 27 8 29 -15 29 -16 0 -24 6
-24 18 -1 23 -30 42 -120 82 -41 17 -93 40 -115 50 -64 28 -137 52 -175 57
-19 3 -40 9 -45 14 -6 4 -38 11 -70 14 -33 3 -87 10 -120 15 -33 5 -87 11
-120 14 -33 3 -112 10 -175 16 -185 17 -356 19 -490 4 -118 -13 -262 -44 -301
-65 -10 -5 -29 -9 -43 -9 -14 0 -28 -4 -31 -10 -3 -5 -17 -10 -31 -10 -13 0
-32 -4 -42 -9 -9 -5 -37 -14 -62 -20 -80 -21 -164 -47 -195 -61 -42 -18 -220
-69 -285 -82 -30 -6 -59 -14 -65 -18 -5 -4 -39 -11 -75 -15 -36 -4 -74 -9 -85
-11 -163 -33 -582 -58 -720 -43 -138 15 -155 18 -213 35 -31 9 -93 25 -136 35
-44 11 -84 23 -90 28 -6 4 -40 14 -76 20 -36 7 -74 16 -85 21 -11 5 -45 16
-75 25 -30 10 -77 26 -104 36 -27 11 -56 19 -66 19 -9 0 -19 3 -23 6 -9 9
-131 53 -209 74 -36 10 -74 23 -85 28 -44 23 -142 61 -183 71 -88 22 -183 42
-219 45 -20 2 -63 8 -96 14 -120 22 -398 39 -430 27z m90 -134 c72 0 147 2
169 5 21 2 68 0 105 -5 36 -5 104 -15 151 -21 47 -7 99 -18 117 -26 17 -8 43
-14 57 -14 30 0 156 -38 171 -51 5 -5 16 -9 24 -9 8 0 22 -6 30 -14 9 -8 40
-17 69 -20 29 -3 61 -10 70 -15 9 -4 35 -12 57 -15 22 -4 50 -14 61 -21 26
-17 186 -71 237 -80 20 -4 40 -11 43 -16 3 -5 16 -9 30 -9 13 0 24 -5 24 -11
0 -6 9 -9 20 -6 10 3 20 2 22 -2 4 -8 272 -86 348 -101 50 -9 141 -21 198 -24
12 0 22 -4 22 -9 0 -8 450 -1 540 8 107 12 262 36 328 51 37 9 76 17 87 19 27
5 154 41 185 53 14 5 46 12 72 16 26 4 50 11 53 15 2 5 22 12 42 15 38 7 63
14 203 60 41 14 91 28 110 32 48 11 50 11 53 14 1 1 11 4 22 5 11 2 56 12 100
23 66 17 226 36 285 34 130 -3 503 -33 543 -43 20 -5 41 -7 46 -4 5 3 33 0 63
-6 140 -27 164 -33 256 -60 52 -16 172 -71 172 -80 0 -4 -19 -10 -42 -14 -24
-3 -54 -10 -68 -15 -14 -4 -52 -14 -85 -21 -33 -7 -89 -24 -125 -37 -36 -13
-80 -28 -98 -34 -18 -5 -61 -22 -96 -37 -34 -16 -77 -32 -94 -35 -17 -4 -36
-14 -43 -22 -6 -8 -19 -14 -28 -14 -9 0 -38 -12 -66 -26 -27 -14 -77 -36 -110
-48 -52 -20 -97 -40 -250 -111 -70 -32 -213 -104 -245 -124 -19 -11 -44 -25
-55 -30 -25 -11 -164 -111 -206 -148 -146 -128 -309 -341 -309 -405 0 -10 -7
-33 -16 -50 -25 -48 -20 -176 9 -268 49 -151 58 -163 281 -383 261 -257 296
-289 361 -337 33 -25 71 -56 86 -70 38 -38 118 -103 145 -120 13 -8 24 -18 24
-22 0 -5 4 -8 9 -8 5 0 24 -15 43 -32 19 -18 54 -49 78 -68 57 -46 129 -120
136 -142 3 -9 14 -20 25 -23 43 -14 14 -23 -68 -23 -143 2 -891 -19 -953 -27
-19 -2 -127 -7 -240 -10 -113 -4 -221 -9 -240 -10 -19 -2 -98 -6 -175 -9 -77
-4 -176 -9 -220 -12 -336 -23 -700 -21 -953 5 -52 6 -162 8 -245 6 -223 -7
-345 -7 -607 1 -264 9 -449 9 -1370 3 -368 -2 -696 1 -765 6 -129 11 -551 11
-810 1 -88 -4 -216 -9 -285 -11 -69 -3 -222 -7 -340 -9 -657 -13 -837 -17
-950 -21 -194 -7 -775 -6 -794 1 -12 5 -4 17 41 58 31 28 75 71 97 95 81 88
112 117 146 141 19 13 47 36 63 52 15 15 29 28 32 28 7 0 35 23 127 105 44 39
90 77 101 85 92 64 105 75 380 340 186 180 216 211 223 232 3 10 9 18 13 18 4
0 20 33 36 73 15 39 31 81 36 92 16 39 30 146 24 188 -9 63 -11 70 -23 100 -7
16 -12 34 -12 41 0 21 -80 147 -134 211 -48 57 -120 131 -182 185 -33 29 -181
133 -204 143 -8 4 -28 15 -45 25 -43 26 -139 75 -220 112 -38 17 -81 37 -95
45 -14 7 -74 33 -135 58 -60 25 -134 57 -162 71 -29 14 -59 26 -67 26 -7 0
-19 6 -25 14 -7 8 -25 18 -41 21 -16 4 -66 22 -112 41 -45 19 -88 34 -95 34
-7 0 -21 4 -31 10 -25 14 -129 46 -192 60 -30 7 -64 16 -75 21 -11 4 -41 10
-67 14 -27 3 -48 10 -48 14 0 12 194 91 222 91 13 0 28 4 33 8 15 13 156 40
245 48 14 1 93 9 175 17 129 14 368 31 415 29 87 -2 220 -18 285 -34 44 -11
89 -21 100 -23 11 -1 21 -4 23 -5 2 -3 4 -3 52 -14 19 -4 67 -18 105 -30 81
-27 167 -52 210 -62 17 -4 35 -10 40 -14 6 -5 28 -11 50 -15 22 -4 85 -20 139
-36 55 -16 109 -31 120 -33 12 -3 55 -12 96 -21 202 -43 433 -65 680 -63 69 1
140 1 158 0 17 0 32 2 32 6 0 4 10 8 23 8 154 9 245 28 511 109 26 8 55 15 62
15 8 0 14 5 14 10 0 6 7 10 16 10 27 0 272 78 301 96 27 17 165 56 217 60 22
3 46 10 54 16 25 21 150 63 227 77 22 4 56 13 75 19 19 6 87 18 150 27 63 9
122 18 130 20 8 2 40 2 70 0 30 -2 114 -4 185 -4z m4614 -3119 c29 -31 68 -73
87 -93 19 -21 34 -40 34 -44 0 -4 18 -29 41 -54 46 -52 68 -79 110 -136 16
-22 33 -45 39 -52 5 -7 10 -16 10 -20 0 -4 16 -25 35 -46 19 -21 35 -42 35
-46 0 -4 9 -17 20 -28 37 -40 178 -313 223 -433 14 -36 31 -78 38 -95 7 -16
11 -36 10 -43 -1 -8 2 -19 8 -25 11 -14 34 -99 63 -237 11 -52 26 -117 34
-145 7 -27 16 -66 18 -85 3 -19 13 -69 21 -110 39 -184 50 -563 20 -735 -24
-146 -69 -312 -111 -410 -29 -69 -44 -111 -47 -132 -2 -12 -6 -26 -10 -29 -4
-4 -7 -15 -7 -23 0 -9 -11 -33 -25 -53 -14 -20 -31 -61 -39 -90 -31 -114 -69
-225 -91 -268 -13 -25 -39 -76 -58 -115 -73 -149 -135 -265 -158 -297 -13 -18
-32 -49 -43 -68 -10 -19 -34 -56 -52 -81 -19 -26 -34 -51 -34 -56 0 -4 -13
-24 -29 -43 -15 -19 -36 -50 -45 -68 -9 -18 -25 -41 -34 -50 -9 -10 -33 -40
-53 -67 -59 -82 -178 -209 -278 -295 -35 -30 -69 -60 -75 -65 -6 -6 -31 -26
-56 -45 -25 -19 -47 -37 -50 -41 -3 -3 -45 -34 -95 -69 -49 -35 -97 -70 -105
-77 -8 -8 -58 -42 -110 -75 -52 -34 -97 -64 -100 -68 -9 -12 -137 -90 -148
-90 -10 0 -176 -93 -198 -111 -6 -5 -28 -15 -50 -23 -41 -14 -140 -57 -187
-82 -16 -8 -33 -14 -38 -14 -5 0 -26 -7 -47 -16 -20 -10 -43 -18 -50 -20 -6
-1 -31 -12 -55 -23 -24 -12 -47 -21 -51 -21 -4 0 -31 -11 -59 -23 -29 -13 -78
-32 -109 -42 -32 -10 -58 -22 -58 -26 0 -5 -10 -9 -23 -9 -12 0 -40 -9 -62
-20 -21 -11 -48 -21 -59 -23 -24 -4 -35 -8 -136 -47 -41 -16 -101 -36 -132
-46 -32 -10 -58 -22 -58 -28 0 -6 -33 -21 -73 -34 -39 -13 -85 -29 -102 -37
-35 -15 -88 -30 -165 -46 -30 -6 -68 -17 -85 -24 -39 -16 -196 -58 -227 -60
-3 0 -9 -3 -13 -7 -4 -4 -13 -4 -21 -1 -8 3 -20 0 -27 -5 -7 -6 -22 -11 -32
-11 -11 0 -51 -6 -90 -14 -73 -16 -156 -26 -265 -32 -72 -5 -251 -17 -290 -20
-117 -10 -426 -18 -612 -17 l-228 1 -1 -27 -2 -27 -4 26 -4 27 -252 -1 c-256
0 -401 5 -646 23 -75 5 -179 12 -231 14 -117 7 -168 13 -267 32 -43 8 -87 15
-98 15 -10 0 -25 5 -32 11 -7 5 -19 8 -27 5 -8 -3 -17 -3 -21 1 -4 4 -10 7
-13 7 -31 2 -188 44 -227 60 -16 7 -55 18 -85 24 -76 16 -130 31 -165 46 -16
7 -61 23 -100 36 -38 13 -74 29 -78 36 -4 7 -40 22 -80 34 -40 12 -76 25 -82
29 -5 3 -32 14 -60 24 -27 10 -57 20 -65 23 -8 4 -26 8 -39 10 -13 2 -33 10
-45 17 -11 8 -34 17 -51 21 -16 5 -32 9 -35 10 -3 1 -21 8 -40 17 -19 9 -73
30 -120 47 -47 18 -98 38 -115 46 -32 14 -57 23 -65 22 -3 0 -24 10 -47 22
-23 11 -49 21 -57 21 -8 0 -27 6 -43 14 -87 43 -114 55 -168 76 -33 13 -73 33
-90 45 -44 31 -164 95 -179 95 -7 0 -31 12 -53 28 -21 15 -46 32 -54 37 -87
56 -239 159 -259 175 -14 10 -61 45 -105 76 -44 31 -81 60 -83 65 -2 5 -8 9
-13 9 -9 0 -29 16 -113 91 -23 20 -54 47 -71 60 -31 25 -160 154 -205 205 -42
47 -142 184 -185 252 -22 35 -54 82 -70 105 -70 98 -165 263 -269 472 -80 162
-89 184 -115 282 -19 75 -48 149 -71 183 -14 20 -32 70 -37 99 -2 13 -15 50
-28 81 -43 102 -82 224 -99 310 -10 47 -20 96 -23 110 -11 48 -13 66 -19 175
-12 214 0 454 30 590 9 39 20 96 25 127 5 32 12 62 15 67 4 5 15 56 26 113 11
57 28 131 39 166 10 34 17 62 14 62 -3 0 2 11 11 25 9 13 16 31 16 39 0 14 15
55 72 201 20 50 72 158 98 205 8 14 15 27 15 30 2 12 123 197 143 218 6 8 26
34 44 60 18 26 38 53 44 62 7 8 29 35 49 60 20 25 50 62 68 84 18 21 33 42 35
46 2 4 21 27 44 51 l41 43 196 2 c186 2 403 9 661 19 63 3 286 7 495 10 478 6
909 14 1000 19 325 19 832 20 995 1 52 -6 345 -9 475 -5 33 1 65 1 70 0 6 -1
51 -1 100 0 249 5 1247 2 1360 -5 72 -4 319 -8 550 -9 231 -1 425 -5 431 -8
30 -19 532 -27 829 -14 66 3 171 8 233 11 63 2 117 7 121 10 5 2 77 7 162 11
85 3 186 10 224 15 84 11 230 17 548 23 131 2 240 5 242 7 2 2 125 5 273 6
l270 2 51 -57z"/>
</g>
</svg>
