<?xml version="1.0" encoding="UTF-8"?>
<!DOCTYPE svg PUBLIC "-//W3C//DTD SVG 1.1//EN" "http://www.w3.org/Graphics/SVG/1.1/DTD/svg11.dtd">
<svg xmlns="http://www.w3.org/2000/svg" version="1.1" width="1779px" height="1252px" style="shape-rendering:geometricPrecision; text-rendering:geometricPrecision; image-rendering:optimizeQuality; fill-rule:evenodd; clip-rule:evenodd" xmlns:xlink="http://www.w3.org/1999/xlink">
<g><path style="opacity:0.689" fill="#000000" d="M 948.5,176.5 C 949.008,178.233 949.841,178.566 951,177.5C 959.203,181.921 967.37,185.588 975.5,188.5C 986.477,193.445 998.143,198.445 1010.5,203.5C 1019.11,206.369 1028.11,209.369 1037.5,212.5C 1038.44,212.392 1039.28,212.059 1040,211.5C 1041.16,213.665 1042.99,214.665 1045.5,214.5C 1047.77,213.658 1049.93,213.658 1052,214.5C 1058.99,212.351 1066.49,210.517 1074.5,209C 1077,208.115 1079.33,206.948 1081.5,205.5C 1083.47,206.443 1084.97,205.776 1086,203.5C 1087.71,204.925 1089.05,204.592 1090,202.5C 1090.33,202.833 1090.67,203.167 1091,203.5C 1094.26,201.405 1097.59,200.405 1101,200.5C 1107,197.447 1113.17,195.114 1119.5,193.5C 1128.01,192.019 1135.34,189.352 1141.5,185.5C 1142.99,186.705 1144.33,186.705 1145.5,185.5C 1148.91,184.051 1152.41,182.718 1156,181.5C 1156.33,181.833 1156.67,182.167 1157,182.5C 1157.51,180.096 1158.67,179.429 1160.5,180.5C 1163.97,178.747 1167.47,178.08 1171,178.5C 1171.72,177.956 1172.22,177.289 1172.5,176.5C 1184.15,172.781 1196.15,170.781 1208.5,170.5C 1215.08,171.082 1221.58,171.082 1228,170.5C 1234.31,171.367 1240.65,172.367 1247,173.5C 1249.74,172.351 1252.07,173.017 1254,175.5C 1255.71,174.862 1257.54,174.862 1259.5,175.5C 1260.54,176.791 1261.71,176.791 1263,175.5C 1265.95,177.645 1269.12,179.312 1272.5,180.5C 1279.67,183.579 1287.33,186.579 1295.5,189.5C 1296.2,191.672 1297.2,193.672 1298.5,195.5C 1297.39,199.787 1295.22,201.12 1292,199.5C 1286.25,202.522 1280.41,204.688 1274.5,206C 1275.65,206.914 1275.49,207.747 1274,208.5C 1273.59,208.043 1273.09,207.709 1272.5,207.5C 1266.39,211.89 1259.72,215.224 1252.5,217.5C 1251.91,217.291 1251.41,216.957 1251,216.5C 1244.49,220.942 1238.16,223.942 1232,225.5C 1230.07,227.901 1227.91,229.068 1225.5,229C 1219.9,232.97 1213.56,236.637 1206.5,240C 1195.25,251.083 1183.25,261.25 1170.5,270.5C 1169.4,272.229 1168.24,273.896 1167,275.5C 1166.67,275.167 1166.33,274.833 1166,274.5C 1162.9,277.75 1160.07,281.083 1157.5,284.5C 1155.67,286.147 1154.34,288.147 1153.5,290.5C 1145.88,302.828 1141.55,316.828 1140.5,332.5C 1140.57,333.772 1140.9,334.938 1141.5,336C 1140.48,336.519 1139.82,337.353 1139.5,338.5C 1140.15,342.133 1141.82,345.633 1144.5,349C 1143.62,350.356 1143.29,351.856 1143.5,353.5C 1145.94,353.119 1146.61,353.786 1145.5,355.5C 1146.88,358.259 1148.21,360.925 1149.5,363.5C 1150.91,365.998 1152.08,368.664 1153,371.5C 1154.67,370.66 1154.83,371.16 1153.5,373C 1155.33,373.5 1156.5,374.667 1157,376.5C 1157.33,376.167 1157.67,375.833 1158,375.5C 1159.08,377.996 1160.41,380.33 1162,382.5C 1162.33,382.167 1162.67,381.833 1163,381.5C 1171.17,389.667 1179,397.5 1186.5,405C 1186.04,405.414 1185.71,405.914 1185.5,406.5C 1186.91,407.806 1188.58,408.64 1190.5,409C 1189.55,409.718 1189.38,410.551 1190,411.5C 1216.19,434.934 1239.19,462.6 1259,494.5C 1259.33,494.167 1259.67,493.833 1260,493.5C 1261.46,495.972 1262.46,498.639 1263,501.5C 1263.33,501.167 1263.67,500.833 1264,500.5C 1264.61,504.115 1266.45,506.949 1269.5,509C 1269.04,509.414 1268.71,509.914 1268.5,510.5C 1270.35,512.781 1272.02,515.115 1273.5,517.5C 1272.17,517.833 1272.17,518.167 1273.5,518.5C 1273.92,519.222 1274.58,519.722 1275.5,520C 1275.17,520.333 1274.83,520.667 1274.5,521C 1275.61,522.876 1276.61,524.709 1277.5,526.5C 1277.33,527.492 1277.66,528.158 1278.5,528.5C 1291.23,552.559 1299.9,577.392 1304.5,603C 1307.3,610.654 1309.63,618.821 1311.5,627.5C 1311.17,628.833 1310.83,630.167 1310.5,631.5C 1311.5,636.833 1312.5,642.167 1313.5,647.5C 1313.29,648.086 1312.96,648.586 1312.5,649C 1313.01,651.693 1314.01,654.193 1315.5,656.5C 1314.95,657.772 1314.62,659.106 1314.5,660.5C 1315.75,666.794 1316.75,673.127 1317.5,679.5C 1317.08,693.376 1317.08,707.209 1317.5,721C 1314.66,731.845 1312.66,742.512 1311.5,753C 1311.83,753.333 1312.17,753.667 1312.5,754C 1309.79,775.332 1304.46,796.165 1296.5,816.5C 1297.61,817.965 1297.11,818.965 1295,819.5C 1294.67,822.489 1293.84,825.322 1292.5,828C 1287.09,837.995 1282.09,848.161 1277.5,858.5C 1276.66,858.842 1276.33,859.508 1276.5,860.5C 1275.5,861.5 1274.5,862.5 1273.5,863.5C 1272.26,865.608 1270.76,867.608 1269,869.5C 1268.32,870.784 1268.48,871.951 1269.5,873C 1267.7,873.317 1267.37,873.984 1268.5,875C 1266.48,877.336 1264.48,879.67 1262.5,882C 1262.83,882.333 1263.17,882.667 1263.5,883C 1260.79,886.912 1257.96,890.746 1255,894.5C 1255,895.833 1255,897.167 1255,898.5C 1254.67,898.167 1254.33,897.833 1254,897.5C 1253.5,898.667 1252.67,899.5 1251.5,900C 1251.96,900.414 1252.29,900.914 1252.5,901.5C 1249.84,903.631 1247.5,906.131 1245.5,909C 1245.83,909.333 1246.17,909.667 1246.5,910C 1243.96,913.387 1240.96,916.387 1237.5,919C 1237.83,919.333 1238.17,919.667 1238.5,920C 1235.63,922.215 1233.46,925.049 1232,928.5C 1227.49,935.058 1221.82,941.392 1215,947.5C 1214.33,948.833 1213.67,950.167 1213,951.5C 1212.67,951.167 1212.33,950.833 1212,950.5C 1209.97,952.772 1207.81,954.939 1205.5,957C 1205.83,957.333 1206.17,957.667 1206.5,958C 1197.05,968.123 1187.05,977.457 1176.5,986C 1171.05,991.448 1165.22,997.282 1159,1003.5C 1155.85,1001.84 1154.35,1002.84 1154.5,1006.5C 1152.22,1006.61 1150.22,1007.44 1148.5,1009C 1143.66,1013.99 1138.32,1017.32 1132.5,1019C 1127.04,1022.58 1121.54,1026.08 1116,1029.5C 1115.67,1029.17 1115.33,1028.83 1115,1028.5C 1111.64,1030.66 1108.14,1032.33 1104.5,1033.5C 1103.51,1033.33 1102.84,1033.66 1102.5,1034.5C 1100.6,1034.8 1098.93,1035.46 1097.5,1036.5C 1095.62,1036.23 1094.29,1036.9 1093.5,1038.5C 1092.54,1038.95 1091.71,1039.62 1091,1040.5C 1090.67,1040.17 1090.33,1039.83 1090,1039.5C 1088.65,1041.02 1087.15,1042.35 1085.5,1043.5C 1084.91,1043.29 1084.41,1042.96 1084,1042.5C 1081.7,1044.07 1079.2,1045.24 1076.5,1046C 1076.83,1046.33 1077.17,1046.67 1077.5,1047C 1041.71,1061.6 1005.04,1072.6 967.5,1080C 961.608,1081.14 955.775,1081.31 950,1080.5C 949.25,1081.13 948.416,1081.63 947.5,1082C 936,1082.17 924.5,1082.33 913,1082.5C 898.246,1082.07 883.579,1082.07 869,1082.5C 860.891,1081.26 852.724,1080.1 844.5,1079C 839.249,1078.2 834.082,1078.36 829,1079.5C 828.692,1078.69 828.192,1078.03 827.5,1077.5C 824.565,1077.7 821.732,1077.7 819,1077.5C 815.141,1075.36 811.141,1074.69 807,1075.5C 806.395,1073.52 805.395,1073.19 804,1074.5C 788.79,1071.4 774.29,1067.23 760.5,1062C 741.803,1058.05 723.97,1052.89 707,1046.5C 705.871,1044.86 704.371,1043.86 702.5,1043.5C 702.158,1042.66 701.492,1042.33 700.5,1042.5C 698.058,1041.1 695.724,1039.43 693.5,1037.5C 692.914,1037.71 692.414,1038.04 692,1038.5C 690,1036.5 688,1034.5 686,1032.5C 685.667,1032.83 685.333,1033.17 685,1033.5C 684.228,1032.15 683.061,1031.32 681.5,1031C 681.833,1030.67 682.167,1030.33 682.5,1030C 676.176,1028.15 670.176,1025.65 664.5,1022.5C 658.806,1019.32 653.473,1015.66 648.5,1011.5C 647.914,1011.71 647.414,1012.04 647,1012.5C 644.973,1010.23 642.806,1008.06 640.5,1006C 629.241,999.774 618.908,993.274 609.5,986.5C 605.82,983.639 601.653,980.305 597,976.5C 594.226,975.464 591.393,974.631 588.5,974C 584.333,969.833 580.167,965.667 576,961.5C 575.667,960.167 575.333,958.833 575,957.5C 566.002,950.002 557.836,941.669 550.5,932.5C 550.833,931.833 551.167,931.167 551.5,930.5C 549.599,928.994 547.932,927.327 546.5,925.5C 545.541,923.396 544.207,921.063 542.5,918.5C 541.974,916.77 540.974,915.436 539.5,914.5C 539.5,913.833 539.167,913.5 538.5,913.5C 538.34,911.847 537.674,910.514 536.5,909.5C 533.386,900.702 529.053,893.202 523.5,887C 523.833,886.667 524.167,886.333 524.5,886C 517.909,874.989 512.409,863.822 508,852.5C 503.216,837.867 497.383,823.367 490.5,809C 491.127,805.628 489.793,802.961 486.5,801C 487.337,799.989 487.67,798.822 487.5,797.5C 485.058,797.881 484.391,797.214 485.5,795.5C 484.994,792.609 483.994,789.942 482.5,787.5C 482.709,786.914 483.043,786.414 483.5,786C 482.144,783.602 480.977,781.102 480,778.5C 479.52,773.309 478.687,768.642 477.5,764.5C 476.287,756.685 474.953,749.018 473.5,741.5C 472.256,733.111 470.589,724.944 468.5,717C 469.88,713.855 469.214,711.188 466.5,709C 466.888,707.343 467.221,705.343 467.5,703C 467.014,698.454 466.347,693.954 465.5,689.5C 465.709,688.914 466.043,688.414 466.5,688C 465.443,676.392 464.776,665.058 464.5,654C 465.258,644.12 466.591,634.287 468.5,624.5C 469.763,619.248 471.096,613.915 472.5,608.5C 472.5,605.833 472.5,603.167 472.5,600.5C 472.846,599.304 473.346,599.304 474,600.5C 474.743,598.559 474.576,596.726 473.5,595C 474.893,593.829 475.727,592.329 476,590.5C 477.944,584.638 479.278,578.638 480,572.5C 480.889,573.888 481.389,573.722 481.5,572C 479.859,570.354 480.193,569.354 482.5,569C 482.936,565.171 484.603,561.504 487.5,558C 486.167,556.16 486.334,555.66 488,556.5C 495.317,537.38 503.984,519.38 514,502.5C 517.36,499.29 520.027,494.956 522,489.5C 522.333,489.833 522.667,490.167 523,490.5C 525.849,487.776 527.516,484.776 528,481.5C 528.414,481.957 528.914,482.291 529.5,482.5C 530.362,481.234 531.029,479.901 531.5,478.5C 532.338,478.158 532.672,477.492 532.5,476.5C 535.037,474.608 536.703,472.608 537.5,470.5C 538.338,470.158 538.672,469.492 538.5,468.5C 542.168,466.182 543.835,463.016 543.5,459C 549.167,454.333 554.833,449.667 560.5,445C 562.055,443.417 563.222,441.584 564,439.5C 564.333,439.833 564.667,440.167 565,440.5C 567.703,436.459 570.703,433.459 574,431.5C 575,429.833 576,428.167 577,426.5C 577.333,426.833 577.667,427.167 578,427.5C 579.582,426.04 580.915,424.373 582,422.5C 582.414,422.957 582.914,423.291 583.5,423.5C 584.757,421.321 586.257,419.321 588,417.5C 588.333,417.833 588.667,418.167 589,418.5C 589.979,416.68 591.479,415.513 593.5,415C 592.167,414.333 592.167,413.667 593.5,413C 595.91,412.4 597.91,411.234 599.5,409.5C 600.186,408.152 601.186,406.985 602.5,406C 602.167,405.667 601.833,405.333 601.5,405C 606.185,402.353 610.018,399.52 613,396.5C 616.139,391.044 619.639,385.877 623.5,381C 625.775,375.289 627.608,369.456 629,363.5C 629.336,356.802 630.503,350.302 632.5,344C 631.833,339.667 631.167,335.333 630.5,331C 630.588,329.054 630.921,327.054 631.5,325C 630.313,322.234 629.313,319.401 628.5,316.5C 622.371,306.258 616.204,295.925 610,285.5C 606.99,282.323 603.824,279.323 600.5,276.5C 596.512,273.071 592.846,269.238 589.5,265C 575.667,253.167 561.833,241.333 548,229.5C 545.399,230.726 544.565,230.06 545.5,227.5C 543.862,226.042 542.195,225.708 540.5,226.5C 538.808,223.419 535.808,221.419 531.5,220.5C 529.211,218.613 526.545,217.279 523.5,216.5C 523.167,215.167 522.833,215.167 522.5,216.5C 520.578,213.991 517.911,212.657 514.5,212.5C 514.167,211.167 513.833,211.167 513.5,212.5C 509.773,210.415 505.94,208.415 502,206.5C 501.586,206.957 501.086,207.291 500.5,207.5C 498.295,205.654 495.961,203.987 493.5,202.5C 492.914,202.709 492.414,203.043 492,203.5C 490.136,202.036 487.969,201.036 485.5,200.5C 483.604,198.119 483.271,195.619 484.5,193C 489.975,189.688 495.308,186.188 500.5,182.5C 499.496,180.323 500.162,179.989 502.5,181.5C 503.696,181.154 503.696,180.654 502.5,180C 515.882,174.629 530.715,171.129 547,169.5C 556.71,168.943 566.543,169.61 576.5,171.5C 577.086,171.291 577.586,170.957 578,170.5C 581.009,171.913 584.009,172.246 587,171.5C 591.477,172.18 595.977,172.68 600.5,173C 605.007,174.893 609.673,176.059 614.5,176.5C 618.254,178.175 622.254,179.509 626.5,180.5C 626.842,181.338 627.508,181.672 628.5,181.5C 630.843,182.344 633.176,183.344 635.5,184.5C 637.46,186.21 639.627,186.543 642,185.5C 645.546,188.748 649.046,190.248 652.5,190C 651.66,191.666 652.16,191.833 654,190.5C 657.383,193.289 661.049,194.623 665,194.5C 676.335,198.874 687.835,202.708 699.5,206C 708.551,206.555 717.551,207.388 726.5,208.5C 732.693,206.536 739.026,205.036 745.5,204C 754.574,201.289 763.24,197.789 771.5,193.5C 774.815,192.844 777.482,191.177 779.5,188.5C 780.086,188.709 780.586,189.043 781,189.5C 782.648,188.283 784.481,187.45 786.5,187C 802.745,175.681 822.079,168.014 844.5,164C 866.527,163.106 888.527,163.439 910.5,165C 923.865,167.658 936.531,171.491 948.5,176.5 Z M 1088.5,216.5 C 1088.83,217.833 1089.17,217.833 1089.5,216.5C 1092.12,214.517 1095.12,213.517 1098.5,213.5C 1100.9,210.88 1103.73,210.213 1107,211.5C 1110.5,209.211 1114.17,208.211 1118,208.5C 1118.48,207.552 1118.65,206.552 1118.5,205.5C 1126.09,204.693 1133.09,202.193 1139.5,198C 1159.43,189.85 1180.1,184.517 1201.5,182C 1209.81,181.592 1217.98,181.425 1226,181.5C 1228.12,182.227 1230.29,182.894 1232.5,183.5C 1242.85,182.737 1252.69,184.737 1262,189.5C 1262.33,189.167 1262.67,188.833 1263,188.5C 1265.71,190.936 1268.87,192.436 1272.5,193C 1273.13,193.75 1273.63,194.584 1274,195.5C 1274.33,195.167 1274.67,194.833 1275,194.5C 1276.07,195.191 1277.23,195.691 1278.5,196C 1277.46,197.617 1276.3,197.784 1275,196.5C 1274.68,198.301 1274.02,198.634 1273,197.5C 1269.95,199.611 1266.79,201.611 1263.5,203.5C 1243.02,209.588 1223.35,218.255 1204.5,229.5C 1202.98,230.851 1201.65,232.351 1200.5,234C 1191.27,235.8 1181.77,236.967 1172,237.5C 1153.67,237.166 1135.67,237.166 1118,237.5C 1115.48,236.896 1112.98,236.229 1110.5,235.5C 1091.12,235.266 1071.62,235.932 1052,237.5C 1038.03,237.814 1024.19,237.481 1010.5,236.5C 1007.96,237.115 1005.46,237.782 1003,238.5C 918.687,237.742 834.52,237.075 750.5,236.5C 740.88,237.308 731.214,237.808 721.5,238C 720.584,238.374 719.75,238.874 719,239.5C 718.311,238.643 717.478,237.977 716.5,237.5C 690.728,238.523 664.895,239.857 639,241.5C 629.088,240.574 619.254,240.241 609.5,240.5C 605.274,241.07 601.108,241.737 597,242.5C 594.34,241.275 591.673,241.608 589,243.5C 586.56,242.344 584.06,242.344 581.5,243.5C 579.829,243.332 578.496,242.665 577.5,241.5C 576.662,241.158 576.328,240.492 576.5,239.5C 575.005,239.011 573.671,238.345 572.5,237.5C 573.833,237.167 573.833,236.833 572.5,236.5C 569.143,233.101 565.143,229.601 560.5,226C 541.178,213.477 520.844,203.477 499.5,196C 500.191,194.933 500.691,193.766 501,192.5C 506.149,188.761 511.816,185.761 518,183.5C 518.333,183.833 518.667,184.167 519,184.5C 530.837,181.428 543.004,179.761 555.5,179.5C 562.817,180.623 569.984,180.623 577,179.5C 578.67,181.698 580.67,182.032 583,180.5C 584.705,181.763 586.372,182.097 588,181.5C 594.455,182.657 600.955,183.823 607.5,185C 620.313,189.302 632.647,193.635 644.5,198C 646.791,199.389 648.958,200.889 651,202.5C 652.726,201.424 654.559,201.257 656.5,202C 656.167,202.333 655.833,202.667 655.5,203C 664.599,205.386 673.599,208.053 682.5,211C 683.667,211.5 684.5,212.333 685,213.5C 686.395,212.185 687.395,212.519 688,214.5C 688.561,213.978 689.228,213.645 690,213.5C 694.561,214.826 699.061,215.826 703.5,216.5C 706.518,216.335 709.518,216.502 712.5,217C 713.676,218.914 714.676,218.748 715.5,216.5C 716.107,216.624 716.44,216.957 716.5,217.5C 725.475,217.372 734.141,215.705 742.5,212.5C 743.967,212.723 745.467,213.056 747,213.5C 747.374,212.584 747.874,211.75 748.5,211C 761.233,209.424 772.899,205.09 783.5,198C 791.703,195.667 798.703,192.334 804.5,188C 842.814,172.296 882.147,169.296 922.5,179C 929.217,182.36 936.217,185.36 943.5,188C 944.035,190.109 945.035,190.609 946.5,189.5C 952.167,191.667 957.833,193.833 963.5,196C 968.442,198.185 972.942,201.018 977,204.5C 977.667,203.833 978.333,203.167 979,202.5C 981.959,205.293 985.125,206.793 988.5,207C 991.266,208.467 993.766,210.3 996,212.5C 996.725,211.941 997.558,211.608 998.5,211.5C 1003.51,213.605 1008.51,215.772 1013.5,218C 1019.61,219.041 1025.44,220.541 1031,222.5C 1032.07,221.72 1033.24,221.887 1034.5,223C 1044.17,223.667 1053.83,223.667 1063.5,223C 1071.84,220.694 1080.17,218.528 1088.5,216.5 Z M 1165.5,397.5 C 1166.93,398.082 1168.26,398.915 1169.5,400C 1174.08,404.074 1178.08,408.574 1181.5,413.5C 1186.27,418.771 1191.27,423.938 1196.5,429C 1195.35,431.557 1196.35,432.89 1199.5,433C 1200.19,434.067 1200.69,435.234 1201,436.5C 1201.33,436.167 1201.67,435.833 1202,435.5C 1203.32,436.974 1204.32,438.641 1205,440.5C 1205.33,440.167 1205.67,439.833 1206,439.5C 1206.5,441.333 1207.67,442.5 1209.5,443C 1209.17,443.333 1208.83,443.667 1208.5,444C 1211.24,445.174 1213.24,447.007 1214.5,449.5C 1216.47,451.304 1218.3,453.304 1220,455.5C 1220.33,455.167 1220.67,454.833 1221,454.5C 1221.99,456.97 1223.16,459.303 1224.5,461.5C 1223.45,462.078 1223.62,462.744 1225,463.5C 1225.4,463.272 1225.57,462.938 1225.5,462.5C 1227.38,462.229 1228.71,462.896 1229.5,464.5C 1232.2,468.201 1234.53,472.035 1236.5,476C 1236.17,476.333 1235.83,476.667 1235.5,477C 1237.77,477.941 1239.77,479.274 1241.5,481C 1241.17,481.333 1240.83,481.667 1240.5,482C 1242.83,484.6 1245.33,487.1 1248,489.5C 1248.33,491.167 1248.67,492.833 1249,494.5C 1251.04,498.803 1253.54,502.803 1256.5,506.5C 1256.29,507.086 1255.96,507.586 1255.5,508C 1259.64,513.004 1263.64,518.671 1267.5,525C 1272.2,533.327 1276.2,541.827 1279.5,550.5C 1280.78,553.402 1281.78,556.402 1282.5,559.5C 1283.67,560.514 1284.34,561.847 1284.5,563.5C 1285.91,566.219 1286.58,569.219 1286.5,572.5C 1287.69,572.97 1288.36,573.97 1288.5,575.5C 1289.16,577.472 1289.16,579.305 1288.5,581C 1290.37,585.841 1292.2,590.341 1294,594.5C 1294.1,597.451 1294.93,600.118 1296.5,602.5C 1296.17,603.167 1295.83,603.833 1295.5,604.5C 1295.85,605.696 1296.35,605.696 1297,604.5C 1298.4,610.208 1299.9,615.874 1301.5,621.5C 1302.04,621.56 1302.38,621.893 1302.5,622.5C 1300.54,625.137 1300.54,627.471 1302.5,629.5C 1302.39,630.442 1302.06,631.275 1301.5,632C 1303.11,635.077 1304.11,638.41 1304.5,642C 1304.17,642.333 1303.83,642.667 1303.5,643C 1306.78,660.55 1308.78,677.884 1309.5,695C 1308.6,704.759 1307.93,714.592 1307.5,724.5C 1307.4,727.7 1306.73,730.7 1305.5,733.5C 1306.05,734.772 1306.38,736.106 1306.5,737.5C 1304.83,746.123 1303.5,754.457 1302.5,762.5C 1302.42,763.75 1301.76,764.583 1300.5,765C 1301.06,765.725 1301.39,766.558 1301.5,767.5C 1299.7,773.379 1298.53,779.379 1298,785.5C 1295.63,791.558 1293.8,797.391 1292.5,803C 1290.94,806.347 1289.77,809.847 1289,813.5C 1288.62,814.056 1288.12,814.389 1287.5,814.5C 1287.1,818.116 1286.1,821.45 1284.5,824.5C 1284.34,826.153 1283.67,827.486 1282.5,828.5C 1272.09,844.987 1262.92,862.32 1255,880.5C 1248.86,887.971 1243.53,895.971 1239,904.5C 1232.01,910.187 1227.01,916.853 1224,924.5C 1222.19,926.3 1220.35,927.967 1218.5,929.5C 1217.17,929.833 1217.17,930.167 1218.5,930.5C 1211.92,939.255 1204.75,947.588 1197,955.5C 1186.93,963.074 1178.43,971.408 1171.5,980.5C 1170.23,982.18 1168.56,983.347 1166.5,984C 1166.83,984.333 1167.17,984.667 1167.5,985C 1164.9,985.883 1162.73,987.383 1161,989.5C 1160.67,989.167 1160.33,988.833 1160,988.5C 1158.96,990.585 1157.46,992.252 1155.5,993.5C 1152.28,994.941 1149.28,996.608 1146.5,998.5C 1146.17,997.167 1145.83,997.167 1145.5,998.5C 1143.62,998.393 1143.29,998.893 1144.5,1000C 1143.43,1001.28 1142.09,1001.62 1140.5,1001C 1140.83,1001.33 1141.17,1001.67 1141.5,1002C 1135.04,1006.44 1128.54,1010.94 1122,1015.5C 1121.67,1015.17 1121.33,1014.83 1121,1014.5C 1096.78,1027.04 1071.61,1038.37 1045.5,1048.5C 1041.04,1050.26 1036.37,1051.76 1031.5,1053C 1031.83,1053.33 1032.17,1053.67 1032.5,1054C 1027.94,1054.39 1023.61,1055.56 1019.5,1057.5C 1017.98,1056.09 1016.65,1056.26 1015.5,1058C 1015.83,1058.33 1016.17,1058.67 1016.5,1059C 1012.32,1059.19 1008.32,1060.02 1004.5,1061.5C 1003.43,1062.43 1002.1,1062.77 1000.5,1062.5C 996.782,1063.44 992.949,1064.44 989,1065.5C 987.893,1065.41 986.893,1065.08 986,1064.5C 984.541,1067.44 982.874,1067.78 981,1065.5C 980.161,1066.62 978.994,1067.29 977.5,1067.5C 969.952,1068.04 962.619,1069.54 955.5,1072C 935.016,1073.65 914.516,1074.48 894,1074.5C 871.893,1072.99 849.726,1071.49 827.5,1070C 823.76,1069.28 820.26,1068.11 817,1066.5C 814.978,1067.99 813.312,1067.66 812,1065.5C 811.275,1066.06 810.442,1066.39 809.5,1066.5C 805.358,1065.85 801.525,1064.51 798,1062.5C 795.599,1063.6 793.099,1063.77 790.5,1063C 782.956,1060.74 775.956,1058.08 769.5,1055C 764.373,1054.66 759.706,1053.49 755.5,1051.5C 752.67,1051.04 750.003,1050.37 747.5,1049.5C 729.714,1045.9 713.048,1039.56 697.5,1030.5C 687.104,1023.63 676.104,1017.8 664.5,1013C 665.34,1011.33 664.84,1011.17 663,1012.5C 658.406,1009.87 654.406,1006.54 651,1002.5C 650.667,1002.83 650.333,1003.17 650,1003.5C 648.333,1001.83 646.667,1000.17 645,998.5C 644.667,998.833 644.333,999.167 644,999.5C 643.935,997.117 643.102,996.45 641.5,997.5C 640.099,996.479 638.765,995.479 637.5,994.5C 635.225,993.889 633.559,992.555 632.5,990.5C 632.167,989.167 631.833,989.167 631.5,990.5C 630.069,989.918 628.736,989.085 627.5,988C 627.833,987.667 628.167,987.333 628.5,987C 614.854,977.919 602.021,967.752 590,956.5C 589.667,956.833 589.333,957.167 589,957.5C 584.262,952.945 580.095,948.611 576.5,944.5C 576.167,943.167 575.833,943.167 575.5,944.5C 574.167,943.167 572.833,941.833 571.5,940.5C 568.833,937.167 565.833,934.167 562.5,931.5C 559.741,927.287 556.575,922.954 553,918.5C 541.576,897.894 530.743,878.061 520.5,859C 520.848,856.945 520.181,854.945 518.5,853C 518.957,852.586 519.291,852.086 519.5,851.5C 518.471,851.704 517.471,851.204 516.5,850C 517.833,848.16 517.666,847.66 516,848.5C 513.641,842.23 511.474,836.23 509.5,830.5C 508.596,829.791 508.263,828.791 508.5,827.5C 507.662,827.158 507.328,826.492 507.5,825.5C 506.542,823.698 505.875,821.698 505.5,819.5C 503.984,815.909 502.318,811.909 500.5,807.5C 499.226,806.811 499.226,805.977 500.5,805C 498.551,802.862 496.884,800.529 495.5,798C 495.957,797.586 496.291,797.086 496.5,796.5C 494.477,789.801 492.477,783.134 490.5,776.5C 490.608,775.558 490.941,774.725 491.5,774C 489.408,773.047 489.075,771.714 490.5,770C 489.376,769.161 488.709,767.994 488.5,766.5C 488.087,763.434 487.42,760.434 486.5,757.5C 486.709,756.914 487.043,756.414 487.5,756C 485.342,754.688 485.009,753.022 486.5,751C 484.408,750.047 484.075,748.714 485.5,747C 483.843,741.249 482.343,735.416 481,729.5C 477.34,703.77 475.174,677.77 474.5,651.5C 476.626,637.061 478.792,622.728 481,608.5C 483.772,600.279 485.605,592.112 486.5,584C 487.542,581.443 488.875,579.11 490.5,577C 489.416,574.81 490.083,573.144 492.5,572C 492.167,571.667 491.833,571.333 491.5,571C 494.941,565.614 497.441,559.78 499,553.5C 499.654,554.696 500.154,554.696 500.5,553.5C 500.069,552.707 499.735,551.873 499.5,551C 501.521,549.135 503.187,546.968 504.5,544.5C 504.167,543.833 503.833,543.167 503.5,542.5C 505.059,540.531 506.726,538.698 508.5,537C 508.043,536.586 507.709,536.086 507.5,535.5C 509.952,529.423 512.952,523.756 516.5,518.5C 516.328,517.508 516.662,516.842 517.5,516.5C 519.338,514.145 520.838,511.479 522,508.5C 522.667,507.167 523.333,507.167 524,508.5C 528.602,499.327 533.935,490.66 540,482.5C 545.335,476.471 550.168,470.138 554.5,463.5C 555.078,464.547 555.744,464.38 556.5,463C 556.272,462.601 555.938,462.435 555.5,462.5C 556.545,461.122 557.878,460.122 559.5,459.5C 560.914,456.418 563.248,454.418 566.5,453.5C 566.351,452.448 566.517,451.448 567,450.5C 569.998,448.332 572.831,445.999 575.5,443.5C 580.468,439.475 585.134,434.975 589.5,430C 590.448,429.517 591.448,429.351 592.5,429.5C 593.612,426.134 595.612,423.301 598.5,421C 604.183,418.496 609.517,415.33 614.5,411.5C 616.096,407.768 618.763,405.102 622.5,403.5C 623.791,399.903 625.791,396.903 628.5,394.5C 629.114,392.277 630.448,390.611 632.5,389.5C 632.291,388.914 631.957,388.414 631.5,388C 633.631,385.575 635.131,382.742 636,379.5C 636.654,380.696 637.154,380.696 637.5,379.5C 635.978,377.844 636.311,376.677 638.5,376C 637.499,373.302 637.999,370.802 640,368.5C 640.458,364.584 641.292,360.75 642.5,357C 641.706,354.976 642.039,352.976 643.5,351C 643.384,349.732 643.051,348.398 642.5,347C 643.167,346.667 643.833,346.333 644.5,346C 643.833,344 643.167,342 642.5,340C 643.167,339.667 643.833,339.333 644.5,339C 642.891,332.94 642.057,326.774 642,320.5C 639.464,313.485 636.298,306.818 632.5,300.5C 630.506,297.569 628.506,294.569 626.5,291.5C 625.874,289.374 624.541,287.707 622.5,286.5C 622.709,285.914 623.043,285.414 623.5,285C 621.676,284.34 620.343,283.173 619.5,281.5C 611.145,271.31 601.812,261.81 591.5,253C 591.833,252.667 592.167,252.333 592.5,252C 600.733,251.283 608.9,250.449 617,249.5C 636.362,250.529 656.029,250.529 676,249.5C 680.182,248.866 684.349,248.199 688.5,247.5C 699.973,247.876 711.973,248.209 724.5,248.5C 735.062,247.919 745.562,247.252 756,246.5C 792.687,247.28 829.687,247.28 867,246.5C 871.134,247.196 875.3,247.863 879.5,248.5C 887.521,248.429 895.688,248.096 904,247.5C 909.468,248.188 914.968,248.855 920.5,249.5C 936.731,248.971 953.064,248.304 969.5,247.5C 979.935,248.344 990.269,249.011 1000.5,249.5C 1004.7,248.863 1008.87,248.196 1013,247.5C 1033.56,248.371 1054.06,248.704 1074.5,248.5C 1076.38,247.907 1078.22,247.24 1080,246.5C 1083.33,247.833 1086.67,247.833 1090,246.5C 1092.8,247.211 1095.63,247.878 1098.5,248.5C 1111.75,248.127 1124.92,248.127 1138,248.5C 1139.44,249.26 1140.94,249.926 1142.5,250.5C 1152.22,249.444 1162.06,249.444 1172,250.5C 1174.15,250.604 1175.98,249.937 1177.5,248.5C 1179.12,249.154 1180.78,249.654 1182.5,250C 1176.45,254.025 1170.78,258.525 1165.5,263.5C 1164.91,263.291 1164.41,262.957 1164,262.5C 1162.48,265.91 1160.65,268.41 1158.5,270C 1157.55,270.483 1156.55,270.649 1155.5,270.5C 1155.65,271.552 1155.48,272.552 1155,273.5C 1151.04,276.274 1148.54,279.941 1147.5,284.5C 1146.45,284.351 1145.45,284.517 1144.5,285C 1144.4,288.24 1143.06,291.24 1140.5,294C 1140.83,294.333 1141.17,294.667 1141.5,295C 1139.11,299.708 1136.94,304.541 1135,309.5C 1134.19,315.218 1132.69,320.718 1130.5,326C 1131.73,329.781 1131.73,333.614 1130.5,337.5C 1133.17,349.689 1137.34,361.356 1143,372.5C 1144.98,373.543 1145.48,374.877 1144.5,376.5C 1148.2,379.699 1151.36,383.365 1154,387.5C 1154.33,387.167 1154.67,386.833 1155,386.5C 1158.09,391.359 1161.59,395.026 1165.5,397.5 Z"/></g>
<g><path style="opacity:0.004" fill="#000000" d="M 1259.5,174.5 C 1260.83,175.167 1260.83,175.167 1259.5,174.5 Z"/></g>
<g><path style="opacity:0.004" fill="#000000" d="M 614.5,175.5 C 615.833,176.167 615.833,176.167 614.5,175.5 Z"/></g>
<g><path style="opacity:0.004" fill="#000000" d="M 948.5,175.5 C 949.833,176.167 949.833,176.167 948.5,175.5 Z"/></g>
<g><path style="opacity:0.004" fill="#000000" d="M 1172.5,176.5 C 1171.83,175.167 1171.83,175.167 1172.5,176.5 Z"/></g>
<g><path style="opacity:0.004" fill="#000000" d="M 626.5,179.5 C 627.833,180.167 627.833,180.167 626.5,179.5 Z"/></g>
<g><path style="opacity:0.012" fill="#000000" d="M 1272.5,179.5 C 1273.83,180.167 1273.83,180.167 1272.5,179.5 Z"/></g>
<g><path style="opacity:0.004" fill="#000000" d="M 628.5,180.5 C 629.833,181.167 629.833,181.167 628.5,180.5 Z"/></g>
<g><path style="opacity:0.004" fill="#000000" d="M 635.5,183.5 C 636.833,184.167 636.833,184.167 635.5,183.5 Z"/></g>
<g><path style="opacity:0.004" fill="#000000" d="M 966.5,183.5 C 967.833,184.167 967.833,184.167 966.5,183.5 Z"/></g>
<g><path style="opacity:0.004" fill="#000000" d="M 1145.5,185.5 C 1144.83,184.167 1144.83,184.167 1145.5,185.5 Z"/></g>
<g><path style="opacity:0.004" fill="#000000" d="M 975.5,187.5 C 976.833,188.167 976.833,188.167 975.5,187.5 Z"/></g>
<g><path style="opacity:0.004" fill="#000000" d="M 771.5,193.5 C 770.833,192.167 770.833,192.167 771.5,193.5 Z"/></g>
<g><path style="opacity:0.004" fill="#000000" d="M 1119.5,193.5 C 1118.83,192.167 1118.83,192.167 1119.5,193.5 Z"/></g>
<g><path style="opacity:0.004" fill="#000000" d="M 513.5,212.5 C 513.833,212.5 514.167,212.5 514.5,212.5C 514.315,213.17 513.981,213.17 513.5,212.5 Z"/></g>
<g><path style="opacity:0.004" fill="#000000" d="M 522.5,216.5 C 522.833,216.5 523.167,216.5 523.5,216.5C 523.315,217.17 522.981,217.17 522.5,216.5 Z"/></g>
<g><path style="opacity:0.004" fill="#000000" d="M 531.5,220.5 C 530.833,221.167 530.833,221.167 531.5,220.5 Z"/></g>
<g><path style="opacity:0.004" fill="#000000" d="M 600.5,276.5 C 599.833,277.167 599.833,277.167 600.5,276.5 Z"/></g>
<g><path style="opacity:0.004" fill="#000000" d="M 1157.5,284.5 C 1158.83,285.167 1158.83,285.167 1157.5,284.5 Z"/></g>
<g><path style="opacity:0.004" fill="#000000" d="M 1154.5,289.5 C 1155.83,290.167 1155.83,290.167 1154.5,289.5 Z"/></g>
<g><path style="opacity:0.004" fill="#000000" d="M 1153.5,290.5 C 1153.83,290.5 1154.17,290.5 1154.5,290.5C 1154.31,291.17 1153.98,291.17 1153.5,290.5 Z"/></g>
<g><path style="opacity:0.004" fill="#000000" d="M 1149.5,362.5 C 1150.83,363.167 1150.83,363.167 1149.5,362.5 Z"/></g>
<g><path style="opacity:0.004" fill="#000000" d="M 599.5,409.5 C 598.833,408.167 598.833,408.167 599.5,409.5 Z"/></g>
<g><path style="opacity:0.004" fill="#000000" d="M 568.5,409.5 C 569.833,410.167 569.833,410.167 568.5,409.5 Z"/></g>
<g><path style="opacity:0.004" fill="#000000" d="M 568.5,410.5 C 567.768,414.019 566.435,417.352 564.5,420.5C 564.709,421.086 565.043,421.586 565.5,422C 545.51,440.188 529.01,461.021 516,484.5C 513.708,485.79 511.708,487.457 510,489.5C 510.485,485.058 512.318,481.225 515.5,478C 515.043,477.586 514.709,477.086 514.5,476.5C 515.934,474.78 516.767,472.78 517,470.5C 530.42,447.866 547.587,427.866 568.5,410.5 Z"/></g>
<g><path style="opacity:0.004" fill="#000000" d="M 1222.5,437.5 C 1225.6,439.097 1228.93,440.264 1232.5,441C 1246.38,454.03 1257.72,468.863 1266.5,485.5C 1265.75,488.777 1265.25,492.11 1265,495.5C 1262.59,492.185 1260.92,488.518 1260,484.5C 1249.1,469.264 1237.1,454.931 1224,441.5C 1223.21,440.255 1222.71,438.922 1222.5,437.5 Z"/></g>
<g><path style="opacity:0.004" fill="#000000" d="M 538.5,468.5 C 537.833,467.167 537.833,467.167 538.5,468.5 Z"/></g>
<g><path style="opacity:0.004" fill="#000000" d="M 537.5,470.5 C 536.833,469.167 536.833,469.167 537.5,470.5 Z"/></g>
<g><path style="opacity:0.004" fill="#000000" d="M 532.5,476.5 C 531.833,475.167 531.833,475.167 532.5,476.5 Z"/></g>
<g><path style="opacity:0.004" fill="#000000" d="M 531.5,478.5 C 530.833,477.167 530.833,477.167 531.5,478.5 Z"/></g>
<g><path style="opacity:0.004" fill="#000000" d="M 1273.5,517.5 C 1274.83,518.167 1274.83,518.167 1273.5,517.5 Z"/></g>
<g><path style="opacity:0.004" fill="#000000" d="M 1277.5,525.5 C 1278.83,526.167 1278.83,526.167 1277.5,525.5 Z"/></g>
<g><path style="opacity:0.004" fill="#000000" d="M 1278.5,527.5 C 1279.83,528.167 1279.83,528.167 1278.5,527.5 Z"/></g>
<g><path style="opacity:0.004" fill="#000000" d="M 460.5,611.5 C 461.833,612.167 461.833,612.167 460.5,611.5 Z"/></g>
<g><path style="opacity:0.004" fill="#000000" d="M 468.5,624.5 C 467.833,623.167 467.833,623.167 468.5,624.5 Z"/></g>
<g><path style="opacity:0.004" fill="#000000" d="M 458.5,628.5 C 459.586,628.62 460.253,629.287 460.5,630.5C 459.751,632.241 459.417,633.908 459.5,635.5C 458.713,634.758 458.047,633.925 457.5,633C 458.38,631.644 458.714,630.144 458.5,628.5 Z"/></g>
<g><path style="opacity:0.004" fill="#000000" d="M 457.5,637.5 C 458.289,637.783 458.956,638.283 459.5,639C 458.184,639.528 457.517,639.028 457.5,637.5 Z"/></g>
<g><path style="opacity:0.004" fill="#000000" d="M 457.5,641.5 C 458.598,642.601 458.765,643.934 458,645.5C 457.51,644.207 457.343,642.873 457.5,641.5 Z"/></g>
<g><path style="opacity:0.004" fill="#000000" d="M 473.5,741.5 C 472.833,742.167 472.833,742.167 473.5,741.5 Z"/></g>
<g><path style="opacity:0.004" fill="#000000" d="M 477.5,764.5 C 476.833,765.167 476.833,765.167 477.5,764.5 Z"/></g>
<g><path style="opacity:0.004" fill="#000000" d="M 1277.5,858.5 C 1278.83,859.167 1278.83,859.167 1277.5,858.5 Z"/></g>
<g><path style="opacity:0.008" fill="#000000" d="M 1276.5,860.5 C 1277.83,861.167 1277.83,861.167 1276.5,860.5 Z"/></g>
<g><path style="opacity:0.008" fill="#000000" d="M 1273.5,863.5 C 1274.83,864.167 1274.83,864.167 1273.5,863.5 Z"/></g>
<g><path style="opacity:0.004" fill="#000000" d="M 1272.5,865.5 C 1273.83,866.167 1273.83,866.167 1272.5,865.5 Z"/></g>
<g><path style="opacity:0.004" fill="#000000" d="M 533.5,910.5 C 532.833,909.167 532.833,909.167 533.5,910.5 Z"/></g>
<g><path style="opacity:0.004" fill="#000000" d="M 536.5,909.5 C 535.833,910.167 535.833,910.167 536.5,909.5 Z"/></g>
<g><path style="opacity:0.004" fill="#000000" d="M 533.5,910.5 C 534.922,911.925 536.589,912.925 538.5,913.5C 539.167,913.5 539.5,913.833 539.5,914.5C 539.728,916.355 539.061,917.188 537.5,917C 535.915,914.931 534.581,912.764 533.5,910.5 Z"/></g>
<g><path style="opacity:0.004" fill="#000000" d="M 539.5,918.5 C 540.833,919.167 540.833,919.167 539.5,918.5 Z"/></g>
<g><path style="opacity:0.004" fill="#000000" d="M 542.5,918.5 C 541.833,919.167 541.833,919.167 542.5,918.5 Z"/></g>
<g><path style="opacity:0.004" fill="#000000" d="M 546.5,925.5 C 545.833,926.167 545.833,926.167 546.5,925.5 Z"/></g>
<g><path style="opacity:0.004" fill="#000000" d="M 1336.5,953.5 C 1339.38,953.927 1342.21,954.594 1345,955.5C 1346.26,955.241 1347.26,954.574 1348,953.5C 1348.8,954.804 1349.97,955.471 1351.5,955.5C 1360.98,954.984 1370.48,954.651 1380,954.5C 1381.98,954.741 1383.82,955.408 1385.5,956.5C 1386.48,956.023 1387.31,955.357 1388,954.5C 1390.19,955.022 1392.52,955.022 1395,954.5C 1395.69,955.025 1396.19,955.692 1396.5,956.5C 1394.52,960.469 1392.52,964.469 1390.5,968.5C 1389.56,969.553 1388.4,970.22 1387,970.5C 1381.65,970.324 1376.32,970.324 1371,970.5C 1370.33,969.422 1369.33,968.755 1368,968.5C 1358.61,969.114 1349.28,969.781 1340,970.5C 1339.31,969.643 1338.48,968.977 1337.5,968.5C 1330.19,969.799 1322.86,969.799 1315.5,968.5C 1318.64,964.189 1321.98,960.022 1325.5,956C 1329.28,955.082 1332.95,954.249 1336.5,953.5 Z"/></g>
<g><path style="opacity:0.005" fill="#000000" d="M 1252.5,954.5 C 1254.69,954.511 1255.52,955.511 1255,957.5C 1251.5,961.667 1248,965.833 1244.5,970C 1242.24,970.642 1240.07,971.475 1238,972.5C 1237.17,971.5 1236.33,970.5 1235.5,969.5C 1230.69,971.911 1226.02,972.578 1221.5,971.5C 1225.98,966.515 1230.65,961.681 1235.5,957C 1238.19,956.608 1240.85,956.108 1243.5,955.5C 1244.17,955.833 1244.83,956.167 1245.5,956.5C 1242.52,959.512 1240.35,962.845 1239,966.5C 1243.12,961.866 1247.62,957.866 1252.5,954.5 Z"/></g>
<g><path style="opacity:0.004" fill="#000000" d="M 1582.5,969.5 C 1578.42,971.395 1574.25,971.728 1570,970.5C 1568.91,971.293 1567.75,971.96 1566.5,972.5C 1562.32,971.67 1558.32,971.67 1554.5,972.5C 1551.79,971.959 1549.13,971.292 1546.5,970.5C 1539.28,971.531 1531.95,971.531 1524.5,970.5C 1520.06,972.948 1515.56,972.948 1511,970.5C 1509.24,970.975 1507.57,971.642 1506,972.5C 1505.33,971.833 1504.67,971.167 1504,970.5C 1484.78,970.528 1465.78,970.861 1447,971.5C 1445.18,970.671 1443.35,969.837 1441.5,969C 1442.42,968.626 1443.25,968.126 1444,967.5C 1445.31,962.876 1447.64,958.876 1451,955.5C 1451.33,955.833 1451.67,956.167 1452,956.5C 1453.19,955.57 1454.53,954.903 1456,954.5C 1467.65,955.707 1478.98,955.707 1490,954.5C 1491.09,955.293 1492.25,955.96 1493.5,956.5C 1496.65,955.21 1499.82,955.21 1503,956.5C 1504.47,956.097 1505.81,955.43 1507,954.5C 1507.52,955.516 1508.35,956.182 1509.5,956.5C 1512.24,956.512 1515.07,956.178 1518,955.5C 1524,956.167 1530,956.833 1536,957.5C 1542.49,956.219 1548.99,956.219 1555.5,957.5C 1559.73,956.93 1563.89,956.263 1568,955.5C 1573.26,955.341 1578.59,955.674 1584,956.5C 1585.71,956.561 1587.04,955.894 1588,954.5C 1589.51,955.09 1591.01,955.756 1592.5,956.5C 1588.91,960.713 1585.57,965.046 1582.5,969.5 Z"/></g>
<g><path style="opacity:0.282" fill="#000000" d="M 1778.5,956.5 C 1778.5,961.5 1778.5,966.5 1778.5,971.5C 1775.13,971.326 1771.79,970.826 1768.5,970C 1767.57,969.612 1766.91,968.945 1766.5,968C 1767.84,964.65 1769.17,961.316 1770.5,958C 1772.78,957.767 1774.78,956.934 1776.5,955.5C 1777.18,955.863 1777.85,956.196 1778.5,956.5 Z"/></g>
<g><path style="opacity:0.004" fill="#000000" d="M 1217.5,956.5 C 1220.01,957.216 1220.01,958.216 1217.5,959.5C 1216.44,958.575 1216.44,957.575 1217.5,956.5 Z"/></g>
<g><path style="opacity:0.008" fill="#000000" d="M 561.5,960.5 C 568.043,964.368 573.709,969.368 578.5,975.5C 576.534,976.372 574.534,976.205 572.5,975C 567.951,970.687 564.284,965.854 561.5,960.5 Z"/></g>
<g><path style="opacity:0.004" fill="#000000" d="M -0.5,961.5 C 0.833333,962.167 0.833333,962.167 -0.5,961.5 Z"/></g>
<g><path style="opacity:0.004" fill="#000000" d="M 537.5,962.5 C 539.467,962.261 541.301,962.594 543,963.5C 544.944,967.11 547.277,970.443 550,973.5C 550.684,974.784 550.517,975.951 549.5,977C 546.631,977.377 544.131,976.544 542,974.5C 540.802,970.806 538.968,967.472 536.5,964.5C 536.863,963.817 537.196,963.15 537.5,962.5 Z"/></g>
<g><path style="opacity:0.004" fill="#000000" d="M 554.5,972.5 C 553.146,968.968 551.146,965.802 548.5,963C 549.167,962.333 549.833,962.333 550.5,963C 553.784,966.405 556.95,969.905 560,973.5C 560.27,974.932 559.604,975.932 558,976.5C 557.051,974.907 555.885,973.574 554.5,972.5 Z"/></g>
<g><path style="opacity:0.004" fill="#000000" d="M 338.5,964.5 C 337.833,963.167 337.833,963.167 338.5,964.5 Z"/></g>
<g><path style="opacity:0.004" fill="#000000" d="M 342.5,963.5 C 343.833,964.167 343.833,964.167 342.5,963.5 Z"/></g>
<g><path style="opacity:0.004" fill="#000000" d="M 1215.5,963.5 C 1216.04,963.56 1216.38,963.893 1216.5,964.5C 1215.02,968.815 1212.18,971.815 1208,973.5C 1207.5,973 1207,972.5 1206.5,972C 1209.4,968.934 1212.4,966.101 1215.5,963.5 Z"/></g>
<g><path style="opacity:0.004" fill="#000000" d="M 338.5,964.5 C 339.552,964.351 340.552,964.517 341.5,965C 340.251,965.74 339.251,965.573 338.5,964.5 Z"/></g>
<g><path style="opacity:0.004" fill="#000000" d="M 337.5,966.5 C 338.473,967.791 339.473,967.791 340.5,966.5C 343.103,969.495 345.436,972.662 347.5,976C 342.213,975.825 336.879,975.492 331.5,975C 333.72,972.287 335.72,969.454 337.5,966.5 Z"/></g>
<g><path style="opacity:0.004" fill="#000000" d="M 1261.5,966.5 C 1264,966.511 1264.17,967.178 1262,968.5C 1261.54,967.906 1261.37,967.239 1261.5,966.5 Z"/></g>
<g><path style="opacity:0.004" fill="#000000" d="M 554.5,972.5 C 555.795,974.372 555.628,976.038 554,977.5C 551.682,974.858 550.348,971.858 550,968.5C 551.371,970.041 552.871,971.375 554.5,972.5 Z"/></g>
<g><path style="opacity:0.004" fill="#000000" d="M 1582.5,969.5 C 1583.83,970.167 1583.83,970.167 1582.5,969.5 Z"/></g>
<g><path style="opacity:0.004" fill="#000000" d="M 1162.5,978.5 C 1164.95,973.601 1168.61,972.101 1173.5,974C 1169.53,974.809 1165.87,976.309 1162.5,978.5 Z"/></g>
<g><path style="opacity:0.004" fill="#000000" d="M 329.5,974.5 C 330.833,975.167 330.833,975.167 329.5,974.5 Z"/></g>
<g><path style="opacity:0.004" fill="#000000" d="M 563.5,975.5 C 562.833,974.167 562.833,974.167 563.5,975.5 Z"/></g>
<g><path style="opacity:0.004" fill="#000000" d="M 563.5,975.5 C 564.833,976.167 564.833,976.167 563.5,975.5 Z"/></g>
<g><path style="opacity:0.004" fill="#000000" d="M 609.5,986.5 C 608.833,987.167 608.833,987.167 609.5,986.5 Z"/></g>
<g><path style="opacity:0.004" fill="#000000" d="M 1104.5,1033.5 C 1105.83,1034.17 1105.83,1034.17 1104.5,1033.5 Z"/></g>
<g><path style="opacity:0.008" fill="#000000" d="M 1102.5,1034.5 C 1103.83,1035.17 1103.83,1035.17 1102.5,1034.5 Z"/></g>
<g><path style="opacity:0.004" fill="#000000" d="M 1097.5,1036.5 C 1098.83,1037.17 1098.83,1037.17 1097.5,1036.5 Z"/></g>
<g><path style="opacity:0.004" fill="#000000" d="M 1095.5,1037.5 C 1096.83,1038.17 1096.83,1038.17 1095.5,1037.5 Z"/></g>
<g><path style="opacity:0.004" fill="#000000" d="M 1093.5,1038.5 C 1094.83,1039.17 1094.83,1039.17 1093.5,1038.5 Z"/></g>
<g><path style="opacity:0.004" fill="#000000" d="M 700.5,1042.5 C 699.833,1043.17 699.833,1043.17 700.5,1042.5 Z"/></g>
<g><path style="opacity:0.004" fill="#000000" d="M 702.5,1043.5 C 701.833,1044.17 701.833,1044.17 702.5,1043.5 Z"/></g>
<g><path style="opacity:0.005" fill="#000000" d="M 641.5,1049.5 C 643.927,1049.52 646.26,1050.02 648.5,1051C 647.743,1052.51 646.743,1053.85 645.5,1055C 645.132,1057.03 645.132,1059.2 645.5,1061.5C 643.083,1063.49 643.083,1065.33 645.5,1067C 644.833,1067.33 644.167,1067.67 643.5,1068C 648.806,1069.63 651.973,1073.47 653,1079.5C 647.891,1077.58 643.224,1074.91 639,1071.5C 637.979,1063.93 638.812,1056.6 641.5,1049.5 Z"/></g>
<g><path style="opacity:0.004" fill="#000000" d="M 1126.5,1055.5 C 1128.39,1056.77 1129.39,1058.6 1129.5,1061C 1128.42,1063.59 1127.09,1066.09 1125.5,1068.5C 1120.65,1071.76 1115.99,1075.26 1111.5,1079C 1110.55,1079.48 1109.55,1079.65 1108.5,1079.5C 1108.36,1072.45 1111.69,1067.61 1118.5,1065C 1120.83,1063.76 1121.5,1062.09 1120.5,1060C 1122.82,1058.85 1124.82,1057.35 1126.5,1055.5 Z"/></g>
</svg>
