<?xml version="1.0" encoding="UTF-8"?>
<!DOCTYPE svg PUBLIC "-//W3C//DTD SVG 1.1//EN" "http://www.w3.org/Graphics/SVG/1.1/DTD/svg11.dtd">
<svg xmlns="http://www.w3.org/2000/svg" version="1.1" width="1779px" height="1221px" style="shape-rendering:geometricPrecision; text-rendering:geometricPrecision; image-rendering:optimizeQuality; fill-rule:evenodd; clip-rule:evenodd" xmlns:xlink="http://www.w3.org/1999/xlink">
<g><path style="opacity:0.698" fill="#000000" d="M 984.5,121.5 C 985.568,122.434 986.901,122.768 988.5,122.5C 991.051,123.484 993.718,124.484 996.5,125.5C 997.801,124.522 998.968,124.855 1000,126.5C 1000.77,126.355 1001.44,126.022 1002,125.5C 1015.86,132.257 1029.7,138.257 1043.5,143.5C 1064.36,153.186 1086.36,161.686 1109.5,169C 1113.2,169.334 1116.7,169.501 1120,169.5C 1127.36,167.293 1134.86,165.46 1142.5,164C 1145,163.115 1147.33,161.948 1149.5,160.5C 1150.17,160.833 1150.83,161.167 1151.5,161.5C 1168.3,154.457 1185.64,148.623 1203.5,144C 1205.88,143.196 1208.05,142.029 1210,140.5C 1211.29,141.791 1212.46,141.791 1213.5,140.5C 1221.67,139.072 1229.67,136.406 1237.5,132.5C 1238.92,133.777 1239.92,133.443 1240.5,131.5C 1247.51,130.373 1254.34,128.707 1261,126.5C 1266.99,126.637 1272.99,126.97 1279,127.5C 1282.67,126.833 1286.33,126.167 1290,125.5C 1292.27,127.434 1294.27,127.434 1296,125.5C 1297.7,126.733 1299.7,127.4 1302,127.5C 1310.91,127.928 1319.41,128.928 1327.5,130.5C 1331.48,131.535 1335.65,133.201 1340,135.5C 1340.33,135.167 1340.67,134.833 1341,134.5C 1341.92,136.632 1343.25,137.299 1345,136.5C 1350.79,139.992 1356.95,142.659 1363.5,144.5C 1364.2,146.672 1365.2,148.672 1366.5,150.5C 1366.45,154.67 1364.28,156.004 1360,154.5C 1357.93,155.525 1355.76,156.358 1353.5,157C 1352.96,159.109 1351.96,159.609 1350.5,158.5C 1344.28,161.228 1337.94,164.228 1331.5,167.5C 1328.67,168.655 1326.01,169.989 1323.5,171.5C 1321.98,171.511 1320.82,172.177 1320,173.5C 1319.67,172.833 1319.33,172.167 1319,171.5C 1311.3,177.306 1302.8,181.806 1293.5,185C 1291.04,186.971 1288.54,188.804 1286,190.5C 1285.67,190.167 1285.33,189.833 1285,189.5C 1281.43,191.617 1278.1,193.284 1275,194.5C 1271.39,198.021 1267.55,201.354 1263.5,204.5C 1261.8,205.802 1260.63,207.469 1260,209.5C 1259.67,209.167 1259.33,208.833 1259,208.5C 1257.88,210.624 1256.38,212.457 1254.5,214C 1248.88,217.383 1243.54,221.216 1238.5,225.5C 1232.29,232.54 1226.29,239.706 1220.5,247C 1220.96,247.414 1221.29,247.914 1221.5,248.5C 1220.75,248.736 1219.92,249.07 1219,249.5C 1216.32,254.269 1214.16,259.936 1212.5,266.5C 1211.17,266.833 1211.17,267.167 1212.5,267.5C 1210.12,272.888 1209.12,278.555 1209.5,284.5C 1208.19,286.56 1208.19,288.726 1209.5,291C 1207.37,292.62 1207.03,294.454 1208.5,296.5C 1209.13,299.315 1210.46,301.815 1212.5,304C 1211.45,305.388 1211.28,306.888 1212,308.5C 1212.67,309.833 1213.33,309.833 1214,308.5C 1214.62,309.449 1214.45,310.282 1213.5,311C 1215.07,313.304 1216.24,315.804 1217,318.5C 1218.67,317.66 1218.83,318.16 1217.5,320C 1219.32,321.8 1220.48,323.966 1221,326.5C 1221.33,326.167 1221.67,325.833 1222,325.5C 1224.97,329.389 1227.97,333.389 1231,337.5C 1234.38,340.886 1238.05,343.886 1242,346.5C 1242.48,347.448 1242.65,348.448 1242.5,349.5C 1245.06,351.376 1247.72,353.209 1250.5,355C 1250.04,355.414 1249.71,355.914 1249.5,356.5C 1250.8,358.201 1252.47,359.368 1254.5,360C 1254.04,360.414 1253.71,360.914 1253.5,361.5C 1254.91,362.806 1256.58,363.64 1258.5,364C 1257.55,364.718 1257.38,365.551 1258,366.5C 1261.14,369.835 1264.64,372.835 1268.5,375.5C 1272.8,380.008 1277.3,385.008 1282,390.5C 1282.33,390.167 1282.67,389.833 1283,389.5C 1288.16,397.652 1294.33,404.819 1301.5,411C 1300.55,411.718 1300.38,412.551 1301,413.5C 1303.81,417.639 1307.31,421.139 1311.5,424C 1311.17,424.333 1310.83,424.667 1310.5,425C 1319.86,438.042 1328.53,450.875 1336.5,463.5C 1335.17,463.833 1335.17,464.167 1336.5,464.5C 1337.44,467.959 1339.44,470.793 1342.5,473C 1347.13,482.085 1351.46,491.752 1355.5,502C 1358.52,502.664 1361.35,502.164 1364,500.5C 1373.08,500.133 1382.24,498.799 1391.5,496.5C 1409.88,494.41 1427.22,497.91 1443.5,507C 1449.39,512.05 1455.73,516.55 1462.5,520.5C 1463.39,521.325 1463.72,522.325 1463.5,523.5C 1464.55,523.351 1465.55,523.517 1466.5,524C 1486.77,546.976 1497.77,573.81 1499.5,604.5C 1501.53,606.249 1501.86,608.249 1500.5,610.5C 1502.11,617.3 1503.11,623.967 1503.5,630.5C 1503.25,656.406 1498.42,681.406 1489,705.5C 1476.47,732.07 1455.97,747.903 1427.5,753C 1419.49,753.622 1411.82,754.122 1404.5,754.5C 1397.57,753.359 1390.73,752.026 1384,750.5C 1383.59,750.957 1383.09,751.291 1382.5,751.5C 1379.43,750.13 1376.26,749.13 1373,748.5C 1370.99,751.543 1370.49,754.377 1371.5,757C 1370.33,757.5 1369.5,758.333 1369,759.5C 1364.06,774.77 1357.73,789.436 1350,803.5C 1348.2,812.447 1343.87,819.781 1337,825.5C 1336.51,826.549 1336.67,827.549 1337.5,828.5C 1335.16,831.34 1332.83,834.173 1330.5,837C 1330.83,837.333 1331.17,837.667 1331.5,838C 1330.28,839.648 1329.45,841.481 1329,843.5C 1328.67,843.167 1328.33,842.833 1328,842.5C 1326.58,845.009 1324.91,847.343 1323,849.5C 1323,850.833 1323,852.167 1323,853.5C 1322.67,853.167 1322.33,852.833 1322,852.5C 1321.36,853.646 1320.52,854.646 1319.5,855.5C 1319.71,856.086 1320.04,856.586 1320.5,857C 1315.62,861.344 1311.62,865.844 1308.5,870.5C 1308.71,871.086 1309.04,871.586 1309.5,872C 1305.22,874.729 1302.55,878.562 1301.5,883.5C 1300.5,883.5 1299.5,883.5 1298.5,883.5C 1298.66,884.873 1298.49,886.207 1298,887.5C 1290.48,896.35 1282.32,904.517 1273.5,912C 1273.96,912.414 1274.29,912.914 1274.5,913.5C 1258.47,928.366 1242.64,943.366 1227,958.5C 1226.28,957.549 1225.45,957.383 1224.5,958C 1223.36,959.145 1222.36,960.312 1221.5,961.5C 1221.17,960.167 1220.83,960.167 1220.5,961.5C 1218.09,962.701 1216.09,964.367 1214.5,966.5C 1212.29,968.104 1209.96,969.437 1207.5,970.5C 1163.74,996.051 1115.57,1015.72 1063,1029.5C 1062.05,1029.91 1061.39,1030.57 1061,1031.5C 1060.44,1030.98 1059.77,1030.64 1059,1030.5C 1050.11,1031.76 1041.45,1033.76 1033,1036.5C 1028.01,1036.33 1023.01,1036 1018,1035.5C 1017.25,1036.13 1016.42,1036.63 1015.5,1037C 989.247,1037.41 963.08,1037.57 937,1037.5C 930.067,1036.36 923.067,1035.36 916,1034.5C 914.893,1034.59 913.893,1034.92 913,1035.5C 910.787,1034.24 908.287,1033.57 905.5,1033.5C 902.777,1033.55 900.11,1033.88 897.5,1034.5C 896.407,1032.23 894.907,1031.9 893,1033.5C 887.81,1032.27 882.643,1030.94 877.5,1029.5C 876.558,1029.61 875.725,1029.94 875,1030.5C 874.395,1028.52 873.395,1028.19 872,1029.5C 867.894,1028.34 863.728,1027.34 859.5,1026.5C 858.158,1027.9 857.324,1027.57 857,1025.5C 856.667,1025.83 856.333,1026.17 856,1026.5C 850.747,1024.2 845.414,1022.2 840,1020.5C 839.228,1020.64 838.561,1020.98 838,1021.5C 831.421,1017.86 824.421,1015.19 817,1013.5C 816.586,1013.96 816.086,1014.29 815.5,1014.5C 813.077,1012.91 810.41,1011.91 807.5,1011.5C 788.772,1007.98 771.439,1000.81 755.5,990C 756.833,989.333 756.833,988.667 755.5,988C 754.551,987.383 753.718,987.549 753,988.5C 752.228,987.151 751.061,986.318 749.5,986C 750.34,984.334 749.84,984.167 748,985.5C 747.683,983.699 747.016,983.366 746,984.5C 743.131,982.906 740.298,981.239 737.5,979.5C 730.058,976.244 723.225,971.911 717,966.5C 716.282,967.451 715.449,967.617 714.5,967C 710.896,962.559 706.562,959.059 701.5,956.5C 701.167,955.167 700.833,955.167 700.5,956.5C 687.293,949.492 674.96,940.992 663.5,931C 661.212,930.178 658.878,929.511 656.5,929C 652.333,924.833 648.167,920.667 644,916.5C 643.383,915.551 643.549,914.718 644.5,914C 634.852,906.017 626.185,897.017 618.5,887C 617.272,884.192 615.272,881.359 612.5,878.5C 611.17,875.206 609.503,872.206 607.5,869.5C 607.5,868.833 607.167,868.5 606.5,868.5C 606.34,866.847 605.674,865.514 604.5,864.5C 602.137,857.612 598.637,851.279 594,845.5C 586.777,830.904 580.443,817.237 575,804.5C 569.627,790.925 564.127,777.425 558.5,764C 558.833,763.667 559.167,763.333 559.5,763C 558.312,760.276 556.645,757.943 554.5,756C 555.337,754.989 555.67,753.822 555.5,752.5C 554.448,752.649 553.448,752.483 552.5,752C 553.051,750.602 553.384,749.268 553.5,748C 552.874,747.25 552.374,746.416 552,745.5C 546.983,747.429 541.817,749.095 536.5,750.5C 535.914,750.291 535.414,749.957 535,749.5C 514.922,754.612 494.755,754.112 474.5,748C 469.228,744.243 463.561,741.243 457.5,739C 451.324,733.99 445.657,728.49 440.5,722.5C 427.616,701.334 419.783,678.334 417,653.5C 416.709,644.239 416.209,635.239 415.5,626.5C 417.253,608.693 420.42,590.693 425,572.5C 430.468,551.736 440.968,533.902 456.5,519C 463.405,515.415 469.739,511.082 475.5,506C 491.782,496.91 509.116,493.41 527.5,495.5C 536.756,497.799 545.922,499.133 555,499.5C 556.559,500.029 558.059,500.696 559.5,501.5C 565.623,487.253 572.789,473.587 581,460.5C 582.666,461.34 582.833,460.84 581.5,459C 583.552,458.07 585.052,456.57 586,454.5C 587.932,450.036 590.266,446.369 593,443.5C 597.124,436.392 602.624,429.058 609.5,421.5C 610.457,418.72 611.624,416.053 613,413.5C 617.169,411.322 620.336,408.155 622.5,404C 628.833,398.667 635.167,393.333 641.5,388C 640.137,385.871 640.471,385.371 642.5,386.5C 643.427,384.887 644.261,383.221 645,381.5C 646,381.5 647,381.5 648,381.5C 649.044,380.377 649.71,379.044 650,377.5C 650.414,377.957 650.914,378.291 651.5,378.5C 653.027,376.807 654.36,374.973 655.5,373C 658.795,370.068 662.462,367.735 666.5,366C 669.323,361.679 672.989,358.179 677.5,355.5C 676.371,353.471 676.871,353.137 679,354.5C 682.751,348.668 686.751,343.001 691,337.5C 695.583,325.293 698.583,313.627 700,302.5C 700.121,294.708 700.288,287.208 700.5,280C 699.313,277.234 698.313,274.401 697.5,271.5C 696.893,271.624 696.56,271.957 696.5,272.5C 689.27,257.194 679.937,243.361 668.5,231C 666.909,228.867 664.909,227.201 662.5,226C 662.833,225.667 663.167,225.333 663.5,225C 654.926,218.432 646.926,211.099 639.5,203C 638.551,202.383 637.718,202.549 637,203.5C 632.558,198.862 627.392,194.195 621.5,189.5C 618.7,188.191 616.033,186.691 613.5,185C 612.167,184.333 612.167,183.667 613.5,183C 608.912,179.909 603.912,177.575 598.5,176C 599.833,175.333 599.833,174.667 598.5,174C 596.146,173.153 593.812,172.32 591.5,171.5C 588.918,169.287 585.918,167.62 582.5,166.5C 581.893,166.624 581.56,166.957 581.5,167.5C 578.918,166.83 576.251,165.497 573.5,163.5C 571.616,162.029 569.616,161.529 567.5,162C 567.833,161.667 568.167,161.333 568.5,161C 565.867,160.577 563.701,159.41 562,157.5C 560.16,158.833 559.66,158.666 560.5,157C 553.604,157.48 550.937,154.48 552.5,148C 557.109,145.39 561.442,142.39 565.5,139C 566.448,138.517 567.448,138.351 568.5,138.5C 568.119,136.058 568.786,135.391 570.5,136.5C 571.696,136.154 571.696,135.654 570.5,135C 573.308,134.402 575.808,133.235 578,131.5C 580.13,131.413 582.297,131.413 584.5,131.5C 588.322,129.351 592.322,128.017 596.5,127.5C 605.008,126.66 613.341,125.993 621.5,125.5C 629.247,125.793 637.247,126.127 645.5,126.5C 648.519,127.745 651.686,127.745 655,126.5C 656.059,126.63 656.892,127.13 657.5,128C 666.028,128.035 674.361,129.202 682.5,131.5C 686.254,133.175 690.254,134.509 694.5,135.5C 694.842,136.338 695.508,136.672 696.5,136.5C 712.441,142.659 728.941,148.659 746,154.5C 746.333,154.167 746.667,153.833 747,153.5C 748.884,154.977 750.884,156.31 753,157.5C 754.911,157.745 756.911,157.745 759,157.5C 761.487,159.281 764.321,160.447 767.5,161C 776.551,161.555 785.551,162.388 794.5,163.5C 803.192,161.264 811.858,159.097 820.5,157C 822.282,156.186 823.782,155.019 825,153.5C 825.414,153.957 825.914,154.291 826.5,154.5C 829.305,152.737 832.138,151.07 835,149.5C 836.749,150.299 838.082,149.632 839,147.5C 839.333,147.833 839.667,148.167 840,148.5C 843.138,147.597 845.805,145.93 848,143.5C 848.333,143.833 848.667,144.167 849,144.5C 857.103,140.57 864.437,136.237 871,131.5C 872.749,132.553 874.249,132.22 875.5,130.5C 877.679,130.16 879.512,129.16 881,127.5C 881.414,127.957 881.914,128.291 882.5,128.5C 901.09,120.235 920.923,117.235 942,119.5C 956.228,119.298 970.395,119.965 984.5,121.5 Z M 1049.5,159.5 C 1051.15,159.66 1052.49,160.326 1053.5,161.5C 1057.07,162.621 1060.41,164.287 1063.5,166.5C 1064.46,167.515 1065.63,167.515 1067,166.5C 1071.81,168.667 1076.64,170.833 1081.5,173C 1088.81,175.184 1096.14,177.184 1103.5,179C 1112.83,179.667 1122.17,179.667 1131.5,179C 1139.62,176.847 1147.96,174.347 1156.5,171.5C 1156.84,170.662 1157.51,170.328 1158.5,170.5C 1161.15,168.798 1163.99,168.464 1167,169.5C 1167.92,167.624 1169.42,166.624 1171.5,166.5C 1175.61,165.697 1179.94,164.364 1184.5,162.5C 1186.84,164.011 1187.5,163.677 1186.5,161.5C 1194.31,159.476 1201.31,156.809 1207.5,153.5C 1212.19,152.184 1216.69,150.184 1221,147.5C 1221.67,148.167 1222.33,148.833 1223,149.5C 1224.22,147.981 1225.72,146.814 1227.5,146C 1235.21,143.929 1242.88,141.762 1250.5,139.5C 1272.46,135.335 1293.96,135.668 1315,140.5C 1315.56,139.978 1316.23,139.645 1317,139.5C 1324.12,141.428 1330.62,143.928 1336.5,147C 1338.13,147.494 1339.8,147.66 1341.5,147.5C 1341.35,148.552 1341.52,149.552 1342,150.5C 1342.33,150.167 1342.67,149.833 1343,149.5C 1344.4,150.227 1345.9,150.727 1347.5,151C 1335.62,155.982 1322.96,160.982 1309.5,166C 1302.43,168.703 1295.76,172.203 1289.5,176.5C 1288.32,175.145 1287.32,175.312 1286.5,177C 1286.83,177.333 1287.17,177.667 1287.5,178C 1284.45,178.606 1281.95,180.106 1280,182.5C 1279.67,182.167 1279.33,181.833 1279,181.5C 1277,182.833 1275,184.167 1273,185.5C 1272.67,185.167 1272.33,184.833 1272,184.5C 1271.67,185.5 1271.33,186.5 1271,187.5C 1270.67,187.167 1270.33,186.833 1270,186.5C 1268.55,188.894 1266.39,190.394 1263.5,191C 1263.83,191.333 1264.17,191.667 1264.5,192C 1262.39,193.193 1260.73,194.86 1259.5,197C 1257.37,197.92 1255.37,199.087 1253.5,200.5C 1252.85,202.432 1251.52,203.599 1249.5,204C 1249.83,204.333 1250.17,204.667 1250.5,205C 1242.31,211.206 1234.64,217.206 1227.5,223C 1227.83,223.333 1228.17,223.667 1228.5,224C 1227,225.252 1225.33,226.252 1223.5,227C 1223.83,227.333 1224.17,227.667 1224.5,228C 1219.65,231.337 1216.48,235.503 1215,240.5C 1214.67,240.167 1214.33,239.833 1214,239.5C 1207.54,252.507 1202.37,266.34 1198.5,281C 1199.62,285.745 1199.62,290.245 1198.5,294.5C 1201.61,305.659 1205.61,316.492 1210.5,327C 1213.94,332.272 1217.94,337.105 1222.5,341.5C 1224.26,342.326 1225.6,343.659 1226.5,345.5C 1228.95,346.392 1229.61,347.892 1228.5,350C 1236.62,355.125 1243.79,361.291 1250,368.5C 1254.8,373.975 1259.64,379.475 1264.5,385C 1264.17,385.333 1263.83,385.667 1263.5,386C 1266.61,386.625 1268.45,388.458 1269,391.5C 1269.33,391.167 1269.67,390.833 1270,390.5C 1271.29,392.183 1272.45,393.849 1273.5,395.5C 1275.76,396.59 1277.59,398.256 1279,400.5C 1279.33,400.167 1279.67,399.833 1280,399.5C 1281.08,400.736 1281.92,402.069 1282.5,403.5C 1281.17,403.833 1281.17,404.167 1282.5,404.5C 1282.5,405.167 1282.83,405.5 1283.5,405.5C 1283.83,406.833 1284.17,406.833 1284.5,405.5C 1286.81,408.708 1289.47,412.208 1292.5,416C 1292.17,416.333 1291.83,416.667 1291.5,417C 1292.89,418.65 1294.39,419.15 1296,418.5C 1299.81,424.996 1304.31,430.996 1309.5,436.5C 1309.29,437.086 1308.96,437.586 1308.5,438C 1309.97,438.71 1310.64,439.876 1310.5,441.5C 1312.9,441.393 1314.74,442.393 1316,444.5C 1317.16,449.004 1318.82,453.338 1321,457.5C 1325.49,463.803 1329.49,470.469 1333,477.5C 1335.67,480.209 1337.84,482.709 1339.5,485C 1339.17,485.333 1338.83,485.667 1338.5,486C 1341.8,490.597 1344.47,495.931 1346.5,502C 1345.21,504.09 1345.88,505.424 1348.5,506C 1348.17,506.333 1347.83,506.667 1347.5,507C 1349.2,509.235 1350.2,511.735 1350.5,514.5C 1351.67,515.514 1352.34,516.847 1352.5,518.5C 1354.32,521.473 1354.66,524.639 1353.5,528C 1354.45,528.483 1355.45,528.649 1356.5,528.5C 1356.95,535.959 1358.78,542.959 1362,549.5C 1362.15,552.589 1362.98,555.422 1364.5,558C 1364.36,558.772 1364.02,559.439 1363.5,560C 1364.67,560.5 1365.5,561.333 1366,562.5C 1366.79,566.55 1367.79,570.55 1369,574.5C 1369.77,577.099 1369.6,579.599 1368.5,582C 1370.66,583.312 1370.99,584.978 1369.5,587C 1372.18,599.234 1374.18,611.734 1375.5,624.5C 1374.81,628.112 1375.15,631.779 1376.5,635.5C 1376.55,647.422 1376.39,659.422 1376,671.5C 1376.1,677.62 1375.26,683.454 1373.5,689C 1374.3,693.443 1374.14,697.943 1373,702.5C 1369.93,705.083 1369.27,708.083 1371,711.5C 1372.08,715.067 1371.24,718.067 1368.5,720.5C 1368.93,721.293 1369.26,722.127 1369.5,723C 1367.59,727.651 1366.43,732.485 1366,737.5C 1363.39,739.739 1362.89,742.405 1364.5,745.5C 1363.03,749.565 1361.7,753.565 1360.5,757.5C 1359.32,761.838 1357.66,765.838 1355.5,769.5C 1354.98,772.899 1354.15,776.232 1353,779.5C 1351.33,778.66 1351.17,779.16 1352.5,781C 1350.68,784.466 1348.51,787.633 1346,790.5C 1344.25,793.246 1343.25,796.246 1343,799.5C 1341.61,801.14 1340.11,802.64 1338.5,804C 1338.5,805 1338.5,806 1338.5,807C 1336.37,809.803 1334.21,812.636 1332,815.5C 1329.19,822.25 1326.19,828.917 1323,835.5C 1316.86,842.971 1311.53,850.971 1307,859.5C 1303.16,862.693 1299.66,866.193 1296.5,870C 1297.77,870.977 1297.77,871.811 1296.5,872.5C 1295.74,874.368 1294.74,876.035 1293.5,877.5C 1292.18,879.817 1290.51,881.817 1288.5,883.5C 1287.92,885.749 1286.59,887.415 1284.5,888.5C 1284.57,888.062 1284.4,887.728 1284,887.5C 1283.17,888.333 1282.33,889.167 1281.5,890C 1281.73,890.399 1282.06,890.565 1282.5,890.5C 1281.44,891.784 1280.44,893.117 1279.5,894.5C 1279.17,893.167 1278.83,893.167 1278.5,894.5C 1274.91,899.27 1271.07,903.937 1267,908.5C 1259.85,914.97 1252.68,921.304 1245.5,927.5C 1244.72,928.729 1244.22,930.062 1244,931.5C 1241.45,934.61 1238.62,937.277 1235.5,939.5C 1233.42,940.901 1231.42,942.568 1229.5,944.5C 1228.91,944.291 1228.41,943.957 1228,943.5C 1228.18,945.44 1227.18,947.107 1225,948.5C 1224.67,948.167 1224.33,947.833 1224,947.5C 1221.19,950.147 1218.02,952.147 1214.5,953.5C 1214.17,952.167 1213.83,952.167 1213.5,953.5C 1207.37,959.509 1200.03,964.842 1191.5,969.5C 1186.76,970.707 1182.42,972.707 1178.5,975.5C 1177.04,974.391 1176.04,974.891 1175.5,977C 1165.87,980.655 1156.7,985.155 1148,990.5C 1146.98,989.366 1146.32,989.699 1146,991.5C 1144.16,990.167 1143.66,990.334 1144.5,992C 1139.37,992.876 1134.37,995.043 1129.5,998.5C 1128.83,998.167 1128.17,997.833 1127.5,997.5C 1126.3,997.846 1126.3,998.346 1127.5,999C 1114.58,1003.7 1101.24,1008.2 1087.5,1012.5C 1086.11,1011.19 1085.11,1011.52 1084.5,1013.5C 1080.7,1014.1 1077.03,1015.1 1073.5,1016.5C 1072.2,1015.52 1071.03,1015.86 1070,1017.5C 1063.53,1018.77 1057.2,1020.43 1051,1022.5C 1049.41,1021.27 1048.08,1021.61 1047,1023.5C 1046.28,1022.94 1045.44,1022.61 1044.5,1022.5C 1033.1,1025.23 1021.6,1027.23 1010,1028.5C 1009.44,1027.98 1008.77,1027.64 1008,1027.5C 1002.15,1028.14 996.319,1028.81 990.5,1029.5C 980.97,1028.18 971.47,1028.18 962,1029.5C 939.893,1027.99 917.726,1026.49 895.5,1025C 891.433,1023.8 887.267,1022.97 883,1022.5C 875.252,1020.54 867.085,1019.04 858.5,1018C 849.762,1015.42 841.262,1012.25 833,1008.5C 830.588,1009.47 828.588,1008.81 827,1006.5C 825.605,1007.81 824.605,1007.48 824,1005.5C 823.586,1005.96 823.086,1006.29 822.5,1006.5C 813.867,1004.26 804.867,1002.09 795.5,1000C 796.34,998.334 795.84,998.167 794,999.5C 787.264,997.304 780.764,994.471 774.5,991C 775.34,989.334 774.84,989.167 773,990.5C 765.848,984.214 758.181,979.548 750,976.5C 741.833,972.156 733.333,967.656 724.5,963C 722.764,961.053 720.93,959.219 719,957.5C 718.667,957.833 718.333,958.167 718,958.5C 716.333,956.833 714.667,955.167 713,953.5C 712.667,953.833 712.333,954.167 712,954.5C 709.665,952.6 707.498,950.6 705.5,948.5C 705.167,947.167 704.833,947.167 704.5,948.5C 701.755,945.423 698.755,943.423 695.5,942.5C 693.611,941.396 691.945,940.063 690.5,938.5C 689.25,938.423 688.417,937.756 688,936.5C 686.893,937.712 686.393,937.379 686.5,935.5C 684.223,934.551 682.223,933.218 680.5,931.5C 672.827,925.212 665.327,918.545 658,911.5C 657.667,911.833 657.333,912.167 657,912.5C 647.995,903.322 639.162,894.655 630.5,886.5C 629.196,885.013 628.03,883.346 627,881.5C 625.334,882.34 625.167,881.84 626.5,880C 609.231,855.318 595.064,828.485 584,799.5C 583.028,797.695 581.861,796.028 580.5,794.5C 580.709,793.914 581.043,793.414 581.5,793C 579.096,792.492 578.429,791.325 579.5,789.5C 579.144,786.491 578.144,784.157 576.5,782.5C 577.833,782.167 577.833,781.833 576.5,781.5C 574.806,780.191 573.806,777.857 573.5,774.5C 571.329,771.816 569.663,767.816 568.5,762.5C 567.662,762.158 567.328,761.492 567.5,760.5C 566.662,760.158 566.328,759.492 566.5,758.5C 565.869,756.552 564.869,754.719 563.5,753C 563.647,751.026 563.981,749.026 564.5,747C 562.368,746.082 561.701,744.749 562.5,743C 560.68,740.395 560.014,737.728 560.5,735C 558.213,733.573 557.88,731.739 559.5,729.5C 558.559,729.511 557.892,729.011 557.5,728C 557.735,727.127 558.069,726.293 558.5,725.5C 557.456,724.377 556.79,723.044 556.5,721.5C 556.087,718.434 555.42,715.434 554.5,712.5C 554.709,711.914 555.043,711.414 555.5,711C 553.342,709.688 553.009,708.022 554.5,706C 552.408,705.047 552.075,703.714 553.5,702C 551.854,700.445 551.521,698.779 552.5,697C 551.038,692.621 549.872,688.455 549,684.5C 547.538,669.904 545.704,655.404 543.5,641C 545.508,638.861 545.508,636.528 543.5,634C 543.559,632.564 543.892,631.231 544.5,630C 542.47,618.544 542.303,607.044 544,595.5C 545.635,593.757 545.802,591.923 544.5,590C 546.71,581.614 548.21,572.78 549,563.5C 551.428,556.696 553.095,549.696 554,542.5C 555.276,538.889 556.776,535.389 558.5,532C 558.167,531.667 557.833,531.333 557.5,531C 559.201,528.232 560.534,525.399 561.5,522.5C 563.322,518.143 565.322,513.476 567.5,508.5C 571.706,499.708 575.873,490.374 580,480.5C 590.418,465.763 599.751,451.429 608,437.5C 612.73,432.763 616.73,427.429 620,421.5C 622.864,419.294 625.697,417.128 628.5,415C 628.167,414.667 627.833,414.333 627.5,414C 630.771,411.736 633.271,408.903 635,405.5C 643.125,399.376 650.625,392.543 657.5,385C 658.448,384.517 659.448,384.351 660.5,384.5C 663.101,378.068 667.768,373.901 674.5,372C 680.162,367.698 685.829,363.364 691.5,359C 691.167,358.667 690.833,358.333 690.5,358C 692.54,355.815 693.874,353.315 694.5,350.5C 695.552,350.649 696.552,350.483 697.5,350C 696.764,347.979 697.597,346.479 700,345.5C 701.855,342.274 703.521,338.941 705,335.5C 707.687,324.014 710.187,312.514 712.5,301C 711.833,299.333 711.167,297.667 710.5,296C 711.167,295.333 711.833,294.667 712.5,294C 712.081,291.243 711.414,288.243 710.5,285C 711.022,284.439 711.355,283.772 711.5,283C 710.474,277.789 709.308,272.622 708,267.5C 704.662,262.662 702.162,257.829 700.5,253C 699.552,252.517 698.552,252.351 697.5,252.5C 696.956,250.284 695.956,248.284 694.5,246.5C 693.768,245.192 692.934,243.858 692,242.5C 691.667,242.833 691.333,243.167 691,243.5C 690.517,242.552 690.351,241.552 690.5,240.5C 687.053,237.991 684.386,234.824 682.5,231C 682.833,230.667 683.167,230.333 683.5,230C 675.683,223.017 668.016,215.85 660.5,208.5C 658.929,206.585 656.929,205.585 654.5,205.5C 654.719,204.325 654.386,203.325 653.5,202.5C 650.336,200.487 647.502,197.487 645,193.5C 644.667,193.833 644.333,194.167 644,194.5C 642.333,193.5 641,192.167 640,190.5C 639.667,190.833 639.333,191.167 639,191.5C 637.898,190.051 636.731,188.718 635.5,187.5C 633.3,185.654 630.967,183.988 628.5,182.5C 629.547,181.922 629.38,181.256 628,180.5C 627.601,180.728 627.435,181.062 627.5,181.5C 625.97,180.789 624.637,179.789 623.5,178.5C 622.745,176.534 621.579,176.2 620,177.5C 618.482,175.652 616.649,174.152 614.5,173C 614.833,172.667 615.167,172.333 615.5,172C 600.43,164.45 585.43,157.617 570.5,151.5C 569.914,151.709 569.414,152.043 569,152.5C 568.244,150.191 568.744,148.191 570.5,146.5C 573.589,143.536 577.256,141.536 581.5,140.5C 599.782,135.642 618.115,133.642 636.5,134.5C 649.713,136.317 662.713,138.15 675.5,140C 687.008,143.87 698.341,148.037 709.5,152.5C 712.712,153.844 716.045,155.01 719.5,156C 718.304,156.654 718.304,157.154 719.5,157.5C 720.446,157.013 721.446,156.68 722.5,156.5C 727.405,158.965 732.405,160.965 737.5,162.5C 741.316,162.996 744.816,164.329 748,166.5C 750.19,165.416 751.856,166.083 753,168.5C 754.292,167.209 755.458,167.209 756.5,168.5C 761.61,169.588 766.61,170.588 771.5,171.5C 774.518,171.335 777.518,171.502 780.5,172C 781.676,173.914 782.676,173.748 783.5,171.5C 784.107,171.624 784.44,171.957 784.5,172.5C 790.58,172.483 796.58,171.817 802.5,170.5C 805.139,169.754 807.806,168.754 810.5,167.5C 811.967,167.723 813.467,168.056 815,168.5C 815.5,167.333 816.333,166.5 817.5,166C 823.055,165.715 828.388,164.548 833.5,162.5C 839.679,159.775 845.679,156.609 851.5,153C 857.894,150.463 864.228,147.963 870.5,145.5C 870.577,144.25 871.244,143.417 872.5,143C 907.135,129.469 943.135,125.802 980.5,132C 984.339,132.484 987.839,133.651 991,135.5C 991.333,135.167 991.667,134.833 992,134.5C 998.509,137.684 1005.34,140.35 1012.5,142.5C 1012.38,145.205 1013.38,145.872 1015.5,144.5C 1020.72,146.943 1026.05,149.11 1031.5,151C 1033.57,151.948 1035.07,153.448 1036,155.5C 1037.05,154.483 1038.22,154.316 1039.5,155C 1041.74,155.996 1043.58,157.496 1045,159.5C 1045.67,158.167 1046.33,158.167 1047,159.5C 1047.71,157.014 1048.54,157.014 1049.5,159.5 Z M 1282.5,404.5 C 1282.5,404.167 1282.5,403.833 1282.5,403.5C 1283.83,403.5 1284.5,404.167 1284.5,405.5C 1284.17,405.5 1283.83,405.5 1283.5,405.5C 1282.83,405.5 1282.5,405.167 1282.5,404.5 Z M 512.5,503.5 C 527.284,505.739 541.951,507.406 556.5,508.5C 554.753,513.175 552.419,518.008 549.5,523C 550.634,524.016 550.301,524.683 548.5,525C 549.597,527.716 548.597,529.55 545.5,530.5C 527.531,525.994 509.698,526.994 492,533.5C 486.127,536.369 481.127,540.369 477,545.5C 463.623,561.881 454.789,580.215 450.5,600.5C 450.709,601.086 451.043,601.586 451.5,602C 449.277,613.038 447.944,624.205 447.5,635.5C 447.568,647.799 449.401,660.132 453,672.5C 455.139,678.112 457.806,683.446 461,688.5C 463.064,691.531 465.731,693.864 469,695.5C 471.414,700.25 474.914,704.084 479.5,707C 496.592,715.773 514.592,718.439 533.5,715C 543.732,709.407 547.732,712.241 545.5,723.5C 545.846,724.696 546.346,724.696 547,723.5C 547.494,725.134 547.66,726.801 547.5,728.5C 542.108,730.136 537.108,732.636 532.5,736C 535.936,736.692 539.27,737.692 542.5,739C 541.5,739.333 540.5,739.667 539.5,740C 534.682,740.113 530.016,740.947 525.5,742.5C 516.909,741.848 508.409,741.848 500,742.5C 486.733,739.114 474.233,733.947 462.5,727C 450.041,716.334 441.207,703.168 436,687.5C 427.041,660.228 424.375,632.228 428,603.5C 430.882,593.267 433.216,582.6 435,571.5C 440.064,556.863 447.564,543.696 457.5,532C 468.142,523.343 479.475,515.676 491.5,509C 498.453,506.519 505.453,504.685 512.5,503.5 Z M 1402.5,504.5 C 1416.13,505.767 1428.8,509.933 1440.5,517C 1447.22,522.717 1454.22,528.05 1461.5,533C 1478.12,553.217 1487.46,576.217 1489.5,602C 1491.13,605.585 1491.96,609.419 1492,613.5C 1495,648.2 1488.33,680.866 1472,711.5C 1468.42,716.8 1464.26,721.633 1459.5,726C 1447.05,734.154 1433.55,739.987 1419,743.5C 1410.59,742.848 1402.09,742.848 1393.5,743.5C 1387.9,742.072 1382.23,740.905 1376.5,740C 1379.77,738.798 1383.11,737.798 1386.5,737C 1383.71,734.522 1380.54,732.688 1377,731.5C 1377.56,726.376 1378.72,720.376 1380.5,713.5C 1386.83,716.228 1393.5,717.894 1400.5,718.5C 1414.28,717.545 1427.28,714.045 1439.5,708C 1442.5,705.5 1445.5,703 1448.5,700.5C 1449.1,699.205 1449.6,697.872 1450,696.5C 1453.27,694.864 1455.94,692.531 1458,689.5C 1465.83,676.246 1470.33,661.913 1471.5,646.5C 1471.33,643.246 1471.33,639.912 1471.5,636.5C 1471.06,625.205 1469.72,614.038 1467.5,603C 1468.14,599.865 1467.47,596.865 1465.5,594C 1463.79,584.862 1460.79,575.862 1456.5,567C 1450.79,557.453 1444.12,548.62 1436.5,540.5C 1432.19,538.01 1427.86,535.51 1423.5,533C 1409.5,529.032 1395.5,528.032 1381.5,530C 1376.31,530.716 1371.31,531.883 1366.5,533.5C 1364.51,527.537 1362.51,521.537 1360.5,515.5C 1360.71,514.914 1361.04,514.414 1361.5,514C 1360.5,513 1359.5,512 1358.5,511C 1365.94,509.133 1373.44,507.633 1381,506.5C 1381.89,507.081 1382.89,507.415 1384,507.5C 1390.3,506.396 1396.46,505.396 1402.5,504.5 Z M 536.5,579.5 C 536.677,584.987 535.844,589.987 534,594.5C 531.651,627.876 534.151,661.042 541.5,694C 541.415,695.107 541.081,696.107 540.5,697C 542.604,698.836 542.938,701.002 541.5,703.5C 540.707,703.069 539.873,702.735 539,702.5C 530.702,704.082 522.535,705.082 514.5,705.5C 511.502,703.468 508.336,702.801 505,703.5C 500.598,702.084 496.098,700.918 491.5,700C 479.904,692.405 470.738,682.572 464,670.5C 452.553,632.986 456.553,596.986 476,562.5C 480.779,555.388 486.279,548.888 492.5,543C 501.985,539.435 511.819,537.269 522,536.5C 529.656,536.998 537.49,537.665 545.5,538.5C 543.799,546.516 541.799,554.183 539.5,561.5C 541.022,563.156 540.689,564.323 538.5,565C 538.833,565.333 539.167,565.667 539.5,566C 538.897,570.677 537.897,575.177 536.5,579.5 Z M 1381.5,697.5 C 1382.83,697.167 1382.83,696.833 1381.5,696.5C 1382.27,689.567 1383.61,682.734 1385.5,676C 1384.66,661.581 1384.66,647.415 1385.5,633.5C 1384.65,627.495 1383.65,621.495 1382.5,615.5C 1382.62,614.106 1382.95,612.772 1383.5,611.5C 1383.15,610.304 1382.65,610.304 1382,611.5C 1381.31,603.541 1380.15,595.375 1378.5,587C 1379.02,581.908 1378.35,576.908 1376.5,572C 1376.83,571.667 1377.17,571.333 1377.5,571C 1376.07,568.227 1374.74,565.393 1373.5,562.5C 1372.92,560.739 1372.92,558.739 1373.5,556.5C 1371.94,552.744 1370.6,548.91 1369.5,545C 1370.85,540.806 1373.85,538.806 1378.5,539C 1394.77,536.364 1410.77,538.03 1426.5,544C 1442.94,560.703 1453.77,580.537 1459,603.5C 1462.73,624.858 1462.07,645.858 1457,666.5C 1452.37,677.426 1445.53,686.76 1436.5,694.5C 1433.66,696.828 1430.66,698.995 1427.5,701C 1422.9,701.918 1418.4,703.084 1414,704.5C 1410.66,703.801 1407.5,704.468 1404.5,706.5C 1397.01,706.012 1389.34,705.179 1381.5,704C 1381.22,701.861 1381.22,699.695 1381.5,697.5 Z M 546.5,735.5 C 550.339,736.05 550.339,737.05 546.5,738.5C 545.438,737.575 545.438,736.575 546.5,735.5 Z"/></g>
<g><path style="opacity:0.004" fill="#000000" d="M 984.5,120.5 C 985.833,121.167 985.833,121.167 984.5,120.5 Z"/></g>
<g><path style="opacity:0.004" fill="#000000" d="M 988.5,121.5 C 989.833,122.167 989.833,122.167 988.5,121.5 Z"/></g>
<g><path style="opacity:0.004" fill="#000000" d="M 621.5,124.5 C 622.833,125.167 622.833,125.167 621.5,124.5 Z"/></g>
<g><path style="opacity:0.004" fill="#000000" d="M 645.5,125.5 C 646.833,126.167 646.833,126.167 645.5,125.5 Z"/></g>
<g><path style="opacity:0.004" fill="#000000" d="M 596.5,127.5 C 595.833,126.167 595.833,126.167 596.5,127.5 Z"/></g>
<g><path style="opacity:0.004" fill="#000000" d="M 875.5,130.5 C 874.833,129.167 874.833,129.167 875.5,130.5 Z"/></g>
<g><path style="opacity:0.004" fill="#000000" d="M 1327.5,129.5 C 1328.83,130.167 1328.83,130.167 1327.5,129.5 Z"/></g>
<g><path style="opacity:0.004" fill="#000000" d="M 682.5,130.5 C 683.833,131.167 683.833,131.167 682.5,130.5 Z"/></g>
<g><path style="opacity:0.004" fill="#000000" d="M 1240.5,131.5 C 1239.83,130.167 1239.83,130.167 1240.5,131.5 Z"/></g>
<g><path style="opacity:0.004" fill="#000000" d="M 694.5,134.5 C 695.833,135.167 695.833,135.167 694.5,134.5 Z"/></g>
<g><path style="opacity:0.004" fill="#000000" d="M 696.5,135.5 C 697.833,136.167 697.833,136.167 696.5,135.5 Z"/></g>
<g><path style="opacity:0.004" fill="#000000" d="M 1213.5,140.5 C 1212.83,139.167 1212.83,139.167 1213.5,140.5 Z"/></g>
<g><path style="opacity:0.004" fill="#000000" d="M 1043.5,142.5 C 1044.83,143.167 1044.83,143.167 1043.5,142.5 Z"/></g>
<g><path style="opacity:0.004" fill="#000000" d="M 573.5,163.5 C 572.833,164.167 572.833,164.167 573.5,163.5 Z"/></g>
<g><path style="opacity:0.004" fill="#000000" d="M 581.5,167.5 C 582.833,168.167 582.833,168.167 581.5,167.5 Z"/></g>
<g><path style="opacity:0.008" fill="#000000" d="M 1331.5,167.5 C 1332.83,168.167 1332.83,168.167 1331.5,167.5 Z"/></g>
<g><path style="opacity:0.004" fill="#000000" d="M 591.5,171.5 C 590.833,172.167 590.833,172.167 591.5,171.5 Z"/></g>
<g><path style="opacity:0.004" fill="#000000" d="M 1323.5,171.5 C 1324.83,172.167 1324.83,172.167 1323.5,171.5 Z"/></g>
<g><path style="opacity:0.004" fill="#000000" d="M 1212.5,266.5 C 1213.83,267.167 1213.83,267.167 1212.5,266.5 Z"/></g>
<g><path style="opacity:0.004" fill="#000000" d="M 696.5,272.5 C 697.833,273.167 697.833,273.167 696.5,272.5 Z"/></g>
<g><path style="opacity:0.004" fill="#000000" d="M 1209.5,284.5 C 1210.83,285.167 1210.83,285.167 1209.5,284.5 Z"/></g>
<g><path style="opacity:0.004" fill="#000000" d="M 1208.5,295.5 C 1209.83,296.167 1209.83,296.167 1208.5,295.5 Z"/></g>
<g><path style="opacity:0.004" fill="#000000" d="M 636.5,364.5 C 637.833,365.167 637.833,365.167 636.5,364.5 Z"/></g>
<g><path style="opacity:0.004" fill="#000000" d="M 636.5,365.5 C 635.309,369.904 633.809,374.238 632,378.5C 620.99,388.844 610.657,399.844 601,411.5C 594.591,420.72 588.925,430.387 584,440.5C 581.708,441.79 579.708,443.457 578,445.5C 578.668,440.833 580.501,436.666 583.5,433C 583.043,432.586 582.709,432.086 582.5,431.5C 583.934,429.78 584.767,427.78 585,425.5C 598.479,402.815 615.646,382.815 636.5,365.5 Z"/></g>
<g><path style="opacity:0.004" fill="#000000" d="M 1333.5,450.5 C 1329.48,442.141 1324.64,434.141 1319,426.5C 1310.4,416.227 1301.4,406.227 1292,396.5C 1291.02,395.241 1290.68,393.908 1291,392.5C 1293.33,393.833 1295.67,395.167 1298,396.5C 1298.33,396.167 1298.67,395.833 1299,395.5C 1314.14,408.449 1325.97,423.782 1334.5,441.5C 1333.59,444.421 1333.26,447.421 1333.5,450.5 Z"/></g>
<g><path style="opacity:0.004" fill="#000000" d="M 1333.5,450.5 C 1334.83,451.167 1334.83,451.167 1333.5,450.5 Z"/></g>
<g><path style="opacity:0.004" fill="#000000" d="M 1334.5,452.5 C 1335.83,453.167 1335.83,453.167 1334.5,452.5 Z"/></g>
<g><path style="opacity:0.004" fill="#000000" d="M 1336.5,463.5 C 1337.83,464.167 1337.83,464.167 1336.5,463.5 Z"/></g>
<g><path style="opacity:0.004" fill="#000000" d="M 526.5,583.5 C 527.586,583.62 528.253,584.287 528.5,585.5C 527.751,587.241 527.417,588.908 527.5,590.5C 526.713,589.758 526.047,588.925 525.5,588C 526.38,586.644 526.714,585.144 526.5,583.5 Z"/></g>
<g><path style="opacity:0.004" fill="#000000" d="M 525.5,592.5 C 526.289,592.783 526.956,593.283 527.5,594C 526.184,594.528 525.517,594.028 525.5,592.5 Z"/></g>
<g><path style="opacity:0.004" fill="#000000" d="M 1369.5,760.5 C 1370.83,761.167 1370.83,761.167 1369.5,760.5 Z"/></g>
<g><path style="opacity:0.004" fill="#000000" d="M 601.5,865.5 C 600.833,864.167 600.833,864.167 601.5,865.5 Z"/></g>
<g><path style="opacity:0.004" fill="#000000" d="M 604.5,864.5 C 603.833,865.167 603.833,865.167 604.5,864.5 Z"/></g>
<g><path style="opacity:0.004" fill="#000000" d="M 601.5,865.5 C 602.922,866.925 604.589,867.925 606.5,868.5C 607.167,868.5 607.5,868.833 607.5,869.5C 607.728,871.355 607.061,872.188 605.5,872C 603.915,869.931 602.581,867.764 601.5,865.5 Z"/></g>
<g><path style="opacity:0.004" fill="#000000" d="M 607.5,873.5 C 608.833,874.167 608.833,874.167 607.5,873.5 Z"/></g>
<g><path style="opacity:0.004" fill="#000000" d="M 1404.5,909.5 C 1407.43,909.852 1410.26,910.518 1413,911.5C 1415.12,908.92 1417.29,908.92 1419.5,911.5C 1420.5,910.833 1421.5,910.167 1422.5,909.5C 1427.83,912.167 1433.17,912.167 1438.5,909.5C 1443.7,910.326 1448.87,911.326 1454,912.5C 1454.67,911.833 1455.33,911.167 1456,910.5C 1458.19,911.022 1460.52,911.022 1463,910.5C 1463.69,911.025 1464.19,911.692 1464.5,912.5C 1462.25,916.007 1460.25,919.673 1458.5,923.5C 1457.56,924.553 1456.4,925.22 1455,925.5C 1449.83,925.417 1444.67,925.417 1439.5,925.5C 1438.67,924.585 1437.67,923.919 1436.5,923.5C 1426.95,924.129 1417.45,924.795 1408,925.5C 1407.31,924.643 1406.48,923.977 1405.5,923.5C 1399.97,924.145 1394.47,924.812 1389,925.5C 1387.27,924.751 1385.43,924.251 1383.5,924C 1387.33,919.5 1391.17,915 1395,910.5C 1395.33,910.833 1395.67,911.167 1396,911.5C 1398.94,910.872 1401.77,910.205 1404.5,909.5 Z"/></g>
<g><path style="opacity:0.005" fill="#000000" d="M 1312.5,910.5 C 1313.24,910.369 1313.91,910.536 1314.5,911C 1311.88,913.739 1309.38,916.573 1307,919.5C 1306.33,920.167 1306.33,920.833 1307,921.5C 1310.17,918.333 1313.33,915.167 1316.5,912C 1318.74,911.023 1321.07,910.523 1323.5,910.5C 1323.65,911.552 1323.48,912.552 1323,913.5C 1319.71,917.241 1316.55,921.075 1313.5,925C 1310.85,925.452 1308.35,926.286 1306,927.5C 1305.17,926.5 1304.33,925.5 1303.5,924.5C 1298.69,926.911 1294.02,927.578 1289.5,926.5C 1293.65,921.848 1297.98,917.348 1302.5,913C 1306.09,912.689 1309.42,911.856 1312.5,910.5 Z"/></g>
<g><path style="opacity:0.004" fill="#000000" d="M 1650.5,924.5 C 1646.42,926.395 1642.25,926.728 1638,925.5C 1636.91,926.293 1635.75,926.96 1634.5,927.5C 1628.69,926.352 1622.85,926.352 1617,927.5C 1615.52,925.219 1613.85,925.219 1612,927.5C 1611.61,926.572 1610.95,925.905 1610,925.5C 1604.15,926.813 1598.32,926.813 1592.5,925.5C 1588.06,927.948 1583.56,927.948 1579,925.5C 1577.24,925.975 1575.57,926.642 1574,927.5C 1573.33,926.833 1572.67,926.167 1572,925.5C 1567.79,926.104 1563.46,926.104 1559,925.5C 1555.94,926.077 1552.94,926.743 1550,927.5C 1549.33,926.833 1548.67,926.167 1548,925.5C 1536.82,926.447 1525.82,926.78 1515,926.5C 1513.18,925.671 1511.35,924.837 1509.5,924C 1510.42,923.626 1511.25,923.126 1512,922.5C 1513.58,918.325 1515.92,914.659 1519,911.5C 1519.33,911.833 1519.67,912.167 1520,912.5C 1521.19,911.57 1522.53,910.903 1524,910.5C 1535.48,910.976 1546.98,910.976 1558.5,910.5C 1559.75,911.04 1560.91,911.707 1562,912.5C 1565.13,911.201 1568.3,911.201 1571.5,912.5C 1572.75,911.96 1573.91,911.293 1575,910.5C 1575.52,911.516 1576.35,912.182 1577.5,912.5C 1583.91,911.714 1590.24,911.381 1596.5,911.5C 1599.04,912.115 1601.54,912.782 1604,913.5C 1610.62,912.239 1617.29,912.239 1624,913.5C 1625.76,913.025 1627.43,912.358 1629,911.5C 1636.81,911.818 1644.81,912.151 1653,912.5C 1653.74,911.426 1654.74,910.759 1656,910.5C 1657.23,911.615 1658.4,911.615 1659.5,910.5C 1660.52,911.002 1660.69,911.668 1660,912.5C 1656.58,916.379 1653.41,920.379 1650.5,924.5 Z"/></g>
<g><path style="opacity:0.004" fill="#000000" d="M 1285.5,912.5 C 1287.97,912.947 1288.14,913.947 1286,915.5C 1284.27,914.648 1284.1,913.648 1285.5,912.5 Z"/></g>
<g><path style="opacity:0.495" fill="#000000" d="M 67.5,917.5 C 67.5793,920.271 67.0793,922.937 66,925.5C 65.2904,926.973 64.1238,927.64 62.5,927.5C 61.791,926.596 60.791,926.263 59.5,926.5C 58.2665,925.024 57.2665,923.357 56.5,921.5C 57.7857,919.374 58.6191,917.041 59,914.5C 60.13,915.114 61.4634,915.114 63,914.5C 64.8926,915.008 66.3926,916.008 67.5,917.5 Z"/></g>
<g><path style="opacity:0.004" fill="#000000" d="M 67.5,916.5 C 68.8333,917.167 68.8333,917.167 67.5,916.5 Z"/></g>
<g><path style="opacity:0.008" fill="#000000" d="M 629.5,916.5 C 630.873,916.343 632.207,916.51 633.5,917C 638.015,921.348 642.349,925.848 646.5,930.5C 644.534,931.372 642.534,931.205 640.5,930C 636.218,925.897 632.551,921.397 629.5,916.5 Z"/></g>
<g><path style="opacity:0.004" fill="#000000" d="M 605.5,917.5 C 608.044,917.104 610.211,917.771 612,919.5C 613.944,923.11 616.277,926.443 619,929.5C 619.617,930.449 619.451,931.282 618.5,932C 614.975,932.658 612.141,931.491 610,928.5C 608.365,925.368 606.532,922.368 604.5,919.5C 604.863,918.817 605.196,918.15 605.5,917.5 Z"/></g>
<g><path style="opacity:0.004" fill="#000000" d="M 622.5,927.5 C 621.291,924.279 619.624,921.279 617.5,918.5C 617.833,918.167 618.167,917.833 618.5,917.5C 621.814,921.948 625.48,926.115 629.5,930C 628.5,930.5 627.5,931 626.5,931.5C 625.16,930.133 623.827,928.8 622.5,927.5 Z"/></g>
<g><path style="opacity:0.004" fill="#000000" d="M 1333.5,917.5 C 1334.83,918.167 1334.83,918.167 1333.5,917.5 Z"/></g>
<g><path style="opacity:0.004" fill="#000000" d="M 406.5,919.5 C 405.833,918.167 405.833,918.167 406.5,919.5 Z"/></g>
<g><path style="opacity:0.004" fill="#000000" d="M 410.5,918.5 C 411.833,919.167 411.833,919.167 410.5,918.5 Z"/></g>
<g><path style="opacity:0.004" fill="#000000" d="M 1283.5,918.5 C 1284.04,918.56 1284.38,918.893 1284.5,919.5C 1283.02,923.815 1280.18,926.815 1276,928.5C 1275.5,928 1275,927.5 1274.5,927C 1277.4,923.934 1280.4,921.101 1283.5,918.5 Z"/></g>
<g><path style="opacity:0.004" fill="#000000" d="M 1333.5,918.5 C 1332.83,919.167 1332.83,919.167 1333.5,918.5 Z"/></g>
<g><path style="opacity:0.004" fill="#000000" d="M 406.5,919.5 C 407.552,919.351 408.552,919.517 409.5,920C 408.251,920.74 407.251,920.573 406.5,919.5 Z"/></g>
<g><path style="opacity:0.004" fill="#000000" d="M 1331.5,920.5 C 1332.83,921.167 1332.83,921.167 1331.5,920.5 Z"/></g>
<g><path style="opacity:0.004" fill="#000000" d="M 405.5,921.5 C 406.473,922.791 407.473,922.791 408.5,921.5C 411.103,924.495 413.436,927.662 415.5,931C 410.213,930.825 404.879,930.492 399.5,930C 401.72,927.287 403.72,924.454 405.5,921.5 Z"/></g>
<g><path style="opacity:0.004" fill="#000000" d="M 1331.5,921.5 C 1331.54,922.756 1331.04,923.756 1330,924.5C 1329.42,923.002 1329.92,922.002 1331.5,921.5 Z"/></g>
<g><path style="opacity:0.004" fill="#000000" d="M 618.5,923.5 C 617.833,922.167 617.833,922.167 618.5,923.5 Z"/></g>
<g><path style="opacity:0.004" fill="#000000" d="M 618.5,923.5 C 619.473,925.139 620.806,926.473 622.5,927.5C 622.678,928.695 623.011,929.862 623.5,931C 623.15,932.257 622.483,932.591 621.5,932C 620.071,929.31 619.071,926.477 618.5,923.5 Z"/></g>
<g><path style="opacity:0.004" fill="#000000" d="M 1650.5,924.5 C 1651.83,925.167 1651.83,925.167 1650.5,924.5 Z"/></g>
<g><path style="opacity:0.004" fill="#000000" d="M 59.5,926.5 C 58.8333,927.167 58.8333,927.167 59.5,926.5 Z"/></g>
<g><path style="opacity:0.008" fill="#000000" d="M 62.5,927.5 C 61.8333,928.167 61.8333,928.167 62.5,927.5 Z"/></g>
<g><path style="opacity:0.004" fill="#000000" d="M 1230.5,933.5 C 1232.95,928.601 1236.61,927.101 1241.5,929C 1237.53,929.809 1233.87,931.309 1230.5,933.5 Z"/></g>
<g><path style="opacity:0.004" fill="#000000" d="M 397.5,929.5 C 398.833,930.167 398.833,930.167 397.5,929.5 Z"/></g>
<g><path style="opacity:0.004" fill="#000000" d="M 631.5,930.5 C 630.833,929.167 630.833,929.167 631.5,930.5 Z"/></g>
<g><path style="opacity:0.004" fill="#000000" d="M 631.5,930.5 C 632.833,931.167 632.833,931.167 631.5,930.5 Z"/></g>
<g><path style="opacity:0.004" fill="#000000" d="M 700.5,956.5 C 700.833,956.5 701.167,956.5 701.5,956.5C 701.315,957.17 700.981,957.17 700.5,956.5 Z"/></g>
<g><path style="opacity:0.004" fill="#000000" d="M 1220.5,961.5 C 1220.83,961.5 1221.17,961.5 1221.5,961.5C 1221.31,962.17 1220.98,962.17 1220.5,961.5 Z"/></g>
<g><path style="opacity:0.004" fill="#000000" d="M 1214.5,966.5 C 1215.83,967.167 1215.83,967.167 1214.5,966.5 Z"/></g>
<g><path style="opacity:0.004" fill="#000000" d="M 1207.5,970.5 C 1208.83,971.167 1208.83,971.167 1207.5,970.5 Z"/></g>
<g><path style="opacity:0.004" fill="#000000" d="M 737.5,979.5 C 736.833,980.167 736.833,980.167 737.5,979.5 Z"/></g>
<g><path style="opacity:0.005" fill="#000000" d="M 709.5,1004.5 C 712.059,1004.39 714.392,1005.06 716.5,1006.5C 714.093,1011.23 712.426,1015.9 711.5,1020.5C 711.977,1021.48 712.643,1022.31 713.5,1023C 713.167,1023.33 712.833,1023.67 712.5,1024C 717.65,1025.8 720.483,1029.3 721,1034.5C 716.035,1032.74 711.369,1030.4 707,1027.5C 706.029,1019.62 706.862,1011.96 709.5,1004.5 Z"/></g>
<g><path style="opacity:0.004" fill="#000000" d="M 1193.5,1011.5 C 1196.54,1011.38 1198.21,1012.88 1198.5,1016C 1196.91,1017.92 1195.75,1020.09 1195,1022.5C 1189.33,1027.41 1183.16,1031.41 1176.5,1034.5C 1176.34,1032.47 1176.5,1030.47 1177,1028.5C 1180.82,1024.93 1184.82,1021.6 1189,1018.5C 1189.33,1017.17 1189.67,1015.83 1190,1014.5C 1191.73,1014.03 1192.9,1013.03 1193.5,1011.5 Z"/></g>
<g><path style="opacity:0.004" fill="#000000" d="M 1041.5,1034.5 C 1042.83,1035.17 1042.83,1035.17 1041.5,1034.5 Z"/></g>
</svg>
