<?xml version="1.0" standalone="no"?>
<!DOCTYPE svg PUBLIC "-//W3C//DTD SVG 20010904//EN"
 "http://www.w3.org/TR/2001/REC-SVG-20010904/DTD/svg10.dtd">
<svg version="1.0" xmlns="http://www.w3.org/2000/svg"
 width="1699.000000pt" height="1180.000000pt" viewBox="0 0 1699.000000 1180.000000"
 preserveAspectRatio="xMidYMid meet">

<g transform="translate(0.000000,1180.000000) scale(0.100000,-0.100000)"
fill="#000000" stroke="none">
<path d="M7779 10956 c-52 -12 -109 -27 -125 -34 -16 -6 -49 -16 -74 -22 -25
-7 -117 -47 -205 -90 -173 -84 -298 -140 -312 -140 -5 0 -28 -9 -51 -20 -22
-11 -47 -20 -55 -20 -7 0 -17 -4 -22 -8 -11 -9 -96 -37 -106 -34 -4 1 -36 -7
-72 -17 -50 -15 -89 -18 -174 -15 -181 6 -211 11 -368 60 -60 19 -141 44 -180
55 -38 12 -78 25 -87 30 -10 5 -27 9 -38 9 -11 0 -31 7 -43 14 -12 8 -67 30
-122 49 -55 18 -110 39 -122 45 -12 7 -29 12 -37 12 -9 0 -24 4 -34 9 -72 38
-366 73 -622 74 -237 2 -284 -4 -467 -56 -64 -18 -169 -76 -201 -110 -13 -14
-37 -31 -53 -37 -16 -7 -29 -18 -29 -24 0 -21 24 -45 50 -49 14 -1 39 -10 55
-19 17 -9 80 -35 140 -58 103 -40 264 -115 345 -161 66 -38 317 -226 370 -277
19 -19 69 -61 110 -95 72 -58 231 -218 239 -241 2 -6 18 -29 36 -51 18 -22 35
-48 38 -57 4 -10 11 -18 17 -18 5 0 10 -5 10 -11 0 -6 14 -31 31 -55 17 -25
41 -71 54 -103 21 -51 23 -70 21 -186 -3 -122 -34 -322 -55 -350 -4 -5 -14
-26 -21 -45 -8 -19 -35 -63 -61 -97 -26 -35 -51 -69 -56 -76 -4 -7 -34 -32
-65 -55 -31 -23 -61 -48 -65 -55 -4 -7 -33 -32 -63 -54 -30 -22 -70 -54 -89
-72 -18 -17 -40 -35 -48 -39 -7 -5 -57 -51 -111 -103 -53 -51 -113 -106 -132
-120 -56 -42 -160 -148 -160 -162 0 -7 -10 -23 -22 -34 -29 -26 -52 -54 -82
-100 -13 -21 -32 -47 -43 -58 -10 -11 -47 -63 -82 -115 -35 -52 -67 -97 -71
-100 -14 -10 -59 -89 -134 -235 -42 -82 -82 -149 -88 -147 -33 9 -120 23 -265
41 -159 21 -322 22 -347 2 -6 -5 -30 -11 -54 -15 -49 -7 -178 -61 -207 -87
-11 -10 -63 -45 -115 -79 -91 -60 -220 -181 -220 -206 0 -7 -7 -19 -15 -27
-33 -33 -114 -194 -135 -267 -8 -25 -17 -49 -22 -54 -4 -6 -8 -21 -8 -35 0
-15 -7 -45 -15 -68 -8 -22 -16 -56 -18 -75 -3 -18 -7 -40 -9 -48 -38 -110 -47
-465 -17 -626 32 -176 84 -330 146 -439 16 -27 38 -66 48 -85 11 -19 58 -73
105 -120 73 -72 101 -93 190 -137 174 -85 242 -98 468 -90 156 6 208 13 363
53 70 18 69 18 69 -7 0 -12 17 -56 39 -98 21 -42 44 -94 51 -116 14 -44 19
-56 80 -195 67 -151 75 -170 113 -260 49 -117 61 -140 70 -140 4 0 7 -6 7 -14
0 -17 26 -65 87 -157 24 -37 43 -71 43 -77 0 -6 3 -12 8 -14 4 -1 20 -28 35
-58 37 -74 81 -135 158 -222 102 -116 318 -323 403 -386 170 -127 233 -172
242 -172 5 0 19 -8 30 -18 11 -9 44 -30 74 -46 30 -16 87 -51 126 -76 39 -26
91 -58 115 -71 24 -13 52 -30 61 -37 37 -30 200 -112 223 -112 7 0 29 -11 49
-25 20 -14 39 -25 42 -25 3 0 20 -10 37 -23 74 -52 182 -107 257 -132 30 -10
64 -21 75 -25 20 -8 208 -56 255 -65 31 -6 230 -60 250 -68 20 -7 147 -43 184
-51 15 -4 26 -9 23 -12 -5 -5 -1832 -5 -4909 0 l-2077 4 -11 -27 c-7 -17 -9
-71 -5 -151 4 -104 6 -528 4 -715 -1 -27 2 -102 5 -165 6 -98 15 -640 16 -921
0 -73 3 -88 17 -94 10 -4 269 -9 577 -11 466 -4 562 -2 580 9 20 14 21 21 20
213 -1 109 -5 262 -8 339 -4 77 -9 181 -10 230 -2 50 -6 99 -10 110 -7 20 -3
20 2506 19 1382 0 2576 -1 2653 -1 77 -1 149 -1 160 -1 11 0 54 0 95 -1 130
-2 5898 8 7253 13 1217 5 1297 4 1298 -12 7 -105 9 -200 12 -515 l2 -368 25
-19 c16 -13 41 -20 70 -20 538 -2 1039 -3 1052 0 15 3 16 58 18 669 1 366 2
740 3 831 0 231 -9 549 -17 557 -3 4 -822 8 -1819 10 -2024 3 -5307 11 -5321
12 -21 2 5 11 104 36 58 14 112 29 120 34 8 4 36 14 63 22 26 7 47 16 47 20 0
3 6 6 13 6 21 0 162 44 172 54 5 5 17 9 27 9 10 0 26 4 36 9 9 5 40 17 67 26
28 9 69 25 92 36 24 10 45 19 47 19 2 0 42 17 88 39 126 58 179 81 192 81 42
1 405 210 464 267 7 7 20 13 27 13 45 0 649 573 764 725 38 50 80 102 93 117
57 65 238 326 238 343 0 4 10 21 23 38 12 18 30 48 41 67 10 19 28 46 40 60
56 62 296 583 296 642 0 22 29 38 49 28 81 -42 438 -65 571 -36 107 22 125 29
223 79 94 49 227 150 227 173 0 8 4 14 10 14 17 0 115 160 149 243 28 68 53
142 76 227 45 166 60 483 31 626 -8 38 -22 113 -31 167 -10 53 -21 100 -26
103 -5 3 -7 9 -4 14 6 9 -62 220 -76 235 -5 5 -9 16 -9 25 0 9 -9 25 -20 35
-11 10 -20 26 -20 35 0 10 -7 23 -16 31 -8 7 -31 36 -51 66 -19 29 -46 62 -59
72 -13 10 -24 23 -24 29 0 5 -6 12 -14 15 -7 3 -51 33 -98 66 -47 34 -90 61
-95 61 -5 0 -18 10 -29 21 -22 25 -96 60 -174 84 -30 9 -68 20 -85 25 -90 28
-365 11 -588 -36 -38 -8 -70 -14 -71 -14 -2 0 -29 53 -61 118 -32 64 -77 146
-100 182 -23 36 -61 97 -84 135 -85 141 -233 340 -341 460 -25 28 -81 91 -125
140 -44 49 -106 114 -139 144 -32 31 -124 121 -205 201 -80 80 -184 181 -229
225 -82 79 -133 153 -179 260 -58 136 -56 128 -49 232 4 54 12 116 17 138 19
75 52 170 64 185 6 8 28 43 49 77 49 83 133 166 311 308 83 65 156 125 163
132 33 32 116 81 243 145 76 37 141 68 145 68 4 0 40 16 81 35 41 19 81 35 91
35 9 0 62 23 117 51 101 52 236 106 288 116 34 7 43 24 27 52 -12 23 -60 48
-160 81 -36 12 -69 25 -75 30 -13 10 -137 49 -178 56 -336 55 -638 42 -902
-37 -38 -11 -90 -27 -115 -34 -25 -7 -72 -23 -105 -34 -33 -12 -105 -34 -160
-50 -55 -17 -113 -34 -130 -40 -36 -12 -286 -89 -335 -103 -19 -6 -57 -18 -85
-28 -120 -44 -324 -74 -370 -55 -59 25 -121 44 -165 50 -25 4 -49 10 -55 14
-5 4 -44 20 -85 35 -97 37 -195 74 -240 93 -19 8 -48 21 -65 28 -16 7 -51 22
-76 34 -25 11 -52 21 -60 21 -8 0 -41 14 -73 30 -32 17 -64 30 -70 30 -6 0
-24 7 -41 16 -34 18 -153 58 -205 69 -19 4 -47 14 -62 21 -51 26 -245 42 -528
42 -248 0 -285 -2 -371 -22z m711 -59 c14 -4 41 -10 60 -13 19 -3 46 -9 60
-13 14 -5 52 -16 85 -26 33 -10 65 -22 70 -26 6 -3 35 -14 65 -24 30 -10 62
-24 71 -31 8 -8 22 -14 31 -14 17 0 119 -39 193 -75 28 -13 66 -30 85 -38 19
-7 69 -29 110 -46 41 -18 95 -39 120 -47 24 -8 49 -19 54 -24 6 -6 18 -10 28
-10 11 0 36 -9 58 -20 21 -11 78 -26 127 -34 48 -8 101 -19 116 -25 16 -6 79
-11 140 -11 112 0 188 12 317 51 36 10 88 25 115 34 279 81 435 133 455 150 8
7 56 25 105 40 50 15 99 32 110 37 21 9 76 25 205 59 116 31 281 48 415 44
167 -6 256 -13 263 -19 3 -3 22 -6 43 -6 21 0 40 -4 43 -9 4 -5 25 -12 48 -16
39 -7 181 -59 203 -75 6 -4 23 -10 38 -14 36 -9 29 -19 -30 -41 -26 -10 -74
-31 -106 -46 -31 -15 -72 -30 -90 -34 -33 -6 -91 -29 -184 -71 -28 -13 -57
-24 -63 -24 -13 0 -19 -3 -195 -95 -96 -50 -187 -111 -247 -167 -42 -40 -124
-106 -199 -163 -181 -137 -291 -299 -364 -534 -25 -82 -31 -221 -12 -273 8
-24 18 -55 21 -70 4 -15 26 -70 51 -121 36 -76 62 -113 140 -197 53 -57 109
-112 125 -121 26 -16 282 -267 321 -314 9 -11 59 -61 111 -111 52 -50 114
-115 138 -145 23 -30 50 -58 60 -64 10 -5 48 -50 85 -100 37 -49 82 -106 100
-125 18 -19 36 -46 40 -60 4 -13 31 -62 59 -108 28 -45 58 -95 66 -110 8 -15
30 -47 49 -72 30 -40 67 -112 144 -280 13 -30 42 -107 62 -170 21 -63 61 -187
90 -275 56 -171 68 -217 84 -335 25 -178 29 -203 36 -285 4 -38 11 -90 15
-115 15 -78 5 -503 -15 -625 -9 -60 -19 -126 -21 -145 -9 -73 -72 -341 -106
-450 -37 -121 -128 -320 -197 -429 -40 -64 -74 -121 -131 -221 -5 -8 -27 -51
-51 -95 -23 -44 -55 -95 -70 -113 -16 -17 -51 -66 -79 -107 -28 -42 -60 -81
-71 -88 -11 -6 -31 -30 -46 -52 -57 -87 -86 -128 -110 -153 -14 -15 -46 -51
-72 -81 -63 -75 -159 -173 -261 -266 -47 -43 -114 -106 -150 -140 -66 -62
-147 -119 -232 -165 -27 -14 -57 -33 -68 -43 -24 -20 -96 -67 -130 -84 -14 -7
-38 -22 -55 -33 -16 -11 -37 -23 -45 -26 -39 -16 -149 -67 -182 -84 -20 -11
-41 -20 -46 -20 -6 0 -50 -18 -99 -41 -48 -22 -103 -47 -121 -55 -42 -20 -142
-57 -257 -96 -49 -18 -99 -35 -110 -40 -41 -16 -176 -57 -210 -64 -19 -3 -37
-10 -40 -14 -3 -5 -24 -11 -48 -15 -23 -3 -69 -14 -102 -24 -82 -25 -138 -37
-290 -62 -125 -21 -159 -22 -825 -21 -664 1 -700 2 -800 22 -58 12 -123 23
-145 26 -21 3 -42 7 -45 9 -4 2 -29 7 -56 11 -27 3 -57 10 -66 15 -9 5 -21 8
-25 8 -4 -1 -15 1 -23 4 -55 22 -187 60 -315 91 -172 42 -283 72 -340 93 -114
42 -139 54 -197 89 -124 76 -130 79 -340 177 -27 12 -48 25 -48 29 0 5 -9 8
-20 8 -11 0 -20 5 -20 10 0 6 -6 10 -14 10 -8 0 -16 4 -18 8 -3 8 -94 69 -143
97 -29 16 -192 127 -314 213 -251 177 -628 542 -647 624 -3 16 -10 28 -15 28
-5 0 -9 6 -9 13 -1 6 -16 37 -35 67 -19 30 -53 88 -77 128 -24 41 -48 81 -53
90 -20 32 -59 107 -61 117 -2 11 -71 162 -109 240 -14 28 -25 53 -25 57 0 9
-76 187 -119 280 -17 36 -31 73 -31 82 0 8 -9 39 -19 68 -10 29 -29 96 -41
148 -12 52 -33 141 -46 197 -14 56 -27 112 -28 125 -2 13 -6 30 -9 38 -11 31
-49 257 -52 310 -9 142 -16 239 -21 284 -2 27 -5 106 -7 175 -1 120 5 173 44
351 5 25 11 56 13 70 2 25 26 121 53 220 29 104 65 205 104 288 21 46 39 86
39 90 0 16 164 325 195 367 23 32 103 147 177 256 25 36 54 75 64 87 52 56 64
71 64 80 0 12 89 102 184 187 37 33 104 94 149 136 175 163 216 198 253 217
117 58 152 89 245 217 60 82 81 127 102 215 38 159 40 173 39 320 0 131 -14
208 -49 270 -24 43 -85 133 -93 140 -4 3 -20 23 -36 45 -51 71 -152 189 -175
205 -12 8 -31 25 -43 36 -30 31 -125 113 -176 154 -24 19 -48 40 -54 45 -100
92 -290 223 -401 277 -22 11 -47 24 -55 29 -8 5 -44 23 -80 39 -36 17 -73 34
-82 40 -10 5 -23 10 -30 10 -7 0 -24 6 -38 13 -14 7 -53 21 -88 31 -79 24 -92
39 -64 69 11 12 38 30 59 41 21 10 46 23 57 28 41 22 129 41 301 67 125 19
558 -10 699 -46 33 -8 66 -16 71 -18 14 -3 44 -14 82 -31 17 -8 37 -14 45 -14
8 0 18 -4 24 -9 5 -4 43 -20 84 -34 41 -14 113 -39 160 -56 47 -17 86 -31 88
-31 4 1 113 -31 189 -56 134 -44 228 -62 338 -67 113 -5 151 -1 265 28 36 9
112 28 170 42 58 15 130 39 160 54 64 32 125 59 199 89 29 11 78 33 109 49
111 57 266 109 377 126 22 3 51 7 65 10 14 2 56 7 95 10 38 4 71 8 73 10 6 6
437 -2 462 -8z m-4580 -3632 c4 -3 50 -8 101 -11 52 -3 105 -7 119 -8 14 -2
36 -4 50 -5 53 -3 55 -13 20 -87 -18 -38 -37 -80 -42 -94 -25 -62 -16 -60
-153 -40 -96 14 -276 7 -357 -14 -31 -8 -89 -31 -127 -52 -57 -30 -83 -53
-141 -123 -120 -146 -222 -366 -244 -531 -4 -25 -9 -61 -12 -80 -22 -150 -12
-400 20 -513 50 -180 182 -340 341 -416 120 -57 323 -86 420 -60 83 22 180 39
192 35 7 -3 13 -17 13 -32 0 -14 9 -71 20 -126 12 -55 19 -103 16 -105 -7 -7
-69 -20 -166 -34 -111 -17 -376 -16 -425 1 -22 8 -46 15 -54 16 -27 5 -183 76
-239 109 -93 54 -177 156 -245 296 -36 73 -107 279 -127 365 -27 117 -29 525
-4 566 5 7 9 19 10 28 0 8 6 34 13 58 7 24 14 55 16 70 10 87 77 267 125 342
5 8 17 28 26 45 32 57 119 146 189 193 39 26 72 49 75 52 12 13 69 50 120 77
111 60 258 94 374 87 37 -2 72 -6 76 -9z m9060 -7 c77 -10 193 -44 252 -74 18
-9 88 -55 156 -102 118 -82 204 -165 240 -229 51 -94 102 -200 102 -214 0 -8
4 -19 10 -25 8 -8 17 -44 36 -144 3 -14 16 -68 29 -121 27 -107 35 -262 23
-451 -8 -120 -8 -117 -55 -283 -34 -123 -66 -211 -92 -255 -90 -156 -183 -250
-301 -307 -99 -47 -160 -73 -180 -77 -8 -1 -33 -8 -55 -16 -71 -25 -403 -15
-517 15 -16 4 -28 8 -28 9 0 0 5 17 11 36 16 53 39 171 39 204 0 28 0 28 48
21 26 -4 55 -11 66 -17 32 -17 166 -21 231 -7 33 7 65 13 70 14 66 6 193 57
235 94 179 154 235 247 279 463 9 40 7 363 -2 418 -4 19 -9 55 -13 80 -6 43
-22 111 -42 175 -13 40 -105 230 -134 276 -13 20 -51 68 -85 106 -68 76 -141
120 -248 150 -85 24 -381 23 -444 0 -81 -31 -83 -30 -129 94 -23 61 -39 115
-37 119 8 12 90 24 255 36 41 3 93 8 114 12 59 11 84 11 166 0z m-9025 -302
c117 -7 153 -11 162 -19 5 -5 -32 -175 -57 -262 -5 -16 -14 -61 -20 -100 -7
-38 -19 -101 -27 -139 -34 -148 -14 -624 33 -826 17 -70 44 -225 44 -251 0
-13 -16 -18 -82 -24 -157 -14 -203 -15 -253 -5 -27 6 -86 17 -130 26 -46 8
-96 25 -117 39 -21 14 -41 25 -46 25 -26 0 -192 198 -192 229 0 5 -5 22 -12
38 -13 33 -14 35 -28 88 -6 22 -13 65 -16 95 -2 30 -7 62 -10 70 -7 20 -6 218
2 250 3 14 7 45 9 70 14 168 150 454 277 580 68 67 130 95 243 110 49 6 91 13
93 15 2 2 9 2 15 0 7 -2 57 -6 112 -9z m9015 -15 c161 -21 203 -49 344 -222 7
-8 23 -35 36 -60 12 -24 27 -51 31 -59 5 -8 16 -31 25 -50 8 -19 19 -44 24
-55 15 -31 62 -197 66 -230 16 -145 18 -270 7 -360 -12 -103 -27 -175 -42
-210 -5 -11 -16 -40 -25 -65 -29 -82 -141 -197 -241 -248 -58 -30 -189 -60
-295 -68 -43 -4 -216 12 -230 21 -4 2 -4 24 0 47 43 254 42 248 37 493 -4 132
-11 269 -17 305 -6 36 -13 78 -15 93 -2 16 -6 40 -9 55 -3 15 -10 72 -15 127
-6 55 -23 143 -39 195 -35 116 -54 185 -59 225 -7 49 31 62 217 74 58 4 107 6
110 5 3 -2 44 -7 90 -13z m3601 -4840 c2 -127 7 -330 8 -411 2 -52 -1 -245 -4
-428 -6 -258 -5 -336 5 -347 7 -8 9 -15 4 -15 -5 0 -9 -105 -10 -233 0 -127
-4 -280 -9 -339 l-7 -108 -202 0 c-110 0 -315 -1 -454 -1 -139 -1 -255 1 -258
4 -6 6 -6 282 1 452 17 435 17 435 -25 435 -16 0 -30 5 -32 12 -5 15 -746 19
-4883 24 -1727 2 -3371 5 -3652 7 -282 2 -513 0 -513 -4 0 -5 -156 -6 -347 -4
-192 3 -490 4 -663 3 -173 0 -520 -1 -770 0 -393 1 -3180 3 -3266 2 -20 0 -41
-9 -58 -26 l-26 -27 5 -211 c6 -277 14 -432 25 -481 4 -22 7 -74 6 -115 l-1
-75 -250 -2 c-137 -1 -357 -3 -488 -4 l-239 -4 -4 195 c-2 107 -6 272 -10 365
-3 94 -7 215 -9 270 -2 55 -4 107 -4 115 -3 44 -4 195 -4 557 l0 403 3489 5
c3014 4 3809 5 4544 4 477 -1 7105 12 7106 14 1 1 225 2 498 3 l496 1 1 -36z"/>
</g>
</svg>
