<?xml version="1.0" encoding="UTF-8"?>
<!DOCTYPE svg PUBLIC "-//W3C//DTD SVG 1.1//EN" "http://www.w3.org/Graphics/SVG/1.1/DTD/svg11.dtd">
<svg xmlns="http://www.w3.org/2000/svg" version="1.1" width="1779px" height="1445px" style="shape-rendering:geometricPrecision; text-rendering:geometricPrecision; image-rendering:optimizeQuality; fill-rule:evenodd; clip-rule:evenodd" xmlns:xlink="http://www.w3.org/1999/xlink">
<g><path style="opacity:0.729" fill="#000000" d="M 936.5,185.5 C 937.531,186.249 938.698,186.915 940,187.5C 940.333,187.167 940.667,186.833 941,186.5C 942.46,188.422 944.127,189.089 946,188.5C 947.03,190.776 948.53,191.443 950.5,190.5C 951.696,190.846 951.696,191.346 950.5,192C 960.974,196.178 971.141,200.344 981,204.5C 981.772,204.355 982.439,204.022 983,203.5C 984.989,205.732 987.489,207.232 990.5,208C 996.357,209.577 1002.19,211.411 1008,213.5C 1008.77,213.355 1009.44,213.022 1010,212.5C 1011.72,214.444 1013.89,215.444 1016.5,215.5C 1018.77,214.658 1020.93,214.658 1023,215.5C 1029.61,213.317 1036.28,211.317 1043,209.5C 1043.33,209.833 1043.67,210.167 1044,210.5C 1046.75,209.638 1049.25,208.305 1051.5,206.5C 1053.81,207.933 1055.31,207.266 1056,204.5C 1058.27,205.24 1060.27,205.24 1062,204.5C 1075.65,199.243 1089.15,194.576 1102.5,190.5C 1105.87,189.496 1109.21,188.496 1112.5,187.5C 1117.46,187.032 1121.96,185.365 1126,182.5C 1126.41,182.957 1126.91,183.291 1127.5,183.5C 1132.68,180.984 1137.85,178.651 1143,176.5C 1143.41,176.957 1143.91,177.291 1144.5,177.5C 1153.6,174.463 1162.77,172.463 1172,171.5C 1180.92,171.553 1189.92,171.553 1199,171.5C 1206.75,172.914 1214.58,174.081 1222.5,175C 1223.42,175.374 1224.25,175.874 1225,176.5C 1226.67,176.167 1228.33,175.833 1230,175.5C 1240.62,180.715 1252.78,185.882 1266.5,191C 1266.3,193.186 1266.97,195.353 1268.5,197.5C 1267.5,201.622 1265.5,202.622 1262.5,200.5C 1260.2,201.432 1257.87,202.265 1255.5,203C 1246,207.91 1236,212.743 1225.5,217.5C 1224.39,217.557 1223.39,217.89 1222.5,218.5C 1222.44,217.957 1222.11,217.624 1221.5,217.5C 1219.43,218.857 1217.43,220.19 1215.5,221.5C 1212.31,222.597 1209.31,223.93 1206.5,225.5C 1205.45,225.351 1204.45,225.517 1203.5,226C 1204.34,227.666 1203.84,227.833 1202,226.5C 1200.85,227.636 1199.69,228.636 1198.5,229.5C 1196.57,229.729 1194.9,230.562 1193.5,232C 1179.41,239.159 1166.91,248.659 1156,260.5C 1143.75,267.828 1133.25,277.662 1124.5,290C 1124.5,291.333 1124.5,292.667 1124.5,294C 1122.46,295.926 1120.62,298.092 1119,300.5C 1114.62,313.15 1111.78,326.15 1110.5,339.5C 1111.17,342.691 1112.34,345.691 1114,348.5C 1114.5,350.473 1114.66,352.473 1114.5,354.5C 1116.94,354.119 1117.61,354.786 1116.5,356.5C 1119.12,362.72 1122.12,368.72 1125.5,374.5C 1133.96,383.963 1142.96,392.797 1152.5,401C 1152.17,401.333 1151.83,401.667 1151.5,402C 1152.96,403.582 1154.63,404.915 1156.5,406C 1156.04,406.414 1155.71,406.914 1155.5,407.5C 1156.85,408.524 1158.19,409.524 1159.5,410.5C 1164.73,416.062 1170.4,421.395 1176.5,426.5C 1179.58,429.409 1182.08,432.742 1184,436.5C 1184.33,436.167 1184.67,435.833 1185,435.5C 1187.09,438.681 1189.43,441.681 1192,444.5C 1192.48,445.448 1192.65,446.448 1192.5,447.5C 1193.68,447.281 1194.68,447.614 1195.5,448.5C 1197.37,452.085 1200.04,454.918 1203.5,457C 1203.17,457.333 1202.83,457.667 1202.5,458C 1205.72,462.278 1209.05,466.445 1212.5,470.5C 1213.66,471.74 1214.66,473.074 1215.5,474.5C 1216.43,477.37 1218.1,479.704 1220.5,481.5C 1235.45,502.013 1247.78,524.18 1257.5,548C 1260.52,548.664 1263.35,548.164 1266,546.5C 1275.41,546.16 1284.91,544.826 1294.5,542.5C 1312.82,540.664 1330.15,544.164 1346.5,553C 1353.45,558.815 1360.79,564.148 1368.5,569C 1380.97,582.781 1389.64,598.614 1394.5,616.5C 1394.87,617.91 1395.7,618.91 1397,619.5C 1400.31,632.033 1402.47,644.366 1403.5,656.5C 1410.67,699.094 1401.84,738.094 1377,773.5C 1365.41,785.547 1351.57,793.88 1335.5,798.5C 1334.91,798.291 1334.41,797.957 1334,797.5C 1332.6,798.227 1331.1,798.727 1329.5,799C 1321.49,799.622 1313.82,800.122 1306.5,800.5C 1295.54,799.306 1285.04,797.306 1275,794.5C 1273.85,797.048 1273.02,799.715 1272.5,802.5C 1271.57,807.765 1269.57,812.932 1266.5,818C 1267.26,819.364 1266.76,820.531 1265,821.5C 1264.62,824.03 1263.79,826.363 1262.5,828.5C 1261.17,828.833 1261.17,829.167 1262.5,829.5C 1261.09,831.578 1259.76,833.745 1258.5,836C 1259.83,837.84 1259.67,838.34 1258,837.5C 1254.91,845.012 1251.41,852.679 1247.5,860.5C 1247.71,861.086 1248.04,861.586 1248.5,862C 1245.66,863.078 1243.66,864.411 1242.5,866C 1242.83,866.333 1243.17,866.667 1243.5,867C 1242.1,868.677 1240.77,870.344 1239.5,872C 1239.64,872.772 1239.98,873.439 1240.5,874C 1238.56,876.034 1236.72,878.2 1235,880.5C 1231.98,887.644 1228.32,893.644 1224,898.5C 1223.14,900.087 1222.47,901.754 1222,903.5C 1219.19,904.916 1217.19,907.582 1216,911.5C 1215.67,911.167 1215.33,910.833 1215,910.5C 1211.68,915.331 1208.51,919.664 1205.5,923.5C 1204.17,923.833 1204.17,924.167 1205.5,924.5C 1204.36,925.474 1203.36,926.641 1202.5,928C 1203.34,929.666 1202.84,929.833 1201,928.5C 1200.73,930.101 1200.23,931.601 1199.5,933C 1199.83,933.333 1200.17,933.667 1200.5,934C 1192.69,941.806 1184.86,949.64 1177,957.5C 1176.67,958.5 1176.33,959.5 1176,960.5C 1167.9,968.105 1159.74,975.439 1151.5,982.5C 1150.83,982.5 1150.5,982.833 1150.5,983.5C 1149.28,984.731 1147.95,985.898 1146.5,987C 1146.83,987.333 1147.17,987.667 1147.5,988C 1141.08,992.376 1134.91,997.876 1129,1004.5C 1128.28,1003.55 1127.45,1003.38 1126.5,1004C 1118,1012.05 1109.17,1017.88 1100,1021.5C 1098.43,1022.61 1097.1,1023.95 1096,1025.5C 1095.67,1025.17 1095.33,1024.83 1095,1024.5C 1092.32,1026.59 1089.48,1028.25 1086.5,1029.5C 1082.29,1031.48 1077.95,1033.31 1073.5,1035C 1074.34,1036.67 1073.84,1036.83 1072,1035.5C 1070.32,1036.06 1068.99,1037.06 1068,1038.5C 1067.02,1037.23 1066.19,1037.23 1065.5,1038.5C 1054.45,1044.35 1042.79,1049.85 1030.5,1055C 1017.17,1058.83 1004.17,1063.33 991.5,1068.5C 990.914,1068.29 990.414,1067.96 990,1067.5C 986.925,1069.77 983.425,1070.94 979.5,1071C 985.748,1071.19 991.915,1071.69 998,1072.5C 1025.94,1071.8 1054.11,1071.3 1082.5,1071C 1085.67,1068.5 1088.83,1066 1092,1063.5C 1091.85,1062.18 1092.02,1061.01 1092.5,1060C 1094.58,1059.22 1096.42,1058.06 1098,1056.5C 1100.07,1058.45 1100.74,1060.79 1100,1063.5C 1098.26,1064.72 1097.26,1066.38 1097,1068.5C 1095.58,1069.46 1094.08,1070.29 1092.5,1071C 1098.22,1071.21 1103.88,1071.71 1109.5,1072.5C 1234.21,1072.12 1359.87,1071.79 1486.5,1071.5C 1516.03,1072.16 1545.53,1072.83 1575,1073.5C 1606.96,1072.34 1638.46,1072.18 1669.5,1073C 1670.67,1073.5 1671.5,1074.33 1672,1075.5C 1672.38,1087.34 1672.88,1099.17 1673.5,1111C 1673.48,1114.09 1673.14,1117.09 1672.5,1120C 1673.93,1123.49 1674.59,1127.16 1674.5,1131C 1673.71,1144.66 1672.71,1158.32 1671.5,1172C 1672.03,1193.7 1672.7,1216.03 1673.5,1239C 1672.81,1255.26 1672.48,1271.76 1672.5,1288.5C 1638.85,1289.34 1605.51,1289.67 1572.5,1289.5C 1569.22,1288.75 1565.89,1288.25 1562.5,1288C 1561.03,1287.36 1559.7,1286.53 1558.5,1285.5C 1557.77,1277.83 1557.1,1270.16 1556.5,1262.5C 1557.72,1254.11 1557.72,1245.94 1556.5,1238C 1557.13,1231.95 1557.79,1225.95 1558.5,1220C 1556.42,1217.35 1556.08,1214.51 1557.5,1211.5C 1556.96,1206.8 1556.3,1202.13 1555.5,1197.5C 1556.03,1196.81 1556.69,1196.31 1557.5,1196C 1557.11,1192.05 1554.94,1190.21 1551,1190.5C 1508.68,1191.57 1466.35,1191.57 1424,1190.5C 1404.86,1191.17 1385.7,1191.84 1366.5,1192.5C 1203.6,1192.8 1038.77,1192.47 872,1191.5C 828.549,1192.17 785.049,1192.84 741.5,1193.5C 724.814,1192.18 708.147,1192.18 691.5,1193.5C 688.593,1192.99 685.759,1192.32 683,1191.5C 663.435,1192.75 643.101,1192.75 622,1191.5C 612.53,1192.18 603.03,1192.85 593.5,1193.5C 582.48,1192.44 571.814,1192.44 561.5,1193.5C 558.792,1192.96 556.126,1192.29 553.5,1191.5C 483.911,1191.51 413.244,1192.18 341.5,1193.5C 336.635,1192.86 331.801,1192.19 327,1191.5C 316.883,1192.2 306.717,1192.87 296.5,1193.5C 263.186,1192.46 229.853,1192.46 196.5,1193.5C 196.808,1194.31 197.308,1194.97 198,1195.5C 198.186,1208.21 198.686,1220.88 199.5,1233.5C 198.711,1235.87 199.044,1238.2 200.5,1240.5C 199.848,1255.23 199.848,1269.89 200.5,1284.5C 200.023,1285.48 199.357,1286.31 198.5,1287C 194.112,1288.11 189.612,1288.61 185,1288.5C 158.305,1288.06 131.805,1288.06 105.5,1288.5C 97.4867,1287.83 89.4867,1287.17 81.5,1286.5C 81.384,1268.25 81.384,1250.59 81.5,1233.5C 80.9598,1232.25 80.2931,1231.09 79.5,1230C 80.2566,1227.06 80.9233,1224.06 81.5,1221C 80.7959,1214.82 80.7959,1208.82 81.5,1203C 79.5457,1192.09 78.879,1181.09 79.5,1170C 79.3307,1166.38 78.664,1162.88 77.5,1159.5C 78.4303,1157.9 78.4303,1156.4 77.5,1155C 78.1667,1154.67 78.8333,1154.33 79.5,1154C 79.4339,1151.89 79.1005,1149.72 78.5,1147.5C 80.3515,1141.5 80.3515,1135.33 78.5,1129C 79.6877,1112.57 79.6877,1096.23 78.5,1080C 79.2497,1076.84 79.9164,1073.67 80.5,1070.5C 258.336,1070.63 434.336,1070.96 608.5,1071.5C 608.335,1067.82 608.501,1064.15 609,1060.5C 610.858,1057.43 612.024,1054.1 612.5,1050.5C 614.927,1050.52 617.26,1051.02 619.5,1052C 618.743,1053.51 617.743,1054.85 616.5,1056C 615.978,1058.19 615.978,1060.52 616.5,1063C 615.426,1063.74 614.759,1064.74 614.5,1066C 615.615,1067.23 615.615,1068.4 614.5,1069.5C 615.729,1070.28 617.062,1070.78 618.5,1071C 664.047,1071.52 709.713,1071.52 755.5,1071C 743.602,1067.46 731.435,1063.63 719,1059.5C 705.737,1057.31 692.903,1053.81 680.5,1049C 677.978,1048.04 675.811,1046.54 674,1044.5C 673.667,1044.83 673.333,1045.17 673,1045.5C 671.128,1043.34 668.628,1041.17 665.5,1039C 664.552,1038.52 663.552,1038.35 662.5,1038.5C 659.246,1037.28 656.913,1035.62 655.5,1033.5C 653.955,1032.36 652.288,1031.36 650.5,1030.5C 650.158,1029.66 649.492,1029.33 648.5,1029.5C 642.545,1026.06 636.212,1023.06 629.5,1020.5C 628.335,1019.42 627.002,1018.58 625.5,1018C 625.833,1017.67 626.167,1017.33 626.5,1017C 618.515,1013.3 610.848,1008.47 603.5,1002.5C 588.886,994.581 576.053,985.581 565,975.5C 563.23,976.276 561.397,976.11 559.5,975C 555.761,971.383 551.928,967.883 548,964.5C 545.762,962.396 544.762,960.062 545,957.5C 543.5,956.667 542.333,955.5 541.5,954C 540.552,953.517 539.552,953.351 538.5,953.5C 538.716,951.319 537.883,949.653 536,948.5C 535.667,948.833 535.333,949.167 535,949.5C 525.525,939.674 517.525,928.674 511,916.5C 510.577,917.956 509.744,918.456 508.5,918C 506.915,915.931 505.581,913.764 504.5,911.5C 505.458,911.953 506.292,912.619 507,913.5C 505.45,905.229 501.783,897.896 496,891.5C 492.195,883.892 488.695,876.226 485.5,868.5C 484.833,867.833 484.167,867.167 483.5,866.5C 484.043,866.44 484.376,866.107 484.5,865.5C 482.836,862.518 481.503,859.518 480.5,856.5C 480.141,854.629 479.141,853.129 477.5,852C 477.833,851.667 478.167,851.333 478.5,851C 477.594,848.553 476.761,846.053 476,843.5C 474.334,844.34 474.167,843.84 475.5,842C 474.073,839.138 472.407,836.472 470.5,834C 470.957,833.586 471.291,833.086 471.5,832.5C 465.582,819.8 459.748,806.134 454,791.5C 448.983,793.429 443.817,795.095 438.5,796.5C 437.914,796.291 437.414,795.957 437,795.5C 402.564,805.024 372.231,797.357 346,772.5C 332.089,753.136 323.423,731.47 320,707.5C 319.036,696.818 318.203,686.151 317.5,675.5C 319.273,651.492 324.106,627.492 332,603.5C 338.186,590.638 346.019,578.805 355.5,568C 363.212,563.148 370.546,557.815 377.5,552C 393.782,542.91 411.116,539.41 429.5,541.5C 438.756,543.799 447.922,545.133 457,545.5C 458.473,545.903 459.806,546.57 461,547.5C 465.384,542.514 468.551,536.847 470.5,530.5C 471.338,530.158 471.672,529.492 471.5,528.5C 474.635,521.924 477.468,515.59 480,509.5C 480.333,509.833 480.667,510.167 481,510.5C 486.926,501.742 492.759,492.409 498.5,482.5C 499.086,482.709 499.586,483.043 500,483.5C 500.309,482.234 500.809,481.067 501.5,480C 501.167,479.667 500.833,479.333 500.5,479C 504.742,475.595 508.408,471.761 511.5,467.5C 512.457,464.72 513.624,462.053 515,459.5C 521.011,454.466 526.344,449.466 531,444.5C 531.333,444.833 531.667,445.167 532,445.5C 532.5,444.333 533.333,443.5 534.5,443C 533.549,442.282 533.383,441.449 534,440.5C 534.718,441.451 535.551,441.617 536.5,441C 538.167,438 540.5,435.667 543.5,434C 542.137,431.871 542.471,431.371 544.5,432.5C 545.23,431.066 546.23,429.9 547.5,429C 547.167,428.667 546.833,428.333 546.5,428C 548.087,427.138 549.754,426.471 551.5,426C 551.93,425.08 552.264,424.247 552.5,423.5C 553.086,423.709 553.586,424.043 554,424.5C 555.167,422.667 556.333,420.833 557.5,419C 561.148,416.644 564.815,414.311 568.5,412C 572.971,406.095 578.304,401.095 584.5,397C 584.167,396.667 583.833,396.333 583.5,396C 587.194,392.107 590.527,387.94 593.5,383.5C 596.074,378.386 598.074,372.386 599.5,365.5C 600.058,360.131 600.891,354.465 602,348.5C 602.121,340.708 602.288,333.208 602.5,326C 600.711,320.542 598.711,315.375 596.5,310.5C 594.058,310.646 593.391,309.813 594.5,308C 589.88,301.032 585.547,294.532 581.5,288.5C 561.374,267.171 540.208,247.837 518,230.5C 517.667,230.833 517.333,231.167 517,231.5C 515.812,230.437 515.312,229.103 515.5,227.5C 513.799,227.034 512.299,227.034 511,227.5C 509.378,225.094 507.211,223.261 504.5,222C 503.551,221.383 502.718,221.549 502,222.5C 501.626,221.584 501.126,220.75 500.5,220C 497.595,218.714 494.595,217.714 491.5,217C 491.833,216.667 492.167,216.333 492.5,216C 486.3,213.589 479.633,210.755 472.5,207.5C 471.914,207.709 471.414,208.043 471,208.5C 469.08,206.57 466.913,204.904 464.5,203.5C 463.914,203.709 463.414,204.043 463,204.5C 461.214,202.901 459.047,202.067 456.5,202C 453.872,199.939 453.205,197.439 454.5,194.5C 458.489,192.163 462.155,189.497 465.5,186.5C 466.492,186.672 467.158,186.338 467.5,185.5C 469.455,185.201 470.789,184.201 471.5,182.5C 474.556,181.028 477.556,179.361 480.5,177.5C 481.086,177.709 481.586,178.043 482,178.5C 487.053,176.371 492.553,174.537 498.5,173C 520.534,169.829 542.534,170.329 564.5,174.5C 565.607,173.978 566.774,173.645 568,173.5C 572.667,174.833 577.333,176.167 582,177.5C 583.107,177.415 584.107,177.081 585,176.5C 588.369,178.682 592.036,180.349 596,181.5C 596.333,181.167 596.667,180.833 597,180.5C 597.278,181.416 597.778,182.082 598.5,182.5C 611,187.477 623,192.143 634.5,196.5C 635.107,196.376 635.44,196.043 635.5,195.5C 646.029,199.68 657.696,203.514 670.5,207C 679.366,207.631 688.2,208.464 697,209.5C 705.479,207.255 713.979,205.089 722.5,203C 724.307,202.072 725.974,200.906 727.5,199.5C 728.086,199.709 728.586,200.043 729,200.5C 739.549,195.288 749.382,190.622 758.5,186.5C 759.492,186.672 760.158,186.338 760.5,185.5C 763.031,183.845 765.364,182.512 767.5,181.5C 771.216,179.526 774.549,177.859 777.5,176.5C 788.947,171.304 801.28,167.471 814.5,165C 833.5,164.333 852.5,164.333 871.5,165C 883.163,165.749 894.496,168.083 905.5,172C 915.793,177.035 926.126,181.535 936.5,185.5 Z M 994.5,221.5 C 997.059,221.198 999.393,221.532 1001.5,222.5C 1014.78,225.076 1028.11,225.076 1041.5,222.5C 1046.11,222.106 1050.77,220.773 1055.5,218.5C 1056.54,217.209 1057.71,217.209 1059,218.5C 1059.32,216.431 1060.16,216.098 1061.5,217.5C 1062.7,217.154 1062.7,216.654 1061.5,216C 1065.72,215.28 1069.72,213.947 1073.5,212C 1078.16,211.448 1082.66,210.282 1087,208.5C 1089.37,209.938 1089.87,209.438 1088.5,207C 1109.48,199.022 1130.81,191.855 1152.5,185.5C 1162.78,183.924 1173.11,182.924 1183.5,182.5C 1194.72,183.288 1205.72,184.122 1216.5,185C 1222.1,186.013 1227.27,187.846 1232,190.5C 1232.33,190.167 1232.67,189.833 1233,189.5C 1238.31,192.39 1243.81,194.89 1249.5,197C 1247.41,198.675 1245.24,199.175 1243,198.5C 1240.38,200.984 1237.38,202.984 1234,204.5C 1233.23,204.355 1232.56,204.022 1232,203.5C 1231.61,204.428 1230.95,205.095 1230,205.5C 1208.74,212.055 1189.57,221.389 1172.5,233.5C 1171.56,234.974 1170.23,235.974 1168.5,236.5C 1167.92,235.453 1167.26,235.62 1166.5,237C 1166.73,237.399 1167.06,237.565 1167.5,237.5C 1166.79,238.404 1165.79,238.737 1164.5,238.5C 1164.47,241.656 1162.8,243.322 1159.5,243.5C 1157.48,245.35 1155.65,247.35 1154,249.5C 1153.09,248.346 1152.25,248.513 1151.5,250C 1151.83,250.333 1152.17,250.667 1152.5,251C 1142.92,258.438 1133.92,265.772 1125.5,273C 1125.83,273.333 1126.17,273.667 1126.5,274C 1124.96,275.878 1123.12,277.378 1121,278.5C 1120.67,279.833 1120.33,281.167 1120,282.5C 1119.67,282.167 1119.33,281.833 1119,281.5C 1118.51,282.793 1118.34,284.127 1118.5,285.5C 1117.45,285.351 1116.45,285.517 1115.5,286C 1116.63,287.016 1116.3,287.683 1114.5,288C 1114.83,288.333 1115.17,288.667 1115.5,289C 1114.92,290.302 1114.25,291.469 1113.5,292.5C 1113.67,293.492 1113.34,294.158 1112.5,294.5C 1110.53,298.426 1108.86,302.426 1107.5,306.5C 1105.89,312.418 1103.89,318.252 1101.5,324C 1101.83,324.333 1102.17,324.667 1102.5,325C 1101.83,329.333 1101.17,333.667 1100.5,338C 1103.09,344.807 1105.42,351.973 1107.5,359.5C 1108.87,362.889 1110.53,366.223 1112.5,369.5C 1111.1,370.842 1111.43,371.676 1113.5,372C 1113.17,372.333 1112.83,372.667 1112.5,373C 1115.56,373.988 1116.73,375.821 1116,378.5C 1116.67,379.833 1117.33,379.833 1118,378.5C 1122.41,384.373 1127.07,390.04 1132,395.5C 1135.98,398.152 1139.65,401.152 1143,404.5C 1150.63,413.507 1158.47,422.174 1166.5,430.5C 1166.54,432.745 1167.37,433.412 1169,432.5C 1169.83,433.333 1170.67,434.167 1171.5,435C 1170.14,437.129 1170.47,437.629 1172.5,436.5C 1175.19,439.354 1177.69,442.354 1180,445.5C 1182.32,446.231 1184.48,447.898 1186.5,450.5C 1189.87,454.879 1192.87,459.545 1195.5,464.5C 1196.69,463.347 1197.69,463.347 1198.5,464.5C 1203.17,471.605 1208.17,478.938 1213.5,486.5C 1214.83,487.5 1216.17,488.5 1217.5,489.5C 1218.62,493.568 1220.29,497.234 1222.5,500.5C 1224.13,503.141 1225.79,505.808 1227.5,508.5C 1228.31,510.22 1229.31,511.887 1230.5,513.5C 1231.98,516.583 1233.64,519.583 1235.5,522.5C 1234.17,522.833 1234.17,523.167 1235.5,523.5C 1236.43,524.315 1237.43,525.148 1238.5,526C 1238.5,527 1238.5,528 1238.5,529C 1240.68,529.442 1241.35,530.442 1240.5,532C 1244.66,537.264 1246.99,542.931 1247.5,549C 1252.2,556.899 1255.36,565.399 1257,574.5C 1257.33,574.167 1257.67,573.833 1258,573.5C 1258.76,578.253 1259.76,583.253 1261,588.5C 1263.99,597.496 1266.99,606.496 1270,615.5C 1274.22,642.473 1277.72,669.306 1280.5,696C 1279.49,713.401 1277.65,730.567 1275,747.5C 1273.34,749.146 1272.51,751.146 1272.5,753.5C 1272.56,765.606 1270.23,777.273 1265.5,788.5C 1265.93,789.293 1266.26,790.127 1266.5,791C 1262.48,803.244 1258.48,815.077 1254.5,826.5C 1252.88,830.267 1250.71,833.6 1248,836.5C 1246.25,839.246 1245.25,842.246 1245,845.5C 1241.26,849.831 1238.09,854.331 1235.5,859C 1235.83,859.333 1236.17,859.667 1236.5,860C 1234.32,860.442 1233.65,861.442 1234.5,863C 1231.94,867.795 1229.61,872.628 1227.5,877.5C 1226.87,880.643 1225.2,883.143 1222.5,885C 1223.71,886.107 1223.38,886.607 1221.5,886.5C 1216.84,892.361 1212.67,898.694 1209,905.5C 1202.56,911.016 1197.56,917.683 1194,925.5C 1192.6,927.07 1191.1,928.404 1189.5,929.5C 1190.09,931.685 1189.09,933.352 1186.5,934.5C 1186.57,934.062 1186.4,933.728 1186,933.5C 1185.17,934.333 1184.33,935.167 1183.5,936C 1183.73,936.399 1184.06,936.565 1184.5,936.5C 1183.44,937.784 1182.44,939.117 1181.5,940.5C 1180.92,939.453 1180.26,939.62 1179.5,941C 1179.73,941.399 1180.06,941.565 1180.5,941.5C 1179.55,944.115 1177.88,946.115 1175.5,947.5C 1174.92,946.453 1174.26,946.62 1173.5,948C 1173.73,948.399 1174.06,948.565 1174.5,948.5C 1171.34,950.548 1168.68,953.714 1166.5,958C 1165.5,958.333 1164.5,958.667 1163.5,959C 1154.97,966.909 1146.97,975.243 1139.5,984C 1136.64,985.832 1134.14,987.999 1132,990.5C 1131.28,989.549 1130.45,989.383 1129.5,990C 1128.17,990.667 1128.17,991.333 1129.5,992C 1128.38,993.044 1127.04,993.71 1125.5,994C 1125.83,994.333 1126.17,994.667 1126.5,995C 1122.38,996.189 1118.72,998.022 1115.5,1000.5C 1115.03,1001.91 1114.03,1002.57 1112.5,1002.5C 1109.81,1004.53 1107.31,1006.86 1105,1009.5C 1104.33,1008.83 1103.67,1008.17 1103,1007.5C 1101.3,1009.37 1099.46,1011.04 1097.5,1012.5C 1073.98,1025 1049.65,1036.16 1024.5,1046C 1024.83,1046.33 1025.17,1046.67 1025.5,1047C 1013.51,1050.85 1002.18,1054.35 991.5,1057.5C 990.458,1058.79 989.292,1058.79 988,1057.5C 987.308,1058.03 986.808,1058.69 986.5,1059.5C 980.579,1060.38 975.246,1061.88 970.5,1064C 958.313,1066.64 946.147,1069.14 934,1071.5C 891.527,1071.67 848.86,1071.67 806,1071.5C 798.194,1070.46 790.36,1069.29 782.5,1068C 783.696,1067.35 783.696,1066.85 782.5,1066.5C 777.445,1067.03 772.611,1066.03 768,1063.5C 764.603,1064.85 761.436,1064.51 758.5,1062.5C 754.909,1062.06 751.576,1061.06 748.5,1059.5C 747.209,1059.74 746.209,1059.4 745.5,1058.5C 741.981,1057.65 738.648,1056.32 735.5,1054.5C 734.833,1054.83 734.167,1055.17 733.5,1055.5C 724.453,1051.97 715.453,1049.47 706.5,1048C 696.643,1045.03 687.643,1041.7 679.5,1038C 664.803,1028.02 649.469,1019.85 633.5,1013.5C 631.946,1011.91 630.279,1010.57 628.5,1009.5C 626.185,1007.86 623.851,1006.19 621.5,1004.5C 620.47,1002.96 618.47,1001.79 615.5,1001C 616.34,999.334 615.84,999.167 614,1000.5C 611.117,998.479 608.95,996.479 607.5,994.5C 607.167,993.167 606.833,993.167 606.5,994.5C 595.966,986.477 584.966,978.31 573.5,970C 572.299,969.097 571.465,967.931 571,966.5C 570.667,966.833 570.333,967.167 570,967.5C 568.684,966.026 567.684,964.359 567,962.5C 566,962.5 565,962.5 564,962.5C 563.293,960.919 562.46,959.419 561.5,958C 560.551,957.383 559.718,957.549 559,958.5C 558.167,957 557,955.833 555.5,955C 555.833,954.667 556.167,954.333 556.5,954C 535.87,938.348 520.37,918.515 510,894.5C 509.667,894.833 509.333,895.167 509,895.5C 508.392,893.846 507.892,892.179 507.5,890.5C 505.125,887.047 503.125,883.38 501.5,879.5C 500.207,877.192 498.874,874.858 497.5,872.5C 494.929,866.8 492.262,860.633 489.5,854C 489.833,853.667 490.167,853.333 490.5,853C 488.321,852.558 487.655,851.558 488.5,850C 486.059,845.62 483.726,841.12 481.5,836.5C 481.709,835.914 482.043,835.414 482.5,835C 477.172,823.023 471.839,811.023 466.5,799C 467.314,795.578 466.314,792.578 463.5,790C 463.957,789.586 464.291,789.086 464.5,788.5C 462.536,785.982 461.87,783.316 462.5,780.5C 462.154,779.304 461.654,779.304 461,780.5C 460.349,778.765 460.515,777.098 461.5,775.5C 461.154,774.304 460.654,774.304 460,775.5C 460.096,773.619 459.929,771.953 459.5,770.5C 458.376,766.217 457.376,761.884 456.5,757.5C 455.193,755.777 455.193,753.943 456.5,752C 454.408,751.047 454.075,749.714 455.5,748C 454.504,744.367 453.504,740.701 452.5,737C 454.141,735.354 453.807,734.354 451.5,734C 452.784,732.703 452.617,731.536 451,730.5C 450.188,719.525 448.688,708.691 446.5,698C 446.256,693.45 446.589,688.783 447.5,684C 445.177,681.494 444.844,678.66 446.5,675.5C 445.519,667.909 444.853,660.409 444.5,653C 444.861,650.551 445.528,648.218 446.5,646C 445.009,643.978 445.342,642.312 447.5,641C 446.79,638.582 446.79,636.082 447.5,633.5C 450.143,614.626 454.143,596.292 459.5,578.5C 460.833,578.167 460.833,577.833 459.5,577.5C 459.796,575.597 460.463,573.93 461.5,572.5C 461.989,571.005 462.655,569.671 463.5,568.5C 470.329,555.431 476.829,541.431 483,526.5C 490.016,514.705 497.349,502.705 505,490.5C 505.333,490.833 505.667,491.167 506,491.5C 507.662,486.846 510.329,482.846 514,479.5C 514.483,478.552 514.649,477.552 514.5,476.5C 515.5,476.5 516.5,476.5 517.5,476.5C 518.04,473.255 519.706,470.755 522.5,469C 522.167,468.667 521.833,468.333 521.5,468C 522.731,466.595 524.064,465.429 525.5,464.5C 536.52,453.987 547.853,442.821 559.5,431C 560.448,430.517 561.448,430.351 562.5,430.5C 565.056,424.117 569.723,419.95 576.5,418C 582.082,413.593 587.749,409.426 593.5,405.5C 594.708,402.081 596.208,398.747 598,395.5C 598.333,395.833 598.667,396.167 599,396.5C 599.782,393.924 601.282,391.924 603.5,390.5C 603.291,389.914 602.957,389.414 602.5,389C 604.361,386.126 606.361,383.293 608.5,380.5C 607.973,376.101 608.973,371.935 611.5,368C 610.941,367.275 610.608,366.442 610.5,365.5C 615.472,348.534 615.305,331.201 610,313.5C 602.412,299.441 593.412,285.774 583,272.5C 582.667,272.833 582.333,273.167 582,273.5C 574.596,266.218 567.096,259.051 559.5,252C 558.552,251.517 557.552,251.351 556.5,251.5C 556.439,249.408 555.439,247.908 553.5,247C 554.34,245.334 553.84,245.167 552,246.5C 551.333,244.5 550,243.167 548,242.5C 547.517,241.552 547.351,240.552 547.5,239.5C 546.167,239.5 544.833,239.5 543.5,239.5C 543.719,238.325 543.386,237.325 542.5,236.5C 536.226,232.471 530.06,227.471 524,221.5C 523.586,221.957 523.086,222.291 522.5,222.5C 520.96,220.563 518.96,219.396 516.5,219C 516.833,218.667 517.167,218.333 517.5,218C 502.553,210.285 487.053,203.451 471,197.5C 470.333,196.5 470.333,195.5 471,194.5C 473.074,192.548 475.241,190.715 477.5,189C 486.47,185.674 495.636,183.174 505,181.5C 508.684,181.494 512.35,181.494 516,181.5C 522.511,179.669 529.177,179.669 536,181.5C 536.873,181.265 537.707,180.931 538.5,180.5C 548.089,182.14 557.756,183.306 567.5,184C 573.544,184.873 579.378,186.373 585,188.5C 585.333,188.167 585.667,187.833 586,187.5C 590.785,190.461 595.618,192.461 600.5,193.5C 608.033,196.171 615.199,199.505 622,203.5C 623.388,202.446 624.888,202.28 626.5,203C 626.167,203.333 625.833,203.667 625.5,204C 634.215,205.46 642.382,208.293 650,212.5C 650.561,211.978 651.228,211.645 652,211.5C 662.456,215.578 673.29,217.911 684.5,218.5C 685.566,217.308 686.399,217.641 687,219.5C 692.308,218.584 697.642,217.584 703,216.5C 703.772,216.645 704.439,216.978 705,217.5C 707.482,215.922 710.149,214.589 713,213.5C 714.399,213.501 715.899,213.835 717.5,214.5C 717.109,213.282 717.776,212.448 719.5,212C 732.156,210.23 743.656,205.73 754,198.5C 754.333,198.833 754.667,199.167 755,199.5C 767.576,192.592 780.576,186.592 794,181.5C 794.333,181.833 794.667,182.167 795,182.5C 805.752,178.372 816.752,176.372 828,176.5C 842.514,174.562 856.848,173.895 871,174.5C 872.555,176.146 874.221,176.479 876,175.5C 876.853,177.125 877.853,177.458 879,176.5C 890.429,180.002 901.763,184.002 913,188.5C 914.221,189.272 915.221,190.272 916,191.5C 916.414,191.043 916.914,190.709 917.5,190.5C 926.836,193.75 935.836,197.75 944.5,202.5C 945.831,206.022 947.664,206.355 950,203.5C 955.874,206.206 961.374,209.539 966.5,213.5C 967.293,213.069 968.127,212.735 969,212.5C 971.938,214.402 974.938,216.069 978,217.5C 978.414,217.043 978.914,216.709 979.5,216.5C 984.465,219.3 989.465,220.967 994.5,221.5 Z M 415.5,549.5 C 428.932,551.634 442.265,553.134 455.5,554C 458.766,554.813 459.266,556.646 457,559.5C 454.689,564.771 452.189,569.937 449.5,575C 440.369,574.101 431.369,573.268 422.5,572.5C 414.129,573.755 405.795,575.255 397.5,577C 393.31,580.018 388.976,582.852 384.5,585.5C 367.722,603.54 357.722,624.373 354.5,648C 352.277,659.038 350.944,670.205 350.5,681.5C 350.583,693.775 352.416,706.108 356,718.5C 369.046,749.62 392.546,764.453 426.5,763C 431.048,762.193 435.382,760.86 439.5,759C 441.833,758.333 444.167,758.333 446.5,759C 447.595,764.128 448.595,769.294 449.5,774.5C 444.658,776.175 439.991,778.342 435.5,781C 440.685,784.157 445.519,783.99 450,780.5C 451.489,781.424 451.656,782.424 450.5,783.5C 443.026,785.46 435.526,787.126 428,788.5C 419.273,787.571 410.607,787.571 402,788.5C 396.966,786.568 391.799,785.068 386.5,784C 375.034,779.535 364.868,773.035 356,764.5C 352.667,759.833 349.333,755.167 346,750.5C 329.82,718.734 324.487,685.068 330,649.5C 332.565,639.203 334.898,628.537 337,617.5C 342.137,602.388 349.97,588.888 360.5,577C 370.984,568.922 381.984,561.589 393.5,555C 400.781,552.472 408.114,550.639 415.5,549.5 Z M 1262.5,558.5 C 1262.5,557.5 1262.5,556.5 1262.5,555.5C 1277.09,553.69 1291.76,552.023 1306.5,550.5C 1319.64,552.366 1331.97,556.533 1343.5,563C 1349.88,568.385 1356.55,573.385 1363.5,578C 1379.87,598.701 1389.2,622.034 1391.5,648C 1391.63,649.059 1392.13,649.892 1393,650.5C 1395.24,663.472 1395.41,676.305 1393.5,689C 1393.48,691.606 1393.81,694.273 1394.5,697C 1391.86,709.53 1388.69,722.03 1385,734.5C 1381.32,742.232 1377.65,749.899 1374,757.5C 1370.42,762.8 1366.26,767.633 1361.5,772C 1349.19,780.548 1335.69,786.381 1321,789.5C 1312.75,788.78 1304.41,788.78 1296,789.5C 1290.29,787.974 1284.45,786.807 1278.5,786C 1281.68,784.367 1285.01,783.034 1288.5,782C 1285.53,780.516 1282.53,779.016 1279.5,777.5C 1278.39,776.277 1278.22,774.944 1279,773.5C 1279.33,773.833 1279.67,774.167 1280,774.5C 1281.01,769.458 1282.18,764.458 1283.5,759.5C 1289.55,762.176 1295.88,763.842 1302.5,764.5C 1343.28,761.889 1366.61,740.389 1372.5,700C 1372.36,699.228 1372.02,698.561 1371.5,698C 1372.39,695.932 1373.06,693.765 1373.5,691.5C 1373.47,688.538 1373.47,685.538 1373.5,682.5C 1373.06,671.205 1371.72,660.038 1369.5,649C 1366.35,625.849 1356.68,605.349 1340.5,587.5C 1337.59,585.644 1334.59,583.977 1331.5,582.5C 1330.61,581.675 1330.28,580.675 1330.5,579.5C 1315.28,574.626 1299.95,573.126 1284.5,575C 1279.06,575.86 1273.73,577.027 1268.5,578.5C 1268.64,575.678 1267.81,573.345 1266,571.5C 1264.6,566.877 1263.44,562.543 1262.5,558.5 Z M 421.5,582.5 C 429.997,582.845 438.663,583.512 447.5,584.5C 445.799,592.516 443.799,600.183 441.5,607.5C 440.527,618.453 438.694,629.453 436,640.5C 435.833,647.833 435.667,655.167 435.5,662.5C 434.932,688.312 437.599,714.145 443.5,740C 443.415,741.107 443.081,742.107 442.5,743C 444.56,744.493 444.893,746.326 443.5,748.5C 442.707,748.069 441.873,747.735 441,747.5C 433.063,749.221 425.229,750.221 417.5,750.5C 414.29,748.524 410.957,747.858 407.5,748.5C 394.921,746.628 384.421,740.961 376,731.5C 368.458,721.349 363.625,710.016 361.5,697.5C 361.931,696.707 362.265,695.873 362.5,695C 357.745,664.357 362.912,635.524 378,608.5C 382.779,601.388 388.279,594.888 394.5,589C 398.558,586.523 402.725,585.356 407,585.5C 411.885,584.245 416.718,583.245 421.5,582.5 Z M 1274.5,601.5 C 1273.81,597.917 1272.81,594.417 1271.5,591C 1271.7,588.463 1273.03,586.796 1275.5,586C 1283.65,584.714 1291.65,583.881 1299.5,583.5C 1307.94,584.422 1316.28,585.922 1324.5,588C 1339.85,598.377 1350.35,612.544 1356,630.5C 1364.73,657.709 1365.73,685.042 1359,712.5C 1355.22,723.715 1348.72,733.049 1339.5,740.5C 1336.01,742.079 1332.67,743.913 1329.5,746C 1324.9,746.918 1320.4,748.084 1316,749.5C 1312.66,748.801 1309.5,749.468 1306.5,751.5C 1299.34,751.331 1291.84,750.331 1284,748.5C 1284.46,739.656 1285.96,730.656 1288.5,721.5C 1287.27,707.287 1287.27,693.287 1288.5,679.5C 1286.62,667.287 1284.62,655.12 1282.5,643C 1282.19,638.392 1282.19,633.725 1282.5,629C 1279.22,619.098 1276.55,609.931 1274.5,601.5 Z M 1658.5,1080.5 C 1659.15,1080.8 1659.82,1081.14 1660.5,1081.5C 1661.18,1088.06 1661.85,1094.56 1662.5,1101C 1661.42,1149.72 1661.42,1197.89 1662.5,1245.5C 1661.5,1256.12 1660.84,1266.79 1660.5,1277.5C 1648.98,1277.77 1637.81,1277.43 1627,1276.5C 1622.02,1278.34 1616.86,1278.34 1611.5,1276.5C 1598.45,1277.24 1585.61,1277.91 1573,1278.5C 1573.38,1248.21 1573.88,1217.55 1574.5,1186.5C 1569.97,1186.3 1565.64,1185.3 1561.5,1183.5C 1560.11,1183.62 1558.77,1183.95 1557.5,1184.5C 1526.83,1183.83 1496.17,1183.17 1465.5,1182.5C 1384.78,1182.8 1303.28,1183.14 1221,1183.5C 1195.2,1182.83 1169.36,1182.16 1143.5,1181.5C 1000.29,1181.85 856.956,1181.85 713.5,1181.5C 694.487,1182.08 675.987,1182.75 658,1183.5C 654.2,1182.8 650.367,1182.13 646.5,1181.5C 617.626,1182.68 588.793,1182.68 560,1181.5C 557.432,1181.93 554.932,1182.6 552.5,1183.5C 540.167,1182.83 527.833,1182.17 515.5,1181.5C 410.924,1182 305.091,1182 198,1181.5C 192.037,1180.87 187.204,1182.87 183.5,1187.5C 184.361,1193.89 184.361,1200.22 183.5,1206.5C 184.997,1214.13 185.331,1221.8 184.5,1229.5C 185.023,1236.4 185.69,1243.23 186.5,1250C 186.478,1254.25 186.145,1258.41 185.5,1262.5C 186.04,1263.75 186.707,1264.91 187.5,1266C 187.603,1270.15 187.603,1274.32 187.5,1278.5C 167.719,1278.42 148.219,1278.09 129,1277.5C 124.333,1278.17 119.667,1278.83 115,1279.5C 109.623,1278.79 103.789,1278.46 97.5,1278.5C 96.5,1279.17 95.5,1279.83 94.5,1280.5C 93.8016,1273.14 93.1349,1265.81 92.5,1258.5C 93.0808,1248.7 93.4141,1239.04 93.5,1229.5C 92.711,1225.02 92.0443,1220.52 91.5,1216C 91.2661,1199.54 91.2661,1183.21 91.5,1167C 90.8333,1163 90.1667,1159 89.5,1155C 90.2531,1147.56 90.9198,1140.06 91.5,1132.5C 90.5401,1129.56 90.2067,1126.73 90.5,1124C 90.9551,1121.69 91.9551,1119.69 93.5,1118C 93.3157,1115.06 93.3157,1112.06 93.5,1109C 93.0809,1102.44 91.7476,1096.1 89.5,1090C 89.7885,1087.81 90.1218,1085.65 90.5,1083.5C 464.663,1083.35 837.996,1083.35 1210.5,1083.5C 1214.03,1082.87 1217.53,1082.2 1221,1081.5C 1342.23,1082.18 1461.89,1082.51 1580,1082.5C 1606.31,1081.85 1632.47,1081.18 1658.5,1080.5 Z"/></g>
<g><path style="opacity:0.004" fill="#000000" d="M 777.5,176.5 C 776.833,175.167 776.833,175.167 777.5,176.5 Z"/></g>
<g><path style="opacity:0.004" fill="#000000" d="M 919.5,176.5 C 920.833,177.167 920.833,177.167 919.5,176.5 Z"/></g>
<g><path style="opacity:0.004" fill="#000000" d="M 767.5,181.5 C 766.833,180.167 766.833,180.167 767.5,181.5 Z"/></g>
<g><path style="opacity:0.004" fill="#000000" d="M 928.5,180.5 C 929.833,181.167 929.833,181.167 928.5,180.5 Z"/></g>
<g><path style="opacity:0.008" fill="#000000" d="M 471.5,182.5 C 470.833,181.167 470.833,181.167 471.5,182.5 Z"/></g>
<g><path style="opacity:0.004" fill="#000000" d="M 598.5,181.5 C 599.833,182.167 599.833,182.167 598.5,181.5 Z"/></g>
<g><path style="opacity:0.004" fill="#000000" d="M 467.5,185.5 C 466.833,184.167 466.833,184.167 467.5,185.5 Z"/></g>
<g><path style="opacity:0.004" fill="#000000" d="M 760.5,185.5 C 759.833,184.167 759.833,184.167 760.5,185.5 Z"/></g>
<g><path style="opacity:0.004" fill="#000000" d="M 936.5,184.5 C 937.833,185.167 937.833,185.167 936.5,184.5 Z"/></g>
<g><path style="opacity:0.004" fill="#000000" d="M 465.5,186.5 C 464.833,185.167 464.833,185.167 465.5,186.5 Z"/></g>
<g><path style="opacity:0.004" fill="#000000" d="M 758.5,186.5 C 757.833,185.167 757.833,185.167 758.5,186.5 Z"/></g>
<g><path style="opacity:0.004" fill="#000000" d="M 1114.5,185.5 C 1115.83,186.167 1115.83,186.167 1114.5,185.5 Z"/></g>
<g><path style="opacity:0.004" fill="#000000" d="M 1112.5,187.5 C 1111.83,186.167 1111.83,186.167 1112.5,187.5 Z"/></g>
<g><path style="opacity:0.004" fill="#000000" d="M 1102.5,190.5 C 1101.83,189.167 1101.83,189.167 1102.5,190.5 Z"/></g>
<g><path style="opacity:0.004" fill="#000000" d="M 635.5,195.5 C 634.833,194.167 634.833,194.167 635.5,195.5 Z"/></g>
<g><path style="opacity:0.004" fill="#000000" d="M 474.5,209.5 C 475.833,210.167 475.833,210.167 474.5,209.5 Z"/></g>
<g><path style="opacity:0.004" fill="#000000" d="M 1225.5,217.5 C 1226.83,218.167 1226.83,218.167 1225.5,217.5 Z"/></g>
<g><path style="opacity:0.004" fill="#000000" d="M 1222.5,218.5 C 1221.83,219.167 1221.83,219.167 1222.5,218.5 Z"/></g>
<g><path style="opacity:0.004" fill="#000000" d="M 1215.5,221.5 C 1216.83,222.167 1216.83,222.167 1215.5,221.5 Z"/></g>
<g><path style="opacity:0.004" fill="#000000" d="M 1206.5,225.5 C 1207.83,226.167 1207.83,226.167 1206.5,225.5 Z"/></g>
<g><path style="opacity:0.004" fill="#000000" d="M 1198.5,229.5 C 1199.83,230.167 1199.83,230.167 1198.5,229.5 Z"/></g>
<g><path style="opacity:0.004" fill="#000000" d="M 581.5,288.5 C 580.833,289.167 580.833,289.167 581.5,288.5 Z"/></g>
<g><path style="opacity:0.004" fill="#000000" d="M 599.5,365.5 C 598.833,364.167 598.833,364.167 599.5,365.5 Z"/></g>
<g><path style="opacity:0.008" fill="#000000" d="M 1159.5,409.5 C 1160.83,410.167 1160.83,410.167 1159.5,409.5 Z"/></g>
<g><path style="opacity:0.004" fill="#000000" d="M 538.5,410.5 C 539.833,411.167 539.833,411.167 538.5,410.5 Z"/></g>
<g><path style="opacity:0.004" fill="#000000" d="M 538.5,411.5 C 537.768,415.019 536.435,418.352 534.5,421.5C 534.709,422.086 535.043,422.586 535.5,423C 516.311,441.678 499.978,462.511 486.5,485.5C 484.684,486.815 483.017,488.315 481.5,490C 480.833,490.667 480.167,490.667 479.5,490C 482.875,483.811 485.375,477.645 487,471.5C 500.449,448.841 517.616,428.841 538.5,411.5 Z"/></g>
<g><path style="opacity:0.004" fill="#000000" d="M 1193.5,438.5 C 1196.25,440.113 1199.25,441.28 1202.5,442C 1216.05,454.858 1227.22,469.358 1236,485.5C 1235.96,488.804 1235.63,492.137 1235,495.5C 1232.59,492.185 1230.92,488.518 1230,484.5C 1219.43,469.599 1207.77,455.599 1195,442.5C 1194.21,441.255 1193.71,439.922 1193.5,438.5 Z"/></g>
<g><path style="opacity:0.008" fill="#000000" d="M 1212.5,469.5 C 1213.83,470.167 1213.83,470.167 1212.5,469.5 Z"/></g>
<g><path style="opacity:0.004" fill="#000000" d="M 1215.5,473.5 C 1216.83,474.167 1216.83,474.167 1215.5,473.5 Z"/></g>
<g><path style="opacity:0.004" fill="#000000" d="M 1220.5,480.5 C 1221.83,481.167 1221.83,481.167 1220.5,480.5 Z"/></g>
<g><path style="opacity:0.008" fill="#000000" d="M 471.5,528.5 C 470.833,527.167 470.833,527.167 471.5,528.5 Z"/></g>
<g><path style="opacity:0.004" fill="#000000" d="M 470.5,530.5 C 469.833,529.167 469.833,529.167 470.5,530.5 Z"/></g>
<g><path style="opacity:0.004" fill="#000000" d="M 428.5,629.5 C 429.586,629.62 430.253,630.287 430.5,631.5C 429.751,633.241 429.417,634.908 429.5,636.5C 428.713,635.758 428.047,634.925 427.5,634C 428.38,632.644 428.714,631.144 428.5,629.5 Z"/></g>
<g><path style="opacity:0.004" fill="#000000" d="M 427.5,638.5 C 428.289,638.783 428.956,639.283 429.5,640C 428.184,640.528 427.517,640.028 427.5,638.5 Z"/></g>
<g><path style="opacity:0.004" fill="#000000" d="M 1272.5,802.5 C 1273.83,803.167 1273.83,803.167 1272.5,802.5 Z"/></g>
<g><path style="opacity:0.004" fill="#000000" d="M 1271.5,806.5 C 1272.83,807.167 1272.83,807.167 1271.5,806.5 Z"/></g>
<g><path style="opacity:0.004" fill="#000000" d="M 1262.5,828.5 C 1263.83,829.167 1263.83,829.167 1262.5,828.5 Z"/></g>
<g><path style="opacity:0.004" fill="#000000" d="M 480.5,856.5 C 479.833,857.167 479.833,857.167 480.5,856.5 Z"/></g>
<g><path style="opacity:0.004" fill="#000000" d="M 483.5,866.5 C 482.833,865.167 482.833,865.167 483.5,866.5 Z"/></g>
<g><path style="opacity:0.004" fill="#000000" d="M 485.5,868.5 C 484.833,869.167 484.833,869.167 485.5,868.5 Z"/></g>
<g><path style="opacity:0.004" fill="#000000" d="M 504.5,911.5 C 503.833,910.167 503.833,910.167 504.5,911.5 Z"/></g>
<g><path style="opacity:0.004" fill="#000000" d="M 510.5,919.5 C 511.833,920.167 511.833,920.167 510.5,919.5 Z"/></g>
<g><path style="opacity:0.004" fill="#000000" d="M 1205.5,923.5 C 1206.83,924.167 1206.83,924.167 1205.5,923.5 Z"/></g>
<g><path style="opacity:0.004" fill="#000000" d="M 1307.5,954.5 C 1310,955.084 1312.5,955.751 1315,956.5C 1316.26,956.241 1317.26,955.574 1318,954.5C 1318.8,955.804 1319.97,956.471 1321.5,956.5C 1325.17,955.167 1328.83,955.167 1332.5,956.5C 1335.41,955.99 1338.24,955.323 1341,954.5C 1346.16,955.444 1351.32,956.444 1356.5,957.5C 1360.14,955.445 1363.81,955.611 1367.5,958C 1364.54,961.417 1362.21,965.25 1360.5,969.5C 1359.67,970.415 1358.67,971.081 1357.5,971.5C 1352.17,971.5 1346.83,971.5 1341.5,971.5C 1340.67,970.585 1339.67,969.919 1338.5,969.5C 1328.33,970.821 1318.16,970.821 1308,969.5C 1302.29,970.123 1296.62,970.79 1291,971.5C 1289.27,970.751 1287.43,970.251 1285.5,970C 1289.17,965.667 1292.83,961.333 1296.5,957C 1300.28,956.082 1303.95,955.249 1307.5,954.5 Z"/></g>
<g><path style="opacity:0.005" fill="#000000" d="M 1215.5,955.5 C 1216.04,955.56 1216.38,955.893 1216.5,956.5C 1214.14,959.022 1211.98,961.688 1210,964.5C 1209.33,965.5 1209.33,966.5 1210,967.5C 1212.8,963.701 1215.96,960.201 1219.5,957C 1221.44,956.187 1223.44,955.687 1225.5,955.5C 1225.66,956.873 1225.49,958.207 1225,959.5C 1221.76,962.983 1218.76,966.65 1216,970.5C 1213.67,971.5 1211.33,972.5 1209,973.5C 1208.17,972.5 1207.33,971.5 1206.5,970.5C 1202.4,971.767 1198.24,972.767 1194,973.5C 1192.94,973.37 1192.11,972.87 1191.5,972C 1196.17,967.333 1200.83,962.667 1205.5,958C 1209.09,957.689 1212.42,956.856 1215.5,955.5 Z"/></g>
<g><path style="opacity:0.004" fill="#000000" d="M 1553.5,970.5 C 1549.24,972.269 1544.91,972.602 1540.5,971.5C 1539.25,972.04 1538.09,972.707 1537,973.5C 1531.02,972.524 1525.02,972.524 1519,973.5C 1517.52,971.219 1515.85,971.219 1514,973.5C 1513.61,972.572 1512.95,971.905 1512,971.5C 1494.71,972.509 1477.71,972.509 1461,971.5C 1457.94,972.077 1454.94,972.743 1452,973.5C 1451.33,972.833 1450.67,972.167 1450,971.5C 1442.33,971.841 1434.49,972.175 1426.5,972.5C 1421.75,971.993 1417.08,971.16 1412.5,970C 1414.79,966.584 1416.96,963.084 1419,959.5C 1421.31,957.89 1423.81,956.557 1426.5,955.5C 1438.24,956.539 1449.74,956.539 1461,955.5C 1462.09,956.293 1463.25,956.96 1464.5,957.5C 1472.43,956.553 1480.43,956.22 1488.5,956.5C 1494.32,957.188 1500.15,957.855 1506,958.5C 1519.57,959.089 1533.4,958.423 1547.5,956.5C 1549.69,956.711 1551.85,957.044 1554,957.5C 1555.71,957.561 1557.04,956.894 1558,955.5C 1559.51,956.09 1561.01,956.756 1562.5,957.5C 1559.9,961.019 1557.07,964.352 1554,967.5C 1553.52,968.448 1553.35,969.448 1553.5,970.5 Z"/></g>
<g><path style="opacity:0.005" fill="#000000" d="M 1746.5,956.5 C 1748.41,957.185 1750.41,957.685 1752.5,958C 1750.68,959.743 1748.68,961.243 1746.5,962.5C 1745.31,960.484 1745.31,958.484 1746.5,956.5 Z"/></g>
<g><path style="opacity:0.004" fill="#000000" d="M 1188.5,957.5 C 1189.78,958.386 1189.78,959.386 1188.5,960.5C 1187.44,959.575 1187.44,958.575 1188.5,957.5 Z"/></g>
<g><path style="opacity:0.008" fill="#000000" d="M 532.5,961.5 C 538.359,964.846 543.526,969.18 548,974.5C 548.483,975.448 548.649,976.448 548.5,977.5C 546.436,977.313 544.436,976.813 542.5,976C 538.358,972.038 534.692,967.704 531.5,963C 532.056,962.617 532.389,962.117 532.5,961.5 Z"/></g>
<g><path style="opacity:0.005" fill="#000000" d="M 507.5,963.5 C 510.044,963.104 512.211,963.771 514,965.5C 515.944,969.11 518.277,972.443 521,975.5C 521.617,976.449 521.451,977.282 520.5,978C 517.503,978.755 515.003,977.922 513,975.5C 510.959,971.916 508.792,968.416 506.5,965C 507.056,964.617 507.389,964.117 507.5,963.5 Z"/></g>
<g><path style="opacity:0.004" fill="#000000" d="M 524.5,973.5 C 523.291,970.279 521.624,967.279 519.5,964.5C 519.833,964.167 520.167,963.833 520.5,963.5C 523.814,967.948 527.48,972.115 531.5,976C 530.5,976.5 529.5,977 528.5,977.5C 527.16,976.133 525.827,974.8 524.5,973.5 Z"/></g>
<g><path style="opacity:0.004" fill="#000000" d="M 1235.5,963.5 C 1236.83,964.167 1236.83,964.167 1235.5,963.5 Z"/></g>
<g><path style="opacity:0.004" fill="#000000" d="M 1185.5,964.5 C 1186.04,964.56 1186.38,964.893 1186.5,965.5C 1185.02,969.815 1182.18,972.815 1178,974.5C 1177.5,974 1177,973.5 1176.5,973C 1179.4,969.934 1182.4,967.101 1185.5,964.5 Z"/></g>
<g><path style="opacity:0.004" fill="#000000" d="M 309.5,966.5 C 309.897,965.475 310.563,965.308 311.5,966C 310.906,966.464 310.239,966.631 309.5,966.5 Z"/></g>
<g><path style="opacity:0.004" fill="#000000" d="M 517.5,965.5 C 518.833,966.167 518.833,966.167 517.5,965.5 Z"/></g>
<g><path style="opacity:0.004" fill="#000000" d="M 1233.5,966.5 C 1234.83,967.167 1234.83,967.167 1233.5,966.5 Z"/></g>
<g><path style="opacity:0.004" fill="#000000" d="M 307.5,967.5 C 308.873,967.343 310.207,967.51 311.5,968C 313.59,970.764 315.59,973.597 317.5,976.5C 317.167,976.833 316.833,977.167 316.5,977.5C 311.553,976.717 306.553,976.217 301.5,976C 303.72,973.287 305.72,970.454 307.5,967.5 Z"/></g>
<g><path style="opacity:0.004" fill="#000000" d="M 1233.5,967.5 C 1233.54,968.756 1233.04,969.756 1232,970.5C 1231.42,969.002 1231.92,968.002 1233.5,967.5 Z"/></g>
<g><path style="opacity:0.004" fill="#000000" d="M 520.5,969.5 C 519.833,968.167 519.833,968.167 520.5,969.5 Z"/></g>
<g><path style="opacity:0.004" fill="#000000" d="M 1745.5,968.5 C 1747.76,969.238 1747.93,970.238 1746,971.5C 1745.52,970.552 1745.35,969.552 1745.5,968.5 Z"/></g>
<g><path style="opacity:0.004" fill="#000000" d="M 520.5,969.5 C 521.473,971.139 522.806,972.473 524.5,973.5C 524.678,974.695 525.011,975.862 525.5,977C 525.15,978.257 524.483,978.591 523.5,978C 522.071,975.31 521.071,972.477 520.5,969.5 Z"/></g>
<g><path style="opacity:0.004" fill="#000000" d="M 1553.5,970.5 C 1554.83,971.167 1554.83,971.167 1553.5,970.5 Z"/></g>
<g><path style="opacity:0.004" fill="#000000" d="M 1132.5,979.5 C 1135.22,974.298 1139.22,972.798 1144.5,975C 1142.5,975.333 1140.5,975.667 1138.5,976C 1136.94,977.947 1134.94,979.114 1132.5,979.5 Z"/></g>
<g><path style="opacity:0.004" fill="#000000" d="M 299.5,975.5 C 300.833,976.167 300.833,976.167 299.5,975.5 Z"/></g>
<g><path style="opacity:0.004" fill="#000000" d="M 533.5,976.5 C 532.833,975.167 532.833,975.167 533.5,976.5 Z"/></g>
<g><path style="opacity:0.004" fill="#000000" d="M 533.5,976.5 C 534.833,977.167 534.833,977.167 533.5,976.5 Z"/></g>
<g><path style="opacity:0.004" fill="#000000" d="M 1151.5,982.5 C 1152.83,983.167 1152.83,983.167 1151.5,982.5 Z"/></g>
<g><path style="opacity:0.004" fill="#000000" d="M 1150.5,983.5 C 1150.83,983.5 1151.17,983.5 1151.5,983.5C 1151.31,984.17 1150.98,984.17 1150.5,983.5 Z"/></g>
<g><path style="opacity:0.004" fill="#000000" d="M 603.5,1002.5 C 602.833,1003.17 602.833,1003.17 603.5,1002.5 Z"/></g>
<g><path style="opacity:0.004" fill="#000000" d="M 638.5,1025.5 C 639.833,1026.17 639.833,1026.17 638.5,1025.5 Z"/></g>
<g><path style="opacity:0.004" fill="#000000" d="M 648.5,1029.5 C 647.833,1030.17 647.833,1030.17 648.5,1029.5 Z"/></g>
<g><path style="opacity:0.004" fill="#000000" d="M 1086.5,1029.5 C 1087.83,1030.17 1087.83,1030.17 1086.5,1029.5 Z"/></g>
<g><path style="opacity:0.004" fill="#000000" d="M 650.5,1030.5 C 649.833,1031.17 649.833,1031.17 650.5,1030.5 Z"/></g>
<g><path style="opacity:0.004" fill="#000000" d="M 655.5,1033.5 C 654.833,1034.17 654.833,1034.17 655.5,1033.5 Z"/></g>
<g><path style="opacity:0.004" fill="#000000" d="M 662.5,1038.5 C 661.833,1039.17 661.833,1039.17 662.5,1038.5 Z"/></g>
<g><path style="opacity:0.004" fill="#000000" d="M 1065.5,1038.5 C 1066.83,1039.17 1066.83,1039.17 1065.5,1038.5 Z"/></g>
<g><path style="opacity:0.004" fill="#000000" d="M 1684.5,1164.5 C 1685.83,1165.17 1685.83,1165.17 1684.5,1164.5 Z"/></g>
<g><path style="opacity:0.004" fill="#000000" d="M 1684.5,1169.5 C 1685.53,1169.9 1685.69,1170.56 1685,1171.5C 1684.54,1170.91 1684.37,1170.24 1684.5,1169.5 Z"/></g>
<g><path style="opacity:0.004" fill="#000000" d="M 1684.5,1172.5 C 1685.83,1173.17 1685.83,1173.17 1684.5,1172.5 Z"/></g>
<g><path style="opacity:0.004" fill="#000000" d="M 1684.5,1174.5 C 1685.83,1175.17 1685.83,1175.17 1684.5,1174.5 Z"/></g>
<g><path style="opacity:0.004" fill="#000000" d="M 1684.5,1179.5 C 1685.53,1179.9 1685.69,1180.56 1685,1181.5C 1684.54,1180.91 1684.37,1180.24 1684.5,1179.5 Z"/></g>
</svg>
