<?xml version="1.0" encoding="UTF-8"?>
<!DOCTYPE svg PUBLIC "-//W3C//DTD SVG 1.1//EN" "http://www.w3.org/Graphics/SVG/1.1/DTD/svg11.dtd">
<svg xmlns="http://www.w3.org/2000/svg" version="1.1" width="1779px" height="1445px" style="shape-rendering:geometricPrecision; text-rendering:geometricPrecision; image-rendering:optimizeQuality; fill-rule:evenodd; clip-rule:evenodd" xmlns:xlink="http://www.w3.org/1999/xlink">
<g><path style="opacity:0.77" fill="#000000" d="M 80.5,1070.5 C 293.012,1071 503.679,1071 712.5,1070.5C 734.481,1071.18 756.481,1071.84 778.5,1072.5C 1075.03,1071.78 1370.87,1071.78 1666,1072.5C 1668.7,1072.19 1670.7,1073.19 1672,1075.5C 1672.38,1087.34 1672.88,1099.17 1673.5,1111C 1673.48,1114.09 1673.14,1117.09 1672.5,1120C 1673.93,1123.49 1674.59,1127.16 1674.5,1131C 1673.71,1144.66 1672.71,1158.32 1671.5,1172C 1672.03,1193.7 1672.7,1216.03 1673.5,1239C 1672.81,1255.26 1672.48,1271.76 1672.5,1288.5C 1638.85,1289.34 1605.51,1289.67 1572.5,1289.5C 1569.22,1288.75 1565.89,1288.25 1562.5,1288C 1561.03,1287.36 1559.7,1286.53 1558.5,1285.5C 1557.77,1277.83 1557.1,1270.16 1556.5,1262.5C 1557.72,1254.11 1557.72,1245.94 1556.5,1238C 1557.13,1231.95 1557.79,1225.95 1558.5,1220C 1556.42,1217.35 1556.08,1214.51 1557.5,1211.5C 1556.96,1206.8 1556.3,1202.13 1555.5,1197.5C 1556.03,1196.81 1556.69,1196.31 1557.5,1196C 1557.11,1192.05 1554.94,1190.21 1551,1190.5C 1508.68,1191.57 1466.35,1191.57 1424,1190.5C 1404.86,1191.17 1385.7,1191.84 1366.5,1192.5C 1203.6,1192.8 1038.77,1192.47 872,1191.5C 828.549,1192.17 785.049,1192.84 741.5,1193.5C 724.814,1192.18 708.147,1192.18 691.5,1193.5C 688.593,1192.99 685.759,1192.32 683,1191.5C 663.435,1192.75 643.101,1192.75 622,1191.5C 612.53,1192.18 603.03,1192.85 593.5,1193.5C 582.48,1192.44 571.814,1192.44 561.5,1193.5C 558.792,1192.96 556.126,1192.29 553.5,1191.5C 483.911,1191.51 413.244,1192.18 341.5,1193.5C 336.635,1192.86 331.801,1192.19 327,1191.5C 316.883,1192.2 306.717,1192.87 296.5,1193.5C 263.186,1192.46 229.853,1192.46 196.5,1193.5C 196.808,1194.31 197.308,1194.97 198,1195.5C 198.186,1208.21 198.686,1220.88 199.5,1233.5C 198.711,1235.87 199.044,1238.2 200.5,1240.5C 199.848,1255.23 199.848,1269.89 200.5,1284.5C 200.023,1285.48 199.357,1286.31 198.5,1287C 194.112,1288.11 189.612,1288.61 185,1288.5C 158.305,1288.06 131.805,1288.06 105.5,1288.5C 97.4867,1287.83 89.4867,1287.17 81.5,1286.5C 81.384,1268.25 81.384,1250.59 81.5,1233.5C 80.9598,1232.25 80.2931,1231.09 79.5,1230C 80.2566,1227.06 80.9233,1224.06 81.5,1221C 80.7959,1214.82 80.7959,1208.82 81.5,1203C 79.5457,1192.09 78.879,1181.09 79.5,1170C 79.3307,1166.38 78.664,1162.88 77.5,1159.5C 78.4303,1157.9 78.4303,1156.4 77.5,1155C 78.1667,1154.67 78.8333,1154.33 79.5,1154C 79.4339,1151.89 79.1005,1149.72 78.5,1147.5C 80.3515,1141.5 80.3515,1135.33 78.5,1129C 79.6877,1112.57 79.6877,1096.23 78.5,1080C 79.2497,1076.84 79.9164,1073.67 80.5,1070.5 Z M 1658.5,1080.5 C 1659.15,1080.8 1659.82,1081.14 1660.5,1081.5C 1661.18,1088.06 1661.85,1094.56 1662.5,1101C 1661.42,1149.72 1661.42,1197.89 1662.5,1245.5C 1661.5,1256.12 1660.84,1266.79 1660.5,1277.5C 1648.98,1277.77 1637.81,1277.43 1627,1276.5C 1622.02,1278.34 1616.86,1278.34 1611.5,1276.5C 1598.45,1277.24 1585.61,1277.91 1573,1278.5C 1573.38,1248.21 1573.88,1217.55 1574.5,1186.5C 1569.97,1186.3 1565.64,1185.3 1561.5,1183.5C 1560.11,1183.62 1558.77,1183.95 1557.5,1184.5C 1526.83,1183.83 1496.17,1183.17 1465.5,1182.5C 1384.78,1182.8 1303.28,1183.14 1221,1183.5C 1195.2,1182.83 1169.36,1182.16 1143.5,1181.5C 1000.29,1181.85 856.956,1181.85 713.5,1181.5C 694.487,1182.08 675.987,1182.75 658,1183.5C 654.2,1182.8 650.367,1182.13 646.5,1181.5C 617.626,1182.68 588.793,1182.68 560,1181.5C 557.432,1181.93 554.932,1182.6 552.5,1183.5C 540.167,1182.83 527.833,1182.17 515.5,1181.5C 410.924,1182 305.091,1182 198,1181.5C 192.037,1180.87 187.204,1182.87 183.5,1187.5C 184.361,1193.89 184.361,1200.22 183.5,1206.5C 184.997,1214.13 185.331,1221.8 184.5,1229.5C 185.023,1236.4 185.69,1243.23 186.5,1250C 186.478,1254.25 186.145,1258.41 185.5,1262.5C 186.04,1263.75 186.707,1264.91 187.5,1266C 187.603,1270.15 187.603,1274.32 187.5,1278.5C 167.719,1278.42 148.219,1278.09 129,1277.5C 124.333,1278.17 119.667,1278.83 115,1279.5C 109.623,1278.79 103.789,1278.46 97.5,1278.5C 96.5,1279.17 95.5,1279.83 94.5,1280.5C 93.8016,1273.14 93.1349,1265.81 92.5,1258.5C 93.0808,1248.7 93.4141,1239.04 93.5,1229.5C 92.711,1225.02 92.0443,1220.52 91.5,1216C 91.2661,1199.54 91.2661,1183.21 91.5,1167C 90.8333,1163 90.1667,1159 89.5,1155C 90.2531,1147.56 90.9198,1140.06 91.5,1132.5C 90.5401,1129.56 90.2067,1126.73 90.5,1124C 90.9551,1121.69 91.9551,1119.69 93.5,1118C 93.3157,1115.06 93.3157,1112.06 93.5,1109C 93.0809,1102.44 91.7476,1096.1 89.5,1090C 89.7885,1087.81 90.1218,1085.65 90.5,1083.5C 465.856,1083.5 839.189,1083.5 1210.5,1083.5C 1214.03,1082.87 1217.53,1082.2 1221,1081.5C 1342.23,1082.18 1461.89,1082.51 1580,1082.5C 1606.31,1081.85 1632.47,1081.18 1658.5,1080.5 Z"/></g>
<g><path style="opacity:0.004" fill="#000000" d="M 1684.5,1164.5 C 1685.83,1165.17 1685.83,1165.17 1684.5,1164.5 Z"/></g>
<g><path style="opacity:0.004" fill="#000000" d="M 1684.5,1169.5 C 1685.53,1169.9 1685.69,1170.56 1685,1171.5C 1684.54,1170.91 1684.37,1170.24 1684.5,1169.5 Z"/></g>
<g><path style="opacity:0.004" fill="#000000" d="M 1684.5,1172.5 C 1685.83,1173.17 1685.83,1173.17 1684.5,1172.5 Z"/></g>
<g><path style="opacity:0.004" fill="#000000" d="M 1684.5,1174.5 C 1685.83,1175.17 1685.83,1175.17 1684.5,1174.5 Z"/></g>
<g><path style="opacity:0.004" fill="#000000" d="M 1684.5,1179.5 C 1685.53,1179.9 1685.69,1180.56 1685,1181.5C 1684.54,1180.91 1684.37,1180.24 1684.5,1179.5 Z"/></g>
</svg>
