<?xml version="1.0" encoding="UTF-8"?>
<!DOCTYPE svg PUBLIC "-//W3C//DTD SVG 1.1//EN" "http://www.w3.org/Graphics/SVG/1.1/DTD/svg11.dtd">
<svg xmlns="http://www.w3.org/2000/svg" version="1.1" width="1699px" height="1180px" style="shape-rendering:geometricPrecision; text-rendering:geometricPrecision; image-rendering:optimizeQuality; fill-rule:evenodd; clip-rule:evenodd" xmlns:xlink="http://www.w3.org/1999/xlink">
<g><path style="opacity:0.766" fill="#050404" d="M 835.5,136.5 C 847.59,136.442 859.59,137.442 871.5,139.5C 872.689,139.244 873.856,138.911 875,138.5C 883.022,140.001 891.189,141.501 899.5,143C 904.735,144.745 910.068,146.079 915.5,147C 946.256,158.544 977.256,169.21 1008.5,179C 1022.85,182.752 1037.35,185.586 1052,187.5C 1056.73,188.099 1061.39,187.432 1066,185.5C 1073,185.766 1080.17,185.766 1087.5,185.5C 1100.89,184.134 1114.39,182.134 1128,179.5C 1128.77,179.645 1129.44,179.978 1130,180.5C 1133.66,177.75 1137.66,176.75 1142,177.5C 1143.72,176.15 1145.55,174.983 1147.5,174C 1173.39,165.859 1199.39,158.026 1225.5,150.5C 1226.09,150.709 1226.59,151.043 1227,151.5C 1234.7,150.323 1242.7,149.323 1251,148.5C 1256.94,148.568 1262.94,148.568 1269,148.5C 1273.55,148.986 1278.05,149.653 1282.5,150.5C 1290.49,150.134 1298.49,150.801 1306.5,152.5C 1307.55,152.32 1308.55,151.987 1309.5,151.5C 1316.15,153.828 1322.82,154.828 1329.5,154.5C 1332.06,155.051 1334.39,156.051 1336.5,157.5C 1337.17,157.167 1337.83,156.833 1338.5,156.5C 1351.42,160.563 1364.09,165.396 1376.5,171C 1378.83,173.142 1380.49,175.642 1381.5,178.5C 1385.23,178.78 1386.39,180.78 1385,184.5C 1384.1,185.701 1382.93,186.535 1381.5,187C 1361.63,191.217 1341.97,196.217 1322.5,202C 1302.28,210.229 1282.28,218.895 1262.5,228C 1253.82,234.012 1244.48,239.012 1234.5,243C 1227.02,249.148 1219.02,254.481 1210.5,259C 1207.23,262.949 1203.39,266.116 1199,268.5C 1193.48,275.033 1188.31,281.867 1183.5,289C 1181.63,294.183 1179.8,299.35 1178,304.5C 1177.33,309.833 1177.33,315.167 1178,320.5C 1180.45,328.076 1184.12,335.41 1189,342.5C 1195.97,349.473 1202.97,356.473 1210,363.5C 1210.48,364.448 1210.65,365.448 1210.5,366.5C 1214.47,367.949 1217.81,370.449 1220.5,374C 1221.5,374.333 1222.5,374.667 1223.5,375C 1240.89,390.402 1258.23,405.735 1275.5,421C 1277.25,421.471 1278.91,422.138 1280.5,423C 1284.55,426.716 1288.88,430.05 1293.5,433C 1306.17,446.222 1318.01,460.055 1329,474.5C 1336.42,482.598 1343.75,490.932 1351,499.5C 1370.61,528.924 1384.45,561.091 1392.5,596C 1392.36,596.772 1392.02,597.439 1391.5,598C 1397.03,611.765 1401.03,626.099 1403.5,641C 1404.41,644.838 1404.41,648.838 1403.5,653C 1404.29,654.085 1404.96,655.252 1405.5,656.5C 1404.5,666.573 1404.33,676.907 1405,687.5C 1403.12,697.361 1401.45,707.694 1400,718.5C 1394.8,733.245 1390.46,748.245 1387,763.5C 1383.84,769.918 1381.18,776.585 1379,783.5C 1370.74,798.974 1363.24,814.808 1356.5,831C 1350.26,841.729 1344.26,852.562 1338.5,863.5C 1337.32,863.281 1336.32,863.614 1335.5,864.5C 1330.23,874.583 1324.39,884.25 1318,893.5C 1309.84,903.324 1301.34,912.824 1292.5,922C 1264.75,946.965 1234.75,968.798 1202.5,987.5C 1201.61,988.325 1201.28,989.325 1201.5,990.5C 1158.59,1010.96 1114.59,1028.62 1069.5,1043.5C 1068.83,1043.17 1068.17,1042.83 1067.5,1042.5C 1061.02,1045.34 1054.85,1048.01 1049,1050.5C 1048.59,1050.04 1048.09,1049.71 1047.5,1049.5C 1039.93,1052.42 1032.26,1055.08 1024.5,1057.5C 1023.83,1057.17 1023.17,1056.83 1022.5,1056.5C 1019.32,1059.17 1015.82,1060.17 1012,1059.5C 1011.5,1060 1011,1060.5 1010.5,1061C 1001.43,1063.22 992.434,1064.72 983.5,1065.5C 981.878,1067.44 980.044,1067.77 978,1066.5C 972.102,1067.86 966.102,1068.86 960,1069.5C 958.893,1069.41 957.893,1069.08 957,1068.5C 947.09,1069.92 937.256,1070.92 927.5,1071.5C 926.914,1071.29 926.414,1070.96 926,1070.5C 907.544,1071.81 889.044,1072.81 870.5,1073.5C 866.046,1073.36 861.546,1072.7 857,1071.5C 844.093,1071.6 830.76,1072.26 817,1073.5C 779.781,1072.5 742.614,1070.33 705.5,1067C 704.579,1065.24 703.412,1065.08 702,1066.5C 673.406,1061.27 645.739,1053.27 619,1042.5C 618.439,1043.02 617.772,1043.36 617,1043.5C 571.399,1028.55 527.233,1010.89 484.5,990.5C 484.719,989.325 484.386,988.325 483.5,987.5C 455.979,971.8 429.979,953.966 405.5,934C 395.694,924.194 385.86,914.36 376,904.5C 369.172,896.168 362.838,887.502 357,878.5C 347.121,862.929 337.621,847.096 328.5,831C 322.939,817.044 316.439,803.544 309,790.5C 305.776,781.272 302.109,772.272 298,763.5C 294.361,747.957 290.027,732.957 285,718.5C 283.007,705.764 281.173,693.097 279.5,680.5C 279.656,672.303 279.656,664.303 279.5,656.5C 280.04,655.252 280.707,654.085 281.5,653C 280.593,648.838 280.593,644.838 281.5,641C 283.627,630.062 286.127,619.229 289,608.5C 290.516,604.935 292.016,601.435 293.5,598C 292.978,597.439 292.645,596.772 292.5,596C 299.144,568.561 308.978,542.394 322,517.5C 329.27,505.955 337.27,494.955 346,484.5C 347.512,483.743 348.846,482.743 350,481.5C 362.755,464.546 376.588,448.38 391.5,433C 413.829,417.509 434.829,400.342 454.5,381.5C 460.83,377.106 466.83,372.272 472.5,367C 473.448,366.517 474.448,366.351 475.5,366.5C 475.351,365.448 475.517,364.448 476,363.5C 483.027,356.473 490.027,349.473 497,342.5C 501.879,335.41 505.546,328.076 508,320.5C 509.032,312.669 508.365,305.002 506,297.5C 504.451,294.862 503.285,292.029 502.5,289C 497.688,281.867 492.522,275.033 487,268.5C 480.855,263.695 474.689,258.861 468.5,254C 434.554,234.028 399.221,216.695 362.5,202C 343.034,196.217 323.367,191.217 303.5,187C 299.646,185.392 298.646,182.726 300.5,179C 301.448,178.517 302.448,178.351 303.5,178.5C 304.866,175.936 306.533,173.436 308.5,171C 315.636,168.264 322.636,165.264 329.5,162C 335.306,160.254 341.139,158.42 347,156.5C 347.772,156.645 348.439,156.978 349,157.5C 350.491,155.996 352.324,155.163 354.5,155C 361.836,154.849 369.002,153.682 376,151.5C 377,151.833 378,152.167 379,152.5C 387.02,150.74 395.02,150.073 403,150.5C 412.007,148.521 421.007,147.855 430,148.5C 439.994,148.998 449.661,149.998 459,151.5C 459.414,151.043 459.914,150.709 460.5,150.5C 488.23,157.864 515.897,166.364 543.5,176C 562.676,181.144 582.009,183.977 601.5,184.5C 621.546,187.563 641.879,187.063 662.5,183C 699.426,172.878 735.759,160.878 771.5,147C 785.143,143.271 798.976,140.438 813,138.5C 814.226,138.645 815.393,138.978 816.5,139.5C 822.95,138.429 829.284,137.429 835.5,136.5 Z M 863.5,150.5 C 881.097,153.287 898.763,156.787 916.5,161C 919.932,162.544 923.266,164.211 926.5,166C 935.345,167.448 944.012,169.615 952.5,172.5C 954.229,173.597 955.896,174.763 957.5,176C 981.656,183.743 1005.99,190.91 1030.5,197.5C 1033.35,196.109 1036.01,196.443 1038.5,198.5C 1039.17,198.167 1039.83,197.833 1040.5,197.5C 1044,198.976 1047.5,199.31 1051,198.5C 1062.09,200.361 1073.09,200.361 1084,198.5C 1087.46,198.657 1090.96,198.991 1094.5,199.5C 1096.17,198.11 1097.84,197.777 1099.5,198.5C 1130.51,194.653 1160.68,187.653 1190,177.5C 1192.32,178.367 1194.32,177.701 1196,175.5C 1197.01,176.337 1198.18,176.67 1199.5,176.5C 1199.28,175.325 1199.61,174.325 1200.5,173.5C 1217.57,168.119 1235.41,164.786 1254,163.5C 1261.81,164.258 1269.64,164.925 1277.5,165.5C 1279.23,165.41 1280.89,165.077 1282.5,164.5C 1299.93,166.853 1317.59,169.353 1335.5,172C 1343.93,175.141 1352.26,178.474 1360.5,182C 1346.76,185.52 1333.1,189.52 1319.5,194C 1297.71,203.162 1275.71,212.162 1253.5,221C 1238.6,228.899 1223.93,237.232 1209.5,246C 1193.87,257.97 1181.03,272.47 1171,289.5C 1163.48,312.104 1167.15,332.771 1182,351.5C 1183.71,353.543 1185.71,355.21 1188,356.5C 1188.48,357.448 1188.65,358.448 1188.5,359.5C 1190.91,360.687 1193.24,362.187 1195.5,364C 1202.15,371.914 1209.48,379.248 1217.5,386C 1224.29,391.567 1231.29,396.901 1238.5,402C 1241.73,405.145 1244.73,408.478 1247.5,412C 1272.89,430.724 1295.73,452.224 1316,476.5C 1316.33,477.5 1316.67,478.5 1317,479.5C 1327.72,491.885 1338.06,504.552 1348,517.5C 1365.65,548.369 1377.15,581.036 1382.5,615.5C 1384.26,621.615 1385.93,627.782 1387.5,634C 1386,636.006 1386.33,637.672 1388.5,639C 1388.04,639.414 1387.71,639.914 1387.5,640.5C 1388.3,641.941 1388.97,643.441 1389.5,645C 1389.08,649.768 1389.08,654.601 1389.5,659.5C 1363.76,659.702 1338.76,659.702 1314.5,659.5C 1293.25,660.525 1272.09,661.525 1251,662.5C 1249.93,661.809 1248.77,661.309 1247.5,661C 1231.49,660.429 1215.49,659.596 1199.5,658.5C 1180.52,658.368 1161.52,658.702 1142.5,659.5C 1136.5,658.833 1130.5,658.167 1124.5,657.5C 1123.25,658.04 1122.09,658.707 1121,659.5C 1102.41,658.983 1083.91,658.649 1065.5,658.5C 1025.37,660.644 985.542,662.644 946,664.5C 934.695,663.978 923.362,663.978 912,664.5C 900.69,663.733 889.357,662.733 878,661.5C 864.686,662.116 851.853,662.116 839.5,661.5C 825.609,662.75 811.776,663.75 798,664.5C 780.363,664.223 762.53,663.89 744.5,663.5C 738.833,664.167 733.167,664.833 727.5,665.5C 717.691,664.69 707.857,664.69 698,665.5C 692.231,664.717 686.398,664.05 680.5,663.5C 679.228,663.57 678.062,663.903 677,664.5C 671.045,663.793 665.045,663.126 659,662.5C 658.228,662.645 657.561,662.978 657,663.5C 643.863,662.825 630.697,662.158 617.5,661.5C 603.443,661.882 588.943,662.215 574,662.5C 559.098,660.967 544.264,659.967 529.5,659.5C 523.479,660.354 517.479,661.354 511.5,662.5C 510.833,662.167 510.167,661.833 509.5,661.5C 494.898,662.951 480.231,663.784 465.5,664C 464.234,664.309 463.067,664.809 462,665.5C 437.696,663.937 413.196,662.603 388.5,661.5C 381.747,661.51 375.08,662.176 368.5,663.5C 364.136,662.766 359.802,662.433 355.5,662.5C 353.831,663.89 352.164,664.223 350.5,663.5C 346.833,664.167 343.167,664.833 339.5,665.5C 338.833,665.167 338.167,664.833 337.5,664.5C 323.852,665.792 310.186,666.792 296.5,667.5C 295.738,666.372 295.071,665.205 294.5,664C 295.771,656.152 297.105,648.319 298.5,640.5C 297.332,639.094 297.665,637.928 299.5,637C 303.801,595.217 316.635,555.384 338,517.5C 349.542,502.39 361.542,487.724 374,473.5C 381.253,462.911 389.92,453.578 400,445.5C 402.167,442.667 404.333,439.833 406.5,437C 417.468,429.03 428.135,420.696 438.5,412C 441.266,408.478 444.266,405.145 447.5,402C 458.672,393.577 469.672,384.911 480.5,376C 485.654,371.012 490.654,365.845 495.5,360.5C 496.325,359.614 497.325,359.281 498.5,359.5C 498.351,358.448 498.517,357.448 499,356.5C 501.292,355.21 503.292,353.543 505,351.5C 514.113,340.073 519.28,326.906 520.5,312C 519.468,301.714 516.635,291.881 512,282.5C 502.527,268.362 491.027,256.195 477.5,246C 462.493,237.656 447.493,229.322 432.5,221C 410.291,212.162 388.291,203.162 366.5,194C 352.902,189.52 339.236,185.52 325.5,182C 331.902,180.094 337.902,177.427 343.5,174C 358.158,170.049 372.991,167.882 388,167.5C 392.851,165.952 397.851,164.952 403,164.5C 404.569,165.122 406.236,165.456 408,165.5C 426.901,163.027 445.734,163.86 464.5,168C 471.22,169.68 477.887,171.347 484.5,173C 485.973,173.71 486.64,174.876 486.5,176.5C 487.822,176.67 488.989,176.337 490,175.5C 491.684,177.701 493.684,178.367 496,177.5C 535.116,191.346 575.116,199.012 616,200.5C 622.711,199.87 629.378,199.203 636,198.5C 636.893,199.081 637.893,199.415 639,199.5C 643.689,198.004 648.356,197.004 653,196.5C 654.144,196.911 655.311,197.244 656.5,197.5C 686.709,190.745 716.043,181.412 744.5,169.5C 749.071,168.178 753.738,167.345 758.5,167C 769.185,161.862 780.518,158.195 792.5,156C 799.561,154.73 806.561,153.23 813.5,151.5C 827.529,152.04 841.362,152.374 855,152.5C 858.027,152.088 860.86,151.421 863.5,150.5 Z M 530.5,669.5 C 546.411,669.826 562.411,670.826 578.5,672.5C 593.182,671.748 607.849,671.415 622.5,671.5C 641.33,672.302 660.164,673.302 679,674.5C 681.414,674.513 683.914,674.18 686.5,673.5C 692.833,674.167 699.167,674.833 705.5,675.5C 735.861,674.185 766.361,674.185 797,675.5C 815.93,674.567 834.93,673.567 854,672.5C 873.82,673.011 893.653,674.011 913.5,675.5C 926.478,675.498 939.144,675.498 951.5,675.5C 955.726,674.93 959.892,674.263 964,673.5C 971.177,674.359 978.344,674.692 985.5,674.5C 993.587,672.763 1001.59,672.429 1009.5,673.5C 1012.5,672.833 1015.5,672.167 1018.5,671.5C 1022.86,672.234 1027.2,672.567 1031.5,672.5C 1045.94,671.06 1060.44,670.06 1075,669.5C 1093.57,670.306 1112.57,670.306 1132,669.5C 1136.47,670.194 1140.97,670.86 1145.5,671.5C 1148.09,669.567 1150.43,669.567 1152.5,671.5C 1155.83,670.833 1159.17,670.167 1162.5,669.5C 1184.03,670.385 1205.37,671.385 1226.5,672.5C 1239.16,671.825 1251.66,671.825 1264,672.5C 1267.56,672.101 1271.06,671.434 1274.5,670.5C 1312.48,671.175 1351.15,671.175 1390.5,670.5C 1391.42,690.882 1388.92,711.215 1383,731.5C 1378.13,743.926 1373.79,756.593 1370,769.5C 1369,770.833 1368,772.167 1367,773.5C 1364.01,783.151 1361.01,792.818 1358,802.5C 1352.13,816.579 1345.46,830.245 1338,843.5C 1336.79,844.071 1335.63,844.738 1334.5,845.5C 1321.52,869.958 1305.69,892.292 1287,912.5C 1277.58,918.591 1269.08,925.758 1261.5,934C 1249.86,942.301 1238.19,950.635 1226.5,959C 1221.98,961.094 1217.64,963.427 1213.5,966C 1211.5,967.667 1209.5,969.333 1207.5,971C 1190.92,979.192 1174.59,987.525 1158.5,996C 1139.66,1002.49 1121,1009.49 1102.5,1017C 1091.07,1020.48 1079.73,1024.14 1068.5,1028C 1067.83,1029 1067.17,1030 1066.5,1031C 1051.32,1036.16 1035.66,1040.83 1019.5,1045C 1018,1046.17 1016.5,1047.33 1015,1048.5C 1014.59,1048.04 1014.09,1047.71 1013.5,1047.5C 1003.01,1050.54 992.677,1053.04 982.5,1055C 959.044,1058.22 935.711,1059.72 912.5,1059.5C 907.968,1060.14 903.468,1060.81 899,1061.5C 865.366,1060.84 831.366,1060.84 797,1061.5C 772.102,1060.31 747.269,1058.81 722.5,1057C 708.933,1055.96 695.6,1053.63 682.5,1050C 661.847,1043.8 641.18,1037.46 620.5,1031C 619.833,1030 619.167,1029 618.5,1028C 607.265,1024.14 595.932,1020.48 584.5,1017C 566.005,1009.49 547.338,1002.49 528.5,996C 512.188,987.673 495.855,979.34 479.5,971C 464.225,961.688 449.225,951.855 434.5,941.5C 423.021,931.863 411.355,922.363 399.5,913C 389.637,902.464 380.471,891.298 372,879.5C 365.987,869.468 359.987,859.468 354,849.5C 352.439,847.027 350.439,845.027 348,843.5C 340.54,830.245 333.873,816.579 328,802.5C 324.994,792.818 321.994,783.151 319,773.5C 318,772.167 317,770.833 316,769.5C 311.576,755.674 306.91,742.008 302,728.5C 299.951,718.093 297.784,707.427 295.5,696.5C 295.432,692.002 295.765,687.502 296.5,683C 295.707,681.915 295.04,680.748 294.5,679.5C 299.758,677.77 305.091,677.436 310.5,678.5C 333.666,676.389 356.666,674.389 379.5,672.5C 384.498,672.947 389.664,673.613 395,674.5C 405.803,673.823 416.637,673.156 427.5,672.5C 440.517,673.799 453.517,674.466 466.5,674.5C 469.702,673.873 472.869,673.206 476,672.5C 487.056,673.158 498.222,673.158 509.5,672.5C 516.619,671.435 523.619,670.435 530.5,669.5 Z"/></g>
<g><path style="opacity:0.099" fill="#050504" d="M 269.5,139.5 C 273.05,139.133 276.05,140.133 278.5,142.5C 275.527,143.509 272.527,143.509 269.5,142.5C 269.5,141.5 269.5,140.5 269.5,139.5 Z"/></g>
<g><path style="opacity:0.098" fill="#050504" d="M 1410.5,139.5 C 1412.17,139.5 1413.83,139.5 1415.5,139.5C 1415.5,140.5 1415.5,141.5 1415.5,142.5C 1412.47,143.509 1409.47,143.509 1406.5,142.5C 1407.62,141.141 1408.96,140.141 1410.5,139.5 Z"/></g>
</svg>
